<svg width="360" height="226" viewBox="0 0 360 226" fill="none" xmlns="http://www.w3.org/2000/svg">
<mask id="mask0_2435_40493" style="mask-type:alpha" maskUnits="userSpaceOnUse" x="0" y="0" width="360" height="226">
<path d="M356.153 15.655C359.037 20.7692 358.981 26.1141 357.377 31.6926C355.767 37.2941 352.616 43.0639 349.375 48.9922L349.344 49.0485C345.361 56.3338 341.248 63.8588 339.965 71.3966C338.109 82.31 339.319 93.2159 341.009 104.058C341.981 110.297 344.693 116.437 347.338 122.422L347.356 122.463C349.541 127.409 351.677 132.248 352.835 137.042C353.99 141.822 354.16 146.514 352.444 151.163C350.91 155.318 347.98 158.251 344.262 160.595C340.529 162.948 336.046 164.681 331.441 166.459L331.39 166.479C325.567 168.728 319.551 171.051 314.907 174.8C309.388 179.256 304.996 186.212 300.751 192.937L300.714 192.995C297.104 198.713 293.599 204.259 289.561 208.169C285.546 212.057 281.071 214.263 275.501 213.42C270.229 212.623 266.534 209.489 263.585 205.04C260.622 200.569 258.457 194.838 256.232 188.939L256.221 188.912C254.261 183.715 252.256 178.399 249.624 173.84C246.984 169.268 243.683 165.403 239.1 163.166C238.548 162.896 237.991 162.656 237.429 162.443C235.417 161.681 233.623 162.376 232.362 163.726C231.123 165.055 230.367 167.036 230.286 169.015C230.181 171.595 229.525 174.134 228.132 176.634C225.375 181.58 220.975 184.233 215.608 185.738C210.217 187.248 203.916 187.582 197.419 187.924L197.338 187.928C188.435 188.396 179.163 188.883 171.801 192.62C165.167 195.987 160.208 201.847 155.387 207.544L155.345 207.594C149.514 214.483 143.884 221.108 135.68 223.459C120.375 227.845 103.361 223.395 88.8098 216.549C81.6802 213.195 76.634 207.072 71.4667 200.786L71.4315 200.743C66.8059 195.116 62.0793 189.366 55.7047 185.667C48.796 181.658 39.3117 180.685 30.2683 179.758L30.1765 179.748C23.2364 179.036 16.5568 178.347 11.2766 176.409C6.03297 174.484 2.26419 171.365 0.996692 165.816C-0.23241 160.436 1.58257 155.82 5.06798 151.489C8.57105 147.135 13.7025 143.142 18.9857 139.036L19.0119 139.016C23.8017 135.293 28.706 131.481 32.4803 127.275C36.2667 123.056 38.9698 118.383 39.2649 112.929C39.5646 107.389 37.5092 102.462 34.352 97.892C31.2075 93.3399 26.9322 89.0895 22.7204 84.9022L22.6963 84.8782C18.3243 80.5317 14.0245 76.2537 10.9851 71.7043C7.95462 67.1684 6.21611 62.4187 6.89922 57.1275C8.04135 48.2808 14.2624 40.9 22.5489 35.4372C30.8282 29.9791 41.0827 26.4973 50.0979 25.4213C59.8933 24.2523 68.5831 29.7364 77.5813 35.4456L77.6633 35.4977C85.8048 40.6634 94.1949 45.9869 103.646 46.042C111.24 46.0862 117.345 40.9453 123.242 35.9798L123.337 35.8991C129.175 30.9839 134.825 26.2565 141.721 25.9593C145.406 25.8005 148.981 26.3246 152.475 27.3225C155.296 28.1281 158.58 26.8599 161.443 24.9789C164.336 23.0776 166.966 20.441 168.541 18.2124C168.756 17.9076 168.989 17.6045 169.24 17.303C173.116 12.6388 178.223 11.2737 184.144 11.6256C190.099 11.9795 196.787 14.0664 203.724 16.2353L203.82 16.2652C213.441 19.2731 223.548 22.4329 232.419 20.9229C239.092 19.787 244.369 15.2503 249.482 10.8553L249.549 10.7973C254.796 6.28689 259.878 1.93975 266.264 0.936709C274.412 -0.343286 282.232 2.37991 290.314 5.20773L290.339 5.21662C295.169 6.90663 300.089 8.62794 305.145 9.46717C311.304 10.4893 318.477 9.69507 325.466 8.92114L325.522 8.91487C332.019 8.19552 338.353 7.49759 343.758 8.19152C349.132 8.88157 353.491 10.9348 356.153 15.655Z" fill="#D9D9D9" stroke="#148783" stroke-width="1.224"/>
</mask>
<g mask="url(#mask0_2435_40493)">
<rect y="-27.418" width="359" height="305" fill="#F9FAFA"/>
<path d="M207.434 14.0915C206.958 14.1593 206.169 14.3627 205.665 14.5254L204.767 14.8237L204.495 16.2473C204.332 17.0337 204.168 17.7659 204.127 17.8879C204.059 18.0642 204.168 18.1455 204.604 18.2811C204.917 18.376 205.692 18.6472 206.318 18.9048L207.475 19.3658L208.55 18.959C209.135 18.7285 210.36 18.3353 211.258 18.0777C212.17 17.8201 212.918 17.5896 212.932 17.576C212.946 17.5489 213.055 17.2506 213.191 16.8981L213.422 16.2744L212.36 15.1762L211.299 14.0644L209.802 14.0102C208.986 13.9831 207.911 14.0102 207.434 14.0915Z" fill="#62B9B5"/>
<path d="M213.612 15.9761L214.402 15.8134C214.824 15.7185 215.177 15.6101 215.177 15.5558C215.177 15.4338 213.041 14.5389 212.456 14.4169L211.979 14.322L213.612 15.9761Z" fill="#62B9B5"/>
<path d="M203.542 15.3931C201.514 16.41 199.46 18.4438 198.453 20.4233C198.126 21.047 198.208 21.3995 198.711 21.6707C198.956 21.8063 199.283 21.5894 201.215 20.1115C202.44 19.1759 203.515 18.3218 203.597 18.2269C203.733 18.0641 204.345 15.1762 204.263 15.0948C204.236 15.0677 203.91 15.2033 203.542 15.3931Z" fill="#62B9B5"/>
<path d="M214.837 16.1117C214.306 16.2338 213.803 16.3693 213.721 16.4236C213.653 16.4778 213.503 16.7897 213.408 17.1286C213.245 17.7116 213.259 17.7523 213.599 18.1726C214.565 19.3522 215.667 20.8708 216.239 21.8199L216.878 22.8774L217.967 23.2164C219.695 23.7452 219.546 23.813 220.022 22.4164L220.457 21.1962L220.117 20.5182C219.355 19.0268 217.423 16.8439 216.212 16.1388C215.817 15.9084 215.735 15.9084 214.837 16.1117Z" fill="#62B9B5"/>
<path d="M210.55 18.6743C207.57 19.5963 207.747 19.5014 207.652 20.2742C207.597 20.6267 207.557 21.9961 207.529 23.2977L207.502 25.6705L208.387 26.1179C209.176 26.5111 211.653 27.3517 212.891 27.6229L213.381 27.7449L214.402 26.2264C216.606 22.9588 216.565 23.0537 216.307 22.5656C215.599 21.1962 213.177 18.0099 212.864 18.0235C212.755 18.0235 211.707 18.3218 210.55 18.6743Z" fill="#62B9B5"/>
<path d="M203.583 18.6879C203.379 18.8777 202.263 19.7319 201.12 20.586L199.011 22.1453L198.929 23.0944C198.875 23.6096 198.847 24.5451 198.875 25.1688L198.915 26.2942L200.957 27.1077C204.236 28.4093 203.719 28.4228 205.57 26.945L207.148 25.6705V23.5689C207.148 22.4164 207.189 21.0606 207.23 20.5589L207.325 19.6505L206.659 19.3522C206.291 19.2031 205.529 18.9048 204.971 18.715L203.95 18.3489L203.583 18.6879Z" fill="#62B9B5"/>
<path d="M197.554 22.5113C197.01 24.2468 196.86 26.1586 197.133 27.9618C197.255 28.7889 197.405 29.5075 197.459 29.5617C197.527 29.6295 197.65 29.3312 197.745 28.9109C197.84 28.4771 198.072 27.7449 198.249 27.2839C198.439 26.7687 198.534 26.267 198.493 26.0501C198.453 25.8467 198.48 24.8434 198.548 23.8401C198.67 22.091 198.657 21.9961 198.398 21.6978C198.249 21.5351 198.072 21.3995 198.017 21.3995C197.949 21.3995 197.745 21.9012 197.554 22.5113Z" fill="#62B9B5"/>
<path d="M220.566 21.8063C220.526 21.9148 220.349 22.4164 220.158 22.9317L219.818 23.8401L220.076 25.0332C220.226 25.684 220.417 27.0941 220.498 28.1788C220.58 29.2635 220.702 30.199 220.757 30.2532C220.811 30.321 221.002 29.8058 221.165 29.1008C221.573 27.3924 221.587 25.0603 221.192 23.4333C220.839 21.9555 220.675 21.5351 220.566 21.8063Z" fill="#62B9B5"/>
<path d="M216.361 23.9485C216.089 24.3824 215.341 25.4806 214.701 26.4026L213.517 28.0703L213.885 30.0092L214.266 31.9345L215.912 32.2328C216.81 32.3955 217.681 32.5717 217.831 32.5989C218.062 32.6531 218.334 32.3955 219.178 31.4057L220.226 30.1448L220.172 28.5855C220.131 27.7314 219.995 26.3619 219.872 25.562C219.6 23.9214 219.736 24.0706 218.171 23.596C217.681 23.4469 217.191 23.2842 217.069 23.2299C216.919 23.1757 216.729 23.3655 216.361 23.9485Z" fill="#62B9B5"/>
<path d="M206.999 26.2264C206.903 26.3484 206.209 26.9178 205.474 27.4737L204.127 28.5042L204.209 29.4668C204.359 31.1074 204.726 33.792 204.835 34.0903C204.957 34.4021 205.91 34.8224 207.951 35.4868L209.162 35.8664L211.176 34.1038C212.292 33.1412 213.34 32.287 213.517 32.2056C213.884 32.0294 213.884 32.165 213.517 29.9414L213.231 28.111L211.585 27.65C210.673 27.3924 209.339 26.9314 208.591 26.606C207.856 26.2806 207.23 26.0094 207.216 26.0094C207.203 26.0094 207.094 26.1043 206.999 26.2264Z" fill="#62B9B5"/>
<path d="M198.303 28.2737C198.058 29.155 197.799 29.9414 197.731 30.0363C197.432 30.4159 198.997 33.1954 200.249 34.5106C200.916 35.2156 200.957 35.2428 201.487 35.1478C202.113 35.0529 203.991 34.4699 204.25 34.3072C204.386 34.2259 204.359 33.8056 204.155 32.3819C204.005 31.3786 203.882 30.1312 203.882 29.6295V28.7076L203.243 28.4364C202.113 27.9483 198.943 26.6873 198.847 26.6873C198.793 26.6873 198.548 27.4059 198.303 28.2737Z" fill="#62B9B5"/>
<path d="M219.899 31.0125C219.641 31.2837 219.219 31.7853 218.933 32.1379C218.47 32.7209 218.43 32.8293 218.47 33.5344L218.511 34.3072L219.11 33.5208C219.573 32.8836 220.757 30.782 220.757 30.5786C220.757 30.3753 220.28 30.6193 219.899 31.0125Z" fill="#62B9B5"/>
<path d="M211.612 34.2123L209.489 36.0291L210.877 38.3612L211.367 38.2799C213.109 37.968 215.191 37.0596 216.606 36.002C217.872 35.0529 218.021 34.8496 218.117 33.914C218.226 32.9514 218.402 33.0734 216.225 32.6531C213.816 32.2057 214.061 32.1243 211.612 34.2123Z" fill="#62B9B5"/>
<path d="M203.678 34.8902C203.229 35.0665 202.535 35.2834 202.154 35.3783C201.759 35.4732 201.433 35.5817 201.433 35.6359C201.433 35.6766 201.936 36.0427 202.549 36.4495C203.882 37.3308 205.583 37.9951 207.216 38.2799C208.468 38.4968 210.414 38.551 210.414 38.3748C210.414 38.3205 210.156 37.8189 209.829 37.263L209.258 36.2596L208.223 35.9613C207.652 35.7986 206.645 35.4461 205.978 35.1614C205.311 34.8902 204.712 34.6462 204.631 34.6191C204.563 34.6055 204.127 34.7275 203.678 34.8902Z" fill="#62B9B5"/>
<path d="M181.919 41.7558C180.819 42.4889 178.571 44.7371 176.641 47.0341C175.321 48.5736 175.052 48.3048 175.248 45.6657C175.394 43.9796 175.37 43.7596 174.881 43.2709C174.612 43.0021 174.27 42.7577 174.124 42.7577C173.806 42.7577 173.415 43.5397 173.415 44.1262C173.439 44.8593 172.731 48.6713 172.437 49.4289C172.291 49.8198 172.169 50.7484 172.169 51.5059C172.169 52.2635 172.095 53.1432 172.022 53.4609C171.753 54.4383 165.913 59.5211 162.028 62.1113C157.556 65.117 156.725 65.7768 152.864 69.54C151.153 71.2016 149.492 72.6189 149.15 72.6923C148.148 72.9366 147.659 72.7411 147.464 72.008C147.317 71.4216 147.39 71.2994 148.001 70.9817C149.101 70.3952 148.954 69.54 147.488 68.1227C146.486 67.1452 146.266 66.8031 146.266 66.0944C146.266 65.6302 146.046 64.6771 145.777 63.9685C145.191 62.3801 145.167 62.1358 145.729 61.9891C146.046 61.8914 146.046 61.867 145.631 61.8425C144.824 61.7936 144.385 61.1583 144.776 60.5474C145.044 60.1075 145.02 60.0831 144.604 60.2053C144.067 60.3763 143.334 60.1564 143.334 59.8387C143.334 59.741 143.627 59.4722 144.018 59.2767L144.678 58.9102L143.774 59.0568C143.26 59.1301 142.845 59.1301 142.845 59.0323C142.845 58.959 143.212 58.5436 143.651 58.1282C144.189 57.615 144.262 57.4684 143.896 57.6395C143.212 57.9816 142.479 57.7372 142.845 57.2974C143.041 57.053 142.918 57.053 142.185 57.3218C141.11 57.6883 139.668 57.7617 139.668 57.444C139.668 57.3218 140.059 56.9797 140.524 56.6865C140.988 56.3932 141.379 56.1244 141.379 56.0755C141.379 56.0022 140.084 56.271 139.18 56.5643C138.569 56.7598 138.569 56.7598 139.033 56.2222C139.546 55.6601 139.424 55.5624 138.666 55.9534C138.104 56.271 138.104 56.2466 138.593 55.0737L138.984 54.1206L138.398 54.7315C137.665 55.4891 136.54 56.4421 136.369 56.4421C136.296 56.4421 136.247 56.2222 136.247 55.9534C136.247 55.5379 136.174 55.4891 135.783 55.709C135.514 55.8312 135.221 56.1733 135.148 56.4421C135.074 56.7109 134.854 56.9308 134.683 56.9308C134.121 56.9308 133.022 55.9289 133.168 55.5379C133.242 55.3425 133.193 55.2691 133.071 55.3425C132.728 55.5624 132.753 56.5154 133.119 56.8819C133.29 57.053 133.315 57.1752 133.168 57.1752C132.826 57.1752 132.435 56.8575 132.142 56.3199C131.873 55.8801 131.849 55.8801 131.824 56.5643C131.8 56.9553 131.8 57.3707 131.824 57.4684C131.849 57.7128 129.478 57.9571 128.867 57.7617C128.379 57.615 128.354 57.6395 128.623 57.9571C129.112 58.5681 128.012 58.7147 127.426 58.1282C126.864 57.5662 126.79 58.0549 127.328 58.788C127.817 59.4478 127.792 59.5455 127.01 59.9609C126.644 60.1564 126.204 60.5963 126.033 60.9628C125.886 61.3049 125.495 61.6959 125.202 61.8181C124.689 62.0136 124.738 62.038 125.495 62.0624L126.351 62.0869L125.569 62.7955L124.762 63.5042L125.495 63.382L126.228 63.2354L125.349 64.9948C124.64 66.4366 124.42 66.7298 124.029 66.632C123.76 66.5587 123.589 66.6076 123.687 66.7298C123.76 66.852 124.2 66.9497 124.664 66.9497C125.398 66.9497 125.495 67.023 125.495 67.5606C125.495 68.3915 124.909 69.4911 124.225 70.0043L123.663 70.4197L124.347 70.2975C124.958 70.1997 125.007 70.2486 125.007 71.0306C125.007 71.4704 125.178 72.2524 125.373 72.7411C125.813 73.7919 125.74 73.9629 124.958 73.4742C124.127 72.9366 121.879 72.3257 120.73 72.3257C119.362 72.3257 108.683 74.134 105.36 74.916C102.574 75.6002 102.378 75.6979 100.937 77.5551C100.57 78.0194 99.886 78.3371 98.1266 78.8013C96.8559 79.1435 95.3653 79.6566 94.8277 79.901C93.2149 80.7074 87.228 85.5702 84.0512 88.6981C82.414 90.3109 80.9478 91.6304 80.8256 91.6304C80.679 91.6304 79.9215 92.168 79.1395 92.8522C78.3576 93.512 77.1113 94.294 76.3782 94.5872C74.0323 95.5158 69.4383 97.9594 68.6319 98.717C66.8969 100.33 65.4796 102.749 65.9195 103.287C66.115 103.555 66.0661 103.775 65.6995 104.288C64.9909 105.29 64.8687 105.755 65.2841 106.146C65.7729 106.634 66.2616 106.414 67.7033 105.07C71.8819 101.185 73.2259 100.696 69.6094 104.411C67.8988 106.146 66.6037 107.661 66.6037 107.929C66.6037 108.467 67.0435 108.98 67.4834 108.98C67.6545 108.98 69.1939 107.71 70.9289 106.17C73.7635 103.629 74.912 102.896 74.912 103.629C74.912 103.971 74.2523 104.899 72.2729 107.441C70.9045 109.176 70.4891 109.542 68.974 110.275C66.8481 111.302 62.7672 112.817 56.2182 115.04L51.331 116.678L51.2577 117.509C51.1844 118.266 51.4532 119.781 51.8441 120.807C51.9663 121.125 51.1844 121.589 48.0076 123.153C43.4869 125.377 42.0696 125.89 41.2388 125.573C40.4568 125.279 36.3759 125.768 33.7612 126.477C30.8778 127.259 27.5544 128.92 22.0562 132.317C19.5637 133.856 16.9735 135.371 16.3381 135.689C15.0674 136.324 11.5975 137.62 10.0824 138.035C9.56926 138.157 8.61625 138.622 7.95647 139.037C7.29668 139.477 5.12185 140.503 3.14251 141.383C-2.038 143.631 -3.96847 145.122 -5.63014 148.152C-7.34068 151.304 -7.36512 155.067 -5.70345 156.24C-5.04367 156.68 -2.72222 156.778 -1.67145 156.387C-0.180836 155.825 4.04665 152.77 5.7572 151.011C7.19894 149.569 8.02978 148.934 9.69145 148.127C10.84 147.565 12.4283 146.539 13.2347 145.855C15.8738 143.533 19.2461 142.311 27.0168 140.845C34.1522 139.501 36.4981 138.89 38.6729 137.815C39.7726 137.278 41.2143 136.715 41.923 136.593C42.6072 136.471 43.3647 136.251 43.6335 136.105C43.8779 135.982 44.7332 135.86 45.5151 135.86C47.5189 135.86 50.94 135.103 53.628 134.052C56.2671 133.026 56.6825 132.977 57.1713 133.71L57.5378 134.223L59.1995 133.465C60.7878 132.757 63.5003 131.877 71.9797 129.433C78.211 127.625 79.3106 127.332 79.3106 127.552C79.3106 127.992 67.239 138.402 65.0642 139.843C63.9646 140.552 63.8913 140.674 64.0379 141.358C64.5022 143.68 64.8198 143.216 60.2258 147.345C55.1675 151.939 54.3366 152.55 53.5058 152.233C53.0171 152.037 52.5039 152.208 50.5246 153.234C47.4212 154.872 43.8046 157.266 42.2895 158.733C41.6053 159.392 40.4079 160.81 39.626 161.885C37.6711 164.548 37.3289 164.915 32.4417 169.924L28.1653 174.323L26.0638 174.396C24.9153 174.445 23.3269 174.641 22.545 174.836C21.763 175.032 20.9566 175.203 20.7367 175.203C20.3457 175.203 18.9039 176.302 18.9773 176.547C19.0506 176.864 18.1953 178.624 17.9754 178.624C17.8532 178.624 17.731 178.795 17.731 179.015C17.731 180.579 14.7253 184.537 12.0618 186.468C10.1313 187.861 8.20083 190.06 8.20083 190.842C8.20083 191.111 8.05421 191.722 7.85872 192.186C7.41887 193.188 7.68767 195.656 8.32301 196.633C8.73843 197.244 8.7873 197.269 10.8155 197.122C13.4058 196.927 14.1144 196.536 17.4378 193.432C18.8062 192.162 20.1991 190.964 20.5167 190.793C22.8626 189.522 23.5713 189.18 23.6935 189.302C23.7668 189.4 24.1089 189.156 24.4266 188.814C24.7687 188.447 25.1841 188.154 25.3796 188.154C25.5751 188.154 26.0638 187.787 26.4792 187.348C26.8946 186.932 27.5055 186.37 27.8476 186.15C28.1653 185.906 28.483 185.515 28.5319 185.27C28.6296 184.635 33.6879 179.968 36.1316 178.233C37.2312 177.426 40.6034 175.3 43.5847 173.492C49.4494 169.924 50.378 169.289 54.2145 166.112C55.5829 164.988 57.3423 163.644 58.0998 163.156C58.8574 162.667 59.6638 161.958 59.8593 161.567C60.1281 161.03 60.4457 160.81 61.1788 160.712C61.692 160.614 62.7672 160.223 63.5736 159.808C64.3555 159.392 65.5774 158.83 66.2371 158.562C66.9214 158.293 68.021 157.682 68.6808 157.218C69.6094 156.607 70.3913 156.313 71.8575 156.069L73.788 155.727L74.9365 156.778C76.5004 158.268 76.9158 158.195 78.8219 156.24C79.7016 155.36 82.7317 152.697 85.5419 150.351C91.3333 145.513 94.0946 142.898 96.9781 139.526C99.7394 136.251 101.474 134.492 102.892 133.49C104.504 132.317 108.39 128.505 108.39 128.089C108.39 127.845 108.536 127.796 108.83 127.918C109.514 128.212 111.249 128.358 111.909 128.187C112.324 128.089 112.911 127.479 113.619 126.379C114.279 125.401 115.403 124.18 116.429 123.349C117.358 122.591 118.922 120.978 119.899 119.806C120.877 118.633 123.272 116.287 125.202 114.601C132.02 108.663 134.072 106.072 137.469 99.1813C138.642 96.8109 139.962 94.5139 140.841 93.3898C141.623 92.3635 142.723 90.7263 143.285 89.7733C144.629 87.4518 146.559 85.7413 149.956 83.8352C152.864 82.1736 154.086 81.1472 154.086 80.3653C154.086 80.0965 154.477 79.6322 155.014 79.2901C155.503 78.948 157.067 77.9216 158.484 76.9931C160.146 75.8934 161.857 74.4761 163.298 73.0099C166.011 70.2486 166.157 70.0776 168.992 66.0944C173.464 59.8387 174.686 58.6169 177.178 57.7617C177.862 57.5417 179.402 56.662 180.624 55.8067C181.845 54.9759 183.947 53.7785 185.267 53.1921C187.148 52.3612 187.71 52.0191 187.759 51.6037C187.857 50.895 187.295 50.895 184.656 51.677C181.235 52.6789 181.552 52.0924 186.195 48.7935C188.003 47.5228 188.297 47.0585 187.759 46.4965C187.295 46.0566 186.928 46.2277 183.483 48.427C181.406 49.771 180.648 50.0642 181.064 49.38C181.161 49.2334 182.456 48.1337 183.971 46.9119C186.879 44.566 187.466 43.8574 187.026 43.3198C186.879 43.1487 186.635 43.0021 186.44 43.0021C186.024 43.0021 183.263 44.8837 181.137 46.6187C180.233 47.3518 179.426 47.8894 179.329 47.8161C179.084 47.5473 180.404 45.7634 182.212 43.9551C183.458 42.7089 183.898 42.098 183.849 41.707C183.752 40.925 183.165 40.9494 181.919 41.7558ZM105.042 88.0872C105.8 88.1849 106.435 88.3315 106.435 88.4293C106.435 88.6736 105.238 90.4086 104.187 91.6793C103.503 92.5101 102.721 93.0722 101.425 93.7075C100.13 94.3184 99.1285 95.0515 97.9555 96.2489L96.2938 97.9106L94.5833 98.0572C92.3107 98.2771 91.7731 98.8147 91.7731 100.99V102.505L89.5005 103.555C86.6171 104.875 81.7053 106.585 81.461 106.341C81.3632 106.243 81.4854 105.51 81.7787 104.704C82.0475 103.922 82.3896 102.285 82.5117 101.063C82.7072 99.3523 82.8783 98.717 83.2937 98.2527C83.5869 97.935 85.9328 96.2978 88.4742 94.6117C93.2149 91.4838 95.3164 89.9688 96.9781 88.527L97.9066 87.6962L100.766 87.8184C102.33 87.8917 104.26 88.0138 105.042 88.0872ZM70.0248 100.183C70.0248 100.305 69.9026 100.428 69.756 100.428C69.6338 100.428 69.5849 100.305 69.6582 100.183C69.7315 100.037 69.8537 99.9388 69.927 99.9388C69.9759 99.9388 70.0248 100.037 70.0248 100.183ZM78.4798 104.704C78.5775 104.899 78.5286 105.584 78.4309 106.243L78.211 107.392L76.5248 107.929C75.5963 108.247 74.7899 108.443 74.741 108.394C74.5944 108.247 77.8933 104.337 78.1376 104.337C78.2598 104.337 78.4064 104.508 78.4798 104.704Z" fill="#62B9B5"/>
<mask id="path-5-inside-1_2435_40493" fill="white">
<path d="M180.85 39.6206C179.751 40.3537 177.503 42.6018 175.572 44.8988C174.253 46.4383 173.984 46.1695 174.179 43.5304C174.326 41.8443 174.301 41.6244 173.813 41.1356C173.544 40.8668 173.202 40.6225 173.055 40.6225C172.738 40.6225 172.347 41.4044 172.347 41.9909C172.371 42.724 171.662 46.5361 171.369 47.2936C171.223 47.6846 171.1 48.6132 171.1 49.3707C171.1 50.1282 171.027 51.0079 170.954 51.3256C170.685 52.3031 164.845 57.3858 160.959 59.9761C156.487 62.9817 155.657 63.6415 151.796 67.4047C150.085 69.0664 148.423 70.4837 148.081 70.557C147.079 70.8014 146.591 70.6059 146.395 69.8728C146.249 69.2863 146.322 69.1641 146.933 68.8465C148.032 68.26 147.886 67.4047 146.42 65.9874C145.418 65.01 145.198 64.6678 145.198 63.9592C145.198 63.4949 144.978 62.5419 144.709 61.8332C144.123 60.2449 144.098 60.0005 144.66 59.8539C144.978 59.7561 144.978 59.7317 144.562 59.7073C143.756 59.6584 143.316 59.023 143.707 58.4121C143.976 57.9723 143.952 57.9479 143.536 58.07C142.999 58.2411 142.265 58.0212 142.265 57.7035C142.265 57.6057 142.559 57.3369 142.95 57.1415L143.609 56.7749L142.705 56.9215C142.192 56.9948 141.777 56.9948 141.777 56.8971C141.777 56.8238 142.143 56.4084 142.583 55.9929C143.121 55.4798 143.194 55.3332 142.827 55.5042C142.143 55.8463 141.41 55.602 141.777 55.1621C141.972 54.9177 141.85 54.9177 141.117 55.1865C140.042 55.5531 138.6 55.6264 138.6 55.3087C138.6 55.1865 138.991 54.8444 139.455 54.5512C139.92 54.258 140.311 53.9892 140.311 53.9403C140.311 53.867 139.015 54.1358 138.111 54.429C137.5 54.6245 137.5 54.6245 137.965 54.0869C138.478 53.5249 138.356 53.4271 137.598 53.8181C137.036 54.1358 137.036 54.1113 137.525 52.9384L137.916 51.9854L137.329 52.5963C136.596 53.3538 135.472 54.3068 135.301 54.3068C135.228 54.3068 135.179 54.0869 135.179 53.8181C135.179 53.4027 135.106 53.3538 134.715 53.5737C134.446 53.6959 134.153 54.038 134.079 54.3068C134.006 54.5756 133.786 54.7956 133.615 54.7956C133.053 54.7956 131.953 53.7937 132.1 53.4027C132.173 53.2072 132.124 53.1339 132.002 53.2072C131.66 53.4271 131.685 54.3801 132.051 54.7467C132.222 54.9177 132.247 55.0399 132.1 55.0399C131.758 55.0399 131.367 54.7223 131.074 54.1847C130.805 53.7448 130.78 53.7448 130.756 54.429C130.731 54.82 130.731 55.2354 130.756 55.3332C130.78 55.5775 128.41 55.8219 127.799 55.6264C127.31 55.4798 127.286 55.5042 127.555 55.8219C128.043 56.4328 126.944 56.5794 126.357 55.9929C125.795 55.4309 125.722 55.9196 126.26 56.6527C126.748 57.3125 126.724 57.4103 125.942 57.8257C125.575 58.0212 125.136 58.461 124.965 58.8276C124.818 59.1697 124.427 59.5606 124.134 59.6828C123.621 59.8783 123.669 59.9028 124.427 59.9272L125.282 59.9516L124.5 60.6603L123.694 61.3689L124.427 61.2468L125.16 61.1001L124.28 62.8596C123.572 64.3013 123.352 64.5945 122.961 64.4968C122.692 64.4235 122.521 64.4724 122.619 64.5945C122.692 64.7167 123.132 64.8145 123.596 64.8145C124.329 64.8145 124.427 64.8878 124.427 65.4254C124.427 66.2562 123.84 67.3558 123.156 67.869L122.594 68.2844L123.278 68.1622C123.889 68.0645 123.938 68.1134 123.938 68.8953C123.938 69.3352 124.109 70.1171 124.305 70.6059C124.745 71.6566 124.671 71.8277 123.889 71.339C123.058 70.8014 120.81 70.1905 119.662 70.1905C118.293 70.1905 107.615 71.9987 104.291 72.7807C101.506 73.4649 101.31 73.5627 99.8684 75.4198C99.5018 75.8841 98.8176 76.2018 97.0582 76.6661C95.7875 77.0082 94.2969 77.5214 93.7593 77.7657C92.1465 78.5721 86.1596 83.435 82.9829 86.5628C81.3456 88.1756 79.8795 89.4952 79.7573 89.4952C79.6107 89.4952 78.8531 90.0328 78.0712 90.717C77.2892 91.3768 76.043 92.1587 75.3099 92.452C72.964 93.3805 68.3699 95.8242 67.5635 96.5817C65.8286 98.1945 64.4113 100.614 64.8511 101.151C65.0466 101.42 64.9977 101.64 64.6312 102.153C63.9225 103.155 63.8003 103.619 64.2158 104.01C64.7045 104.499 65.1932 104.279 66.635 102.935C70.8136 99.0498 72.1576 98.5611 68.541 102.275C66.8305 104.01 65.5353 105.525 65.5353 105.794C65.5353 106.332 65.9752 106.845 66.415 106.845C66.5861 106.845 68.1256 105.574 69.8606 104.035C72.6952 101.493 73.8437 100.76 73.8437 101.493C73.8437 101.836 73.1839 102.764 71.2046 105.305C69.8361 107.04 69.4207 107.407 67.9057 108.14C65.7797 109.166 61.6988 110.681 55.1499 112.905L50.2626 114.542L50.1893 115.373C50.116 116.131 50.3848 117.646 50.7758 118.672C50.898 118.99 50.116 119.454 46.9393 121.018C42.4186 123.242 41.0012 123.755 40.1704 123.437C39.3884 123.144 35.3076 123.633 32.6929 124.341C29.8094 125.123 26.4861 126.785 20.9879 130.182C18.4954 131.721 15.9051 133.236 15.2698 133.554C13.9991 134.189 10.5291 135.484 9.01407 135.9C8.50091 136.022 7.54789 136.486 6.88811 136.902C6.22833 137.342 4.05349 138.368 2.07415 139.248C-3.10636 141.496 -5.03683 142.986 -6.6985 146.016C-8.40904 149.169 -8.43348 152.932 -6.77181 154.105C-6.11203 154.545 -3.79057 154.642 -2.73981 154.251C-1.2492 153.689 2.97829 150.635 4.68884 148.875C6.13058 147.434 6.96142 146.798 8.62309 145.992C9.77159 145.43 11.36 144.404 12.1664 143.719C14.8055 141.398 18.1777 140.176 25.9485 138.71C33.0839 137.366 35.4298 136.755 37.6046 135.68C38.7042 135.142 40.146 134.58 40.8546 134.458C41.5388 134.336 42.2964 134.116 42.5652 133.969C42.8095 133.847 43.6648 133.725 44.4468 133.725C46.4505 133.725 49.8716 132.967 52.5596 131.917C55.1988 130.89 55.6142 130.841 56.1029 131.575L56.4694 132.088L58.1311 131.33C59.7195 130.622 62.4319 129.742 70.9113 127.298C77.1426 125.49 78.2422 125.197 78.2422 125.417C78.2422 125.856 66.1707 136.266 63.9958 137.708C62.8962 138.417 62.8229 138.539 62.9695 139.223C63.4338 141.545 63.7515 141.08 59.1574 145.21C54.0991 149.804 53.2683 150.415 52.4375 150.097C51.9487 149.902 51.4356 150.073 49.4562 151.099C46.3528 152.736 42.7362 155.131 41.2212 156.597C40.5369 157.257 39.3396 158.674 38.5576 159.75C36.6027 162.413 36.2606 162.78 31.3733 167.789L27.097 172.188L24.9954 172.261C23.8469 172.31 22.2586 172.505 21.4766 172.701C20.6946 172.896 19.8882 173.067 19.6683 173.067C19.2773 173.067 17.8356 174.167 17.9089 174.411C17.9822 174.729 17.1269 176.489 16.907 176.489C16.7848 176.489 16.6626 176.66 16.6626 176.88C16.6626 178.443 13.657 182.402 10.9934 184.333C9.06294 185.725 7.13247 187.925 7.13247 188.707C7.13247 188.976 6.98585 189.586 6.79036 190.051C6.35051 191.053 6.61931 193.521 7.25465 194.498C7.67007 195.109 7.71894 195.133 9.74716 194.987C12.3374 194.791 13.0461 194.4 16.3694 191.297C17.7378 190.026 19.1307 188.829 19.4484 188.658C21.7943 187.387 22.5029 187.045 22.6251 187.167C22.6984 187.265 23.0405 187.021 23.3582 186.679C23.7003 186.312 24.1157 186.019 24.3112 186.019C24.5067 186.019 24.9954 185.652 25.4109 185.212C25.8263 184.797 26.4372 184.235 26.7793 184.015C27.097 183.771 27.4146 183.38 27.4635 183.135C27.5613 182.5 32.6196 177.833 35.0632 176.098C36.1628 175.291 39.5351 173.165 42.5163 171.357C48.381 167.789 49.3096 167.154 53.1461 163.977C54.5145 162.853 56.274 161.509 57.0315 161.02C57.789 160.532 58.5954 159.823 58.7909 159.432C59.0597 158.894 59.3774 158.674 60.1105 158.577C60.6236 158.479 61.6988 158.088 62.5052 157.673C63.2872 157.257 64.509 156.695 65.1688 156.426C65.853 156.158 66.9526 155.547 67.6124 155.082C68.541 154.471 69.323 154.178 70.7891 153.934L72.7196 153.592L73.8681 154.642C75.432 156.133 75.8475 156.06 77.7535 154.105C78.6332 153.225 81.6633 150.562 84.4735 148.216C90.2649 143.377 93.0262 140.763 95.9097 137.39C98.671 134.116 100.406 132.357 101.823 131.355C103.436 130.182 107.321 126.37 107.321 125.954C107.321 125.71 107.468 125.661 107.761 125.783C108.446 126.076 110.181 126.223 110.84 126.052C111.256 125.954 111.842 125.343 112.551 124.244C113.211 123.266 114.335 122.044 115.361 121.214C116.29 120.456 117.854 118.843 118.831 117.67C119.808 116.497 122.203 114.151 124.134 112.465C130.951 106.527 133.004 103.937 136.401 97.046C137.574 94.6757 138.893 92.3787 139.773 91.2546C140.555 90.2283 141.655 88.591 142.217 87.638C143.561 85.3166 145.491 83.606 148.888 81.7C151.796 80.0383 153.017 79.012 153.017 78.23C153.017 77.9612 153.408 77.4969 153.946 77.1548C154.435 76.8127 155.999 75.7864 157.416 74.8578C159.078 73.7582 160.788 72.3409 162.23 70.8747C164.942 68.1134 165.089 67.9423 167.924 63.9592C172.395 57.7035 173.617 56.4817 176.11 55.6264C176.794 55.4065 178.333 54.5268 179.555 53.6715C180.777 52.8407 182.879 51.6433 184.198 51.0568C186.08 50.226 186.642 49.8839 186.691 49.4684C186.788 48.7598 186.226 48.7598 183.587 49.5417C180.166 50.5436 180.484 49.9572 185.127 46.6583C186.935 45.3876 187.228 44.9233 186.691 44.3612C186.226 43.9214 185.86 44.0924 182.414 46.2917C180.337 47.6357 179.58 47.929 179.995 47.2447C180.093 47.0981 181.388 45.9985 182.903 44.7767C185.811 42.4308 186.397 41.7221 185.958 41.1845C185.811 41.0135 185.567 40.8668 185.371 40.8668C184.956 40.8668 182.194 42.7484 180.068 44.4834C179.164 45.2165 178.358 45.7541 178.26 45.6808C178.016 45.412 179.335 43.6282 181.144 41.8199C182.39 40.5736 182.83 39.9627 182.781 39.5717C182.683 38.7898 182.097 38.8142 180.85 39.6206ZM103.974 85.9519C104.731 86.0496 105.367 86.1963 105.367 86.294C105.367 86.5384 104.169 88.2734 103.118 89.544C102.434 90.3749 101.652 90.9369 100.357 91.5723C99.062 92.1832 98.0601 92.9163 96.8871 94.1136L95.2255 95.7753L93.5149 95.9219C91.2424 96.1419 90.7048 96.6795 90.7048 98.8543V100.369L88.4322 101.42C85.5487 102.74 80.637 104.45 80.3926 104.206C80.2949 104.108 80.4171 103.375 80.7103 102.569C80.9791 101.787 81.3212 100.149 81.4434 98.9276C81.6389 97.2171 81.8099 96.5817 82.2254 96.1174C82.5186 95.7997 84.8645 94.1625 87.4059 92.4764C92.1465 89.3485 94.248 87.8335 95.9097 86.3918L96.8383 85.5609L99.6973 85.6831C101.261 85.7564 103.192 85.8786 103.974 85.9519ZM68.9564 98.0479C68.9564 98.1701 68.8342 98.2923 68.6876 98.2923C68.5654 98.2923 68.5166 98.1701 68.5899 98.0479C68.6632 97.9013 68.7854 97.8035 68.8587 97.8035C68.9075 97.8035 68.9564 97.9013 68.9564 98.0479ZM77.4114 102.569C77.5091 102.764 77.4603 103.448 77.3625 104.108L77.1426 105.257L75.4565 105.794C74.5279 106.112 73.7215 106.307 73.6726 106.259C73.526 106.112 76.8249 102.202 77.0693 102.202C77.1915 102.202 77.3381 102.373 77.4114 102.569Z"/>
</mask>
<path d="M180.85 39.6206C179.751 40.3537 177.503 42.6018 175.572 44.8988C174.253 46.4383 173.984 46.1695 174.179 43.5304C174.326 41.8443 174.301 41.6244 173.813 41.1356C173.544 40.8668 173.202 40.6225 173.055 40.6225C172.738 40.6225 172.347 41.4044 172.347 41.9909C172.371 42.724 171.662 46.5361 171.369 47.2936C171.223 47.6846 171.1 48.6132 171.1 49.3707C171.1 50.1282 171.027 51.0079 170.954 51.3256C170.685 52.3031 164.845 57.3858 160.959 59.9761C156.487 62.9817 155.657 63.6415 151.796 67.4047C150.085 69.0664 148.423 70.4837 148.081 70.557C147.079 70.8014 146.591 70.6059 146.395 69.8728C146.249 69.2863 146.322 69.1641 146.933 68.8465C148.032 68.26 147.886 67.4047 146.42 65.9874C145.418 65.01 145.198 64.6678 145.198 63.9592C145.198 63.4949 144.978 62.5419 144.709 61.8332C144.123 60.2449 144.098 60.0005 144.66 59.8539C144.978 59.7561 144.978 59.7317 144.562 59.7073C143.756 59.6584 143.316 59.023 143.707 58.4121C143.976 57.9723 143.952 57.9479 143.536 58.07C142.999 58.2411 142.265 58.0212 142.265 57.7035C142.265 57.6057 142.559 57.3369 142.95 57.1415L143.609 56.7749L142.705 56.9215C142.192 56.9948 141.777 56.9948 141.777 56.8971C141.777 56.8238 142.143 56.4084 142.583 55.9929C143.121 55.4798 143.194 55.3332 142.827 55.5042C142.143 55.8463 141.41 55.602 141.777 55.1621C141.972 54.9177 141.85 54.9177 141.117 55.1865C140.042 55.5531 138.6 55.6264 138.6 55.3087C138.6 55.1865 138.991 54.8444 139.455 54.5512C139.92 54.258 140.311 53.9892 140.311 53.9403C140.311 53.867 139.015 54.1358 138.111 54.429C137.5 54.6245 137.5 54.6245 137.965 54.0869C138.478 53.5249 138.356 53.4271 137.598 53.8181C137.036 54.1358 137.036 54.1113 137.525 52.9384L137.916 51.9854L137.329 52.5963C136.596 53.3538 135.472 54.3068 135.301 54.3068C135.228 54.3068 135.179 54.0869 135.179 53.8181C135.179 53.4027 135.106 53.3538 134.715 53.5737C134.446 53.6959 134.153 54.038 134.079 54.3068C134.006 54.5756 133.786 54.7956 133.615 54.7956C133.053 54.7956 131.953 53.7937 132.1 53.4027C132.173 53.2072 132.124 53.1339 132.002 53.2072C131.66 53.4271 131.685 54.3801 132.051 54.7467C132.222 54.9177 132.247 55.0399 132.1 55.0399C131.758 55.0399 131.367 54.7223 131.074 54.1847C130.805 53.7448 130.78 53.7448 130.756 54.429C130.731 54.82 130.731 55.2354 130.756 55.3332C130.78 55.5775 128.41 55.8219 127.799 55.6264C127.31 55.4798 127.286 55.5042 127.555 55.8219C128.043 56.4328 126.944 56.5794 126.357 55.9929C125.795 55.4309 125.722 55.9196 126.26 56.6527C126.748 57.3125 126.724 57.4103 125.942 57.8257C125.575 58.0212 125.136 58.461 124.965 58.8276C124.818 59.1697 124.427 59.5606 124.134 59.6828C123.621 59.8783 123.669 59.9028 124.427 59.9272L125.282 59.9516L124.5 60.6603L123.694 61.3689L124.427 61.2468L125.16 61.1001L124.28 62.8596C123.572 64.3013 123.352 64.5945 122.961 64.4968C122.692 64.4235 122.521 64.4724 122.619 64.5945C122.692 64.7167 123.132 64.8145 123.596 64.8145C124.329 64.8145 124.427 64.8878 124.427 65.4254C124.427 66.2562 123.84 67.3558 123.156 67.869L122.594 68.2844L123.278 68.1622C123.889 68.0645 123.938 68.1134 123.938 68.8953C123.938 69.3352 124.109 70.1171 124.305 70.6059C124.745 71.6566 124.671 71.8277 123.889 71.339C123.058 70.8014 120.81 70.1905 119.662 70.1905C118.293 70.1905 107.615 71.9987 104.291 72.7807C101.506 73.4649 101.31 73.5627 99.8684 75.4198C99.5018 75.8841 98.8176 76.2018 97.0582 76.6661C95.7875 77.0082 94.2969 77.5214 93.7593 77.7657C92.1465 78.5721 86.1596 83.435 82.9829 86.5628C81.3456 88.1756 79.8795 89.4952 79.7573 89.4952C79.6107 89.4952 78.8531 90.0328 78.0712 90.717C77.2892 91.3768 76.043 92.1587 75.3099 92.452C72.964 93.3805 68.3699 95.8242 67.5635 96.5817C65.8286 98.1945 64.4113 100.614 64.8511 101.151C65.0466 101.42 64.9977 101.64 64.6312 102.153C63.9225 103.155 63.8003 103.619 64.2158 104.01C64.7045 104.499 65.1932 104.279 66.635 102.935C70.8136 99.0498 72.1576 98.5611 68.541 102.275C66.8305 104.01 65.5353 105.525 65.5353 105.794C65.5353 106.332 65.9752 106.845 66.415 106.845C66.5861 106.845 68.1256 105.574 69.8606 104.035C72.6952 101.493 73.8437 100.76 73.8437 101.493C73.8437 101.836 73.1839 102.764 71.2046 105.305C69.8361 107.04 69.4207 107.407 67.9057 108.14C65.7797 109.166 61.6988 110.681 55.1499 112.905L50.2626 114.542L50.1893 115.373C50.116 116.131 50.3848 117.646 50.7758 118.672C50.898 118.99 50.116 119.454 46.9393 121.018C42.4186 123.242 41.0012 123.755 40.1704 123.437C39.3884 123.144 35.3076 123.633 32.6929 124.341C29.8094 125.123 26.4861 126.785 20.9879 130.182C18.4954 131.721 15.9051 133.236 15.2698 133.554C13.9991 134.189 10.5291 135.484 9.01407 135.9C8.50091 136.022 7.54789 136.486 6.88811 136.902C6.22833 137.342 4.05349 138.368 2.07415 139.248C-3.10636 141.496 -5.03683 142.986 -6.6985 146.016C-8.40904 149.169 -8.43348 152.932 -6.77181 154.105C-6.11203 154.545 -3.79057 154.642 -2.73981 154.251C-1.2492 153.689 2.97829 150.635 4.68884 148.875C6.13058 147.434 6.96142 146.798 8.62309 145.992C9.77159 145.43 11.36 144.404 12.1664 143.719C14.8055 141.398 18.1777 140.176 25.9485 138.71C33.0839 137.366 35.4298 136.755 37.6046 135.68C38.7042 135.142 40.146 134.58 40.8546 134.458C41.5388 134.336 42.2964 134.116 42.5652 133.969C42.8095 133.847 43.6648 133.725 44.4468 133.725C46.4505 133.725 49.8716 132.967 52.5596 131.917C55.1988 130.89 55.6142 130.841 56.1029 131.575L56.4694 132.088L58.1311 131.33C59.7195 130.622 62.4319 129.742 70.9113 127.298C77.1426 125.49 78.2422 125.197 78.2422 125.417C78.2422 125.856 66.1707 136.266 63.9958 137.708C62.8962 138.417 62.8229 138.539 62.9695 139.223C63.4338 141.545 63.7515 141.08 59.1574 145.21C54.0991 149.804 53.2683 150.415 52.4375 150.097C51.9487 149.902 51.4356 150.073 49.4562 151.099C46.3528 152.736 42.7362 155.131 41.2212 156.597C40.5369 157.257 39.3396 158.674 38.5576 159.75C36.6027 162.413 36.2606 162.78 31.3733 167.789L27.097 172.188L24.9954 172.261C23.8469 172.31 22.2586 172.505 21.4766 172.701C20.6946 172.896 19.8882 173.067 19.6683 173.067C19.2773 173.067 17.8356 174.167 17.9089 174.411C17.9822 174.729 17.1269 176.489 16.907 176.489C16.7848 176.489 16.6626 176.66 16.6626 176.88C16.6626 178.443 13.657 182.402 10.9934 184.333C9.06294 185.725 7.13247 187.925 7.13247 188.707C7.13247 188.976 6.98585 189.586 6.79036 190.051C6.35051 191.053 6.61931 193.521 7.25465 194.498C7.67007 195.109 7.71894 195.133 9.74716 194.987C12.3374 194.791 13.0461 194.4 16.3694 191.297C17.7378 190.026 19.1307 188.829 19.4484 188.658C21.7943 187.387 22.5029 187.045 22.6251 187.167C22.6984 187.265 23.0405 187.021 23.3582 186.679C23.7003 186.312 24.1157 186.019 24.3112 186.019C24.5067 186.019 24.9954 185.652 25.4109 185.212C25.8263 184.797 26.4372 184.235 26.7793 184.015C27.097 183.771 27.4146 183.38 27.4635 183.135C27.5613 182.5 32.6196 177.833 35.0632 176.098C36.1628 175.291 39.5351 173.165 42.5163 171.357C48.381 167.789 49.3096 167.154 53.1461 163.977C54.5145 162.853 56.274 161.509 57.0315 161.02C57.789 160.532 58.5954 159.823 58.7909 159.432C59.0597 158.894 59.3774 158.674 60.1105 158.577C60.6236 158.479 61.6988 158.088 62.5052 157.673C63.2872 157.257 64.509 156.695 65.1688 156.426C65.853 156.158 66.9526 155.547 67.6124 155.082C68.541 154.471 69.323 154.178 70.7891 153.934L72.7196 153.592L73.8681 154.642C75.432 156.133 75.8475 156.06 77.7535 154.105C78.6332 153.225 81.6633 150.562 84.4735 148.216C90.2649 143.377 93.0262 140.763 95.9097 137.39C98.671 134.116 100.406 132.357 101.823 131.355C103.436 130.182 107.321 126.37 107.321 125.954C107.321 125.71 107.468 125.661 107.761 125.783C108.446 126.076 110.181 126.223 110.84 126.052C111.256 125.954 111.842 125.343 112.551 124.244C113.211 123.266 114.335 122.044 115.361 121.214C116.29 120.456 117.854 118.843 118.831 117.67C119.808 116.497 122.203 114.151 124.134 112.465C130.951 106.527 133.004 103.937 136.401 97.046C137.574 94.6757 138.893 92.3787 139.773 91.2546C140.555 90.2283 141.655 88.591 142.217 87.638C143.561 85.3166 145.491 83.606 148.888 81.7C151.796 80.0383 153.017 79.012 153.017 78.23C153.017 77.9612 153.408 77.4969 153.946 77.1548C154.435 76.8127 155.999 75.7864 157.416 74.8578C159.078 73.7582 160.788 72.3409 162.23 70.8747C164.942 68.1134 165.089 67.9423 167.924 63.9592C172.395 57.7035 173.617 56.4817 176.11 55.6264C176.794 55.4065 178.333 54.5268 179.555 53.6715C180.777 52.8407 182.879 51.6433 184.198 51.0568C186.08 50.226 186.642 49.8839 186.691 49.4684C186.788 48.7598 186.226 48.7598 183.587 49.5417C180.166 50.5436 180.484 49.9572 185.127 46.6583C186.935 45.3876 187.228 44.9233 186.691 44.3612C186.226 43.9214 185.86 44.0924 182.414 46.2917C180.337 47.6357 179.58 47.929 179.995 47.2447C180.093 47.0981 181.388 45.9985 182.903 44.7767C185.811 42.4308 186.397 41.7221 185.958 41.1845C185.811 41.0135 185.567 40.8668 185.371 40.8668C184.956 40.8668 182.194 42.7484 180.068 44.4834C179.164 45.2165 178.358 45.7541 178.26 45.6808C178.016 45.412 179.335 43.6282 181.144 41.8199C182.39 40.5736 182.83 39.9627 182.781 39.5717C182.683 38.7898 182.097 38.8142 180.85 39.6206ZM103.974 85.9519C104.731 86.0496 105.367 86.1963 105.367 86.294C105.367 86.5384 104.169 88.2734 103.118 89.544C102.434 90.3749 101.652 90.9369 100.357 91.5723C99.062 92.1832 98.0601 92.9163 96.8871 94.1136L95.2255 95.7753L93.5149 95.9219C91.2424 96.1419 90.7048 96.6795 90.7048 98.8543V100.369L88.4322 101.42C85.5487 102.74 80.637 104.45 80.3926 104.206C80.2949 104.108 80.4171 103.375 80.7103 102.569C80.9791 101.787 81.3212 100.149 81.4434 98.9276C81.6389 97.2171 81.8099 96.5817 82.2254 96.1174C82.5186 95.7997 84.8645 94.1625 87.4059 92.4764C92.1465 89.3485 94.248 87.8335 95.9097 86.3918L96.8383 85.5609L99.6973 85.6831C101.261 85.7564 103.192 85.8786 103.974 85.9519ZM68.9564 98.0479C68.9564 98.1701 68.8342 98.2923 68.6876 98.2923C68.5654 98.2923 68.5166 98.1701 68.5899 98.0479C68.6632 97.9013 68.7854 97.8035 68.8587 97.8035C68.9075 97.8035 68.9564 97.9013 68.9564 98.0479ZM77.4114 102.569C77.5091 102.764 77.4603 103.448 77.3625 104.108L77.1426 105.257L75.4565 105.794C74.5279 106.112 73.7215 106.307 73.6726 106.259C73.526 106.112 76.8249 102.202 77.0693 102.202C77.1915 102.202 77.3381 102.373 77.4114 102.569Z" stroke="#1AB2AD" stroke-width="1.836" mask="url(#path-5-inside-1_2435_40493)"/>
</g>
<path d="M356.153 15.655C359.037 20.7692 358.981 26.1141 357.377 31.6926C355.767 37.2941 352.616 43.0639 349.375 48.9922L349.344 49.0485C345.361 56.3338 341.248 63.8588 339.965 71.3966C338.109 82.31 339.319 93.2159 341.009 104.058C341.981 110.297 344.693 116.437 347.338 122.422L347.356 122.463C349.541 127.409 351.677 132.248 352.835 137.042C353.99 141.822 354.16 146.514 352.444 151.163C350.91 155.318 347.98 158.251 344.262 160.595C340.529 162.948 336.046 164.681 331.441 166.459L331.39 166.479C325.567 168.728 319.551 171.051 314.907 174.8C309.388 179.256 304.996 186.212 300.751 192.937L300.714 192.995C297.104 198.713 293.599 204.259 289.561 208.169C285.546 212.057 281.071 214.263 275.501 213.42C270.229 212.623 266.534 209.489 263.585 205.04C260.622 200.569 258.457 194.838 256.232 188.939L256.221 188.912C254.261 183.715 252.256 178.399 249.624 173.84C246.984 169.268 243.683 165.403 239.1 163.166C238.548 162.896 237.991 162.656 237.429 162.443C235.417 161.681 233.623 162.376 232.362 163.726C231.123 165.055 230.367 167.036 230.286 169.015C230.181 171.595 229.525 174.134 228.132 176.634C225.375 181.58 220.975 184.233 215.608 185.738C210.217 187.248 203.916 187.582 197.419 187.924L197.338 187.928C188.435 188.396 179.163 188.883 171.801 192.62C165.167 195.987 160.208 201.847 155.387 207.544L155.345 207.594C149.514 214.483 143.884 221.108 135.68 223.459C120.375 227.845 103.361 223.395 88.8098 216.549C81.6802 213.195 76.634 207.072 71.4667 200.786L71.4315 200.743C66.8059 195.116 62.0793 189.366 55.7047 185.667C48.796 181.658 39.3117 180.685 30.2683 179.758L30.1765 179.748C23.2364 179.036 16.5568 178.347 11.2766 176.409C6.03297 174.484 2.26419 171.365 0.996692 165.816C-0.23241 160.436 1.58257 155.82 5.06798 151.489C8.57105 147.135 13.7025 143.142 18.9857 139.036L19.0119 139.016C23.8017 135.293 28.706 131.481 32.4803 127.275C36.2667 123.056 38.9698 118.383 39.2649 112.929C39.5646 107.389 37.5092 102.462 34.352 97.892C31.2075 93.3399 26.9322 89.0895 22.7204 84.9022L22.6963 84.8782C18.3243 80.5317 14.0245 76.2537 10.9851 71.7043C7.95462 67.1684 6.21611 62.4187 6.89922 57.1275C8.04135 48.2808 14.2624 40.9 22.5489 35.4372C30.8282 29.9791 41.0827 26.4973 50.0979 25.4213C59.8933 24.2523 68.5831 29.7364 77.5813 35.4456L77.6633 35.4977C85.8048 40.6634 94.1949 45.9869 103.646 46.042C111.24 46.0862 117.345 40.9453 123.242 35.9798L123.337 35.8991C129.175 30.9839 134.825 26.2565 141.721 25.9593C145.406 25.8005 148.981 26.3246 152.475 27.3225C155.296 28.1281 158.58 26.8599 161.443 24.9789C164.336 23.0776 166.966 20.441 168.541 18.2124C168.756 17.9076 168.989 17.6045 169.24 17.303C173.116 12.6388 178.223 11.2737 184.144 11.6256C190.099 11.9795 196.787 14.0664 203.724 16.2353L203.82 16.2652C213.441 19.2731 223.548 22.4329 232.419 20.9229C239.092 19.787 244.369 15.2503 249.482 10.8553L249.549 10.7973C254.796 6.28689 259.878 1.93975 266.264 0.936709C274.412 -0.343286 282.232 2.37991 290.314 5.20773L290.339 5.21662C295.169 6.90663 300.089 8.62794 305.145 9.46717C311.304 10.4893 318.477 9.69507 325.466 8.92114L325.522 8.91487C332.019 8.19552 338.353 7.49759 343.758 8.19152C349.132 8.88157 353.491 10.9348 356.153 15.655Z" stroke="#148783" stroke-width="1.224"/>
<path d="M159.319 92.4974L143.082 131.33C142.625 132.373 142.625 133.188 143.082 133.775C143.538 134.297 144.223 134.558 145.136 134.558H183.871V143.459L175.556 144.926H134.376C132.55 144.926 130.985 144.437 129.681 143.459C128.377 142.416 127.497 141.111 127.04 139.546C126.649 137.916 126.812 136.286 127.529 134.656L145.234 92.4974H159.319ZM175.654 105.605V159.99H161.862V116.364L164.308 105.605H175.654ZM284.931 92.4974L268.694 131.33C268.237 132.373 268.237 133.188 268.694 133.775C269.15 134.297 269.835 134.558 270.748 134.558H309.483V143.459L301.168 144.926H259.988C258.162 144.926 256.597 144.437 255.293 143.459C253.989 142.416 253.109 141.111 252.652 139.546C252.261 137.916 252.424 136.286 253.141 134.656L270.846 92.4974H284.931ZM301.266 105.605V159.99H287.474V116.364L289.92 105.605H301.266Z" fill="#62B9B5"/>
<path d="M158.177 90.819L158.868 91.1078L159.302 90.0704H158.177V90.819ZM141.774 130.048L142.46 130.348L142.465 130.337L141.774 130.048ZM141.774 132.518L141.184 132.978L141.197 132.995L141.211 133.011L141.774 132.518ZM182.98 133.309H183.728V132.56H182.98V133.309ZM182.98 142.301L183.11 143.038L183.728 142.929V142.301H182.98ZM174.58 143.783V144.531H174.646L174.711 144.52L174.58 143.783ZM128.237 142.301L127.769 142.885L127.779 142.892L127.788 142.899L128.237 142.301ZM125.569 138.348L124.841 138.523L124.845 138.54L124.85 138.558L125.569 138.348ZM126.063 133.407L126.748 133.709L126.753 133.697L126.063 133.407ZM143.948 90.819V90.0704H143.451L143.258 90.5291L143.948 90.819ZM174.679 104.06H175.428V103.311H174.679V104.06ZM174.679 159V159.749H175.428V159H174.679ZM160.747 159H159.998V159.749H160.747V159ZM160.747 114.929L160.017 114.763L159.998 114.845V114.929H160.747ZM163.217 104.06V103.311H162.619L162.487 103.894L163.217 104.06ZM157.487 90.5302L141.084 129.759L142.465 130.337L158.868 91.1078L157.487 90.5302ZM141.089 129.748C140.581 130.907 140.475 132.066 141.184 132.978L142.365 132.059C142.152 131.784 142.045 131.296 142.46 130.348L141.089 129.748ZM141.211 133.011C141.856 133.748 142.784 134.057 143.85 134.057V132.56C143.071 132.56 142.615 132.342 142.338 132.025L141.211 133.011ZM143.85 134.057H182.98V132.56H143.85V134.057ZM182.231 133.309V142.301H183.728V133.309H182.231ZM182.849 141.563L174.45 143.046L174.711 144.52L183.11 143.038L182.849 141.563ZM174.58 143.034H132.98V144.531H174.58V143.034ZM132.98 143.034C131.277 143.034 129.859 142.581 128.686 141.702L127.788 142.899C129.25 143.996 130.994 144.531 132.98 144.531V143.034ZM128.705 141.716C127.504 140.756 126.705 139.568 126.288 138.138L124.85 138.558C125.356 140.29 126.335 141.737 127.769 142.885L128.705 141.716ZM126.297 138.173C125.942 136.696 126.085 135.216 126.748 133.709L125.378 133.106C124.592 134.893 124.405 136.706 124.841 138.523L126.297 138.173ZM126.753 133.697L144.639 91.1088L143.258 90.5291L125.373 133.118L126.753 133.697ZM143.948 91.5676H158.177V90.0704H143.948V91.5676ZM173.931 104.06V159H175.428V104.06H173.931ZM174.679 158.251H160.747V159.749H174.679V158.251ZM161.495 159V114.929H159.998V159H161.495ZM161.477 115.095L163.947 104.226L162.487 103.894L160.017 114.763L161.477 115.095ZM163.217 104.809H174.679V103.311H163.217V104.809ZM285.071 90.819L285.762 91.1078L286.196 90.0704H285.071V90.819ZM268.668 130.048L269.354 130.348L269.359 130.337L268.668 130.048ZM268.668 132.518L268.077 132.978L268.091 132.995L268.105 133.011L268.668 132.518ZM309.873 133.309H310.622V132.56H309.873V133.309ZM309.873 142.301L310.003 143.038L310.622 142.929V142.301H309.873ZM301.474 143.783V144.531H301.54L301.604 144.52L301.474 143.783ZM255.131 142.301L254.663 142.885L254.672 142.892L254.682 142.899L255.131 142.301ZM252.463 138.348L251.735 138.523L251.739 138.54L251.744 138.558L252.463 138.348ZM252.957 133.407L253.642 133.709L253.647 133.697L252.957 133.407ZM270.842 90.819V90.0704H270.345L270.152 90.5291L270.842 90.819ZM301.573 104.06H302.322V103.311H301.573V104.06ZM301.573 159V159.749H302.322V159H301.573ZM287.64 159H286.892V159.749H287.64V159ZM287.64 114.929L286.91 114.763L286.892 114.845V114.929H287.64ZM290.111 104.06V103.311H289.513L289.381 103.894L290.111 104.06ZM284.381 90.5302L267.978 129.759L269.359 130.337L285.762 91.1078L284.381 90.5302ZM267.982 129.748C267.475 130.907 267.368 132.066 268.077 132.978L269.259 132.059C269.046 131.784 268.939 131.296 269.354 130.348L267.982 129.748ZM268.105 133.011C268.75 133.748 269.678 134.057 270.743 134.057V132.56C269.964 132.56 269.509 132.342 269.232 132.025L268.105 133.011ZM270.743 134.057H309.873V132.56H270.743V134.057ZM309.125 133.309V142.301H310.622V133.309H309.125ZM309.743 141.563L301.344 143.046L301.604 144.52L310.003 143.038L309.743 141.563ZM301.474 143.034H259.874V144.531H301.474V143.034ZM259.874 143.034C258.171 143.034 256.752 142.581 255.58 141.702L254.682 142.899C256.144 143.996 257.888 144.531 259.874 144.531V143.034ZM255.598 141.716C254.398 140.756 253.598 139.568 253.181 138.138L251.744 138.558C252.25 140.29 253.229 141.737 254.663 142.885L255.598 141.716ZM253.191 138.173C252.836 136.696 252.979 135.216 253.642 133.709L252.272 133.106C251.486 134.893 251.299 136.706 251.735 138.523L253.191 138.173ZM253.647 133.697L271.532 91.1088L270.152 90.5291L252.267 133.118L253.647 133.697ZM270.842 91.5676H285.071V90.0704H270.842V91.5676ZM300.824 104.06V159H302.322V104.06H300.824ZM301.573 158.251H287.64V159.749H301.573V158.251ZM288.389 159V114.929H286.892V159H288.389ZM288.37 115.095L290.841 104.226L289.381 103.894L286.91 114.763L288.37 115.095ZM290.111 104.809H301.573V103.311H290.111V104.809Z" fill="#148783"/>
<path d="M214.696 96.5277C213.609 96.682 211.807 97.1449 210.657 97.5153L208.606 98.1943L207.985 101.435C207.612 103.225 207.239 104.892 207.146 105.169C206.99 105.571 207.239 105.756 208.233 106.064C208.948 106.28 210.719 106.898 212.148 107.484L214.789 108.533L217.244 107.607C218.58 107.083 221.377 106.188 223.427 105.601C225.509 105.015 227.218 104.49 227.249 104.459C227.28 104.398 227.529 103.719 227.839 102.916L228.368 101.497L225.944 98.9967L223.521 96.4659L220.103 96.3425C218.238 96.2808 215.784 96.3425 214.696 96.5277Z" fill="#62B9B5"/>
<path d="M228.802 100.818L230.605 100.447C231.568 100.231 232.376 99.9843 232.376 99.8609C232.376 99.5831 227.497 97.5461 226.161 97.2684L225.074 97.0523L228.802 100.818Z" fill="#62B9B5"/>
<path d="M205.809 99.4905C201.18 101.805 196.488 106.435 194.189 110.941C193.443 112.36 193.629 113.163 194.779 113.78C195.338 114.089 196.084 113.595 200.496 110.231C203.293 108.101 205.747 106.157 205.934 105.941C206.244 105.57 207.643 98.9967 207.456 98.8115C207.394 98.7498 206.648 99.0584 205.809 99.4905Z" fill="#62B9B5"/>
<path d="M231.599 101.126C230.387 101.404 229.237 101.713 229.051 101.836C228.896 101.96 228.554 102.669 228.336 103.441C227.964 104.768 227.995 104.861 228.771 105.817C230.977 108.502 233.494 111.959 234.799 114.12L236.26 116.527L238.745 117.298C242.691 118.502 242.35 118.656 243.437 115.478L244.431 112.7L243.655 111.157C241.915 107.762 237.502 102.793 234.737 101.188C233.836 100.663 233.65 100.663 231.599 101.126Z" fill="#62B9B5"/>
<path d="M221.811 106.959C215.007 109.058 215.41 108.842 215.193 110.601C215.069 111.404 214.975 114.521 214.913 117.484L214.851 122.885L216.871 123.903C218.673 124.798 224.328 126.712 227.156 127.329L228.274 127.607L230.604 124.15C235.638 116.712 235.545 116.928 234.954 115.817C233.339 112.7 227.808 105.447 227.093 105.478C226.845 105.478 224.452 106.157 221.811 106.959Z" fill="#62B9B5"/>
<path d="M205.903 106.99C205.437 107.422 202.889 109.367 200.279 111.311L195.463 114.86L195.276 117.021C195.152 118.193 195.09 120.323 195.152 121.743L195.245 124.304L199.906 126.156C207.394 129.119 206.214 129.15 210.439 125.786L214.044 122.885V118.101C214.044 115.478 214.137 112.391 214.23 111.249L214.448 109.181L212.925 108.503C212.086 108.163 210.346 107.484 209.072 107.052L206.742 106.219L205.903 106.99Z" fill="#62B9B5"/>
<path d="M192.138 115.694C190.895 119.644 190.553 123.996 191.175 128.1C191.455 129.983 191.796 131.619 191.921 131.742C192.076 131.897 192.356 131.218 192.573 130.261C192.791 129.273 193.319 127.607 193.723 126.557C194.158 125.385 194.375 124.243 194.282 123.749C194.189 123.286 194.251 121.002 194.406 118.718C194.686 114.737 194.655 114.521 194.065 113.842C193.723 113.471 193.319 113.163 193.195 113.163C193.039 113.163 192.573 114.305 192.138 115.694Z" fill="#62B9B5"/>
<path d="M244.68 114.089C244.587 114.336 244.183 115.478 243.748 116.65L242.971 118.718L243.562 121.434C243.903 122.916 244.338 126.125 244.525 128.594C244.711 131.063 244.991 133.193 245.115 133.316C245.239 133.471 245.674 132.298 246.047 130.693C246.979 126.804 247.011 121.496 246.109 117.792C245.302 114.428 244.929 113.471 244.68 114.089Z" fill="#62B9B5"/>
<path d="M235.079 118.965C234.457 119.953 232.748 122.453 231.288 124.551L228.585 128.347L229.424 132.761L230.294 137.143L234.053 137.822C236.104 138.193 238.093 138.594 238.435 138.656C238.963 138.779 239.584 138.193 241.511 135.94L243.903 133.069L243.779 129.52C243.686 127.576 243.375 124.459 243.095 122.638C242.474 118.903 242.785 119.243 239.211 118.163C238.093 117.823 236.974 117.453 236.695 117.329C236.353 117.206 235.918 117.638 235.079 118.965Z" fill="#62B9B5"/>
<path d="M213.702 124.15C213.484 124.428 211.899 125.724 210.222 126.989L207.145 129.335L207.332 131.526C207.674 135.261 208.513 141.372 208.761 142.05C209.041 142.76 211.216 143.717 215.877 145.229L218.642 146.094L223.241 142.081C225.788 139.89 228.181 137.946 228.585 137.761C229.424 137.359 229.424 137.668 228.585 132.606L227.932 128.44L224.173 127.391C222.091 126.804 219.046 125.755 217.337 125.014C215.659 124.273 214.23 123.656 214.199 123.656C214.168 123.656 213.919 123.872 213.702 124.15Z" fill="#62B9B5"/>
<path d="M193.847 128.81C193.288 130.816 192.697 132.606 192.542 132.822C191.858 133.687 195.432 140.014 198.29 143.007C199.813 144.612 199.906 144.674 201.118 144.458C202.547 144.242 206.835 142.915 207.425 142.544C207.736 142.359 207.674 141.402 207.208 138.162C206.866 135.878 206.586 133.039 206.586 131.897V129.798L205.126 129.181C202.547 128.07 195.307 125.199 195.09 125.199C194.966 125.199 194.406 126.835 193.847 128.81Z" fill="#62B9B5"/>
<path d="M243.157 135.045C242.567 135.662 241.604 136.804 240.951 137.606C239.895 138.933 239.802 139.18 239.895 140.785L239.988 142.544L241.355 140.754C242.412 139.304 245.115 134.52 245.115 134.057C245.115 133.594 244.027 134.15 243.157 135.045Z" fill="#62B9B5"/>
<path d="M224.235 142.328L219.388 146.464L222.557 151.772L223.676 151.587C227.653 150.877 232.407 148.81 235.638 146.402C238.528 144.242 238.87 143.779 239.087 141.649C239.336 139.458 239.74 139.736 234.768 138.779C229.268 137.761 229.828 137.575 224.235 142.328Z" fill="#62B9B5"/>
<path d="M206.12 143.871C205.095 144.273 203.51 144.766 202.64 144.982C201.739 145.199 200.993 145.445 200.993 145.569C200.993 145.661 202.143 146.495 203.541 147.421C206.586 149.427 210.47 150.939 214.199 151.587C217.057 152.081 221.5 152.204 221.5 151.803C221.5 151.68 220.91 150.538 220.164 149.272L218.859 146.989L216.498 146.31C215.193 145.939 212.894 145.137 211.371 144.489C209.849 143.871 208.481 143.316 208.295 143.254C208.14 143.223 207.145 143.501 206.12 143.871Z" fill="#62B9B5"/>
<g filter="url(#filter0_i_2435_40493)">
<path d="M241.713 122.84C244.766 121.94 248.551 125.204 249.419 128.245C250.458 131.883 244.367 135.779 246.332 139.019C248.873 143.211 257.118 140.83 259.609 145.052C261.425 148.128 259.078 153.699 255.684 154.868C250.881 156.521 245.864 149.909 241.023 151.45C237.946 152.429 241.246 160.017 238.048 160.481C234.837 160.947 235.752 152.743 232.507 152.686C227.496 152.597 224.471 161.713 219.71 160.159C216.06 158.967 222.075 152.607 221.028 148.937C220.132 145.798 215.379 144.927 214.469 141.792C213.566 138.683 213.21 133.615 216.217 132.366C220.59 130.551 225.19 135.242 229.928 135.373C231.487 135.416 232.726 133.986 233.791 132.854C236.745 129.712 237.562 124.064 241.713 122.84Z" fill="#F9FAFA"/>
</g>
<defs>
<filter id="filter0_i_2435_40493" x="213.828" y="122.688" width="46.4121" height="38.8106" filterUnits="userSpaceOnUse" color-interpolation-filters="sRGB">
<feFlood flood-opacity="0" result="BackgroundImageFix"/>
<feBlend mode="normal" in="SourceGraphic" in2="BackgroundImageFix" result="shape"/>
<feColorMatrix in="SourceAlpha" type="matrix" values="0 0 0 0 0 0 0 0 0 0 0 0 0 0 0 0 0 0 127 0" result="hardAlpha"/>
<feOffset dy="0.998112"/>
<feGaussianBlur stdDeviation="2.99433"/>
<feComposite in2="hardAlpha" operator="arithmetic" k2="-1" k3="1"/>
<feColorMatrix type="matrix" values="0 0 0 0 0.795 0 0 0 0 0.883333 0 0 0 0 0.879272 0 0 0 0.7 0"/>
<feBlend mode="normal" in2="shape" result="effect1_innerShadow_2435_40493"/>
</filter>
</defs>
</svg>
