<svg width="776" height="488" viewBox="0 0 776 488" fill="none" xmlns="http://www.w3.org/2000/svg">
<mask id="mask0_2715_41497" style="mask-type:alpha" maskUnits="userSpaceOnUse" x="0" y="0" width="776" height="488">
<mask id="path-1-inside-1_2715_41497" fill="white">
<path fill-rule="evenodd" clip-rule="evenodd" d="M756.169 106.508C770.139 80.9527 783.729 56.0944 770.807 33.1811C758.756 11.8117 731.303 14.8517 703.317 17.9507C688.123 19.6331 672.773 21.3329 659.644 19.154C648.828 17.3591 638.288 13.6709 627.813 10.0057C610.411 3.91658 593.191 -2.10871 575.198 0.717725C560.962 2.95402 549.695 12.6387 538.421 22.3302C527.264 31.9208 516.1 41.5181 502.041 43.9111C483.185 47.1209 461.595 40.3712 440.649 33.8226C410.755 24.477 382.172 15.5409 364.715 36.5469C364.152 37.224 363.628 37.9064 363.142 38.594C356.525 47.9559 340.889 60.9215 329.865 57.773C322.201 55.5842 314.334 54.427 306.206 54.7773C290.769 55.4424 278.206 66.0216 265.683 76.5671C252.776 87.4354 239.912 98.2679 223.989 98.1751C203.945 98.0583 186.091 86.7297 168.363 75.482C149.019 63.2082 129.826 51.0306 108.106 53.6228C68.7625 58.3182 18.6716 83.9827 13.5977 123.284C10.5358 147.001 29.2649 165.621 48.1147 184.362C66.3928 202.533 84.7843 220.818 83.5316 243.971C82.3016 266.704 60.9989 283.262 40.2169 299.415C17.452 317.11 -4.68819 334.318 0.864539 358.627C6.60519 383.758 35.1828 386.689 65.0772 389.755C84.7688 391.775 105.032 393.854 119.715 402.374C133.284 410.248 143.37 422.517 153.419 434.742C164.549 448.282 175.634 461.767 191.357 469.164C222.909 484.009 260.039 493.781 293.572 484.172C311.753 478.961 324.17 464.289 336.712 449.469C347.195 437.082 357.766 424.591 371.863 417.435C387.523 409.486 407.327 408.445 426.697 407.428C454.698 405.956 481.792 404.533 494.153 382.355C497.269 376.762 498.739 371.073 498.974 365.298C499.3 357.283 505.119 349.439 512.621 352.279C513.798 352.725 514.965 353.228 516.122 353.793C535.277 363.145 543.983 386.225 552.486 408.767C562.074 434.186 571.404 458.921 595.167 462.514C620.322 466.317 635.417 442.407 650.969 417.772C660.202 403.147 669.596 388.267 681.352 378.776C691.228 370.804 704.067 365.846 716.73 360.956C736.576 353.291 755.989 345.794 762.881 327.124C770.534 306.391 761.277 285.438 751.855 264.111C746.113 251.114 740.31 237.978 738.235 224.668C734.586 201.257 732.004 177.87 735.978 154.511C738.711 138.441 747.513 122.34 756.169 106.508Z"/>
</mask>
<path fill-rule="evenodd" clip-rule="evenodd" d="M756.169 106.508C770.139 80.9527 783.729 56.0944 770.807 33.1811C758.756 11.8117 731.303 14.8517 703.317 17.9507C688.123 19.6331 672.773 21.3329 659.644 19.154C648.828 17.3591 638.288 13.6709 627.813 10.0057C610.411 3.91658 593.191 -2.10871 575.198 0.717725C560.962 2.95402 549.695 12.6387 538.421 22.3302C527.264 31.9208 516.1 41.5181 502.041 43.9111C483.185 47.1209 461.595 40.3712 440.649 33.8226C410.755 24.477 382.172 15.5409 364.715 36.5469C364.152 37.224 363.628 37.9064 363.142 38.594C356.525 47.9559 340.889 60.9215 329.865 57.773C322.201 55.5842 314.334 54.427 306.206 54.7773C290.769 55.4424 278.206 66.0216 265.683 76.5671C252.776 87.4354 239.912 98.2679 223.989 98.1751C203.945 98.0583 186.091 86.7297 168.363 75.482C149.019 63.2082 129.826 51.0306 108.106 53.6228C68.7625 58.3182 18.6716 83.9827 13.5977 123.284C10.5358 147.001 29.2649 165.621 48.1147 184.362C66.3928 202.533 84.7843 220.818 83.5316 243.971C82.3016 266.704 60.9989 283.262 40.2169 299.415C17.452 317.11 -4.68819 334.318 0.864539 358.627C6.60519 383.758 35.1828 386.689 65.0772 389.755C84.7688 391.775 105.032 393.854 119.715 402.374C133.284 410.248 143.37 422.517 153.419 434.742C164.549 448.282 175.634 461.767 191.357 469.164C222.909 484.009 260.039 493.781 293.572 484.172C311.753 478.961 324.17 464.289 336.712 449.469C347.195 437.082 357.766 424.591 371.863 417.435C387.523 409.486 407.327 408.445 426.697 407.428C454.698 405.956 481.792 404.533 494.153 382.355C497.269 376.762 498.739 371.073 498.974 365.298C499.3 357.283 505.119 349.439 512.621 352.279C513.798 352.725 514.965 353.228 516.122 353.793C535.277 363.145 543.983 386.225 552.486 408.767C562.074 434.186 571.404 458.921 595.167 462.514C620.322 466.317 635.417 442.407 650.969 417.772C660.202 403.147 669.596 388.267 681.352 378.776C691.228 370.804 704.067 365.846 716.73 360.956C736.576 353.291 755.989 345.794 762.881 327.124C770.534 306.391 761.277 285.438 751.855 264.111C746.113 251.114 740.31 237.978 738.235 224.668C734.586 201.257 732.004 177.87 735.978 154.511C738.711 138.441 747.513 122.34 756.169 106.508Z" fill="#EFEFF6"/>
<path d="M770.807 33.1811L769.065 34.1636V34.1636L770.807 33.1811ZM756.169 106.508L757.924 107.467L756.169 106.508ZM703.317 17.9507L703.537 19.9385L703.317 17.9507ZM659.644 19.154L659.316 21.1271L659.644 19.154ZM627.813 10.0057L627.152 11.8935L627.813 10.0057ZM575.198 0.717725L575.508 2.6935L575.198 0.717725ZM538.421 22.3302L537.117 20.8136V20.8136L538.421 22.3302ZM502.041 43.9111L501.706 41.9395L502.041 43.9111ZM440.649 33.8226L441.245 31.9137L440.649 33.8226ZM364.715 36.5469L366.253 37.8252L364.715 36.5469ZM306.206 54.7773L306.12 52.7791L306.206 54.7773ZM265.683 76.5671L264.395 75.0372V75.0372L265.683 76.5671ZM223.989 98.1751L224.001 96.1751L223.989 98.1751ZM168.363 75.482L169.435 73.7932L168.363 75.482ZM108.106 53.6228L107.869 51.6369L108.106 53.6228ZM13.5977 123.284L11.6142 123.028L13.5977 123.284ZM48.1147 184.362L49.5248 182.943L48.1147 184.362ZM83.5316 243.971L85.5286 244.079L83.5316 243.971ZM40.2169 299.415L41.4443 300.994H41.4443L40.2169 299.415ZM0.864539 358.627L2.81432 358.181L0.864539 358.627ZM65.0772 389.755L65.2813 387.766L65.0772 389.755ZM119.715 402.374L118.712 404.104H118.712L119.715 402.374ZM153.419 434.742L151.874 436.012L153.419 434.742ZM191.357 469.164L190.505 470.974V470.974L191.357 469.164ZM293.572 484.172L294.123 486.094L293.572 484.172ZM336.712 449.469L338.239 450.761V450.761L336.712 449.469ZM371.863 417.435L370.958 415.652L371.863 417.435ZM426.697 407.428L426.801 409.425L426.697 407.428ZM494.153 382.355L492.406 381.381L494.153 382.355ZM516.122 353.793L515.244 355.59L516.122 353.793ZM552.486 408.767L554.358 408.062L552.486 408.767ZM595.167 462.514L595.466 460.536L595.167 462.514ZM650.969 417.772L652.661 418.839L650.969 417.772ZM681.352 378.776L680.096 377.22L681.352 378.776ZM716.73 360.956L717.45 362.821L716.73 360.956ZM762.881 327.124L764.757 327.816V327.816L762.881 327.124ZM751.855 264.111L753.684 263.303L751.855 264.111ZM738.235 224.668L740.211 224.36L738.235 224.668ZM735.978 154.511L734.006 154.176L735.978 154.511ZM498.974 365.298L500.973 365.379L498.974 365.298ZM512.621 352.279L511.913 354.15L512.621 352.279ZM363.142 38.594L364.775 39.7484L363.142 38.594ZM769.065 34.1636C775.181 45.0083 775.084 56.3574 771.651 68.3011C768.195 80.3201 761.427 92.7198 754.414 105.548L757.924 107.467C764.881 94.7405 771.893 81.9336 775.495 69.4064C779.118 56.8038 779.355 44.2672 772.549 32.1987L769.065 34.1636ZM703.537 19.9385C717.599 18.3814 731.2 16.8868 742.783 18.374C754.267 19.8485 763.453 24.2112 769.065 34.1636L772.549 32.1987C766.111 20.7816 755.544 15.9796 743.292 14.4065C731.139 12.8461 717.021 14.4209 703.097 15.9628L703.537 19.9385ZM659.316 21.1271C672.773 23.3603 688.421 21.6124 703.537 19.9385L703.097 15.9628C687.826 17.6539 672.773 19.3056 659.971 17.181L659.316 21.1271ZM627.152 11.8935C637.597 15.5482 648.302 19.2991 659.316 21.1271L659.971 17.181C649.355 15.4192 638.978 11.7935 628.473 8.11791L627.152 11.8935ZM575.508 2.6935C592.92 -0.0416916 609.656 5.77127 627.152 11.8935L628.473 8.11791C611.166 2.0619 593.461 -4.17573 574.887 -1.25805L575.508 2.6935ZM539.725 23.8469C551.097 14.0714 561.933 4.8259 575.508 2.6935L574.887 -1.25805C559.99 1.08214 548.294 11.2059 537.117 20.8136L539.725 23.8469ZM502.377 45.8828C517.079 43.3801 528.663 33.3559 539.725 23.8469L537.117 20.8136C525.866 30.4856 515.12 39.656 501.706 41.9395L502.377 45.8828ZM440.052 35.7315C460.857 42.2357 482.95 49.1896 502.377 45.8828L501.706 41.9395C483.42 45.0521 462.334 38.5066 441.245 31.9137L440.052 35.7315ZM366.253 37.8252C374.449 27.9627 385.244 25.0472 397.9 25.7994C410.67 26.5583 425.036 31.0371 440.052 35.7315L441.245 31.9137C426.368 27.2624 411.496 22.6004 398.137 21.8064C384.663 21.0056 372.438 24.1251 363.177 35.2686L366.253 37.8252ZM364.775 39.7484C365.231 39.1045 365.723 38.4634 366.253 37.8252L363.177 35.2686C362.582 35.9846 362.026 36.7083 361.509 37.4395L364.775 39.7484ZM306.292 56.7754C314.171 56.4359 321.822 57.5559 329.316 59.6961L330.415 55.8499C322.581 53.6125 314.497 52.4182 306.12 52.7791L306.292 56.7754ZM266.971 78.0969C279.632 67.4358 291.662 57.4058 306.292 56.7754L306.12 52.7791C289.877 53.479 276.781 64.6073 264.395 75.0372L266.971 78.0969ZM223.977 100.175C240.773 100.273 254.216 88.8379 266.971 78.0969L264.395 75.0372C251.337 86.0329 239.052 96.2628 224.001 96.1751L223.977 100.175ZM167.292 77.1707C184.902 88.3439 203.255 100.054 223.977 100.175L224.001 96.1751C204.636 96.0623 187.28 85.1156 169.435 73.7932L167.292 77.1707ZM108.343 55.6087C129.228 53.1161 147.795 64.8001 167.292 77.1707L169.435 73.7932C150.243 61.6162 130.424 48.945 107.869 51.6369L108.343 55.6087ZM15.5812 123.54C18.0142 104.695 31.2799 88.8949 49.1016 77.146C66.8993 65.413 88.958 57.9222 108.343 55.6087L107.869 51.6369C87.9104 54.0188 65.252 61.708 46.9 73.8064C28.5718 85.8891 14.2551 102.572 11.6142 123.028L15.5812 123.54ZM49.5248 182.943C40.0649 173.538 30.8258 164.342 24.3023 154.578C17.8081 144.858 14.1331 134.758 15.5812 123.54L11.6142 123.028C10.0004 135.528 14.159 146.596 20.9763 156.8C27.7644 166.96 37.3147 176.445 46.7046 185.78L49.5248 182.943ZM85.5286 244.079C86.1873 231.905 81.6651 221.11 74.7927 211.161C67.9423 201.245 58.6331 191.998 49.5248 182.943L46.7046 185.78C55.8744 194.896 64.9 203.878 71.5016 213.435C78.0814 222.96 82.1285 232.884 81.5345 243.863L85.5286 244.079ZM41.4443 300.994C51.8015 292.944 62.4753 284.655 70.6947 275.497C78.9313 266.319 84.8794 256.079 85.5286 244.079L81.5345 243.863C80.9538 254.597 75.6356 264.002 67.7178 272.825C59.7829 281.667 49.4144 289.733 38.9895 297.836L41.4443 300.994ZM2.81432 358.181C0.219795 346.823 4.02692 337.057 11.4798 327.795C18.9904 318.461 30.0092 309.883 41.4443 300.994L38.9895 297.836C27.6597 306.643 16.226 315.516 8.36343 325.287C0.443161 335.13 -4.04345 346.122 -1.08524 359.072L2.81432 358.181ZM65.2813 387.766C50.2576 386.225 35.9168 384.741 24.6024 380.588C13.4077 376.479 5.48618 369.878 2.81432 358.181L-1.08524 359.072C1.98355 372.506 11.2212 379.937 23.2241 384.343C35.1072 388.705 50.0024 390.22 64.8731 391.745L65.2813 387.766ZM120.719 400.644C105.587 391.863 84.8382 389.772 65.2813 387.766L64.8731 391.745C84.6994 393.779 104.477 395.844 118.712 404.104L120.719 400.644ZM154.964 433.472C144.959 421.3 134.653 408.73 120.719 400.644L118.712 404.104C131.915 411.766 141.782 423.734 151.874 436.012L154.964 433.472ZM192.208 467.354C176.962 460.181 166.15 447.079 154.964 433.472L151.874 436.012C162.949 449.484 174.306 463.352 190.505 470.974L192.208 467.354ZM293.021 482.249C260.182 491.66 223.6 482.124 192.208 467.354L190.505 470.974C222.218 485.894 259.896 495.903 294.123 486.094L293.021 482.249ZM335.186 448.177C322.556 463.1 310.517 477.235 293.021 482.249L294.123 486.094C312.989 480.688 325.784 465.478 338.239 450.761L335.186 448.177ZM370.958 415.652C356.437 423.023 345.614 435.854 335.186 448.177L338.239 450.761C348.777 438.309 359.095 426.159 372.769 419.218L370.958 415.652ZM426.592 405.43C407.337 406.442 387.069 407.474 370.958 415.652L372.769 419.218C387.977 411.498 407.317 410.449 426.801 409.425L426.592 405.43ZM492.406 381.381C486.564 391.862 477.237 397.511 465.75 400.73C454.186 403.971 440.65 404.692 426.592 405.43L426.801 409.425C440.744 408.692 454.756 407.965 466.829 404.582C478.98 401.177 489.381 395.025 495.9 383.328L492.406 381.381ZM496.976 365.216C496.753 370.692 495.364 376.074 492.406 381.381L495.9 383.328C499.175 377.451 500.725 371.454 500.973 365.379L496.976 365.216ZM516.999 351.995C515.787 351.404 514.563 350.876 513.329 350.409L511.913 354.15C513.033 354.574 514.143 355.052 515.244 355.59L516.999 351.995ZM554.358 408.062C550.119 396.825 545.761 385.258 540.031 375.334C534.289 365.391 527.07 356.912 516.999 351.995L515.244 355.59C524.329 360.025 531.04 367.763 536.567 377.334C542.104 386.923 546.351 398.168 550.615 409.473L554.358 408.062ZM595.466 460.536C584.324 458.851 576.485 452.237 570.178 442.72C563.826 433.136 559.173 420.828 554.358 408.062L550.615 409.473C555.388 422.126 560.194 434.895 566.844 444.93C573.54 455.034 582.247 462.583 594.868 464.491L595.466 460.536ZM649.278 416.704C641.465 429.08 633.933 440.99 625.278 449.371C616.696 457.68 607.227 462.315 595.466 460.536L594.868 464.491C608.261 466.516 618.917 461.097 628.06 452.244C637.129 443.462 644.921 431.099 652.661 418.839L649.278 416.704ZM680.096 377.22C668.03 386.961 658.46 402.16 649.278 416.704L652.661 418.839C661.944 404.134 671.162 389.573 682.609 380.333L680.096 377.22ZM716.009 359.09C703.415 363.954 690.26 369.015 680.096 377.22L682.609 380.333C692.195 372.594 704.719 367.738 717.45 362.821L716.009 359.09ZM761.004 326.431C757.757 335.228 751.551 341.461 743.597 346.475C735.597 351.518 725.975 355.241 716.009 359.09L717.45 362.821C727.331 359.006 737.339 355.148 745.73 349.859C754.167 344.541 761.113 337.69 764.757 327.816L761.004 326.431ZM750.026 264.92C754.753 275.619 759.341 286.021 761.827 296.31C764.302 306.556 764.652 316.549 761.004 326.431L764.757 327.816C768.762 316.965 768.311 306.116 765.715 295.37C763.13 284.668 758.379 273.93 753.684 263.303L750.026 264.92ZM736.259 224.976C738.381 238.593 744.307 251.975 750.026 264.92L753.684 263.303C747.919 250.253 742.238 237.363 740.211 224.36L736.259 224.976ZM734.006 154.176C729.975 177.875 732.606 201.536 736.259 224.976L740.211 224.36C736.567 200.978 734.034 177.864 737.949 154.847L734.006 154.176ZM754.414 105.548C745.801 121.304 736.807 137.711 734.006 154.176L737.949 154.847C740.616 139.17 749.226 123.377 757.924 107.467L754.414 105.548ZM500.973 365.379C501.119 361.779 502.507 358.292 504.569 356.082C506.564 353.945 509.068 353.072 511.913 354.15L513.329 350.409C508.673 348.646 504.516 350.276 501.644 353.353C498.84 356.36 497.156 360.802 496.976 365.216L500.973 365.379ZM361.509 37.4395C358.345 41.9162 352.963 47.3227 347.058 51.2035C341.052 55.1505 335.043 57.1719 330.415 55.8499L329.316 59.6961C335.711 61.5226 343.032 58.6354 349.255 54.5463C355.578 50.3909 361.322 44.6337 364.775 39.7484L361.509 37.4395Z" fill="#E9FCFB" mask="url(#path-1-inside-1_2715_41497)"/>
</mask>
<g mask="url(#mask0_2715_41497)">
<rect y="-12" width="776" height="500" fill="#F9FAFA"/>
<path d="M742.049 15.1495C741.271 15.2603 739.981 15.5926 739.159 15.8585L737.691 16.3459L737.246 18.6721C736.98 19.957 736.713 21.1534 736.646 21.3528C736.535 21.6408 736.713 21.7737 737.424 21.9952C737.936 22.1503 739.203 22.5934 740.226 23.0143L742.116 23.7676L743.873 23.103C744.829 22.7263 746.83 22.0839 748.298 21.6629C749.788 21.242 751.011 20.8654 751.033 20.8432C751.055 20.7989 751.233 20.3115 751.455 19.7355L751.833 18.7164L750.099 16.9219L748.364 15.1052L745.918 15.0166C744.584 14.9723 742.828 15.0166 742.049 15.1495Z" fill="#62B9B5"/>
<path d="M752.144 18.229L753.434 17.9631C754.123 17.8081 754.702 17.6308 754.702 17.5422C754.702 17.3428 751.21 15.8806 750.254 15.6812L749.476 15.5262L752.144 18.229Z" fill="#62B9B5"/>
<path d="M735.69 17.2764C732.377 18.9379 729.019 22.2611 727.373 25.4956C726.84 26.5147 726.973 27.0907 727.796 27.5338C728.196 27.7554 728.73 27.4009 731.887 24.9861C733.889 23.4574 735.645 22.0617 735.779 21.9066C736.001 21.6408 737.002 16.9219 736.868 16.789C736.824 16.7446 736.29 16.9662 735.69 17.2764Z" fill="#62B9B5"/>
<path d="M754.146 18.4505C753.278 18.6499 752.456 18.8715 752.322 18.9601C752.211 19.0487 751.966 19.5583 751.811 20.1121C751.544 21.0648 751.566 21.1312 752.122 21.818C753.701 23.7454 755.502 26.2267 756.436 27.7775L757.481 29.5056L759.26 30.0594C762.084 30.9235 761.839 31.0342 762.618 28.7523L763.329 26.7584L762.773 25.6507C761.528 23.2137 758.37 19.6469 756.391 18.4949C755.747 18.1182 755.613 18.1182 754.146 18.4505Z" fill="#62B9B5"/>
<path d="M747.141 22.6377C742.272 24.1442 742.561 23.9892 742.405 25.252C742.316 25.828 742.249 28.0656 742.205 30.1924L742.16 34.0694L743.606 34.8005C744.895 35.443 748.942 36.8166 750.966 37.2596L751.766 37.459L753.434 34.9777C757.036 29.6385 756.969 29.7936 756.547 28.9961C755.391 26.7585 751.433 21.5522 750.921 21.5743C750.743 21.5743 749.031 22.0617 747.141 22.6377Z" fill="#62B9B5"/>
<path d="M735.757 22.6599C735.423 22.9701 733.6 24.3658 731.732 25.7615L728.285 28.3093L728.152 29.8601C728.063 30.7019 728.018 32.2306 728.063 33.2497L728.13 35.0885L731.465 36.4178C736.824 38.5446 735.979 38.5667 739.003 36.1519L741.582 34.0694V30.6355C741.582 28.7523 741.649 26.5369 741.716 25.7172L741.871 24.2329L740.782 23.7455C740.182 23.5018 738.936 23.0144 738.025 22.7042L736.357 22.106L735.757 22.6599Z" fill="#62B9B5"/>
<path d="M725.906 28.9074C725.017 31.7432 724.772 34.8669 725.217 37.8135C725.417 39.1649 725.661 40.3391 725.75 40.4277C725.862 40.5385 726.062 40.0511 726.217 39.3643C726.373 38.6553 726.751 37.459 727.04 36.7057C727.351 35.8639 727.507 35.0442 727.44 34.6897C727.374 34.3574 727.418 32.718 727.529 31.0785C727.729 28.2206 727.707 28.0655 727.285 27.5781C727.04 27.3123 726.751 27.0907 726.662 27.0907C726.551 27.0907 726.217 27.9105 725.906 28.9074Z" fill="#62B9B5"/>
<path d="M763.507 27.7554C763.44 27.9326 763.151 28.7524 762.84 29.5942L762.284 31.0786L762.707 33.0282C762.951 34.0916 763.263 36.3956 763.396 38.168C763.529 39.9403 763.729 41.469 763.818 41.5576C763.907 41.6684 764.219 40.8265 764.485 39.6745C765.153 36.883 765.175 33.0725 764.53 30.4139C763.952 27.9991 763.685 27.3123 763.507 27.7554Z" fill="#62B9B5"/>
<path d="M756.636 31.2558C756.191 31.9647 754.968 33.7592 753.923 35.2657L751.989 37.9907L752.589 41.1588L753.212 44.3047L755.902 44.7921C757.37 45.058 758.793 45.346 759.038 45.3903C759.416 45.4789 759.86 45.058 761.239 43.4407L762.951 41.3803L762.862 38.8326C762.795 37.4369 762.573 35.1993 762.373 33.8922C761.928 31.2115 762.151 31.4552 759.593 30.6798C758.793 30.4361 757.992 30.1702 757.792 30.0816C757.548 29.993 757.236 30.3031 756.636 31.2558Z" fill="#62B9B5"/>
<path d="M741.338 34.9777C741.182 35.1771 740.048 36.1076 738.847 37.0159L736.646 38.6996L736.779 40.2726C737.024 42.9533 737.624 47.3399 737.802 47.8272C738.002 48.3368 739.559 49.0236 742.894 50.1091L744.873 50.7295L748.164 47.8494C749.987 46.2764 751.7 44.8807 751.989 44.7478C752.589 44.4598 752.589 44.6813 751.989 41.048L751.522 38.0572L748.831 37.3039C747.341 36.883 745.162 36.1297 743.939 35.598C742.738 35.0663 741.716 34.6232 741.693 34.6232C741.671 34.6232 741.493 34.7783 741.338 34.9777Z" fill="#62B9B5"/>
<path d="M727.129 38.323C726.729 39.7631 726.306 41.048 726.195 41.2031C725.706 41.8234 728.263 46.3651 730.309 48.514C731.398 49.6661 731.465 49.7104 732.332 49.5553C733.355 49.4002 736.424 48.4476 736.846 48.1817C737.068 48.0488 737.024 47.362 736.69 45.0358C736.446 43.3964 736.246 41.3582 736.246 40.5385V39.032L735.201 38.5889C733.355 37.7913 728.174 35.731 728.018 35.731C727.93 35.731 727.529 36.9051 727.129 38.323Z" fill="#62B9B5"/>
<path d="M762.417 42.7982C761.995 43.2413 761.305 44.061 760.839 44.637C760.082 45.5897 760.016 45.7669 760.082 46.9189L760.149 48.1817L761.128 46.8968C761.884 45.8555 763.818 42.4216 763.818 42.0893C763.818 41.757 763.04 42.1557 762.417 42.7982Z" fill="#62B9B5"/>
<path d="M748.876 48.0267L745.407 50.9953L747.675 54.8059L748.475 54.673C751.322 54.1634 754.724 52.6791 757.036 50.951C759.104 49.4002 759.349 49.0679 759.504 47.5393C759.682 45.9663 759.971 46.1657 756.414 45.4789C752.478 44.7478 752.878 44.6149 748.876 48.0267Z" fill="#62B9B5"/>
<path d="M735.912 49.1344C735.178 49.4224 734.044 49.7768 733.422 49.9319C732.777 50.087 732.243 50.2642 732.243 50.3529C732.243 50.4193 733.066 51.0175 734.066 51.6821C736.246 53.1222 739.025 54.2077 741.693 54.673C743.739 55.0274 746.919 55.116 746.919 54.828C746.919 54.7394 746.496 53.9197 745.963 53.0114L745.029 51.372L743.339 50.8846C742.405 50.6187 740.759 50.0427 739.67 49.5775C738.58 49.1344 737.602 48.7356 737.469 48.6913C737.357 48.6691 736.646 48.8685 735.912 49.1344Z" fill="#62B9B5"/>
<path d="M723.748 77.162C721.688 78.5352 717.477 82.7464 713.861 87.0491C711.389 89.9328 710.886 89.4293 711.252 84.4858C711.527 81.3274 711.481 80.9155 710.565 80C710.062 79.4965 709.421 79.0388 709.146 79.0388C708.551 79.0388 707.819 80.5035 707.819 81.6021C707.865 82.9753 706.537 90.1159 705.988 91.5349C705.713 92.2672 705.485 94.0066 705.485 95.4256C705.485 96.8446 705.347 98.4924 705.21 99.0875C704.706 100.918 693.767 110.439 686.489 115.291C678.112 120.921 676.556 122.157 669.324 129.206C666.119 132.319 663.007 134.974 662.366 135.111C660.489 135.569 659.574 135.203 659.208 133.829C658.933 132.731 659.07 132.502 660.215 131.907C662.275 130.808 662 129.206 659.253 126.551C657.377 124.721 656.965 124.08 656.965 122.752C656.965 121.883 656.553 120.097 656.049 118.77C654.951 115.795 654.905 115.337 655.958 115.062C656.553 114.879 656.553 114.833 655.775 114.788C654.264 114.696 653.44 113.506 654.173 112.362C654.676 111.538 654.63 111.492 653.852 111.721C652.845 112.041 651.472 111.629 651.472 111.034C651.472 110.851 652.021 110.348 652.754 109.982L653.99 109.295L652.296 109.57C651.335 109.707 650.557 109.707 650.557 109.524C650.557 109.386 651.243 108.608 652.067 107.83C653.074 106.869 653.211 106.594 652.525 106.915C651.243 107.556 649.87 107.098 650.557 106.274C650.923 105.816 650.694 105.816 649.321 106.32C647.307 107.006 644.606 107.144 644.606 106.549C644.606 106.32 645.338 105.679 646.208 105.13C647.078 104.58 647.81 104.077 647.81 103.985C647.81 103.848 645.384 104.351 643.691 104.901C642.546 105.267 642.546 105.267 643.416 104.26C644.377 103.207 644.148 103.024 642.729 103.756C641.677 104.351 641.677 104.306 642.592 102.108L643.324 100.323L642.226 101.468C640.853 102.887 638.747 104.672 638.427 104.672C638.289 104.672 638.198 104.26 638.198 103.756C638.198 102.978 638.06 102.887 637.328 103.299C636.825 103.527 636.275 104.168 636.138 104.672C636.001 105.175 635.589 105.587 635.268 105.587C634.215 105.587 632.156 103.711 632.43 102.978C632.568 102.612 632.476 102.475 632.247 102.612C631.606 103.024 631.652 104.809 632.339 105.496C632.659 105.816 632.705 106.045 632.43 106.045C631.789 106.045 631.057 105.45 630.508 104.443C630.004 103.619 629.959 103.619 629.913 104.901C629.867 105.633 629.867 106.411 629.913 106.594C629.959 107.052 625.519 107.51 624.374 107.144C623.459 106.869 623.413 106.915 623.916 107.51C624.832 108.654 622.772 108.929 621.674 107.83C620.621 106.777 620.483 107.693 621.49 109.066C622.406 110.302 622.36 110.485 620.895 111.263C620.209 111.629 619.385 112.453 619.065 113.14C618.79 113.781 618.057 114.513 617.508 114.742C616.547 115.108 616.639 115.154 618.057 115.2L619.66 115.245L618.195 116.573L616.684 117.9L618.057 117.671L619.431 117.397L617.783 120.692C616.455 123.393 616.043 123.942 615.311 123.759C614.808 123.622 614.487 123.714 614.67 123.942C614.808 124.171 615.632 124.354 616.501 124.354C617.874 124.354 618.057 124.492 618.057 125.499C618.057 127.055 616.959 129.115 615.677 130.076L614.624 130.854L615.906 130.625C617.05 130.442 617.142 130.534 617.142 131.998C617.142 132.822 617.462 134.287 617.829 135.203C618.653 137.171 618.515 137.491 617.05 136.576C615.494 135.569 611.283 134.424 609.132 134.424C606.568 134.424 586.565 137.812 580.34 139.276C575.122 140.558 574.756 140.741 572.055 144.22C571.369 145.09 570.087 145.685 566.791 146.554C564.411 147.195 561.619 148.156 560.612 148.614C557.591 150.125 546.377 159.234 540.426 165.093C537.359 168.114 534.613 170.585 534.384 170.585C534.109 170.585 532.69 171.592 531.226 172.874C529.761 174.11 527.426 175.575 526.053 176.124C521.659 177.863 513.054 182.441 511.543 183.86C508.293 186.881 505.638 191.412 506.462 192.419C506.828 192.923 506.737 193.335 506.05 194.296C504.723 196.173 504.494 197.042 505.272 197.775C506.188 198.69 507.103 198.278 509.804 195.761C517.631 188.483 520.148 187.567 513.374 194.525C510.17 197.775 507.744 200.613 507.744 201.116C507.744 202.123 508.568 203.084 509.392 203.084C509.712 203.084 512.596 200.704 515.846 197.82C521.155 193.06 523.307 191.687 523.307 193.06C523.307 193.701 522.071 195.44 518.363 200.201C515.8 203.451 515.022 204.137 512.184 205.51C508.202 207.433 500.557 210.271 488.29 214.436L479.136 217.503L478.998 219.059C478.861 220.478 479.364 223.316 480.097 225.239C480.326 225.834 478.861 226.703 472.91 229.633C464.442 233.798 461.787 234.76 460.231 234.165C458.766 233.615 451.122 234.531 446.225 235.858C440.823 237.323 434.598 240.435 424.299 246.798C419.63 249.682 414.778 252.52 413.588 253.115C411.208 254.305 404.708 256.731 401.87 257.509C400.909 257.738 399.124 258.607 397.888 259.386C396.652 260.21 392.578 262.132 388.871 263.78C379.167 267.991 375.551 270.783 372.438 276.459C369.234 282.364 369.188 289.413 372.301 291.61C373.536 292.434 377.885 292.617 379.853 291.885C382.645 290.832 390.564 285.11 393.768 281.815C396.469 279.114 398.025 277.924 401.138 276.413C403.289 275.36 406.264 273.438 407.775 272.156C412.718 267.808 419.035 265.519 433.591 262.773C446.957 260.255 451.351 259.111 455.425 257.097C457.485 256.09 460.185 255.037 461.513 254.808C462.794 254.579 464.213 254.167 464.717 253.893C465.175 253.664 466.777 253.435 468.241 253.435C471.995 253.435 478.403 252.016 483.438 250.048C488.382 248.125 489.16 248.034 490.075 249.407L490.762 250.368L493.875 248.949C496.85 247.622 501.931 245.974 517.814 241.397C529.486 238.009 531.546 237.46 531.546 237.872C531.546 238.696 508.934 258.195 504.86 260.896C502.8 262.224 502.663 262.452 502.938 263.734C503.807 268.083 504.402 267.213 495.797 274.949C486.322 283.554 484.766 284.698 483.209 284.103C482.294 283.737 481.333 284.057 477.625 285.98C471.812 289.047 465.037 293.532 462.199 296.279C460.918 297.515 458.675 300.17 457.21 302.184C453.548 307.173 452.907 307.86 443.753 317.243L435.742 325.482L431.806 325.62C429.655 325.711 426.679 326.077 425.215 326.443C423.75 326.81 422.239 327.13 421.827 327.13C421.095 327.13 418.394 329.19 418.532 329.648C418.669 330.243 417.067 333.538 416.655 333.538C416.426 333.538 416.197 333.859 416.197 334.271C416.197 337.2 410.567 344.615 405.578 348.232C401.962 350.841 398.346 354.96 398.346 356.425C398.346 356.929 398.071 358.073 397.705 358.943C396.881 360.819 397.384 365.442 398.574 367.273C399.353 368.418 399.444 368.463 403.243 368.189C408.095 367.823 409.423 367.09 415.648 361.277C418.211 358.897 420.82 356.654 421.415 356.333C425.81 353.953 427.137 353.312 427.366 353.541C427.503 353.724 428.144 353.267 428.739 352.626C429.38 351.939 430.158 351.39 430.524 351.39C430.89 351.39 431.806 350.703 432.584 349.879C433.362 349.101 434.507 348.048 435.147 347.637C435.742 347.179 436.337 346.446 436.429 345.989C436.612 344.799 446.087 336.056 450.665 332.806C452.724 331.295 459.041 327.313 464.625 323.926C475.611 317.243 477.35 316.053 484.537 310.102C487.1 307.997 490.396 305.479 491.815 304.564C493.234 303.648 494.744 302.321 495.11 301.589C495.614 300.582 496.209 300.17 497.582 299.987C498.543 299.803 500.557 299.071 502.068 298.293C503.533 297.515 505.821 296.462 507.057 295.958C508.339 295.455 510.399 294.311 511.635 293.441C513.374 292.297 514.839 291.747 517.585 291.29L521.201 290.649L523.353 292.617C526.282 295.409 527.06 295.272 530.63 291.61C532.278 289.962 537.954 284.973 543.218 280.579C554.066 271.516 559.239 266.618 564.64 260.301C569.812 254.167 573.062 250.872 575.717 248.995C578.738 246.798 586.016 239.657 586.016 238.879C586.016 238.421 586.291 238.33 586.84 238.559C588.122 239.108 591.372 239.383 592.608 239.062C593.386 238.879 594.484 237.735 595.812 235.675C597.048 233.844 599.153 231.555 601.076 229.999C602.815 228.58 605.744 225.559 607.575 223.362C609.406 221.165 613.892 216.771 617.508 213.612C630.279 202.489 634.124 197.637 640.486 184.729C642.684 180.289 645.155 175.987 646.803 173.881C648.268 171.959 650.328 168.892 651.38 167.107C653.898 162.758 657.514 159.554 663.877 155.984C669.324 152.871 671.612 150.949 671.612 149.484C671.612 148.98 672.345 148.111 673.352 147.47C674.267 146.829 677.197 144.907 679.851 143.167C682.964 141.107 686.168 138.453 688.869 135.706C693.95 130.534 694.224 130.213 699.534 122.752C707.91 111.034 710.199 108.746 714.868 107.144C716.15 106.732 719.033 105.084 721.322 103.482C723.611 101.925 727.547 99.6825 730.019 98.584C733.544 97.0277 734.596 96.3868 734.688 95.6087C734.871 94.2813 733.818 94.2813 728.875 95.746C722.466 97.6227 723.061 96.5242 731.758 90.3448C735.146 87.9645 735.695 87.0948 734.688 86.0421C733.818 85.2181 733.132 85.5386 726.678 89.6582C722.787 92.1757 721.368 92.725 722.146 91.4433C722.329 91.1687 724.755 89.1089 727.593 86.8202C733.04 82.426 734.139 81.0985 733.315 80.0916C733.04 79.7711 732.582 79.4965 732.216 79.4965C731.438 79.4965 726.266 83.021 722.283 86.2709C720.59 87.6441 719.079 88.6512 718.896 88.5138C718.438 88.0103 720.91 84.6689 724.297 81.2816C726.632 78.9472 727.456 77.8029 727.364 77.0705C727.181 75.6057 726.082 75.6515 723.748 77.162ZM579.745 163.948C581.164 164.131 582.354 164.406 582.354 164.589C582.354 165.047 580.111 168.297 578.143 170.677C576.862 172.233 575.397 173.286 572.971 174.476C570.545 175.62 568.668 176.994 566.471 179.237L563.358 182.349L560.154 182.624C555.897 183.036 554.89 184.043 554.89 188.117V190.954L550.633 192.923C545.232 195.395 536.032 198.599 535.574 198.141C535.391 197.958 535.62 196.585 536.169 195.074C536.673 193.609 537.313 190.543 537.542 188.254C537.908 185.05 538.229 183.86 539.007 182.99C539.556 182.395 543.951 179.328 548.711 176.17C557.591 170.311 561.527 167.473 564.64 164.772L566.379 163.216L571.735 163.445C574.664 163.582 578.28 163.811 579.745 163.948ZM514.152 186.606C514.152 186.835 513.923 187.064 513.649 187.064C513.42 187.064 513.328 186.835 513.465 186.606C513.603 186.331 513.832 186.148 513.969 186.148C514.061 186.148 514.152 186.331 514.152 186.606ZM529.99 195.074C530.173 195.44 530.081 196.722 529.898 197.958L529.486 200.109L526.328 201.116C524.588 201.711 523.078 202.077 522.986 201.986C522.712 201.711 528.891 194.387 529.349 194.387C529.578 194.387 529.852 194.708 529.99 195.074Z" fill="#62B9B5"/>
<mask id="path-6-inside-2_2715_41497" fill="white">
<path d="M721.748 73.162C719.688 74.5352 715.477 78.7464 711.861 83.0491C709.389 85.9328 708.886 85.4293 709.252 80.4858C709.527 77.3274 709.481 76.9155 708.565 76C708.062 75.4965 707.421 75.0388 707.146 75.0388C706.551 75.0388 705.819 76.5035 705.819 77.6021C705.865 78.9753 704.537 86.1159 703.988 87.5349C703.713 88.2672 703.485 90.0066 703.485 91.4256C703.485 92.8446 703.347 94.4924 703.21 95.0875C702.706 96.9184 691.767 106.439 684.489 111.291C676.112 116.921 674.556 118.157 667.324 125.206C664.119 128.319 661.007 130.974 660.366 131.111C658.489 131.569 657.574 131.203 657.208 129.829C656.933 128.731 657.07 128.502 658.215 127.907C660.275 126.808 660 125.206 657.253 122.551C655.377 120.721 654.965 120.08 654.965 118.752C654.965 117.883 654.553 116.097 654.049 114.77C652.951 111.795 652.905 111.337 653.958 111.062C654.553 110.879 654.553 110.833 653.775 110.788C652.264 110.696 651.44 109.506 652.173 108.362C652.676 107.538 652.63 107.492 651.852 107.721C650.845 108.041 649.472 107.629 649.472 107.034C649.472 106.851 650.021 106.348 650.754 105.982L651.99 105.295L650.296 105.57C649.335 105.707 648.557 105.707 648.557 105.524C648.557 105.386 649.243 104.608 650.067 103.83C651.074 102.869 651.211 102.594 650.525 102.915C649.243 103.556 647.87 103.098 648.557 102.274C648.923 101.816 648.694 101.816 647.321 102.32C645.307 103.006 642.606 103.144 642.606 102.549C642.606 102.32 643.338 101.679 644.208 101.13C645.078 100.58 645.81 100.077 645.81 99.9852C645.81 99.8479 643.384 100.351 641.691 100.901C640.546 101.267 640.546 101.267 641.416 100.26C642.377 99.2071 642.148 99.024 640.729 99.7563C639.677 100.351 639.677 100.306 640.592 98.1085L641.324 96.3233L640.226 97.4677C638.853 98.8867 636.747 100.672 636.427 100.672C636.289 100.672 636.198 100.26 636.198 99.7563C636.198 98.9782 636.06 98.8867 635.328 99.2986C634.825 99.5275 634.275 100.168 634.138 100.672C634.001 101.175 633.589 101.587 633.268 101.587C632.215 101.587 630.156 99.7106 630.43 98.9782C630.568 98.612 630.476 98.4747 630.247 98.612C629.606 99.024 629.652 100.809 630.339 101.496C630.659 101.816 630.705 102.045 630.43 102.045C629.789 102.045 629.057 101.45 628.508 100.443C628.004 99.619 627.959 99.619 627.913 100.901C627.867 101.633 627.867 102.411 627.913 102.594C627.959 103.052 623.519 103.51 622.374 103.144C621.459 102.869 621.413 102.915 621.916 103.51C622.832 104.654 620.772 104.929 619.674 103.83C618.621 102.777 618.483 103.693 619.49 105.066C620.406 106.302 620.36 106.485 618.895 107.263C618.209 107.629 617.385 108.453 617.065 109.14C616.79 109.781 616.057 110.513 615.508 110.742C614.547 111.108 614.639 111.154 616.057 111.2L617.66 111.245L616.195 112.573L614.684 113.9L616.057 113.671L617.431 113.397L615.783 116.692C614.455 119.393 614.043 119.942 613.311 119.759C612.808 119.622 612.487 119.714 612.67 119.942C612.808 120.171 613.632 120.354 614.501 120.354C615.874 120.354 616.057 120.492 616.057 121.499C616.057 123.055 614.959 125.115 613.677 126.076L612.624 126.854L613.906 126.625C615.05 126.442 615.142 126.534 615.142 127.998C615.142 128.822 615.462 130.287 615.829 131.203C616.653 133.171 616.515 133.491 615.05 132.576C613.494 131.569 609.283 130.424 607.132 130.424C604.568 130.424 584.565 133.812 578.34 135.276C573.122 136.558 572.756 136.741 570.055 140.22C569.369 141.09 568.087 141.685 564.791 142.554C562.411 143.195 559.619 144.156 558.612 144.614C555.591 146.125 544.377 155.234 538.426 161.093C535.359 164.114 532.613 166.585 532.384 166.585C532.109 166.585 530.69 167.592 529.226 168.874C527.761 170.11 525.426 171.575 524.053 172.124C519.659 173.863 511.054 178.441 509.543 179.86C506.293 182.881 503.638 187.412 504.462 188.419C504.828 188.923 504.737 189.335 504.05 190.296C502.723 192.173 502.494 193.042 503.272 193.775C504.188 194.69 505.103 194.278 507.804 191.761C515.631 184.483 518.148 183.567 511.374 190.525C508.17 193.775 505.744 196.613 505.744 197.116C505.744 198.123 506.568 199.084 507.392 199.084C507.712 199.084 510.596 196.704 513.846 193.82C519.155 189.06 521.307 187.687 521.307 189.06C521.307 189.701 520.071 191.44 516.363 196.201C513.8 199.451 513.022 200.137 510.184 201.51C506.202 203.433 498.557 206.271 486.29 210.436L477.136 213.503L476.998 215.059C476.861 216.478 477.364 219.316 478.097 221.239C478.326 221.834 476.861 222.703 470.91 225.633C462.442 229.798 459.787 230.76 458.231 230.165C456.766 229.615 449.122 230.531 444.225 231.858C438.823 233.323 432.598 236.435 422.299 242.798C417.63 245.682 412.778 248.52 411.588 249.115C409.208 250.305 402.708 252.731 399.87 253.509C398.909 253.738 397.124 254.607 395.888 255.386C394.652 256.21 390.578 258.132 386.871 259.78C377.167 263.991 373.551 266.783 370.438 272.459C367.234 278.364 367.188 285.413 370.301 287.61C371.536 288.434 375.885 288.617 377.853 287.885C380.645 286.832 388.564 281.11 391.768 277.815C394.469 275.114 396.025 273.924 399.138 272.413C401.289 271.36 404.264 269.438 405.775 268.156C410.718 263.808 417.035 261.519 431.591 258.773C444.957 256.255 449.351 255.111 453.425 253.097C455.485 252.09 458.185 251.037 459.513 250.808C460.794 250.579 462.213 250.167 462.717 249.893C463.175 249.664 464.777 249.435 466.241 249.435C469.995 249.435 476.403 248.016 481.438 246.048C486.382 244.125 487.16 244.034 488.075 245.407L488.762 246.368L491.875 244.949C494.85 243.622 499.931 241.974 515.814 237.397C527.486 234.009 529.546 233.46 529.546 233.872C529.546 234.696 506.934 254.195 502.86 256.896C500.8 258.224 500.663 258.452 500.938 259.734C501.807 264.083 502.402 263.213 493.797 270.949C484.322 279.554 482.766 280.698 481.209 280.103C480.294 279.737 479.333 280.057 475.625 281.98C469.812 285.047 463.037 289.532 460.199 292.279C458.918 293.515 456.675 296.17 455.21 298.184C451.548 303.173 450.907 303.86 441.753 313.243L433.742 321.482L429.806 321.62C427.655 321.711 424.679 322.077 423.215 322.443C421.75 322.81 420.239 323.13 419.827 323.13C419.095 323.13 416.394 325.19 416.532 325.648C416.669 326.243 415.067 329.538 414.655 329.538C414.426 329.538 414.197 329.859 414.197 330.271C414.197 333.2 408.567 340.615 403.578 344.232C399.962 346.841 396.346 350.96 396.346 352.425C396.346 352.929 396.071 354.073 395.705 354.943C394.881 356.819 395.384 361.442 396.574 363.273C397.353 364.418 397.444 364.463 401.243 364.189C406.095 363.823 407.423 363.09 413.648 357.277C416.211 354.897 418.82 352.654 419.415 352.333C423.81 349.953 425.137 349.312 425.366 349.541C425.503 349.724 426.144 349.267 426.739 348.626C427.38 347.939 428.158 347.39 428.524 347.39C428.89 347.39 429.806 346.703 430.584 345.879C431.362 345.101 432.507 344.048 433.147 343.637C433.742 343.179 434.337 342.446 434.429 341.989C434.612 340.799 444.087 332.056 448.665 328.806C450.724 327.295 457.041 323.313 462.625 319.926C473.611 313.243 475.35 312.053 482.537 306.102C485.1 303.997 488.396 301.479 489.815 300.564C491.234 299.648 492.744 298.321 493.11 297.589C493.614 296.582 494.209 296.17 495.582 295.987C496.543 295.803 498.557 295.071 500.068 294.293C501.533 293.515 503.821 292.462 505.057 291.958C506.339 291.455 508.399 290.311 509.635 289.441C511.374 288.297 512.839 287.747 515.585 287.29L519.201 286.649L521.353 288.617C524.282 291.409 525.06 291.272 528.63 287.61C530.278 285.962 535.954 280.973 541.218 276.579C552.066 267.516 557.239 262.618 562.64 256.301C567.812 250.167 571.062 246.872 573.717 244.995C576.738 242.798 584.016 235.657 584.016 234.879C584.016 234.421 584.291 234.33 584.84 234.559C586.122 235.108 589.372 235.383 590.608 235.062C591.386 234.879 592.484 233.735 593.812 231.675C595.048 229.844 597.153 227.555 599.076 225.999C600.815 224.58 603.744 221.559 605.575 219.362C607.406 217.165 611.892 212.771 615.508 209.612C628.279 198.489 632.124 193.637 638.486 180.729C640.684 176.289 643.155 171.987 644.803 169.881C646.268 167.959 648.328 164.892 649.38 163.107C651.898 158.758 655.514 155.554 661.877 151.984C667.324 148.871 669.612 146.949 669.612 145.484C669.612 144.98 670.345 144.111 671.352 143.47C672.267 142.829 675.197 140.907 677.851 139.167C680.964 137.107 684.168 134.453 686.869 131.706C691.95 126.534 692.224 126.213 697.534 118.752C705.91 107.034 708.199 104.746 712.868 103.144C714.15 102.732 717.033 101.084 719.322 99.4817C721.611 97.9254 725.547 95.6825 728.019 94.584C731.544 93.0277 732.596 92.3868 732.688 91.6087C732.871 90.2813 731.818 90.2813 726.875 91.746C720.466 93.6227 721.061 92.5242 729.758 86.3448C733.146 83.9645 733.695 83.0948 732.688 82.0421C731.818 81.2181 731.132 81.5386 724.678 85.6582C720.787 88.1757 719.368 88.725 720.146 87.4433C720.329 87.1687 722.755 85.1089 725.593 82.8202C731.04 78.426 732.139 77.0985 731.315 76.0916C731.04 75.7711 730.582 75.4965 730.216 75.4965C729.438 75.4965 724.266 79.021 720.283 82.2709C718.59 83.6441 717.079 84.6512 716.896 84.5138C716.438 84.0103 718.91 80.6689 722.297 77.2816C724.632 74.9472 725.456 73.8029 725.364 73.0705C725.181 71.6057 724.082 71.6515 721.748 73.162ZM577.745 159.948C579.164 160.131 580.354 160.406 580.354 160.589C580.354 161.047 578.111 164.297 576.143 166.677C574.862 168.233 573.397 169.286 570.971 170.476C568.545 171.62 566.668 172.994 564.471 175.237L561.358 178.349L558.154 178.624C553.897 179.036 552.89 180.043 552.89 184.117V186.954L548.633 188.923C543.232 191.395 534.032 194.599 533.574 194.141C533.391 193.958 533.62 192.585 534.169 191.074C534.673 189.609 535.313 186.543 535.542 184.254C535.908 181.05 536.229 179.86 537.007 178.99C537.556 178.395 541.951 175.328 546.711 172.17C555.591 166.311 559.527 163.473 562.64 160.772L564.379 159.216L569.735 159.445C572.664 159.582 576.28 159.811 577.745 159.948ZM512.152 182.606C512.152 182.835 511.923 183.064 511.649 183.064C511.42 183.064 511.328 182.835 511.465 182.606C511.603 182.331 511.832 182.148 511.969 182.148C512.061 182.148 512.152 182.331 512.152 182.606ZM527.99 191.074C528.173 191.44 528.081 192.722 527.898 193.958L527.486 196.109L524.328 197.116C522.588 197.711 521.078 198.077 520.986 197.986C520.712 197.711 526.891 190.387 527.349 190.387C527.578 190.387 527.852 190.708 527.99 191.074Z"/>
</mask>
<path d="M721.748 73.162C719.688 74.5352 715.477 78.7464 711.861 83.0491C709.389 85.9328 708.886 85.4293 709.252 80.4858C709.527 77.3274 709.481 76.9155 708.565 76C708.062 75.4965 707.421 75.0388 707.146 75.0388C706.551 75.0388 705.819 76.5035 705.819 77.6021C705.865 78.9753 704.537 86.1159 703.988 87.5349C703.713 88.2672 703.485 90.0066 703.485 91.4256C703.485 92.8446 703.347 94.4924 703.21 95.0875C702.706 96.9184 691.767 106.439 684.489 111.291C676.112 116.921 674.556 118.157 667.324 125.206C664.119 128.319 661.007 130.974 660.366 131.111C658.489 131.569 657.574 131.203 657.208 129.829C656.933 128.731 657.07 128.502 658.215 127.907C660.275 126.808 660 125.206 657.253 122.551C655.377 120.721 654.965 120.08 654.965 118.752C654.965 117.883 654.553 116.097 654.049 114.77C652.951 111.795 652.905 111.337 653.958 111.062C654.553 110.879 654.553 110.833 653.775 110.788C652.264 110.696 651.44 109.506 652.173 108.362C652.676 107.538 652.63 107.492 651.852 107.721C650.845 108.041 649.472 107.629 649.472 107.034C649.472 106.851 650.021 106.348 650.754 105.982L651.99 105.295L650.296 105.57C649.335 105.707 648.557 105.707 648.557 105.524C648.557 105.386 649.243 104.608 650.067 103.83C651.074 102.869 651.211 102.594 650.525 102.915C649.243 103.556 647.87 103.098 648.557 102.274C648.923 101.816 648.694 101.816 647.321 102.32C645.307 103.006 642.606 103.144 642.606 102.549C642.606 102.32 643.338 101.679 644.208 101.13C645.078 100.58 645.81 100.077 645.81 99.9852C645.81 99.8479 643.384 100.351 641.691 100.901C640.546 101.267 640.546 101.267 641.416 100.26C642.377 99.2071 642.148 99.024 640.729 99.7563C639.677 100.351 639.677 100.306 640.592 98.1085L641.324 96.3233L640.226 97.4677C638.853 98.8867 636.747 100.672 636.427 100.672C636.289 100.672 636.198 100.26 636.198 99.7563C636.198 98.9782 636.06 98.8867 635.328 99.2986C634.825 99.5275 634.275 100.168 634.138 100.672C634.001 101.175 633.589 101.587 633.268 101.587C632.215 101.587 630.156 99.7106 630.43 98.9782C630.568 98.612 630.476 98.4747 630.247 98.612C629.606 99.024 629.652 100.809 630.339 101.496C630.659 101.816 630.705 102.045 630.43 102.045C629.789 102.045 629.057 101.45 628.508 100.443C628.004 99.619 627.959 99.619 627.913 100.901C627.867 101.633 627.867 102.411 627.913 102.594C627.959 103.052 623.519 103.51 622.374 103.144C621.459 102.869 621.413 102.915 621.916 103.51C622.832 104.654 620.772 104.929 619.674 103.83C618.621 102.777 618.483 103.693 619.49 105.066C620.406 106.302 620.36 106.485 618.895 107.263C618.209 107.629 617.385 108.453 617.065 109.14C616.79 109.781 616.057 110.513 615.508 110.742C614.547 111.108 614.639 111.154 616.057 111.2L617.66 111.245L616.195 112.573L614.684 113.9L616.057 113.671L617.431 113.397L615.783 116.692C614.455 119.393 614.043 119.942 613.311 119.759C612.808 119.622 612.487 119.714 612.67 119.942C612.808 120.171 613.632 120.354 614.501 120.354C615.874 120.354 616.057 120.492 616.057 121.499C616.057 123.055 614.959 125.115 613.677 126.076L612.624 126.854L613.906 126.625C615.05 126.442 615.142 126.534 615.142 127.998C615.142 128.822 615.462 130.287 615.829 131.203C616.653 133.171 616.515 133.491 615.05 132.576C613.494 131.569 609.283 130.424 607.132 130.424C604.568 130.424 584.565 133.812 578.34 135.276C573.122 136.558 572.756 136.741 570.055 140.22C569.369 141.09 568.087 141.685 564.791 142.554C562.411 143.195 559.619 144.156 558.612 144.614C555.591 146.125 544.377 155.234 538.426 161.093C535.359 164.114 532.613 166.585 532.384 166.585C532.109 166.585 530.69 167.592 529.226 168.874C527.761 170.11 525.426 171.575 524.053 172.124C519.659 173.863 511.054 178.441 509.543 179.86C506.293 182.881 503.638 187.412 504.462 188.419C504.828 188.923 504.737 189.335 504.05 190.296C502.723 192.173 502.494 193.042 503.272 193.775C504.188 194.69 505.103 194.278 507.804 191.761C515.631 184.483 518.148 183.567 511.374 190.525C508.17 193.775 505.744 196.613 505.744 197.116C505.744 198.123 506.568 199.084 507.392 199.084C507.712 199.084 510.596 196.704 513.846 193.82C519.155 189.06 521.307 187.687 521.307 189.06C521.307 189.701 520.071 191.44 516.363 196.201C513.8 199.451 513.022 200.137 510.184 201.51C506.202 203.433 498.557 206.271 486.29 210.436L477.136 213.503L476.998 215.059C476.861 216.478 477.364 219.316 478.097 221.239C478.326 221.834 476.861 222.703 470.91 225.633C462.442 229.798 459.787 230.76 458.231 230.165C456.766 229.615 449.122 230.531 444.225 231.858C438.823 233.323 432.598 236.435 422.299 242.798C417.63 245.682 412.778 248.52 411.588 249.115C409.208 250.305 402.708 252.731 399.87 253.509C398.909 253.738 397.124 254.607 395.888 255.386C394.652 256.21 390.578 258.132 386.871 259.78C377.167 263.991 373.551 266.783 370.438 272.459C367.234 278.364 367.188 285.413 370.301 287.61C371.536 288.434 375.885 288.617 377.853 287.885C380.645 286.832 388.564 281.11 391.768 277.815C394.469 275.114 396.025 273.924 399.138 272.413C401.289 271.36 404.264 269.438 405.775 268.156C410.718 263.808 417.035 261.519 431.591 258.773C444.957 256.255 449.351 255.111 453.425 253.097C455.485 252.09 458.185 251.037 459.513 250.808C460.794 250.579 462.213 250.167 462.717 249.893C463.175 249.664 464.777 249.435 466.241 249.435C469.995 249.435 476.403 248.016 481.438 246.048C486.382 244.125 487.16 244.034 488.075 245.407L488.762 246.368L491.875 244.949C494.85 243.622 499.931 241.974 515.814 237.397C527.486 234.009 529.546 233.46 529.546 233.872C529.546 234.696 506.934 254.195 502.86 256.896C500.8 258.224 500.663 258.452 500.938 259.734C501.807 264.083 502.402 263.213 493.797 270.949C484.322 279.554 482.766 280.698 481.209 280.103C480.294 279.737 479.333 280.057 475.625 281.98C469.812 285.047 463.037 289.532 460.199 292.279C458.918 293.515 456.675 296.17 455.21 298.184C451.548 303.173 450.907 303.86 441.753 313.243L433.742 321.482L429.806 321.62C427.655 321.711 424.679 322.077 423.215 322.443C421.75 322.81 420.239 323.13 419.827 323.13C419.095 323.13 416.394 325.19 416.532 325.648C416.669 326.243 415.067 329.538 414.655 329.538C414.426 329.538 414.197 329.859 414.197 330.271C414.197 333.2 408.567 340.615 403.578 344.232C399.962 346.841 396.346 350.96 396.346 352.425C396.346 352.929 396.071 354.073 395.705 354.943C394.881 356.819 395.384 361.442 396.574 363.273C397.353 364.418 397.444 364.463 401.243 364.189C406.095 363.823 407.423 363.09 413.648 357.277C416.211 354.897 418.82 352.654 419.415 352.333C423.81 349.953 425.137 349.312 425.366 349.541C425.503 349.724 426.144 349.267 426.739 348.626C427.38 347.939 428.158 347.39 428.524 347.39C428.89 347.39 429.806 346.703 430.584 345.879C431.362 345.101 432.507 344.048 433.147 343.637C433.742 343.179 434.337 342.446 434.429 341.989C434.612 340.799 444.087 332.056 448.665 328.806C450.724 327.295 457.041 323.313 462.625 319.926C473.611 313.243 475.35 312.053 482.537 306.102C485.1 303.997 488.396 301.479 489.815 300.564C491.234 299.648 492.744 298.321 493.11 297.589C493.614 296.582 494.209 296.17 495.582 295.987C496.543 295.803 498.557 295.071 500.068 294.293C501.533 293.515 503.821 292.462 505.057 291.958C506.339 291.455 508.399 290.311 509.635 289.441C511.374 288.297 512.839 287.747 515.585 287.29L519.201 286.649L521.353 288.617C524.282 291.409 525.06 291.272 528.63 287.61C530.278 285.962 535.954 280.973 541.218 276.579C552.066 267.516 557.239 262.618 562.64 256.301C567.812 250.167 571.062 246.872 573.717 244.995C576.738 242.798 584.016 235.657 584.016 234.879C584.016 234.421 584.291 234.33 584.84 234.559C586.122 235.108 589.372 235.383 590.608 235.062C591.386 234.879 592.484 233.735 593.812 231.675C595.048 229.844 597.153 227.555 599.076 225.999C600.815 224.58 603.744 221.559 605.575 219.362C607.406 217.165 611.892 212.771 615.508 209.612C628.279 198.489 632.124 193.637 638.486 180.729C640.684 176.289 643.155 171.987 644.803 169.881C646.268 167.959 648.328 164.892 649.38 163.107C651.898 158.758 655.514 155.554 661.877 151.984C667.324 148.871 669.612 146.949 669.612 145.484C669.612 144.98 670.345 144.111 671.352 143.47C672.267 142.829 675.197 140.907 677.851 139.167C680.964 137.107 684.168 134.453 686.869 131.706C691.95 126.534 692.224 126.213 697.534 118.752C705.91 107.034 708.199 104.746 712.868 103.144C714.15 102.732 717.033 101.084 719.322 99.4817C721.611 97.9254 725.547 95.6825 728.019 94.584C731.544 93.0277 732.596 92.3868 732.688 91.6087C732.871 90.2813 731.818 90.2813 726.875 91.746C720.466 93.6227 721.061 92.5242 729.758 86.3448C733.146 83.9645 733.695 83.0948 732.688 82.0421C731.818 81.2181 731.132 81.5386 724.678 85.6582C720.787 88.1757 719.368 88.725 720.146 87.4433C720.329 87.1687 722.755 85.1089 725.593 82.8202C731.04 78.426 732.139 77.0985 731.315 76.0916C731.04 75.7711 730.582 75.4965 730.216 75.4965C729.438 75.4965 724.266 79.021 720.283 82.2709C718.59 83.6441 717.079 84.6512 716.896 84.5138C716.438 84.0103 718.91 80.6689 722.297 77.2816C724.632 74.9472 725.456 73.8029 725.364 73.0705C725.181 71.6057 724.082 71.6515 721.748 73.162ZM577.745 159.948C579.164 160.131 580.354 160.406 580.354 160.589C580.354 161.047 578.111 164.297 576.143 166.677C574.862 168.233 573.397 169.286 570.971 170.476C568.545 171.62 566.668 172.994 564.471 175.237L561.358 178.349L558.154 178.624C553.897 179.036 552.89 180.043 552.89 184.117V186.954L548.633 188.923C543.232 191.395 534.032 194.599 533.574 194.141C533.391 193.958 533.62 192.585 534.169 191.074C534.673 189.609 535.313 186.543 535.542 184.254C535.908 181.05 536.229 179.86 537.007 178.99C537.556 178.395 541.951 175.328 546.711 172.17C555.591 166.311 559.527 163.473 562.64 160.772L564.379 159.216L569.735 159.445C572.664 159.582 576.28 159.811 577.745 159.948ZM512.152 182.606C512.152 182.835 511.923 183.064 511.649 183.064C511.42 183.064 511.328 182.835 511.465 182.606C511.603 182.331 511.832 182.148 511.969 182.148C512.061 182.148 512.152 182.331 512.152 182.606ZM527.99 191.074C528.173 191.44 528.081 192.722 527.898 193.958L527.486 196.109L524.328 197.116C522.588 197.711 521.078 198.077 520.986 197.986C520.712 197.711 526.891 190.387 527.349 190.387C527.578 190.387 527.852 190.708 527.99 191.074Z" stroke="#1AB2AD" stroke-width="3" mask="url(#path-6-inside-2_2715_41497)"/>
<mask id="path-7-inside-3_2715_41497" fill="white">
<path fill-rule="evenodd" clip-rule="evenodd" d="M756.169 106.508C770.139 80.9527 783.729 56.0944 770.807 33.1811C758.756 11.8117 731.303 14.8517 703.317 17.9507C688.123 19.6331 672.773 21.3329 659.644 19.154C648.828 17.3591 638.288 13.6709 627.813 10.0057C610.411 3.91658 593.191 -2.10871 575.198 0.717725C560.962 2.95402 549.695 12.6387 538.421 22.3302C527.264 31.9208 516.1 41.5181 502.041 43.9111C483.185 47.1209 461.595 40.3712 440.649 33.8226C410.755 24.477 382.172 15.5409 364.715 36.5469C364.152 37.224 363.628 37.9064 363.142 38.594C356.525 47.9559 340.889 60.9215 329.865 57.773C322.201 55.5842 314.334 54.427 306.206 54.7773C290.769 55.4424 278.206 66.0216 265.683 76.5671C252.776 87.4354 239.912 98.2679 223.989 98.1751C203.945 98.0583 186.091 86.7297 168.363 75.482C149.019 63.2082 129.826 51.0306 108.106 53.6228C68.7625 58.3182 18.6716 83.9827 13.5977 123.284C10.5358 147.001 29.2649 165.621 48.1147 184.362C66.3928 202.533 84.7843 220.818 83.5316 243.971C82.3016 266.704 60.9989 283.262 40.2169 299.415C17.452 317.11 -4.68819 334.318 0.864539 358.627C6.60519 383.758 35.1828 386.689 65.0772 389.755C84.7688 391.775 105.032 393.854 119.715 402.374C133.284 410.248 143.37 422.517 153.419 434.742C164.549 448.282 175.634 461.767 191.357 469.164C222.909 484.009 260.039 493.781 293.572 484.172C311.753 478.961 324.17 464.289 336.712 449.469C347.195 437.082 357.766 424.591 371.863 417.435C387.523 409.486 407.327 408.445 426.697 407.428C454.698 405.956 481.792 404.533 494.153 382.355C497.269 376.762 498.739 371.073 498.974 365.298C499.3 357.283 505.119 349.439 512.621 352.279C513.798 352.725 514.965 353.228 516.122 353.793C535.277 363.145 543.983 386.225 552.486 408.767C562.074 434.186 571.404 458.921 595.167 462.514C620.322 466.317 635.417 442.407 650.969 417.772C660.202 403.147 669.596 388.267 681.352 378.776C691.228 370.804 704.067 365.846 716.73 360.956C736.576 353.291 755.989 345.794 762.881 327.124C770.534 306.391 761.277 285.438 751.855 264.111C746.113 251.114 740.31 237.978 738.235 224.668C734.586 201.257 732.004 177.87 735.978 154.511C738.711 138.441 747.513 122.34 756.169 106.508Z"/>
</mask>
<path d="M770.807 33.1811L769.065 34.1636V34.1636L770.807 33.1811ZM756.169 106.508L757.924 107.467L756.169 106.508ZM703.317 17.9507L703.537 19.9385L703.317 17.9507ZM659.644 19.154L659.316 21.1271L659.644 19.154ZM627.813 10.0057L627.152 11.8935L627.813 10.0057ZM575.198 0.717725L575.508 2.6935L575.198 0.717725ZM538.421 22.3302L537.117 20.8136V20.8136L538.421 22.3302ZM502.041 43.9111L501.706 41.9395L502.041 43.9111ZM440.649 33.8226L441.245 31.9137L440.649 33.8226ZM364.715 36.5469L366.253 37.8252L364.715 36.5469ZM306.206 54.7773L306.292 56.7754L306.206 54.7773ZM265.683 76.5671L266.971 78.0969L265.683 76.5671ZM223.989 98.1751L223.977 100.175L223.989 98.1751ZM168.363 75.482L167.292 77.1707L168.363 75.482ZM108.106 53.6228L108.343 55.6087L108.106 53.6228ZM13.5977 123.284L15.5812 123.54L13.5977 123.284ZM48.1147 184.362L46.7046 185.78L48.1147 184.362ZM83.5316 243.971L85.5286 244.079L83.5316 243.971ZM40.2169 299.415L41.4443 300.994H41.4443L40.2169 299.415ZM0.864539 358.627L2.81432 358.181L0.864539 358.627ZM65.0772 389.755L65.2813 387.766L65.0772 389.755ZM119.715 402.374L120.719 400.644L119.715 402.374ZM153.419 434.742L151.874 436.012L153.419 434.742ZM191.357 469.164L190.505 470.974V470.974L191.357 469.164ZM293.572 484.172L293.021 482.249L293.572 484.172ZM336.712 449.469L338.239 450.761V450.761L336.712 449.469ZM371.863 417.435L370.958 415.652L371.863 417.435ZM426.697 407.428L426.801 409.425L426.697 407.428ZM494.153 382.355L492.406 381.381L494.153 382.355ZM516.122 353.793L515.244 355.59L516.122 353.793ZM552.486 408.767L554.358 408.062L552.486 408.767ZM595.167 462.514L595.466 460.536L595.167 462.514ZM650.969 417.772L652.661 418.839L650.969 417.772ZM681.352 378.776L680.096 377.22L681.352 378.776ZM716.73 360.956L717.45 362.821L716.73 360.956ZM762.881 327.124L764.757 327.816V327.816L762.881 327.124ZM751.855 264.111L753.684 263.303L751.855 264.111ZM738.235 224.668L740.211 224.36L738.235 224.668ZM735.978 154.511L734.006 154.176L735.978 154.511ZM498.974 365.298L500.973 365.379L498.974 365.298ZM512.621 352.279L513.329 350.409L512.621 352.279ZM363.142 38.594L364.775 39.7484L363.142 38.594ZM329.865 57.773L329.316 59.6961L329.865 57.773ZM769.065 34.1636C775.181 45.0083 775.084 56.3574 771.651 68.3011C768.195 80.3201 761.427 92.7198 754.414 105.548L757.924 107.467C764.881 94.7405 771.893 81.9336 775.495 69.4064C779.118 56.8038 779.355 44.2672 772.549 32.1987L769.065 34.1636ZM703.537 19.9385C717.599 18.3814 731.2 16.8868 742.783 18.374C754.267 19.8485 763.453 24.2112 769.065 34.1636L772.549 32.1987C766.111 20.7816 755.544 15.9796 743.292 14.4065C731.139 12.8461 717.021 14.4209 703.097 15.9628L703.537 19.9385ZM659.316 21.1271C672.773 23.3603 688.421 21.6124 703.537 19.9385L703.097 15.9628C687.826 17.6539 672.773 19.3056 659.971 17.181L659.316 21.1271ZM627.152 11.8935C637.597 15.5482 648.302 19.2991 659.316 21.1271L659.971 17.181C649.355 15.4192 638.978 11.7935 628.473 8.11791L627.152 11.8935ZM575.508 2.6935C592.92 -0.0416916 609.656 5.77127 627.152 11.8935L628.473 8.11791C611.166 2.0619 593.461 -4.17573 574.887 -1.25805L575.508 2.6935ZM539.725 23.8469C551.097 14.0714 561.933 4.8259 575.508 2.6935L574.887 -1.25805C559.99 1.08214 548.294 11.2059 537.117 20.8136L539.725 23.8469ZM502.377 45.8828C517.079 43.3801 528.663 33.3559 539.725 23.8469L537.117 20.8136C525.866 30.4856 515.12 39.656 501.706 41.9395L502.377 45.8828ZM440.052 35.7315C460.857 42.2357 482.95 49.1896 502.377 45.8828L501.706 41.9395C483.42 45.0521 462.334 38.5066 441.245 31.9137L440.052 35.7315ZM366.253 37.8252C374.449 27.9627 385.244 25.0472 397.9 25.7994C410.67 26.5583 425.036 31.0371 440.052 35.7315L441.245 31.9137C426.368 27.2624 411.496 22.6004 398.137 21.8064C384.663 21.0056 372.438 24.1251 363.177 35.2686L366.253 37.8252ZM364.775 39.7484C365.231 39.1045 365.723 38.4634 366.253 37.8252L363.177 35.2686C362.582 35.9846 362.026 36.7083 361.509 37.4395L364.775 39.7484ZM306.292 56.7754C314.171 56.4359 321.822 57.5559 329.316 59.6961L330.415 55.8499C322.581 53.6125 314.497 52.4182 306.12 52.7791L306.292 56.7754ZM266.971 78.0969C279.632 67.4358 291.662 57.4058 306.292 56.7754L306.12 52.7791C289.877 53.479 276.781 64.6073 264.395 75.0372L266.971 78.0969ZM223.977 100.175C240.773 100.273 254.216 88.8379 266.971 78.0969L264.395 75.0372C251.337 86.0329 239.052 96.2629 224.001 96.1751L223.977 100.175ZM167.292 77.1707C184.902 88.3439 203.255 100.054 223.977 100.175L224.001 96.1751C204.636 96.0623 187.28 85.1156 169.435 73.7932L167.292 77.1707ZM108.343 55.6087C129.228 53.1162 147.795 64.8001 167.292 77.1707L169.435 73.7932C150.243 61.6162 130.424 48.945 107.869 51.6369L108.343 55.6087ZM15.5812 123.54C18.0142 104.695 31.2799 88.8949 49.1016 77.146C66.8993 65.413 88.958 57.9222 108.343 55.6087L107.869 51.6369C87.9104 54.0188 65.252 61.708 46.8999 73.8064C28.5718 85.8891 14.2551 102.572 11.6142 123.028L15.5812 123.54ZM49.5248 182.943C40.0649 173.538 30.8258 164.342 24.3023 154.578C17.8081 144.858 14.1331 134.758 15.5812 123.54L11.6142 123.028C10.0004 135.528 14.159 146.596 20.9763 156.8C27.7644 166.96 37.3147 176.445 46.7046 185.78L49.5248 182.943ZM85.5286 244.079C86.1873 231.905 81.6651 221.11 74.7927 211.161C67.9423 201.245 58.6331 191.998 49.5248 182.943L46.7046 185.78C55.8744 194.896 64.9 203.878 71.5016 213.435C78.0814 222.96 82.1285 232.884 81.5345 243.863L85.5286 244.079ZM41.4443 300.994C51.8015 292.944 62.4753 284.655 70.6947 275.497C78.9313 266.319 84.8794 256.079 85.5286 244.079L81.5345 243.863C80.9537 254.597 75.6356 264.002 67.7178 272.825C59.7829 281.667 49.4144 289.733 38.9895 297.836L41.4443 300.994ZM2.81432 358.181C0.219795 346.823 4.02692 337.057 11.4798 327.795C18.9904 318.461 30.0092 309.883 41.4443 300.994L38.9895 297.836C27.6597 306.643 16.226 315.516 8.36343 325.287C0.44316 335.13 -4.04345 346.122 -1.08524 359.072L2.81432 358.181ZM65.2813 387.766C50.2576 386.225 35.9168 384.741 24.6024 380.588C13.4077 376.479 5.48618 369.878 2.81432 358.181L-1.08524 359.072C1.98355 372.506 11.2212 379.937 23.2241 384.343C35.1072 388.705 50.0024 390.22 64.8731 391.745L65.2813 387.766ZM120.719 400.644C105.587 391.863 84.8382 389.772 65.2813 387.766L64.8731 391.745C84.6994 393.779 104.477 395.844 118.712 404.104L120.719 400.644ZM154.964 433.472C144.959 421.3 134.653 408.73 120.719 400.644L118.712 404.104C131.915 411.766 141.782 423.734 151.874 436.012L154.964 433.472ZM192.208 467.354C176.962 460.181 166.15 447.079 154.964 433.472L151.874 436.012C162.949 449.484 174.306 463.352 190.505 470.974L192.208 467.354ZM293.021 482.249C260.182 491.66 223.6 482.124 192.208 467.354L190.505 470.974C222.218 485.894 259.896 495.903 294.123 486.094L293.021 482.249ZM335.186 448.177C322.556 463.1 310.517 477.235 293.021 482.249L294.123 486.094C312.989 480.688 325.784 465.478 338.239 450.761L335.186 448.177ZM370.958 415.652C356.437 423.023 345.614 435.854 335.186 448.177L338.239 450.761C348.777 438.309 359.095 426.159 372.769 419.218L370.958 415.652ZM426.592 405.43C407.337 406.442 387.069 407.474 370.958 415.652L372.769 419.218C387.977 411.498 407.317 410.449 426.801 409.425L426.592 405.43ZM492.406 381.381C486.564 391.862 477.237 397.511 465.75 400.73C454.186 403.971 440.65 404.692 426.592 405.43L426.801 409.425C440.744 408.692 454.756 407.965 466.829 404.582C478.98 401.177 489.381 395.025 495.9 383.328L492.406 381.381ZM496.976 365.216C496.753 370.692 495.364 376.074 492.406 381.381L495.9 383.328C499.175 377.451 500.725 371.454 500.973 365.379L496.976 365.216ZM516.999 351.995C515.787 351.404 514.563 350.876 513.329 350.409L511.913 354.15C513.033 354.574 514.143 355.052 515.244 355.59L516.999 351.995ZM554.358 408.062C550.119 396.825 545.761 385.258 540.031 375.334C534.289 365.391 527.07 356.912 516.999 351.995L515.244 355.59C524.329 360.025 531.04 367.763 536.567 377.334C542.104 386.923 546.351 398.168 550.615 409.473L554.358 408.062ZM595.466 460.536C584.324 458.851 576.485 452.237 570.178 442.72C563.826 433.136 559.173 420.828 554.358 408.062L550.615 409.473C555.388 422.126 560.194 434.895 566.844 444.93C573.54 455.034 582.247 462.583 594.868 464.491L595.466 460.536ZM649.278 416.704C641.465 429.08 633.933 440.99 625.278 449.371C616.696 457.68 607.227 462.315 595.466 460.536L594.868 464.491C608.261 466.516 618.917 461.097 628.06 452.244C637.129 443.462 644.921 431.099 652.661 418.839L649.278 416.704ZM680.096 377.22C668.03 386.961 658.46 402.16 649.278 416.704L652.661 418.839C661.944 404.134 671.162 389.573 682.609 380.333L680.096 377.22ZM716.009 359.09C703.415 363.954 690.26 369.015 680.096 377.22L682.609 380.333C692.195 372.594 704.719 367.738 717.45 362.821L716.009 359.09ZM761.004 326.431C757.757 335.228 751.551 341.461 743.597 346.475C735.597 351.518 725.975 355.241 716.009 359.09L717.45 362.821C727.331 359.006 737.339 355.148 745.73 349.859C754.167 344.541 761.113 337.69 764.757 327.816L761.004 326.431ZM750.026 264.92C754.753 275.619 759.341 286.021 761.827 296.31C764.302 306.556 764.652 316.549 761.004 326.431L764.757 327.816C768.762 316.965 768.311 306.116 765.715 295.37C763.13 284.668 758.379 273.93 753.684 263.303L750.026 264.92ZM736.259 224.976C738.381 238.593 744.307 251.975 750.026 264.92L753.684 263.303C747.919 250.253 742.238 237.363 740.211 224.36L736.259 224.976ZM734.006 154.176C729.975 177.875 732.606 201.536 736.259 224.976L740.211 224.36C736.567 200.978 734.034 177.864 737.949 154.847L734.006 154.176ZM754.414 105.548C745.801 121.304 736.807 137.711 734.006 154.176L737.949 154.847C740.616 139.17 749.226 123.377 757.924 107.467L754.414 105.548ZM500.973 365.379C501.119 361.779 502.507 358.292 504.569 356.082C506.564 353.945 509.068 353.072 511.913 354.15L513.329 350.409C508.673 348.646 504.516 350.276 501.644 353.353C498.84 356.36 497.156 360.802 496.976 365.216L500.973 365.379ZM361.509 37.4395C358.345 41.9162 352.963 47.3227 347.058 51.2035C341.052 55.1505 335.043 57.1719 330.415 55.8499L329.316 59.6961C335.711 61.5226 343.032 58.6354 349.255 54.5463C355.578 50.3909 361.322 44.6337 364.775 39.7484L361.509 37.4395Z" fill="#148783" mask="url(#path-7-inside-3_2715_41497)"/>
<path d="M128.776 108.76L96.24 186.572C95.3253 188.663 95.3253 190.296 96.24 191.472C97.1547 192.517 98.5267 193.04 100.356 193.04H177.972V210.876L161.312 213.816H78.796C75.1373 213.816 72.0013 212.836 69.388 210.876C66.7747 208.785 65.0107 206.172 64.096 203.036C63.312 199.769 63.6387 196.503 65.076 193.236L100.552 108.76H128.776ZM161.508 135.024V244H133.872V156.584L138.772 135.024H161.508ZM380.475 108.76L347.939 186.572C347.025 188.663 347.025 190.296 347.939 191.472C348.854 192.517 350.226 193.04 352.055 193.04H429.671V210.876L413.011 213.816H330.495C326.837 213.816 323.701 212.836 321.087 210.876C318.474 208.785 316.71 206.172 315.795 203.036C315.011 199.769 315.338 196.503 316.775 193.236L352.251 108.76H380.475ZM413.207 135.024V244H385.571V156.584L390.471 135.024H413.207Z" fill="#62B9B5"/>
<path fill-rule="evenodd" clip-rule="evenodd" d="M128.741 103.88L94.999 184.576L94.9941 184.587C94.1791 186.45 94.3682 187.426 94.7789 187.982C95.3373 188.599 96.245 189.02 97.7779 189.02H130.136V153.524L135.389 130.412H161.054V189.02H177.686V209.796L161.054 212.731V243.5H130.136V213.008H75.9979C72.0182 213.008 68.5244 211.936 65.5939 209.738L65.5751 209.724L65.5568 209.709C62.6822 207.409 60.7205 204.51 59.7079 201.038L59.6977 201.003L59.6893 200.968C58.8168 197.332 59.1888 193.702 60.7597 190.126L96.9789 103.88H128.741ZM62.1379 190.718C60.6859 194.018 60.3559 197.318 61.1479 200.618C62.0719 203.786 63.8539 206.426 66.4939 208.538C69.1339 210.518 72.3019 211.508 75.9979 211.508H131.636V242H159.554V211.473L176.186 208.538V190.52H159.554V131.912H136.586L131.636 153.692V190.52H97.7779C95.9299 190.52 94.5439 189.992 93.6199 188.936C92.6959 187.748 92.6959 186.098 93.6199 183.986L126.488 105.38H97.9759L62.1379 190.718ZM383.008 103.88L349.267 184.576L349.262 184.587C348.447 186.45 348.636 187.426 349.046 187.982C349.605 188.599 350.512 189.02 352.045 189.02H384.403V153.524L389.656 130.412H415.321V189.02H431.953V209.796L415.321 212.731V243.5H384.403V213.008H330.265C326.286 213.008 322.792 211.936 319.861 209.738L319.843 209.724L319.824 209.709C316.95 207.409 314.988 204.51 313.975 201.038L313.965 201.003L313.957 200.968C313.084 197.333 313.456 193.702 315.027 190.126C315.029 190.122 315.031 190.118 315.032 190.114L351.246 103.88H383.008ZM316.405 190.718C314.953 194.018 314.623 197.318 315.415 200.618C316.339 203.786 318.121 206.426 320.761 208.538C323.401 210.518 326.569 211.508 330.265 211.508H385.903V242H413.821V211.473L430.453 208.538V190.52H413.821V131.912H390.853L385.903 153.692V190.52H352.045C350.197 190.52 348.811 189.992 347.887 188.936C346.963 187.748 346.963 186.098 347.887 183.986L380.755 105.38H352.243L316.405 190.718Z" fill="#148783"/>
<path d="M239.738 117.419C237.559 117.729 233.948 118.659 231.644 119.404L227.535 120.768L226.29 127.282C225.543 130.88 224.796 134.229 224.609 134.788C224.298 135.594 224.796 135.966 226.788 136.587C228.22 137.021 231.769 138.262 234.633 139.44L239.925 141.549L244.844 139.688C247.521 138.634 253.124 136.835 257.234 135.656C261.405 134.478 264.829 133.423 264.892 133.361C264.954 133.237 265.452 131.872 266.075 130.259L267.133 127.406L262.277 122.381L257.42 117.295L250.572 117.047C246.836 116.922 241.918 117.047 239.738 117.419Z" fill="#62B9B5"/>
<path d="M268.004 126.041L271.615 125.297C273.546 124.863 275.164 124.366 275.164 124.118C275.164 123.56 265.389 119.466 262.712 118.907L260.533 118.473L268.004 126.041Z" fill="#62B9B5"/>
<path d="M221.931 123.374C212.654 128.026 203.253 137.331 198.646 146.388C197.151 149.241 197.525 150.854 199.829 152.095C200.949 152.715 202.444 151.723 211.285 144.961C216.888 140.681 221.807 136.773 222.18 136.339C222.803 135.594 225.605 122.381 225.231 122.009C225.107 121.885 223.612 122.505 221.931 123.374Z" fill="#62B9B5"/>
<path d="M273.608 126.662C271.18 127.22 268.876 127.84 268.502 128.088C268.191 128.336 267.506 129.763 267.07 131.314C266.323 133.981 266.386 134.167 267.942 136.09C272.363 141.487 277.406 148.435 280.021 152.777L282.947 157.616L287.928 159.166C295.835 161.586 295.15 161.896 297.329 155.507L299.321 149.924L297.765 146.822C294.278 139.998 285.437 130.011 279.896 126.786C278.091 125.731 277.717 125.731 273.608 126.662Z" fill="#62B9B5"/>
<path d="M253.995 138.386C240.36 142.604 241.17 142.17 240.734 145.706C240.485 147.318 240.298 153.584 240.173 159.539L240.049 170.394L244.096 172.441C247.707 174.24 259.038 178.086 264.704 179.327L266.946 179.885L271.615 172.938C281.701 157.988 281.515 158.422 280.332 156.189C277.094 149.924 266.012 135.346 264.58 135.408C264.082 135.408 259.287 136.773 253.995 138.386Z" fill="#62B9B5"/>
<path d="M222.118 138.448C221.185 139.316 216.079 143.224 210.849 147.132L201.199 154.266L200.825 158.608C200.576 160.965 200.452 165.246 200.576 168.099L200.763 173.248L210.102 176.97C225.107 182.925 222.741 182.987 231.209 176.225L238.431 170.394V160.779C238.431 155.507 238.618 149.303 238.804 147.008L239.24 142.852L236.189 141.487C234.508 140.805 231.022 139.44 228.469 138.572L223.799 136.897L222.118 138.448Z" fill="#62B9B5"/>
<path d="M194.537 155.941C192.046 163.881 191.362 172.627 192.607 180.878C193.167 184.662 193.852 187.949 194.101 188.198C194.412 188.508 194.973 187.143 195.409 185.22C195.844 183.235 196.903 179.885 197.712 177.776C198.584 175.419 199.02 173.124 198.833 172.131C198.646 171.201 198.771 166.61 199.082 162.02C199.642 154.018 199.58 153.584 198.397 152.219C197.712 151.474 196.903 150.854 196.654 150.854C196.342 150.854 195.409 153.149 194.537 155.941Z" fill="#62B9B5"/>
<path d="M299.82 152.715C299.633 153.211 298.824 155.507 297.952 157.864L296.396 162.02L297.578 167.479C298.263 170.456 299.135 176.908 299.509 181.87C299.882 186.833 300.442 191.113 300.692 191.361C300.941 191.671 301.812 189.314 302.559 186.089C304.427 178.272 304.489 167.603 302.684 160.159C301.065 153.397 300.318 151.474 299.82 152.715Z" fill="#62B9B5"/>
<path d="M280.581 162.516C279.336 164.501 275.911 169.526 272.985 173.744L267.568 181.374L269.249 190.245L270.993 199.053L278.526 200.418C282.635 201.162 286.62 201.969 287.305 202.093C288.363 202.341 289.609 201.162 293.469 196.634L298.263 190.865L298.014 183.731C297.827 179.823 297.204 173.558 296.644 169.898C295.399 162.392 296.022 163.074 288.862 160.903C286.62 160.221 284.379 159.477 283.818 159.228C283.134 158.98 282.262 159.849 280.581 162.516Z" fill="#62B9B5"/>
<path d="M237.745 172.938C237.31 173.496 234.134 176.101 230.772 178.645L224.608 183.359L224.982 187.763C225.667 195.269 227.348 207.552 227.846 208.916C228.406 210.343 232.765 212.266 242.104 215.306L247.645 217.043L256.859 208.978C261.965 204.574 266.759 200.666 267.568 200.294C269.249 199.487 269.249 200.108 267.568 189.934L266.261 181.56L258.727 179.451C254.556 178.272 248.454 176.163 245.03 174.674C241.668 173.186 238.804 171.945 238.742 171.945C238.679 171.945 238.181 172.379 237.745 172.938Z" fill="#62B9B5"/>
<path d="M197.961 182.304C196.841 186.337 195.658 189.934 195.346 190.369C193.977 192.106 201.137 204.822 206.865 210.839C209.915 214.065 210.102 214.189 212.53 213.755C215.394 213.321 223.986 210.653 225.169 209.909C225.792 209.537 225.667 207.614 224.733 201.1C224.048 196.51 223.488 190.803 223.488 188.508V184.29L220.562 183.049C215.394 180.816 200.887 175.047 200.452 175.047C200.203 175.047 199.082 178.334 197.961 182.304Z" fill="#62B9B5"/>
<path d="M296.768 194.835C295.585 196.076 293.655 198.371 292.348 199.984C290.231 202.651 290.044 203.147 290.231 206.373L290.418 209.909L293.157 206.311C295.274 203.395 300.691 193.78 300.691 192.85C300.691 191.919 298.512 193.036 296.768 194.835Z" fill="#62B9B5"/>
<path d="M258.852 209.475L249.139 217.787L255.49 228.456L257.731 228.084C265.7 226.658 275.226 222.501 281.701 217.663C287.492 213.321 288.177 212.39 288.612 208.11C289.111 203.706 289.92 204.264 279.958 202.341C268.938 200.294 270.059 199.922 258.852 209.475Z" fill="#62B9B5"/>
<path d="M222.554 212.576C220.499 213.383 217.324 214.375 215.58 214.809C213.775 215.244 212.281 215.74 212.281 215.988C212.281 216.174 214.584 217.849 217.386 219.71C223.488 223.742 231.27 226.782 238.741 228.084C244.469 229.077 253.373 229.325 253.373 228.519C253.373 228.27 252.19 225.975 250.696 223.432L248.081 218.841L243.349 217.477C240.734 216.732 236.127 215.12 233.076 213.817C230.025 212.576 227.285 211.46 226.912 211.336C226.601 211.274 224.608 211.832 222.554 212.576Z" fill="#62B9B5"/>
<g filter="url(#filter0_i_2715_41497)">
<path d="M293.875 170.306C299.993 168.496 307.577 175.056 309.317 181.17C311.398 188.482 299.194 196.313 303.13 202.824C308.223 211.25 324.744 206.465 329.736 214.95C333.373 221.133 328.671 232.33 321.87 234.679C312.246 238.002 302.193 224.712 292.493 227.809C286.327 229.778 292.939 245.029 286.531 245.962C280.098 246.898 281.93 230.408 275.429 230.293C265.387 230.116 259.327 248.438 249.786 245.313C242.472 242.918 254.526 230.134 252.428 222.759C250.632 216.449 241.108 214.699 239.284 208.397C237.475 202.149 236.761 191.963 242.787 189.453C251.548 185.804 260.766 195.232 270.26 195.496C273.385 195.583 275.867 192.708 278.001 190.433C283.921 184.118 285.557 172.766 293.875 170.306Z" fill="#F9FAFA"/>
</g>
</g>
<defs>
<filter id="filter0_i_2715_41497" x="238" y="170" width="93" height="78" filterUnits="userSpaceOnUse" color-interpolation-filters="sRGB">
<feFlood flood-opacity="0" result="BackgroundImageFix"/>
<feBlend mode="normal" in="SourceGraphic" in2="BackgroundImageFix" result="shape"/>
<feColorMatrix in="SourceAlpha" type="matrix" values="0 0 0 0 0 0 0 0 0 0 0 0 0 0 0 0 0 0 127 0" result="hardAlpha"/>
<feOffset dy="2"/>
<feGaussianBlur stdDeviation="6"/>
<feComposite in2="hardAlpha" operator="arithmetic" k2="-1" k3="1"/>
<feColorMatrix type="matrix" values="0 0 0 0 0.795 0 0 0 0 0.883333 0 0 0 0 0.879272 0 0 0 0.7 0"/>
<feBlend mode="normal" in2="shape" result="effect1_innerShadow_2715_41497"/>
</filter>
</defs>
</svg>
