<svg width="36" height="36" viewBox="0 0 36 36" fill="none" xmlns="http://www.w3.org/2000/svg">
<rect width="36" height="36" rx="6" fill="white" fill-opacity="0.7"/>
<g clip-path="url(#clip0_4290_53035)">
<path d="M23 9.875C23.3452 9.875 23.625 10.1548 23.625 10.5V12.375H25.5C25.8452 12.375 26.125 12.6548 26.125 13C26.125 13.3452 25.8452 13.625 25.5 13.625H23.625V15.5C23.625 15.8452 23.3452 16.125 23 16.125C22.6548 16.125 22.375 15.8452 22.375 15.5V13.625H20.5C20.1548 13.625 19.875 13.3452 19.875 13C19.875 12.6548 20.1548 12.375 20.5 12.375H22.375V10.5C22.375 10.1548 22.6548 9.875 23 9.875Z" fill="#262541"/>
<path fill-rule="evenodd" clip-rule="evenodd" d="M18 16.9583C16.9645 16.9583 16.125 17.7978 16.125 18.8333C16.125 19.8689 16.9645 20.7083 18 20.7083C19.0355 20.7083 19.875 19.8689 19.875 18.8333C19.875 17.7978 19.0355 16.9583 18 16.9583ZM14.875 18.8333C14.875 17.1074 16.2741 15.7083 18 15.7083C19.7259 15.7083 21.125 17.1074 21.125 18.8333C21.125 20.5592 19.7259 21.9583 18 21.9583C16.2741 21.9583 14.875 20.5592 14.875 18.8333Z" fill="#262541"/>
<path fill-rule="evenodd" clip-rule="evenodd" d="M14.4583 11.3334C14.4583 10.9882 14.7382 10.7084 15.0833 10.7084H18C18.3452 10.7084 18.625 10.9882 18.625 11.3334C18.625 11.6785 18.3452 11.9584 18 11.9584H15.7074C15.7057 12.2923 15.701 12.5763 15.6878 12.8133C15.6682 13.1673 15.6273 13.518 15.4861 13.8004C15.4075 13.9575 15.2963 14.0986 15.1433 14.2087C14.9946 14.3158 14.8359 14.3723 14.6916 14.4044C14.4469 14.4588 14.1507 14.4585 13.8802 14.4584C13.8645 14.4583 13.8489 14.4583 13.8333 14.4583H12.1667C11.8904 14.4583 11.6254 14.5681 11.4301 14.7634C11.2347 14.9588 11.125 15.2237 11.125 15.5V23C11.125 23.2763 11.2347 23.5412 11.4301 23.7366C11.6254 23.9319 11.8904 24.0417 12.1667 24.0417H23.8333C24.1096 24.0417 24.3746 23.9319 24.5699 23.7366C24.7653 23.5412 24.875 23.2763 24.875 23V17.1667C24.875 16.8215 25.1548 16.5417 25.5 16.5417C25.8452 16.5417 26.125 16.8215 26.125 17.1667V23C26.125 23.6078 25.8836 24.1907 25.4538 24.6205C25.024 25.0502 24.4411 25.2917 23.8333 25.2917H12.1667C11.5589 25.2917 10.976 25.0502 10.5462 24.6205C10.1164 24.1907 9.875 23.6078 9.875 23V15.5C9.875 14.8922 10.1164 14.3093 10.5462 13.8795C10.976 13.4498 11.5589 13.2083 12.1667 13.2083H13.8333C14.1358 13.2083 14.2898 13.2056 14.3855 13.1907C14.403 13.1249 14.4259 12.9935 14.4398 12.744C14.4581 12.414 14.4583 11.966 14.4583 11.3334Z" fill="#262541"/>
</g>
<defs>
<clipPath id="clip0_4290_53035">
<rect width="20" height="20" fill="white" transform="translate(8 8)"/>
</clipPath>
</defs>
</svg>
