<svg width="16" height="16" viewBox="0 0 16 16" fill="none" xmlns="http://www.w3.org/2000/svg">
<path fill-rule="evenodd" clip-rule="evenodd" d="M1.81264 1.8125V14.1875H14.1876V1.8125H1.81264ZM0.687644 1.7C0.687644 1.14081 1.14096 0.6875 1.70014 0.6875H14.3001C14.8594 0.6875 15.3126 1.14083 15.3126 1.7V14.3C15.3126 14.8592 14.8594 15.3125 14.3001 15.3125H1.70014C1.14097 15.3125 0.687644 14.8592 0.687644 14.3V1.7Z" fill="#575775"/>
<path fill-rule="evenodd" clip-rule="evenodd" d="M6.27856 8.23298C6.42397 8.17066 6.58889 8.17246 6.73291 8.23792L14.9829 11.9879C15.2657 12.1165 15.3908 12.4499 15.2622 12.7328C15.1337 13.0156 14.8002 13.1406 14.5174 13.0121L6.49346 9.36485L1.47172 11.517C1.18618 11.6394 0.8555 11.5071 0.733125 11.2216C0.61075 10.936 0.743023 10.6054 1.02856 10.483L6.27856 8.23298Z" fill="#575775"/>
<path fill-rule="evenodd" clip-rule="evenodd" d="M11.0001 4.0625C10.4824 4.0625 10.0626 4.48223 10.0626 5C10.0626 5.51777 10.4824 5.9375 11.0001 5.9375C11.5179 5.9375 11.9376 5.51777 11.9376 5C11.9376 4.48223 11.5179 4.0625 11.0001 4.0625ZM8.93764 5C8.93764 3.86092 9.86103 2.9375 11.0001 2.9375C12.1393 2.9375 13.0626 3.86092 13.0626 5C13.0626 6.13908 12.1393 7.0625 11.0001 7.0625C9.86103 7.0625 8.93764 6.13908 8.93764 5Z" fill="#575775"/>
</svg>
