<svg width="20" height="16" viewBox="0 0 20 16" fill="none" xmlns="http://www.w3.org/2000/svg">
<path fill-rule="evenodd" clip-rule="evenodd" d="M2.70898 4.66665C2.70898 2.48052 4.48119 0.708313 6.66732 0.708313C8.85341 0.708313 10.6257 2.48051 10.6257 4.66665C10.6257 5.95855 10.0067 7.10592 9.0492 7.8284C11.4372 8.77642 13.1256 11.1077 13.1256 13.8333V14.6666C13.1256 15.0118 12.8458 15.2916 12.5006 15.2916C12.1555 15.2916 11.8757 15.0118 11.8757 14.6666V13.8333C11.8757 10.9568 9.54381 8.62498 6.66732 8.62498C3.79084 8.62498 1.45898 10.9568 1.45898 13.8333V14.6666C1.45898 15.0118 1.17916 15.2916 0.833984 15.2916C0.488806 15.2916 0.208984 15.0118 0.208984 14.6666V13.8333C0.208984 11.1077 1.89743 8.77643 4.28542 7.8284C3.32791 7.10592 2.70898 5.95855 2.70898 4.66665ZM6.66732 1.95831C5.17155 1.95831 3.95898 3.17087 3.95898 4.66665C3.95898 6.16239 5.17155 7.37498 6.66732 7.37498C8.16306 7.37498 9.37565 6.16238 9.37565 4.66665C9.37565 3.17088 8.16306 1.95831 6.66732 1.95831ZM16.6673 3.20831C17.0125 3.20831 17.2923 3.48813 17.2923 3.83331V5.70831H19.1673C19.5125 5.70831 19.7923 5.98813 19.7923 6.33331C19.7923 6.67849 19.5125 6.95831 19.1673 6.95831H17.2923V8.83331C17.2923 9.17849 17.0125 9.45831 16.6673 9.45831C16.3221 9.45831 16.0423 9.17849 16.0423 8.83331V6.95831H14.1673C13.8221 6.95831 13.5423 6.67849 13.5423 6.33331C13.5423 5.98813 13.8221 5.70831 14.1673 5.70831H16.0423V3.83331C16.0423 3.48813 16.3221 3.20831 16.6673 3.20831Z" fill="white"/>
</svg>
