<svg width="16" height="16" viewBox="0 0 16 16" fill="none" xmlns="http://www.w3.org/2000/svg">
<path d="M8 3.3125C8.31066 3.3125 8.5625 3.06066 8.5625 2.75V2.21437C8.3774 2.19659 8.18976 2.1875 8 2.1875C7.81024 2.1875 7.6226 2.19659 7.4375 2.21437V2.75C7.4375 3.06066 7.68934 3.3125 8 3.3125Z" fill="#262541"/>
<path d="M13.25 7.4375C12.9393 7.4375 12.6875 7.68934 12.6875 8C12.6875 8.31066 12.9393 8.5625 13.25 8.5625H13.7856C13.8034 8.3774 13.8125 8.18976 13.8125 8C13.8125 7.81024 13.8034 7.6226 13.7856 7.4375H13.25Z" fill="#262541"/>
<path d="M3.3125 8C3.3125 7.68934 3.06066 7.4375 2.75 7.4375H2.21437C2.19659 7.6226 2.1875 7.81024 2.1875 8C2.1875 8.18976 2.19659 8.3774 2.21437 8.5625H2.75C3.06066 8.5625 3.3125 8.31066 3.3125 8Z" fill="#262541"/>
<path fill-rule="evenodd" clip-rule="evenodd" d="M8 0.6875C8.31066 0.6875 8.5625 0.93934 8.5625 1.25V2.21437C8.3774 2.19659 8.18976 2.1875 8 2.1875C7.81024 2.1875 7.6226 2.19659 7.4375 2.21437V1.25C7.4375 0.93934 7.68934 0.6875 8 0.6875ZM8 3.3125C7.68934 3.3125 7.4375 3.06066 7.4375 2.75V2.21437C4.67638 2.47951 2.47951 4.67638 2.21437 7.4375H1.25C0.93934 7.4375 0.6875 7.68934 0.6875 8C0.6875 8.31066 0.93934 8.5625 1.25 8.5625H2.21437C2.47951 11.3236 4.67638 13.5205 7.4375 13.7856V14.75C7.4375 15.0607 7.68934 15.3125 8 15.3125C8.31066 15.3125 8.5625 15.0607 8.5625 14.75V13.7856C11.3236 13.5205 13.5205 11.3236 13.7856 8.5625H14.75C15.0607 8.5625 15.3125 8.31066 15.3125 8C15.3125 7.68934 15.0607 7.4375 14.75 7.4375H13.7856C13.5205 4.67638 11.3236 2.47951 8.5625 2.21437V2.75C8.5625 3.06066 8.31066 3.3125 8 3.3125ZM12.6875 8C12.6875 5.41117 10.5888 3.3125 8 3.3125C5.41117 3.3125 3.3125 5.41117 3.3125 8C3.3125 7.68934 3.06066 7.4375 2.75 7.4375H2.21437C2.19659 7.6226 2.1875 7.81024 2.1875 8C2.1875 8.18976 2.19659 8.3774 2.21437 8.5625H2.75C3.06066 8.5625 3.3125 8.31066 3.3125 8C3.3125 10.5888 5.41117 12.6875 8 12.6875C7.68934 12.6875 7.4375 12.9393 7.4375 13.25V13.7856C7.6226 13.8034 7.81024 13.8125 8 13.8125C8.18976 13.8125 8.3774 13.8034 8.5625 13.7856V13.25C8.5625 12.9393 8.31066 12.6875 8 12.6875C10.5888 12.6875 12.6875 10.5888 12.6875 8ZM12.6875 8C12.6875 7.68934 12.9393 7.4375 13.25 7.4375H13.7856C13.8034 7.6226 13.8125 7.81024 13.8125 8C13.8125 8.18976 13.8034 8.3774 13.7856 8.5625H13.25C12.9393 8.5625 12.6875 8.31066 12.6875 8Z" fill="#262541"/>
<path d="M8.5625 13.25C8.5625 12.9393 8.31066 12.6875 8 12.6875C7.68934 12.6875 7.4375 12.9393 7.4375 13.25V13.7856C7.6226 13.8034 7.81024 13.8125 8 13.8125C8.18976 13.8125 8.3774 13.8034 8.5625 13.7856V13.25Z" fill="#262541"/>
</svg>
