<svg width="22" height="14" viewBox="0 0 22 14" fill="none" xmlns="http://www.w3.org/2000/svg">
<path fill-rule="evenodd" clip-rule="evenodd" d="M21.3327 7.00004C21.3327 7.55233 20.885 8.00004 20.3327 8.00004H1.66602C1.11373 8.00004 0.666016 7.55233 0.666016 7.00004C0.666016 6.44776 1.11373 6.00004 1.66602 6.00004H20.3327C20.885 6.00004 21.3327 6.44776 21.3327 7.00004Z" fill="#575775"/>
<path fill-rule="evenodd" clip-rule="evenodd" d="M7.70646 13.0405C7.31593 13.431 6.68277 13.431 6.29224 13.0405L0.958909 7.70715C0.568385 7.31662 0.568385 6.68346 0.958909 6.29293C1.34943 5.90241 1.9826 5.90241 2.37312 6.29293L7.70646 11.6263C8.09698 12.0168 8.09698 12.65 7.70646 13.0405Z" fill="#575775"/>
<path fill-rule="evenodd" clip-rule="evenodd" d="M7.70646 0.9596C8.09698 1.35013 8.09698 1.98329 7.70646 2.37381L2.37312 7.70715C1.9826 8.09767 1.34943 8.09767 0.958909 7.70715C0.568385 7.31662 0.568385 6.68346 0.958909 6.29293L6.29224 0.9596C6.68277 0.569077 7.31593 0.569077 7.70646 0.9596Z" fill="#575775"/>
</svg>
