<svg width="14" height="8" viewBox="0 0 14 8" fill="none" xmlns="http://www.w3.org/2000/svg">
<path fill-rule="evenodd" clip-rule="evenodd" d="M0.541504 3.99996C0.541504 3.65478 0.821326 3.37496 1.1665 3.37496H12.8332C13.1783 3.37496 13.4582 3.65478 13.4582 3.99996C13.4582 4.34514 13.1783 4.62496 12.8332 4.62496H1.1665C0.821326 4.62496 0.541504 4.34514 0.541504 3.99996Z" fill="#8A8AA8"/>
<path fill-rule="evenodd" clip-rule="evenodd" d="M13.2751 3.55802C13.5192 3.80209 13.5192 4.19782 13.2751 4.4419L9.94178 7.77523C9.6977 8.01931 9.30197 8.01931 9.0579 7.77523C8.81382 7.53116 8.81382 7.13543 9.0579 6.89135L12.3912 3.55802C12.6353 3.31394 13.031 3.31394 13.2751 3.55802Z" fill="#8A8AA8"/>
<path fill-rule="evenodd" clip-rule="evenodd" d="M9.0579 0.224684C9.30197 -0.0193934 9.6977 -0.0193934 9.94178 0.224684L13.2751 3.55802C13.5192 3.80209 13.5192 4.19782 13.2751 4.4419C13.031 4.68598 12.6353 4.68598 12.3912 4.4419L9.0579 1.10857C8.81382 0.86449 8.81382 0.468762 9.0579 0.224684Z" fill="#8A8AA8"/>
</svg>
