<svg width="14" height="8" viewBox="0 0 14 8" fill="none" xmlns="http://www.w3.org/2000/svg">
<path fill-rule="evenodd" clip-rule="evenodd" d="M0.542969 3.99984C0.542969 3.65466 0.822791 3.37484 1.16797 3.37484H12.8346C13.1798 3.37484 13.4596 3.65466 13.4596 3.99984C13.4596 4.34502 13.1798 4.62484 12.8346 4.62484H1.16797C0.822791 4.62484 0.542969 4.34502 0.542969 3.99984Z" fill="#575775"/>
<path fill-rule="evenodd" clip-rule="evenodd" d="M13.2766 3.5579C13.5207 3.80197 13.5207 4.1977 13.2766 4.44178L9.94324 7.77511C9.69917 8.01919 9.30344 8.01919 9.05936 7.77511C8.81528 7.53103 8.81528 7.13531 9.05936 6.89123L12.3927 3.5579C12.6368 3.31382 13.0325 3.31382 13.2766 3.5579Z" fill="#575775"/>
<path fill-rule="evenodd" clip-rule="evenodd" d="M9.05936 0.224562C9.30344 -0.0195155 9.69917 -0.0195155 9.94324 0.224562L13.2766 3.5579C13.5207 3.80197 13.5207 4.1977 13.2766 4.44178C13.0325 4.68586 12.6368 4.68586 12.3927 4.44178L9.05936 1.10845C8.81528 0.864368 8.81528 0.46864 9.05936 0.224562Z" fill="#575775"/>
</svg>
