<svg width="24" height="24" viewBox="0 0 24 24" fill="none" xmlns="http://www.w3.org/2000/svg">
<path fill-rule="evenodd" clip-rule="evenodd" d="M10.7803 4.21967C11.0732 4.51256 11.0732 4.98744 10.7803 5.28033L7.81066 8.25L10.7803 11.2197C11.0732 11.5126 11.0732 11.9874 10.7803 12.2803C10.4874 12.5732 10.0126 12.5732 9.71967 12.2803L6.21967 8.78033C5.92678 8.48744 5.92678 8.01256 6.21967 7.71967L9.71967 4.21967C10.0126 3.92678 10.4874 3.92678 10.7803 4.21967Z" fill="#575775"/>
<path fill-rule="evenodd" clip-rule="evenodd" d="M6 8.25C6 7.83579 6.33579 7.5 6.75 7.5H12.75C14.0098 7.5 15.218 8.00044 16.1088 8.89124C16.9996 9.78204 17.5 10.9902 17.5 12.25V19.25C17.5 19.6642 17.1642 20 16.75 20C16.3358 20 16 19.6642 16 19.25V12.25C16 11.388 15.6576 10.5614 15.0481 9.9519C14.4386 9.34241 13.612 9 12.75 9H6.75C6.33579 9 6 8.66421 6 8.25Z" fill="#575775"/>
</svg>
