<svg width="16" height="16" viewBox="0 0 16 16" fill="none" xmlns="http://www.w3.org/2000/svg">
<path fill-rule="evenodd" clip-rule="evenodd" d="M1.85758 7.45676L3.11567 6.18068L2.76542 4.73956C2.26536 5.5408 1.94413 6.46516 1.85758 7.45676ZM2.62196 3.26373C1.50909 4.52657 0.833984 6.18443 0.833984 7.99998C0.833984 11.958 4.04261 15.1666 8.00065 15.1666C11.9587 15.1666 15.1673 11.958 15.1673 7.99998C15.1673 6.18469 14.4924 4.52704 13.3798 3.26426C13.3768 3.26074 13.3737 3.25726 13.3706 3.25383C12.0575 1.7693 10.1384 0.833313 8.00065 0.833313C5.86265 0.833313 3.94331 1.76952 2.63024 3.25435C2.62744 3.25744 2.62468 3.26057 2.62196 3.26373ZM3.54963 3.73192L4.09657 5.98234L5.40947 6.59788L7.50065 5.07855V3.59033L5.67782 2.28576C4.86844 2.6151 4.14479 3.11141 3.54963 3.73192ZM6.90058 1.93115L8.00065 2.71846L9.10073 1.93115C8.74377 1.86687 8.37613 1.83331 8.00065 1.83331C7.62518 1.83331 7.25754 1.86687 6.90058 1.93115ZM10.3235 2.28577L8.50065 3.59033V5.07855L10.5919 6.59788L11.9047 5.98234L12.4517 3.73193C11.8565 3.11142 11.1329 2.61511 10.3235 2.28577ZM13.2359 4.73956L12.8856 6.18068L14.1437 7.45677C14.0572 6.46517 13.7359 5.54081 13.2359 4.73956ZM14.1097 8.84661L12.2261 6.93611L10.9454 7.5366L10.1225 10.0693L10.9014 11.1387L13.4633 10.8639C13.788 10.2459 14.0109 9.56604 14.1097 8.84661ZM12.7385 11.9474L10.9751 12.1365L10.0091 13.8322C11.0843 13.462 12.0251 12.8028 12.7385 11.9474ZM8.68929 14.1286L10.073 11.6999L9.31372 10.6574H6.68764L5.92835 11.6999L7.31201 14.1286C7.5381 14.1537 7.76787 14.1666 8.00065 14.1666C8.23343 14.1666 8.46321 14.1537 8.68929 14.1286ZM5.99224 13.8322L5.02622 12.1365L3.26276 11.9474C3.97622 12.8028 4.91698 13.462 5.99224 13.8322ZM2.53796 10.8639L5.09996 11.1387L5.87888 10.0692L5.05598 7.5366L3.77517 6.9361L1.89162 8.8466C1.9904 9.56603 2.21328 10.2459 2.53796 10.8639ZM6.0523 7.3669L6.79652 9.65738H9.20485L9.94906 7.3669L8.00066 5.95134L6.0523 7.3669Z" fill="#262541"/>
</svg>
