<svg width="16" height="16" viewBox="0 0 16 16" fill="none" xmlns="http://www.w3.org/2000/svg">
<path fill-rule="evenodd" clip-rule="evenodd" d="M0.708984 3.83325C0.708984 4.17843 0.988806 4.45825 1.33398 4.45825H2.16732C2.5125 4.45825 2.79232 4.17843 2.79232 3.83325C2.79232 3.48807 2.5125 3.20825 2.16732 3.20825H1.33398C0.988806 3.20825 0.708984 3.48807 0.708984 3.83325ZM0.892043 11.7246C0.647965 11.9687 0.647965 12.3644 0.892043 12.6085L3.39204 15.1085C3.63612 15.3526 4.03185 15.3526 4.27593 15.1085C4.52 14.8644 4.52 14.4687 4.27593 14.2246L2.84287 12.7916H14.6673C15.0125 12.7916 15.2923 12.5118 15.2923 12.1666C15.2923 11.8214 15.0125 11.5416 14.6673 11.5416H2.84287L4.27593 10.1085C4.52 9.86445 4.52 9.46872 4.27593 9.22464C4.03185 8.98057 3.63612 8.98057 3.39204 9.22464L0.892043 11.7246ZM4.87565 3.83325C4.87565 4.17843 5.15547 4.45825 5.50065 4.45825H6.33398C6.67916 4.45825 6.95898 4.17843 6.95898 3.83325C6.95898 3.48807 6.67916 3.20825 6.33398 3.20825H5.50065C5.15547 3.20825 4.87565 3.48807 4.87565 3.83325ZM9.04232 3.83325C9.04232 4.17843 9.32214 4.45825 9.66732 4.45825L13.1584 4.45825L11.7254 5.89131C11.4813 6.13539 11.4813 6.53112 11.7254 6.77519C11.9695 7.01927 12.3652 7.01927 12.6093 6.77519L15.1093 4.27519C15.3533 4.03112 15.3533 3.63539 15.1093 3.39131L12.6093 0.89131C12.3652 0.647233 11.9695 0.647233 11.7254 0.89131C11.4813 1.13539 11.4813 1.53112 11.7254 1.77519L13.1584 3.20825L9.66732 3.20825C9.32214 3.20825 9.04232 3.48807 9.04232 3.83325Z" fill="#575775"/>
</svg>
