<svg width="18" height="18" viewBox="0 0 18 18" fill="none" xmlns="http://www.w3.org/2000/svg">
<path fill-rule="evenodd" clip-rule="evenodd" d="M0.9375 9C0.9375 4.5472 4.5472 0.9375 9 0.9375C13.4528 0.9375 17.0625 4.5472 17.0625 9C17.0625 13.4528 13.4528 17.0625 9 17.0625C4.5472 17.0625 0.9375 13.4528 0.9375 9ZM9 2.0625C5.16852 2.0625 2.0625 5.16852 2.0625 9C2.0625 12.8314 5.16852 15.9375 9 15.9375C12.8314 15.9375 15.9375 12.8314 15.9375 9C15.9375 5.16852 12.8314 2.0625 9 2.0625Z" fill="#575775"/>
<path fill-rule="evenodd" clip-rule="evenodd" d="M2.0625 9C2.0625 5.16852 5.16852 2.0625 9 2.0625C12.8314 2.0625 15.9375 5.16852 15.9375 9C15.9375 12.8314 12.8314 15.9375 9 15.9375C5.16852 15.9375 2.0625 12.8314 2.0625 9ZM13.1477 5.97725C13.3674 6.19692 13.3674 6.55308 13.1477 6.77275L7.89775 12.0227C7.67808 12.2424 7.32192 12.2424 7.10225 12.0227L4.85225 9.77275C4.63258 9.55308 4.63258 9.19692 4.85225 8.97725C5.07192 8.75758 5.42808 8.75758 5.64775 8.97725L7.5 10.8295L12.3523 5.97725C12.5719 5.75758 12.9281 5.75758 13.1477 5.97725Z" fill="#575775"/>
</svg>
