<svg width="44" height="44" viewBox="0 0 44 44" fill="none" xmlns="http://www.w3.org/2000/svg">
<g id="icon / circle-download">
<path id="Vector (Stroke)" fill-rule="evenodd" clip-rule="evenodd" d="M2.29102 21.9998C2.29102 11.1149 11.1145 2.2915 21.9993 2.2915C32.8842 2.2915 41.7077 11.1149 41.7077 21.9998C41.7077 32.8847 32.8842 41.7082 21.9993 41.7082C11.1145 41.7082 2.29102 32.8847 2.29102 21.9998ZM21.9993 5.0415C12.6332 5.0415 5.04102 12.6337 5.04102 21.9998C5.04102 31.3659 12.6332 38.9582 21.9993 38.9582C31.3655 38.9582 38.9577 31.3659 38.9577 21.9998C38.9577 12.6337 31.3655 5.0415 21.9993 5.0415ZM21.9993 9.62484C22.7587 9.62484 23.3743 10.2404 23.3743 10.9998V20.5136L27.4437 16.4442C27.9807 15.9073 28.8513 15.9073 29.3883 16.4442C29.9253 16.9812 29.9253 17.8518 29.3883 18.3888L22.9716 24.8054C22.4347 25.3424 21.564 25.3424 21.0271 24.8054L14.6104 18.3888C14.0734 17.8518 14.0734 16.9812 14.6104 16.4442C15.1474 15.9073 16.018 15.9073 16.555 16.4442L20.6243 20.5136V10.9998C20.6243 10.2404 21.24 9.62484 21.9993 9.62484ZM15.1243 31.1665C15.1243 30.4071 15.74 29.7915 16.4993 29.7915H27.4993C28.2587 29.7915 28.8743 30.4071 28.8743 31.1665C28.8743 31.9259 28.2587 32.5415 27.4993 32.5415H16.4993C15.74 32.5415 15.1243 31.9259 15.1243 31.1665Z" fill="#148783"/>
</g>
</svg>
