<svg width="10" height="10" viewBox="0 0 10 10" fill="none" xmlns="http://www.w3.org/2000/svg">
<path fill-rule="evenodd" clip-rule="evenodd" d="M0.189895 0.189192C0.433973 -0.0548856 0.829701 -0.0548852 1.07378 0.189193L5.00069 4.11612L8.92758 0.189194C9.17166 -0.0548846 9.56739 -0.0548862 9.81147 0.189191C10.0555 0.433267 10.0555 0.828995 9.81147 1.07307L5.88458 5L9.81147 8.92689C10.0555 9.17097 10.0555 9.5667 9.81147 9.81077C9.56739 10.0549 9.17166 10.0549 8.92759 9.81077L5.00069 5.88388L1.07378 9.81078C0.829698 10.0549 0.43397 10.0549 0.189893 9.81077C-0.0541841 9.5667 -0.0541829 9.17097 0.189896 8.92689L4.11681 5L0.189894 1.07308C-0.0541837 0.828997 -0.0541833 0.433269 0.189895 0.189192Z" fill="#DFDEED"/>
</svg>
