<svg width="18" height="18" viewBox="0 0 18 18" fill="none" xmlns="http://www.w3.org/2000/svg">
<path fill-rule="evenodd" clip-rule="evenodd" d="M10.6875 7.3125V14.4375H3.5625V7.3125H10.6875ZM11.5159 6.48405C11.3261 6.29417 11.0685 6.1875 10.8 6.1875H3.45C3.18147 6.1875 2.92394 6.29417 2.73405 6.48405C2.54417 6.67394 2.4375 6.93147 2.4375 7.2V14.55C2.4375 14.8185 2.54417 15.0761 2.73405 15.2659C2.92394 15.4558 3.18147 15.5625 3.45 15.5625H10.8C11.0685 15.5625 11.3261 15.4558 11.5159 15.2659C11.7058 15.0761 11.8125 14.8185 11.8125 14.55V7.2C11.8125 6.93147 11.7058 6.67394 11.5159 6.48405Z" fill="#575775"/>
<path fill-rule="evenodd" clip-rule="evenodd" d="M15.2659 2.73405C15.0761 2.54417 14.8185 2.4375 14.55 2.4375H7.2C6.93147 2.4375 6.67393 2.54417 6.48405 2.73405C6.29417 2.92394 6.1875 3.18147 6.1875 3.45V6.75C6.1875 7.06066 6.43934 7.3125 6.75 7.3125C7.06066 7.3125 7.3125 7.06066 7.3125 6.75V3.5625H14.4375V10.6875H11.25C10.9393 10.6875 10.6875 10.9393 10.6875 11.25C10.6875 11.5607 10.9393 11.8125 11.25 11.8125H14.55C14.8185 11.8125 15.0761 11.7058 15.2659 11.5159C15.4558 11.3261 15.5625 11.0685 15.5625 10.8V3.45C15.5625 3.18147 15.4558 2.92393 15.2659 2.73405Z" fill="#575775"/>
</svg>
