<svg width="16" height="12" viewBox="0 0 16 12" fill="none" xmlns="http://www.w3.org/2000/svg">
<path fill-rule="evenodd" clip-rule="evenodd" d="M0.833984 1.73331C0.833984 1.23626 1.23693 0.833313 1.73398 0.833313H14.2673C14.7644 0.833313 15.1673 1.23627 15.1673 1.73331V10.2666C15.1673 10.7637 14.7644 11.1666 14.2673 11.1666H1.73398C1.23694 11.1666 0.833984 10.7637 0.833984 10.2666V1.73331ZM1.83398 3.21062V8.78933C3.16032 8.55318 4.16732 7.39416 4.16732 5.99998C4.16732 4.60578 3.16032 3.44678 1.83398 3.21062ZM1.83398 9.801C3.71483 9.55599 5.16732 7.9476 5.16732 5.99998C5.16732 4.05235 3.71483 2.44396 1.83398 2.19896V1.83331H7.50065V3.54999C6.35951 3.78161 5.50065 4.79047 5.50065 5.99998C5.50065 7.20949 6.35951 8.21835 7.50065 8.44997V10.1666H1.83398V9.801ZM8.50065 10.1666H14.1673V9.801C12.2865 9.55599 10.834 7.9476 10.834 5.99998C10.834 4.05235 12.2865 2.44397 14.1673 2.19896V1.83331H8.50065V3.54999C9.64179 3.78161 10.5007 4.79047 10.5007 5.99998C10.5007 7.20949 9.64179 8.21835 8.50065 8.44997V10.1666ZM8.50065 7.41463C9.08326 7.20873 9.50065 6.65312 9.50065 5.99998C9.50065 5.34684 9.08326 4.79123 8.50065 4.58533V7.41463ZM7.50065 4.58533C6.91804 4.79123 6.50065 5.34684 6.50065 5.99998C6.50065 6.65312 6.91804 7.20873 7.50065 7.41463V4.58533ZM14.1673 3.21062C12.841 3.44678 11.834 4.60579 11.834 5.99998C11.834 7.39416 12.841 8.55317 14.1673 8.78933V3.21062Z" fill="#575775"/>
</svg>
