<svg width="10" height="10" viewBox="0 0 10 10" fill="none" xmlns="http://www.w3.org/2000/svg">
<path fill-rule="evenodd" clip-rule="evenodd" d="M0.190871 0.189192C0.434949 -0.0548856 0.830677 -0.0548852 1.07475 0.189193L5.00167 4.11612L8.92856 0.189194C9.17264 -0.0548846 9.56837 -0.0548862 9.81244 0.189191C10.0565 0.433267 10.0565 0.828995 9.81245 1.07307L5.88555 5L9.81245 8.92689C10.0565 9.17097 10.0565 9.5667 9.81245 9.81077C9.56837 10.0549 9.17264 10.0549 8.92856 9.81077L5.00167 5.88388L1.07475 9.81078C0.830675 10.0549 0.434946 10.0549 0.190869 9.81077C-0.0532075 9.5667 -0.0532063 9.17097 0.190872 8.92689L4.11779 5L0.19087 1.07308C-0.0532071 0.828997 -0.0532068 0.433269 0.190871 0.189192Z" fill="#262541"/>
</svg>
