<svg width="16" height="16" viewBox="0 0 16 16" fill="none" xmlns="http://www.w3.org/2000/svg">
<path fill-rule="evenodd" clip-rule="evenodd" d="M3.5 0.6875C3.81066 0.6875 4.0625 0.93934 4.0625 1.25V11.9375H14.75C15.0607 11.9375 15.3125 12.1893 15.3125 12.5C15.3125 12.8107 15.0607 13.0625 14.75 13.0625H3.5C3.18934 13.0625 2.9375 12.8107 2.9375 12.5V1.25C2.9375 0.93934 3.18934 0.6875 3.5 0.6875Z" fill="#575775"/>
<path fill-rule="evenodd" clip-rule="evenodd" d="M0.6875 3.5C0.6875 3.18934 0.93934 2.9375 1.25 2.9375H12.5C12.8107 2.9375 13.0625 3.18934 13.0625 3.5V14.75C13.0625 15.0607 12.8107 15.3125 12.5 15.3125C12.1893 15.3125 11.9375 15.0607 11.9375 14.75V4.0625H1.25C0.93934 4.0625 0.6875 3.81066 0.6875 3.5Z" fill="#575775"/>
</svg>
