<svg width="18" height="18" viewBox="0 0 18 18" fill="none" xmlns="http://www.w3.org/2000/svg">
<path fill-rule="evenodd" clip-rule="evenodd" d="M7.75944 1.22535C8.26708 0.202948 9.72997 0.202787 10.2376 1.22542L11.0635 2.8889C11.217 3.19807 11.0908 3.57313 10.7816 3.72663C10.4724 3.88013 10.0974 3.75393 9.94385 3.44476L9.11794 1.78123L9.11791 1.78118C9.1033 1.75175 9.08621 1.73644 9.06992 1.72684C9.05137 1.7159 9.02663 1.7085 8.99852 1.7085C8.97042 1.7085 8.94566 1.7159 8.92709 1.72685C8.91078 1.73646 8.89367 1.75178 8.87905 1.78121C8.87905 1.78122 8.87904 1.78123 8.87903 1.78124L8.46614 2.61297C8.31265 2.92215 7.93759 3.04836 7.62841 2.89488C7.31924 2.74139 7.19302 2.36633 7.34651 2.05715L7.75943 1.22539L7.75944 1.22535ZM7.10192 3.95529C7.4111 4.10878 7.53731 4.48384 7.38382 4.79301L6.71444 6.14134C6.6232 6.32512 6.44757 6.45241 6.24452 6.48192L4.92171 6.67417C4.58012 6.72381 4.26296 6.48714 4.21332 6.14555C4.16368 5.80396 4.40035 5.4868 4.74194 5.43716L5.74051 5.29204L6.2642 4.23718C6.41769 3.928 6.79275 3.8018 7.10192 3.95529ZM11.2298 4.62951C11.5389 4.47603 11.914 4.60225 12.0675 4.91142L12.2565 5.29211L13.1424 5.42086C13.484 5.4705 13.7206 5.78766 13.671 6.12925C13.6213 6.47084 13.3042 6.70751 12.9626 6.65786L11.7524 6.48199C11.5494 6.45248 11.3737 6.32518 11.2825 6.14139L10.9478 5.46723C10.7944 5.15806 10.9206 4.783 11.2298 4.62951ZM14.8544 6.30122C14.904 5.95964 15.2212 5.72297 15.5628 5.77261L16.773 5.94848C17.9024 6.11262 18.3631 7.50065 17.5369 8.30072C17.5369 8.30073 17.5368 8.30074 17.5368 8.30074L16.6613 9.14864C16.4133 9.38877 16.0176 9.38242 15.7775 9.13445C15.5374 8.88649 15.5437 8.49081 15.7917 8.25068L16.6673 7.40277L16.6673 7.40275C16.7404 7.33199 16.7059 7.20187 16.5932 7.18549L16.6831 6.56699L16.5932 7.18549L15.383 7.00961C15.0414 6.95997 14.8048 6.64281 14.8544 6.30122ZM2.14965 5.81391C2.49124 5.76427 2.8084 6.00094 2.85804 6.34253C2.90768 6.68412 2.67101 7.00127 2.32942 7.05092L1.40381 7.18543C1.29126 7.20179 1.25653 7.33184 1.32975 7.40278C1.32976 7.40278 1.32976 7.40279 1.32977 7.4028L2.51558 8.55119C2.76354 8.79133 2.76988 9.18701 2.52975 9.43496C2.28961 9.68292 1.89394 9.68927 1.64598 9.44913L0.460146 8.30071L0.460126 8.30069C-0.365933 7.50063 0.0944338 6.1126 1.22403 5.94843L1.22404 5.94843L2.14965 5.81391ZM14.9245 9.96062C15.1646 10.2086 15.1582 10.6043 14.9103 10.8444L14.272 11.4625L14.4225 12.3349C14.4812 12.6751 14.253 12.9984 13.9128 13.0571C13.5727 13.1158 13.2494 12.8876 13.1907 12.5474L12.984 11.3496C12.9489 11.146 13.0167 10.9381 13.1651 10.7944L14.0407 9.94643C14.2887 9.70631 14.6843 9.71266 14.9245 9.96062ZM3.369 10.2477C3.60912 9.99974 4.0048 9.99339 4.25277 10.2335L4.83183 10.7943C4.98027 10.938 5.04807 11.1458 5.01294 11.3495L4.82489 12.4397C4.76621 12.7799 4.4429 13.0081 4.10274 12.9494C3.76259 12.8907 3.5344 12.5674 3.59308 12.2273L3.725 11.4625L3.38319 11.1315C3.13523 10.8914 3.12887 10.4957 3.369 10.2477ZM8.70889 14.0113C8.89031 13.9164 9.10667 13.9164 9.28809 14.0113L10.3703 14.5771C10.6761 14.7371 10.7945 15.1147 10.6345 15.4206C10.4746 15.7265 10.0969 15.8448 9.79106 15.6849L8.99849 15.2704L7.978 15.804C7.67211 15.964 7.29449 15.8456 7.13455 15.5398C6.97461 15.2339 7.09292 14.8562 7.39881 14.6963L8.70889 14.0113ZM14.1136 14.2208C14.4538 14.1622 14.7771 14.3904 14.8357 14.7305L15.0423 15.9283C15.2379 17.0619 14.0448 17.9089 13.0376 17.3824L11.9555 16.8165C11.6496 16.6566 11.5313 16.279 11.6912 15.9731C11.8512 15.6672 12.2288 15.5489 12.5347 15.7088L13.6168 16.2746C13.6473 16.2905 13.6712 16.293 13.6907 16.2912C13.7127 16.2892 13.7369 16.2806 13.7591 16.2646C13.7813 16.2486 13.7962 16.2289 13.8042 16.2103C13.8112 16.1942 13.816 16.1728 13.8105 16.1408L13.8105 16.1408L13.6039 14.943C13.5453 14.6028 13.7734 14.2795 14.1136 14.2208ZM3.83094 14.525C4.17109 14.5837 4.39928 14.907 4.3406 15.2472L4.18644 16.1409L4.18643 16.1409C4.18093 16.1728 4.18571 16.1942 4.19271 16.2104C4.20076 16.2289 4.21568 16.2486 4.23788 16.2647C4.26008 16.2807 4.28433 16.2893 4.3063 16.2913C4.32574 16.2931 4.34969 16.2906 4.3801 16.2747L4.38012 16.2747L5.08617 15.9056C5.39206 15.7456 5.76969 15.8639 5.92963 16.1698C6.08956 16.4757 5.97124 16.8533 5.66536 17.0133L4.95931 17.3824C4.95931 17.3824 4.9593 17.3824 4.9593 17.3824C3.95214 17.9091 2.7591 17.0619 2.95463 15.9284C2.95463 15.9284 2.95463 15.9284 2.95463 15.9284L3.10879 15.0347C3.16747 14.6945 3.49078 14.4663 3.83094 14.525Z" fill="#F57125"/>
</svg>
