<svg width="13" height="14" viewBox="0 0 13 14" fill="none" xmlns="http://www.w3.org/2000/svg">
<path fill-rule="evenodd" clip-rule="evenodd" d="M0.666992 2.5C0.943134 2.5 1.16699 2.72386 1.16699 3V6.98743C1.16736 6.99079 1.16806 6.99629 1.1693 7.00374C1.17334 7.02798 1.18308 7.07258 1.20591 7.13128C1.25046 7.24584 1.34953 7.42649 1.57572 7.62037C2.03166 8.01118 3.06015 8.5 5.33366 8.5C7.60716 8.5 8.63566 8.01118 9.0916 7.62037C9.31779 7.42649 9.41685 7.24584 9.46141 7.13128C9.48423 7.07258 9.49397 7.02798 9.49801 7.00374C9.49926 6.99629 9.49995 6.99079 9.50033 6.98743V3C9.50033 2.72386 9.72418 2.5 10.0003 2.5C10.2765 2.5 10.5003 2.72386 10.5003 3V7H10.0003C10.5003 7 10.5003 7.00058 10.5003 7.00116L10.5003 7.00238L10.5003 7.00496L10.5002 7.01071L10.4998 7.02454C10.4994 7.03478 10.4988 7.04706 10.4977 7.06123C10.4955 7.08957 10.4915 7.12557 10.4844 7.16814C10.4702 7.25327 10.4435 7.36492 10.3934 7.49372C10.2921 7.75416 10.0995 8.07351 9.74239 8.37963C9.03166 8.98882 7.72682 9.5 5.33366 9.5C2.9405 9.5 1.63566 8.98882 0.92493 8.37963C0.567787 8.07351 0.375188 7.75416 0.273906 7.49372C0.223818 7.36492 0.1971 7.25327 0.18291 7.16814C0.175816 7.12557 0.171841 7.08957 0.169637 7.06123C0.168535 7.04706 0.167874 7.03478 0.167488 7.02454L0.167096 7.01071L0.167016 7.00496L0.166998 7.00238L0.166994 7.00116C0.166993 7.00058 0.166992 7 0.666992 7H0.166992V3C0.166992 2.72386 0.39085 2.5 0.666992 2.5Z" fill="#7F7DB5"/>
<path fill-rule="evenodd" clip-rule="evenodd" d="M1.1687 3C1.16888 3.00119 1.16909 3.00243 1.1693 3.00374C1.17334 3.02797 1.18308 3.07258 1.20591 3.13128C1.25046 3.24584 1.34953 3.42649 1.57572 3.62037C2.03166 4.01118 3.06015 4.5 5.33366 4.5C7.60716 4.5 8.63566 4.01118 9.0916 3.62037C9.31779 3.42649 9.41685 3.24584 9.46141 3.13128C9.48423 3.07258 9.49397 3.02797 9.49801 3.00374C9.49823 3.00243 9.49843 3.00119 9.49862 3C9.49843 2.99881 9.49823 2.99757 9.49801 2.99626C9.49397 2.97203 9.48423 2.92742 9.46141 2.86872C9.41685 2.75416 9.31779 2.57351 9.0916 2.37963C8.63566 1.98882 7.60716 1.5 5.33366 1.5C3.06015 1.5 2.03166 1.98882 1.57572 2.37963C1.34953 2.57351 1.25046 2.75416 1.20591 2.86872C1.18308 2.92742 1.17334 2.97203 1.1693 2.99626C1.16909 2.99757 1.16888 2.99881 1.1687 3ZM10.0003 3C10.5003 3 10.5003 2.99942 10.5003 2.99884L10.5003 2.99762L10.5003 2.99504L10.5002 2.98929L10.4998 2.97546C10.4994 2.96522 10.4988 2.95294 10.4977 2.93877C10.4955 2.91043 10.4915 2.87443 10.4844 2.83186C10.4702 2.74672 10.4435 2.63508 10.3934 2.50628C10.2921 2.24584 10.0995 1.92649 9.74239 1.62037C9.03166 1.01118 7.72682 0.5 5.33366 0.5C2.9405 0.5 1.63566 1.01118 0.92493 1.62037C0.567787 1.92649 0.375188 2.24584 0.273906 2.50628C0.223818 2.63508 0.197099 2.74672 0.18291 2.83186C0.175816 2.87443 0.171841 2.91043 0.169637 2.93877C0.168535 2.95294 0.167874 2.96522 0.167488 2.97546L0.167096 2.98929L0.167015 2.99504L0.166998 2.99762L0.166993 2.99884C0.166992 2.99942 0.166992 3 0.666992 3C0.166992 3 0.166992 3.00058 0.166993 3.00116L0.166998 3.00238L0.167015 3.00496L0.167096 3.01071L0.167488 3.02454C0.167874 3.03478 0.168535 3.04706 0.169637 3.06123C0.171841 3.08957 0.175816 3.12557 0.18291 3.16814C0.197099 3.25328 0.223818 3.36492 0.273906 3.49372C0.375188 3.75416 0.567787 4.07351 0.92493 4.37963C1.63566 4.98882 2.9405 5.5 5.33366 5.5C7.72682 5.5 9.03166 4.98882 9.74239 4.37963C10.0995 4.07351 10.2921 3.75416 10.3934 3.49372C10.4435 3.36492 10.4702 3.25328 10.4844 3.16814C10.4915 3.12557 10.4955 3.08957 10.4977 3.06123C10.4988 3.04706 10.4994 3.03478 10.4998 3.02454L10.5002 3.01071L10.5003 3.00496L10.5003 3.00238L10.5003 3.00116C10.5003 3.00058 10.5003 3 10.0003 3Z" fill="#7F7DB5"/>
<path fill-rule="evenodd" clip-rule="evenodd" d="M0.666992 6.5C0.943134 6.5 1.16699 6.72386 1.16699 7V10.9874C1.16736 10.9908 1.16806 10.9963 1.1693 11.0037C1.17334 11.028 1.18308 11.0726 1.20591 11.1313C1.25046 11.2458 1.34953 11.4265 1.57572 11.6204C2.03166 12.0112 3.06015 12.5 5.33366 12.5C5.6098 12.5 5.83366 12.7239 5.83366 13C5.83366 13.2761 5.6098 13.5 5.33366 13.5C2.9405 13.5 1.63566 12.9888 0.92493 12.3796C0.567787 12.0735 0.375188 11.7542 0.273906 11.4937C0.223818 11.3649 0.1971 11.2533 0.18291 11.1681C0.175816 11.1256 0.171841 11.0896 0.169637 11.0612C0.168535 11.0471 0.167874 11.0348 0.167488 11.0245L0.167096 11.0107L0.167016 11.005L0.166998 11.0024L0.166994 11.0012C0.166993 11.0006 0.166992 11 0.666992 11H0.166992V7C0.166992 6.72386 0.39085 6.5 0.666992 6.5Z" fill="#7F7DB5"/>
<path fill-rule="evenodd" clip-rule="evenodd" d="M8.00033 11.1667C8.27647 11.1667 8.50033 11.3905 8.50033 11.6667V13C8.50033 13.2761 8.27647 13.5 8.00033 13.5C7.72418 13.5 7.50033 13.2761 7.50033 13V11.6667C7.50033 11.3905 7.72418 11.1667 8.00033 11.1667Z" fill="#7F7DB5"/>
<path fill-rule="evenodd" clip-rule="evenodd" d="M10.0003 9.83333C10.2765 9.83333 10.5003 10.0572 10.5003 10.3333V13C10.5003 13.2761 10.2765 13.5 10.0003 13.5C9.72418 13.5 9.50033 13.2761 9.50033 13V10.3333C9.50033 10.0572 9.72418 9.83333 10.0003 9.83333Z" fill="#7F7DB5"/>
<path fill-rule="evenodd" clip-rule="evenodd" d="M12.0003 8.5C12.2765 8.5 12.5003 8.72386 12.5003 9V13C12.5003 13.2761 12.2765 13.5 12.0003 13.5C11.7242 13.5 11.5003 13.2761 11.5003 13V9C11.5003 8.72386 11.7242 8.5 12.0003 8.5Z" fill="#7F7DB5"/>
</svg>
