<svg width="2" height="12" viewBox="0 0 2 12" fill="none" xmlns="http://www.w3.org/2000/svg">
<path fill-rule="evenodd" clip-rule="evenodd" d="M0.337087 0.837087C0.512903 0.661272 0.75136 0.5625 1 0.5625C1.24864 0.5625 1.4871 0.661272 1.66291 0.837087C1.83873 1.0129 1.9375 1.25136 1.9375 1.5C1.9375 1.74864 1.83873 1.9871 1.66291 2.16291C1.4871 2.33873 1.24864 2.4375 1 2.4375C0.75136 2.4375 0.512903 2.33873 0.337087 2.16291C0.161271 1.9871 0.0625 1.74864 0.0625 1.5C0.0625 1.25136 0.161271 1.0129 0.337087 0.837087ZM1 1.6875C1.04973 1.6875 1.09742 1.66775 1.13258 1.63258C1.16775 1.59742 1.1875 1.54973 1.1875 1.5C1.1875 1.45027 1.16775 1.40258 1.13258 1.36742C1.09742 1.33225 1.04973 1.3125 1 1.3125C0.950272 1.3125 0.902581 1.33225 0.867418 1.36742C0.832254 1.40258 0.8125 1.45027 0.8125 1.5C0.8125 1.54973 0.832254 1.59742 0.867418 1.63258C0.902581 1.66775 0.950272 1.6875 1 1.6875ZM0.337087 5.33709C0.512904 5.16127 0.751361 5.0625 1 5.0625C1.24864 5.0625 1.4871 5.16127 1.66291 5.33709C1.83873 5.5129 1.9375 5.75136 1.9375 6C1.9375 6.24864 1.83873 6.4871 1.66291 6.66291C1.4871 6.83873 1.24864 6.9375 1 6.9375C0.751361 6.9375 0.512904 6.83873 0.337087 6.66291C0.161271 6.4871 0.0625 6.24864 0.0625 6C0.0625 5.75136 0.161271 5.5129 0.337087 5.33709ZM1 6.1875C1.04973 6.1875 1.09742 6.16775 1.13258 6.13258C1.16775 6.09742 1.1875 6.04973 1.1875 6C1.1875 5.95027 1.16775 5.90258 1.13258 5.86742C1.09742 5.83225 1.04973 5.8125 1 5.8125C0.950273 5.8125 0.902582 5.83225 0.867418 5.86742C0.832254 5.90258 0.8125 5.95027 0.8125 6C0.8125 6.04973 0.832254 6.09742 0.867418 6.13258C0.902582 6.16775 0.950273 6.1875 1 6.1875ZM0.337087 9.83709C0.512904 9.66127 0.751361 9.5625 1 9.5625C1.24864 9.5625 1.4871 9.66127 1.66291 9.83709C1.83873 10.0129 1.9375 10.2514 1.9375 10.5C1.9375 10.7486 1.83873 10.9871 1.66291 11.1629C1.4871 11.3387 1.24864 11.4375 1 11.4375C0.751361 11.4375 0.512904 11.3387 0.337087 11.1629C0.161271 10.9871 0.0625 10.7486 0.0625 10.5C0.0625 10.2514 0.161271 10.0129 0.337087 9.83709ZM1 10.6875C1.04973 10.6875 1.09742 10.6677 1.13258 10.6326C1.16775 10.5974 1.1875 10.5497 1.1875 10.5C1.1875 10.4503 1.16775 10.4026 1.13258 10.3674C1.09742 10.3323 1.04973 10.3125 1 10.3125C0.950273 10.3125 0.902582 10.3323 0.867418 10.3674C0.832254 10.4026 0.8125 10.4503 0.8125 10.5C0.8125 10.5497 0.832254 10.5974 0.867418 10.6326C0.902582 10.6677 0.950273 10.6875 1 10.6875Z" fill="#575775"/>
</svg>
