<svg width="21" height="18" viewBox="0 0 21 18" fill="none" xmlns="http://www.w3.org/2000/svg">
<path fill-rule="evenodd" clip-rule="evenodd" d="M5.58972 2.21994C6.35847 0.938688 7.84845 0.0415039 10.5007 0.0415039C13.1529 0.0415039 14.6428 0.938688 15.4116 2.21994C15.9863 3.17774 16.0986 4.26857 16.1204 5.08386C16.8415 5.17874 17.7085 5.4443 18.47 5.99263C19.499 6.7335 20.2923 7.96281 20.2923 9.83317C20.2923 11.0777 19.941 12.0512 19.382 12.788C18.8281 13.5183 18.0989 13.9789 17.3953 14.2545C17.0739 14.3804 16.7113 14.222 16.5854 13.9006C16.4595 13.5792 16.6179 13.2166 16.9393 13.0907C17.4805 12.8786 18.0013 12.5399 18.3862 12.0326C18.766 11.5318 19.0423 10.8294 19.0423 9.83317C19.0423 8.3702 18.4468 7.51617 17.7396 7.00705C17.0007 6.47498 16.0951 6.2915 15.5006 6.2915C15.1555 6.2915 14.8756 6.01168 14.8756 5.6665C14.8756 4.81014 14.8627 3.73472 14.3397 2.86306C13.8585 2.06099 12.8484 1.2915 10.5007 1.2915C8.15285 1.2915 7.14283 2.06099 6.66158 2.86306C6.13859 3.73472 6.12565 4.81014 6.12565 5.6665C6.12565 6.01168 5.84583 6.2915 5.50065 6.2915C4.90622 6.2915 4.00066 6.47497 3.26167 7.00705C2.55455 7.51617 1.95898 8.3702 1.95898 9.83317C1.95898 10.8294 2.23528 11.5318 2.61514 12.0326C3.00001 12.5399 3.52081 12.8786 4.06197 13.0907C4.38336 13.2166 4.54183 13.5792 4.41592 13.9006C4.29 14.222 3.92739 14.3804 3.606 14.2545C2.90239 13.9789 2.17319 13.5183 1.61925 12.788C1.0603 12.0512 0.708984 11.0777 0.708984 9.83317C0.708984 7.9628 1.5023 6.7335 2.53129 5.99263C3.29286 5.4443 4.15981 5.17873 4.88087 5.08386C4.90271 4.26857 5.01504 3.17774 5.58972 2.21994ZM10.5007 9.20817C10.8458 9.20817 11.1257 9.48799 11.1257 9.83317V15.8243L12.9754 13.9746C13.2195 13.7305 13.6152 13.7305 13.8593 13.9746C14.1033 14.2186 14.1033 14.6144 13.8593 14.8584L10.9426 17.7751C10.6985 18.0192 10.3028 18.0192 10.0587 17.7751L7.14204 14.8584C6.89796 14.6144 6.89796 14.2186 7.14204 13.9746C7.38612 13.7305 7.78185 13.7305 8.02593 13.9746L9.87565 15.8243V9.83317C9.87565 9.48799 10.1555 9.20817 10.5007 9.20817Z" fill="#575775"/>
</svg>
