<svg width="40" height="40" viewBox="0 0 40 40" fill="none" xmlns="http://www.w3.org/2000/svg">
<rect width="40" height="40" rx="6" fill="#F9F9FC"/>
<path fill-rule="evenodd" clip-rule="evenodd" d="M11.25 15.6C11.25 14.8544 11.8544 14.25 12.6 14.25H15.4C16.1456 14.25 16.75 14.8544 16.75 15.6V19.25H23.25V15.6C23.25 14.8544 23.8544 14.25 24.6 14.25H27.4C28.1456 14.25 28.75 14.8544 28.75 15.6V16.25H30.4C31.1456 16.25 31.75 16.8544 31.75 17.6V22.4C31.75 23.1456 31.1456 23.75 30.4 23.75H28.75V24.4C28.75 25.1456 28.1456 25.75 27.4 25.75H24.6C23.8544 25.75 23.25 25.1456 23.25 24.4V20.75H16.75V24.4C16.75 25.1456 16.1456 25.75 15.4 25.75H12.6C11.8544 25.75 11.25 25.1456 11.25 24.4V23.75H9.6C8.85444 23.75 8.25 23.1456 8.25 22.4V17.6C8.25 16.8544 8.85442 16.25 9.6 16.25H11.25V15.6ZM12.75 24.25H15.25V15.75H12.75V24.25ZM11.25 17.75H9.75V22.25H11.25V17.75ZM24.75 24.25H27.25V15.75H24.75V24.25ZM28.75 22.25H30.25V17.75H28.75V22.25Z" fill="#575775"/>
</svg>
