<svg width="18" height="18" viewBox="0 0 18 18" fill="none" xmlns="http://www.w3.org/2000/svg">
<path fill-rule="evenodd" clip-rule="evenodd" d="M0.875 16.5C0.875 16.1549 1.15482 15.875 1.5 15.875H16.5C16.8452 15.875 17.125 16.1549 17.125 16.5C17.125 16.8452 16.8452 17.125 16.5 17.125H1.5C1.15482 17.125 0.875 16.8452 0.875 16.5Z" fill="#575775"/>
<path fill-rule="evenodd" clip-rule="evenodd" d="M11.1 1.05805C11.3441 0.813979 11.7398 0.813983 11.9839 1.05806L16.1086 5.18285C16.3527 5.42693 16.3527 5.82266 16.1086 6.06673L9.07944 13.0959C8.80588 13.3695 8.43499 13.523 8.04825 13.523H4.26861C3.92343 13.523 3.64361 13.2432 3.64361 12.898V9.11845C3.64361 8.73174 3.79722 8.36075 4.07074 8.08726L8.74289 3.41508M8.74289 3.41508L11.1 1.05805L8.74289 3.41508ZM11.5419 2.38388L10.0687 3.85703L13.3097 7.09791L14.7828 5.62479L11.5419 2.38388ZM12.4258 7.98179L9.18484 4.74091L4.95463 8.97114C4.91562 9.01014 4.89361 9.06318 4.89361 9.11845V12.273H8.04825C8.10351 12.273 8.15645 12.2511 8.19556 12.212L12.4258 7.98179Z" fill="#575775"/>
</svg>
