<svg width="24" height="24" viewBox="0 0 24 24" fill="none" xmlns="http://www.w3.org/2000/svg">
<path fill-rule="evenodd" clip-rule="evenodd" d="M2.25 21C2.25 20.5858 2.58579 20.25 3 20.25H21C21.4142 20.25 21.75 20.5858 21.75 21C21.75 21.4143 21.4142 21.75 21 21.75H3C2.58579 21.75 2.25 21.4143 2.25 21Z" fill="#262541"/>
<path fill-rule="evenodd" clip-rule="evenodd" d="M14.52 2.46966C14.8129 2.17678 15.2877 2.17678 15.5806 2.46967L20.5303 7.41942C20.8232 7.71232 20.8232 8.18719 20.5303 8.48008L12.0953 16.9151C11.7671 17.2433 11.322 17.4276 10.8579 17.4276H6.32233C5.90812 17.4276 5.57233 17.0919 5.57233 16.6776V12.1421C5.57233 11.6781 5.75667 11.2329 6.08489 10.9047L11.6915 5.2981M11.6915 5.2981L14.52 2.46966L11.6915 5.2981ZM15.0503 4.06066L13.2825 5.82843L17.1716 9.71749L18.9393 7.94975L15.0503 4.06066ZM16.1109 10.7781L12.2218 6.88909L7.14555 11.9654C7.09874 12.0122 7.07233 12.0758 7.07233 12.1421V15.9276H10.8579C10.9242 15.9276 10.9877 15.9013 11.0347 15.8544L16.1109 10.7781Z" fill="#262541"/>
</svg>
