<svg width="18" height="18" viewBox="0 0 18 18" fill="none" xmlns="http://www.w3.org/2000/svg">
<path fill-rule="evenodd" clip-rule="evenodd" d="M0.875 16.5C0.875 16.1548 1.15482 15.875 1.5 15.875H16.5C16.8452 15.875 17.125 16.1548 17.125 16.5C17.125 16.8452 16.8452 17.125 16.5 17.125H1.5C1.15482 17.125 0.875 16.8452 0.875 16.5Z" fill="white"/>
<path fill-rule="evenodd" clip-rule="evenodd" d="M11.1 1.05802C11.3441 0.813949 11.7398 0.813952 11.9839 1.05803L16.1086 5.18282C16.3527 5.4269 16.3527 5.82263 16.1086 6.0667L9.07944 13.0959C8.80588 13.3694 8.43499 13.523 8.04825 13.523H4.26861C3.92343 13.523 3.64361 13.2432 3.64361 12.898V9.11842C3.64361 8.73171 3.79722 8.36072 4.07074 8.08723L8.74289 3.41505M8.74289 3.41505L11.1 1.05802L8.74289 3.41505ZM11.5419 2.38385L10.0687 3.857L13.3097 7.09787L14.7828 5.62476L11.5419 2.38385ZM12.4258 7.98176L9.18484 4.74088L4.95463 8.97111C4.91562 9.01011 4.89361 9.06315 4.89361 9.11842V12.273H8.04825C8.10351 12.273 8.15645 12.2511 8.19556 12.212L12.4258 7.98176Z" fill="white"/>
</svg>
