<svg width="292" height="96" viewBox="0 0 292 96" fill="none" xmlns="http://www.w3.org/2000/svg">
<path d="M208 52C207.426 52 206.962 52.4649 206.962 53.0385V55.4615H204.538C203.965 55.4615 203.5 55.9265 203.5 56.5C203.5 57.0735 203.965 57.5385 204.538 57.5385H206.962V59.9615C206.962 60.5351 207.426 61 208 61C208.574 61 209.038 60.5351 209.038 59.9615V57.5385H211.462C212.035 57.5385 212.5 57.0735 212.5 56.5C212.5 55.9265 212.035 55.4615 211.462 55.4615H209.038V53.0385C209.038 52.4649 208.574 52 208 52Z" fill="#148783"/>
<path d="M197 30C196.426 30 195.962 30.4649 195.962 31.0385V33.4615H193.538C192.965 33.4615 192.5 33.9265 192.5 34.5C192.5 35.0735 192.965 35.5385 193.538 35.5385H195.962V37.9615C195.962 38.5351 196.426 39 197 39C197.574 39 198.038 38.5351 198.038 37.9615V35.5385H200.462C201.035 35.5385 201.5 35.0735 201.5 34.5C201.5 33.9265 201.035 33.4615 200.462 33.4615H198.038V31.0385C198.038 30.4649 197.574 30 197 30Z" fill="#148783"/>
<path d="M193 68C192.299 68 191.731 68.5683 191.731 69.2692V72.2308H188.769C188.068 72.2308 187.5 72.799 187.5 73.5C187.5 74.201 188.068 74.7692 188.769 74.7692H191.731V77.7308C191.731 78.4317 192.299 79 193 79C193.701 79 194.269 78.4317 194.269 77.7308V74.7692H197.231C197.932 74.7692 198.5 74.201 198.5 73.5C198.5 72.799 197.932 72.2308 197.231 72.2308H194.269V69.2692C194.269 68.5683 193.701 68 193 68Z" fill="#148783"/>
<path d="M88 48C87.4265 48 86.9615 48.4649 86.9615 49.0385V51.4615H84.5385C83.9649 51.4615 83.5 51.9265 83.5 52.5C83.5 53.0735 83.9649 53.5385 84.5385 53.5385H86.9615V55.9615C86.9615 56.5351 87.4265 57 88 57C88.5735 57 89.0385 56.5351 89.0385 55.9615V53.5385H91.4615C92.0351 53.5385 92.5 53.0735 92.5 52.5C92.5 51.9265 92.0351 51.4615 91.4615 51.4615H89.0385V49.0385C89.0385 48.4649 88.5735 48 88 48Z" fill="#148783"/>
<path d="M104 68C103.426 68 102.962 68.4649 102.962 69.0385V71.4615H100.538C99.9649 71.4615 99.5 71.9265 99.5 72.5C99.5 73.0735 99.9649 73.5385 100.538 73.5385H102.962V75.9615C102.962 76.5351 103.426 77 104 77C104.574 77 105.038 76.5351 105.038 75.9615V73.5385H107.462C108.035 73.5385 108.5 73.0735 108.5 72.5C108.5 71.9265 108.035 71.4615 107.462 71.4615H105.038V69.0385C105.038 68.4649 104.574 68 104 68Z" fill="#148783"/>
<path d="M102 23C101.299 23 100.731 23.5683 100.731 24.2692V27.2308H97.7692C97.0683 27.2308 96.5 27.799 96.5 28.5C96.5 29.201 97.0683 29.7692 97.7692 29.7692H100.731V32.7308C100.731 33.4317 101.299 34 102 34C102.701 34 103.269 33.4317 103.269 32.7308V29.7692H106.231C106.932 29.7692 107.5 29.201 107.5 28.5C107.5 27.799 106.932 27.2308 106.231 27.2308H103.269V24.2692C103.269 23.5683 102.701 23 102 23Z" fill="#148783"/>
<rect x="116.5" y="24.5" width="59" height="59" rx="7.5" fill="#E3FBFA"/>
<path d="M159.2 48.15C159.2 48.8956 158.596 49.5 157.85 49.5C157.104 49.5 156.5 48.8956 156.5 48.15C156.5 47.4044 157.104 46.8 157.85 46.8C158.596 46.8 159.2 47.4044 159.2 48.15Z" fill="#148783"/>
<path d="M140.75 49.5C140.336 49.5 140 49.1642 140 48.75C140 48.3358 140.336 48 140.75 48C141.164 48 141.5 48.3358 141.5 48.75C141.5 49.1642 141.164 49.5 140.75 49.5Z" fill="#148783"/>
<path d="M151.25 49.5C150.836 49.5 150.5 49.1642 150.5 48.75C150.5 48.3358 150.836 48 151.25 48C151.664 48 152 48.3358 152 48.75C152 49.1642 151.664 49.5 151.25 49.5Z" fill="#148783"/>
<path fill-rule="evenodd" clip-rule="evenodd" d="M146 40.125C138.337 40.125 132.125 46.337 132.125 54C132.125 61.6629 138.337 67.875 146 67.875C153.194 67.875 159.11 62.3991 159.806 55.3889C159.868 54.7706 160.419 54.3191 161.037 54.3805C161.655 54.4419 162.107 54.9929 162.045 55.6111C161.236 63.7608 154.362 70.125 146 70.125C137.094 70.125 129.875 62.9055 129.875 54C129.875 45.0944 137.094 37.875 146 37.875C148.291 37.875 150.474 38.3536 152.45 39.2172C153.02 39.466 153.28 40.1292 153.031 40.6986C152.782 41.2679 152.119 41.5278 151.55 41.279C149.852 40.5371 147.975 40.125 146 40.125ZM160.325 41.625H162.5C163.121 41.625 163.625 41.1213 163.625 40.5C163.625 39.8787 163.121 39.375 162.5 39.375H160.1C158.982 39.375 158.075 40.2817 158.075 41.4V45.6851C158.001 45.6784 157.926 45.675 157.85 45.675C156.483 45.675 155.375 46.7831 155.375 48.15C155.375 49.5169 156.483 50.625 157.85 50.625C159.217 50.625 160.325 49.5169 160.325 48.15V41.625ZM158.075 48.15C158.075 48.0257 157.974 47.925 157.85 47.925C157.726 47.925 157.625 48.0257 157.625 48.15C157.625 48.2743 157.726 48.375 157.85 48.375C157.974 48.375 158.075 48.2743 158.075 48.15ZM140.75 49.125C140.957 49.125 141.125 48.9571 141.125 48.75C141.125 48.5429 140.957 48.375 140.75 48.375C140.543 48.375 140.375 48.5429 140.375 48.75C140.375 48.9571 140.543 49.125 140.75 49.125ZM138.875 48.75C138.875 47.7145 139.714 46.875 140.75 46.875C141.786 46.875 142.625 47.7145 142.625 48.75C142.625 49.7855 141.786 50.625 140.75 50.625C139.714 50.625 138.875 49.7855 138.875 48.75ZM151.25 49.125C151.457 49.125 151.625 48.9572 151.625 48.75C151.625 48.5428 151.457 48.375 151.25 48.375C151.043 48.375 150.875 48.5428 150.875 48.75C150.875 48.9572 151.043 49.125 151.25 49.125ZM149.375 48.75C149.375 47.7144 150.215 46.875 151.25 46.875C152.285 46.875 153.125 47.7144 153.125 48.75C153.125 49.7856 152.285 50.625 151.25 50.625C150.215 50.625 149.375 49.7856 149.375 48.75ZM152 56.625C150.964 56.625 150.125 57.4644 150.125 58.5C150.125 59.5356 150.964 60.375 152 60.375C153.036 60.375 153.875 59.5356 153.875 58.5C153.875 57.4644 153.036 56.625 152 56.625ZM147.875 58.5C147.875 56.2218 149.722 54.375 152 54.375C154.278 54.375 156.125 56.2218 156.125 58.5C156.125 60.7782 154.278 62.625 152 62.625C149.722 62.625 147.875 60.7782 147.875 58.5Z" fill="#148783"/>
<rect x="158" y="14" width="28" height="28" rx="14" fill="white"/>
<path fill-rule="evenodd" clip-rule="evenodd" d="M161.25 28C161.25 22.0629 166.063 17.25 172 17.25C177.937 17.25 182.75 22.0629 182.75 28C182.75 33.937 177.937 38.75 172 38.75C166.063 38.75 161.25 33.937 161.25 28ZM172 18.75C166.891 18.75 162.75 22.8914 162.75 28C162.75 33.1086 166.891 37.25 172 37.25C177.109 37.25 181.25 33.1086 181.25 28C181.25 22.8914 177.109 18.75 172 18.75Z" fill="#148783"/>
<path fill-rule="evenodd" clip-rule="evenodd" d="M162.75 28C162.75 22.8914 166.891 18.75 172 18.75C177.109 18.75 181.25 22.8914 181.25 28C181.25 33.1086 177.109 37.25 172 37.25C166.891 37.25 162.75 33.1086 162.75 28ZM177.53 23.9697C177.823 24.2626 177.823 24.7374 177.53 25.0303L170.53 32.0303C170.237 32.3232 169.763 32.3232 169.47 32.0303L166.47 29.0303C166.177 28.7374 166.177 28.2626 166.47 27.9697C166.763 27.6768 167.237 27.6768 167.53 27.9697L170 30.4393L176.47 23.9697C176.763 23.6768 177.237 23.6768 177.53 23.9697Z" fill="#148783"/>
<rect x="116.5" y="24.5" width="59" height="59" rx="7.5" stroke="#148783"/>
</svg>
