<svg width="60" height="68" viewBox="0 0 60 68" fill="none" xmlns="http://www.w3.org/2000/svg">
<g clip-path="url(#clip0_5104_53124)">
<path fill-rule="evenodd" clip-rule="evenodd" d="M20.625 15.5835C21.4017 15.5835 22.0313 16.2178 22.0313 17.0002V24.5557C22.0313 25.3381 21.4017 25.9724 20.625 25.9724C19.8484 25.9724 19.2188 25.3381 19.2188 24.5557V22.1946H13.125C12.5034 22.1946 11.9073 22.4434 11.4677 22.8862C11.0282 23.329 10.7813 23.9295 10.7813 24.5557V52.889C10.7813 53.5153 11.0282 54.1158 11.4677 54.5586C11.9073 55.0014 12.5034 55.2502 13.125 55.2502H35.625C36.2466 55.2502 36.8427 55.0014 37.2823 54.5586C37.7218 54.1158 37.9688 53.5153 37.9688 52.889V24.5557C37.9688 23.9295 37.7218 23.329 37.2823 22.8862C36.8427 22.4434 36.2466 22.1946 35.625 22.1946H29.0625C28.2859 22.1946 27.6563 21.5603 27.6563 20.7779C27.6563 19.9955 28.2859 19.3613 29.0625 19.3613H35.625C36.9925 19.3613 38.304 19.9085 39.271 20.8827C40.238 21.8568 40.7813 23.1781 40.7813 24.5557V52.889C40.7813 54.2667 40.238 55.5879 39.271 56.5621C38.304 57.5362 36.9925 58.0835 35.625 58.0835H13.125C11.7575 58.0835 10.446 57.5362 9.47898 56.5621C8.512 55.5879 7.96875 54.2667 7.96875 52.889V24.5557C7.96875 23.1781 8.512 21.8568 9.47898 20.8827C10.446 19.9085 11.7575 19.3613 13.125 19.3613H19.2188V17.0002C19.2188 16.2178 19.8484 15.5835 20.625 15.5835ZM15.4688 34.0002C15.4688 33.2178 16.0984 32.5835 16.875 32.5835H20.625C21.4017 32.5835 22.0313 33.2178 22.0313 34.0002C22.0313 34.7826 21.4017 35.4168 20.625 35.4168H16.875C16.0984 35.4168 15.4688 34.7826 15.4688 34.0002ZM15.4688 41.5557C15.4688 40.7733 16.0984 40.1391 16.875 40.1391H31.875C32.6517 40.1391 33.2813 40.7733 33.2813 41.5557C33.2813 42.3381 32.6517 42.9724 31.875 42.9724H16.875C16.0984 42.9724 15.4688 42.3381 15.4688 41.5557ZM15.4688 49.1113C15.4688 48.3289 16.0984 47.6946 16.875 47.6946H24.375C25.1517 47.6946 25.7813 48.3289 25.7813 49.1113C25.7813 49.8937 25.1517 50.5279 24.375 50.5279H16.875C16.0984 50.5279 15.4688 49.8937 15.4688 49.1113Z" fill="#575775"/>
</g>
<rect x="23.125" width="35" height="35.2593" rx="12" fill="#F9F9FC"/>
<path fill-rule="evenodd" clip-rule="evenodd" d="M24.9473 17.6296C24.9473 8.90728 31.9661 1.83643 40.6243 1.83643C49.2825 1.83643 56.3014 8.90728 56.3014 17.6296C56.3014 26.3519 49.2825 33.4228 40.6243 33.4228C37.9173 33.4228 35.3676 32.7307 33.1433 31.5119L26.9704 32.6697C26.6159 32.7361 26.2517 32.6224 25.9968 32.3655C25.7418 32.1087 25.6289 31.7418 25.6949 31.3847L26.8442 25.1661C25.6343 22.9253 24.9473 20.3568 24.9473 17.6296ZM40.6243 4.04013C33.1743 4.04013 27.1348 10.1244 27.1348 17.6296C27.1348 20.1066 27.7916 22.4258 28.9388 24.4236C29.0695 24.6512 29.1151 24.9185 29.0673 25.177L28.1372 30.2092L33.1325 29.2723C33.3891 29.2242 33.6544 29.2701 33.8803 29.4018C35.8634 30.5574 38.1656 31.2191 40.6243 31.2191C48.0744 31.2191 54.1139 25.1348 54.1139 17.6296C54.1139 10.1244 48.0744 4.04013 40.6243 4.04013ZM47.2311 13.9122C47.6582 14.3425 47.6582 15.0402 47.2311 15.4705L39.9394 22.8162C39.5123 23.2465 38.8198 23.2465 38.3926 22.8162L34.0176 18.4088C33.5905 17.9785 33.5905 17.2808 34.0176 16.8505C34.4448 16.4202 35.1373 16.4202 35.5644 16.8505L39.166 20.4788L45.6843 13.9122C46.1114 13.4819 46.8039 13.4819 47.2311 13.9122Z" fill="#148783"/>
<defs>
<clipPath id="clip0_5104_53124">
<rect width="45" height="45.3333" fill="white" transform="translate(1.875 15.1113)"/>
</clipPath>
</defs>
</svg>
