<svg width="292" height="96" viewBox="0 0 292 96" fill="none" xmlns="http://www.w3.org/2000/svg">
<circle cx="199.5" cy="56" r="2" fill="#148783"/>
<circle cx="192.5" cy="41" r="2" fill="#148783"/>
<circle cx="189.5" cy="70" r="4" fill="#148783"/>
<circle cx="96" cy="51.5" r="2.5" transform="rotate(180 96 51.5)" fill="#148783"/>
<circle cx="110" cy="66.5" r="2.5" transform="rotate(180 110 66.5)" fill="#148783"/>
<circle cx="103.5" cy="32" r="4" transform="rotate(180 103.5 32)" fill="#148783"/>
<rect x="116.5" y="24.5" width="59" height="59" rx="7.5" fill="#E3FBFA"/>
<path fill-rule="evenodd" clip-rule="evenodd" d="M140.375 54C140.375 50.8933 142.893 48.375 146 48.375C149.107 48.375 151.625 50.8933 151.625 54C151.625 57.1067 149.107 59.625 146 59.625C142.893 59.625 140.375 57.1067 140.375 54ZM146 50.625C144.136 50.625 142.625 52.136 142.625 54C142.625 55.864 144.136 57.375 146 57.375C147.864 57.375 149.375 55.864 149.375 54C149.375 52.136 147.864 50.625 146 50.625Z" fill="#148783"/>
<path fill-rule="evenodd" clip-rule="evenodd" d="M143.384 38.7137C143.514 38.2195 143.96 37.875 144.471 37.875H147.403C147.914 37.875 148.361 38.2197 148.491 38.7142L149.283 41.7272L152.189 42.9224L154.269 41.1448C154.716 40.7633 155.38 40.7893 155.795 41.2045L158.795 44.2045C159.209 44.6181 159.237 45.2797 158.859 45.7264L157.089 47.8201L158.257 50.6417L161.277 51.4097C161.776 51.5365 162.125 51.9855 162.125 52.5001L162.125 55.4659C162.125 55.9781 161.779 56.4256 161.283 56.5546L158.246 57.3448L157.076 60.1703L158.858 62.2725C159.237 62.7191 159.21 63.3815 158.795 63.7955L155.795 66.7955C155.373 67.2181 154.694 67.2365 154.249 66.8375L154.166 66.7631C154.112 66.7149 154.033 66.6453 153.938 66.5603C153.746 66.3901 153.484 66.1586 153.201 65.9128C152.853 65.6098 152.496 65.3041 152.205 65.0643L149.359 66.2432L148.591 69.2762C148.464 69.7754 148.015 70.125 147.5 70.125H144.5C143.985 70.125 143.535 69.775 143.409 69.2755L142.643 66.2433L139.878 65.1057L137.711 66.8721C137.263 67.2367 136.613 67.2036 136.205 66.7955L133.205 63.7955C132.783 63.3739 132.763 62.6965 133.16 62.2514L134.961 60.2315L133.778 57.4244L130.704 56.5853C130.214 56.4517 129.875 56.0072 129.875 55.5V52.5C129.875 51.9772 130.235 51.5233 130.744 51.4044L133.736 50.7062L134.887 47.876L133.127 45.7094C132.763 45.262 132.797 44.6121 133.205 44.2045L136.205 41.2045C136.626 40.7832 137.302 40.7634 137.748 41.1594L139.774 42.9615L142.577 41.7801L143.384 38.7137ZM145.339 40.125L144.612 42.888C144.523 43.2256 144.282 43.5028 143.961 43.6384L139.994 45.3106C139.594 45.4791 139.133 45.4028 138.809 45.1145L137.045 43.5458L135.513 45.0781L137.053 46.9739C137.312 47.2925 137.377 47.7268 137.222 48.1071L135.601 52.0933C135.463 52.4316 135.17 52.682 134.814 52.765L132.125 53.3927V54.641L134.898 55.398C135.231 55.4889 135.504 55.728 135.638 56.0463L137.31 60.0126C137.479 60.4126 137.402 60.8741 137.113 61.1982L135.547 62.9557L137.077 64.486L138.976 62.9384C139.296 62.6776 139.733 62.613 140.115 62.77L144.024 64.378C144.353 64.5136 144.599 64.7974 144.686 65.143L145.376 67.875H146.624L147.316 65.1436C147.403 64.7992 147.648 64.5163 147.976 64.3804L151.952 62.7339C152.311 62.5853 152.721 62.6322 153.037 62.858C153.421 63.1329 154.12 63.7297 154.678 64.2157C154.773 64.2979 154.865 64.3785 154.953 64.4558L156.472 62.9372L154.916 61.1016C154.643 60.7801 154.573 60.3331 154.734 59.9437L156.381 55.9666C156.516 55.6407 156.796 55.397 157.138 55.3082L159.875 54.596L159.875 53.3747L157.156 52.6834C156.812 52.596 156.53 52.3514 156.394 52.0235L154.748 48.0476C154.587 47.6587 154.656 47.2123 154.928 46.8908L156.473 45.0638L154.94 43.5311L153.128 45.0797C152.807 45.3539 152.36 45.4254 151.969 45.2649L147.909 43.5951C147.583 43.4609 147.338 43.1816 147.249 42.8404L146.535 40.125H145.339Z" fill="#148783"/>
<rect x="158" y="14" width="28" height="28" rx="14" fill="white"/>
<path fill-rule="evenodd" clip-rule="evenodd" d="M161.25 28C161.25 22.0629 166.063 17.25 172 17.25C177.937 17.25 182.75 22.0629 182.75 28C182.75 33.937 177.937 38.75 172 38.75C166.063 38.75 161.25 33.937 161.25 28ZM172 18.75C166.891 18.75 162.75 22.8914 162.75 28C162.75 33.1086 166.891 37.25 172 37.25C177.109 37.25 181.25 33.1086 181.25 28C181.25 22.8914 177.109 18.75 172 18.75Z" fill="#148783"/>
<path fill-rule="evenodd" clip-rule="evenodd" d="M162.75 28C162.75 22.8914 166.891 18.75 172 18.75C177.109 18.75 181.25 22.8914 181.25 28C181.25 33.1086 177.109 37.25 172 37.25C166.891 37.25 162.75 33.1086 162.75 28ZM177.53 23.9697C177.823 24.2626 177.823 24.7374 177.53 25.0303L170.53 32.0303C170.237 32.3232 169.763 32.3232 169.47 32.0303L166.47 29.0303C166.177 28.7374 166.177 28.2626 166.47 27.9697C166.763 27.6768 167.237 27.6768 167.53 27.9697L170 30.4393L176.47 23.9697C176.763 23.6768 177.237 23.6768 177.53 23.9697Z" fill="#148783"/>
<rect x="116.5" y="24.5" width="59" height="59" rx="7.5" stroke="#148783"/>
</svg>
