<svg width="12" height="16" viewBox="0 0 12 16" fill="none" xmlns="http://www.w3.org/2000/svg">
<path fill-rule="evenodd" clip-rule="evenodd" d="M8.60225 5.35225C8.82192 5.13258 9.17808 5.13258 9.39775 5.35225L11.6477 7.60225C11.7017 7.65618 11.7424 7.71834 11.7698 7.78468C11.7973 7.85101 11.8125 7.92373 11.8125 8C11.8125 8.07627 11.7973 8.14899 11.7698 8.21532C11.7424 8.28166 11.7017 8.34382 11.6477 8.39775L9.39775 10.6477C9.17808 10.8674 8.82192 10.8674 8.60225 10.6477C8.38258 10.4281 8.38258 10.0719 8.60225 9.85225L9.892 8.5625H6C5.68934 8.5625 5.4375 8.31066 5.4375 8C5.4375 7.68934 5.68934 7.4375 6 7.4375H9.892L8.60225 6.14775C8.38258 5.92808 8.38258 5.57192 8.60225 5.35225Z" fill="#575775"/>
<path fill-rule="evenodd" clip-rule="evenodd" d="M0.1875 2.75C0.1875 1.61091 1.11091 0.6875 2.25 0.6875H9.75C10.8891 0.6875 11.8125 1.61092 11.8125 2.75V3.5C11.8125 3.81066 11.5607 4.0625 11.25 4.0625C10.9393 4.0625 10.6875 3.81066 10.6875 3.5V2.75C10.6875 2.23223 10.2678 1.8125 9.75 1.8125H2.25C1.73223 1.8125 1.3125 2.23223 1.3125 2.75V13.25C1.3125 13.7678 1.73223 14.1875 2.25 14.1875H9.75C10.2678 14.1875 10.6875 13.7678 10.6875 13.25V12.5C10.6875 12.1893 10.9393 11.9375 11.25 11.9375C11.5607 11.9375 11.8125 12.1893 11.8125 12.5V13.25C11.8125 14.3891 10.8891 15.3125 9.75 15.3125H2.25C1.11092 15.3125 0.1875 14.3891 0.1875 13.25V2.75Z" fill="#575775"/>
</svg>
