<svg width="14" height="18" viewBox="0 0 14 18" fill="none" xmlns="http://www.w3.org/2000/svg">
<path fill-rule="evenodd" clip-rule="evenodd" d="M1.11847 1.45197C1.57324 0.997189 2.19005 0.741699 2.8332 0.741699H11.1665C11.8097 0.741699 12.4265 0.997189 12.8813 1.45197C13.336 1.90674 13.5915 2.52355 13.5915 3.1667V4.00003C13.5915 4.41885 13.252 4.75837 12.8332 4.75837C12.4144 4.75837 12.0749 4.41885 12.0749 4.00003V3.1667C12.0749 2.92579 11.9792 2.69476 11.8088 2.52441C11.6385 2.35406 11.4074 2.25837 11.1665 2.25837H2.8332C2.5923 2.25837 2.36126 2.35407 2.19091 2.52441C2.02057 2.69476 1.92487 2.92579 1.92487 3.1667V14.8334C1.92487 15.0743 2.02057 15.3053 2.19091 15.4757C2.36126 15.646 2.5923 15.7417 2.8332 15.7417H11.1665C11.4074 15.7417 11.6385 15.646 11.8088 15.4757C11.9792 15.3053 12.0749 15.0743 12.0749 14.8334V14C12.0749 13.5812 12.4144 13.2417 12.8332 13.2417C13.252 13.2417 13.5915 13.5812 13.5915 14V14.8334C13.5915 15.4765 13.336 16.0933 12.8813 16.5481C12.4265 17.0029 11.8097 17.2584 11.1665 17.2584H2.8332C2.19005 17.2584 1.57324 17.0029 1.11847 16.5481C0.663693 16.0933 0.408203 15.4765 0.408203 14.8334V3.1667C0.408203 2.52355 0.663693 1.90674 1.11847 1.45197ZM9.79698 5.96381C10.0931 5.66766 10.5733 5.66766 10.8694 5.96381L13.3693 8.46371C13.3694 8.46374 13.3694 8.46378 13.3694 8.46381C13.4421 8.53652 13.497 8.62031 13.534 8.70976C13.5711 8.79917 13.5915 8.89721 13.5915 9.00003C13.5915 9.10285 13.5711 9.2009 13.534 9.29031C13.497 9.37975 13.4421 9.46355 13.3694 9.53625L10.8694 12.0363C10.5733 12.3324 10.0931 12.3324 9.79698 12.0363C9.50083 11.7401 9.50083 11.26 9.79698 10.9638L11.0024 9.75837H6.99987C6.58105 9.75837 6.24154 9.41885 6.24154 9.00003C6.24154 8.58122 6.58105 8.2417 6.99987 8.2417H11.0024L9.79698 7.03626C9.50083 6.74011 9.50083 6.25996 9.79698 5.96381ZM13.1235 8.29924C13.0341 8.26216 12.936 8.2417 12.8332 8.2417L13.1235 8.29924Z" fill="white"/>
</svg>
