<svg width="18" height="18" viewBox="0 0 18 18" fill="none" xmlns="http://www.w3.org/2000/svg">
<path fill-rule="evenodd" clip-rule="evenodd" d="M1.05806 1.05806C1.30214 0.813981 1.69787 0.813981 1.94194 1.05806L16.9419 16.0581C17.186 16.3021 17.186 16.6979 16.9419 16.9419C16.6979 17.186 16.3021 17.186 16.0581 16.9419L1.05806 1.94194C0.813983 1.69786 0.813983 1.30214 1.05806 1.05806Z" fill="#575775"/>
<path fill-rule="evenodd" clip-rule="evenodd" d="M8.16364 7.42905C8.42241 7.6575 8.44699 8.05246 8.21854 8.31122C8.0562 8.49511 7.95834 8.73537 7.95834 9C7.95834 9.57526 8.4247 10.0417 9 10.0417C9.26459 10.0417 9.5048 9.94384 9.68884 9.78141C9.94764 9.55299 10.3426 9.57763 10.571 9.83643C10.7994 10.0952 10.7748 10.4902 10.516 10.7186C10.1124 11.0748 9.58075 11.2917 9 11.2917C7.7343 11.2917 6.70834 10.2656 6.70834 9C6.70834 8.4193 6.92514 7.88756 7.28147 7.48394C7.50991 7.22518 7.90488 7.2006 8.16364 7.42905Z" fill="#575775"/>
<path fill-rule="evenodd" clip-rule="evenodd" d="M5.64671 4.94224C5.8448 5.22492 5.77623 5.61466 5.49356 5.81275C4.29161 6.65504 3.25768 7.83482 2.27363 9.03898C3.00015 10.1003 3.95464 11.136 5.0457 11.9291C6.26547 12.8158 7.62086 13.375 9 13.375C10.1493 13.375 11.2822 12.9871 12.3364 12.3425C12.6309 12.1624 13.0156 12.2551 13.1956 12.5496C13.3757 12.8441 13.283 13.2288 12.9885 13.4089C11.7902 14.1416 10.4338 14.625 9 14.625C7.28056 14.625 5.67285 13.9304 4.31071 12.9402C2.94734 11.9491 1.79483 10.6376 0.971533 9.33368C0.82861 9.10733 0.845712 8.81509 1.01406 8.60695C2.07473 7.29561 3.29276 5.82864 4.7762 4.78908C5.05888 4.59099 5.44862 4.65956 5.64671 4.94224Z" fill="#575775"/>
<path fill-rule="evenodd" clip-rule="evenodd" d="M8.375 4C8.375 3.65482 8.65482 3.375 9 3.375C12.6835 3.375 15.1071 6.28406 16.9859 8.60696C17.1543 8.81511 17.1714 9.10738 17.0284 9.33374C16.7498 9.77491 16.4344 10.2157 16.087 10.6438C15.8695 10.9119 15.4759 10.9528 15.2078 10.7353C14.9398 10.5178 14.8989 10.1242 15.1164 9.85616C15.3343 9.5876 15.5381 9.3139 15.7263 9.03906C13.8575 6.75457 11.8504 4.625 9 4.625C8.65482 4.625 8.375 4.34518 8.375 4Z" fill="#575775"/>
</svg>
