<svg width="19" height="18" viewBox="0 0 19 18" fill="none" xmlns="http://www.w3.org/2000/svg">
<path fill-rule="evenodd" clip-rule="evenodd" d="M9.00033 1.29169C4.74313 1.29169 1.29199 4.74282 1.29199 9.00002C1.29199 13.2572 4.74313 16.7084 9.00033 16.7084C12.9969 16.7084 16.2839 13.6662 16.6705 9.77161C16.7047 9.42812 17.0107 9.17731 17.3542 9.21141C17.6977 9.24551 17.9485 9.55161 17.9144 9.8951C17.4649 14.4227 13.6459 17.9584 9.00033 17.9584C4.05277 17.9584 0.0419922 13.9475 0.0419922 9.00002C0.0419922 4.05247 4.05277 0.041687 9.00033 0.041687C10.2732 0.041687 11.4857 0.307554 12.5839 0.787376C12.9002 0.925578 13.0446 1.29403 12.9064 1.61033C12.7682 1.92663 12.3997 2.07102 12.0834 1.93281C11.1401 1.52065 10.0978 1.29169 9.00033 1.29169ZM16.9587 2.12502H18.167C18.5122 2.12502 18.792 1.8452 18.792 1.50002C18.792 1.15484 18.5122 0.87502 18.167 0.87502H16.8337C16.2123 0.87502 15.7087 1.37872 15.7087 2.00002V4.38063C15.6675 4.37692 15.6258 4.37502 15.5837 4.37502C14.8242 4.37502 14.2087 4.99065 14.2087 5.75002C14.2087 6.5094 14.8242 7.12502 15.5837 7.12502C16.3431 7.12502 16.9587 6.5094 16.9587 5.75002V2.12502ZM15.7087 5.75002C15.7087 5.68096 15.6527 5.62502 15.5837 5.62502C15.5146 5.62502 15.4587 5.68096 15.4587 5.75002C15.4587 5.81908 15.5146 5.87502 15.5837 5.87502C15.6527 5.87502 15.7087 5.81908 15.7087 5.75002ZM6.08366 6.29169C6.19872 6.29169 6.29199 6.19842 6.29199 6.08335C6.29199 5.96829 6.19872 5.87502 6.08366 5.87502C5.9686 5.87502 5.87533 5.96829 5.87533 6.08335C5.87533 6.19842 5.9686 6.29169 6.08366 6.29169ZM5.04199 6.08335C5.04199 5.50806 5.50836 5.04169 6.08366 5.04169C6.65895 5.04169 7.12533 5.50806 7.12533 6.08335C7.12533 6.65865 6.65895 7.12502 6.08366 7.12502C5.50836 7.12502 5.04199 6.65865 5.04199 6.08335ZM11.917 6.29169C12.0321 6.29169 12.1253 6.19845 12.1253 6.08335C12.1253 5.96826 12.0321 5.87502 11.917 5.87502C11.8019 5.87502 11.7087 5.96826 11.7087 6.08335C11.7087 6.19845 11.8019 6.29169 11.917 6.29169ZM10.8753 6.08335C10.8753 5.50803 11.3418 5.04169 11.917 5.04169C12.4922 5.04169 12.9587 5.50803 12.9587 6.08335C12.9587 6.65868 12.4922 7.12502 11.917 7.12502C11.3418 7.12502 10.8753 6.65868 10.8753 6.08335ZM12.3337 10.4584C11.7583 10.4584 11.292 10.9247 11.292 11.5C11.292 12.0753 11.7583 12.5417 12.3337 12.5417C12.909 12.5417 13.3753 12.0753 13.3753 11.5C13.3753 10.9247 12.909 10.4584 12.3337 10.4584ZM10.042 11.5C10.042 10.2343 11.068 9.20835 12.3337 9.20835C13.5993 9.20835 14.6253 10.2343 14.6253 11.5C14.6253 12.7657 13.5993 13.7917 12.3337 13.7917C11.068 13.7917 10.042 12.7657 10.042 11.5Z" fill="#575775"/>
</svg>
