<svg width="40" height="40" viewBox="0 0 40 40" fill="none" xmlns="http://www.w3.org/2000/svg">
<rect width="40" height="40" rx="6" fill="#EFEFF6"/>
<path d="M32.4809 18.42L33.192 18.2121L31.3651 17.3781C31.366 17.3788 31.367 17.3796 31.3679 17.3804C31.4734 17.4653 31.8609 17.7772 31.8609 17.92L32.4809 18.42Z" fill="#575775"/>
<path d="M31.5231 22.2967C31.5231 22.4409 31.4662 22.5661 31.3649 22.6476L33.192 21.8135H31.5231V22.2967Z" fill="#575775"/>
<path d="M8.50824 21.8135H6.83928L8.66618 22.6475C8.565 22.566 8.50824 22.4408 8.50824 22.2967V21.8135Z" fill="#575775"/>
<path d="M8.50824 17.7287C8.50824 17.5845 8.56513 17.4592 8.66639 17.3778L6.83928 18.2118H7.76094L8.50824 17.7287Z" fill="#575775"/>
<path fill-rule="evenodd" clip-rule="evenodd" d="M8.50824 21.8135H6.83928C6.35615 21.8135 5.96073 21.4181 5.96094 20.935V19.0902C5.96094 18.6071 6.35616 18.2118 6.83928 18.2118H7.76094L8.50824 17.7287C8.50824 17.5845 8.56513 17.4592 8.66639 17.3778C8.71931 17.3352 8.78434 17.3046 8.8597 17.2895L10.353 16.9381V15.1812C10.353 14.3027 11.0559 13.6 11.9343 13.6H12.1099L13.2518 13.6L14.3936 13.6C15.2721 13.6 15.9748 14.3029 15.9748 15.1812V18.2119H24.0564V15.1812C24.0564 14.3027 24.7593 13.6 25.6377 13.6H25.8133L26.288 13.6L26.9552 13.6L28.097 13.6C28.9755 13.6 29.6783 14.3029 29.6783 15.1812V16.9381L31.1716 17.2898C31.2411 17.3217 31.2664 17.3332 31.2973 17.3472L31.2979 17.3475C31.3154 17.3554 31.3348 17.3643 31.3651 17.3781L31.3679 17.3804C31.4734 17.4653 31.8609 17.7772 31.8609 17.92L32.4809 18.42L33.192 18.2121C33.6751 18.2121 34.0704 18.6073 34.0704 19.0904V20.9352C34.0704 21.4183 33.6751 21.8135 33.192 21.8135H31.5231V22.2967C31.5231 22.4409 31.4662 22.5661 31.3649 22.6476C31.312 22.6902 31.247 22.7208 31.1716 22.7358L29.6783 23.0873V24.8441C29.6783 25.7227 28.9754 26.4254 28.097 26.4254H26.9552H25.8133H25.6377C24.7592 26.4254 24.0564 25.7225 24.0564 24.8441V21.8133H19.3129V20.935H24.0564V19.0902H15.9748V20.935H17.073V21.8133H15.9748V24.8439C15.9748 25.7224 15.272 26.4252 14.3936 26.4252C14.1777 26.4252 14.0115 26.4252 13.8425 26.4253C13.6678 26.4253 13.4902 26.4254 13.2518 26.4254C13.0498 26.4254 12.8765 26.4253 12.7004 26.4253C12.5183 26.4252 12.3331 26.4252 12.1099 26.4252L11.9343 26.4254C11.0558 26.4254 10.353 25.7225 10.353 24.8441V23.0873L8.8597 22.7358C8.78421 22.7207 8.71912 22.6901 8.66618 22.6475C8.565 22.566 8.50824 22.4408 8.50824 22.2967V21.8135ZM33.192 20.9352V19.0904L31.1716 18.2892L30.6445 18.0802L29.6782 17.8606V22.1648L30.6445 21.9452L31.1716 21.7362L33.192 20.9352ZM28.0972 25.5026L25.8426 25.5463C25.8329 25.5467 25.8231 25.5469 25.8133 25.5469H25.6376C25.2424 25.5469 24.9349 25.2394 24.9349 24.8442C24.9347 21.4181 24.9347 18.6948 24.9347 15.1812C24.9347 14.786 25.2422 14.4785 25.6374 14.4785H25.813H28.097C28.4924 14.4785 28.7999 14.83 28.7999 15.1812V24.7999C28.7999 25.1951 28.4924 25.5026 28.0972 25.5026ZM15.0964 15.1812C15.0964 14.786 14.7889 14.4785 14.3937 14.4785H12.1099H11.9341C11.5389 14.4785 11.2314 14.786 11.2314 15.1812V15.2108C11.2314 18.578 11.2314 21.1217 11.2316 24.8442C11.2316 25.2394 11.5391 25.5469 11.9343 25.5469H12.1099C12.1383 25.5469 12.1662 25.5453 12.1936 25.5422L14.3937 25.5026C14.7889 25.5026 15.0964 25.1951 15.0964 24.7999V15.1812ZM10.353 17.8606L9.3868 18.0802L6.83928 19.0903V20.9351L9.3868 21.9454L10.353 22.1649V17.8606Z" fill="#575775"/>
<path d="M19.3129 20.935H17.073V21.8133H19.3129V20.935Z" fill="#575775"/>
</svg>
