<svg width="40" height="40" viewBox="0 0 40 40" fill="none" xmlns="http://www.w3.org/2000/svg">
<rect width="40" height="40" rx="6" fill="#F9F9FC"/>
<path fill-rule="evenodd" clip-rule="evenodd" d="M19.0691 11.2321L27.3756 14.7931L19.0691 18.7482V11.2321ZM19.0691 20.1659V22.1356C20.831 22.2119 22.439 22.6014 23.665 23.2145C24.9998 23.8818 26.0691 24.9222 26.0691 26.2618C26.0691 27.6013 24.9998 28.6417 23.665 29.3091C22.292 29.9956 20.4399 30.4018 18.4291 30.4018C16.4182 30.4018 14.5662 29.9956 13.1931 29.3091C11.8583 28.6417 10.7891 27.6013 10.7891 26.2618C10.7891 24.9222 11.8583 23.8818 13.1931 23.2145C14.4192 22.6014 16.0272 22.2119 17.7891 22.1356L17.7891 11.1721V11.1721C17.789 10.9671 17.8398 10.7648 17.9369 10.5842C18.0341 10.4035 18.1746 10.2497 18.3458 10.1366C18.517 10.0236 18.7137 9.95475 18.918 9.93638C19.1224 9.918 19.3281 9.95064 19.5168 10.0313L27.9612 13.6515V13.6515C28.1803 13.7454 28.3678 13.9006 28.501 14.0983C28.6342 14.296 28.7076 14.5279 28.7124 14.7663C28.7172 15.0047 28.6532 15.2394 28.528 15.4423C28.4029 15.6452 28.2218 15.8077 28.0067 15.9104L19.0691 20.1659ZM17.7891 23.4169C16.1962 23.4925 14.7907 23.8467 13.7655 24.3593C12.5668 24.9587 12.0691 25.6683 12.0691 26.2618C12.0691 26.8552 12.5668 27.5648 13.7655 28.1642C14.926 28.7444 16.5739 29.1218 18.4291 29.1218C20.2842 29.1218 21.9322 28.7444 23.0926 28.1642C24.2913 27.5648 24.7891 26.8552 24.7891 26.2618C24.7891 25.6683 24.2913 24.9587 23.0926 24.3593C22.0675 23.8467 20.6619 23.4925 19.0691 23.4169V25.7618C19.0691 26.1152 18.7825 26.4018 18.4291 26.4018C18.0756 26.4018 17.7891 26.1152 17.7891 25.7618V23.4169Z" fill="#575775"/>
</svg>
