<svg width="20" height="20" viewBox="0 0 20 20" fill="none" xmlns="http://www.w3.org/2000/svg">
<g id="icon / arrow / forward">
<g id="Vector">
<path fill-rule="evenodd" clip-rule="evenodd" d="M10.5997 3.51607C10.8438 3.27199 11.2395 3.27199 11.4836 3.51607L14.4003 6.43273C14.6444 6.67681 14.6444 7.07254 14.4003 7.31662L11.4836 10.2333C11.2395 10.4774 10.8438 10.4774 10.5997 10.2333C10.3556 9.9892 10.3556 9.59348 10.5997 9.3494L13.0744 6.87467L10.5997 4.39995C10.3556 4.15587 10.3556 3.76014 10.5997 3.51607Z" fill="#575775"/>
<path fill-rule="evenodd" clip-rule="evenodd" d="M6.15937 7.40904C6.9017 6.66671 7.90852 6.24967 8.95833 6.24967H13.9583C14.3035 6.24967 14.5833 6.5295 14.5833 6.87467C14.5833 7.21985 14.3035 7.49967 13.9583 7.49967H8.95833C8.24004 7.49967 7.55116 7.78502 7.04325 8.29293C6.53534 8.80084 6.25 9.48971 6.25 10.208V16.0413C6.25 16.3865 5.97018 16.6663 5.625 16.6663C5.27982 16.6663 5 16.3865 5 16.0413V10.208C5 9.15819 5.41704 8.15137 6.15937 7.40904Z" fill="#575775"/>
</g>
</g>
</svg>
