<svg width="40" height="40" viewBox="0 0 40 40" fill="none" xmlns="http://www.w3.org/2000/svg">
<rect width="40" height="40" rx="6" fill="#F9F9FC"/>
<path fill-rule="evenodd" clip-rule="evenodd" d="M20.391 9.74864C20.5756 9.50248 20.5257 9.15326 20.2795 8.96864C20.0334 8.78402 19.6842 8.83391 19.4995 9.08007L15.7967 14.0171C15.5741 13.9605 15.3303 14.0461 15.1956 14.2482C14.9936 14.5513 14.1223 15.4107 12.55 15.7252C12.1244 15.8103 11.7216 15.9426 11.3596 16.1205C10.5388 16.5238 9.87157 17.1961 9.73853 18.1145C9.60557 19.0325 10.0341 20.0058 10.9795 20.9512C12.5675 22.5392 14.0358 23.7651 14.7245 24.2999C14.8039 24.3616 14.873 24.428 14.9316 24.4997L18.6745 29.0744L18.6941 29.094C18.9244 29.3243 19.5601 29.7304 20.6262 30.0858C21.009 30.2134 21.7125 30.2913 22.4999 30.3332C23.3131 30.3765 24.2893 30.3843 25.263 30.3458C26.2346 30.3074 27.2181 30.2224 28.0411 30.0763C28.4522 30.0033 28.8354 29.9129 29.1624 29.8006C29.4788 29.6919 29.7917 29.5465 30.0202 29.3379C30.355 29.0324 30.3631 28.6046 30.3478 28.3837C30.3304 28.1315 30.2908 27.815 30.2126 27.4796C30.0694 26.8649 29.7748 26.0917 29.1536 25.5908C28.5106 25.0721 27.6363 24.935 26.5476 25.3226C25.4749 25.1715 24.637 24.3248 24.084 23.219C23.8026 22.6562 23.6125 22.0568 23.5148 21.5173C23.415 20.9665 23.42 20.5257 23.4854 20.2638C23.7175 19.3357 23.6662 18.6922 23.449 18.2307C23.3543 18.0293 23.2094 17.8575 23.0927 17.7413L28.0825 11.9198C28.2828 11.6862 28.2557 11.3344 28.0221 11.1342C27.7885 10.9339 27.4368 10.961 27.2365 11.1946L22.136 17.1452C21.4508 17.6285 20.3761 17.7395 19.4117 17.5466C18.9279 17.4498 18.5226 17.2855 18.2534 17.0991C17.9713 16.9038 17.931 16.7558 17.931 16.7001C17.931 15.9322 17.675 15.2846 17.345 14.8227C17.2187 14.6458 17.0776 14.4906 16.9293 14.3641L20.391 9.74864ZM12.7685 16.8178C14.3735 16.4968 15.4346 15.6861 15.9312 15.1144H16.0607C16.0723 15.1192 16.1008 15.1323 16.146 15.1646C16.2297 15.2244 16.3348 15.3255 16.4383 15.4703C16.644 15.7584 16.8167 16.1822 16.8167 16.7001C16.8167 17.2872 17.2049 17.7285 17.6192 18.0153C18.0465 18.3111 18.6055 18.5217 19.1931 18.6392C20.1059 18.8218 21.214 18.8019 22.1478 18.4047C22.2202 18.4744 22.2676 18.5079 22.3034 18.5332C22.3604 18.5736 22.3882 18.5933 22.4408 18.7052C22.5093 18.8507 22.601 19.2073 22.4044 19.9935C22.2851 20.4708 22.3045 21.0878 22.4183 21.716C22.5342 22.3556 22.7568 23.0563 23.0874 23.7174C23.738 25.0184 24.879 26.2926 26.5663 26.4461C27.0562 26.4907 27.5749 26.4377 28.1188 26.2746C28.2543 26.3195 28.3638 26.3853 28.4541 26.4581C28.6599 26.6241 28.822 26.8709 28.9447 27.1604C29.078 27.3943 29.2362 28.0063 29.2362 28.3837C29.2451 28.46 29.2316 28.3942 29.2362 28.4607C29.2381 28.4882 29.2383 28.5113 29.2372 28.5299L29.2364 28.5416C29.1629 28.5961 29.0257 28.6694 28.8004 28.7468C28.5467 28.8339 28.2243 28.912 27.8463 28.9791C27.0911 29.1132 26.1624 29.1951 25.219 29.2324C24.2776 29.2696 23.3359 29.2619 22.5591 29.2205C21.7567 29.1778 21.1984 29.1019 20.9786 29.0287C20.4933 28.8669 20.1308 28.7011 19.8795 28.5643C19.7537 28.4958 19.6575 28.4356 19.5887 28.388C19.5544 28.3642 19.5282 28.3445 19.5093 28.3293C19.5036 28.3247 19.4988 28.3208 19.495 28.3176L15.794 23.7941C15.6775 23.6517 15.5469 23.5277 15.4079 23.4198C14.7528 22.9111 13.3199 21.7157 11.7675 20.1632C10.9537 19.3495 10.7785 18.7081 10.8413 18.2743C10.8713 18.0672 10.9619 17.864 11.1158 17.6751C11.2319 17.4517 11.5946 17.0048 12.1163 17.0048C12.3162 16.9278 12.5348 16.8646 12.7685 16.8178Z" fill="#575775"/>
<path d="M29.2364 28.5416C29.1629 28.5961 29.0257 28.6694 28.8004 28.7468C28.5467 28.8339 28.2243 28.912 27.8463 28.9791C27.0911 29.1132 26.1624 29.1951 25.219 29.2324C24.2776 29.2696 23.3359 29.2619 22.5591 29.2205C21.7567 29.1778 21.1984 29.1019 20.9786 29.0287C20.4933 28.8669 20.1308 28.7011 19.8795 28.5643C19.7537 28.4958 19.6575 28.4356 19.5887 28.388C19.5544 28.3642 19.5282 28.3445 19.5093 28.3293C19.5036 28.3247 19.4988 28.3208 19.495 28.3176L15.794 23.7941C15.6775 23.6517 15.5469 23.5277 15.4079 23.4198C14.7528 22.9111 13.3199 21.7157 11.7675 20.1632C10.9537 19.3495 10.7785 18.7081 10.8413 18.2743C10.8713 18.0672 10.9619 17.864 11.1158 17.6751C11.2319 17.4517 11.5946 17.0048 12.1163 17.0048C12.3162 16.9278 12.5348 16.8646 12.7685 16.8178C14.3735 16.4968 15.4346 15.6861 15.9312 15.1144H16.0607C16.0723 15.1192 16.1008 15.1323 16.146 15.1646C16.2297 15.2244 16.3348 15.3255 16.4383 15.4703C16.644 15.7584 16.8167 16.1822 16.8167 16.7001C16.8167 17.2872 17.2049 17.7285 17.6192 18.0153C18.0465 18.3111 18.6055 18.5217 19.1931 18.6392C20.1059 18.8218 21.214 18.8019 22.1478 18.4047C22.2202 18.4744 22.2676 18.5079 22.3034 18.5332C22.3604 18.5736 22.3882 18.5933 22.4408 18.7052C22.5093 18.8507 22.601 19.2073 22.4044 19.9935C22.2851 20.4708 22.3045 21.0878 22.4183 21.716C22.5342 22.3556 22.7568 23.0563 23.0874 23.7174C23.738 25.0184 24.879 26.2926 26.5663 26.4461C27.0562 26.4907 27.5749 26.4377 28.1188 26.2746C28.2543 26.3195 28.3638 26.3853 28.4541 26.4581C28.6599 26.6241 28.822 26.8709 28.9447 27.1604C29.078 27.3943 29.2362 28.0063 29.2362 28.3837C29.2451 28.46 29.2316 28.3942 29.2362 28.4607C29.2381 28.4882 29.2383 28.5113 29.2372 28.5299M29.2364 28.5416C29.2367 28.5381 29.237 28.5342 29.2372 28.5299M29.2364 28.5416L29.2372 28.5299M20.391 9.74864C20.5756 9.50248 20.5257 9.15326 20.2795 8.96864C20.0334 8.78402 19.6842 8.83391 19.4995 9.08007L15.7967 14.0171C15.5741 13.9605 15.3303 14.0461 15.1956 14.2482C14.9936 14.5513 14.1223 15.4107 12.55 15.7252C12.1244 15.8103 11.7216 15.9426 11.3596 16.1205C10.5388 16.5238 9.87157 17.1961 9.73853 18.1145C9.60557 19.0325 10.0341 20.0058 10.9795 20.9512C12.5675 22.5392 14.0358 23.7651 14.7245 24.2999C14.8039 24.3616 14.873 24.428 14.9316 24.4997L18.6745 29.0744L18.6941 29.094C18.9244 29.3243 19.5601 29.7304 20.6262 30.0858C21.009 30.2134 21.7125 30.2913 22.4999 30.3332C23.3131 30.3765 24.2893 30.3843 25.263 30.3458C26.2346 30.3074 27.2181 30.2224 28.0411 30.0763C28.4522 30.0033 28.8354 29.9129 29.1624 29.8006C29.4788 29.6919 29.7917 29.5465 30.0202 29.3379C30.355 29.0324 30.3631 28.6046 30.3478 28.3837C30.3304 28.1315 30.2908 27.815 30.2126 27.4796C30.0694 26.8649 29.7748 26.0917 29.1536 25.5908C28.5106 25.0721 27.6363 24.935 26.5476 25.3226C25.4749 25.1715 24.637 24.3248 24.084 23.219C23.8026 22.6562 23.6125 22.0568 23.5148 21.5173C23.415 20.9665 23.42 20.5257 23.4854 20.2638C23.7175 19.3357 23.6662 18.6922 23.449 18.2307C23.3543 18.0293 23.2094 17.8575 23.0927 17.7413L28.0825 11.9198C28.2828 11.6862 28.2557 11.3344 28.0221 11.1342C27.7885 10.9339 27.4368 10.961 27.2365 11.1946L22.136 17.1452C21.4508 17.6285 20.3761 17.7395 19.4117 17.5466C18.9279 17.4498 18.5226 17.2855 18.2534 17.0991C17.9713 16.9038 17.931 16.7558 17.931 16.7001C17.931 15.9322 17.675 15.2846 17.345 14.8227C17.2187 14.6458 17.0776 14.4906 16.9293 14.3641L20.391 9.74864Z" stroke="#575775" stroke-width="0.3" stroke-linecap="round"/>
</svg>
