<svg width="20" height="21" viewBox="0 0 20 21" fill="none" xmlns="http://www.w3.org/2000/svg">
<path fill-rule="evenodd" clip-rule="evenodd" d="M13.6871 1.14106C13.5389 0.992866 13.3355 0.913439 13.1261 0.922016C12.9167 0.930593 12.7205 1.02639 12.5849 1.18621L8.1673 6.39357L4.77439 6.0422C4.54971 6.01893 4.32652 6.09816 4.1668 6.25788L2.46974 7.95493C2.32909 8.09558 2.25007 8.28634 2.25007 8.48526C2.25007 8.68417 2.32909 8.87494 2.46974 9.01559L6.69674 13.2426L0.46967 19.4696C0.176777 19.7625 0.176777 20.2374 0.46967 20.5303C0.762563 20.8232 1.23744 20.8232 1.53033 20.5303L7.7574 14.3032L11.6622 18.208C11.8028 18.3487 11.9936 18.4277 12.1925 18.4277C12.3914 18.4277 12.5822 18.3486 12.7228 18.208L14.4198 16.5109C14.5796 16.3512 14.6588 16.128 14.6355 15.9033L14.2841 12.5105L19.4917 8.09302C19.6515 7.95744 19.7473 7.76118 19.7559 7.55178C19.7645 7.34238 19.685 7.13894 19.5368 6.99075L13.6871 1.14106ZM7.7574 14.3032L8.03033 14.0303C8.32322 13.7374 8.32322 13.2625 8.03033 12.9696C7.73744 12.6768 7.26256 12.6768 6.96967 12.9696L6.69674 13.2426L7.7574 14.3032ZM9.05533 7.6655L13.2021 2.77735L17.9005 7.47576L13.0122 11.6224C12.8235 11.7825 12.7259 12.0255 12.7514 12.2716L13.1067 15.7027L12.1925 16.617L4.06073 8.48526L4.975 7.571L8.40614 7.92633C8.65232 7.95182 8.89522 7.85423 9.05533 7.6655Z" fill="#8A8AA8"/>
<path d="M8.03033 14.0303C8.32322 13.7374 8.32322 13.2625 8.03033 12.9696C7.73744 12.6768 7.26256 12.6768 6.96967 12.9696L6.69674 13.2426L7.7574 14.3032L8.03033 14.0303Z" fill="#8A8AA8"/>
</svg>
