<svg width="10" height="10" viewBox="0 0 10 10" fill="none" xmlns="http://www.w3.org/2000/svg">
<path fill-rule="evenodd" clip-rule="evenodd" d="M0.190871 0.189161C0.434949 -0.0549161 0.830677 -0.0549157 1.07475 0.189162L5.00167 4.11608L8.92856 0.189164C9.17264 -0.0549151 9.56837 -0.0549167 9.81244 0.18916C10.0565 0.433237 10.0565 0.828965 9.81245 1.07304L5.88555 4.99997L9.81245 8.92686C10.0565 9.17094 10.0565 9.56667 9.81245 9.81074C9.56837 10.0548 9.17264 10.0548 8.92856 9.81074L5.00167 5.88385L1.07475 9.81075C0.830675 10.0548 0.434946 10.0548 0.190869 9.81074C-0.0532075 9.56666 -0.0532063 9.17094 0.190872 8.92686L4.11779 4.99997L0.19087 1.07304C-0.0532071 0.828967 -0.0532068 0.433239 0.190871 0.189161Z" fill="#8A8AA8"/>
</svg>
