<svg width="22" height="22" viewBox="0 0 22 22" fill="none" xmlns="http://www.w3.org/2000/svg">
<path fill-rule="evenodd" clip-rule="evenodd" d="M10.9146 2.27202C10.8951 2.28355 10.8746 2.30192 10.857 2.33722L8.25949 7.56947C8.15 7.79001 7.93924 7.94276 7.69558 7.97817L1.88673 8.82237C1.75159 8.84201 1.71007 8.99813 1.79783 9.08311L6.00036 13.153C6.17848 13.3255 6.25983 13.5749 6.21768 13.8193L5.22588 19.5689C5.21927 19.6072 5.22502 19.6329 5.23341 19.6523C5.24307 19.6746 5.26098 19.6982 5.2876 19.7174C5.31423 19.7366 5.34333 19.7469 5.3697 19.7494C5.39303 19.7516 5.42178 19.7486 5.45829 19.7295L10.6528 17.0134C10.8705 16.8995 11.1302 16.8995 11.3479 17.0134L16.5424 19.7295C16.5789 19.7486 16.6076 19.7516 16.631 19.7494C16.6574 19.7469 16.6864 19.7366 16.7131 19.7174C16.7397 19.6982 16.7576 19.6746 16.7672 19.6523C16.7756 19.633 16.7814 19.6073 16.7748 19.5689L15.783 13.8193C15.7408 13.5749 15.8222 13.3255 16.0003 13.153L20.2029 9.08315C20.2907 8.99812 20.249 8.842 20.114 8.82237L14.3051 7.97817C14.0614 7.94276 13.8507 7.79001 13.7412 7.56947L11.1437 2.33726C11.1262 2.30196 11.1056 2.28355 11.0861 2.27202C11.0638 2.25889 11.0341 2.25 11.0003 2.25C10.9666 2.25 10.9369 2.25889 10.9146 2.27202ZM12.4872 1.6703C11.8782 0.443247 10.1226 0.443232 9.51347 1.67026C9.51346 1.67027 9.51348 1.67024 9.51347 1.67026L7.09077 6.55031L1.671 7.33797C0.315551 7.53495 -0.237036 9.20063 0.754331 10.1607C0.754322 10.1607 0.754341 10.1607 0.754331 10.1607L4.67214 13.9549L3.74771 19.3139C3.51309 20.6742 4.94479 21.6907 6.15333 21.0587L11.0003 18.5243L15.8473 21.0587C17.0559 21.6906 18.4876 20.6742 18.2529 19.3139L17.3285 13.9549L21.2464 10.1607C22.2376 9.2007 21.6852 7.53496 20.3297 7.33797L14.9099 6.55031L12.4872 1.6703Z" fill="#148783"/>
<path d="M10.857 2.33722C10.8746 2.30192 10.8951 2.28355 10.9146 2.27202C10.9369 2.25889 10.9666 2.25 11.0003 2.25C11.0341 2.25 11.0638 2.25889 11.0861 2.27202C11.1056 2.28355 11.1262 2.30196 11.1437 2.33726L13.7412 7.56947C13.8507 7.79001 14.0614 7.94276 14.3051 7.97817L20.114 8.82237C20.249 8.842 20.2907 8.99812 20.2029 9.08315L16.0003 13.153C15.8222 13.3255 15.7408 13.5749 15.783 13.8193L16.7748 19.5689C16.7814 19.6073 16.7756 19.633 16.7672 19.6523C16.7576 19.6746 16.7397 19.6982 16.7131 19.7174C16.6864 19.7366 16.6574 19.7469 16.631 19.7494C16.6076 19.7516 16.5789 19.7486 16.5424 19.7295L11.3479 17.0134C11.1302 16.8995 10.8705 16.8995 10.6528 17.0134L5.45829 19.7295C5.42178 19.7486 5.39303 19.7516 5.3697 19.7494C5.34333 19.7469 5.31423 19.7366 5.2876 19.7174C5.26098 19.6982 5.24307 19.6746 5.23341 19.6523C5.22502 19.6329 5.21927 19.6072 5.22588 19.5689L6.21768 13.8193C6.25983 13.5749 6.17848 13.3255 6.00036 13.153L1.79783 9.08311C1.71007 8.99813 1.75159 8.84201 1.88673 8.82237L7.69558 7.97817C7.93924 7.94276 8.15 7.79001 8.25949 7.56947L10.857 2.33722Z" fill="#148783"/>
</svg>
