<svg width="22" height="22" viewBox="0 0 22 22" fill="none" xmlns="http://www.w3.org/2000/svg">
<path fill-rule="evenodd" clip-rule="evenodd" d="M0.25 11C0.25 5.06294 5.06294 0.25 11 0.25C16.937 0.25 21.75 5.06293 21.75 11C21.75 16.937 16.937 21.75 11 21.75C5.06293 21.75 0.25 16.937 0.25 11ZM11 1.75C5.89136 1.75 1.75 5.89136 1.75 11C1.75 16.1086 5.89137 20.25 11 20.25C16.1086 20.25 20.25 16.1086 20.25 11C20.25 5.89137 16.1086 1.75 11 1.75Z" fill="#148783"/>
<path fill-rule="evenodd" clip-rule="evenodd" d="M1.75 11C1.75 5.89136 5.89136 1.75 11 1.75C16.1086 1.75 20.25 5.89137 20.25 11C20.25 16.1086 16.1086 20.25 11 20.25C5.89137 20.25 1.75 16.1086 1.75 11ZM16.5303 6.96967C16.8232 7.26256 16.8232 7.73744 16.5303 8.03033L9.53033 15.0303C9.23744 15.3232 8.76256 15.3232 8.46967 15.0303L5.46967 12.0303C5.17678 11.7374 5.17678 11.2626 5.46967 10.9697C5.76256 10.6768 6.23744 10.6768 6.53033 10.9697L9 13.4393L15.4697 6.96967C15.7626 6.67678 16.2374 6.67678 16.5303 6.96967Z" fill="#148783"/>
</svg>
