<svg width="12" height="12" viewBox="0 0 12 12" fill="none" xmlns="http://www.w3.org/2000/svg">
<path fill-rule="evenodd" clip-rule="evenodd" d="M0.227483 0.226994C0.520376 -0.0658993 0.99525 -0.0658989 1.28814 0.226995L6.00044 4.9393L10.7127 0.226996C11.0056 -0.0658982 11.4805 -0.0659 11.7734 0.226992C12.0663 0.519884 12.0663 0.994758 11.7734 1.28765L7.0611 5.99996L11.7734 10.7122C12.0663 11.0051 12.0663 11.48 11.7734 11.7729C11.4805 12.0658 11.0056 12.0658 10.7127 11.7729L6.00044 7.06062L1.28814 11.7729C0.995247 12.0658 0.520373 12.0658 0.227481 11.7729C-0.0654115 11.48 -0.0654101 11.0051 0.227484 10.7122L4.93978 5.99996L0.227482 1.28765C-0.065411 0.99476 -0.0654106 0.519887 0.227483 0.226994Z" fill="#148783"/>
</svg>
