<svg width="20" height="20" viewBox="0 0 20 20" fill="none" xmlns="http://www.w3.org/2000/svg">
<path fill-rule="evenodd" clip-rule="evenodd" d="M16.4415 1.55073C16.6126 1.45291 16.8063 1.40173 17.0034 1.40232C17.2005 1.40291 17.394 1.45529 17.5646 1.55423C17.7351 1.65316 17.8766 1.79518 17.975 1.96604C18.0733 2.13682 18.125 2.33044 18.125 2.52751V14.1392C18.1247 14.3362 18.0728 14.5304 17.9743 14.701C17.8758 14.8716 17.7342 15.0134 17.5638 15.1121C17.3933 15.2108 17.1999 15.263 17.0029 15.2635C16.8059 15.264 16.6122 15.2128 16.4412 15.115L11.5007 12.2917H9.88728L10.3504 15.5345C10.4292 16.1287 10.2703 16.73 9.90823 17.2077C9.54618 17.6854 9.01024 18.0009 8.41688 18.0856C7.82351 18.1704 7.22067 18.0176 6.73935 17.6604C6.25803 17.3032 5.93713 16.7705 5.84637 16.178L5.84541 16.1717L5.28583 12.2536C4.4383 12.1353 3.64643 11.7444 3.03437 11.1323C2.29204 10.39 1.875 9.38316 1.875 8.33334C1.875 7.28353 2.29204 6.27671 3.03437 5.53438C3.7767 4.79205 4.78352 4.37501 5.83333 4.37501H11.5006L16.4415 1.55073ZM11.0417 5.62501H5.83333C5.11504 5.62501 4.42616 5.91035 3.91825 6.41826C3.41034 6.92617 3.125 7.61505 3.125 8.33334C3.125 9.05164 3.41034 9.74051 3.91825 10.2484C4.42616 10.7563 5.11504 11.0417 5.83333 11.0417H11.0417V5.62501ZM12.2917 11.304L16.875 13.9231V2.74275L12.2917 5.36265V11.304ZM6.55395 12.2917L7.08239 15.9915C7.12385 16.2573 7.26818 16.4962 7.48429 16.6566C7.70115 16.8175 7.97276 16.8864 8.2401 16.8482C8.50744 16.81 8.74891 16.6679 8.91203 16.4526C9.07459 16.2382 9.14625 15.9684 9.11162 15.7016L8.62459 12.2917H6.55395Z" fill="#575775"/>
</svg>
