<svg width="44" height="44" viewBox="0 0 44 44" fill="none" xmlns="http://www.w3.org/2000/svg">
<g id="icon / group">
<path id="Vector (Stroke)" fill-rule="evenodd" clip-rule="evenodd" d="M17.1393 11.6386C18.4286 10.3493 20.1773 9.625 22.0007 9.625C23.824 9.625 25.5727 10.3493 26.862 11.6386C28.1513 12.928 28.8757 14.6766 28.8757 16.5C28.8757 18.3234 28.1513 20.072 26.862 21.3614C26.7602 21.4632 26.6554 21.5615 26.548 21.6563C27.6166 22.1672 28.6013 22.8591 29.4547 23.7126C31.4317 25.6895 32.5423 28.3708 32.5423 31.1667V33C32.5423 33.7594 31.9267 34.375 31.1673 34.375C30.4079 34.375 29.7923 33.7594 29.7923 33V31.1667C29.7923 29.1002 28.9714 27.1183 27.5102 25.6571C26.049 24.1959 24.0671 23.375 22.0007 23.375C19.9342 23.375 17.9523 24.1959 16.4911 25.6571C15.0299 27.1183 14.209 29.1002 14.209 31.1667V33C14.209 33.7594 13.5934 34.375 12.834 34.375C12.0746 34.375 11.459 33.7594 11.459 33V31.1667C11.459 28.3708 12.5696 25.6895 14.5466 23.7126C15.4 22.8591 16.3847 22.1671 17.4532 21.6563C17.3459 21.5615 17.2411 21.4632 17.1393 21.3614C15.85 20.072 15.1257 18.3234 15.1257 16.5C15.1257 14.6766 15.85 12.928 17.1393 11.6386ZM22.0007 12.375C20.9066 12.375 19.8574 12.8096 19.0838 13.5832C18.3102 14.3568 17.8757 15.406 17.8757 16.5C17.8757 17.594 18.3102 18.6432 19.0838 19.4168C19.8574 20.1904 20.9066 20.625 22.0007 20.625C23.0947 20.625 24.1439 20.1904 24.9175 19.4168C25.6911 18.6432 26.1257 17.594 26.1257 16.5C26.1257 15.406 25.6911 14.3568 24.9175 13.5832C24.1439 12.8096 23.0947 12.375 22.0007 12.375ZM3.76899 18.435C4.71448 17.4895 5.99685 16.9583 7.33398 16.9583C8.67112 16.9583 9.95349 17.4895 10.899 18.435C11.8445 19.3805 12.3756 20.6629 12.3756 22C12.3756 23.3371 11.8445 24.6195 10.899 25.565C9.95349 26.5105 8.67112 27.0417 7.33398 27.0417C6.23997 27.0417 5.19076 27.4763 4.41717 28.2499C3.64358 29.0234 3.20898 30.0726 3.20898 31.1667V33C3.20898 33.7594 2.59338 34.375 1.83398 34.375C1.07459 34.375 0.458984 33.7594 0.458984 33V31.1667C0.458984 29.3433 1.18331 27.5946 2.47263 26.3053C2.81898 25.959 3.19849 25.6534 3.60368 25.3917C2.76181 24.4658 2.29232 23.2571 2.29232 22C2.29232 20.6629 2.82349 19.3805 3.76899 18.435ZM7.33398 19.7083C6.7262 19.7083 6.1433 19.9498 5.71353 20.3795C5.28376 20.8093 5.04232 21.3922 5.04232 22C5.04232 22.6078 5.28376 23.1907 5.71353 23.6205C6.1433 24.0502 6.7262 24.2917 7.33398 24.2917C7.94177 24.2917 8.52467 24.0502 8.95444 23.6205C9.38421 23.1907 9.62565 22.6078 9.62565 22C9.62565 21.3922 9.38421 20.8093 8.95444 20.3795C8.52467 19.9498 7.94177 19.7083 7.33398 19.7083ZM33.1023 18.435C34.0478 17.4895 35.3302 16.9583 36.6673 16.9583C38.0044 16.9583 39.2868 17.4895 40.2323 18.435C41.1778 19.3805 41.709 20.6629 41.709 22C41.709 23.2571 41.2395 24.4658 40.3976 25.3917C40.8028 25.6534 41.1823 25.959 41.5287 26.3053C42.818 27.5946 43.5423 29.3433 43.5423 31.1667V33C43.5423 33.7594 42.9267 34.375 42.1673 34.375C41.4079 34.375 40.7923 33.7594 40.7923 33V31.1667C40.7923 30.0726 40.3577 29.0234 39.5841 28.2499C38.8105 27.4763 37.7613 27.0417 36.6673 27.0417C35.3302 27.0417 34.0478 26.5105 33.1023 25.565C32.1568 24.6195 31.6256 23.3371 31.6256 22C31.6256 20.6629 32.1568 19.3805 33.1023 18.435ZM36.6673 24.2917C37.2751 24.2917 37.858 24.0502 38.2878 23.6205C38.7175 23.1907 38.959 22.6078 38.959 22C38.959 21.3922 38.7175 20.8093 38.2878 20.3795C37.858 19.9498 37.2751 19.7083 36.6673 19.7083C36.0595 19.7083 35.4766 19.9498 35.0469 20.3795C34.6171 20.8093 34.3756 21.3922 34.3756 22C34.3756 22.6078 34.6171 23.1907 35.0469 23.6205C35.4766 24.0502 36.0595 24.2917 36.6673 24.2917Z" fill="#148783"/>
</g>
</svg>
