<svg width="18" height="18" viewBox="0 0 18 18" fill="none" xmlns="http://www.w3.org/2000/svg">
<path fill-rule="evenodd" clip-rule="evenodd" d="M2.12516 2.125V15.875H15.8752V2.125H2.12516ZM0.87516 2C0.87516 1.37868 1.37884 0.875 2.00016 0.875H16.0002C16.6215 0.875 17.1252 1.3787 17.1252 2V16C17.1252 16.6213 16.6215 17.125 16.0002 17.125H2.00016C1.37886 17.125 0.87516 16.6214 0.87516 16V2Z" fill="#575775"/>
<path fill-rule="evenodd" clip-rule="evenodd" d="M7.08729 9.25887C7.24885 9.18963 7.4321 9.19162 7.59212 9.26435L16.7588 13.431C17.073 13.5739 17.212 13.9444 17.0691 14.2586C16.9263 14.5729 16.5558 14.7118 16.2415 14.569L7.32607 10.5165L1.74636 12.9078C1.42909 13.0438 1.06167 12.8968 0.925695 12.5795C0.789722 12.2623 0.936692 11.8948 1.25396 11.7589L7.08729 9.25887Z" fill="#575775"/>
<path fill-rule="evenodd" clip-rule="evenodd" d="M12.3335 4.625C11.7582 4.625 11.2918 5.09136 11.2918 5.66667C11.2918 6.24197 11.7582 6.70833 12.3335 6.70833C12.9088 6.70833 13.3752 6.24197 13.3752 5.66667C13.3752 5.09136 12.9088 4.625 12.3335 4.625ZM10.0418 5.66667C10.0418 4.40102 11.0678 3.375 12.3335 3.375C13.5992 3.375 14.6252 4.40102 14.6252 5.66667C14.6252 6.93231 13.5992 7.95833 12.3335 7.95833C11.0678 7.95833 10.0418 6.93231 10.0418 5.66667Z" fill="#575775"/>
</svg>
