<svg width="18" height="18" viewBox="0 0 18 18" fill="none" xmlns="http://www.w3.org/2000/svg">
<path fill-rule="evenodd" clip-rule="evenodd" d="M0.0410156 8.99996C0.0410156 4.05241 4.0518 0.041626 8.99935 0.041626C13.9469 0.041626 17.9577 4.0524 17.9577 8.99996C17.9577 13.9475 13.9469 17.9583 8.99935 17.9583C4.05179 17.9583 0.0410156 13.9475 0.0410156 8.99996ZM8.99935 1.29163C4.74215 1.29163 1.29102 4.74276 1.29102 8.99996C1.29102 13.2571 4.74215 16.7083 8.99935 16.7083C13.2565 16.7083 16.7077 13.2571 16.7077 8.99996C16.7077 4.74276 13.2565 1.29163 8.99935 1.29163ZM9.42581 4.7845C9.68237 5.01542 9.70315 5.4106 9.47222 5.66716L9.46389 5.67642C9.23296 5.93298 8.83778 5.95376 8.58122 5.72283C8.32467 5.49191 8.30389 5.09673 8.53481 4.84017L8.54314 4.83091C8.77407 4.57435 9.16925 4.55357 9.42581 4.7845ZM8.99935 7.95829C9.34453 7.95829 9.62435 8.23812 9.62435 8.58329V12.75C9.62435 13.0951 9.34453 13.375 8.99935 13.375C8.65417 13.375 8.37435 13.0951 8.37435 12.75V8.58329C8.37435 8.23812 8.65417 7.95829 8.99935 7.95829Z" fill="#575775"/>
</svg>
