<svg width="18" height="18" viewBox="0 0 18 18" fill="none" xmlns="http://www.w3.org/2000/svg">
<path fill-rule="evenodd" clip-rule="evenodd" d="M0.0410156 8.99999C0.0410156 4.05244 4.0518 0.0416565 8.99935 0.0416565C13.9469 0.0416565 17.9577 4.05243 17.9577 8.99999C17.9577 13.9475 13.9469 17.9583 8.99935 17.9583C4.05179 17.9583 0.0410156 13.9475 0.0410156 8.99999ZM8.99935 1.29166C4.74215 1.29166 1.29102 4.74279 1.29102 8.99999C1.29102 13.2571 4.74215 16.7083 8.99935 16.7083C13.2565 16.7083 16.7077 13.2571 16.7077 8.99999C16.7077 4.74279 13.2565 1.29166 8.99935 1.29166ZM9.42581 4.78453C9.68237 5.01545 9.70315 5.41063 9.47222 5.66719L9.46389 5.67645C9.23296 5.93301 8.83778 5.95379 8.58122 5.72286C8.32467 5.49194 8.30389 5.09676 8.53481 4.8402L8.54314 4.83094C8.77407 4.57438 9.16925 4.5536 9.42581 4.78453ZM8.99935 7.95832C9.34453 7.95832 9.62435 8.23815 9.62435 8.58332V12.75C9.62435 13.0952 9.34453 13.375 8.99935 13.375C8.65417 13.375 8.37435 13.0952 8.37435 12.75V8.58332C8.37435 8.23815 8.65417 7.95832 8.99935 7.95832Z" fill="#262541"/>
</svg>
