<svg width="124" height="70" viewBox="0 0 124 70" fill="none" xmlns="http://www.w3.org/2000/svg">
<path d="M117 46.5C117 45.6716 117.362 45 117.808 45H123.192C123.638 45 124 45.6716 124 46.5C124 47.3284 123.638 48 123.192 48H117.808C117.362 48 117 47.3284 117 46.5Z" fill="#8A8AA8"/>
<path d="M108 26.5C108 25.6716 108.362 25 108.808 25H114.192C114.638 25 115 25.6716 115 26.5C115 27.3284 114.638 28 114.192 28H108.808C108.362 28 108 27.3284 108 26.5Z" fill="#8A8AA8"/>
<path d="M101 62.5C101 61.6716 101.672 61 102.5 61H112.5C113.328 61 114 61.6716 114 62.5C114 63.3284 113.328 64 112.5 64H102.5C101.672 64 101 63.3284 101 62.5Z" fill="#8A8AA8"/>
<path d="M0 39.5C0 38.6716 0.361616 38 0.807692 38H6.19231C6.63838 38 7 38.6716 7 39.5C7 40.3284 6.63838 41 6.19231 41H0.807692C0.361616 41 0 40.3284 0 39.5Z" fill="#8A8AA8"/>
<path d="M14 59.5C14 58.6716 14.3616 58 14.8077 58H20.1923C20.6384 58 21 58.6716 21 59.5C21 60.3284 20.6384 61 20.1923 61H14.8077C14.3616 61 14 60.3284 14 59.5Z" fill="#8A8AA8"/>
<path d="M8 23.5C8 22.6716 8.67157 22 9.5 22H19.5C20.3284 22 21 22.6716 21 23.5C21 24.3284 20.3284 25 19.5 25H9.5C8.67157 25 8 24.3284 8 23.5Z" fill="#8A8AA8"/>
<rect x="33.5" y="10.5" width="59" height="59" rx="7.5" fill="#F9F9FC"/>
<path fill-rule="evenodd" clip-rule="evenodd" d="M49.875 34C49.875 30.065 53.065 26.875 57 26.875C60.935 26.875 64.125 30.065 64.125 34C64.125 36.3254 63.0109 38.3907 61.2874 39.6912C65.5858 41.3976 68.625 45.5939 68.625 50.5V52C68.625 52.6213 68.1213 53.125 67.5 53.125C66.8787 53.125 66.375 52.6213 66.375 52V50.5C66.375 45.3223 62.1777 41.125 57 41.125C51.8223 41.125 47.625 45.3223 47.625 50.5V52C47.625 52.6213 47.1213 53.125 46.5 53.125C45.8787 53.125 45.375 52.6213 45.375 52V50.5C45.375 45.5939 48.4142 41.3976 52.7126 39.6912C50.9891 38.3907 49.875 36.3254 49.875 34ZM57 29.125C54.3076 29.125 52.125 31.3076 52.125 34C52.125 36.6923 54.3076 38.875 57 38.875C59.6923 38.875 61.875 36.6923 61.875 34C61.875 31.3076 59.6923 29.125 57 29.125ZM75 31.375C75.6213 31.375 76.125 31.8787 76.125 32.5V35.875H79.5C80.1213 35.875 80.625 36.3787 80.625 37C80.625 37.6213 80.1213 38.125 79.5 38.125H76.125V41.5C76.125 42.1213 75.6213 42.625 75 42.625C74.3787 42.625 73.875 42.1213 73.875 41.5V38.125H70.5C69.8787 38.125 69.375 37.6213 69.375 37C69.375 36.3787 69.8787 35.875 70.5 35.875H73.875V32.5C73.875 31.8787 74.3787 31.375 75 31.375Z" fill="#575775"/>
<rect x="75" width="28" height="28" rx="14" fill="white"/>
<path fill-rule="evenodd" clip-rule="evenodd" d="M79.75 14C79.75 8.89136 83.8914 4.75 89 4.75C94.1086 4.75 98.25 8.89137 98.25 14C98.25 19.1086 94.1086 23.25 89 23.25C83.8914 23.25 79.75 19.1086 79.75 14ZM89.5118 8.94144C89.8196 9.21855 89.8446 9.69277 89.5674 10.0006L89.5574 10.0118C89.2803 10.3196 88.8061 10.3446 88.4983 10.0674C88.1904 9.79034 88.1654 9.31612 88.4426 9.00825L88.4526 8.99714C88.7297 8.68927 89.2039 8.66433 89.5118 8.94144ZM89 12.75C89.4142 12.75 89.75 13.0858 89.75 13.5V18.5C89.75 18.9142 89.4142 19.25 89 19.25C88.5858 19.25 88.25 18.9142 88.25 18.5V13.5C88.25 13.0858 88.5858 12.75 89 12.75Z" fill="#262541"/>
<path fill-rule="evenodd" clip-rule="evenodd" d="M78.25 14C78.25 8.06294 83.0629 3.25 89 3.25C94.937 3.25 99.75 8.06293 99.75 14C99.75 19.937 94.937 24.75 89 24.75C83.0629 24.75 78.25 19.937 78.25 14ZM89 4.75C83.8914 4.75 79.75 8.89136 79.75 14C79.75 19.1086 83.8914 23.25 89 23.25C94.1086 23.25 98.25 19.1086 98.25 14C98.25 8.89137 94.1086 4.75 89 4.75Z" fill="#262541"/>
<rect x="33.5" y="10.5" width="59" height="59" rx="7.5" stroke="#DFDEED"/>
</svg>
