<svg width="18" height="8" viewBox="0 0 18 8" fill="none" xmlns="http://www.w3.org/2000/svg">
<path fill-rule="evenodd" clip-rule="evenodd" d="M10.0911 3.37496C10.3907 1.4858 12.0269 0.041626 14.0003 0.041626C16.1864 0.041626 17.9587 1.81383 17.9587 3.99996C17.9587 6.18605 16.1864 7.95829 14.0003 7.95829C12.0269 7.95829 10.3907 6.51409 10.0911 4.62496H4.62533V6.49996C4.62533 6.84514 4.3455 7.12496 4.00033 7.12496C3.65515 7.12496 3.37533 6.84514 3.37533 6.49996V4.62496H1.29199V6.49996C1.29199 6.84514 1.01217 7.12496 0.666992 7.12496C0.321814 7.12496 0.0419922 6.84514 0.0419922 6.49996V3.99996C0.0419922 3.65478 0.321814 3.37496 0.666992 3.37496H10.0911ZM14.0003 1.29163C12.5046 1.29163 11.292 2.50419 11.292 3.99996C11.292 5.4957 12.5046 6.70829 14.0003 6.70829C15.4961 6.70829 16.7087 5.4957 16.7087 3.99996C16.7087 2.50419 15.4961 1.29163 14.0003 1.29163Z" fill="white"/>
</svg>
