<svg width="14" height="18" viewBox="0 0 14 18" fill="none" xmlns="http://www.w3.org/2000/svg">
<path fill-rule="evenodd" clip-rule="evenodd" d="M7 2.0625C3.99695 2.0625 1.5625 4.49695 1.5625 7.5C1.5625 8.18048 1.87866 9.05318 2.42765 10.0283C2.96815 10.9883 3.6962 11.9818 4.43558 12.8867C5.17323 13.7895 5.9124 14.5922 6.46792 15.1698C6.6742 15.3843 6.85475 15.5673 7 15.7125C7.14525 15.5673 7.3258 15.3843 7.53208 15.1698C8.0876 14.5922 8.82677 13.7895 9.56442 12.8867C10.3038 11.9818 11.0318 10.9883 11.5723 10.0283C12.1213 9.05318 12.4375 8.18048 12.4375 7.5C12.4375 4.49695 10.0031 2.0625 7 2.0625ZM7 16.5C6.61307 16.9083 6.61288 16.9081 6.61288 16.9081L6.60778 16.9033L6.59395 16.8901L6.54178 16.8399C6.49647 16.7961 6.43057 16.732 6.34702 16.6495C6.17995 16.4846 5.94212 16.246 5.65708 15.9497C5.0876 15.3575 4.32677 14.5316 3.56442 13.5986C2.8038 12.6677 2.03185 11.6183 1.44735 10.5802C0.871336 9.55711 0.4375 8.47639 0.4375 7.5C0.4375 3.87563 3.37563 0.9375 7 0.9375C10.6244 0.9375 13.5625 3.87563 13.5625 7.5C13.5625 8.47639 13.1287 9.55711 12.5527 10.5802C11.9682 11.6183 11.1962 12.6677 10.4356 13.5986C9.67323 14.5316 8.9124 15.3575 8.34292 15.9497C8.05788 16.246 7.82005 16.4846 7.65298 16.6495C7.56943 16.732 7.50353 16.7961 7.45822 16.8399L7.40605 16.8901L7.39222 16.9033L7.38849 16.9068L7.38744 16.9078C7.38744 16.9078 7.38693 16.9083 7 16.5ZM7 16.5L7.38744 16.9078L7 17.275L6.61288 16.9081L7 16.5Z" fill="#262541"/>
<path fill-rule="evenodd" clip-rule="evenodd" d="M5.6875 7.5C5.6875 6.77514 6.27511 6.1875 7 6.1875C7.72489 6.1875 8.3125 6.77514 8.3125 7.5C8.3125 8.22488 7.72488 8.8125 7 8.8125C6.27512 8.8125 5.6875 8.22488 5.6875 7.5Z" fill="#262541"/>
</svg>
