<svg width="18" height="18" viewBox="0 0 18 18" fill="none" xmlns="http://www.w3.org/2000/svg">
<path fill-rule="evenodd" clip-rule="evenodd" d="M1.05806 1.05806C1.30214 0.813981 1.69786 0.813981 1.94194 1.05806L16.9419 16.0581C17.186 16.3021 17.186 16.6979 16.9419 16.9419C16.6979 17.186 16.3021 17.186 16.0581 16.9419L14.5842 15.4681C14.4524 15.943 14.0169 16.2917 13.5 16.2917H4.5C3.8787 16.2917 3.375 15.788 3.375 15.1667V9.5C3.375 8.87864 3.8787 8.375 4.5 8.375H5.04167V5.92555L1.05806 1.94194C0.813981 1.69786 0.813981 1.30214 1.05806 1.05806ZM6.29167 7.17555V8.375H7.49112L6.29167 7.17555ZM8.72499 9.60888C8.67948 9.61942 8.63206 9.625 8.58333 9.625H4.625V15.0417H13.375V14.4167C13.375 14.3679 13.3806 14.3205 13.3911 14.275L8.72499 9.60888ZM7.17513 2.08929C7.68859 1.846 8.29476 1.70833 9 1.70833C10.537 1.70833 11.558 2.36276 12.1739 3.21814C12.7668 4.04166 12.9583 5.0111 12.9583 5.66667V8.375H13.5C14.1213 8.375 14.625 8.87866 14.625 9.5V9.83333C14.625 10.1785 14.3452 10.4583 14 10.4583C13.6548 10.4583 13.375 10.1785 13.375 9.83333V9.625H12.3333C11.9882 9.625 11.7083 9.34518 11.7083 9V5.66667C11.7083 5.21113 11.5665 4.5139 11.1595 3.94852C10.7753 3.41501 10.1296 2.95833 9 2.95833C8.46057 2.95833 8.03991 3.06275 7.71037 3.2189C7.39843 3.3667 7.02575 3.23364 6.87794 2.92171C6.73014 2.60978 6.8632 2.23709 7.17513 2.08929Z" fill="#262541"/>
</svg>
