<svg width="12" height="16" viewBox="0 0 12 16" fill="none" xmlns="http://www.w3.org/2000/svg">
<path fill-rule="evenodd" clip-rule="evenodd" d="M2.82612 2.21831C3.442 1.36293 4.46297 0.708496 6 0.708496C7.53703 0.708496 8.558 1.36293 9.17388 2.21831C9.7668 3.04182 9.95833 4.01126 9.95833 4.66683V7.37516H10.5C11.1213 7.37516 11.625 7.87882 11.625 8.50016V14.1668C11.625 14.7882 11.1213 15.2918 10.5 15.2918H1.5C0.8787 15.2918 0.375 14.7882 0.375 14.1668V8.50016C0.375 7.8788 0.8787 7.37516 1.5 7.37516H2.04167V4.66683C2.04167 4.01126 2.2332 3.04182 2.82612 2.21831ZM3.29167 7.37516H8.70833V4.66683C8.70833 4.21129 8.56653 3.51407 8.15946 2.94869C7.77533 2.41518 7.12963 1.9585 6 1.9585C4.87037 1.9585 4.22467 2.41518 3.84054 2.94869C3.43347 3.51407 3.29167 4.21129 3.29167 4.66683V7.37516ZM1.625 8.62516V14.0418H10.375V8.62516H1.625Z" fill="#262541"/>
</svg>
