<svg width="52" height="44" viewBox="0 0 52 44" fill="none" xmlns="http://www.w3.org/2000/svg">
<g clip-path="url(#clip0_3774_12971)">
<path d="M19.9486 37.2018L19.5831 37.1874C14.9749 37.08 10.5926 35.1979 7.37445 31.944C4.15631 28.6902 2.35824 24.3232 2.36525 19.7784C2.36525 10.1748 10.2761 2.36037 19.9979 2.36037C29.7198 2.36037 37.6343 10.1748 37.6343 19.7784C37.6343 23.6541 36.229 27.4901 33.4587 31.182C31.6626 33.5373 29.5418 35.6338 27.1577 37.4108C26.4999 37.9099 25.8183 38.382 25.1366 38.8162C23.4958 39.8599 21.7588 40.7485 19.9486 41.4703V37.2018Z" fill="#988CDA"/>
<path d="M19.998 2.72072C24.5807 2.72979 28.9727 4.53076 32.2105 7.72855C35.4483 10.9263 37.2674 15.2598 37.2688 19.7784C37.2688 23.5748 35.8873 27.3459 33.1645 30.9676C31.39 33.2962 29.2937 35.3686 26.9367 37.1243C26.2861 37.6162 25.6136 38.0847 24.9375 38.5135C23.4695 39.4487 21.9227 40.2577 20.3141 40.9315V37.5387V36.845L19.5996 36.8288C15.0852 36.7257 10.7913 34.8831 7.63814 31.696C4.48496 28.5088 2.72334 24.2307 2.73077 19.7784C2.73077 10.373 10.4772 2.72072 19.998 2.72072ZM19.998 2C15.2573 2.00747 10.7103 3.85569 7.34151 7.14451C3.97274 10.4333 2.0533 14.898 1.99875 19.572C1.94421 24.246 3.75896 28.7531 7.05009 32.1175C10.3412 35.4818 14.8439 37.4327 19.5832 37.5477V42C21.5957 41.237 23.5229 40.2709 25.334 39.1171C26.0357 38.6727 26.718 38.1988 27.3807 37.6955C29.79 35.8937 31.9345 33.7714 33.7529 31.3892C36.2985 28.0054 37.9998 24.0613 37.9998 19.7784C38.002 17.4455 37.538 15.1351 36.6345 12.979C35.7309 10.823 34.4055 8.86353 32.7338 7.21261C31.0621 5.56169 29.077 4.25162 26.8917 3.35723C24.7065 2.46285 22.364 2.00166 19.998 2V2Z" fill="white"/>
<path fill-rule="evenodd" clip-rule="evenodd" d="M19.9995 9.56397C14.2872 9.56397 9.65638 14.1299 9.65638 19.7622C9.65638 25.3945 14.2872 29.9604 19.9995 29.9604C25.7119 29.9604 30.3427 25.3945 30.3427 19.7622C30.3427 14.1299 25.7119 9.56397 19.9995 9.56397ZM8.74268 19.7622C8.74268 13.6323 13.7825 8.66307 19.9995 8.66307C26.2165 8.66307 31.2564 13.6323 31.2564 19.7622C31.2564 25.892 26.2165 30.8613 19.9995 30.8613C13.7825 30.8613 8.74268 25.892 8.74268 19.7622Z" fill="white"/>
<path d="M25.2463 15.6937C24.1983 14.379 22.6816 13.5072 21.0049 13.2559V9.32793L24.2321 7.54594C25.8516 8.08848 27.346 8.94217 28.6288 10.0577C28.6508 11.2817 28.6715 12.5069 28.691 13.7333L25.2463 15.6937Z" fill="white"/>
<path d="M24.2666 7.94594C25.7313 8.45812 27.0874 9.23268 28.2668 10.2306C28.2851 11.3309 28.3033 12.4318 28.3216 13.5333L25.3301 15.2378C24.3068 14.0606 22.9123 13.2561 21.3701 12.9532V9.53874L24.2666 7.94594ZM24.1935 7.16036L20.6392 9.11712V13.5748C21.5348 13.6639 22.4006 13.9412 23.1783 14.3882C23.9559 14.8351 24.6274 15.4413 25.1474 16.1658L29.0599 13.9387C29.0379 12.591 29.0154 11.2432 28.9923 9.89549L28.9831 9.88468C27.5984 8.6583 25.9706 7.72877 24.2026 7.15495L24.1935 7.16036Z" fill="white"/>
<path d="M26.2021 22.1892C26.8194 20.6518 26.8285 18.9419 26.2277 17.3982L29.6907 15.4252L32.843 17.2667C33.0156 18.1184 33.0989 18.9855 33.0915 19.854C33.0863 20.6801 33.0001 21.5038 32.8338 22.3135L29.6541 24.1622L26.2021 22.1892Z" fill="white"/>
<path d="M29.6888 15.8432L32.5176 17.4955C32.6628 18.2734 32.7332 19.0631 32.7278 19.8541C32.7233 20.6032 32.6499 21.3504 32.5085 22.0865L31.8269 22.4811L30.8803 23.0216L30.396 23.3045L29.6541 23.7333L26.6553 22.0234C27.1557 20.5768 27.1608 19.0083 26.6699 17.5586L29.6833 15.8432M29.6833 15.0072L25.7672 17.2432C26.1272 18.0471 26.3109 18.9169 26.3062 19.7957C26.3015 20.6744 26.1084 21.5423 25.7397 22.3423L29.6559 24.573L31.2494 23.6486L33.1572 22.5405C33.5535 20.7263 33.5572 18.85 33.1682 17.0342L29.6961 15.0036L29.6833 15.0072Z" fill="white"/>
<path d="M21.0049 30.191V26.2649C22.6592 26.0184 24.1593 25.1683 25.2079 23.8829L28.6617 25.8487L28.627 27.4703L28.585 29.5099C27.3144 30.6026 25.8403 31.441 24.2449 31.9784L21.0049 30.191Z" fill="white"/>
<path d="M25.2826 24.3423L28.285 26.0505L28.2723 26.591L28.254 27.4559C28.254 27.7063 28.2412 28.1189 28.2321 28.5369C28.2321 28.8198 28.2211 29.1045 28.2156 29.3387C27.6462 29.8152 27.0346 30.2403 26.3882 30.609C25.713 30.9973 25.0028 31.323 24.2666 31.582L22.7791 30.7586L21.3701 29.9802V26.5676C22.8873 26.2711 24.2627 25.4889 25.2826 24.3423ZM25.0999 23.409C24.5796 24.1181 23.9133 24.7108 23.1446 25.1483C22.3759 25.5858 21.5221 25.8582 20.6392 25.9478V30.4036L24.2008 32.3712C25.9522 31.8016 27.5654 30.8815 28.9393 29.6685C28.9502 29.1604 28.974 27.9802 28.9849 27.4721C28.9941 27.0613 29.0124 26.2108 29.0252 25.636L25.1054 23.4054L25.0999 23.409Z" fill="white"/>
<path d="M15.7712 31.9838C14.1781 31.4498 12.7053 30.6157 11.4348 29.5279L11.3928 27.4865C11.3818 27.0162 11.369 26.4054 11.3599 25.8649L14.81 23.8955C15.8606 25.1771 17.3603 26.0238 19.0131 26.2685V30.191L15.7712 31.9838Z" fill="white"/>
<path d="M14.7296 24.3586C15.755 25.501 17.133 26.2791 18.6512 26.573V29.9802L15.7274 31.5892C14.2882 31.0864 12.9534 30.3306 11.7875 29.3586C11.7875 29.1171 11.7875 28.8541 11.7729 28.591C11.7637 28.2 11.7564 27.8054 11.7491 27.4757C11.7491 27.0685 11.729 26.5532 11.7199 26.0667L14.7205 24.3586M14.9032 23.427L10.9907 25.6559C11.0017 26.2487 11.0163 26.9622 11.0273 27.4937C11.0401 28.1405 11.0602 29.0487 11.073 29.6937C11.7721 30.3079 12.5354 30.8472 13.3499 31.3027C14.13 31.7454 14.9542 32.1077 15.8096 32.3838L19.3822 30.4126V25.9496C18.4977 25.8642 17.6415 25.5953 16.8699 25.1606C16.0983 24.7258 15.4287 24.135 14.905 23.427H14.9032Z" fill="white"/>
<path d="M7.16194 22.3171C6.82543 20.6491 6.82232 18.9323 7.1528 17.2631L9.00762 16.182L10.3197 15.4144L13.7772 17.3784C13.1666 18.934 13.1758 20.6598 13.8027 22.209L10.3563 24.1622L7.16194 22.3171Z" fill="white"/>
<path d="M10.3217 15.827L13.3296 17.5405C12.8309 19.003 12.8386 20.5874 13.3515 22.0451L10.3582 23.7496L8.98038 22.9496L7.4819 22.0901C7.32121 21.242 7.24956 20.3797 7.2681 19.5171C7.2846 18.8387 7.3561 18.1627 7.4819 17.4955L9.19419 16.4937L10.3235 15.8324M10.3235 14.9964C9.15947 15.6775 7.99175 16.3586 6.83135 17.0396C6.44904 18.8585 6.45278 20.7358 6.84231 22.5532L10.3601 24.5928L14.2653 22.3604C13.8921 21.555 13.6971 20.6805 13.6933 19.7951C13.6895 18.9097 13.877 18.0337 14.2433 17.2252L10.318 14.991L10.3235 14.9964Z" fill="white"/>
<path d="M11.3193 13.7117C11.3193 13.7117 11.3431 12.2811 11.3467 12.0811C11.3467 11.6486 11.3723 10.591 11.3815 10.0378C12.667 8.92703 14.1633 8.07881 15.7837 7.54234L19.0182 9.32793V13.2523C17.3387 13.4969 15.8175 14.3651 14.7658 15.6793L11.3193 13.7117Z" fill="white"/>
<path d="M15.7473 7.93514L17.2421 8.76036L18.651 9.54054V12.9477C17.1082 13.2445 15.7107 14.0426 14.6819 15.2144L11.6849 13.5135C11.6849 13.3477 11.6849 13.1766 11.6849 13.009C11.6849 12.6486 11.6959 12.2883 11.6996 12.0973C11.6996 11.7027 11.7233 10.7892 11.7325 10.2108C12.9151 9.21199 14.2768 8.44016 15.7473 7.93514ZM15.8222 7.14955C14.0442 7.71657 12.4077 8.64739 11.0198 9.88108C11.0198 10.3604 10.9924 11.6036 10.9832 12.0829C10.9832 12.4667 10.9613 13.3441 10.9521 13.9243L14.8628 16.1496C15.3852 15.4261 16.059 14.8216 16.8386 14.3768C17.6182 13.932 18.4855 13.6573 19.382 13.5712V9.11712L15.8222 7.14955Z" fill="white"/>
</g>
<rect x="31.25" y="33.25" width="9.5" height="9.5" rx="4.75" fill="#1CCD62" stroke="white" stroke-width="1.5"/>
<rect x="26" y="22" width="20" height="20" rx="10" fill="white"/>
<g clip-path="url(#clip1_3774_12971)">
<path fill-rule="evenodd" clip-rule="evenodd" d="M27.9375 32C27.9375 27.5472 31.5472 23.9375 36 23.9375C40.4528 23.9375 44.0625 27.5472 44.0625 32C44.0625 36.4528 40.4528 40.0625 36 40.0625C31.5472 40.0625 27.9375 36.4528 27.9375 32ZM36 25.0625C32.1685 25.0625 29.0625 28.1685 29.0625 32C29.0625 35.8314 32.1685 38.9375 36 38.9375C39.8314 38.9375 42.9375 35.8314 42.9375 32C42.9375 28.1685 39.8314 25.0625 36 25.0625Z" fill="#71BA12"/>
<path fill-rule="evenodd" clip-rule="evenodd" d="M29.0625 32C29.0625 28.1685 32.1685 25.0625 36 25.0625C39.8314 25.0625 42.9375 28.1685 42.9375 32C42.9375 35.8314 39.8314 38.9375 36 38.9375C32.1685 38.9375 29.0625 35.8314 29.0625 32ZM40.1477 28.9773C40.3674 29.1969 40.3674 29.5531 40.1477 29.7727L34.8977 35.0227C34.6781 35.2424 34.3219 35.2424 34.1023 35.0227L31.8523 32.7727C31.6326 32.5531 31.6326 32.1969 31.8523 31.9773C32.0719 31.7576 32.4281 31.7576 32.6477 31.9773L34.5 33.8295L39.3523 28.9773C39.5719 28.7576 39.9281 28.7576 40.1477 28.9773Z" fill="#71BA12"/>
</g>
<defs>
<clipPath id="clip0_3774_12971">
<rect width="36" height="40" fill="white" transform="translate(2 2)"/>
</clipPath>
<clipPath id="clip1_3774_12971">
<rect width="18" height="18" fill="white" transform="translate(27 23)"/>
</clipPath>
</defs>
</svg>
