<svg width="18" height="18" viewBox="0 0 18 18" fill="none" xmlns="http://www.w3.org/2000/svg">
<path d="M14.3357 10.9846V9.50269C11.1435 11.3312 8.09359 13.0778 4.89706 14.9077C4.46466 15.6469 4.03226 16.361 3.59985 17.0999L14.3357 10.9846Z" fill="#575775"/>
<path d="M7.21473 6.86386L3.59985 8.95055V7.46108L5.92257 6.12109C6.35245 6.36856 6.78485 6.61496 7.21473 6.86386Z" fill="#575775"/>
<path d="M7.21473 6.8639L5.92509 7.6081L3.59985 6.27527L4.89706 5.52856C5.66962 5.97272 6.44217 6.41784 7.21473 6.8639Z" fill="#575775"/>
<path d="M4.90102 12.4452L3.59985 11.7246V17.0999L4.89418 16.3625L4.90102 12.4452Z" fill="#575775"/>
<path d="M14.3357 7.05652C11.1932 8.84639 8.04278 10.6534 4.9003 12.4433L3.59985 11.7245C6.74305 9.92961 9.8949 8.11042 13.0381 6.31519L14.3357 7.05652Z" fill="#575775"/>
<path d="M4.89706 5.52852L4.90246 1.64625L3.6748 0.943531L3.59985 0.899902V6.27522L4.89706 5.52852Z" fill="#575775"/>
<path d="M14.3357 7.05662C13.9033 7.30409 13.4748 7.54726 13.0421 7.79473L11.7391 7.04589L3.59985 2.3858V0.899902C7.17918 2.9488 10.7578 5.00104 14.3357 7.05662Z" fill="#575775"/>
<path opacity="0.16" d="M3.59985 2.38574L4.89886 3.12958V3.37455L3.59985 2.38574Z" fill="#575775"/>
<path opacity="0.16" d="M4.63035 6.86597L5.92504 7.60838L4.4646 6.96073L4.63035 6.86597Z" fill="#575775"/>
<path opacity="0.16" d="M11.7507 7.05273L13.0407 7.79479L11.5781 7.15108L11.7507 7.05273Z" fill="#575775"/>
<path opacity="0.16" d="M5.08562 14.7998C5.02581 15.3266 4.95482 15.8369 4.89429 16.3626C4.89429 15.8701 4.89717 15.401 4.89717 14.9078L5.08562 14.7998Z" fill="#575775"/>
</svg>
