<svg width="16" height="20" viewBox="0 0 16 20" fill="none" xmlns="http://www.w3.org/2000/svg">
<path fill-rule="evenodd" clip-rule="evenodd" d="M11.4697 6.46967C11.7626 6.17678 12.2374 6.17678 12.5303 6.46967L15.5303 9.46967C15.6022 9.54158 15.6565 9.62445 15.6931 9.71291C15.7298 9.80134 15.75 9.89831 15.75 10C15.75 10.1017 15.7298 10.1987 15.6931 10.2871C15.6565 10.3755 15.6022 10.4584 15.5303 10.5303L12.5303 13.5303C12.2374 13.8232 11.7626 13.8232 11.4697 13.5303C11.1768 13.2374 11.1768 12.7626 11.4697 12.4697L13.1893 10.75H8C7.58579 10.75 7.25 10.4142 7.25 10C7.25 9.58579 7.58579 9.25 8 9.25H13.1893L11.4697 7.53033C11.1768 7.23744 11.1768 6.76256 11.4697 6.46967Z" fill="#262541"/>
<path fill-rule="evenodd" clip-rule="evenodd" d="M0.25 3C0.25 1.48122 1.48122 0.25 3 0.25H13C14.5188 0.25 15.75 1.48122 15.75 3V4C15.75 4.41421 15.4142 4.75 15 4.75C14.5858 4.75 14.25 4.41421 14.25 4V3C14.25 2.30964 13.6904 1.75 13 1.75H3C2.30964 1.75 1.75 2.30964 1.75 3V17C1.75 17.6904 2.30964 18.25 3 18.25H13C13.6904 18.25 14.25 17.6904 14.25 17V16C14.25 15.5858 14.5858 15.25 15 15.25C15.4142 15.25 15.75 15.5858 15.75 16V17C15.75 18.5188 14.5188 19.75 13 19.75H3C1.48122 19.75 0.25 18.5188 0.25 17V3Z" fill="#262541"/>
</svg>
