<svg width="112" height="13" viewBox="0 0 112 13" fill="none" xmlns="http://www.w3.org/2000/svg">
<path d="M13.224 5.104H11.8V4.912C11.8 3.6 11.656 3.12 11.56 2.848C11.288 2.048 10.824 1.456 9.976 1.152C9.576 1.008 8.888 0.863999 7.992 0.863999L0.264 0.879999V12.064L9.432 12.08C10.328 12.08 11.016 11.952 11.416 11.792C12.264 11.488 12.76 10.896 13 10.096C13.08 9.824 13.24 9.344 13.24 8.048L13.224 5.104ZM8.824 4.896V5.104H3.24V3.312H7.448C8.6 3.312 8.824 4 8.824 4.896ZM8.888 9.632H3.24V7.552H10.264V8.048C10.264 8.944 10.024 9.632 8.888 9.632ZM18.3181 9.568V0.815999H15.3421V12H26.4461V9.568H18.3181ZM37.4521 0.879999H30.5721L27.1801 12.064H30.2201L31.0041 9.472H37.0201L37.8041 12.064H40.8441L37.4521 0.879999ZM35.1641 3.328L36.2201 6.88H31.8041L32.8601 3.328H35.1641ZM42.4828 0.815999V12H45.4908V3.408L50.5628 12H55.4588V0.815999H52.4508V9.408L47.3308 0.815999H42.4828ZM70.9584 5.104H69.5344V4.912C69.5344 3.6 69.3904 3.12 69.2944 2.848C69.0224 2.048 68.5584 1.456 67.7104 1.152C67.3104 1.008 66.6224 0.863999 65.7264 0.863999L57.9984 0.879999V12.064L67.1664 12.08C68.0624 12.08 68.7504 11.952 69.1504 11.792C69.9984 11.488 70.4944 10.896 70.7344 10.096C70.8144 9.824 70.9744 9.344 70.9744 8.048L70.9584 5.104ZM66.5584 4.896V5.104H60.9744V3.312H65.1824C66.3344 3.312 66.5584 4 66.5584 4.896ZM66.6224 9.632H60.9744V7.552H67.9984V8.048C67.9984 8.944 67.7584 9.632 66.6224 9.632ZM82.4365 0.879999H75.5565L72.1645 12.064H75.2045L75.9885 9.472H82.0045L82.7885 12.064H85.8285L82.4365 0.879999ZM80.1485 3.328L81.2045 6.88H76.7885L77.8445 3.328H80.1485ZM90.4431 9.568V0.815999H87.4671V12H98.5711V9.568H90.4431ZM103.193 9.568V0.815999H100.217V12H111.321V9.568H103.193Z" fill="#C3305C"/>
</svg>
