<svg width="16" height="16" viewBox="0 0 16 16" fill="none" xmlns="http://www.w3.org/2000/svg">
<path fill-rule="evenodd" clip-rule="evenodd" d="M10.709 1.33334C10.709 0.988166 10.9888 0.708344 11.334 0.708344H14.6672C14.6673 0.708344 14.6672 0.708344 14.6672 0.708344C14.7529 0.708344 14.8345 0.725557 14.9088 0.756715C14.9826 0.787665 15.0493 0.832374 15.1055 0.887632C15.1082 0.890362 15.111 0.893119 15.1137 0.8959C15.1693 0.952669 15.2142 1.02001 15.2451 1.09462C15.2716 1.15879 15.2878 1.22834 15.2915 1.30118C15.292 1.31183 15.2923 1.32256 15.2923 1.33334V4.66668C15.2923 5.01185 15.0125 5.29168 14.6673 5.29168C14.3221 5.29168 14.0423 5.01185 14.0423 4.66668V2.83841L10.7219 6.14695C11.4955 7.1103 11.959 8.33477 11.959 9.66668C11.959 12.7733 9.44058 15.2917 6.33398 15.2917C3.22738 15.2917 0.708984 12.7733 0.708984 9.66668C0.708984 6.56008 3.22738 4.04168 6.33398 4.04168C7.65782 4.04168 8.87563 4.49961 9.83628 5.2648L13.1546 1.95834H11.334C10.9888 1.95834 10.709 1.67852 10.709 1.33334ZM9.41972 6.56527C8.62802 5.77748 7.53832 5.29168 6.33398 5.29168C3.91774 5.29168 1.95898 7.25044 1.95898 9.66668C1.95898 12.0829 3.91774 14.0417 6.33398 14.0417C8.75022 14.0417 10.709 12.0829 10.709 9.66668C10.709 8.45457 10.2166 7.35831 9.41972 6.56527Z" fill="#262541"/>
</svg>
