<svg width="40" height="40" viewBox="0 0 40 40" fill="none" xmlns="http://www.w3.org/2000/svg">
<rect width="40" height="40" rx="6" fill="#EFEFF6"/>
<path fill-rule="evenodd" clip-rule="evenodd" d="M24.2331 16.0443C26.7936 15.9379 29.5417 16.3362 32.8805 17.2983L32.8803 17.2984C33.1109 17.3646 33.2691 17.5755 33.2691 17.8144V27.0208C33.2691 27.19 33.1893 27.3481 33.0545 27.45C32.9197 27.5517 32.7455 27.5836 32.5839 27.5369C29.843 26.7463 27.5251 26.3517 25.3924 26.3125L25.3922 26.3125L25.3922 26.3125C25.3702 26.3161 25.3469 26.3198 25.3239 26.3198C25.2882 26.3198 25.2539 26.3148 25.2195 26.3088C24.9034 26.305 24.5895 26.31 24.2795 26.3236C22.6947 26.3891 21.0881 26.6733 19.5329 26.9484L19.4965 26.9548L19.4774 26.9582C18.444 27.1409 17.3781 27.3293 16.3122 27.4561C16.2595 27.4731 16.203 27.4854 16.1443 27.4854C16.1356 27.4854 16.1269 27.4842 16.118 27.4829C16.1146 27.4825 16.1111 27.482 16.1076 27.4815C16.106 27.4813 16.1044 27.4812 16.1028 27.481C16.1015 27.4809 16.1002 27.4807 16.0988 27.4806C16.0927 27.4814 16.0865 27.4822 16.0805 27.483C16.0588 27.4858 16.0377 27.4885 16.0168 27.4904C15.1808 27.5811 14.3951 27.6265 13.6512 27.6265C13.4549 27.6265 13.2639 27.6227 13.0739 27.6167C13.0382 27.624 13.0016 27.6277 12.9647 27.6277C12.9145 27.6277 12.8678 27.619 12.8226 27.6069C12.1803 27.5763 11.5686 27.5088 10.9838 27.4033C9.81569 27.1938 6.7207 26.6361 6.7207 24.6884V15.3556C6.7207 14.7171 7.14113 13.8087 9.14902 13.11C10.5378 12.6258 12.3738 12.36 14.319 12.36C18.8522 12.36 21.1835 13.235 21.8012 13.9852C22.071 14.3112 22.1016 14.6287 22.071 14.8554V16.27C22.8345 16.1572 23.5614 16.0727 24.2331 16.0443ZM19.0705 13.886C17.7736 13.5942 16.0859 13.4325 14.3195 13.4325L14.3196 13.4324C10.0354 13.4324 7.79373 14.6839 7.78998 15.3555C7.78998 16.0272 10.0306 17.2787 14.3158 17.2787H14.3171H14.3194C16.0628 17.2909 18.028 16.9511 19.9315 16.622L19.9397 16.6206C20.0076 16.6089 20.0753 16.5972 20.1429 16.5855L20.143 16.5855L20.1431 16.5855L20.1434 16.5854L20.1436 16.5854C20.4306 16.5358 20.7143 16.4869 20.9938 16.4403V15.9426C18.9442 16.7185 14.4018 16.7112 14.3453 16.7099C12.6476 16.7099 10.6118 16.4843 10.0001 15.8299C9.80154 15.6166 9.77091 15.3997 9.7807 15.255C9.80881 14.8443 10.0332 14.3517 12.0078 14.0502C12.9207 13.96 12.6407 14 13.377 14C13.6734 14.0173 13.8978 14.1494 13.8807 14.4448C13.8634 14.7415 13.5807 14.86 13.3207 14.86C11.4767 14.86 11.3128 14.86 11.3128 15.2759C11.3128 15.7577 12.9613 15.635 14.3501 15.635C14.9863 15.6363 16.5919 15.5984 18.1205 15.4329C20.393 15.1865 20.9065 14.8346 21.0009 14.7477C21.0021 14.7422 21.0031 14.7364 21.004 14.7305C21.0049 14.7247 21.0059 14.7189 21.0071 14.7133C21.007 14.7133 21.0067 14.7127 21.0059 14.7114C20.9876 14.6798 20.746 14.2641 19.0705 13.886ZM32.1925 26.3116V18.2214C29.1439 17.3705 26.62 17.0201 24.2752 17.118C23.0716 17.1684 21.64 17.4159 20.1237 17.6782C18.1723 18.0153 16.1523 18.3609 14.3162 18.3511H14.315H14.3125C12.3685 18.3511 10.5348 18.0841 9.14602 17.601C8.57476 17.4012 8.13101 17.1856 7.79039 16.9637V24.6847C7.79039 25.2412 8.54409 25.6518 9.49161 25.9473V20.9647C9.49161 20.6681 9.73182 20.4279 10.0285 20.4279C10.3251 20.4279 10.5653 20.6681 10.5653 20.9647V26.2256C10.7689 26.2698 10.9712 26.3089 11.1685 26.3446C11.5718 26.4168 11.991 26.4683 12.4247 26.5027L13.4984 26.5504C14.1592 26.5565 14.8603 26.5223 15.6043 26.451V21.3104C15.6043 21.0138 15.8445 20.7735 16.1411 20.7735C16.4378 20.7735 16.678 21.0137 16.678 21.3104V26.3273C17.3215 26.2391 17.9676 26.1325 18.6048 26.0208L19.6785 25.832C20.3489 25.7143 21.0294 25.5968 21.7158 25.4987V20.2268C21.7158 19.9302 21.956 19.69 22.2525 19.69C22.5491 19.69 22.7893 19.9302 22.7893 20.2268V25.3639C23.2687 25.3112 23.7491 25.2708 24.232 25.2512C24.4147 25.2424 24.5997 25.2389 24.785 25.2364L25.8587 25.2512C26.4984 25.2768 27.1531 25.332 27.8285 25.4179V20.2256C27.8285 19.929 28.0687 19.6888 28.3653 19.6888C28.6618 19.6888 28.9022 19.9289 28.9022 20.2256V25.5771C29.9393 25.7534 31.0304 25.9958 32.1925 26.3116Z" fill="#575775"/>
</svg>
