<svg width="13" height="18" viewBox="0 0 13 18" fill="none" xmlns="http://www.w3.org/2000/svg">
<path fill-rule="evenodd" clip-rule="evenodd" d="M9.2067 0.0896075C9.5254 0.222187 9.67628 0.588023 9.5437 0.906724L8.67703 2.99006C8.54445 3.30876 8.17862 3.45964 7.85992 3.32706C7.54122 3.19448 7.39033 2.82864 7.52291 2.50994L8.38958 0.42661C8.52216 0.107909 8.888 -0.0429721 9.2067 0.0896075ZM12.2524 0.0949001C12.5682 0.234299 12.7111 0.603292 12.5717 0.919071L9.70913 7.40371C10.1707 7.65736 10.5983 7.97676 10.9775 8.35586C12.0323 9.41075 12.625 10.8415 12.625 12.3333C12.625 13.8252 12.0323 15.2559 10.9775 16.3108C9.92256 17.3657 8.49182 17.9583 6.99997 17.9583C5.50813 17.9583 4.07739 17.3657 3.0225 16.3108C1.96761 15.2559 1.37497 13.8252 1.37497 12.3333C1.37497 10.8415 1.96761 9.41075 3.0225 8.35586C3.3039 8.07446 3.61204 7.82596 3.94095 7.61282L0.607624 0.946176C0.453256 0.637439 0.578396 0.262018 0.887132 0.10765C1.19587 -0.0467182 1.57129 0.0784221 1.72566 0.387159L5.05899 7.05382C5.55788 6.8704 6.08344 6.75742 6.62058 6.72113L3.80075 0.94069C3.64941 0.630457 3.77822 0.25628 4.08845 0.104941C4.39868 -0.0463979 4.77286 0.0824112 4.9242 0.392644L8.0537 6.80789C8.22222 6.84003 8.38888 6.8798 8.55319 6.92701L11.4282 0.414264C11.5676 0.0984854 11.9366 -0.0444985 12.2524 0.0949001ZM6.99997 7.95833C5.83965 7.95833 4.72685 8.41927 3.90638 9.23974C3.08591 10.0602 2.62497 11.173 2.62497 12.3333C2.62497 13.4937 3.08591 14.6065 3.90638 15.4269C4.72685 16.2474 5.83965 16.7083 6.99997 16.7083C8.1603 16.7083 9.2731 16.2474 10.0936 15.4269C10.914 14.6065 11.375 13.4937 11.375 12.3333C11.375 11.173 10.914 10.0602 10.0936 9.23974C9.2731 8.41927 8.1603 7.95833 6.99997 7.95833Z" fill="#262541"/>
</svg>
