<svg width="18" height="15" viewBox="0 0 18 15" fill="#fff" xmlns="http://www.w3.org/2000/svg">
<path d="M8.14369 7.84558C7.48038 7.58225 6.75709 7.4375 6 7.4375C5.2429 7.4375 4.51961 7.58225 3.8563 7.84558C4.45276 8.29564 5.19522 8.5625 6 8.5625C6.80477 8.5625 7.54722 8.29564 8.14369 7.84558Z" fill="#fff"/>
<path d="M15.3611 5.60868C14.7977 5.3387 14.1665 5.1875 13.5 5.1875C12.8335 5.1875 12.2023 5.33871 11.6389 5.60868C12.1347 6.04669 12.7863 6.3125 13.5 6.3125C14.2137 6.3125 14.8653 6.04669 15.3611 5.60868Z" fill="#fff"/>
<path fill-rule="evenodd" clip-rule="evenodd" d="M10.6875 3.5C10.6875 1.94671 11.9467 0.6875 13.5 0.6875C15.0533 0.6875 16.3125 1.94671 16.3125 3.5C16.3125 4.33964 15.9446 5.09335 15.3611 5.60868C14.7977 5.3387 14.1665 5.1875 13.5 5.1875C14.432 5.1875 15.1875 4.43198 15.1875 3.5C15.1875 2.56802 14.432 1.8125 13.5 1.8125C12.568 1.8125 11.8125 2.56802 11.8125 3.5C11.8125 4.43198 12.568 5.1875 13.5 5.1875C12.8335 5.1875 12.2023 5.33871 11.6389 5.60868C11.0554 5.09335 10.6875 4.33964 10.6875 3.5ZM13.5 6.3125C12.7863 6.3125 12.1347 6.04669 11.6389 5.60868C10.4884 6.15994 9.62032 7.20639 9.3108 8.47194C8.94945 8.22109 8.55829 8.01017 8.14369 7.84558C9.00546 7.19535 9.5625 6.16271 9.5625 5C9.5625 3.03248 7.96748 1.4375 6 1.4375C4.03249 1.4375 2.4375 3.03249 2.4375 5C2.4375 6.16271 2.99453 7.19535 3.8563 7.84558C1.7071 8.6988 0.1875 10.7969 0.1875 13.25V14C0.1875 14.3107 0.43934 14.5625 0.75 14.5625C1.06066 14.5625 1.3125 14.3107 1.3125 14V13.25C1.3125 10.6612 3.41117 8.5625 6 8.5625C8.58884 8.5625 10.6875 10.6612 10.6875 13.25V14C10.6875 14.3107 10.9393 14.5625 11.25 14.5625C11.5607 14.5625 11.8125 14.3107 11.8125 14V13.25C11.8125 11.7523 11.246 10.3869 10.3157 9.35633C10.3908 7.66262 11.7878 6.3125 13.5 6.3125ZM10.3157 9.35633C10.0162 9.02458 9.67897 8.72753 9.3108 8.47194C9.23022 8.8014 9.1875 9.14571 9.1875 9.5C9.1875 9.81066 9.43934 10.0625 9.75 10.0625C10.0607 10.0625 10.3125 9.81066 10.3125 9.5C10.3125 9.45185 10.3136 9.40396 10.3157 9.35633ZM13.5 6.3125C15.2604 6.3125 16.6875 7.73961 16.6875 9.5V9.875C16.6875 10.1857 16.9393 10.4375 17.25 10.4375C17.5607 10.4375 17.8125 10.1857 17.8125 9.875V9.5C17.8125 7.78479 16.8111 6.30345 15.3611 5.60868C14.8653 6.04669 14.2137 6.3125 13.5 6.3125ZM6 7.4375C5.2429 7.4375 4.51961 7.58225 3.8563 7.84558C4.45276 8.29564 5.19522 8.5625 6 8.5625C6.80477 8.5625 7.54722 8.29564 8.14369 7.84558C7.48038 7.58225 6.75709 7.4375 6 7.4375ZM6 7.4375C7.34616 7.4375 8.4375 6.34616 8.4375 5C8.4375 3.65381 7.34617 2.5625 6 2.5625C4.65381 2.5625 3.5625 3.65381 3.5625 5C3.5625 6.34617 4.65381 7.4375 6 7.4375Z" fill="#fff"/>
<path d="M9.75 10.0625C10.0607 10.0625 10.3125 9.81066 10.3125 9.5C10.3125 9.45185 10.3136 9.40396 10.3157 9.35633C10.0162 9.02458 9.67897 8.72753 9.3108 8.47194C9.23022 8.8014 9.1875 9.14571 9.1875 9.5C9.1875 9.81066 9.43934 10.0625 9.75 10.0625Z" fill="#fff"/>
</svg>
