<svg width="18" height="18" viewBox="0 0 18 18" fill="none" xmlns="http://www.w3.org/2000/svg">
<path fill-rule="evenodd" clip-rule="evenodd" d="M3.16667 2.125C2.59137 2.125 2.125 2.59137 2.125 3.16667V15.5516L3.84488 13.4017C4.27977 12.8582 4.93819 12.5417 5.63437 12.5417H14.8333C15.4087 12.5417 15.875 12.0753 15.875 11.5V3.16667C15.875 2.59136 15.4086 2.125 14.8333 2.125H3.16667ZM1.90239 15.8298C1.90237 15.8298 1.90242 15.8298 1.90239 15.8298V15.8298ZM0.875 3.16667C0.875 1.90101 1.90101 0.875 3.16667 0.875H14.8333C16.099 0.875 17.125 1.90102 17.125 3.16667V11.5C17.125 12.7657 16.099 13.7917 14.8333 13.7917H5.63437C5.31795 13.7917 5.01866 13.9355 4.82097 14.1826C4.82096 14.1826 4.82097 14.1826 4.82097 14.1826L2.87848 16.6107C2.21418 17.4411 0.875 16.9714 0.875 15.9079V3.16667ZM4.20833 5.66667C4.20833 5.32149 4.48816 5.04167 4.83333 5.04167H9.83333C10.1785 5.04167 10.4583 5.32149 10.4583 5.66667C10.4583 6.01185 10.1785 6.29167 9.83333 6.29167H4.83333C4.48816 6.29167 4.20833 6.01185 4.20833 5.66667ZM4.20833 9C4.20833 8.65482 4.48816 8.375 4.83333 8.375H13.1667C13.5118 8.375 13.7917 8.65482 13.7917 9C13.7917 9.34518 13.5118 9.625 13.1667 9.625H4.83333C4.48816 9.625 4.20833 9.34518 4.20833 9Z" fill="#D9D9D9"/>
</svg>
