<svg width="18" height="14" viewBox="0 0 18 14" fill="none" xmlns="http://www.w3.org/2000/svg">
<path fill-rule="evenodd" clip-rule="evenodd" d="M0.875 1.16667C0.875 0.821494 1.15482 0.541672 1.5 0.541672H8.16667C8.51184 0.541672 8.79167 0.821494 8.79167 1.16667C8.79167 1.51185 8.51184 1.79167 8.16667 1.79167H1.5C1.15482 1.79167 0.875 1.51185 0.875 1.16667Z" fill="#262541"/>
<path fill-rule="evenodd" clip-rule="evenodd" d="M0.875 7.00001C0.875 6.65483 1.15482 6.37501 1.5 6.37501H12.3333C12.6785 6.37501 12.9583 6.65483 12.9583 7.00001C12.9583 7.34518 12.6785 7.62501 12.3333 7.62501H1.5C1.15482 7.62501 0.875 7.34518 0.875 7.00001Z" fill="#262541"/>
<path fill-rule="evenodd" clip-rule="evenodd" d="M0.875 12.8333C0.875 12.4882 1.15482 12.2083 1.5 12.2083H16.5C16.8452 12.2083 17.125 12.4882 17.125 12.8333C17.125 13.1785 16.8452 13.4583 16.5 13.4583H1.5C1.15482 13.4583 0.875 13.1785 0.875 12.8333Z" fill="#262541"/>
</svg>
