<svg width="20" height="20" viewBox="0 0 20 20" fill="none" xmlns="http://www.w3.org/2000/svg">
<path fill-rule="evenodd" clip-rule="evenodd" d="M5.18989 5.18916C5.43397 4.94508 5.8297 4.94508 6.07378 5.18916L10.0007 9.11608L13.9276 5.18916C14.1717 4.94508 14.5674 4.94508 14.8115 5.18916C15.0555 5.43324 15.0555 5.82896 14.8115 6.07304L10.8846 9.99997L14.8115 13.9269C15.0555 14.1709 15.0555 14.5667 14.8115 14.8107C14.5674 15.0548 14.1717 15.0548 13.9276 14.8107L10.0007 10.8839L6.07378 14.8107C5.8297 15.0548 5.43397 15.0548 5.18989 14.8107C4.94582 14.5667 4.94582 14.1709 5.1899 13.9269L9.11681 9.99997L5.18989 6.07304C4.94582 5.82897 4.94582 5.43324 5.18989 5.18916Z" fill="white"/>
</svg>
