<svg width="292" height="96" viewBox="0 0 292 96" fill="none" xmlns="http://www.w3.org/2000/svg">
<path d="M202.5 57.5C202.5 56.6716 202.862 56 203.308 56H208.692C209.138 56 209.5 56.6716 209.5 57.5C209.5 58.3284 209.138 59 208.692 59H203.308C202.862 59 202.5 58.3284 202.5 57.5Z" fill="#8A8AA8"/>
<path d="M193.5 37.5C193.5 36.6716 193.862 36 194.308 36H199.692C200.138 36 200.5 36.6716 200.5 37.5C200.5 38.3284 200.138 39 199.692 39H194.308C193.862 39 193.5 38.3284 193.5 37.5Z" fill="#8A8AA8"/>
<path d="M186.5 73.5C186.5 72.6716 187.172 72 188 72H198C198.828 72 199.5 72.6716 199.5 73.5C199.5 74.3284 198.828 75 198 75H188C187.172 75 186.5 74.3284 186.5 73.5Z" fill="#8A8AA8"/>
<path d="M85.5 50.5C85.5 49.6716 85.8616 49 86.3077 49H91.6923C92.1384 49 92.5 49.6716 92.5 50.5C92.5 51.3284 92.1384 52 91.6923 52H86.3077C85.8616 52 85.5 51.3284 85.5 50.5Z" fill="#8A8AA8"/>
<path d="M99.5 70.5C99.5 69.6716 99.8616 69 100.308 69H105.692C106.138 69 106.5 69.6716 106.5 70.5C106.5 71.3284 106.138 72 105.692 72H100.308C99.8616 72 99.5 71.3284 99.5 70.5Z" fill="#8A8AA8"/>
<path d="M93.5 34.5C93.5 33.6716 94.1716 33 95 33H105C105.828 33 106.5 33.6716 106.5 34.5C106.5 35.3284 105.828 36 105 36H95C94.1716 36 93.5 35.3284 93.5 34.5Z" fill="#8A8AA8"/>
<rect x="116.5" y="24.5" width="59" height="59" rx="7.5" fill="#F9F9FC"/>
<path fill-rule="evenodd" clip-rule="evenodd" d="M140.287 43.5927C141.396 42.053 143.233 40.875 146 40.875C148.767 40.875 150.604 42.053 151.713 43.5927C152.78 45.075 153.125 46.82 153.125 48V52.875H154.1C155.218 52.875 156.125 53.7816 156.125 54.9V65.1C156.125 66.2184 155.218 67.125 154.1 67.125H137.9C136.782 67.125 135.875 66.2185 135.875 65.1V54.9C135.875 53.7815 136.782 52.875 137.9 52.875H138.875V48C138.875 46.82 139.22 45.075 140.287 43.5927ZM141.125 52.875H150.875V48C150.875 47.18 150.62 45.925 149.887 44.9073C149.196 43.947 148.033 43.125 146 43.125C143.967 43.125 142.804 43.947 142.113 44.9073C141.38 45.925 141.125 47.18 141.125 48V52.875ZM138.125 55.125V64.875H153.875V55.125H138.125Z" fill="#262541"/>
<rect x="158" y="14" width="28" height="28" rx="14" fill="white"/>
<path fill-rule="evenodd" clip-rule="evenodd" d="M162.75 28C162.75 22.8914 166.891 18.75 172 18.75C177.109 18.75 181.25 22.8914 181.25 28C181.25 33.1086 177.109 37.25 172 37.25C166.891 37.25 162.75 33.1086 162.75 28ZM172.512 22.9414C172.82 23.2186 172.845 23.6928 172.567 24.0006L172.557 24.0118C172.28 24.3196 171.806 24.3446 171.498 24.0674C171.19 23.7903 171.165 23.3161 171.443 23.0083L171.453 22.9971C171.73 22.6893 172.204 22.6643 172.512 22.9414ZM172 26.75C172.414 26.75 172.75 27.0858 172.75 27.5V32.5C172.75 32.9142 172.414 33.25 172 33.25C171.586 33.25 171.25 32.9142 171.25 32.5V27.5C171.25 27.0858 171.586 26.75 172 26.75Z" fill="#262541"/>
<path fill-rule="evenodd" clip-rule="evenodd" d="M161.25 28C161.25 22.0629 166.063 17.25 172 17.25C177.937 17.25 182.75 22.0629 182.75 28C182.75 33.937 177.937 38.75 172 38.75C166.063 38.75 161.25 33.937 161.25 28ZM172 18.75C166.891 18.75 162.75 22.8914 162.75 28C162.75 33.1086 166.891 37.25 172 37.25C177.109 37.25 181.25 33.1086 181.25 28C181.25 22.8914 177.109 18.75 172 18.75Z" fill="#262541"/>
<rect x="116.5" y="24.5" width="59" height="59" rx="7.5" stroke="#DFDEED"/>
</svg>
