<svg width="17" height="18" viewBox="0 0 17 18" fill="none" xmlns="http://www.w3.org/2000/svg">
<path fill-rule="evenodd" clip-rule="evenodd" d="M8.00024 2.17501C7.00036 2.17501 6.03189 2.59829 5.3107 3.36756C4.58813 4.1383 4.17524 5.19244 4.17524 6.30001C4.17524 9.19253 3.59351 11.1002 2.97622 12.3073C2.879 12.4975 2.78119 12.6696 2.68505 12.825H13.3154C13.2968 12.795 13.2782 12.7643 13.2595 12.733C12.723 11.8347 12.1572 10.4276 11.9294 8.32266C11.8892 7.95203 12.1572 7.61905 12.5278 7.57893C12.8984 7.53881 13.2314 7.80674 13.2715 8.17737C13.4801 10.104 13.9892 11.322 14.4185 12.0408C14.6338 12.4013 14.8315 12.6404 14.9663 12.7831C15.0339 12.8545 15.0859 12.9021 15.1169 12.9289C15.1324 12.9423 15.1427 12.9505 15.147 12.9538C15.1476 12.9543 15.1481 12.9547 15.1484 12.955C15.3828 13.1261 15.4817 13.4283 15.3933 13.7053C15.3039 13.9851 15.0439 14.175 14.7502 14.175H1.25024C0.956548 14.175 0.69656 13.9851 0.607226 13.7053C0.518117 13.4263 0.61921 13.1216 0.85727 12.9512L0.855923 12.9522L0.853583 12.9539L0.851268 12.9556C0.85076 12.956 0.852465 12.9549 0.855923 12.9522C0.862838 12.9467 0.877264 12.9347 0.89848 12.9158C0.940887 12.8781 1.00991 12.8125 1.09712 12.7143C1.27121 12.5183 1.51975 12.1904 1.77426 11.6927C2.28197 10.6998 2.82524 9.00752 2.82524 6.30001C2.82524 4.8615 3.36057 3.47385 4.32583 2.44424C5.29247 1.41315 6.61318 0.825012 8.00024 0.825012C8.29369 0.825012 8.58457 0.851376 8.87001 0.90284C9.23689 0.968985 9.48068 1.32002 9.41453 1.6869C9.34839 2.05377 8.99735 2.29756 8.63048 2.23142C8.42347 2.1941 8.21275 2.17501 8.00024 2.17501ZM0.85727 12.9512C0.857392 12.9511 0.857149 12.9513 0.85727 12.9512V12.9512ZM1.25024 13.5C0.859068 12.9499 0.858633 12.9502 0.858206 12.9505L0.85727 12.9512C0.857748 12.9509 0.85859 12.9503 0.859068 12.9499L1.25024 13.5Z" fill="#148783"/>
<path fill-rule="evenodd" clip-rule="evenodd" d="M10.3252 3.75001C10.3252 2.13459 11.6348 0.825012 13.2502 0.825012C14.8657 0.825012 16.1752 2.13459 16.1752 3.75001C16.1752 5.36543 14.8657 6.67501 13.2502 6.67501C11.6348 6.67501 10.3252 5.36543 10.3252 3.75001ZM13.2502 2.17501C12.3804 2.17501 11.6752 2.88016 11.6752 3.75001C11.6752 4.61986 12.3804 5.32501 13.2502 5.32501C14.1201 5.32501 14.8252 4.61986 14.8252 3.75001C14.8252 2.88016 14.1201 2.17501 13.2502 2.17501Z" fill="#148783"/>
<path d="M6.36408 15.1661C6.0416 15.3532 5.93181 15.7662 6.11885 16.0887L6.36408 15.1661Z" fill="#148783"/>
<path d="M7.28664 15.4113C7.0996 15.0889 6.68656 14.9791 6.36408 15.1661L9.08584 16.882C9.41619 16.6918 9.69052 16.4182 9.88164 16.0887C10.0687 15.7662 9.95888 15.3532 9.6364 15.1661C9.31393 14.9791 8.90089 15.0889 8.71385 15.4113C8.64131 15.5364 8.53705 15.6402 8.41195 15.7123C8.28668 15.7844 8.14472 15.8224 8.00024 15.8224C7.85577 15.8224 7.71366 15.7843 7.58839 15.7122C7.46323 15.6401 7.35914 15.5363 7.28664 15.4113Z" fill="#148783"/>
<path d="M9.08584 16.882L6.36408 15.1661L6.11885 16.0887L6.91465 16.882H9.08584Z" fill="#148783"/>
<path d="M6.11885 16.0887C6.31002 16.4183 6.58447 16.6919 6.91465 16.882L6.11885 16.0887Z" fill="#148783"/>
<path d="M6.91465 16.882C7.24474 17.0722 7.61917 17.1724 8.00024 17.1724C8.38128 17.1724 8.75576 17.0721 9.08584 16.882H6.91465Z" fill="#148783"/>
</svg>
