<svg width="18" height="20" viewBox="0 0 18 20" fill="none" xmlns="http://www.w3.org/2000/svg">
<path fill-rule="evenodd" clip-rule="evenodd" d="M4.9173 2.71605C5.99174 1.571 7.45973 0.916748 9.00006 0.916748C10.5404 0.916748 12.0084 1.571 13.0828 2.71605C14.1552 3.8599 14.7501 5.40212 14.7501 7.00008C14.7501 10.0086 15.3537 11.8889 15.9178 12.992C16.2006 13.545 16.4767 13.9093 16.6702 14.1271C16.7671 14.2361 16.8438 14.3091 16.8909 14.351C16.9144 14.3719 16.9307 14.3851 16.9383 14.3912L16.9423 14.3944C17.2028 14.5845 17.3128 14.9203 17.2145 15.2282C17.1153 15.5391 16.8264 15.7501 16.5001 15.7501H1.50006C1.17372 15.7501 0.884839 15.5391 0.785587 15.2282C0.686767 14.9187 0.798486 14.5809 1.06196 14.3913C1.06964 14.3852 1.08567 14.3719 1.10924 14.351C1.15635 14.3091 1.23304 14.2361 1.32994 14.1271C1.52337 13.9093 1.79952 13.545 2.0823 12.992C2.64642 11.8889 3.25006 10.0086 3.25006 7.00008C3.25006 5.40212 3.84493 3.8599 4.9173 2.71605ZM6.01138 3.7422C6.81358 2.88741 7.89049 2.41675 9.00006 2.41675C10.1096 2.41675 11.1868 2.88765 11.989 3.74245C12.7915 4.59857 13.2501 5.76983 13.2501 7.00008C13.2501 10.2141 13.8964 12.3337 14.5823 13.675C14.6903 13.8862 14.799 14.0775 14.9058 14.2501H3.09433C3.20114 14.0775 3.30981 13.8862 3.41781 13.675C4.10369 12.3337 4.75006 10.2141 4.75006 7.00008C4.75006 5.76983 5.20888 4.59833 6.01138 3.7422Z" fill="#262541"/>
<path fill-rule="evenodd" clip-rule="evenodd" d="M7.18288 16.851C7.54136 16.6435 8.00019 16.7658 8.20773 17.1243C8.28818 17.2633 8.40376 17.3787 8.54287 17.4589C8.68198 17.5391 8.83974 17.5813 9.00032 17.5813C9.1609 17.5813 9.31865 17.5391 9.45776 17.4589C9.59688 17.3787 9.71245 17.2633 9.79291 17.1243C10.0004 16.7658 10.4593 16.6435 10.8178 16.851C11.1762 17.0585 11.2986 17.5174 11.0911 17.8759C10.8788 18.2424 10.574 18.5468 10.207 18.7583C9.84004 18.9699 9.4239 19.0813 9.00032 19.0813C8.57674 19.0813 8.1606 18.9699 7.79364 18.7583C7.42668 18.5468 7.1218 18.2424 6.90958 17.8759C6.70204 17.5174 6.82441 17.0585 7.18288 16.851Z" fill="#262541"/>
</svg>
