<svg width="24" height="25" viewBox="0 0 24 25" fill="none" xmlns="http://www.w3.org/2000/svg">
<path fill-rule="evenodd" clip-rule="evenodd" d="M7.10086 4.25926C8.39019 2.88519 10.1518 2.1001 12.0002 2.1001C13.8486 2.1001 15.6101 2.88519 16.8995 4.25926C18.1863 5.63189 18.9002 7.48254 18.9002 9.4001C18.9002 13.0103 19.6245 15.2667 20.3015 16.5905C20.6408 17.254 20.9722 17.6911 21.2043 17.9525C21.3206 18.0834 21.4126 18.1709 21.4691 18.2212C21.4974 18.2463 21.5169 18.2621 21.5261 18.2695L21.5309 18.2732C21.8434 18.5014 21.9755 18.9044 21.8575 19.2738C21.7384 19.6469 21.3918 19.9001 21.0002 19.9001H3.00017C2.60856 19.9001 2.2619 19.6469 2.1428 19.2738C2.02422 18.9024 2.15828 18.4971 2.47445 18.2696C2.48367 18.2623 2.5029 18.2463 2.53118 18.2212C2.58772 18.1709 2.67974 18.0834 2.79603 17.9525C3.02814 17.6911 3.35952 17.254 3.69886 16.5905C4.3758 15.2667 5.10017 13.0103 5.10017 9.4001C5.10017 7.48254 5.81402 5.63189 7.10086 4.25926ZM8.41375 5.49064C9.37639 4.46489 10.6687 3.9001 12.0002 3.9001C13.3316 3.9001 14.6242 4.46518 15.5869 5.49094C16.5499 6.51828 17.1002 7.92379 17.1002 9.4001C17.1002 13.2569 17.8758 15.8005 18.6989 17.41C18.8285 17.6634 18.9589 17.893 19.087 18.1001H4.9133C5.04147 17.893 5.17186 17.6634 5.30147 17.41C6.12453 15.8005 6.90017 13.2569 6.90017 9.4001C6.90017 7.92379 7.45076 6.51799 8.41375 5.49064Z" fill="white"/>
<path fill-rule="evenodd" clip-rule="evenodd" d="M9.81956 21.2212C10.2497 20.9722 10.8003 21.119 11.0494 21.5492C11.1459 21.7159 11.2846 21.8544 11.4515 21.9506C11.6185 22.0469 11.8078 22.0975 12.0005 22.0975C12.1932 22.0975 12.3825 22.0469 12.5494 21.9506C12.7164 21.8544 12.855 21.7159 12.9516 21.5492C13.2006 21.119 13.7512 20.9722 14.1814 21.2212C14.6116 21.4702 14.7584 22.0209 14.5094 22.451C14.2547 22.8909 13.8888 23.2561 13.4485 23.51C13.0081 23.7639 12.5088 23.8975 12.0005 23.8975C11.4922 23.8975 10.9928 23.7639 10.5525 23.51C10.1121 23.2561 9.74626 22.8909 9.49159 22.451C9.24255 22.0209 9.38939 21.4702 9.81956 21.2212Z" fill="white"/>
<circle cx="19" cy="5" r="4.25" fill="#148783" stroke="white" stroke-width="1.5"/>
</svg>
