<svg width="20" height="22" viewBox="0 0 20 22" fill="none" xmlns="http://www.w3.org/2000/svg">
<path fill-rule="evenodd" clip-rule="evenodd" d="M5.10086 2.25926C6.39019 0.885194 8.15177 0.100098 10.0002 0.100098C11.8486 0.100098 13.6101 0.885194 14.8995 2.25926C16.1863 3.63189 16.9002 5.48254 16.9002 7.4001C16.9002 11.0103 17.6245 13.2667 18.3015 14.5905C18.6408 15.254 18.9722 15.6911 19.2043 15.9525C19.3206 16.0834 19.4126 16.1709 19.4691 16.2212C19.4974 16.2463 19.5169 16.2621 19.5261 16.2695L19.5309 16.2732C19.8434 16.5014 19.9755 16.9044 19.8575 17.2738C19.7384 17.6469 19.3918 17.9001 19.0002 17.9001H1.00017C0.608563 17.9001 0.261904 17.6469 0.142802 17.2738C0.0242182 16.9024 0.158281 16.4971 0.474454 16.2696C0.483671 16.2623 0.502898 16.2463 0.531184 16.2212C0.587723 16.1709 0.679744 16.0834 0.796028 15.9525C1.02814 15.6911 1.35952 15.254 1.69886 14.5905C2.3758 13.2667 3.10017 11.0103 3.10017 7.4001C3.10017 5.48254 3.81402 3.63189 5.10086 2.25926ZM6.41375 3.49064C7.37639 2.46489 8.66868 1.9001 10.0002 1.9001C11.3316 1.9001 12.6242 2.46518 13.5869 3.49094C14.5499 4.51828 15.1002 5.92379 15.1002 7.4001C15.1002 11.2569 15.8758 13.8005 16.6989 15.41C16.8285 15.6634 16.9589 15.893 17.087 16.1001H2.9133C3.04147 15.893 3.17186 15.6634 3.30147 15.41C4.12453 13.8005 4.90017 11.2569 4.90017 7.4001C4.90017 5.92379 5.45076 4.51799 6.41375 3.49064Z" fill="#575775"/>
<path fill-rule="evenodd" clip-rule="evenodd" d="M7.81956 19.2212C8.24973 18.9722 8.80033 19.119 9.04937 19.5492C9.14591 19.7159 9.28461 19.8544 9.45154 19.9506C9.61848 20.0469 9.80779 20.0975 10.0005 20.0975C10.1932 20.0975 10.3825 20.0469 10.5494 19.9506C10.7164 19.8544 10.855 19.7159 10.9516 19.5492C11.2006 19.119 11.7512 18.9722 12.1814 19.2212C12.6116 19.4702 12.7584 20.0209 12.5094 20.451C12.2547 20.8909 11.8888 21.2561 11.4485 21.51C11.0081 21.7639 10.5088 21.8975 10.0005 21.8975C9.49218 21.8975 8.99282 21.7639 8.55247 21.51C8.11212 21.2561 7.74626 20.8909 7.49159 20.451C7.24255 20.0209 7.38939 19.4702 7.81956 19.2212Z" fill="#575775"/>
</svg>
