<svg width="20" height="21" viewBox="0 0 20 21" fill="none" xmlns="http://www.w3.org/2000/svg">
<path fill-rule="evenodd" clip-rule="evenodd" d="M5.9173 3.71596C6.99174 2.5709 8.45973 1.91666 10.0001 1.91666C11.5404 1.91666 13.0084 2.5709 14.0828 3.71596C15.1552 4.85981 15.7501 6.40203 15.7501 7.99999C15.7501 11.0085 16.3537 12.8888 16.9178 13.992C17.2006 14.5449 17.4767 14.9092 17.6702 15.127C17.7671 15.2361 17.8438 15.309 17.8909 15.3509C17.9144 15.3718 17.9307 15.385 17.9383 15.3911L17.9423 15.3943C18.2028 15.5844 18.3128 15.9202 18.2145 16.2281C18.1153 16.539 17.8264 16.75 17.5001 16.75H2.50006C2.17372 16.75 1.88484 16.539 1.78559 16.2281C1.68677 15.9186 1.79849 15.5808 2.06196 15.3912C2.06964 15.3851 2.08567 15.3718 2.10924 15.3509C2.15635 15.309 2.23304 15.2361 2.32994 15.127C2.52337 14.9092 2.79952 14.5449 3.0823 13.992C3.64642 12.8888 4.25006 11.0085 4.25006 7.99999C4.25006 6.40203 4.84493 4.85981 5.9173 3.71596ZM7.01138 4.74211C7.81358 3.88732 8.89049 3.41666 10.0001 3.41666C11.1096 3.41666 12.1868 3.88756 12.989 4.74235C13.7915 5.59848 14.2501 6.76974 14.2501 7.99999C14.2501 11.214 14.8964 13.3337 15.5823 14.6749C15.6903 14.8861 15.799 15.0774 15.9058 15.25H4.09433C4.20114 15.0774 4.30981 14.8861 4.41781 14.6749C5.10369 13.3337 5.75006 11.214 5.75006 7.99999C5.75006 6.76974 6.20888 5.59824 7.01138 4.74211Z" fill="#262541"/>
<path fill-rule="evenodd" clip-rule="evenodd" d="M8.18288 17.8509C8.54136 17.6434 9.00019 17.7657 9.20773 18.1242C9.28818 18.2632 9.40376 18.3786 9.54287 18.4588C9.68198 18.539 9.83974 18.5812 10.0003 18.5812C10.1609 18.5812 10.3187 18.539 10.4578 18.4588C10.5969 18.3786 10.7125 18.2632 10.7929 18.1242C11.0004 17.7657 11.4593 17.6434 11.8178 17.8509C12.1762 18.0584 12.2986 18.5173 12.0911 18.8758C11.8788 19.2423 11.574 19.5467 11.207 19.7583C10.84 19.9698 10.4239 20.0812 10.0003 20.0812C9.57674 20.0812 9.1606 19.9698 8.79364 19.7583C8.42668 19.5467 8.1218 19.2423 7.90958 18.8758C7.70204 18.5173 7.82441 18.0584 8.18288 17.8509Z" fill="#262541"/>
<circle cx="15.8337" cy="4.33332" r="3.41667" fill="#148783" stroke="white" stroke-width="1.5"/>
</svg>
