<svg width="18" height="18" viewBox="0 0 18 18" fill="none" xmlns="http://www.w3.org/2000/svg">
<path d="M13.6005 8.25C14.0363 12.2812 15.75 13.5 15.75 13.5H2.25C2.25 13.5 4.5 11.9002 4.5 6.3C4.5 5.02725 4.974 3.80625 5.81775 2.90625C6.66225 2.00625 7.8075 1.5 9 1.5C9.25275 1.5 9.504 1.5225 9.75 1.5675M10.2975 15.75C10.1658 15.9775 9.97659 16.1664 9.74886 16.2977C9.52112 16.429 9.26287 16.4981 9 16.4981C8.73713 16.4981 8.47888 16.429 8.25114 16.2977C8.02341 16.1664 7.83421 15.9775 7.7025 15.75" stroke="#262541" stroke-width="1.5" stroke-linecap="round" stroke-linejoin="round"/>
<circle cx="14.2874" cy="3.7876" r="3.5625" fill="white"/>
<ellipse cx="14.2875" cy="3.7875" rx="3.0375" ry="3.0375" fill="#C3305C"/>
</svg>
