<svg width="15" height="16" viewBox="0 0 15 16" fill="none" xmlns="http://www.w3.org/2000/svg">
<path fill-rule="evenodd" clip-rule="evenodd" d="M7.00043 1.93334C6.11165 1.93334 5.25078 2.30959 4.60973 2.99338C3.96744 3.67848 3.60043 4.61549 3.60043 5.6C3.60043 8.17113 3.08334 9.86684 2.53464 10.9399C2.44822 11.1088 2.36127 11.2619 2.27582 11.4H11.725C11.7085 11.3733 11.6919 11.346 11.6753 11.3182C11.1984 10.5197 10.6955 9.26901 10.493 7.39791C10.4573 7.06846 10.6955 6.77248 11.0249 6.73682C11.3544 6.70116 11.6504 6.93932 11.686 7.26876C11.8714 8.98133 12.324 10.064 12.7056 10.7029C12.897 11.0233 13.0727 11.2359 13.1925 11.3627C13.2525 11.4262 13.2988 11.4685 13.3264 11.4923C13.3401 11.5042 13.3493 11.5115 13.3531 11.5145C13.3536 11.5149 13.3541 11.5153 13.3544 11.5155C13.5627 11.6677 13.6506 11.9363 13.572 12.1825C13.4926 12.4312 13.2615 12.6 13.0004 12.6H1.00043C0.739371 12.6 0.50827 12.4312 0.428863 12.1825C0.349654 11.9344 0.439515 11.6637 0.651124 11.5122L0.649926 11.513L0.647846 11.5145L0.645789 11.5161C0.645337 11.5164 0.646853 11.5155 0.649926 11.513C0.656073 11.5081 0.668896 11.4975 0.687755 11.4807C0.72545 11.4472 0.786801 11.3889 0.864326 11.3016C1.01907 11.1273 1.24 10.8359 1.46623 10.3935C1.91753 9.51097 2.40043 8.00668 2.40043 5.6C2.40043 4.32133 2.87628 3.08786 3.73428 2.17265C4.59352 1.25613 5.76748 0.733337 7.00043 0.733337C7.26127 0.733337 7.51983 0.756772 7.77356 0.802518C8.09967 0.861313 8.31638 1.17334 8.25758 1.49946C8.19878 1.82557 7.88675 2.04227 7.56064 1.98348C7.37664 1.9503 7.18933 1.93334 7.00043 1.93334ZM0.651124 11.5122C0.651232 11.5121 0.651016 11.5122 0.651124 11.5122V11.5122ZM1.00043 12C0.652722 11.511 0.652335 11.5113 0.651956 11.5116L0.651124 11.5122C0.651548 11.5119 0.652297 11.5113 0.652722 11.511L1.00043 12Z" fill="#575775"/>
<path fill-rule="evenodd" clip-rule="evenodd" d="M9.0671 3.33334C9.0671 1.89741 10.2311 0.733337 11.6671 0.733337C13.1031 0.733337 14.2671 1.89741 14.2671 3.33334C14.2671 4.76927 13.1031 5.93334 11.6671 5.93334C10.2311 5.93334 9.0671 4.76927 9.0671 3.33334ZM11.6671 1.93334C10.8939 1.93334 10.2671 2.56014 10.2671 3.33334C10.2671 4.10654 10.8939 4.73334 11.6671 4.73334C12.4403 4.73334 13.0671 4.10654 13.0671 3.33334C13.0671 2.56014 12.4403 1.93334 11.6671 1.93334Z" fill="#575775"/>
<path d="M5.54607 13.481C5.25942 13.6472 5.16183 14.0144 5.32808 14.301L5.54607 13.481Z" fill="#575775"/>
<path d="M6.36612 13.699C6.19986 13.4123 5.83271 13.3147 5.54607 13.481L7.96541 15.0062C8.25905 14.8372 8.5029 14.5939 8.67278 14.301C8.83904 14.0144 8.74144 13.6472 8.4548 13.481C8.16815 13.3147 7.801 13.4123 7.63475 13.699C7.57027 13.8101 7.47759 13.9024 7.36639 13.9664C7.25504 14.0306 7.12885 14.0643 7.00043 14.0643C6.87201 14.0643 6.74569 14.0305 6.63434 13.9664C6.52309 13.9023 6.43056 13.8101 6.36612 13.699Z" fill="#575775"/>
<path d="M7.96541 15.0062L5.54607 13.481L5.32808 14.301L6.03546 15.0062H7.96541Z" fill="#575775"/>
<path d="M5.32808 14.301C5.49801 14.594 5.74197 14.8372 6.03546 15.0062L5.32808 14.301Z" fill="#575775"/>
<path d="M6.03546 15.0062C6.32888 15.1752 6.6617 15.2643 7.00043 15.2643C7.33913 15.2643 7.67201 15.1752 7.96541 15.0062H6.03546Z" fill="#575775"/>
</svg>
