<svg width="29" height="28" viewBox="0 0 29 28" fill="none" xmlns="http://www.w3.org/2000/svg">
<path d="M0.5 1.58491C0.5 0.709587 1.20959 0 2.08491 0H14.5C22.232 0 28.5 6.26801 28.5 14C28.5 21.732 22.232 28 14.5 28H2.08491C1.20959 28 0.5 27.2904 0.5 26.4151V1.58491Z" fill="white"/>
<path fill-rule="evenodd" clip-rule="evenodd" d="M12.5581 8.55806C12.8021 8.31398 13.1979 8.31398 13.4419 8.55806L18.4419 13.5581C18.686 13.8021 18.686 14.1979 18.4419 14.4419L13.4419 19.4419C13.1979 19.686 12.8021 19.686 12.5581 19.4419C12.314 19.1979 12.314 18.8021 12.5581 18.5581L17.1161 14L12.5581 9.44194C12.314 9.19786 12.314 8.80214 12.5581 8.55806Z" fill="#8A8AA8"/>
</svg>
