<svg width="17" height="17" viewBox="0 0 17 17" fill="none" xmlns="http://www.w3.org/2000/svg">
<path fill-rule="evenodd" clip-rule="evenodd" d="M0.106366 3.11919C-0.0772578 1.90627 0.895632 0.9375 2.04782 0.9375H4.86107C5.09537 0.9375 5.30513 1.08273 5.38758 1.30205L6.47884 4.20455C6.51495 4.3006 6.5241 4.40471 6.50529 4.5056L5.95829 7.43949C6.63057 9.02056 7.74086 10.0831 9.58274 11.036L12.4813 10.4743C12.5842 10.4543 12.6906 10.4635 12.7886 10.5009L15.7001 11.6101C15.9182 11.6932 16.0623 11.9024 16.0623 12.1357V14.8237C16.0623 16.0437 14.9883 17.0323 13.7319 16.7594L13.7316 16.7594C11.4418 16.2605 7.19843 14.9941 4.22707 12.0227C1.38107 9.17675 0.427095 5.2444 0.106366 3.11919ZM2.04782 2.0625C1.50812 2.0625 1.14908 2.49154 1.21872 2.95095L1.21877 2.95131C1.52804 5.00059 2.43406 8.63875 5.02256 11.2273C7.75871 13.9634 11.7369 15.1735 13.971 15.6601C14.4621 15.7665 14.9373 15.3931 14.9373 14.8237V12.5234L12.5379 11.6092L9.60683 12.1772C9.48489 12.2009 9.35855 12.1835 9.24754 12.1278C7.07655 11.0384 5.66758 9.74649 4.85255 7.70891C4.81295 7.60992 4.80231 7.50171 4.82185 7.3969L5.37059 4.45362L4.47161 2.0625H2.04782ZM12.8521 1.10225C13.0717 0.882583 13.4279 0.882583 13.6476 1.10225L15.8976 3.35225C16.1172 3.57192 16.1172 3.92808 15.8976 4.14775L13.6476 6.39775C13.4279 6.61742 13.0717 6.61742 12.8521 6.39775C12.6324 6.17808 12.6324 5.82192 12.8521 5.60225L14.1418 4.3125H10.9998C10.6892 4.3125 10.4373 4.06066 10.4373 3.75C10.4373 3.43934 10.6892 3.1875 10.9998 3.1875H14.1418L12.8521 1.89775C12.6324 1.67808 12.6324 1.32192 12.8521 1.10225Z" fill="#575775"/>
</svg>
