<svg width="14" height="14" viewBox="0 0 14 14" fill="none" xmlns="http://www.w3.org/2000/svg">
<path fill-rule="evenodd" clip-rule="evenodd" d="M9.45809 0.427697C9.35929 0.328903 9.22367 0.275951 9.08407 0.281669C8.94447 0.287387 8.81363 0.351253 8.72325 0.457796L5.7782 3.92937L3.51626 3.69512C3.36648 3.67961 3.21768 3.73243 3.1112 3.83891L1.97983 4.97028C1.88606 5.06404 1.83338 5.19122 1.83338 5.32383C1.83338 5.45644 1.88606 5.58362 1.97983 5.67738L4.79782 8.49538L0.646447 12.6468C0.451184 12.842 0.451184 13.1586 0.646447 13.3539C0.841709 13.5491 1.15829 13.5491 1.35355 13.3539L5.50493 9.20249L8.10811 11.8057C8.20188 11.8994 8.32906 11.9521 8.46168 11.9521C8.59429 11.9521 8.72146 11.8994 8.81523 11.8057L9.94656 10.6743C10.053 10.5678 10.1059 10.419 10.0903 10.2692L9.8561 8.00732L13.3278 5.06234C13.4343 4.97195 13.4982 4.84111 13.5039 4.70151C13.5096 4.56191 13.4567 4.42629 13.3579 4.32749L9.45809 0.427697ZM5.50493 9.20249L5.68689 9.02053C5.88215 8.82527 5.88215 8.50869 5.68689 8.31342C5.49162 8.11816 5.17504 8.11816 4.97978 8.31342L4.79782 8.49538L5.50493 9.20249ZM6.37022 4.77733L9.13473 1.51856L12.267 4.65083L9.00815 7.41529C8.88233 7.52202 8.81726 7.68396 8.83426 7.84808L9.07114 10.1355L8.46166 10.745L3.04049 5.32383L3.65 4.71432L5.93743 4.95121C6.10155 4.96821 6.26348 4.90314 6.37022 4.77733Z" fill="#262541"/>
<path d="M5.68689 9.02053C5.88215 8.82527 5.88215 8.50869 5.68689 8.31342C5.49162 8.11816 5.17504 8.11816 4.97978 8.31342L4.79782 8.49538L5.50493 9.20249L5.68689 9.02053Z" fill="#262541"/>
</svg>
