<svg width="40" height="40" viewBox="0 0 40 40" fill="none" xmlns="http://www.w3.org/2000/svg">
<rect width="40" height="40" rx="6" fill="#F9F9FC"/>
<path fill-rule="evenodd" clip-rule="evenodd" d="M15.7226 9.7233C15.9551 9.49075 16.2705 9.36011 16.5994 9.36011H23.3994C23.7282 9.36011 24.0436 9.49075 24.2762 9.7233C24.5087 9.95584 24.6394 10.2712 24.6394 10.6001V29.4001C24.6394 29.729 24.5087 30.0444 24.2762 30.2769C24.0436 30.5095 23.7282 30.6401 23.3994 30.6401H16.5994C16.2705 30.6401 15.9551 30.5095 15.7226 30.2769C15.49 30.0444 15.3594 29.729 15.3594 29.4001V10.6001C15.3594 10.2712 15.49 9.95584 15.7226 9.7233ZM16.6394 10.6401V29.3601H23.3594V25.6401H20.9994C20.6459 25.6401 20.3594 25.3536 20.3594 25.0001C20.3594 24.6466 20.6459 24.3601 20.9994 24.3601H23.3594V20.6401H20.9994C20.6459 20.6401 20.3594 20.3536 20.3594 20.0001C20.3594 19.6466 20.6459 19.3601 20.9994 19.3601H23.3594V15.6401H20.9994C20.6459 15.6401 20.3594 15.3536 20.3594 15.0001C20.3594 14.6466 20.6459 14.3601 20.9994 14.3601H23.3594V10.6401H16.6394Z" fill="#575775"/>
</svg>
