<svg width="17" height="18" viewBox="0 0 17 18" fill="none" xmlns="http://www.w3.org/2000/svg">
<path fill-rule="evenodd" clip-rule="evenodd" d="M2.66667 2.125C2.09137 2.125 1.625 2.59137 1.625 3.16667V14.8333C1.625 15.4086 2.09136 15.875 2.66667 15.875H2.875V10.3333C2.875 9.71197 3.3787 9.20833 4 9.20833H13C13.6213 9.20833 14.125 9.71199 14.125 10.3333V15.875H14.3333C14.9087 15.875 15.375 15.4087 15.375 14.8333V5.52369C15.375 5.24741 15.2653 4.98248 15.0699 4.78713L12.7129 2.43011C12.6373 2.35454 12.5513 2.29179 12.4583 2.24324V6C12.4583 6.6213 11.9547 7.125 11.3333 7.125H5.66667C5.04535 7.125 4.54167 6.62132 4.54167 6V2.125H2.66667ZM2.66667 0.875C1.40101 0.875 0.375 1.90101 0.375 3.16667V14.8333C0.375 16.099 1.40102 17.125 2.66667 17.125H14.3333C15.599 17.125 16.625 16.099 16.625 14.8333V5.52369C16.625 4.91591 16.3836 4.33302 15.9538 3.90323C15.9538 3.90324 15.9538 3.90323 15.9538 3.90323L13.5968 1.54622C13.167 1.11646 12.5841 0.875 11.9763 0.875H2.66667ZM5.79167 2.125V5.875H11.2083V2.125H5.79167ZM12.875 15.875V10.4583H4.125V15.875H12.875Z" fill="white"/>
</svg>
