<svg width="264" height="36" viewBox="0 0 264 36" fill="none" xmlns="http://www.w3.org/2000/svg">
<rect y="27" width="4" height="9" rx="2" fill="#B2FF8E"/>
<rect x="10" y="26" width="4" height="10" rx="2" fill="#B2FF8E"/>
<rect x="20" y="25" width="4" height="11" rx="2" fill="#B2FF8E"/>
<rect x="30" y="24" width="4" height="12" rx="2" fill="#B2FF8E"/>
<rect x="40" y="23" width="4" height="13" rx="2" fill="#B2FF8E"/>
<rect x="50" y="22" width="4" height="14" rx="2" fill="#B2FF8E"/>
<rect x="60" y="21" width="4" height="15" rx="2" fill="#B2FF8E"/>
<rect x="70" y="20" width="4" height="16" rx="2" fill="#B2FF8E"/>
<rect x="80" y="19" width="4" height="17" rx="2" fill="#B2FF8E"/>
<rect x="90" y="18" width="4" height="18" rx="2" fill="#B2FF8E"/>
<rect x="100" y="17" width="4" height="19" rx="2" fill="#B2FF8E"/>
<rect x="110" y="16" width="4" height="20" rx="2" fill="#B2FF8E"/>
<rect x="120" y="15" width="4" height="21" rx="2" fill="#B2FF8E"/>
<rect x="130" y="14" width="4" height="22" rx="2" fill="#B2FF8E"/>
<rect x="140" y="13" width="4" height="23" rx="2" fill="#B2FF8E"/>
<rect x="150" y="12" width="4" height="24" rx="2" fill="#B2FF8E"/>
<rect x="160" y="10" width="4" height="26" rx="2" fill="#B2FF8E"/>
<rect x="170" y="9" width="4" height="27" rx="2" fill="#DFDEED"/>
<rect x="180" y="8" width="4" height="28" rx="2" fill="#DFDEED"/>
<rect x="190" y="7" width="4" height="29" rx="2" fill="#DFDEED"/>
<rect x="200" y="6" width="4" height="30" rx="2" fill="#DFDEED"/>
<rect x="210" y="5" width="4" height="31" rx="2" fill="#DFDEED"/>
<rect x="220" y="4" width="4" height="32" rx="2" fill="#DFDEED"/>
<rect x="230" y="3" width="4" height="33" rx="2" fill="#DFDEED"/>
<rect x="240" y="2" width="4" height="34" rx="2" fill="#DFDEED"/>
<rect x="250" y="1" width="4" height="35" rx="2" fill="#DFDEED"/>
<rect x="260" width="4" height="36" rx="2" fill="#DFDEED"/>
</svg>
