<svg width="14" height="14" viewBox="0 0 14 14" fill="none" xmlns="http://www.w3.org/2000/svg">
<path fill-rule="evenodd" clip-rule="evenodd" d="M13.2756 12.3914L10.5619 9.67772C10.433 9.83896 10.2953 9.99292 10.1498 10.1389C10.0007 10.2884 9.84317 10.4295 9.67803 10.5616L12.3917 13.2753C12.6358 13.5194 13.0315 13.5194 13.2756 13.2753C13.5197 13.0312 13.5197 12.6355 13.2756 12.3914Z" fill="#575775"/>
<path fill-rule="evenodd" clip-rule="evenodd" d="M9.47505 9.47473C9.71913 9.23065 10.1149 9.23065 10.3589 9.47473L10.5619 9.67772C11.3313 8.71571 11.792 7.49454 11.792 6.16667C11.792 3.06007 9.27359 0.541672 6.16699 0.541672C3.06039 0.541672 0.541992 3.06007 0.541992 6.16667C0.541992 9.27327 3.06039 11.7917 6.16699 11.7917C7.49485 11.7917 8.71602 11.331 9.67803 10.5616L9.47505 10.3586C9.23097 10.1145 9.23097 9.71881 9.47505 9.47473ZM1.79199 6.16667C1.79199 3.75042 3.75075 1.79167 6.16699 1.79167C8.58323 1.79167 10.542 3.75043 10.542 6.16667C10.542 7.37291 10.0547 8.46413 9.26471 9.25615C8.47201 10.051 7.37736 10.5417 6.16699 10.5417C3.75075 10.5417 1.79199 8.58291 1.79199 6.16667Z" fill="#575775"/>
<path d="M10.3589 9.47473C10.1149 9.23065 9.71913 9.23065 9.47505 9.47473C9.23097 9.71881 9.23097 10.1145 9.47505 10.3586L9.67803 10.5616C9.84317 10.4295 10.0007 10.2884 10.1498 10.1389C10.2953 9.99292 10.433 9.83896 10.5619 9.67772L10.3589 9.47473Z" fill="#575775"/>
</svg>
