<svg width="18" height="16" viewBox="0 0 18 16" fill="none" xmlns="http://www.w3.org/2000/svg">
<path fill-rule="evenodd" clip-rule="evenodd" d="M1.70841 1.3335C1.70841 0.988318 1.98824 0.708496 2.33341 0.708496H4.83342C5.17859 0.708496 5.45842 0.988318 5.45842 1.3335C5.45842 1.67867 5.17859 1.9585 4.83342 1.9585H2.95841V3.8335C2.95841 4.17867 2.67859 4.4585 2.33341 4.4585C1.98824 4.4585 1.70841 4.17867 1.70841 3.8335V1.3335ZM7.54175 1.3335C7.54175 0.988318 7.82157 0.708496 8.16675 0.708496H9.83342C10.1786 0.708496 10.4584 0.988318 10.4584 1.3335C10.4584 1.67867 10.1786 1.9585 9.83342 1.9585H8.16675C7.82157 1.9585 7.54175 1.67867 7.54175 1.3335ZM12.5417 1.3335C12.5417 0.988318 12.8216 0.708496 13.1667 0.708496H15.6667C16.0119 0.708496 16.2917 0.988318 16.2917 1.3335V3.8335C16.2917 4.17867 16.0119 4.4585 15.6667 4.4585C15.3216 4.4585 15.0417 4.17867 15.0417 3.8335V1.9585H13.1667C12.8216 1.9585 12.5417 1.67867 12.5417 1.3335ZM0.041748 8.00016C0.041748 7.65498 0.32157 7.37516 0.666748 7.37516H17.3334C17.6786 7.37516 17.9584 7.65498 17.9584 8.00016C17.9584 8.34534 17.6786 8.62516 17.3334 8.62516H0.666748C0.32157 8.62516 0.041748 8.34534 0.041748 8.00016ZM1.70841 11.3335C1.70841 10.9883 1.98824 10.7085 2.33341 10.7085H15.6667C16.0119 10.7085 16.2917 10.9883 16.2917 11.3335V14.6668C16.2917 15.012 16.0119 15.2918 15.6667 15.2918H2.33341C1.98824 15.2918 1.70841 15.012 1.70841 14.6668V11.3335ZM2.95841 11.9585V14.0418H15.0417V11.9585H2.95841Z" fill="#262541"/>
</svg>
