<svg width="16" height="16" viewBox="0 0 16 16" fill="none" xmlns="http://www.w3.org/2000/svg">
<path fill-rule="evenodd" clip-rule="evenodd" d="M0.708252 1.3335C0.708252 0.988318 0.988074 0.708496 1.33325 0.708496H3.83325C4.17843 0.708496 4.45825 0.988318 4.45825 1.3335C4.45825 1.67867 4.17843 1.9585 3.83325 1.9585H1.95825V3.8335C1.95825 4.17867 1.67843 4.4585 1.33325 4.4585C0.988074 4.4585 0.708252 4.17867 0.708252 3.8335V1.3335ZM6.54159 1.3335C6.54159 0.988318 6.82141 0.708496 7.16659 0.708496H8.83325C9.17843 0.708496 9.45825 0.988318 9.45825 1.3335C9.45825 1.67867 9.17843 1.9585 8.83325 1.9585H7.16659C6.82141 1.9585 6.54159 1.67867 6.54159 1.3335ZM11.5416 1.3335C11.5416 0.988318 11.8214 0.708496 12.1666 0.708496H14.6666C15.0118 0.708496 15.2916 0.988318 15.2916 1.3335V3.8335C15.2916 4.17867 15.0118 4.4585 14.6666 4.4585C14.3214 4.4585 14.0416 4.17867 14.0416 3.8335V1.9585H12.1666C11.8214 1.9585 11.5416 1.67867 11.5416 1.3335ZM7.99992 4.04183C8.3451 4.04183 8.62492 4.32165 8.62492 4.66683V7.37516H11.3333C11.6784 7.37516 11.9583 7.65498 11.9583 8.00016C11.9583 8.34534 11.6784 8.62516 11.3333 8.62516H8.62492V11.3335C8.62492 11.6787 8.3451 11.9585 7.99992 11.9585C7.65474 11.9585 7.37492 11.6787 7.37492 11.3335V8.62516H4.66659C4.32141 8.62516 4.04159 8.34534 4.04159 8.00016C4.04159 7.65498 4.32141 7.37516 4.66659 7.37516H7.37492V4.66683C7.37492 4.32165 7.65474 4.04183 7.99992 4.04183ZM1.33325 6.54183C1.67843 6.54183 1.95825 6.82165 1.95825 7.16683V8.8335C1.95825 9.17867 1.67843 9.4585 1.33325 9.4585C0.988074 9.4585 0.708252 9.17867 0.708252 8.8335V7.16683C0.708252 6.82165 0.988074 6.54183 1.33325 6.54183ZM14.6666 6.54183C15.0118 6.54183 15.2916 6.82165 15.2916 7.16683V8.8335C15.2916 9.17867 15.0118 9.4585 14.6666 9.4585C14.3214 9.4585 14.0416 9.17867 14.0416 8.8335V7.16683C14.0416 6.82165 14.3214 6.54183 14.6666 6.54183ZM1.33325 11.5418C1.67843 11.5418 1.95825 11.8217 1.95825 12.1668V14.0418H3.83325C4.17843 14.0418 4.45825 14.3217 4.45825 14.6668C4.45825 15.012 4.17843 15.2918 3.83325 15.2918H1.33325C0.988074 15.2918 0.708252 15.012 0.708252 14.6668V12.1668C0.708252 11.8217 0.988074 11.5418 1.33325 11.5418ZM14.6666 11.5418C15.0118 11.5418 15.2916 11.8217 15.2916 12.1668V14.6668C15.2916 15.012 15.0118 15.2918 14.6666 15.2918H12.1666C11.8214 15.2918 11.5416 15.012 11.5416 14.6668C11.5416 14.3217 11.8214 14.0418 12.1666 14.0418H14.0416V12.1668C14.0416 11.8217 14.3214 11.5418 14.6666 11.5418ZM6.54159 14.6668C6.54159 14.3217 6.82141 14.0418 7.16659 14.0418H8.83325C9.17843 14.0418 9.45825 14.3217 9.45825 14.6668C9.45825 15.012 9.17843 15.2918 8.83325 15.2918H7.16659C6.82141 15.2918 6.54159 15.012 6.54159 14.6668Z" fill="#262541"/>
</svg>
