<svg width="14" height="16" viewBox="0 0 14 16" fill="none" xmlns="http://www.w3.org/2000/svg">
<path d="M9.5814 4.76737L9.08526 3.89913L8.63807 4.15467C8.74983 4.47606 8.92534 4.76762 9.14945 5.0142L9.5814 4.76737Z" fill="#575775"/>
<path d="M4.4186 6.5658L4.91474 7.43404L5.36193 7.1785C5.25017 6.85711 5.07466 6.56555 4.85055 6.31897L4.4186 6.5658Z" fill="#575775"/>
<path d="M4.91474 8.5658L4.4186 9.43404L4.85055 9.68087C5.07466 9.43429 5.25017 9.14273 5.36193 8.82133L4.91474 8.5658Z" fill="#575775"/>
<path fill-rule="evenodd" clip-rule="evenodd" d="M8.5 3.33325C8.5 1.95255 9.61925 0.833252 11 0.833252C12.3807 0.833252 13.5 1.95255 13.5 3.33325C13.5 4.71396 12.3807 5.83325 11 5.83325C10.2665 5.83325 9.60677 5.51736 9.14945 5.0142L9.5814 4.76737L9.08526 3.89913L8.63807 4.15467C8.54861 3.89739 8.5 3.621 8.5 3.33325ZM4.85055 6.31897L8.63807 4.15467C8.74983 4.47606 8.92534 4.76762 9.14945 5.0142L5.36193 7.1785C5.25017 6.85711 5.07466 6.56555 4.85055 6.31897ZM4.85055 9.68087C4.39323 10.184 3.7335 10.4999 3 10.4999C1.6193 10.4999 0.5 9.38067 0.5 7.99992C0.5 6.61917 1.6193 5.49992 3 5.49992C3.7335 5.49992 4.39323 5.8158 4.85055 6.31897L4.4186 6.5658L4.91474 7.43404L5.36193 7.1785C5.45139 7.43578 5.5 7.71217 5.5 7.99992C5.5 8.28767 5.45139 8.56406 5.36193 8.82133L4.91474 8.5658L4.4186 9.43404L4.85055 9.68087ZM8.63807 11.8452L4.85055 9.68087C5.07466 9.43429 5.25017 9.14273 5.36193 8.82133L9.14944 10.9856C8.92533 11.2322 8.74983 11.5238 8.63807 11.8452ZM8.63807 11.8452C8.54861 12.1024 8.5 12.3788 8.5 12.6666C8.5 14.0473 9.61926 15.1666 11 15.1666C12.3807 15.1666 13.5 14.0473 13.5 12.6666C13.5 11.2858 12.3807 10.1666 11 10.1666C10.2665 10.1666 9.60676 10.4825 9.14944 10.9856L9.5814 11.2325L9.08526 12.1007L8.63807 11.8452ZM11 1.83325C10.1715 1.83325 9.5 2.50482 9.5 3.33325C9.5 4.16168 10.1715 4.83325 11 4.83325C11.8285 4.83325 12.5 4.16168 12.5 3.33325C12.5 2.50482 11.8285 1.83325 11 1.83325ZM1.5 7.99992C1.5 7.17147 2.17157 6.49992 3 6.49992C3.82843 6.49992 4.5 7.17147 4.5 7.99992C4.5 8.82837 3.82843 9.49992 3 9.49992C2.17157 9.49992 1.5 8.82837 1.5 7.99992ZM9.5 12.6666C9.5 11.8381 10.1715 11.1666 11 11.1666C11.8285 11.1666 12.5 11.8381 12.5 12.6666C12.5 13.495 11.8285 14.1666 11 14.1666C10.1715 14.1666 9.5 13.495 9.5 12.6666Z" fill="#575775"/>
<path d="M9.08526 12.1007L9.5814 11.2325L9.14944 10.9856C8.92533 11.2322 8.74983 11.5238 8.63807 11.8452L9.08526 12.1007Z" fill="#575775"/>
</svg>
