<svg width="18" height="18" viewBox="0 0 18 18" fill="none" xmlns="http://www.w3.org/2000/svg">
<path fill-rule="evenodd" clip-rule="evenodd" d="M11.0574 1.05806C11.3015 0.813981 11.6972 0.813981 11.9413 1.05806L17.7746 6.89139C18.0187 7.13547 18.0187 7.5312 17.7746 7.77527L11.9413 13.6086C11.6972 13.8527 11.3015 13.8527 11.0574 13.6086C10.8133 13.3645 10.8133 12.9688 11.0574 12.7247L15.8238 7.95833H5.66602C4.15088 7.95833 3.06863 8.47479 2.3647 9.20072C1.65366 9.93398 1.29102 10.9195 1.29102 11.9167C1.29102 12.9138 1.65366 13.8994 2.3647 14.6326C3.06863 15.3585 4.15088 15.875 5.66602 15.875C6.01119 15.875 6.29102 16.1548 6.29102 16.5C6.29102 16.8452 6.01119 17.125 5.66602 17.125C3.84782 17.125 2.43007 16.4956 1.46733 15.5028C0.511708 14.5173 0.0410156 13.2112 0.0410156 11.9167C0.0410156 10.6221 0.511708 9.31602 1.46733 8.33053C2.43007 7.33771 3.84782 6.70833 5.66602 6.70833H15.8238L11.0574 1.94194C10.8133 1.69786 10.8133 1.30214 11.0574 1.05806Z" fill="white"/>
</svg>
