<svg width="10" height="8" viewBox="0 0 10 8" fill="none" xmlns="http://www.w3.org/2000/svg">
<path fill-rule="evenodd" clip-rule="evenodd" d="M0.391066 0.22473C0.635144 -0.0193477 1.03087 -0.0193477 1.27495 0.22473L4.19162 3.1414C4.43569 3.38547 4.43569 3.7812 4.19162 4.02528L1.27495 6.94195C1.03087 7.18602 0.635144 7.18602 0.391066 6.94195C0.146988 6.69787 0.146988 6.30214 0.391066 6.05806L2.86579 3.58334L0.391066 1.10861C0.146988 0.864536 0.146988 0.468808 0.391066 0.22473Z" fill="#262541"/>
<path fill-rule="evenodd" clip-rule="evenodd" d="M5.39107 0.22473C5.63514 -0.0193477 6.03087 -0.0193477 6.27495 0.22473L9.19162 3.1414C9.43569 3.38547 9.43569 3.7812 9.19162 4.02528L6.27495 6.94195C6.03087 7.18602 5.63514 7.18602 5.39107 6.94195C5.14699 6.69787 5.14699 6.30214 5.39107 6.05806L7.86579 3.58334L5.39107 1.10861C5.14699 0.864536 5.14699 0.468808 5.39107 0.22473Z" fill="#262541"/>
</svg>
