<svg width="10" height="8" viewBox="0 0 10 8" fill="none" xmlns="http://www.w3.org/2000/svg">
<path fill-rule="evenodd" clip-rule="evenodd" d="M9.1921 0.224722C9.43618 0.4688 9.43618 0.864528 9.1921 1.10861L6.71738 3.58333L9.1921 6.05806C9.43618 6.30213 9.43618 6.69786 9.1921 6.94194C8.94803 7.18602 8.5523 7.18602 8.30822 6.94194L5.39155 4.02527C5.14748 3.78119 5.14748 3.38547 5.39155 3.14139L8.30822 0.224722C8.5523 -0.0193553 8.94803 -0.0193553 9.1921 0.224722Z" fill="#262541"/>
<path fill-rule="evenodd" clip-rule="evenodd" d="M4.1921 0.224722C4.43618 0.4688 4.43618 0.864528 4.1921 1.10861L1.71738 3.58333L4.1921 6.05806C4.43618 6.30213 4.43618 6.69786 4.1921 6.94194C3.94803 7.18602 3.5523 7.18602 3.30822 6.94194L0.391554 4.02527C0.147477 3.78119 0.147477 3.38547 0.391554 3.14139L3.30822 0.224722C3.5523 -0.0193553 3.94803 -0.0193553 4.1921 0.224722Z" fill="#262541"/>
</svg>
