<svg width="16" height="16" viewBox="0 0 16 16" fill="none" xmlns="http://www.w3.org/2000/svg">
<path fill-rule="evenodd" clip-rule="evenodd" d="M3.83398 0.708328C4.17916 0.708328 4.45898 0.98815 4.45898 1.33333V2.16666C4.45898 2.51184 4.17916 2.79166 3.83398 2.79166C3.48881 2.79166 3.20898 2.51184 3.20898 2.16666V1.33333C3.20898 0.98815 3.48881 0.708328 3.83398 0.708328ZM11.7254 0.891387C11.9695 0.647309 12.3652 0.647309 12.6093 0.891387L15.1093 3.39139C15.3533 3.63546 15.3533 4.03119 15.1093 4.27527C14.8652 4.51935 14.4695 4.51935 14.2254 4.27527L12.7923 2.84221V14.6667C12.7923 15.0118 12.5125 15.2917 12.1673 15.2917C11.8221 15.2917 11.5423 15.0118 11.5423 14.6667V2.84221L10.1093 4.27527C9.86518 4.51935 9.46945 4.51935 9.22538 4.27527C8.9813 4.03119 8.9813 3.63546 9.22538 3.39139L11.7254 0.891387ZM3.83398 4.87499C4.17916 4.87499 4.45898 5.15482 4.45898 5.49999V6.33333C4.45898 6.67851 4.17916 6.95833 3.83398 6.95833C3.48881 6.95833 3.20898 6.67851 3.20898 6.33333V5.49999C3.20898 5.15482 3.48881 4.87499 3.83398 4.87499ZM3.83398 9.04166C4.17916 9.04166 4.45898 9.32148 4.45898 9.66666V13.1578L5.89204 11.7247C6.13612 11.4806 6.53185 11.4806 6.77593 11.7247C7.02 11.9688 7.02 12.3645 6.77593 12.6086L4.27593 15.1086C4.03185 15.3527 3.63612 15.3527 3.39204 15.1086L0.892043 12.6086C0.647965 12.3645 0.647965 11.9688 0.892043 11.7247C1.13612 11.4806 1.53185 11.4806 1.77593 11.7247L3.20898 13.1578V9.66666C3.20898 9.32148 3.48881 9.04166 3.83398 9.04166Z" fill="#262541"/>
</svg>
