<svg width="16" height="16" viewBox="0 0 16 16" fill="none" xmlns="http://www.w3.org/2000/svg">
<path fill-rule="evenodd" clip-rule="evenodd" d="M0.708008 3.83334C0.708008 4.17852 0.98783 4.45834 1.33301 4.45834H2.16634C2.51152 4.45834 2.79134 4.17852 2.79134 3.83334C2.79134 3.48817 2.51152 3.20834 2.16634 3.20834H1.33301C0.98783 3.20834 0.708008 3.48817 0.708008 3.83334ZM0.891066 11.7247C0.646988 11.9688 0.646988 12.3645 0.891066 12.6086L3.39107 15.1086C3.63514 15.3527 4.03087 15.3527 4.27495 15.1086C4.51903 14.8645 4.51903 14.4688 4.27495 14.2247L2.84189 12.7917H14.6663C15.0115 12.7917 15.2913 12.5119 15.2913 12.1667C15.2913 11.8215 15.0115 11.5417 14.6663 11.5417H2.84189L4.27495 10.1086C4.51903 9.86454 4.51903 9.46881 4.27495 9.22474C4.03087 8.98066 3.63514 8.98066 3.39107 9.22474L0.891066 11.7247ZM4.87467 3.83334C4.87467 4.17852 5.1545 4.45834 5.49967 4.45834H6.33301C6.67819 4.45834 6.95801 4.17852 6.95801 3.83334C6.95801 3.48817 6.67819 3.20834 6.33301 3.20834H5.49967C5.1545 3.20834 4.87467 3.48817 4.87467 3.83334ZM9.04134 3.83334C9.04134 4.17852 9.32116 4.45834 9.66634 4.45834L13.1575 4.45834L11.7244 5.8914C11.4803 6.13548 11.4803 6.53121 11.7244 6.77529C11.9685 7.01936 12.3642 7.01936 12.6083 6.77529L15.1083 4.27529C15.3524 4.03121 15.3524 3.63548 15.1083 3.3914L12.6083 0.891402C12.3642 0.647324 11.9685 0.647324 11.7244 0.891402C11.4803 1.13548 11.4803 1.53121 11.7244 1.77529L13.1575 3.20834L9.66634 3.20834C9.32116 3.20834 9.04134 3.48817 9.04134 3.83334Z" fill="#575775"/>
</svg>
