<svg width="18" height="18" viewBox="0 0 18 18" fill="none" xmlns="http://www.w3.org/2000/svg">
<path fill-rule="evenodd" clip-rule="evenodd" d="M4 0.25C4.41421 0.25 4.75 0.585786 4.75 1V15.1893L6.46967 13.4697C6.76256 13.1768 7.23744 13.1768 7.53033 13.4697C7.82322 13.7626 7.82322 14.2374 7.53033 14.5303L4.53033 17.5303C4.23744 17.8232 3.76256 17.8232 3.46967 17.5303L0.46967 14.5303C0.176777 14.2374 0.176777 13.7626 0.46967 13.4697C0.762563 13.1768 1.23744 13.1768 1.53033 13.4697L3.25 15.1893V1C3.25 0.585786 3.58579 0.25 4 0.25ZM13.4697 0.46967C13.7626 0.176777 14.2374 0.176777 14.5303 0.46967L17.5303 3.46967C17.8232 3.76256 17.8232 4.23744 17.5303 4.53033C17.2374 4.82322 16.7626 4.82322 16.4697 4.53033L14.75 2.81066V7C14.75 7.41421 14.4142 7.75 14 7.75C13.5858 7.75 13.25 7.41421 13.25 7V2.81066L11.5303 4.53033C11.2374 4.82322 10.7626 4.82322 10.4697 4.53033C10.1768 4.23744 10.1768 3.76256 10.4697 3.46967L13.4697 0.46967ZM14.75 11V12C14.75 12.4142 14.4142 12.75 14 12.75C13.5858 12.75 13.25 12.4142 13.25 12V11C13.25 10.5858 13.5858 10.25 14 10.25C14.4142 10.25 14.75 10.5858 14.75 11ZM14.75 16V17C14.75 17.4142 14.4142 17.75 14 17.75C13.5858 17.75 13.25 17.4142 13.25 17V16C13.25 15.5858 13.5858 15.25 14 15.25C14.4142 15.25 14.75 15.5858 14.75 16Z" fill="#262541"/>
</svg>
