<svg width="14" height="14" viewBox="0 0 14 14" fill="none" xmlns="http://www.w3.org/2000/svg">
<path fill-rule="evenodd" clip-rule="evenodd" d="M0.4375 3.25C0.4375 3.56066 0.68934 3.8125 1 3.8125H1.75C2.06066 3.8125 2.3125 3.56066 2.3125 3.25C2.3125 2.93934 2.06066 2.6875 1.75 2.6875H1C0.68934 2.6875 0.4375 2.93934 0.4375 3.25ZM0.602252 10.3523C0.382583 10.5719 0.382583 10.9281 0.602252 11.1477L2.85225 13.3977C3.07192 13.6174 3.42808 13.6174 3.64775 13.3977C3.86742 13.1781 3.86742 12.8219 3.64775 12.6023L2.35799 11.3125H13C13.3107 11.3125 13.5625 11.0607 13.5625 10.75C13.5625 10.4393 13.3107 10.1875 13 10.1875H2.35799L3.64775 8.89775C3.86742 8.67808 3.86742 8.32192 3.64775 8.10225C3.42808 7.88258 3.07192 7.88258 2.85225 8.10225L0.602252 10.3523ZM4.1875 3.25C4.1875 3.56066 4.43934 3.8125 4.75 3.8125H5.5C5.81066 3.8125 6.0625 3.56066 6.0625 3.25C6.0625 2.93934 5.81066 2.6875 5.5 2.6875H4.75C4.43934 2.6875 4.1875 2.93934 4.1875 3.25ZM7.9375 3.25C7.9375 3.56066 8.18934 3.8125 8.5 3.8125L11.642 3.8125L10.3523 5.10225C10.1326 5.32192 10.1326 5.67808 10.3523 5.89775C10.5719 6.11742 10.9281 6.11742 11.1477 5.89775L13.3977 3.64775C13.6174 3.42808 13.6174 3.07192 13.3977 2.85225L11.1477 0.602252C10.9281 0.382583 10.5719 0.382583 10.3523 0.602252C10.1326 0.821922 10.1326 1.17808 10.3523 1.39775L11.642 2.6875L8.5 2.6875C8.18934 2.6875 7.9375 2.93934 7.9375 3.25Z" fill="#575775"/>
</svg>
