<svg width="20" height="20" viewBox="0 0 20 20" fill="none" xmlns="http://www.w3.org/2000/svg">
<path fill-rule="evenodd" clip-rule="evenodd" d="M12.2045 2.2045C12.4155 1.99353 12.7016 1.875 13 1.875H17C17.2984 1.875 17.5845 1.99353 17.7955 2.2045C18.0065 2.41548 18.125 2.70163 18.125 3V17C18.125 17.2984 18.0065 17.5845 17.7955 17.7955C17.5845 18.0065 17.2984 18.125 17 18.125H3C2.70163 18.125 2.41548 18.0065 2.2045 17.7955C1.99353 17.5845 1.875 17.2984 1.875 17V13.8333C1.875 13.535 1.99353 13.2488 2.2045 13.0378C2.41548 12.8269 2.70163 12.7083 3 12.7083H6.875V8C6.875 7.70163 6.99352 7.41548 7.2045 7.2045C7.41548 6.99352 7.70163 6.875 8 6.875H11.875V3C11.875 2.70163 11.9935 2.41548 12.2045 2.2045ZM11.875 8.125H8.125V16.875H11.875V8.125ZM13.125 16.875H16.875V3.125H13.125V16.875ZM6.875 16.875V13.9583H3.125V16.875H6.875Z" fill="#575775"/>
</svg>
