<svg width="400" height="400" viewBox="0 0 400 400" fill="none" xmlns="http://www.w3.org/2000/svg">
<path fill-rule="evenodd" clip-rule="evenodd" d="M106.968 99.7611C106.734 89.0629 115.217 80.2014 125.915 79.9679C136.614 79.7343 145.475 88.2172 145.709 98.9154C145.942 109.614 137.459 118.475 126.761 118.709C116.063 118.942 107.201 110.459 106.968 99.7611ZM126.085 87.716C119.666 87.8561 114.576 93.1729 114.716 99.592C114.856 106.011 120.173 111.101 126.592 110.96C133.011 110.82 138.101 105.504 137.96 99.0845C137.82 92.6655 132.504 87.5759 126.085 87.716Z" fill="#262541"/>
<path fill-rule="evenodd" clip-rule="evenodd" d="M116.179 46.8946C116.59 45.1829 118.103 43.9631 119.863 43.9247L129.957 43.7043C131.718 43.6659 133.283 44.8194 133.767 46.5124L136.719 56.8284L146.818 60.726L153.848 54.448C155.356 53.1007 157.647 53.1404 159.108 54.539L169.665 64.6444C171.12 66.0376 171.265 68.3138 169.998 69.8804L164.059 77.2234L168.295 86.8523L178.753 89.2698C180.479 89.669 181.715 91.1889 181.754 92.9608L181.976 103.174C182.015 104.938 180.857 106.505 179.16 106.986L168.76 109.936L164.943 119.754L171.239 126.859C172.576 128.369 172.532 130.652 171.137 132.108L161.032 142.665C159.609 144.152 157.271 144.266 155.709 142.926L155.417 142.676C155.227 142.514 154.953 142.28 154.617 141.994C153.943 141.423 153.023 140.645 152.032 139.82C150.81 138.803 149.558 137.777 148.539 136.973L138.825 141.247L136.408 151.749C136.01 153.478 134.489 154.715 132.716 154.754L122.385 154.979C120.611 155.018 119.037 153.847 118.565 152.136L115.7 141.752L106.092 138.042L98.7607 144.288C97.2474 145.577 95.0041 145.512 93.5681 144.137L83.0117 134.032C81.5281 132.612 81.4103 130.281 82.7432 128.718L88.792 121.627L84.5061 112.05L73.858 109.391C72.1629 108.968 70.9607 107.462 70.9226 105.716L70.6971 95.385C70.6578 93.5846 71.8639 91.9944 73.6083 91.5469L83.8581 88.9177L87.6095 79.085L81.3848 71.7562C80.0993 70.2428 80.1659 68.0025 81.539 66.5681L91.6444 56.0117C93.0635 54.5293 95.3923 54.4103 96.9551 55.7404L104.068 61.7939L113.631 57.5147L116.179 46.8946ZM123.018 51.6077L120.722 61.1771C120.441 62.3462 119.634 63.3189 118.537 63.8099L105.001 69.8667C103.638 70.4769 102.045 70.2489 100.907 69.2807L94.7154 64.0111L89.554 69.4028L95.0007 75.8155C95.9161 76.8933 96.1717 78.3841 95.6677 79.7053L90.3842 93.554C89.9358 94.7292 88.9449 95.6137 87.7265 95.9263L78.5123 98.2899L78.6062 102.588L88.212 104.987C89.3664 105.275 90.3244 106.078 90.8104 107.164L96.8661 120.696C97.477 122.062 97.2478 123.656 96.2772 124.794L91.0141 130.964L96.399 136.119L102.822 130.647C103.904 129.725 105.405 129.469 106.731 129.981L120.312 135.225C121.457 135.667 122.325 136.626 122.652 137.809L125.233 147.165L129.531 147.072L131.708 137.614C131.983 136.421 132.804 135.429 133.924 134.936L147.492 128.967C148.716 128.428 150.132 128.559 151.236 129.313C152.581 130.231 155.032 132.233 156.992 133.865C157.323 134.141 157.647 134.412 157.956 134.671L163.071 129.327L157.574 123.123C156.612 122.036 156.337 120.503 156.863 119.149L162.236 105.33C162.676 104.198 163.622 103.338 164.79 103.006L174.163 100.348L174.071 96.142L164.658 93.9657C163.467 93.6904 162.476 92.8695 161.983 91.7507L156.014 78.183C155.43 76.8556 155.637 75.3133 156.548 74.1858L161.731 67.7781L156.337 62.6151L150.214 68.0842C149.129 69.0527 147.594 69.3326 146.237 68.8091L132.129 63.3641C130.996 62.9266 130.133 61.983 129.799 60.815L127.139 51.5177L123.018 51.6077Z" fill="#262541"/>
<path fill-rule="evenodd" clip-rule="evenodd" d="M121.656 299.138C121.056 288.454 129.231 279.307 139.915 278.708C150.599 278.108 159.745 286.283 160.345 296.967C160.944 307.651 152.769 316.798 142.085 317.397C131.401 317.996 122.255 309.822 121.656 299.138ZM140.349 286.446C133.938 286.805 129.034 292.293 129.393 298.704C129.753 305.114 135.241 310.019 141.651 309.659C148.062 309.299 152.966 303.812 152.607 297.401C152.247 290.991 146.759 286.086 140.349 286.446Z" fill="#262541"/>
<path fill-rule="evenodd" clip-rule="evenodd" d="M129.053 245.987C129.405 244.262 130.875 242.991 132.632 242.893L142.714 242.327C144.472 242.229 146.076 243.328 146.618 245.003L149.921 255.212L160.147 258.762L166.958 252.247C168.419 250.849 170.71 250.81 172.218 252.158L183.114 261.897C184.617 263.239 184.839 265.509 183.627 267.118L177.942 274.66L182.505 284.138L193.039 286.197C194.779 286.537 196.066 288.013 196.165 289.783L196.737 299.982C196.836 301.744 195.732 303.35 194.052 303.889L183.76 307.192L180.281 317.135L186.816 324.021C188.204 325.484 188.238 327.767 186.894 329.271L177.156 340.167C175.784 341.701 173.452 341.896 171.845 340.61L171.544 340.37C171.349 340.214 171.067 339.99 170.721 339.716C170.029 339.168 169.082 338.422 168.064 337.632C166.808 336.657 165.521 335.674 164.475 334.906L154.913 339.509L152.856 350.088C152.518 351.829 151.041 353.118 149.27 353.217L138.953 353.796C137.181 353.896 135.568 352.779 135.038 351.085L131.819 340.805L122.09 337.426L114.976 343.919C113.508 345.259 111.264 345.271 109.782 343.946L98.8858 334.208C97.3544 332.839 97.157 330.514 98.4357 328.906L104.238 321.613L99.6273 312.187L88.8944 309.894C87.1859 309.529 85.9329 308.066 85.835 306.322L85.2562 296.005C85.1554 294.207 86.3065 292.576 88.0345 292.07L98.1884 289.091L101.601 279.136L95.1293 272.024C93.7929 270.556 93.7828 268.315 95.106 266.834L104.844 255.938C106.212 254.408 108.535 254.209 110.143 255.485L117.458 261.292L126.869 256.688L129.053 245.987ZM136.049 250.463L134.081 260.106C133.841 261.284 133.068 262.283 131.988 262.812L118.667 269.328C117.325 269.985 115.726 269.811 114.556 268.882L108.187 263.828L103.213 269.393L108.876 275.615C109.828 276.661 110.134 278.142 109.676 279.48L104.869 293.502C104.461 294.691 103.501 295.609 102.294 295.963L93.1663 298.641L93.4071 302.934L103.089 305.002C104.253 305.251 105.238 306.02 105.761 307.089L112.276 320.406C112.933 321.75 112.759 323.351 111.827 324.522L106.779 330.868L112.337 335.836L118.569 330.147C119.619 329.188 121.11 328.882 122.453 329.348L136.205 334.124C137.365 334.527 138.265 335.455 138.632 336.627L141.532 345.889L145.824 345.649L147.676 336.122C147.91 334.921 148.697 333.9 149.799 333.37L163.155 326.94C164.36 326.36 165.779 326.442 166.909 327.158C168.285 328.029 170.803 329.947 172.817 331.51C173.157 331.775 173.49 332.034 173.808 332.283L178.737 326.767L173.032 320.755C172.032 319.702 171.705 318.178 172.185 316.808L177.082 302.813C177.483 301.666 178.398 300.774 179.555 300.403L188.831 297.425L188.596 293.225L179.113 291.372C177.914 291.138 176.895 290.351 176.365 289.25L169.935 275.894C169.306 274.588 169.459 273.039 170.332 271.881L175.292 265.3L169.725 260.324L163.792 266C162.742 267.005 161.217 267.337 159.843 266.86L145.557 261.901C144.409 261.503 143.515 260.589 143.141 259.433L140.164 250.232L136.049 250.463Z" fill="#262541"/>
<g clip-path="url(#clip0_1884_27732)">
<path d="M245.955 105.415L245.328 105.004L245.328 105.004L245.955 105.415ZM272.863 114.421L273.612 114.471L272.863 114.421ZM271.722 131.69L270.973 131.641C270.958 131.875 271.053 132.104 271.231 132.257L271.722 131.69ZM284.927 143.111L284.437 143.678C284.65 143.862 284.948 143.912 285.208 143.806L284.927 143.111ZM299.02 137.412L298.739 136.717L299.02 137.412ZM306.957 140.418L307.628 140.083L306.957 140.418ZM317.474 161.512L318.145 161.177L317.474 161.512ZM315.126 169.642L314.736 169.001L315.126 169.642ZM302.108 177.551L301.719 176.911C301.479 177.056 301.34 177.324 301.36 177.604L302.108 177.551ZM303.29 194.477L302.542 194.529C302.559 194.765 302.686 194.98 302.884 195.108L303.29 194.477ZM317.847 203.847L318.253 203.216L317.847 203.847ZM320.392 211.086L321.103 211.324L320.392 211.086ZM315.163 226.711L315.874 226.949L315.163 226.711ZM308.809 230.962L308.86 230.214L308.86 230.214L308.809 230.962ZM291.415 229.772L291.466 229.024C291.232 229.008 291.003 229.102 290.849 229.28L291.415 229.772ZM280.27 242.595L279.703 242.103C279.519 242.315 279.469 242.613 279.573 242.874L280.27 242.595ZM285.953 256.813L285.257 257.091L285.953 256.813ZM282.938 264.726L283.273 265.397L282.938 264.726ZM253.622 272.738L254.274 272.367L254.274 272.366L253.622 272.738ZM253.315 272.199L253.966 271.827L253.966 271.827L253.315 272.199ZM252.471 270.729L251.821 271.103L251.821 271.103L252.471 270.729ZM249.733 266.019L250.379 265.639L249.733 266.019ZM245.982 259.794L246.618 259.396C246.471 259.161 246.206 259.026 245.93 259.045L245.982 259.794ZM228.906 260.986L228.854 260.238C228.618 260.255 228.403 260.382 228.275 260.581L228.906 260.986ZM219.513 275.612L218.882 275.206L219.513 275.612ZM192.216 266.474L192.964 266.531L192.216 266.474ZM193.527 249.149L194.275 249.206C194.293 248.969 194.198 248.737 194.018 248.582L193.527 249.149ZM180.964 238.281L181.454 237.714C181.246 237.534 180.956 237.482 180.699 237.579L180.964 238.281ZM166.431 243.766L166.166 243.065L166.166 243.065L166.431 243.766ZM158.63 240.708L159.301 240.373L158.63 240.708ZM148.113 219.614L147.442 219.949L148.113 219.614ZM150.602 211.401L150.229 210.75L150.602 211.401ZM163.649 203.934L164.022 204.584C164.273 204.441 164.419 204.165 164.397 203.877L163.649 203.934ZM162.363 187.059L163.111 187.002C163.094 186.772 162.972 186.563 162.78 186.435L162.363 187.059ZM147.648 177.219L147.231 177.842L147.231 177.842L147.648 177.219ZM156.995 149.995L157.065 149.249L156.995 149.995ZM173.987 151.591L173.917 152.337C174.16 152.36 174.398 152.264 174.557 152.079L173.987 151.591ZM185.041 138.709L185.61 139.198C185.789 138.99 185.84 138.702 185.743 138.445L185.041 138.709ZM179.586 124.191L178.884 124.455L178.884 124.455L179.586 124.191ZM182.648 116.4L182.314 115.728L182.648 116.4ZM203.742 105.883L204.077 106.554L204.077 106.554L203.742 105.883ZM211.952 108.365L211.301 108.739L211.952 108.365ZM219.45 121.431L218.799 121.805C218.943 122.055 219.218 122.201 219.507 122.179L219.45 121.431ZM236.299 120.148L236.356 120.895C236.588 120.878 236.798 120.753 236.926 120.559L236.299 120.148ZM253.769 116.297L254.006 115.586C253.683 115.478 253.328 115.601 253.141 115.886L253.769 116.297ZM245.067 129.572L245.694 129.983L245.694 129.983L245.067 129.572ZM240.315 132.378L240.258 131.63L240.315 132.378ZM216.467 134.195L216.524 134.943L216.467 134.195ZM210.571 131.074L209.92 131.447L210.571 131.074ZM204.044 119.7L204.695 119.326C204.497 118.982 204.065 118.851 203.709 119.028L204.044 119.7ZM193.27 125.071L192.936 124.4C192.592 124.572 192.433 124.975 192.568 125.335L193.27 125.071ZM198.043 137.774L198.745 137.511L198.043 137.774ZM196.936 144.043L197.505 144.531L196.936 144.043ZM181.367 162.186L180.798 161.697L181.367 162.186ZM176.04 164.338L175.97 165.085L175.97 165.085L176.04 164.338ZM160.764 162.904L160.834 162.158C160.487 162.125 160.163 162.336 160.053 162.666L160.764 162.904ZM158.564 169.481L157.852 169.243C157.745 169.563 157.866 169.916 158.147 170.104L158.564 169.481ZM171.838 178.357L172.255 177.734L171.838 178.357ZM174.596 183.078L173.848 183.135L174.596 183.078ZM176.413 206.921L175.665 206.978L176.413 206.921ZM173.286 212.821L173.658 213.472L173.286 212.821ZM161.933 219.318L161.561 218.667C161.216 218.865 161.085 219.297 161.262 219.653L161.933 219.318ZM167.298 230.078L166.627 230.413C166.799 230.757 167.203 230.916 167.563 230.78L167.298 230.078ZM180.031 225.272L180.296 225.974L180.296 225.974L180.031 225.272ZM186.327 226.393L186.818 225.826L186.818 225.826L186.327 226.393ZM204.086 241.755L203.595 242.322L204.086 241.755ZM206.229 246.953L206.977 247.01L206.229 246.953ZM205.048 262.563L204.3 262.507C204.274 262.849 204.484 263.165 204.81 263.274L205.048 262.563ZM211.624 264.763L211.386 265.475C211.712 265.584 212.07 265.458 212.255 265.169L211.624 264.763ZM220.084 251.593L220.715 251.998L220.084 251.593ZM224.907 248.735L224.855 247.987L224.907 248.735ZM248.756 247.069L248.809 247.818L248.756 247.069ZM254.252 249.636L253.645 250.076L253.645 250.076L254.252 249.636ZM260.507 259.682L259.861 260.063L260.507 259.682ZM261.532 261.432L260.884 261.809C261.083 262.151 261.513 262.279 261.866 262.103L261.532 261.432ZM272.21 256.108L272.544 256.779C272.894 256.605 273.051 256.192 272.906 255.829L272.21 256.108ZM267.247 243.694L266.55 243.972L266.55 243.972L267.247 243.694ZM268.333 237.274L268.899 237.766L268.333 237.274ZM284.021 219.224L284.587 219.716L284.587 219.716L284.021 219.224ZM289.165 217.089L289.114 217.837L289.165 217.089ZM304.842 218.162L304.791 218.91C305.132 218.933 305.445 218.724 305.553 218.4L304.842 218.162ZM306.995 211.727L307.707 211.965C307.815 211.64 307.69 211.282 307.401 211.097L306.995 211.727ZM293.891 203.293L293.485 203.923L293.891 203.293ZM291.039 198.473L290.291 198.525L291.039 198.473ZM289.373 174.623L290.121 174.571L290.121 174.571L289.373 174.623ZM292.362 168.847L291.973 168.206L291.973 168.206L292.362 168.847ZM303.722 161.944L304.111 162.585C304.445 162.383 304.567 161.959 304.393 161.61L303.722 161.944ZM298.349 151.167L299.02 150.832C298.845 150.482 298.43 150.325 298.067 150.472L298.349 151.167ZM286.071 156.131L286.353 156.827L286.071 156.131ZM279.64 155.065L280.131 154.497L279.64 155.065ZM261.192 139.11L260.701 139.677L261.192 139.11ZM259.044 133.97L259.792 134.02L259.044 133.97ZM260.073 118.406L260.821 118.456C260.843 118.116 260.634 117.803 260.311 117.695L260.073 118.406ZM204.564 179.011C204.721 178.628 204.537 178.19 204.153 178.033C203.77 177.877 203.332 178.061 203.176 178.444L204.564 179.011ZM205.006 174.681C204.801 175.04 204.926 175.498 205.286 175.704C205.646 175.909 206.104 175.783 206.309 175.424L205.006 174.681ZM208.509 172.095C208.76 171.766 208.696 171.295 208.366 171.044C208.036 170.794 207.566 170.858 207.315 171.187L208.509 172.095ZM210.063 168.029C209.771 168.323 209.773 168.798 210.067 169.09C210.361 169.381 210.835 169.38 211.127 169.086L210.063 168.029ZM214.118 166.445C214.446 166.191 214.506 165.72 214.253 165.393C213.999 165.065 213.528 165.005 213.201 165.258L214.118 166.445ZM216.672 162.919C216.315 163.128 216.193 163.587 216.402 163.945C216.611 164.303 217.07 164.424 217.428 164.215L216.672 162.919ZM220.999 162.435C221.381 162.275 221.56 161.835 221.4 161.453C221.24 161.071 220.8 160.892 220.418 161.052L220.999 162.435ZM224.375 159.686C223.976 159.796 223.741 160.208 223.85 160.608C223.959 161.007 224.372 161.242 224.771 161.133L224.375 159.686ZM228.68 160.334C229.091 160.278 229.378 159.9 229.322 159.489C229.265 159.079 228.887 158.792 228.477 158.848L228.68 160.334ZM232.653 158.555C232.239 158.556 231.904 158.894 231.906 159.308C231.908 159.722 232.245 160.056 232.659 160.055L232.653 158.555ZM236.641 160.3C237.052 160.353 237.428 160.063 237.481 159.652C237.533 159.241 237.243 158.865 236.832 158.813L236.641 160.3ZM240.94 159.616C240.539 159.51 240.129 159.749 240.023 160.149C239.917 160.55 240.156 160.96 240.557 161.066L240.94 159.616ZM244.345 162.334C244.729 162.49 245.166 162.306 245.323 161.923C245.479 161.539 245.295 161.101 244.912 160.945L244.345 162.334ZM248.676 162.775C248.316 162.57 247.858 162.696 247.653 163.055C247.447 163.415 247.573 163.873 247.933 164.078L248.676 162.775ZM251.261 166.279C251.591 166.529 252.061 166.465 252.312 166.135C252.563 165.806 252.499 165.335 252.169 165.084L251.261 166.279ZM255.327 167.832C255.033 167.54 254.558 167.542 254.267 167.836C253.975 168.13 253.976 168.605 254.27 168.897L255.327 167.832ZM256.911 171.887C257.165 172.215 257.636 172.275 257.964 172.022C258.291 171.769 258.352 171.298 258.098 170.97L256.911 171.887ZM260.437 174.442C260.228 174.084 259.769 173.963 259.411 174.171C259.053 174.38 258.932 174.839 259.141 175.197L260.437 174.442ZM260.921 178.768C261.082 179.15 261.521 179.33 261.903 179.17C262.285 179.009 262.465 178.57 262.304 178.188L260.921 178.768ZM263.67 182.145C263.561 181.745 263.148 181.51 262.749 181.619C262.349 181.728 262.114 182.141 262.223 182.541L263.67 182.145ZM263.022 186.449C263.078 186.86 263.456 187.147 263.867 187.091C264.277 187.035 264.564 186.656 264.508 186.246L263.022 186.449ZM264.802 190.422C264.8 190.008 264.463 189.674 264.048 189.675C263.634 189.677 263.3 190.014 263.302 190.429L264.802 190.422ZM263.056 194.411C263.003 194.822 263.293 195.197 263.704 195.25C264.115 195.303 264.491 195.012 264.544 194.602L263.056 194.411ZM263.74 198.709C263.846 198.309 263.607 197.898 263.207 197.792C262.806 197.687 262.396 197.925 262.29 198.326L263.74 198.709ZM261.022 202.114C260.866 202.498 261.05 202.936 261.434 203.092C261.817 203.249 262.255 203.065 262.411 202.681L261.022 202.114ZM260.581 206.445C260.786 206.085 260.661 205.627 260.301 205.422C259.941 205.217 259.483 205.342 259.278 205.702L260.581 206.445ZM257.078 209.03C256.827 209.36 256.891 209.831 257.221 210.081C257.551 210.332 258.021 210.268 258.272 209.938L257.078 209.03ZM255.524 213.097C255.816 212.803 255.814 212.328 255.52 212.036C255.226 211.744 254.751 211.746 254.46 212.04L255.524 213.097ZM251.469 214.681C251.141 214.934 251.081 215.405 251.334 215.733C251.588 216.061 252.059 216.121 252.386 215.868L251.469 214.681ZM248.914 218.206C249.272 217.998 249.393 217.538 249.185 217.181C248.976 216.823 248.517 216.702 248.159 216.91L248.914 218.206ZM244.588 218.691C244.206 218.851 244.026 219.291 244.187 219.672C244.347 220.054 244.787 220.234 245.169 220.074L244.588 218.691ZM241.212 221.439C241.611 221.33 241.846 220.917 241.737 220.518C241.628 220.118 241.215 219.883 240.816 219.992L241.212 221.439ZM236.907 220.791C236.496 220.847 236.209 221.226 236.265 221.636C236.322 222.046 236.7 222.334 237.11 222.277L236.907 220.791ZM232.934 222.571C233.348 222.569 233.683 222.232 233.681 221.818C233.679 221.404 233.342 221.069 232.928 221.071L232.934 222.571ZM228.945 220.825C228.535 220.772 228.159 221.063 228.106 221.474C228.053 221.884 228.344 222.26 228.755 222.313L228.945 220.825ZM224.647 221.51C225.048 221.615 225.458 221.377 225.564 220.976C225.67 220.576 225.431 220.165 225.03 220.059L224.647 221.51ZM221.242 218.792C220.858 218.635 220.421 218.819 220.264 219.203C220.108 219.586 220.292 220.024 220.675 220.181L221.242 218.792ZM216.911 218.35C217.271 218.555 217.729 218.43 217.934 218.07C218.139 217.71 218.014 217.252 217.654 217.047L216.911 218.35ZM214.326 214.847C213.996 214.596 213.526 214.66 213.275 214.99C213.024 215.32 213.088 215.79 213.418 216.041L214.326 214.847ZM210.26 213.293C210.554 213.585 211.028 213.584 211.32 213.29C211.612 212.996 211.61 212.521 211.316 212.229L210.26 213.293ZM208.675 209.238C208.422 208.911 207.951 208.85 207.623 209.104C207.296 209.357 207.235 209.828 207.489 210.156L208.675 209.238ZM205.15 206.684C205.359 207.042 205.818 207.163 206.176 206.954C206.534 206.746 206.655 206.286 206.446 205.929L205.15 206.684ZM204.666 202.357C204.505 201.975 204.066 201.796 203.684 201.956C203.302 202.116 203.122 202.556 203.282 202.938L204.666 202.357ZM201.917 198.981C202.026 199.38 202.439 199.616 202.838 199.506C203.238 199.397 203.473 198.985 203.364 198.585L201.917 198.981ZM202.565 194.676C202.509 194.266 202.131 193.979 201.72 194.035C201.31 194.091 201.023 194.469 201.079 194.879L202.565 194.676ZM200.785 190.703C200.787 191.118 201.124 191.452 201.538 191.45C201.953 191.448 202.287 191.111 202.285 190.697L200.785 190.703ZM202.531 186.715C202.584 186.304 202.293 185.928 201.883 185.876C201.472 185.823 201.096 186.113 201.043 186.524L202.531 186.715ZM201.847 182.416C201.741 182.817 201.98 183.227 202.38 183.333C202.781 183.439 203.191 183.2 203.297 182.8L201.847 182.416ZM237.139 171.552C236.735 171.459 236.333 171.711 236.24 172.115C236.147 172.518 236.399 172.921 236.803 173.014L237.139 171.552ZM233.303 172.565C233.717 172.577 234.063 172.251 234.075 171.837C234.086 171.423 233.76 171.077 233.346 171.066L233.303 172.565ZM229.532 171.334C229.124 171.403 228.849 171.791 228.919 172.199C228.988 172.607 229.376 172.882 229.784 172.812L229.532 171.334ZM226.38 173.743C226.767 173.596 226.961 173.162 226.813 172.775C226.665 172.388 226.231 172.194 225.845 172.342L226.38 173.743ZM222.424 174.048C222.073 174.268 221.967 174.731 222.187 175.082C222.407 175.432 222.87 175.539 223.221 175.318L222.424 174.048ZM220.428 177.477C220.73 177.193 220.744 176.718 220.459 176.417C220.175 176.115 219.7 176.101 219.399 176.386L220.428 177.477ZM216.89 179.271C216.65 179.609 216.729 180.077 217.067 180.316C217.405 180.556 217.873 180.476 218.113 180.139L216.89 179.271ZM216.365 183.204C216.534 182.826 216.364 182.382 215.986 182.213C215.608 182.044 215.164 182.214 214.995 182.592L216.365 183.204ZM213.782 186.217C213.69 186.621 213.942 187.023 214.345 187.116C214.749 187.209 215.152 186.957 215.244 186.553L213.782 186.217ZM214.796 190.053C214.808 189.639 214.482 189.294 214.067 189.282C213.653 189.27 213.308 189.596 213.296 190.01L214.796 190.053ZM213.564 193.824C213.634 194.233 214.021 194.507 214.43 194.438C214.838 194.368 215.113 193.981 215.043 193.572L213.564 193.824ZM215.974 196.976C215.826 196.589 215.393 196.396 215.006 196.543C214.619 196.691 214.425 197.125 214.573 197.512L215.974 196.976ZM216.278 200.932C216.498 201.283 216.961 201.389 217.312 201.169C217.663 200.949 217.769 200.486 217.549 200.136L216.278 200.932ZM219.707 202.928C219.423 202.627 218.949 202.613 218.647 202.897C218.346 203.181 218.332 203.656 218.616 203.957L219.707 202.928ZM221.501 206.467C221.839 206.706 222.307 206.627 222.547 206.289C222.787 205.951 222.707 205.483 222.369 205.243L221.501 206.467ZM225.434 206.991C225.056 206.822 224.613 206.992 224.444 207.37C224.275 207.749 224.445 208.192 224.823 208.361L225.434 206.991ZM228.448 209.574C228.851 209.667 229.254 209.415 229.347 209.011C229.439 208.607 229.187 208.205 228.784 208.112L228.448 209.574ZM232.284 208.561C231.87 208.549 231.524 208.875 231.512 209.289C231.5 209.703 231.826 210.048 232.24 210.06L232.284 208.561ZM236.055 209.792C236.463 209.722 236.738 209.335 236.668 208.927C236.599 208.518 236.211 208.244 235.803 208.313L236.055 209.792ZM239.207 207.382C238.82 207.53 238.626 207.963 238.774 208.35C238.922 208.737 239.355 208.931 239.742 208.783L239.207 207.382ZM243.163 207.078C243.514 206.858 243.62 206.395 243.4 206.044C243.18 205.693 242.717 205.587 242.366 205.807L243.163 207.078ZM245.158 203.649C244.857 203.933 244.843 204.408 245.128 204.709C245.412 205.01 245.886 205.024 246.188 204.74L245.158 203.649ZM248.697 201.855C248.937 201.517 248.857 201.049 248.52 200.809C248.182 200.57 247.714 200.649 247.474 200.987L248.697 201.855ZM249.222 197.922C249.053 198.3 249.223 198.744 249.601 198.912C249.979 199.081 250.423 198.912 250.592 198.533L249.222 197.922ZM251.804 194.908C251.897 194.505 251.645 194.102 251.241 194.01C250.838 193.917 250.435 194.169 250.343 194.573L251.804 194.908ZM250.791 191.073C250.779 191.487 251.105 191.832 251.519 191.844C251.933 191.856 252.279 191.53 252.291 191.116L250.791 191.073ZM252.023 187.301C251.953 186.893 251.566 186.618 251.157 186.688C250.749 186.758 250.474 187.145 250.544 187.553L252.023 187.301ZM249.613 184.149C249.761 184.536 250.194 184.73 250.581 184.582C250.968 184.434 251.162 184.001 251.014 183.614L249.613 184.149ZM249.309 180.193C249.088 179.842 248.626 179.736 248.275 179.956C247.924 180.176 247.818 180.639 248.038 180.99L249.309 180.193ZM245.879 178.198C246.164 178.499 246.638 178.513 246.94 178.229C247.241 177.944 247.255 177.47 246.971 177.168L245.879 178.198ZM244.086 174.659C243.748 174.419 243.28 174.499 243.04 174.837C242.8 175.174 242.88 175.643 243.218 175.882L244.086 174.659ZM240.152 174.134C240.531 174.303 240.974 174.133 241.143 173.755C241.312 173.377 241.142 172.933 240.764 172.765L240.152 174.134ZM244.121 106.845C243.894 107.192 243.991 107.657 244.337 107.884C244.684 108.111 245.149 108.014 245.376 107.668L244.121 106.845ZM242.961 111.351C243.188 111.005 243.092 110.54 242.745 110.313C242.399 110.085 241.934 110.182 241.707 110.529L242.961 111.351ZM239.293 114.212C239.066 114.558 239.162 115.023 239.509 115.25C239.855 115.477 240.32 115.38 240.547 115.034L239.293 114.212ZM238.133 118.717C238.36 118.371 238.263 117.906 237.917 117.679C237.57 117.452 237.106 117.548 236.878 117.895L238.133 118.717ZM234.135 119.56C233.722 119.592 233.413 119.952 233.445 120.365C233.476 120.778 233.836 121.087 234.249 121.056L234.135 119.56ZM230.037 121.377C230.45 121.345 230.76 120.985 230.728 120.572C230.697 120.159 230.336 119.85 229.923 119.881L230.037 121.377ZM225.711 120.202C225.298 120.234 224.989 120.594 225.02 121.007C225.052 121.42 225.412 121.729 225.825 121.698L225.711 120.202ZM221.613 122.019C222.026 121.987 222.335 121.627 222.304 121.214C222.272 120.801 221.912 120.492 221.499 120.523L221.613 122.019ZM219.163 119.425C218.957 119.066 218.498 118.941 218.139 119.148C217.78 119.354 217.656 119.812 217.862 120.171L219.163 119.425ZM215.987 116.905C216.194 117.264 216.652 117.388 217.011 117.182C217.371 116.976 217.495 116.518 217.288 116.158L215.987 116.905ZM215.414 112.892C215.208 112.533 214.749 112.408 214.39 112.615C214.031 112.821 213.907 113.279 214.113 113.638L215.414 112.892ZM212.238 110.372C212.445 110.731 212.903 110.855 213.262 110.649C213.622 110.443 213.746 109.985 213.54 109.625L212.238 110.372ZM210.888 105.996C210.564 105.738 210.092 105.792 209.834 106.116C209.577 106.441 209.631 106.912 209.955 107.17L210.888 105.996ZM206.067 105.994C206.48 105.96 206.786 105.597 206.751 105.184C206.716 104.771 206.354 104.465 205.941 104.5L206.067 105.994ZM201.65 106.088C201.279 106.273 201.128 106.723 201.313 107.094C201.498 107.464 201.948 107.615 202.319 107.43L201.65 106.088ZM198.803 109.183C199.174 108.998 199.325 108.548 199.14 108.177C198.955 107.807 198.505 107.656 198.134 107.841L198.803 109.183ZM194.618 109.594C194.248 109.778 194.097 110.229 194.282 110.599C194.467 110.97 194.917 111.121 195.288 110.936L194.618 109.594ZM191.772 112.689C192.143 112.504 192.293 112.054 192.109 111.683C191.924 111.312 191.473 111.162 191.103 111.346L191.772 112.689ZM187.587 113.099C187.216 113.284 187.066 113.734 187.251 114.105C187.435 114.476 187.886 114.626 188.256 114.442L187.587 113.099ZM184.741 116.194C185.112 116.01 185.262 115.559 185.077 115.189C184.893 114.818 184.442 114.667 184.072 114.852L184.741 116.194ZM180.273 117.265C179.994 117.571 180.015 118.045 180.32 118.325C180.626 118.605 181.1 118.584 181.38 118.278L180.273 117.265ZM179.936 121.952C179.939 121.538 179.606 121.199 179.192 121.196C178.778 121.193 178.439 121.526 178.436 121.94L179.936 121.952ZM179.566 126.27C179.712 126.657 180.144 126.854 180.532 126.708C180.92 126.562 181.116 126.13 180.97 125.742L179.566 126.27ZM182.334 129.372C182.188 128.984 181.756 128.788 181.368 128.933C180.98 129.079 180.784 129.511 180.93 129.899L182.334 129.372ZM182.294 133.529C182.439 133.916 182.872 134.113 183.259 133.967C183.647 133.821 183.843 133.389 183.698 133.001L182.294 133.529ZM185.061 136.631C184.916 136.243 184.483 136.047 184.096 136.192C183.708 136.338 183.512 136.77 183.657 137.158L185.061 136.631ZM183.09 139.831C182.821 140.145 182.857 140.619 183.171 140.888C183.485 141.158 183.959 141.122 184.229 140.808L183.09 139.831ZM181.465 144.028C181.735 143.714 181.699 143.24 181.384 142.971C181.07 142.701 180.597 142.737 180.327 143.051L181.465 144.028ZM177.563 146.272C177.294 146.586 177.33 147.06 177.644 147.329C177.959 147.599 178.432 147.563 178.702 147.249L177.563 146.272ZM175.938 150.469C176.208 150.155 176.172 149.681 175.858 149.411C175.543 149.142 175.07 149.178 174.8 149.492L175.938 150.469ZM171.933 150.645C171.521 150.606 171.155 150.909 171.117 151.321C171.078 151.734 171.381 152.099 171.793 152.138L171.933 150.645ZM167.545 151.739C167.957 151.778 168.323 151.475 168.362 151.063C168.401 150.65 168.098 150.284 167.685 150.246L167.545 151.739ZM163.437 149.847C163.025 149.808 162.659 150.111 162.62 150.524C162.582 150.936 162.885 151.302 163.297 151.34L163.437 149.847ZM159.049 150.942C159.461 150.98 159.827 150.677 159.866 150.265C159.904 149.853 159.601 149.487 159.189 149.448L159.049 150.942ZM154.734 149.421C154.332 149.52 154.087 149.927 154.186 150.329C154.285 150.731 154.692 150.977 155.094 150.877L154.734 149.421ZM152.059 152.853C152.313 152.526 152.253 152.054 151.925 151.801C151.597 151.548 151.126 151.608 150.873 151.935L152.059 152.853ZM149.111 155.973C148.98 156.365 149.192 156.79 149.585 156.922C149.977 157.053 150.402 156.841 150.534 156.449L149.111 155.973ZM149.212 160.4C149.343 160.007 149.131 159.582 148.738 159.451C148.346 159.319 147.921 159.531 147.789 159.924L149.212 160.4ZM146.467 163.875C146.336 164.268 146.548 164.693 146.94 164.824C147.333 164.956 147.758 164.744 147.89 164.351L146.467 163.875ZM146.568 168.303C146.699 167.91 146.487 167.485 146.094 167.353C145.701 167.222 145.276 167.434 145.145 167.827L146.568 168.303ZM144.122 172.046C144.123 172.46 144.46 172.795 144.874 172.793C145.288 172.792 145.623 172.455 145.622 172.041L144.122 172.046ZM146.761 175.376C146.509 175.047 146.038 174.986 145.71 175.238C145.381 175.49 145.319 175.961 145.572 176.29L146.761 175.376ZM149.071 179.072C149.415 179.303 149.881 179.21 150.111 178.866C150.341 178.521 150.249 178.056 149.904 177.825L149.071 179.072ZM153.583 180.285C153.239 180.055 152.773 180.148 152.543 180.492C152.313 180.836 152.405 181.302 152.749 181.532L153.583 180.285ZM156.428 183.992C156.773 184.222 157.238 184.13 157.469 183.786C157.699 183.441 157.606 182.975 157.262 182.745L156.428 183.992ZM160.941 185.205C160.596 184.975 160.131 185.067 159.9 185.412C159.67 185.756 159.763 186.222 160.107 186.452L160.941 185.205ZM161.776 189.225C161.808 189.638 162.168 189.947 162.581 189.916C162.994 189.884 163.303 189.524 163.272 189.111L161.776 189.225ZM163.593 193.33C163.562 192.917 163.201 192.607 162.788 192.639C162.375 192.67 162.066 193.031 162.098 193.444L163.593 193.33ZM162.419 197.662C162.451 198.075 162.811 198.385 163.224 198.353C163.637 198.322 163.946 197.961 163.915 197.548L162.419 197.662ZM164.236 201.767C164.205 201.354 163.844 201.045 163.431 201.076C163.018 201.108 162.709 201.468 162.741 201.881L164.236 201.767ZM161.646 204.216C161.286 204.422 161.162 204.88 161.367 205.24C161.573 205.599 162.031 205.724 162.391 205.518L161.646 204.216ZM159.129 207.385C159.489 207.179 159.613 206.721 159.407 206.361C159.202 206.002 158.743 205.877 158.384 206.083L159.129 207.385ZM155.122 207.95C154.763 208.155 154.638 208.614 154.844 208.973C155.05 209.333 155.508 209.457 155.867 209.252L155.122 207.95ZM152.605 211.118C152.965 210.913 153.09 210.454 152.884 210.095C152.678 209.735 152.22 209.611 151.86 209.817L152.605 211.118ZM148.23 212.464C147.972 212.788 148.026 213.26 148.35 213.517C148.674 213.775 149.146 213.722 149.404 213.398L148.23 212.464ZM148.225 217.288C148.19 216.875 147.827 216.569 147.415 216.603C147.002 216.638 146.695 217.001 146.73 217.413L148.225 217.288ZM148.319 221.707C148.503 222.077 148.954 222.228 149.324 222.043C149.695 221.858 149.846 221.408 149.661 221.037L148.319 221.707ZM151.414 224.553C151.229 224.182 150.779 224.031 150.408 224.216C150.037 224.401 149.887 224.851 150.071 225.222L151.414 224.553ZM151.824 228.738C152.009 229.108 152.459 229.259 152.83 229.074C153.201 228.89 153.351 228.439 153.167 228.068L151.824 228.738ZM154.919 231.584C154.735 231.213 154.284 231.063 153.914 231.248C153.543 231.432 153.392 231.883 153.577 232.253L154.919 231.584ZM155.33 235.769C155.515 236.14 155.965 236.29 156.336 236.106C156.706 235.921 156.857 235.47 156.672 235.1L155.33 235.769ZM158.425 238.615C158.24 238.245 157.79 238.094 157.419 238.279C157.049 238.464 156.898 238.914 157.083 239.285L158.425 238.615ZM159.498 243.085C159.804 243.364 160.278 243.343 160.558 243.037C160.837 242.732 160.816 242.257 160.51 241.978L159.498 243.085ZM164.189 243.42C163.774 243.417 163.436 243.751 163.434 244.165C163.431 244.579 163.764 244.917 164.179 244.92L164.189 243.42ZM168.512 243.782C168.9 243.636 169.095 243.204 168.949 242.816C168.803 242.428 168.37 242.233 167.982 242.379L168.512 243.782ZM171.616 241.008C171.228 241.154 171.033 241.587 171.179 241.974C171.325 242.362 171.758 242.557 172.145 242.411L171.616 241.008ZM175.779 241.04C176.166 240.894 176.362 240.461 176.216 240.073C176.069 239.686 175.637 239.49 175.249 239.636L175.779 241.04ZM178.882 238.265C178.495 238.411 178.299 238.844 178.445 239.232C178.592 239.619 179.024 239.815 179.412 239.669L178.882 238.265ZM182.044 240.207C182.357 240.478 182.83 240.444 183.101 240.13C183.372 239.817 183.338 239.343 183.025 239.072L182.044 240.207ZM186.166 241.789C185.852 241.518 185.379 241.553 185.108 241.866C184.837 242.179 184.871 242.653 185.184 242.924L186.166 241.789ZM188.325 245.641C188.639 245.912 189.112 245.878 189.383 245.564C189.654 245.251 189.62 244.777 189.307 244.506L188.325 245.641ZM192.447 247.223C192.134 246.952 191.661 246.987 191.39 247.3C191.119 247.613 191.153 248.087 191.466 248.358L192.447 247.223ZM192.616 251.258C192.584 251.671 192.894 252.031 193.307 252.063C193.72 252.094 194.08 251.784 194.111 251.371L192.616 251.258ZM193.784 255.703C193.815 255.29 193.505 254.929 193.092 254.898C192.679 254.867 192.319 255.176 192.288 255.589L193.784 255.703ZM191.96 259.921C191.929 260.334 192.238 260.694 192.651 260.725C193.064 260.756 193.425 260.447 193.456 260.034L191.96 259.921ZM193.128 264.365C193.159 263.952 192.85 263.592 192.437 263.561C192.024 263.529 191.664 263.839 191.632 264.252L193.128 264.365ZM191.675 268.714C191.78 269.115 192.19 269.355 192.59 269.25C192.991 269.145 193.231 268.736 193.126 268.335L191.675 268.714ZM195.104 271.312C194.775 271.06 194.304 271.122 194.052 271.451C193.8 271.78 193.862 272.251 194.191 272.503L195.104 271.312ZM198.203 274.245C198.596 274.376 199.021 274.164 199.152 273.772C199.284 273.379 199.072 272.954 198.679 272.822L198.203 274.245ZM202.631 274.144C202.238 274.013 201.813 274.225 201.681 274.618C201.55 275.011 201.762 275.436 202.155 275.567L202.631 274.144ZM206.106 276.889C206.499 277.02 206.924 276.809 207.055 276.416C207.187 276.023 206.975 275.598 206.582 275.467L206.106 276.889ZM210.533 276.789C210.14 276.657 209.715 276.869 209.584 277.262C209.453 277.655 209.664 278.08 210.057 278.211L210.533 276.789ZM214.309 279.234C214.723 279.231 215.056 278.893 215.053 278.478C215.05 278.064 214.711 277.731 214.297 277.734L214.309 279.234ZM217.666 276.548C217.341 276.805 217.286 277.277 217.543 277.602C217.8 277.927 218.272 277.982 218.597 277.725L217.666 276.548ZM221.318 274.189C221.542 273.84 221.441 273.376 221.092 273.152C220.744 272.929 220.28 273.03 220.056 273.378L221.318 274.189ZM222.404 269.722C222.18 270.07 222.282 270.534 222.63 270.758C222.979 270.982 223.443 270.881 223.666 270.532L222.404 269.722ZM226.015 266.876C226.239 266.528 226.138 266.064 225.789 265.84C225.441 265.616 224.977 265.717 224.753 266.066L226.015 266.876ZM227.101 262.409C226.877 262.758 226.978 263.222 227.327 263.446C227.675 263.67 228.139 263.568 228.363 263.22L227.101 262.409ZM231.093 261.586C231.506 261.557 231.818 261.198 231.789 260.785C231.76 260.372 231.402 260.06 230.989 260.089L231.093 261.586ZM235.257 259.791C234.844 259.82 234.533 260.178 234.562 260.591C234.59 261.005 234.949 261.316 235.362 261.287L235.257 259.791ZM239.631 260.989C240.044 260.96 240.356 260.602 240.327 260.189C240.298 259.775 239.94 259.464 239.526 259.493L239.631 260.989ZM243.795 259.195C243.382 259.223 243.071 259.582 243.099 259.995C243.128 260.408 243.487 260.72 243.9 260.691L243.795 259.195ZM246.295 261.731C246.511 262.084 246.973 262.196 247.326 261.98C247.68 261.765 247.792 261.303 247.576 260.949L246.295 261.731ZM249.453 264.072C249.242 263.716 248.781 263.598 248.425 263.81C248.069 264.021 247.952 264.482 248.163 264.838L249.453 264.072ZM249.774 267.573C249.983 267.93 250.443 268.051 250.8 267.842C251.158 267.633 251.278 267.173 251.069 266.816L249.774 267.573ZM252.44 269.174C252.233 268.815 251.774 268.693 251.415 268.9C251.057 269.107 250.934 269.566 251.142 269.925L252.44 269.174ZM252.032 271.47C252.239 271.829 252.697 271.953 253.056 271.746C253.416 271.54 253.539 271.081 253.333 270.722L252.032 271.47ZM253.755 271.458C253.549 271.099 253.091 270.974 252.732 271.18C252.372 271.386 252.248 271.844 252.454 272.204L253.755 271.458ZM252.74 272.705C252.945 273.065 253.403 273.19 253.763 272.985C254.123 272.78 254.248 272.322 254.043 271.962L252.74 272.705ZM254.197 272.232C253.992 271.872 253.534 271.746 253.174 271.952C252.814 272.157 252.689 272.615 252.894 272.975L254.197 272.232ZM254.682 275.116C255.005 275.375 255.477 275.323 255.736 274.999C255.995 274.676 255.942 274.204 255.619 273.945L254.682 275.116ZM259.514 275.132C259.102 275.166 258.795 275.529 258.829 275.941C258.864 276.354 259.226 276.661 259.639 276.627L259.514 275.132ZM263.937 275.038C264.308 274.853 264.459 274.403 264.274 274.032C264.089 273.661 263.639 273.51 263.268 273.695L263.937 275.038ZM266.784 271.942C266.413 272.127 266.262 272.578 266.447 272.948C266.632 273.319 267.082 273.47 267.453 273.285L266.784 271.942ZM270.968 271.532C271.339 271.347 271.49 270.897 271.305 270.526C271.12 270.156 270.67 270.005 270.299 270.19L270.968 271.532ZM273.815 268.437C273.444 268.622 273.293 269.072 273.478 269.443C273.663 269.813 274.113 269.964 274.484 269.779L273.815 268.437ZM278 268.026C278.37 267.842 278.521 267.391 278.336 267.021C278.151 266.65 277.701 266.499 277.33 266.684L278 268.026ZM280.846 264.931C280.475 265.116 280.325 265.566 280.509 265.937C280.694 266.308 281.145 266.458 281.515 266.274L280.846 264.931ZM285.338 263.833C285.616 263.526 285.593 263.052 285.286 262.774C284.979 262.496 284.504 262.519 284.226 262.826L285.338 263.833ZM285.651 259.088C285.654 259.502 285.992 259.835 286.407 259.832C286.821 259.828 287.154 259.49 287.151 259.076L285.651 259.088ZM285.939 254.757C285.785 254.372 285.349 254.185 284.964 254.339C284.58 254.493 284.393 254.929 284.546 255.314L285.939 254.757ZM283.125 251.759C283.279 252.144 283.716 252.331 284.1 252.177C284.485 252.024 284.672 251.587 284.518 251.203L283.125 251.759ZM283.097 247.648C282.944 247.264 282.507 247.077 282.122 247.23C281.738 247.384 281.551 247.821 281.704 248.205L283.097 247.648ZM280.284 244.651C280.437 245.035 280.874 245.223 281.258 245.069C281.643 244.915 281.83 244.479 281.676 244.094L280.284 244.651ZM282.229 241.484C282.5 241.172 282.467 240.698 282.155 240.426C281.842 240.155 281.368 240.188 281.097 240.5L282.229 241.484ZM283.883 237.294C283.611 237.607 283.644 238.081 283.957 238.353C284.27 238.624 284.743 238.591 285.015 238.278L283.883 237.294ZM287.801 235.073C288.073 234.76 288.04 234.286 287.727 234.015C287.415 233.743 286.941 233.776 286.669 234.089L287.801 235.073ZM289.456 230.883C289.184 231.195 289.217 231.669 289.53 231.941C289.842 232.213 290.316 232.179 290.588 231.867L289.456 230.883ZM293.538 230.669C293.951 230.697 294.309 230.385 294.337 229.972C294.366 229.559 294.054 229.201 293.64 229.172L293.538 230.669ZM297.989 229.47C297.576 229.442 297.218 229.754 297.189 230.167C297.161 230.58 297.473 230.938 297.886 230.967L297.989 229.47ZM302.235 231.264C302.648 231.293 303.006 230.98 303.034 230.567C303.063 230.154 302.751 229.796 302.337 229.768L302.235 231.264ZM306.686 230.065C306.273 230.037 305.915 230.349 305.886 230.762C305.858 231.176 306.17 231.534 306.583 231.562L306.686 230.065ZM311.04 231.491C311.441 231.384 311.678 230.973 311.571 230.573C311.465 230.173 311.054 229.935 310.653 230.042L311.04 231.491ZM313.608 228.065C313.357 228.394 313.42 228.864 313.749 229.116C314.078 229.367 314.549 229.304 314.8 228.975L313.608 228.065ZM316.527 224.995C316.659 224.603 316.447 224.178 316.054 224.046C315.661 223.915 315.236 224.127 315.105 224.519L316.527 224.995ZM316.412 220.613C316.281 221.006 316.493 221.431 316.885 221.562C317.278 221.694 317.703 221.482 317.835 221.089L316.412 220.613ZM319.142 217.183C319.273 216.79 319.061 216.365 318.669 216.234C318.276 216.102 317.851 216.314 317.719 216.707L319.142 217.183ZM319.027 212.801C318.895 213.193 319.107 213.618 319.5 213.75C319.893 213.881 320.318 213.67 320.449 213.277L319.027 212.801ZM321.465 209.049C321.462 208.635 321.123 208.302 320.709 208.305C320.295 208.308 319.962 208.647 319.965 209.061L321.465 209.049ZM318.781 205.693C319.038 206.018 319.51 206.074 319.835 205.817C320.16 205.56 320.215 205.089 319.959 204.764L318.781 205.693ZM316.434 202.045C316.085 201.821 315.621 201.921 315.397 202.27C315.173 202.618 315.273 203.082 315.622 203.306L316.434 202.045ZM311.983 200.964C312.331 201.188 312.795 201.087 313.019 200.739C313.243 200.391 313.143 199.927 312.794 199.702L311.983 200.964ZM309.155 197.36C308.807 197.136 308.343 197.236 308.119 197.585C307.894 197.933 307.995 198.397 308.343 198.621L309.155 197.36ZM304.704 196.279C305.052 196.503 305.516 196.403 305.741 196.054C305.965 195.706 305.864 195.242 305.516 195.018L304.704 196.279ZM303.891 192.309C303.862 191.896 303.503 191.584 303.09 191.613C302.677 191.642 302.366 192 302.394 192.414L303.891 192.309ZM302.099 188.182C302.128 188.595 302.486 188.907 302.899 188.878C303.312 188.849 303.624 188.491 303.595 188.078L302.099 188.182ZM303.3 183.846C303.271 183.433 302.912 183.122 302.499 183.15C302.086 183.179 301.774 183.538 301.803 183.951L303.3 183.846ZM301.508 179.719C301.536 180.133 301.895 180.444 302.308 180.415C302.721 180.386 303.033 180.028 303.004 179.615L301.508 179.719ZM304.125 177.204C304.479 176.989 304.591 176.527 304.376 176.173C304.161 175.819 303.7 175.707 303.346 175.922L304.125 177.204ZM306.6 173.944C306.246 174.159 306.134 174.621 306.349 174.975C306.564 175.329 307.025 175.441 307.379 175.226L306.6 173.944ZM310.634 173.249C310.988 173.034 311.1 172.572 310.885 172.218C310.67 171.864 310.209 171.752 309.855 171.967L310.634 173.249ZM313.109 169.989C312.755 170.204 312.642 170.666 312.858 171.02C313.073 171.374 313.534 171.486 313.888 171.271L313.109 169.989ZM317.441 168.554C317.693 168.224 317.63 167.754 317.301 167.502C316.972 167.251 316.501 167.314 316.25 167.643L317.441 168.554ZM317.359 163.802C317.396 164.214 317.761 164.518 318.173 164.481C318.586 164.444 318.89 164.079 318.853 163.666L317.359 163.802ZM317.268 159.419C317.084 159.048 316.633 158.898 316.263 159.082C315.892 159.267 315.741 159.718 315.926 160.088L317.268 159.419ZM314.173 156.573C314.358 156.943 314.808 157.094 315.179 156.909C315.55 156.724 315.7 156.274 315.516 155.903L314.173 156.573ZM313.763 152.388C313.578 152.017 313.128 151.866 312.757 152.051C312.386 152.236 312.235 152.686 312.42 153.057L313.763 152.388ZM310.667 149.541C310.852 149.912 311.303 150.063 311.673 149.878C312.044 149.693 312.195 149.243 312.01 148.872L310.667 149.541ZM310.257 145.357C310.072 144.986 309.622 144.835 309.251 145.02C308.88 145.205 308.73 145.655 308.915 146.026L310.257 145.357ZM307.162 142.51C307.347 142.881 307.797 143.032 308.168 142.847C308.538 142.662 308.689 142.212 308.504 141.841L307.162 142.51ZM306.059 138.013C305.751 137.736 305.277 137.76 304.999 138.067C304.722 138.374 304.746 138.848 305.053 139.126L306.059 138.013ZM301.302 137.706C301.716 137.701 302.048 137.362 302.044 136.948C302.039 136.533 301.7 136.201 301.286 136.206L301.302 137.706ZM296.977 137.429C296.593 137.585 296.408 138.022 296.563 138.406C296.719 138.79 297.156 138.975 297.54 138.82L296.977 137.429ZM294.017 140.245C294.401 140.089 294.586 139.652 294.431 139.268C294.275 138.884 293.838 138.699 293.454 138.854L294.017 140.245ZM289.931 140.279C289.547 140.434 289.362 140.871 289.517 141.255C289.672 141.639 290.109 141.824 290.493 141.669L289.931 140.279ZM286.97 143.094C287.354 142.939 287.539 142.501 287.384 142.117C287.229 141.733 286.792 141.548 286.408 141.703L286.97 143.094ZM283.767 141.116C283.454 140.845 282.98 140.879 282.709 141.193C282.438 141.506 282.473 141.98 282.786 142.251L283.767 141.116ZM279.485 139.395C279.798 139.666 280.272 139.632 280.542 139.319C280.813 139.005 280.779 138.532 280.466 138.261L279.485 139.395ZM277.164 135.406C276.851 135.135 276.378 135.169 276.107 135.482C275.836 135.796 275.87 136.269 276.183 136.54L277.164 135.406ZM272.882 133.685C273.195 133.956 273.669 133.922 273.94 133.608C274.211 133.295 274.176 132.821 273.863 132.55L272.882 133.685ZM272.613 129.581C272.64 129.168 272.327 128.81 271.914 128.783C271.501 128.756 271.143 129.069 271.116 129.482L272.613 129.581ZM271.401 125.165C271.374 125.578 271.687 125.935 272.1 125.963C272.514 125.99 272.871 125.677 272.898 125.264L271.401 125.165ZM273.184 120.946C273.211 120.533 272.898 120.176 272.485 120.149C272.071 120.121 271.714 120.434 271.687 120.848L273.184 120.946ZM271.972 116.53C271.945 116.944 272.258 117.301 272.671 117.328C273.084 117.355 273.442 117.043 273.469 116.629L271.972 116.53ZM273.388 112.192C273.28 111.792 272.869 111.555 272.469 111.663C272.069 111.77 271.832 112.182 271.939 112.582L273.388 112.192ZM269.962 109.635C270.291 109.886 270.762 109.822 271.013 109.493C271.264 109.164 271.201 108.693 270.871 108.442L269.962 109.635ZM266.917 106.725C266.525 106.593 266.1 106.805 265.968 107.198C265.837 107.591 266.049 108.016 266.442 108.147L266.917 106.725ZM262.58 106.855C262.973 106.987 263.398 106.775 263.53 106.382C263.661 105.989 263.449 105.564 263.056 105.433L262.58 106.855ZM259.195 104.141C258.803 104.01 258.378 104.221 258.246 104.614C258.115 105.007 258.327 105.432 258.719 105.563L259.195 104.141ZM254.858 104.272C255.251 104.403 255.676 104.191 255.808 103.798C255.939 103.405 255.727 102.98 255.334 102.849L254.858 104.272ZM251.144 101.841C250.73 101.843 250.396 102.181 250.398 102.595C250.401 103.009 250.738 103.343 251.153 103.341L251.144 101.841ZM247.8 104.504C248.127 104.249 248.186 103.778 247.931 103.451C247.676 103.124 247.205 103.066 246.878 103.32L247.8 104.504ZM252.054 117.545C251.826 117.892 251.923 118.357 252.27 118.584C252.616 118.811 253.081 118.714 253.308 118.368L252.054 117.545ZM251.133 121.686C251.36 121.34 251.263 120.875 250.917 120.648C250.57 120.421 250.105 120.518 249.878 120.864L251.133 121.686ZM247.703 124.183C247.476 124.529 247.572 124.994 247.919 125.221C248.265 125.448 248.73 125.352 248.957 125.005L247.703 124.183ZM246.782 128.324C247.009 127.978 246.912 127.513 246.566 127.286C246.219 127.058 245.754 127.155 245.527 127.502L246.782 128.324ZM243.637 130.125C243.337 130.411 243.326 130.886 243.612 131.186C243.898 131.485 244.372 131.496 244.672 131.21L243.637 130.125ZM241.94 132.824C242.335 132.699 242.555 132.278 242.43 131.883C242.306 131.488 241.885 131.268 241.49 131.393L241.94 132.824ZM238.27 131.781C237.857 131.813 237.548 132.173 237.579 132.586C237.611 132.999 237.971 133.309 238.384 133.277L238.27 131.781ZM234.41 133.58C234.823 133.548 235.132 133.188 235.1 132.775C235.069 132.362 234.709 132.053 234.296 132.084L234.41 133.58ZM230.321 132.387C229.908 132.419 229.599 132.779 229.63 133.192C229.662 133.605 230.022 133.914 230.435 133.883L230.321 132.387ZM226.46 134.186C226.873 134.154 227.183 133.794 227.151 133.381C227.12 132.968 226.759 132.658 226.346 132.69L226.46 134.186ZM222.372 132.993C221.959 133.024 221.649 133.385 221.681 133.798C221.712 134.211 222.073 134.52 222.486 134.488L222.372 132.993ZM218.511 134.791C218.924 134.76 219.233 134.4 219.202 133.986C219.17 133.573 218.81 133.264 218.397 133.296L218.511 134.791ZM214.87 133.348C214.464 133.263 214.067 133.523 213.983 133.929C213.898 134.334 214.158 134.731 214.564 134.816L214.87 133.348ZM211.127 132.997C211.425 133.284 211.9 133.276 212.188 132.978C212.475 132.681 212.467 132.206 212.169 131.918L211.127 132.997ZM210.406 129.279C210.199 128.919 209.741 128.795 209.382 129.001C209.023 129.208 208.898 129.666 209.105 130.025L210.406 129.279ZM207.473 127.182C207.679 127.541 208.137 127.665 208.497 127.459C208.856 127.253 208.98 126.794 208.774 126.435L207.473 127.182ZM207.142 123.592C206.936 123.232 206.478 123.108 206.118 123.314C205.759 123.521 205.635 123.979 205.841 124.338L207.142 123.592ZM204.209 121.495C204.416 121.854 204.874 121.978 205.233 121.772C205.592 121.566 205.717 121.107 205.51 120.748L204.209 121.495ZM202.363 119.7C201.992 119.885 201.841 120.335 202.026 120.706C202.211 121.076 202.661 121.227 203.032 121.042L202.363 119.7ZM200.339 122.385C200.709 122.2 200.86 121.75 200.675 121.379C200.49 121.009 200.04 120.858 199.669 121.043L200.339 122.385ZM196.976 122.386C196.605 122.571 196.454 123.021 196.639 123.392C196.824 123.762 197.274 123.913 197.645 123.728L196.976 122.386ZM194.952 125.071C195.322 124.886 195.473 124.436 195.288 124.065C195.103 123.694 194.653 123.544 194.282 123.729L194.952 125.071ZM193.165 126.923C193.31 127.311 193.743 127.507 194.131 127.361C194.518 127.216 194.715 126.783 194.569 126.395L193.165 126.923ZM195.762 129.571C195.617 129.183 195.184 128.987 194.796 129.133C194.409 129.279 194.212 129.711 194.358 130.099L195.762 129.571ZM195.551 133.275C195.697 133.662 196.129 133.859 196.517 133.713C196.905 133.567 197.101 133.135 196.955 132.747L195.551 133.275ZM198.149 135.923C198.003 135.535 197.571 135.339 197.183 135.484C196.795 135.63 196.599 136.063 196.745 136.45L198.149 135.923ZM197.669 139.466C197.707 139.878 198.073 140.182 198.485 140.144C198.898 140.106 199.201 139.74 199.163 139.328L197.669 139.466ZM198.52 142.967C198.697 142.593 198.537 142.146 198.163 141.968C197.788 141.791 197.341 141.951 197.164 142.326L198.52 142.967ZM195.069 145.066C194.799 145.381 194.835 145.854 195.15 146.124C195.464 146.394 195.938 146.357 196.207 146.043L195.069 145.066ZM193.613 149.067C193.882 148.753 193.846 148.279 193.532 148.009C193.218 147.74 192.744 147.776 192.474 148.09L193.613 149.067ZM189.88 151.114C189.61 151.428 189.646 151.902 189.96 152.172C190.275 152.441 190.748 152.405 191.018 152.091L189.88 151.114ZM188.423 155.115C188.693 154.8 188.657 154.327 188.342 154.057C188.028 153.787 187.555 153.823 187.285 154.138L188.423 155.115ZM184.69 157.162C184.42 157.476 184.456 157.949 184.771 158.219C185.085 158.489 185.559 158.453 185.828 158.138L184.69 157.162ZM183.234 161.162C183.503 160.848 183.467 160.374 183.153 160.105C182.838 159.835 182.365 159.871 182.095 160.185L183.234 161.162ZM179.832 162.583C179.496 162.825 179.419 163.293 179.66 163.63C179.902 163.966 180.371 164.043 180.707 163.801L179.832 162.583ZM177.637 165.042C178.047 164.982 178.33 164.601 178.27 164.191C178.21 163.782 177.83 163.498 177.42 163.558L177.637 165.042ZM174.2 163.412C173.788 163.374 173.422 163.677 173.384 164.089C173.345 164.501 173.648 164.867 174.06 164.906L174.2 163.412ZM170.241 164.547C170.654 164.586 171.019 164.283 171.058 163.871C171.097 163.458 170.794 163.093 170.381 163.054L170.241 164.547ZM166.563 162.695C166.15 162.657 165.784 162.96 165.746 163.372C165.707 163.784 166.01 164.15 166.422 164.189L166.563 162.695ZM162.603 163.83C163.016 163.869 163.382 163.566 163.42 163.154C163.459 162.741 163.156 162.375 162.744 162.337L162.603 163.83ZM159.503 164.31C159.371 164.703 159.583 165.128 159.976 165.26C160.369 165.391 160.794 165.179 160.925 164.786L159.503 164.31ZM159.825 168.075C159.956 167.682 159.745 167.257 159.352 167.125C158.959 166.994 158.534 167.206 158.402 167.599L159.825 168.075ZM159.806 171.214C160.15 171.444 160.616 171.352 160.846 171.007C161.077 170.663 160.984 170.197 160.64 169.967L159.806 171.214ZM163.959 172.186C163.614 171.956 163.148 172.048 162.918 172.393C162.688 172.737 162.78 173.203 163.125 173.433L163.959 172.186ZM166.443 175.652C166.788 175.882 167.254 175.79 167.484 175.445C167.714 175.101 167.622 174.635 167.277 174.405L166.443 175.652ZM170.596 176.624C170.252 176.394 169.786 176.486 169.556 176.831C169.325 177.175 169.418 177.641 169.762 177.871L170.596 176.624ZM172.37 179.783C172.653 180.085 173.128 180.099 173.43 179.815C173.731 179.532 173.746 179.057 173.462 178.755L172.37 179.783ZM175.047 181.468C174.923 181.073 174.503 180.852 174.107 180.975C173.712 181.099 173.491 181.519 173.615 181.915L175.047 181.468ZM174 185.122C174.031 185.535 174.392 185.844 174.805 185.813C175.218 185.781 175.527 185.421 175.495 185.008L174 185.122ZM175.798 188.982C175.767 188.569 175.406 188.259 174.993 188.291C174.58 188.322 174.271 188.683 174.303 189.096L175.798 188.982ZM174.605 193.07C174.637 193.483 174.997 193.792 175.41 193.76C175.823 193.729 176.132 193.369 176.101 192.956L174.605 193.07ZM176.404 196.93C176.372 196.517 176.012 196.207 175.599 196.239C175.186 196.27 174.877 196.631 174.908 197.044L176.404 196.93ZM175.211 201.018C175.242 201.431 175.603 201.74 176.016 201.708C176.429 201.677 176.738 201.317 176.707 200.904L175.211 201.018ZM177.009 204.878C176.978 204.464 176.618 204.155 176.205 204.187C175.792 204.218 175.482 204.578 175.514 204.991L177.009 204.878ZM175.565 208.52C175.481 208.925 175.741 209.323 176.146 209.407C176.552 209.492 176.949 209.232 177.034 208.826L175.565 208.52ZM175.211 212.265C175.499 211.968 175.491 211.493 175.193 211.205C174.896 210.917 174.421 210.925 174.133 211.222L175.211 212.265ZM171.494 212.982C171.135 213.188 171.01 213.646 171.216 214.005C171.421 214.365 171.88 214.49 172.239 214.284L171.494 212.982ZM169.401 215.908C169.761 215.702 169.885 215.244 169.679 214.885C169.474 214.525 169.015 214.401 168.656 214.606L169.401 215.908ZM165.818 216.231C165.458 216.436 165.334 216.895 165.539 217.254C165.745 217.614 166.203 217.738 166.563 217.533L165.818 216.231ZM163.725 219.157C164.084 218.951 164.209 218.493 164.003 218.133C163.797 217.774 163.339 217.649 162.98 217.855L163.725 219.157ZM161.933 220.998C162.117 221.369 162.568 221.519 162.939 221.334C163.309 221.15 163.46 220.699 163.275 220.329L161.933 220.998ZM164.616 223.019C164.431 222.648 163.981 222.497 163.61 222.682C163.24 222.867 163.089 223.317 163.274 223.688L164.616 223.019ZM164.615 226.378C164.8 226.749 165.25 226.899 165.621 226.714C165.992 226.53 166.142 226.079 165.957 225.709L164.615 226.378ZM167.299 228.399C167.114 228.028 166.664 227.877 166.293 228.062C165.922 228.247 165.771 228.697 165.956 229.068L167.299 228.399ZM169.155 230.179C169.542 230.033 169.738 229.6 169.591 229.213C169.445 228.825 169.012 228.63 168.625 228.776L169.155 230.179ZM171.808 227.574C171.421 227.721 171.225 228.153 171.371 228.541C171.518 228.928 171.95 229.124 172.338 228.978L171.808 227.574ZM175.521 227.776C175.909 227.63 176.104 227.197 175.958 226.81C175.812 226.422 175.379 226.227 174.992 226.373L175.521 227.776ZM178.175 225.171C177.787 225.318 177.592 225.75 177.738 226.138C177.884 226.526 178.317 226.721 178.705 226.575L178.175 225.171ZM181.731 225.643C182.143 225.605 182.447 225.24 182.409 224.827C182.37 224.415 182.005 224.111 181.593 224.149L181.731 225.643ZM185.249 224.8C184.875 224.622 184.428 224.781 184.25 225.155C184.072 225.529 184.23 225.976 184.604 226.154L185.249 224.8ZM187.317 228.24C187.63 228.511 188.103 228.477 188.374 228.164C188.645 227.85 188.611 227.377 188.298 227.106L187.317 228.24ZM191.258 229.666C190.944 229.395 190.471 229.429 190.2 229.743C189.929 230.056 189.963 230.53 190.276 230.801L191.258 229.666ZM193.236 233.361C193.549 233.632 194.023 233.598 194.294 233.284C194.565 232.971 194.531 232.498 194.217 232.227L193.236 233.361ZM197.177 234.787C196.864 234.516 196.39 234.55 196.119 234.863C195.848 235.177 195.883 235.65 196.196 235.921L197.177 234.787ZM199.156 238.482C199.469 238.753 199.942 238.718 200.213 238.405C200.484 238.092 200.45 237.618 200.137 237.347L199.156 238.482ZM203.097 239.908C202.783 239.637 202.31 239.671 202.039 239.984C201.768 240.297 201.802 240.771 202.115 241.042L203.097 239.908ZM204.459 243.267C204.701 243.603 205.17 243.679 205.506 243.437C205.842 243.195 205.919 242.726 205.676 242.39L204.459 243.267ZM206.91 245.382C206.845 244.973 206.461 244.694 206.051 244.759C205.642 244.824 205.364 245.209 205.429 245.618L206.91 245.382ZM205.334 248.848C205.302 249.261 205.612 249.621 206.025 249.652C206.438 249.684 206.798 249.374 206.829 248.961L205.334 248.848ZM206.534 252.864C206.565 252.451 206.256 252.09 205.843 252.059C205.43 252.028 205.07 252.337 205.038 252.75L206.534 252.864ZM204.743 256.653C204.712 257.066 205.021 257.426 205.434 257.457C205.847 257.489 206.208 257.179 206.239 256.766L204.743 256.653ZM205.944 260.668C205.975 260.255 205.665 259.895 205.252 259.864C204.839 259.833 204.479 260.142 204.448 260.555L205.944 260.668ZM206.454 263.824C206.847 263.956 207.272 263.744 207.403 263.351C207.535 262.958 207.323 262.533 206.93 262.402L206.454 263.824ZM210.218 263.502C209.825 263.371 209.4 263.583 209.269 263.975C209.137 264.368 209.349 264.793 209.742 264.925L210.218 263.502ZM213.313 263.522C213.537 263.174 213.435 262.71 213.087 262.486C212.738 262.262 212.274 262.363 212.051 262.712L213.313 263.522ZM214.165 259.419C213.942 259.768 214.043 260.232 214.391 260.455C214.74 260.679 215.204 260.578 215.428 260.23L214.165 259.419ZM217.542 256.937C217.766 256.588 217.665 256.124 217.317 255.901C216.968 255.677 216.504 255.778 216.28 256.126L217.542 256.937ZM218.395 252.834C218.171 253.182 218.272 253.646 218.621 253.87C218.969 254.094 219.433 253.993 219.657 253.644L218.395 252.834ZM221.524 251.011C221.822 250.724 221.831 250.249 221.543 249.951C221.256 249.653 220.781 249.644 220.483 249.932L221.524 251.011ZM223.259 248.288C222.863 248.411 222.643 248.831 222.766 249.227C222.889 249.622 223.31 249.843 223.705 249.719L223.259 248.288ZM226.947 249.345C227.36 249.316 227.671 248.958 227.643 248.544C227.614 248.131 227.255 247.82 226.842 247.848L226.947 249.345ZM230.817 247.571C230.404 247.6 230.092 247.958 230.121 248.371C230.15 248.784 230.508 249.096 230.922 249.067L230.817 247.571ZM234.896 248.789C235.31 248.761 235.621 248.402 235.592 247.989C235.563 247.576 235.205 247.264 234.792 247.293L234.896 248.789ZM238.767 247.015C238.354 247.044 238.042 247.403 238.071 247.816C238.1 248.229 238.458 248.541 238.871 248.512L238.767 247.015ZM242.846 248.234C243.259 248.205 243.571 247.847 243.542 247.434C243.513 247.02 243.155 246.709 242.742 246.738L242.846 248.234ZM246.717 246.46C246.303 246.489 245.992 246.847 246.021 247.26C246.05 247.674 246.408 247.985 246.821 247.956L246.717 246.46ZM250.196 247.896C250.603 247.972 250.994 247.703 251.07 247.296C251.146 246.889 250.877 246.497 250.47 246.422L250.196 247.896ZM253.649 247.906C253.329 247.642 252.856 247.688 252.593 248.007C252.329 248.326 252.374 248.799 252.694 249.063L253.649 247.906ZM255.269 252.496C255.492 252.845 255.956 252.947 256.305 252.724C256.654 252.5 256.756 252.037 256.532 251.688L255.269 252.496ZM259.643 256.752C259.43 256.396 258.97 256.28 258.614 256.492C258.259 256.705 258.143 257.165 258.355 257.521L259.643 256.752ZM260.117 260.499C260.327 260.856 260.786 260.976 261.144 260.766C261.501 260.556 261.621 260.097 261.411 259.74L260.117 260.499ZM261.924 260.616C261.715 260.258 261.255 260.137 260.898 260.346C260.54 260.555 260.42 261.015 260.629 261.372L261.924 260.616ZM264.536 260.772C264.906 260.587 265.057 260.137 264.872 259.766C264.687 259.395 264.237 259.245 263.866 259.429L264.536 260.772ZM269.205 256.767C268.835 256.952 268.684 257.403 268.869 257.773C269.054 258.144 269.504 258.295 269.875 258.11L269.205 256.767ZM272.286 254.278C272.132 253.893 271.695 253.706 271.311 253.86C270.926 254.013 270.739 254.45 270.893 254.834L272.286 254.278ZM269.652 251.731C269.806 252.116 270.242 252.303 270.627 252.149C271.012 251.995 271.199 251.559 271.045 251.174L269.652 251.731ZM269.804 248.071C269.651 247.686 269.214 247.499 268.829 247.653C268.445 247.806 268.258 248.243 268.411 248.627L269.804 248.071ZM267.171 245.524C267.325 245.909 267.761 246.096 268.146 245.942C268.53 245.788 268.717 245.352 268.564 244.967L267.171 245.524ZM267.581 241.958C267.537 241.546 267.168 241.248 266.756 241.292C266.344 241.336 266.046 241.705 266.09 242.117L267.581 241.958ZM266.722 238.382C266.545 238.757 266.705 239.204 267.079 239.381C267.454 239.558 267.901 239.398 268.078 239.023L266.722 238.382ZM270.206 236.262C270.478 235.949 270.445 235.475 270.132 235.204C269.82 234.932 269.346 234.965 269.074 235.278L270.206 236.262ZM271.689 232.269C271.417 232.582 271.45 233.056 271.763 233.327C272.076 233.599 272.549 233.566 272.821 233.253L271.689 232.269ZM275.436 230.245C275.708 229.932 275.674 229.459 275.362 229.187C275.049 228.915 274.575 228.948 274.304 229.261L275.436 230.245ZM276.918 226.253C276.647 226.565 276.68 227.039 276.992 227.311C277.305 227.583 277.779 227.549 278.05 227.237L276.918 226.253ZM280.665 224.228C280.937 223.916 280.904 223.442 280.591 223.17C280.278 222.899 279.805 222.932 279.533 223.244L280.665 224.228ZM282.148 220.236C281.876 220.549 281.909 221.023 282.222 221.294C282.534 221.566 283.008 221.533 283.28 221.22L282.148 220.236ZM285.523 218.862C285.859 218.62 285.935 218.151 285.693 217.815C285.451 217.479 284.982 217.403 284.646 217.645L285.523 218.862ZM287.605 216.416C287.197 216.483 286.92 216.869 286.987 217.278C287.054 217.686 287.439 217.963 287.848 217.896L287.605 216.416ZM291.074 217.971C291.487 217.999 291.845 217.687 291.873 217.274C291.901 216.861 291.589 216.503 291.176 216.474L291.074 217.971ZM295.095 216.743C294.682 216.714 294.324 217.027 294.296 217.44C294.267 217.853 294.58 218.211 294.993 218.239L295.095 216.743ZM298.912 218.508C299.325 218.536 299.683 218.224 299.711 217.811C299.74 217.397 299.428 217.039 299.014 217.011L298.912 218.508ZM302.934 217.279C302.52 217.251 302.163 217.563 302.134 217.976C302.106 218.39 302.418 218.748 302.831 218.776L302.934 217.279ZM306.092 216.791C306.223 216.398 306.011 215.973 305.618 215.842C305.226 215.71 304.801 215.922 304.669 216.315L306.092 216.791ZM305.746 213.098C305.614 213.491 305.826 213.916 306.219 214.047C306.612 214.179 307.037 213.967 307.168 213.574L305.746 213.098ZM305.763 210.042C305.415 209.818 304.951 209.919 304.727 210.267C304.503 210.615 304.603 211.079 304.951 211.304L305.763 210.042ZM301.675 209.195C302.024 209.419 302.488 209.319 302.712 208.97C302.936 208.622 302.836 208.158 302.487 207.934L301.675 209.195ZM299.211 205.825C298.863 205.601 298.399 205.702 298.175 206.05C297.95 206.398 298.051 206.862 298.399 207.086L299.211 205.825ZM295.123 204.978C295.472 205.202 295.936 205.101 296.16 204.753C296.384 204.405 296.283 203.941 295.935 203.716L295.123 204.978ZM293.312 201.853C293.025 201.554 292.55 201.545 292.252 201.833C291.953 202.12 291.945 202.595 292.232 202.893L293.312 201.853ZM290.591 200.12C290.714 200.515 291.134 200.736 291.53 200.613C291.925 200.489 292.146 200.069 292.023 199.673L290.591 200.12ZM291.648 196.433C291.619 196.02 291.261 195.708 290.848 195.737C290.435 195.766 290.123 196.124 290.152 196.538L291.648 196.433ZM289.874 192.563C289.903 192.976 290.262 193.288 290.675 193.259C291.088 193.23 291.4 192.871 291.371 192.458L289.874 192.563ZM291.093 188.483C291.064 188.07 290.706 187.759 290.293 187.787C289.879 187.816 289.568 188.175 289.597 188.588L291.093 188.483ZM289.319 184.613C289.348 185.026 289.706 185.338 290.119 185.309C290.533 185.28 290.844 184.922 290.815 184.508L289.319 184.613ZM290.538 180.534C290.509 180.12 290.15 179.809 289.737 179.838C289.324 179.866 289.012 180.225 289.041 180.638L290.538 180.534ZM288.764 176.663C288.792 177.076 289.151 177.388 289.564 177.359C289.977 177.33 290.289 176.972 290.26 176.559L288.764 176.663ZM290.222 173.074C290.305 172.669 290.045 172.272 289.639 172.188C289.233 172.104 288.837 172.365 288.753 172.77L290.222 173.074ZM290.491 169.41C290.209 169.713 290.225 170.188 290.528 170.47C290.83 170.753 291.305 170.737 291.588 170.434L290.491 169.41ZM294.172 168.625C294.526 168.41 294.638 167.948 294.423 167.594C294.208 167.24 293.747 167.128 293.393 167.343L294.172 168.625ZM296.233 165.617C295.879 165.832 295.766 166.294 295.981 166.648C296.196 167.002 296.658 167.114 297.012 166.899L296.233 165.617ZM299.851 165.174C300.205 164.958 300.318 164.497 300.103 164.143C299.888 163.789 299.426 163.677 299.073 163.892L299.851 165.174ZM301.912 162.166C301.558 162.381 301.446 162.842 301.661 163.196C301.876 163.55 302.337 163.663 302.691 163.448L301.912 162.166ZM303.721 160.262C303.537 159.892 303.086 159.741 302.715 159.926C302.345 160.111 302.194 160.561 302.379 160.932L303.721 160.262ZM301.036 158.237C301.22 158.608 301.671 158.759 302.041 158.574C302.412 158.389 302.563 157.939 302.378 157.568L301.036 158.237ZM301.035 154.874C300.85 154.503 300.4 154.352 300.029 154.537C299.658 154.722 299.507 155.172 299.692 155.543L301.035 154.874ZM298.349 152.849C298.534 153.22 298.984 153.37 299.355 153.185C299.726 153.001 299.876 152.55 299.691 152.18L298.349 152.849ZM296.533 151.092C296.149 151.248 295.963 151.685 296.119 152.069C296.274 152.453 296.711 152.638 297.095 152.483L296.533 151.092ZM294.026 153.724C294.41 153.569 294.595 153.132 294.44 152.748C294.285 152.364 293.847 152.178 293.463 152.333L294.026 153.724ZM290.394 153.575C290.01 153.73 289.825 154.167 289.98 154.551C290.135 154.935 290.572 155.12 290.956 154.965L290.394 153.575ZM287.887 156.206C288.271 156.051 288.457 155.614 288.301 155.23C288.146 154.846 287.709 154.66 287.325 154.816L287.887 156.206ZM284.332 155.804C283.92 155.85 283.623 156.22 283.669 156.632C283.714 157.044 284.085 157.341 284.496 157.295L284.332 155.804ZM280.755 156.675C281.13 156.85 281.577 156.689 281.752 156.314C281.928 155.939 281.767 155.492 281.392 155.317L280.755 156.675ZM278.593 153.168C278.28 152.897 277.806 152.931 277.535 153.244C277.264 153.558 277.299 154.031 277.612 154.302L278.593 153.168ZM274.537 151.643C274.851 151.914 275.324 151.88 275.595 151.566C275.866 151.253 275.832 150.78 275.519 150.509L274.537 151.643ZM272.444 147.849C272.131 147.578 271.657 147.613 271.386 147.926C271.115 148.239 271.149 148.713 271.463 148.984L272.444 147.849ZM268.388 146.325C268.701 146.596 269.175 146.561 269.446 146.248C269.717 145.935 269.682 145.461 269.369 145.19L268.388 146.325ZM266.294 142.531C265.981 142.26 265.508 142.294 265.237 142.608C264.966 142.921 265 143.395 265.313 143.666L266.294 142.531ZM262.239 141.006C262.552 141.277 263.025 141.243 263.296 140.93C263.567 140.616 263.533 140.143 263.22 139.872L262.239 141.006ZM260.826 137.608C260.583 137.273 260.114 137.198 259.778 137.441C259.443 137.684 259.368 138.153 259.611 138.488L260.826 137.608ZM258.375 135.532C258.443 135.94 258.83 136.216 259.238 136.148C259.647 136.08 259.923 135.694 259.855 135.285L258.375 135.532ZM259.921 132.074C259.948 131.661 259.635 131.304 259.222 131.276C258.809 131.249 258.451 131.562 258.424 131.975L259.921 132.074ZM258.681 128.084C258.654 128.498 258.967 128.855 259.38 128.882C259.793 128.909 260.151 128.597 260.178 128.183L258.681 128.084ZM260.435 124.292C260.462 123.879 260.15 123.522 259.736 123.494C259.323 123.467 258.966 123.78 258.938 124.193L260.435 124.292ZM259.196 120.302C259.168 120.716 259.481 121.073 259.895 121.1C260.308 121.128 260.665 120.815 260.692 120.401L259.196 120.302ZM258.735 117.168C258.342 117.036 257.917 117.248 257.785 117.641C257.654 118.034 257.866 118.459 258.259 118.59L258.735 117.168ZM255.107 117.536C255.499 117.667 255.924 117.455 256.056 117.062C256.187 116.67 255.975 116.245 255.583 116.113L255.107 117.536ZM203.87 180.885C204.083 180.248 204.314 179.624 204.564 179.011L203.176 178.444C202.913 179.087 202.67 179.742 202.447 180.409L203.87 180.885ZM206.309 175.424C206.974 174.257 207.71 173.146 208.509 172.095L207.315 171.187C206.476 172.291 205.704 173.456 205.006 174.681L206.309 175.424ZM211.127 169.086C212.068 168.138 213.068 167.256 214.118 166.445L213.201 165.258C212.099 166.109 211.05 167.034 210.063 168.029L211.127 169.086ZM217.428 164.215C218.578 163.545 219.771 162.95 220.999 162.435L220.418 161.052C219.131 161.592 217.879 162.216 216.672 162.919L217.428 164.215ZM224.771 161.133C226.051 160.783 227.357 160.515 228.68 160.334L228.477 158.848C227.088 159.038 225.718 159.319 224.375 159.686L224.771 161.133ZM232.659 160.055C233.98 160.049 235.309 160.13 236.641 160.3L236.832 158.813C235.434 158.633 234.039 158.549 232.653 158.555L232.659 160.055ZM240.557 161.066C241.196 161.235 241.835 161.426 242.471 161.639L242.947 160.216C242.28 159.993 241.611 159.793 240.94 159.616L240.557 161.066ZM242.471 161.639C243.108 161.852 243.732 162.084 244.345 162.334L244.912 160.945C244.269 160.683 243.614 160.44 242.947 160.216L242.471 161.639ZM247.933 164.078C249.099 164.744 250.21 165.479 251.261 166.279L252.169 165.084C251.066 164.246 249.9 163.473 248.676 162.775L247.933 164.078ZM254.27 168.897C255.218 169.838 256.1 170.837 256.911 171.887L258.098 170.97C257.247 169.869 256.322 168.82 255.327 167.832L254.27 168.897ZM259.141 175.197C259.811 176.347 260.406 177.541 260.921 178.768L262.304 178.188C261.764 176.9 261.14 175.648 260.437 174.442L259.141 175.197ZM262.223 182.541C262.573 183.82 262.841 185.126 263.022 186.449L264.508 186.246C264.318 184.857 264.037 183.487 263.67 182.145L262.223 182.541ZM263.302 190.429C263.307 191.749 263.227 193.079 263.056 194.411L264.544 194.602C264.723 193.204 264.808 191.808 264.802 190.422L263.302 190.429ZM262.29 198.326C262.121 198.966 261.93 199.604 261.717 200.241L263.14 200.717C263.363 200.049 263.563 199.38 263.74 198.709L262.29 198.326ZM261.717 200.241C261.504 200.877 261.272 201.502 261.022 202.114L262.411 202.681C262.673 202.039 262.917 201.384 263.14 200.717L261.717 200.241ZM259.278 205.702C258.613 206.869 257.877 207.979 257.078 209.03L258.272 209.938C259.11 208.835 259.883 207.669 260.581 206.445L259.278 205.702ZM254.46 212.04C253.518 212.988 252.519 213.869 251.469 214.681L252.386 215.868C253.488 215.017 254.536 214.091 255.524 213.097L254.46 212.04ZM248.159 216.91C247.009 217.58 245.816 218.175 244.588 218.691L245.169 220.074C246.456 219.533 247.708 218.909 248.914 218.206L248.159 216.91ZM240.816 219.992C239.536 220.343 238.23 220.61 236.907 220.791L237.11 222.277C238.499 222.087 239.869 221.807 241.212 221.439L240.816 219.992ZM232.928 221.071C231.607 221.077 230.277 220.996 228.945 220.825L228.755 222.313C230.152 222.492 231.548 222.577 232.934 222.571L232.928 221.071ZM225.03 220.059C224.391 219.89 223.752 219.7 223.116 219.487L222.64 220.909C223.307 221.132 223.976 221.332 224.647 221.51L225.03 220.059ZM223.116 219.487C222.479 219.274 221.854 219.042 221.242 218.792L220.675 220.181C221.318 220.443 221.973 220.686 222.64 220.909L223.116 219.487ZM217.654 217.047C216.488 216.382 215.377 215.646 214.326 214.847L213.418 216.041C214.521 216.88 215.687 217.652 216.911 218.35L217.654 217.047ZM211.316 212.229C210.368 211.288 209.487 210.288 208.675 209.238L207.489 210.156C208.34 211.257 209.265 212.306 210.26 213.293L211.316 212.229ZM206.446 205.929C205.776 204.778 205.181 203.585 204.666 202.357L203.282 202.938C203.823 204.226 204.447 205.477 205.15 206.684L206.446 205.929ZM203.364 198.585C203.014 197.305 202.746 196 202.565 194.676L201.079 194.879C201.269 196.268 201.55 197.638 201.917 198.981L203.364 198.585ZM202.285 190.697C202.279 189.377 202.36 188.047 202.531 186.715L201.043 186.524C200.864 187.922 200.779 189.318 200.785 190.703L202.285 190.697ZM203.297 182.8C203.466 182.16 203.657 181.522 203.87 180.885L202.447 180.409C202.224 181.076 202.024 181.746 201.847 182.416L203.297 182.8ZM238.981 172.07C238.37 171.866 237.755 171.693 237.139 171.552L236.803 173.014C237.372 173.144 237.94 173.304 238.505 173.493L238.981 172.07ZM233.346 171.066C232.058 171.029 230.781 171.121 229.532 171.334L229.784 172.812C230.936 172.616 232.115 172.531 233.303 172.565L233.346 171.066ZM225.845 172.342C224.652 172.798 223.506 173.369 222.424 174.048L223.221 175.318C224.22 174.692 225.278 174.164 226.38 173.743L225.845 172.342ZM219.399 176.386C218.478 177.255 217.635 178.219 216.89 179.271L218.113 180.139C218.801 179.169 219.578 178.279 220.428 177.477L219.399 176.386ZM214.995 182.592C214.738 183.169 214.506 183.764 214.301 184.375L215.724 184.851C215.913 184.286 216.127 183.737 216.365 183.204L214.995 182.592ZM214.301 184.375C214.097 184.987 213.924 185.601 213.782 186.217L215.244 186.553C215.375 185.984 215.534 185.417 215.724 184.851L214.301 184.375ZM213.296 190.01C213.259 191.298 213.351 192.575 213.564 193.824L215.043 193.572C214.846 192.42 214.761 191.241 214.796 190.053L213.296 190.01ZM214.573 197.512C215.028 198.705 215.6 199.851 216.278 200.932L217.549 200.136C216.923 199.136 216.395 198.078 215.974 196.976L214.573 197.512ZM218.616 203.957C219.485 204.879 220.45 205.721 221.501 206.467L222.369 205.243C221.399 204.555 220.51 203.778 219.707 202.928L218.616 203.957ZM224.823 208.361C225.4 208.619 225.995 208.851 226.606 209.055L227.082 207.633C226.517 207.443 225.967 207.229 225.434 206.991L224.823 208.361ZM226.606 209.055C227.217 209.26 227.832 209.432 228.448 209.574L228.784 208.112C228.215 207.981 227.647 207.822 227.082 207.633L226.606 209.055ZM232.24 210.06C233.529 210.097 234.806 210.005 236.055 209.792L235.803 208.313C234.65 208.51 233.472 208.595 232.284 208.561L232.24 210.06ZM239.742 208.783C240.935 208.328 242.081 207.756 243.163 207.078L242.366 205.807C241.367 206.434 240.309 206.961 239.207 207.382L239.742 208.783ZM246.188 204.74C247.109 203.871 247.951 202.906 248.697 201.855L247.474 200.987C246.786 201.957 246.009 202.847 245.158 203.649L246.188 204.74ZM250.592 198.533C250.849 197.956 251.081 197.362 251.286 196.75L249.863 196.274C249.674 196.84 249.46 197.389 249.222 197.922L250.592 198.533ZM251.286 196.75C251.49 196.139 251.663 195.524 251.804 194.908L250.343 194.573C250.212 195.141 250.052 195.709 249.863 196.274L251.286 196.75ZM252.291 191.116C252.328 189.827 252.235 188.55 252.023 187.301L250.544 187.553C250.74 188.706 250.825 189.884 250.791 191.073L252.291 191.116ZM251.014 183.614C250.558 182.421 249.987 181.275 249.309 180.193L248.038 180.99C248.664 181.989 249.192 183.048 249.613 184.149L251.014 183.614ZM246.971 177.168C246.101 176.247 245.137 175.405 244.086 174.659L243.218 175.882C244.187 176.57 245.077 177.347 245.879 178.198L246.971 177.168ZM240.764 172.765C240.187 172.507 239.592 172.275 238.981 172.07L238.505 173.493C239.07 173.682 239.62 173.896 240.152 174.134L240.764 172.765ZM245.328 105.004L244.121 106.845L245.376 107.668L246.583 105.826L245.328 105.004ZM241.707 110.529L239.293 114.212L240.547 115.034L242.961 111.351L241.707 110.529ZM236.878 117.895L235.671 119.736L236.926 120.559L238.133 118.717L236.878 117.895ZM236.242 119.4L234.135 119.56L234.249 121.056L236.356 120.895L236.242 119.4ZM229.923 119.881L225.711 120.202L225.825 121.698L230.037 121.377L229.923 119.881ZM221.499 120.523L219.393 120.684L219.507 122.179L221.613 122.019L221.499 120.523ZM220.1 121.058L219.163 119.425L217.862 120.171L218.799 121.805L220.1 121.058ZM217.288 116.158L215.414 112.892L214.113 113.638L215.987 116.905L217.288 116.158ZM213.54 109.625L212.602 107.992L211.301 108.739L212.238 110.372L213.54 109.625ZM212.602 107.992C212.149 107.203 211.563 106.532 210.888 105.996L209.955 107.17C210.484 107.591 210.944 108.117 211.301 108.739L212.602 107.992ZM205.941 104.5C205.081 104.572 204.222 104.805 203.408 105.211L204.077 106.554C204.719 106.234 205.393 106.051 206.067 105.994L205.941 104.5ZM203.408 105.211L201.65 106.088L202.319 107.43L204.077 106.554L203.408 105.211ZM198.134 107.841L194.618 109.594L195.288 110.936L198.803 109.183L198.134 107.841ZM191.103 111.346L187.587 113.099L188.256 114.442L191.772 112.689L191.103 111.346ZM184.072 114.852L182.314 115.728L182.983 117.071L184.741 116.194L184.072 114.852ZM182.314 115.728C181.525 116.122 180.839 116.647 180.273 117.265L181.38 118.278C181.824 117.793 182.362 117.381 182.983 117.071L182.314 115.728ZM178.436 121.94C178.43 122.778 178.574 123.63 178.884 124.455L180.289 123.927C180.044 123.277 179.931 122.609 179.936 121.952L178.436 121.94ZM178.884 124.455L179.566 126.27L180.97 125.742L180.289 123.927L178.884 124.455ZM180.93 129.899L182.294 133.529L183.698 133.001L182.334 129.372L180.93 129.899ZM183.657 137.158L184.339 138.973L185.743 138.445L185.061 136.631L183.657 137.158ZM184.472 138.221L183.09 139.831L184.229 140.808L185.61 139.198L184.472 138.221ZM180.327 143.051L177.563 146.272L178.702 147.249L181.465 144.028L180.327 143.051ZM174.8 149.492L173.418 151.102L174.557 152.079L175.938 150.469L174.8 149.492ZM174.058 150.844L171.933 150.645L171.793 152.138L173.917 152.337L174.058 150.844ZM167.685 150.246L163.437 149.847L163.297 151.34L167.545 151.739L167.685 150.246ZM159.189 149.448L157.065 149.249L156.925 150.742L159.049 150.942L159.189 149.448ZM157.065 149.249C156.267 149.174 155.481 149.237 154.734 149.421L155.094 150.877C155.679 150.733 156.296 150.683 156.925 150.742L157.065 149.249ZM150.873 151.935C150.402 152.543 150.027 153.237 149.772 153.997L151.195 154.473C151.395 153.874 151.69 153.33 152.059 152.853L150.873 151.935ZM149.772 153.997L149.111 155.973L150.534 156.449L151.195 154.473L149.772 153.997ZM147.789 159.924L146.467 163.875L147.89 164.351L149.212 160.4L147.789 159.924ZM145.145 167.827L144.484 169.802L145.906 170.278L146.568 168.303L145.145 167.827ZM144.484 169.802C144.237 170.541 144.119 171.298 144.122 172.046L145.622 172.041C145.62 171.454 145.712 170.859 145.906 170.278L144.484 169.802ZM145.572 176.29C146.028 176.883 146.584 177.41 147.231 177.842L148.065 176.595C147.556 176.255 147.119 175.841 146.761 175.376L145.572 176.29ZM147.231 177.842L149.071 179.072L149.904 177.825L148.065 176.595L147.231 177.842ZM152.749 181.532L156.428 183.992L157.262 182.745L153.583 180.285L152.749 181.532ZM160.107 186.452L161.946 187.682L162.78 186.435L160.941 185.205L160.107 186.452ZM161.615 187.115L161.776 189.225L163.272 189.111L163.111 187.002L161.615 187.115ZM162.098 193.444L162.419 197.662L163.915 197.548L163.593 193.33L162.098 193.444ZM162.741 201.881L162.901 203.991L164.397 203.877L164.236 201.767L162.741 201.881ZM163.277 203.283L161.646 204.216L162.391 205.518L164.022 204.584L163.277 203.283ZM158.384 206.083L155.122 207.95L155.867 209.252L159.129 207.385L158.384 206.083ZM151.86 209.817L150.229 210.75L150.975 212.052L152.605 211.118L151.86 209.817ZM150.229 210.75C149.439 211.202 148.768 211.788 148.23 212.464L149.404 213.398C149.825 212.868 150.352 212.408 150.975 212.052L150.229 210.75ZM146.73 217.413C146.802 218.274 147.036 219.134 147.442 219.949L148.784 219.279C148.464 218.637 148.281 217.962 148.225 217.288L146.73 217.413ZM147.442 219.949L148.319 221.707L149.661 221.037L148.784 219.279L147.442 219.949ZM150.071 225.222L151.824 228.738L153.167 228.068L151.414 224.553L150.071 225.222ZM153.577 232.253L155.33 235.769L156.672 235.1L154.919 231.584L153.577 232.253ZM157.083 239.285L157.959 241.043L159.301 240.373L158.425 238.615L157.083 239.285ZM157.959 241.043C158.353 241.832 158.879 242.518 159.498 243.085L160.51 241.978C160.025 241.534 159.612 240.995 159.301 240.373L157.959 241.043ZM164.179 244.92C165.018 244.926 165.87 244.78 166.695 244.468L166.166 243.065C165.515 243.31 164.846 243.425 164.189 243.42L164.179 244.92ZM166.695 244.468L168.512 243.782L167.982 242.379L166.166 243.065L166.695 244.468ZM172.145 242.411L175.779 241.04L175.249 239.636L171.616 241.008L172.145 242.411ZM179.412 239.669L181.229 238.983L180.699 237.579L178.882 238.265L179.412 239.669ZM180.473 238.848L182.044 240.207L183.025 239.072L181.454 237.714L180.473 238.848ZM185.184 242.924L188.325 245.641L189.307 244.506L186.166 241.789L185.184 242.924ZM191.466 248.358L193.037 249.716L194.018 248.582L192.447 247.223L191.466 248.358ZM192.779 249.093L192.616 251.258L194.111 251.371L194.275 249.206L192.779 249.093ZM192.288 255.589L191.96 259.921L193.456 260.034L193.784 255.703L192.288 255.589ZM191.632 264.252L191.469 266.417L192.964 266.531L193.128 264.365L191.632 264.252ZM191.469 266.417C191.409 267.206 191.483 267.98 191.675 268.714L193.126 268.335C192.976 267.759 192.917 267.151 192.964 266.531L191.469 266.417ZM194.191 272.503C194.793 272.964 195.478 273.333 196.228 273.584L196.704 272.161C196.114 271.964 195.576 271.674 195.104 271.312L194.191 272.503ZM196.228 273.584L198.203 274.245L198.679 272.822L196.704 272.161L196.228 273.584ZM202.155 275.567L206.106 276.889L206.582 275.467L202.631 274.144L202.155 275.567ZM210.057 278.211L212.033 278.872L212.509 277.45L210.533 276.789L210.057 278.211ZM212.033 278.872C212.782 279.123 213.551 279.24 214.309 279.234L214.297 277.734C213.702 277.739 213.099 277.647 212.509 277.45L212.033 278.872ZM218.597 277.725C219.192 277.255 219.717 276.682 220.144 276.017L218.882 275.206C218.546 275.729 218.133 276.179 217.666 276.548L218.597 277.725ZM220.144 276.017L221.318 274.189L220.056 273.378L218.882 275.206L220.144 276.017ZM223.666 270.532L226.015 266.876L224.753 266.066L222.404 269.722L223.666 270.532ZM228.363 263.22L229.537 261.392L228.275 260.581L227.101 262.409L228.363 263.22ZM228.959 261.735L231.093 261.586L230.989 260.089L228.854 260.238L228.959 261.735ZM235.362 261.287L239.631 260.989L239.526 259.493L235.257 259.791L235.362 261.287ZM243.9 260.691L246.034 260.542L245.93 259.045L243.795 259.195L243.9 260.691ZM245.346 260.191C245.647 260.673 245.965 261.189 246.295 261.731L247.576 260.949C247.243 260.404 246.922 259.883 246.618 259.396L245.346 260.191ZM248.163 264.838C248.471 265.356 248.78 265.878 249.086 266.4L250.379 265.639C250.072 265.116 249.762 264.592 249.453 264.072L248.163 264.838ZM249.086 266.4C249.32 266.797 249.55 267.19 249.774 267.573L251.069 266.816C250.844 266.431 250.614 266.038 250.379 265.639L249.086 266.4ZM251.142 269.925C251.387 270.349 251.615 270.745 251.821 271.103L253.121 270.354C252.915 269.996 252.686 269.599 252.44 269.174L251.142 269.925ZM251.821 271.103C251.895 271.23 251.965 271.352 252.032 271.47L253.333 270.722C253.265 270.605 253.195 270.482 253.121 270.354L251.821 271.103ZM252.454 272.204C252.532 272.34 252.602 272.463 252.664 272.571L253.966 271.827C253.904 271.718 253.834 271.595 253.755 271.458L252.454 272.204ZM252.663 272.57L252.74 272.705L254.043 271.962L253.966 271.827L252.663 272.57ZM252.894 272.975L252.971 273.11L254.274 272.366L254.197 272.232L252.894 272.975ZM252.97 273.109C253.421 273.902 254.006 274.576 254.682 275.116L255.619 273.945C255.089 273.522 254.63 272.993 254.274 272.367L252.97 273.109ZM259.639 276.627C260.501 276.555 261.362 276.321 262.179 275.914L261.51 274.572C260.866 274.893 260.19 275.076 259.514 275.132L259.639 276.627ZM262.179 275.914L263.937 275.038L263.268 273.695L261.51 274.572L262.179 275.914ZM267.453 273.285L270.968 271.532L270.299 270.19L266.784 271.942L267.453 273.285ZM274.484 269.779L278 268.026L277.33 266.684L273.815 268.437L274.484 269.779ZM281.515 266.274L283.273 265.397L282.604 264.055L280.846 264.931L281.515 266.274ZM283.273 265.397C284.074 264.998 284.768 264.463 285.338 263.833L284.226 262.826C283.779 263.32 283.235 263.74 282.604 264.055L283.273 265.397ZM287.151 259.076C287.144 258.226 286.982 257.365 286.65 256.534L285.257 257.091C285.519 257.746 285.646 258.421 285.651 259.088L287.151 259.076ZM286.65 256.534L285.939 254.757L284.546 255.314L285.257 257.091L286.65 256.534ZM284.518 251.203L283.097 247.648L281.704 248.205L283.125 251.759L284.518 251.203ZM281.676 244.094L280.966 242.317L279.573 242.874L280.284 244.651L281.676 244.094ZM280.836 243.087L282.229 241.484L281.097 240.5L279.703 242.103L280.836 243.087ZM285.015 238.278L287.801 235.073L286.669 234.089L283.883 237.294L285.015 238.278ZM290.588 231.867L291.981 230.264L290.849 229.28L289.456 230.883L290.588 231.867ZM291.364 230.52L293.538 230.669L293.64 229.172L291.466 229.024L291.364 230.52ZM297.886 230.967L302.235 231.264L302.337 229.768L297.989 229.47L297.886 230.967ZM306.583 231.562L308.758 231.711L308.86 230.214L306.686 230.065L306.583 231.562ZM308.758 231.711C309.542 231.764 310.311 231.686 311.04 231.491L310.653 230.042C310.081 230.195 309.477 230.256 308.86 230.214L308.758 231.711ZM314.8 228.975C315.258 228.375 315.624 227.694 315.874 226.949L314.451 226.473C314.255 227.059 313.967 227.594 313.608 228.065L314.8 228.975ZM315.874 226.949L316.527 224.995L315.105 224.519L314.451 226.473L315.874 226.949ZM317.835 221.089L319.142 217.183L317.719 216.707L316.412 220.613L317.835 221.089ZM320.449 213.277L321.103 211.324L319.68 210.848L319.027 212.801L320.449 213.277ZM321.103 211.324C321.353 210.575 321.471 209.807 321.465 209.049L319.965 209.061C319.97 209.655 319.877 210.258 319.68 210.848L321.103 211.324ZM319.959 204.764C319.489 204.169 318.917 203.643 318.253 203.216L317.441 204.477C317.964 204.814 318.413 205.226 318.781 205.693L319.959 204.764ZM318.253 203.216L316.434 202.045L315.622 203.306L317.441 204.477L318.253 203.216ZM312.794 199.702L309.155 197.36L308.343 198.621L311.983 200.964L312.794 199.702ZM305.516 195.018L303.696 193.846L302.884 195.108L304.704 196.279L305.516 195.018ZM304.039 194.425L303.891 192.309L302.394 192.414L302.542 194.529L304.039 194.425ZM303.595 188.078L303.3 183.846L301.803 183.951L302.099 188.182L303.595 188.078ZM303.004 179.615L302.856 177.499L301.36 177.604L301.508 179.719L303.004 179.615ZM302.497 178.192L304.125 177.204L303.346 175.922L301.719 176.911L302.497 178.192ZM307.379 175.226L310.634 173.249L309.855 171.967L306.6 173.944L307.379 175.226ZM313.888 171.271L315.515 170.282L314.736 169.001L313.109 169.989L313.888 171.271ZM315.515 170.282C316.279 169.818 316.926 169.228 317.441 168.554L316.25 167.643C315.845 168.171 315.338 168.635 314.736 169.001L315.515 170.282ZM318.853 163.666C318.776 162.821 318.544 161.977 318.145 161.177L316.802 161.846C317.117 162.477 317.299 163.139 317.359 163.802L318.853 163.666ZM318.145 161.177L317.268 159.419L315.926 160.088L316.802 161.846L318.145 161.177ZM315.516 155.903L313.763 152.388L312.42 153.057L314.173 156.573L315.516 155.903ZM312.01 148.872L310.257 145.357L308.915 146.026L310.667 149.541L312.01 148.872ZM308.504 141.841L307.628 140.083L306.285 140.752L307.162 142.51L308.504 141.841ZM307.628 140.083C307.227 139.28 306.691 138.584 306.059 138.013L305.053 139.126C305.549 139.574 305.97 140.12 306.285 140.752L307.628 140.083ZM301.286 136.206C300.434 136.215 299.571 136.38 298.739 136.717L299.301 138.108C299.957 137.842 300.634 137.713 301.302 137.706L301.286 136.206ZM298.739 136.717L296.977 137.429L297.54 138.82L299.301 138.108L298.739 136.717ZM293.454 138.854L289.931 140.279L290.493 141.669L294.017 140.245L293.454 138.854ZM286.408 141.703L284.646 142.416L285.208 143.806L286.97 143.094L286.408 141.703ZM285.418 142.544L283.767 141.116L282.786 142.251L284.437 143.678L285.418 142.544ZM280.466 138.261L277.164 135.406L276.183 136.54L279.485 139.395L280.466 138.261ZM273.863 132.55L272.212 131.123L271.231 132.257L272.882 133.685L273.863 132.55ZM272.47 131.74L272.613 129.581L271.116 129.482L270.973 131.641L272.47 131.74ZM272.898 125.264L273.184 120.946L271.687 120.848L271.401 125.165L272.898 125.264ZM273.469 116.629L273.612 114.471L272.115 114.372L271.972 116.53L273.469 116.629ZM273.612 114.471C273.663 113.688 273.583 112.92 273.388 112.192L271.939 112.582C272.093 113.153 272.156 113.756 272.115 114.372L273.612 114.471ZM270.871 108.442C270.272 107.985 269.592 107.62 268.848 107.371L268.372 108.793C268.958 108.989 269.492 109.276 269.962 109.635L270.871 108.442ZM268.848 107.371L266.917 106.725L266.442 108.147L268.372 108.793L268.848 107.371ZM263.056 105.433L259.195 104.141L258.719 105.563L262.58 106.855L263.056 105.433ZM255.334 102.849L253.404 102.203L252.928 103.626L254.858 104.272L255.334 102.849ZM253.404 102.203C252.66 101.954 251.897 101.837 251.144 101.841L251.153 103.341C251.744 103.338 252.343 103.43 252.928 103.626L253.404 102.203ZM246.878 103.32C246.284 103.783 245.758 104.348 245.328 105.004L246.583 105.826C246.921 105.31 247.334 104.867 247.8 104.504L246.878 103.32ZM253.141 115.886L252.054 117.545L253.308 118.368L254.396 116.708L253.141 115.886ZM249.878 120.864L247.703 124.183L248.957 125.005L251.133 121.686L249.878 120.864ZM245.527 127.502L244.44 129.161L245.694 129.983L246.782 128.324L245.527 127.502ZM244.44 129.161C244.207 129.516 243.937 129.838 243.637 130.125L244.672 131.21C245.055 130.845 245.399 130.434 245.694 129.983L244.44 129.161ZM241.49 131.393C241.093 131.517 240.68 131.598 240.258 131.63L240.372 133.126C240.909 133.085 241.435 132.982 241.94 132.824L241.49 131.393ZM240.258 131.63L238.27 131.781L238.384 133.277L240.372 133.126L240.258 131.63ZM234.296 132.084L230.321 132.387L230.435 133.883L234.41 133.58L234.296 132.084ZM226.346 132.69L222.372 132.993L222.486 134.488L226.46 134.186L226.346 132.69ZM218.397 133.296L216.41 133.447L216.524 134.943L218.511 134.791L218.397 133.296ZM216.41 133.447C215.886 133.487 215.368 133.451 214.87 133.348L214.564 134.816C215.199 134.948 215.858 134.993 216.524 134.943L216.41 133.447ZM212.169 131.918C211.803 131.564 211.483 131.156 211.221 130.7L209.92 131.447C210.253 132.026 210.661 132.546 211.127 132.997L212.169 131.918ZM211.221 130.7L210.406 129.279L209.105 130.025L209.92 131.447L211.221 130.7ZM208.774 126.435L207.142 123.592L205.841 124.338L207.473 127.182L208.774 126.435ZM205.51 120.748L204.695 119.326L203.394 120.073L204.209 121.495L205.51 120.748ZM203.709 119.028L202.363 119.7L203.032 121.042L204.379 120.371L203.709 119.028ZM199.669 121.043L196.976 122.386L197.645 123.728L200.339 122.385L199.669 121.043ZM194.282 123.729L192.936 124.4L193.605 125.742L194.952 125.071L194.282 123.729ZM192.568 125.335L193.165 126.923L194.569 126.395L193.972 124.807L192.568 125.335ZM194.358 130.099L195.551 133.275L196.955 132.747L195.762 129.571L194.358 130.099ZM196.745 136.45L197.341 138.038L198.745 137.511L198.149 135.923L196.745 136.45ZM197.341 138.038C197.516 138.504 197.625 138.984 197.669 139.466L199.163 139.328C199.106 138.714 198.968 138.103 198.745 137.511L197.341 138.038ZM197.164 142.326C196.957 142.763 196.691 143.177 196.366 143.554L197.505 144.531C197.917 144.051 198.256 143.524 198.52 142.967L197.164 142.326ZM196.366 143.554L195.069 145.066L196.207 146.043L197.505 144.531L196.366 143.554ZM192.474 148.09L189.88 151.114L191.018 152.091L193.613 149.067L192.474 148.09ZM187.285 154.138L184.69 157.162L185.828 158.138L188.423 155.115L187.285 154.138ZM182.095 160.185L180.798 161.697L181.936 162.674L183.234 161.162L182.095 160.185ZM180.798 161.697C180.509 162.034 180.184 162.33 179.832 162.583L180.707 163.801C181.156 163.479 181.569 163.102 181.936 162.674L180.798 161.697ZM177.42 163.558C176.991 163.621 176.551 163.633 176.11 163.592L175.97 165.085C176.531 165.138 177.091 165.122 177.637 165.042L177.42 163.558ZM176.11 163.592L174.2 163.412L174.06 164.906L175.97 165.085L176.11 163.592ZM170.381 163.054L166.563 162.695L166.422 164.189L170.241 164.547L170.381 163.054ZM162.744 162.337L160.834 162.158L160.694 163.651L162.603 163.83L162.744 162.337ZM160.053 162.666L159.503 164.31L160.925 164.786L161.475 163.142L160.053 162.666ZM158.402 167.599L157.852 169.243L159.275 169.719L159.825 168.075L158.402 167.599ZM158.147 170.104L159.806 171.214L160.64 169.967L158.981 168.857L158.147 170.104ZM163.125 173.433L166.443 175.652L167.277 174.405L163.959 172.186L163.125 173.433ZM169.762 177.871L171.421 178.981L172.255 177.734L170.596 176.624L169.762 177.871ZM171.421 178.981C171.77 179.214 172.088 179.484 172.37 179.783L173.462 178.755C173.103 178.374 172.699 178.03 172.255 177.734L171.421 178.981ZM173.615 181.915C173.737 182.307 173.816 182.716 173.848 183.135L175.344 183.021C175.303 182.488 175.203 181.968 175.047 181.468L173.615 181.915ZM173.848 183.135L174 185.122L175.495 185.008L175.344 183.021L173.848 183.135ZM174.303 189.096L174.605 193.07L176.101 192.956L175.798 188.982L174.303 189.096ZM174.908 197.044L175.211 201.018L176.707 200.904L176.404 196.93L174.908 197.044ZM175.514 204.991L175.665 206.978L177.161 206.864L177.009 204.878L175.514 204.991ZM175.665 206.978C175.705 207.503 175.669 208.021 175.565 208.52L177.034 208.826C177.166 208.191 177.212 207.531 177.161 206.864L175.665 206.978ZM174.133 211.222C173.778 211.588 173.37 211.909 172.913 212.17L173.658 213.472C174.239 213.139 174.759 212.732 175.211 212.265L174.133 211.222ZM172.913 212.17L171.494 212.982L172.239 214.284L173.658 213.472L172.913 212.17ZM168.656 214.606L165.818 216.231L166.563 217.533L169.401 215.908L168.656 214.606ZM162.98 217.855L161.561 218.667L162.306 219.969L163.725 219.157L162.98 217.855ZM161.262 219.653L161.933 220.998L163.275 220.329L162.604 218.983L161.262 219.653ZM163.274 223.688L164.615 226.378L165.957 225.709L164.616 223.019L163.274 223.688ZM165.956 229.068L166.627 230.413L167.969 229.744L167.299 228.399L165.956 229.068ZM167.563 230.78L169.155 230.179L168.625 228.776L167.033 229.377L167.563 230.78ZM172.338 228.978L175.521 227.776L174.992 226.373L171.808 227.574L172.338 228.978ZM178.705 226.575L180.296 225.974L179.767 224.571L178.175 225.171L178.705 226.575ZM180.296 225.974C180.764 225.797 181.247 225.688 181.731 225.643L181.593 224.149C180.976 224.207 180.362 224.346 179.767 224.571L180.296 225.974ZM184.604 226.154C185.043 226.364 185.458 226.633 185.837 226.96L186.818 225.826C186.337 225.409 185.808 225.067 185.249 224.8L184.604 226.154ZM185.837 226.96L187.317 228.24L188.298 227.106L186.818 225.826L185.837 226.96ZM190.276 230.801L193.236 233.361L194.217 232.227L191.258 229.666L190.276 230.801ZM196.196 235.921L199.156 238.482L200.137 237.347L197.177 234.787L196.196 235.921ZM202.115 241.042L203.595 242.322L204.577 241.188L203.097 239.908L202.115 241.042ZM203.595 242.322C203.923 242.605 204.212 242.923 204.459 243.267L205.676 242.39C205.361 241.952 204.993 241.548 204.577 241.188L203.595 242.322ZM205.429 245.618C205.495 246.036 205.514 246.465 205.481 246.897L206.977 247.01C207.019 246.461 206.995 245.915 206.91 245.382L205.429 245.618ZM205.481 246.897L205.334 248.848L206.829 248.961L206.977 247.01L205.481 246.897ZM205.038 252.75L204.743 256.653L206.239 256.766L206.534 252.864L205.038 252.75ZM204.448 260.555L204.3 262.507L205.796 262.62L205.944 260.668L204.448 260.555ZM204.81 263.274L206.454 263.824L206.93 262.402L205.286 261.852L204.81 263.274ZM209.742 264.925L211.386 265.475L211.862 264.052L210.218 263.502L209.742 264.925ZM212.255 265.169L213.313 263.522L212.051 262.712L210.993 264.358L212.255 265.169ZM215.428 260.23L217.542 256.937L216.28 256.126L214.165 259.419L215.428 260.23ZM219.657 253.644L220.715 251.998L219.453 251.187L218.395 252.834L219.657 253.644ZM220.715 251.998C220.948 251.635 221.22 251.305 221.524 251.011L220.483 249.932C220.096 250.305 219.749 250.725 219.453 251.187L220.715 251.998ZM223.705 249.719C224.108 249.594 224.529 249.514 224.959 249.484L224.855 247.987C224.307 248.025 223.772 248.127 223.259 248.288L223.705 249.719ZM224.959 249.484L226.947 249.345L226.842 247.848L224.855 247.987L224.959 249.484ZM230.922 249.067L234.896 248.789L234.792 247.293L230.817 247.571L230.922 249.067ZM238.871 248.512L242.846 248.234L242.742 246.738L238.767 247.015L238.871 248.512ZM246.821 247.956L248.809 247.818L248.704 246.321L246.717 246.46L246.821 247.956ZM248.809 247.818C249.278 247.785 249.744 247.813 250.196 247.896L250.47 246.422C249.895 246.315 249.302 246.279 248.704 246.321L248.809 247.818ZM252.694 249.063C253.048 249.355 253.368 249.694 253.645 250.076L254.859 249.195C254.507 248.71 254.1 248.278 253.649 247.906L252.694 249.063ZM253.645 250.076C254.098 250.7 254.653 251.533 255.269 252.496L256.532 251.688C255.911 250.716 255.337 249.854 254.859 249.195L253.645 250.076ZM258.355 257.521C258.872 258.387 259.381 259.247 259.861 260.063L261.154 259.302C260.673 258.484 260.162 257.621 259.643 256.752L258.355 257.521ZM259.861 260.063C259.947 260.209 260.032 260.354 260.117 260.499L261.411 259.74C261.326 259.595 261.24 259.449 261.154 259.302L259.861 260.063ZM260.629 261.372C260.715 261.519 260.8 261.665 260.884 261.809L262.18 261.054C262.095 260.909 262.01 260.763 261.924 260.616L260.629 261.372ZM261.866 262.103L264.536 260.772L263.866 259.429L261.197 260.76L261.866 262.103ZM269.875 258.11L272.544 256.779L271.875 255.436L269.205 256.767L269.875 258.11ZM272.906 255.829L272.286 254.278L270.893 254.834L271.513 256.386L272.906 255.829ZM271.045 251.174L269.804 248.071L268.411 248.627L269.652 251.731L271.045 251.174ZM268.564 244.967L267.943 243.416L266.55 243.972L267.171 245.524L268.564 244.967ZM267.943 243.416C267.754 242.941 267.634 242.451 267.581 241.958L266.09 242.117C266.157 242.745 266.309 243.369 266.55 243.972L267.943 243.416ZM268.078 239.023C268.29 238.575 268.564 238.151 268.899 237.766L267.767 236.782C267.341 237.272 266.991 237.811 266.722 238.382L268.078 239.023ZM268.899 237.766L270.206 236.262L269.074 235.278L267.767 236.782L268.899 237.766ZM272.821 233.253L275.436 230.245L274.304 229.261L271.689 232.269L272.821 233.253ZM278.05 227.237L280.665 224.228L279.533 223.244L276.918 226.253L278.05 227.237ZM283.28 221.22L284.587 219.716L283.455 218.732L282.148 220.236L283.28 221.22ZM284.587 219.716C284.868 219.393 285.183 219.107 285.523 218.862L284.646 217.645C284.213 217.957 283.812 218.321 283.455 218.732L284.587 219.716ZM287.848 217.896C288.262 217.829 288.687 217.808 289.114 217.837L289.216 216.34C288.673 216.303 288.132 216.33 287.605 216.416L287.848 217.896ZM289.114 217.837L291.074 217.971L291.176 216.474L289.216 216.34L289.114 217.837ZM294.993 218.239L298.912 218.508L299.014 217.011L295.095 216.743L294.993 218.239ZM302.831 218.776L304.791 218.91L304.893 217.413L302.934 217.279L302.831 218.776ZM305.553 218.4L306.092 216.791L304.669 216.315L304.131 217.924L305.553 218.4ZM307.168 213.574L307.707 211.965L306.284 211.489L305.746 213.098L307.168 213.574ZM307.401 211.097L305.763 210.042L304.951 211.304L306.589 212.358L307.401 211.097ZM302.487 207.934L299.211 205.825L298.399 207.086L301.675 209.195L302.487 207.934ZM295.935 203.716L294.297 202.662L293.485 203.923L295.123 204.978L295.935 203.716ZM294.297 202.662C293.935 202.429 293.605 202.157 293.312 201.853L292.232 202.893C292.605 203.28 293.024 203.627 293.485 203.923L294.297 202.662ZM292.023 199.673C291.897 199.27 291.817 198.85 291.787 198.421L290.291 198.525C290.329 199.072 290.431 199.607 290.591 200.12L292.023 199.673ZM291.787 198.421L291.648 196.433L290.152 196.538L290.291 198.525L291.787 198.421ZM291.371 192.458L291.093 188.483L289.597 188.588L289.874 192.563L291.371 192.458ZM290.815 184.508L290.538 180.534L289.041 180.638L289.319 184.613L290.815 184.508ZM290.26 176.559L290.121 174.571L288.625 174.676L288.764 176.663L290.26 176.559ZM290.121 174.571C290.086 174.062 290.121 173.559 290.222 173.074L288.753 172.77C288.625 173.388 288.58 174.029 288.625 174.676L290.121 174.571ZM291.588 170.434C291.926 170.072 292.316 169.752 292.752 169.488L291.973 168.206C291.418 168.543 290.922 168.949 290.491 169.41L291.588 170.434ZM292.752 169.488L294.172 168.625L293.393 167.343L291.973 168.206L292.752 169.488ZM297.012 166.899L299.851 165.174L299.073 163.892L296.233 165.617L297.012 166.899ZM302.691 163.448L304.111 162.585L303.332 161.303L301.912 162.166L302.691 163.448ZM304.393 161.61L303.721 160.262L302.379 160.932L303.051 162.279L304.393 161.61ZM302.378 157.568L301.035 154.874L299.692 155.543L301.036 158.237L302.378 157.568ZM299.691 152.18L299.02 150.832L297.677 151.502L298.349 152.849L299.691 152.18ZM298.067 150.472L296.533 151.092L297.095 152.483L298.63 151.862L298.067 150.472ZM293.463 152.333L290.394 153.575L290.956 154.965L294.026 153.724L293.463 152.333ZM287.325 154.816L285.79 155.436L286.353 156.827L287.887 156.206L287.325 154.816ZM285.79 155.436C285.316 155.628 284.825 155.75 284.332 155.804L284.496 157.295C285.125 157.226 285.75 157.071 286.353 156.827L285.79 155.436ZM281.392 155.317C280.943 155.106 280.518 154.832 280.131 154.497L279.149 155.632C279.641 156.057 280.182 156.406 280.755 156.675L281.392 155.317ZM280.131 154.497L278.593 153.168L277.612 154.302L279.149 155.632L280.131 154.497ZM275.519 150.509L272.444 147.849L271.463 148.984L274.537 151.643L275.519 150.509ZM269.369 145.19L266.294 142.531L265.313 143.666L268.388 146.325L269.369 145.19ZM263.22 139.872L261.682 138.542L260.701 139.677L262.239 141.006L263.22 139.872ZM261.682 138.542C261.358 138.262 261.072 137.948 260.826 137.608L259.611 138.488C259.924 138.921 260.289 139.32 260.701 139.677L261.682 138.542ZM259.855 135.285C259.786 134.871 259.764 134.447 259.792 134.02L258.295 133.921C258.26 134.464 258.287 135.005 258.375 135.532L259.855 135.285ZM259.792 134.02L259.921 132.074L258.424 131.975L258.295 133.921L259.792 134.02ZM260.178 128.183L260.435 124.292L258.938 124.193L258.681 128.084L260.178 128.183ZM260.692 120.401L260.821 118.456L259.324 118.357L259.196 120.302L260.692 120.401ZM260.311 117.695L258.735 117.168L258.259 118.59L259.835 119.118L260.311 117.695ZM255.583 116.113L254.006 115.586L253.531 117.008L255.107 117.536L255.583 116.113Z" fill="#575775"/>
</g>
<defs>
<clipPath id="clip0_1884_27732">
<rect width="200" height="200" fill="white" transform="translate(169.691 64) rotate(18.5)"/>
</clipPath>
</defs>
</svg>
