<svg width="12" height="16" viewBox="0 0 12 16" fill="none" xmlns="http://www.w3.org/2000/svg">
<path fill-rule="evenodd" clip-rule="evenodd" d="M3.49935 1.33325C3.49935 1.05711 3.72321 0.833252 3.99935 0.833252H7.99935C8.27549 0.833252 8.49935 1.05711 8.49935 1.33325C8.49935 1.60939 8.27549 1.83325 7.99935 1.83325H3.99935C3.72321 1.83325 3.49935 1.60939 3.49935 1.33325ZM0.166016 9.33325C0.166016 6.11159 2.77769 3.49992 5.99935 3.49992C9.22102 3.49992 11.8327 6.11159 11.8327 9.33325C11.8327 12.5549 9.22102 15.1666 5.99935 15.1666C2.77769 15.1666 0.166016 12.5549 0.166016 9.33325ZM5.99935 4.49992C3.32997 4.49992 1.16602 6.66387 1.16602 9.33325C1.16602 12.0026 3.32997 14.1666 5.99935 14.1666C8.66874 14.1666 10.8327 12.0026 10.8327 9.33325C10.8327 6.66387 8.66874 4.49992 5.99935 4.49992ZM5.99935 6.16659C6.27549 6.16659 6.49935 6.39044 6.49935 6.66659V9.33325C6.49935 9.60939 6.27549 9.83325 5.99935 9.83325C5.72321 9.83325 5.49935 9.60939 5.49935 9.33325V6.66659C5.49935 6.39044 5.72321 6.16659 5.99935 6.16659Z" fill="#575775"/>
</svg>
