<svg width="20" height="20" viewBox="0 0 20 20" fill="none" xmlns="http://www.w3.org/2000/svg">
<rect width="20" height="20" rx="4" fill="#F7F7FC"/>
<path fill-rule="evenodd" clip-rule="evenodd" d="M11.9517 3.33325C11.715 3.33325 11.5232 3.52377 11.5232 3.75878C11.5232 3.9938 11.715 4.18432 11.9517 4.18432H13.2002L10.9247 6.43552C11.1488 6.6128 11.3526 6.81434 11.532 7.03613C12.0075 7.62407 12.3122 8.35487 12.3702 9.15314C12.3722 9.18119 12.374 9.20932 12.3754 9.23752M12.3754 9.23752C12.374 9.20932 12.3722 9.18119 12.3702 9.15314C12.3122 8.35487 12.0075 7.62407 11.532 7.03613L13.8089 4.78351V6.02829C13.8089 6.2633 14.0008 6.45382 14.2374 6.45382C14.4741 6.45382 14.666 6.2633 14.666 6.02829V3.75878C14.666 3.75144 14.6658 3.74414 14.6655 3.73689C14.6629 3.68729 14.6518 3.63994 14.6336 3.59625C14.6125 3.54545 14.5817 3.4996 14.5435 3.46095L14.5379 3.45532C14.4993 3.4177 14.4537 3.38726 14.4031 3.36619C14.3521 3.34497 14.2961 3.33325 14.2374 3.33325H11.9517M8.95173 14.6808V13.239C8.94034 13.2402 8.92894 13.2414 8.91753 13.2426C8.78786 13.2556 8.6563 13.2623 8.52316 13.2623C8.3783 13.2623 8.2353 13.2544 8.09459 13.239V14.6808H7.3803C7.14361 14.6808 6.95173 14.8713 6.95173 15.1063C6.95173 15.3413 7.14361 15.5318 7.3803 15.5318H8.09459V16.2411C8.09459 16.4761 8.28646 16.6666 8.52316 16.6666C8.75985 16.6666 8.95173 16.4761 8.95173 16.2411V15.5318H9.66602C9.90271 15.5318 10.0946 15.3413 10.0946 15.1063C10.0946 14.8713 9.90271 14.6808 9.66602 14.6808H8.95173Z" fill="#575775"/>
<path fill-rule="evenodd" clip-rule="evenodd" d="M8.52316 5.60276C6.39292 5.60276 4.66602 7.31741 4.66602 9.43254C4.66602 11.4038 6.16604 13.0273 8.09459 13.239C8.2353 13.2544 8.3783 13.2623 8.52316 13.2623C8.6563 13.2623 8.78786 13.2556 8.91753 13.2426C8.92894 13.2414 8.94034 13.2402 8.95173 13.239C10.8803 13.0273 12.3803 11.4038 12.3803 9.43254C12.3803 9.36714 12.3786 9.30212 12.3754 9.23752C12.374 9.20932 12.3722 9.18119 12.3702 9.15314C12.3122 8.35487 12.0075 7.62407 11.532 7.03613C11.3526 6.81434 11.1488 6.6128 10.9247 6.43552C10.266 5.91454 9.43093 5.60276 8.52316 5.60276ZM11.5232 9.43254C11.5232 11.0776 10.18 12.4113 8.52316 12.4113C6.8663 12.4113 5.52316 11.0776 5.52316 9.43254C5.52316 7.78744 6.8663 6.45382 8.52316 6.45382C9.30109 6.45382 10.0099 6.74782 10.5429 7.23002C10.6924 7.36527 10.8281 7.51533 10.9477 7.67787C11.275 8.12288 11.4808 8.66102 11.5173 9.24493C11.5212 9.30697 11.5232 9.36953 11.5232 9.43254Z" fill="#575775"/>
</svg>
