<svg width="13" height="18" viewBox="0 0 13 18" fill="none" xmlns="http://www.w3.org/2000/svg">
<path fill-rule="evenodd" clip-rule="evenodd" d="M9.44113 0.666656C9.14526 0.666656 8.90541 0.904803 8.90541 1.19857C8.90541 1.49234 9.14526 1.73049 9.44113 1.73049H11.0017L8.15738 4.54449C8.43751 4.76609 8.69222 5.01801 8.91649 5.29526C9.51086 6.03019 9.89166 6.94367 9.96419 7.94152C9.96674 7.97657 9.96891 8.01174 9.97069 8.047M9.97069 8.047C9.96891 8.01174 9.96674 7.97657 9.96419 7.94152C9.89166 6.94367 9.51086 6.03019 8.91649 5.29526L11.7626 2.47948V4.03545C11.7626 4.32922 12.0024 4.56737 12.2983 4.56737C12.5941 4.56737 12.834 4.32922 12.834 4.03545V1.19857C12.834 1.18939 12.8337 1.18027 12.8333 1.1712C12.8301 1.10921 12.8163 1.05001 12.7935 0.995403C12.7671 0.931901 12.7286 0.874593 12.6809 0.826279L12.6738 0.819243C12.6256 0.772215 12.5685 0.734164 12.5053 0.707824C12.4416 0.681307 12.3716 0.666656 12.2982 0.666656H9.44113M5.69113 14.8511V13.0488C5.67689 13.0503 5.66264 13.0519 5.64838 13.0533C5.48629 13.0696 5.32184 13.078 5.15541 13.078C4.97434 13.078 4.79559 13.0681 4.6197 13.0488V14.8511H3.72684C3.43097 14.8511 3.19113 15.0892 3.19113 15.383C3.19113 15.6767 3.43097 15.9149 3.72684 15.9149H4.6197V16.8014C4.6197 17.0952 4.85955 17.3333 5.15541 17.3333C5.45128 17.3333 5.69113 17.0952 5.69113 16.8014V15.9149H6.58398C6.87985 15.9149 7.1197 15.6767 7.1197 15.383C7.1197 15.0892 6.87985 14.8511 6.58398 14.8511H5.69113Z" fill="#262541"/>
<path fill-rule="evenodd" clip-rule="evenodd" d="M5.15541 3.50354C2.49261 3.50354 0.333984 5.64685 0.333984 8.29077C0.333984 10.7549 2.20901 12.7842 4.6197 13.0488C4.79559 13.0681 4.97434 13.078 5.15541 13.078C5.32184 13.078 5.48629 13.0696 5.64838 13.0533C5.66264 13.0519 5.67689 13.0503 5.69113 13.0488C8.10181 12.7842 9.97684 10.7549 9.97684 8.29077C9.97684 8.20902 9.97478 8.12775 9.97069 8.047C9.96891 8.01174 9.96674 7.97657 9.96419 7.94152C9.89166 6.94367 9.51086 6.03019 8.91649 5.29526C8.69222 5.01801 8.43751 4.76609 8.15738 4.54449C7.33397 3.89326 6.29013 3.50354 5.15541 3.50354ZM8.90541 8.29077C8.90541 10.3471 7.22647 12.0142 5.15541 12.0142C3.08434 12.0142 1.40541 10.3471 1.40541 8.29077C1.40541 6.23439 3.08434 4.56737 5.15541 4.56737C6.12783 4.56737 7.01379 4.93487 7.68012 5.53762C7.86702 5.70668 8.03664 5.89426 8.18604 6.09743C8.59518 6.65369 8.85246 7.32637 8.8981 8.05626C8.90295 8.1338 8.90541 8.212 8.90541 8.29077Z" fill="#262541"/>
</svg>
