<svg width="18" height="18" viewBox="0 0 18 18" fill="none" xmlns="http://www.w3.org/2000/svg">
<path fill-rule="evenodd" clip-rule="evenodd" d="M11.6052 0.601599C11.7797 0.594447 11.9493 0.660636 12.0728 0.784133L16.9478 5.65913C17.0713 5.78263 17.1375 5.95217 17.1303 6.12668C17.1232 6.30119 17.0433 6.46474 16.9101 6.57771L13.3201 9.62271C13.0569 9.84599 12.6625 9.81359 12.4392 9.55035C12.2159 9.28711 12.2483 8.89271 12.5116 8.66944L15.5842 6.06328L11.6686 2.14774L9.04746 5.23787C8.82418 5.5011 8.42978 5.53349 8.16654 5.3102C7.90331 5.08692 7.87092 4.69252 8.09421 4.42928L11.1542 0.821784C11.2672 0.688594 11.4307 0.608752 11.6052 0.601599ZM1.05806 1.0583C1.30214 0.814222 1.69786 0.814222 1.94194 1.0583L16.9419 16.0583C17.186 16.3024 17.186 16.6981 16.9419 16.9422C16.6979 17.1863 16.3021 17.1863 16.0581 16.9422L12.6961 13.5802C12.692 13.5845 12.6878 13.5888 12.6836 13.593L11.2694 15.0072C11.0254 15.2513 10.6296 15.2513 10.3856 15.0072L7.13125 11.7529L1.94194 16.9422C1.69786 17.1863 1.30214 17.1863 1.05806 16.9422C0.813981 16.6981 0.813981 16.3024 1.05806 16.0583L6.24737 10.869L2.72472 7.34635C2.60751 7.22914 2.54167 7.07017 2.54167 6.90441C2.54167 6.73865 2.60751 6.57968 2.72473 6.46247L4.13889 5.0483C4.14311 5.04408 4.14739 5.03992 4.15171 5.03584L1.05806 1.94218C0.813981 1.69811 0.813981 1.30238 1.05806 1.0583ZM5.31052 6.19465L4.81223 6.14273L4.05055 6.90441L10.8275 13.6814L11.5892 12.9196L11.5374 12.4216L5.31052 6.19465Z" fill="#575775"/>
</svg>
