<svg width="17" height="18" viewBox="0 0 17 18" fill="none" xmlns="http://www.w3.org/2000/svg">
<path fill-rule="evenodd" clip-rule="evenodd" d="M1.038 0.371131C1.24898 0.160153 1.53513 0.041626 1.8335 0.041626H11.5435C11.8418 0.0418888 12.1283 0.160588 12.339 0.371626L14.9618 2.99441C15.0665 3.09899 15.1496 3.22322 15.2062 3.35997C15.2629 3.49671 15.2919 3.64329 15.2918 3.79128V9.83329C15.2918 10.1785 15.012 10.4583 14.6668 10.4583C14.3217 10.4583 14.0418 10.1785 14.0418 9.83329V3.84218L14.0782 3.87857C14.0667 3.86701 14.0576 3.85331 14.0513 3.83823C14.0451 3.82318 14.0419 3.80707 14.0418 3.79079V3.84218L11.4913 1.29163C11.4583 1.2916 1.038 0.371131 1.038 0.371131ZM1.9585 1.29163H11.4913L1.038 0.371131M1.9585 1.29163V16.7083H9.66683C10.012 16.7083 10.2918 16.9881 10.2918 17.3333C10.2918 17.6785 10.012 17.9583 9.66683 17.9583H1.8335C1.53513 17.9583 1.24898 17.8398 1.038 17.6288C0.827022 17.4178 0.708496 17.1317 0.708496 16.8333V1.16663C0.708496 0.868257 0.827023 0.582109 1.038 0.371131" fill="#575775"/>
<path fill-rule="evenodd" clip-rule="evenodd" d="M11.3335 0.041626C11.6787 0.041626 11.9585 0.321448 11.9585 0.666626V3.37496H14.6668C15.012 3.37496 15.2918 3.65478 15.2918 3.99996C15.2918 4.34514 15.012 4.62496 14.6668 4.62496H11.8335C11.5351 4.62496 11.249 4.50643 11.038 4.29545C10.827 4.08448 10.7085 3.79833 10.7085 3.49996V0.666626C10.7085 0.321448 10.9883 0.041626 11.3335 0.041626ZM13.3916 11.8914C13.6356 11.6473 14.0314 11.6473 14.2754 11.8914L16.7754 14.3914C17.0195 14.6354 17.0195 15.0312 16.7754 15.2752L14.2754 17.7752C14.0314 18.0193 13.6356 18.0193 13.3916 17.7752C13.1475 17.5312 13.1475 17.1354 13.3916 16.8914L14.8246 15.4583H11.3335C10.9883 15.4583 10.7085 15.1785 10.7085 14.8333C10.7085 14.4881 10.9883 14.2083 11.3335 14.2083H14.8246L13.3916 12.7752C13.1475 12.5312 13.1475 12.1354 13.3916 11.8914Z" fill="#575775"/>
</svg>
