<svg width="12" height="12" viewBox="0 0 12 12" fill="none" xmlns="http://www.w3.org/2000/svg">
<path fill-rule="evenodd" clip-rule="evenodd" d="M5.99967 0.166656C4.25077 0.166656 2.83301 1.58442 2.83301 3.33332C2.83301 4.36685 3.32815 5.28475 4.09416 5.86273C2.18376 6.62115 0.833008 8.48616 0.833008 10.6667V11.3333C0.833008 11.6095 1.05687 11.8333 1.33301 11.8333C1.60915 11.8333 1.83301 11.6095 1.83301 11.3333V10.6667C1.83301 8.36547 3.69849 6.49999 5.99967 6.49999C8.30087 6.49999 10.1663 8.36547 10.1663 10.6667V11.3333C10.1663 11.6095 10.3902 11.8333 10.6663 11.8333C10.9425 11.8333 11.1663 11.6095 11.1663 11.3333V10.6667C11.1663 8.48615 9.81559 6.62114 7.90518 5.86273C8.67119 5.28474 9.16634 4.36685 9.16634 3.33332C9.16634 1.58442 7.74855 0.166656 5.99967 0.166656ZM5.99967 5.49999C6.67265 5.49999 7.31557 5.62866 7.90518 5.86273C7.37499 6.26278 6.71503 6.49999 5.99967 6.49999C5.28431 6.49999 4.62435 6.26278 4.09416 5.86273C4.68378 5.62866 5.3267 5.49999 5.99967 5.49999ZM5.99967 5.49999C4.80306 5.49999 3.83301 4.52992 3.83301 3.33332C3.83301 2.13671 4.80306 1.16666 5.99967 1.16666C7.19627 1.16666 8.16634 2.13671 8.16634 3.33332C8.16634 4.52991 7.19627 5.49999 5.99967 5.49999Z" fill="#262541"/>
<path d="M7.90518 5.86273C7.31557 5.62866 6.67265 5.49999 5.99967 5.49999C5.3267 5.49999 4.68378 5.62866 4.09416 5.86273C4.62435 6.26278 5.28431 6.49999 5.99967 6.49999C6.71503 6.49999 7.37499 6.26278 7.90518 5.86273Z" fill="#262541"/>
</svg>
