<svg width="18" height="17" viewBox="0 0 18 17" fill="none" xmlns="http://www.w3.org/2000/svg">
<path fill-rule="evenodd" clip-rule="evenodd" d="M9.00933 5.66699C9.36348 5.66699 9.65058 5.97025 9.65058 6.34433V10.7922C9.65058 11.1663 9.36348 11.4696 9.00933 11.4696C8.65517 11.4696 8.36807 11.1663 8.36807 10.7922V6.34433C8.36807 5.97025 8.65517 5.66699 9.00933 5.66699ZM9.00933 12.5242C9.36348 12.5242 9.65058 12.8275 9.65058 13.2016V13.2106C9.65058 13.5847 9.36348 13.888 9.00933 13.888C8.65517 13.888 8.36807 13.5847 8.36807 13.2106V13.2016C8.36807 12.8275 8.65517 12.5242 9.00933 12.5242Z" fill="#262541"/>
<path fill-rule="evenodd" clip-rule="evenodd" d="M7.80662 1.01114C8.16843 0.785828 8.58077 0.666992 9.00078 0.666992C9.42079 0.666992 9.83313 0.785827 10.1949 1.01114C10.5548 1.23522 10.8515 1.55649 11.0548 1.94184L17.1224 12.9997C17.1375 13.0273 17.1508 13.0559 17.1621 13.0854C17.3059 13.461 17.3606 13.8681 17.3213 14.2712C17.282 14.6743 17.1499 15.0611 16.9366 15.3979C16.7232 15.7347 16.4351 16.0112 16.0974 16.2033C15.7596 16.3955 15.3825 16.4975 14.9989 16.5003L14.9944 16.5003H3.02427C3.00855 16.5003 2.99295 16.4997 2.97751 16.4985C2.95112 16.5006 2.92432 16.5009 2.8972 16.4994C2.52264 16.479 2.15813 16.3643 1.83411 16.1647C1.51008 15.9652 1.23595 15.6867 1.03459 15.3525C0.833226 15.0183 0.710483 14.638 0.676604 14.2435C0.642726 13.8489 0.698696 13.4515 0.839841 13.0845C0.851063 13.0553 0.864199 13.027 0.879152 12.9997L6.94676 1.94186C7.15001 1.5565 7.44679 1.23523 7.80662 1.01114ZM2.97707 15.1474C2.99266 15.1462 3.0084 15.1456 3.02427 15.1456H14.9918C15.1655 15.144 15.3363 15.0977 15.4892 15.0107C15.6427 14.9233 15.7737 14.7976 15.8707 14.6445C15.9676 14.4915 16.0277 14.3156 16.0455 14.1324C16.062 13.9632 16.0421 13.7924 15.9874 13.6328L9.94224 2.61579L9.93594 2.60405C9.84352 2.4276 9.70803 2.28052 9.54358 2.17811C9.37912 2.07569 9.19169 2.02168 9.00078 2.02168C8.80987 2.02168 8.62244 2.07569 8.45798 2.17811C8.29352 2.28052 8.15804 2.4276 8.06561 2.60405L8.05932 2.61579L2.01386 13.6333C1.96022 13.7891 1.93967 13.9556 1.95387 14.1211C1.96927 14.3004 2.02507 14.4733 2.11659 14.6252C2.20812 14.7771 2.33273 14.9037 2.48001 14.9944C2.62729 15.0851 2.79298 15.1373 2.96324 15.1465C2.96786 15.1468 2.97247 15.1471 2.97707 15.1474Z" fill="#262541"/>
</svg>
