<svg width="112" height="112" viewBox="0 0 112 112" fill="none" xmlns="http://www.w3.org/2000/svg">
<path fill-rule="evenodd" clip-rule="evenodd" d="M36.9679 56.7611C36.7343 46.0629 45.2172 37.2014 55.9154 36.9679C66.6136 36.7343 75.4751 45.2172 75.7086 55.9154C75.9422 66.6136 67.4593 75.4751 56.7611 75.7086C46.0629 75.9422 37.2014 67.4593 36.9679 56.7611ZM56.0845 44.716C49.6655 44.8561 44.5759 50.1729 44.716 56.592C44.8561 63.011 50.1729 68.1006 56.592 67.9605C63.011 67.8204 68.1006 62.5036 67.9605 56.0845C67.8204 49.6655 62.5036 44.5759 56.0845 44.716Z" fill="#262541"/>
<path fill-rule="evenodd" clip-rule="evenodd" d="M46.179 3.89461C46.5898 2.18292 48.1026 0.963131 49.8625 0.924713L59.9573 0.704348C61.7178 0.665917 63.2829 1.81937 63.7674 3.51235L66.7194 13.8284L76.8179 17.726L83.8476 11.448C85.3562 10.1007 87.6473 10.1404 89.1084 11.539L99.6648 21.6444C101.12 23.0376 101.265 25.3138 99.9981 26.8804L94.0591 34.2234L98.2952 43.8523L108.753 46.2698C110.479 46.669 111.715 48.1889 111.754 49.9608L111.976 60.174C112.015 61.9378 110.857 63.5049 109.16 63.9863L98.7604 66.9358L94.9434 76.7537L101.239 83.8591C102.576 85.3686 102.532 87.6515 101.137 89.1084L91.0321 99.6648C89.6088 101.152 87.2713 101.266 85.7093 99.9257L85.4169 99.6756C85.2273 99.5136 84.9532 99.2799 84.6167 98.9944C83.9433 98.4227 83.0227 97.6453 82.032 96.8202C80.8105 95.8028 79.5579 94.7769 78.539 93.9731L68.8248 98.2468L66.4075 108.749C66.0097 110.477 64.4891 111.715 62.7158 111.754L52.385 111.979C50.6107 112.018 49.037 110.847 48.565 109.136L45.7 98.7518L36.0919 95.0423L28.7607 101.288C27.2474 102.577 25.0041 102.512 23.5681 101.137L13.0117 91.0321C11.5281 89.6119 11.4103 87.2807 12.7432 85.7181L18.792 78.6272L14.5061 69.0495L3.85796 66.3909C2.16292 65.9676 0.960705 64.4625 0.922576 62.7158L0.697058 52.385C0.657756 50.5846 1.86395 48.9944 3.6083 48.5469L13.8581 45.9177L17.6095 36.085L11.3848 28.7562C10.0993 27.2428 10.1659 25.0025 11.539 23.5681L21.6444 13.0117C23.0635 11.5293 25.3923 11.4103 26.9551 12.7404L34.0678 18.7939L43.6307 14.5147L46.179 3.89461ZM53.0181 8.60767L50.7218 18.1771C50.4413 19.3462 49.634 20.3189 48.5365 20.8099L35.0013 26.8667C33.6377 27.4769 32.0447 27.2489 30.907 26.2807L24.7154 21.0111L19.554 26.4028L25.0007 32.8155C25.9161 33.8933 26.1717 35.3841 25.6677 36.7053L20.3842 50.554C19.9358 51.7292 18.9449 52.6137 17.7265 52.9263L8.51232 55.2899L8.60615 59.5885L18.212 61.9869C19.3664 62.2751 20.3244 63.0777 20.8104 64.1637L26.8661 77.6965C27.477 79.0615 27.2478 80.6563 26.2772 81.7941L21.0141 87.964L26.399 93.1188L32.8223 87.6466C33.9045 86.7247 35.4047 86.4694 36.7309 86.9814L50.3121 92.2249C51.4574 92.6671 52.3253 93.6258 52.6519 94.8093L55.2332 104.165L59.5315 104.072L61.7084 94.6136C61.9828 93.4213 62.8043 92.4286 63.9242 91.9359L77.492 85.9669C78.7162 85.4283 80.1316 85.5591 81.2364 86.313C82.5813 87.2306 85.0324 89.2333 86.9916 90.8649C87.3231 91.141 87.6465 91.4115 87.9558 91.671L93.0712 86.3272L87.5745 80.1232C86.6116 79.0365 86.3371 77.5027 86.8632 76.1494L92.2359 62.3299C92.676 61.1978 93.6216 60.3376 94.7902 60.0061L104.163 57.3478L104.071 53.142L94.6575 50.9657C93.4667 50.6904 92.4756 49.8695 91.9834 48.7507L86.0144 35.183C85.4305 33.8556 85.6365 32.3133 86.5485 31.1858L91.7309 24.7781L86.3375 19.6151L80.2136 25.0842C79.1291 26.0527 77.5937 26.3326 76.2372 25.8091L62.1293 20.3641C60.996 19.9266 60.1333 18.983 59.7991 17.815L57.1386 8.51773L53.0181 8.60767Z" fill="#262541"/>
</svg>
