<svg width="18" height="14" viewBox="0 0 18 14" fill="none" xmlns="http://www.w3.org/2000/svg">
<path fill-rule="evenodd" clip-rule="evenodd" d="M4.32066 4.14142C4.51861 3.85864 4.90832 3.78987 5.1911 3.98782L8.99935 6.65359L12.8076 3.98782C13.0904 3.78987 13.4801 3.85864 13.678 4.14142C13.876 4.4242 13.8072 4.81391 13.5244 5.01186L9.35776 7.92852C9.14256 8.07916 8.85614 8.07916 8.64094 7.92852L4.47427 5.01186C4.19149 4.81391 4.12272 4.4242 4.32066 4.14142Z" fill="white"/>
<path fill-rule="evenodd" clip-rule="evenodd" d="M2.33268 1.7915C1.75739 1.7915 1.29102 2.25787 1.29102 2.83317V11.1665C1.29102 11.7418 1.75738 12.2082 2.33268 12.2082H15.666C16.2413 12.2082 16.7077 11.7418 16.7077 11.1665V2.83317C16.7077 2.25787 16.2413 1.7915 15.666 1.7915H2.33268ZM0.0410156 2.83317C0.0410156 1.56752 1.06703 0.541504 2.33268 0.541504H15.666C16.9317 0.541504 17.9577 1.56752 17.9577 2.83317V11.1665C17.9577 12.4322 16.9317 13.4582 15.666 13.4582H2.33268C1.06704 13.4582 0.0410156 12.4322 0.0410156 11.1665V2.83317Z" fill="white"/>
</svg>
