<svg width="18" height="18" viewBox="0 0 18 18" fill="none" xmlns="http://www.w3.org/2000/svg">
<path fill-rule="evenodd" clip-rule="evenodd" d="M2.16844 2.61236L2.21363 2.95127C2.39156 3.0743 2.62294 3.19845 2.91203 3.31837C3.36747 3.50729 3.92999 3.67094 4.57404 3.80452C5.86207 4.07166 7.42525 4.20816 9.00069 4.20815C10.5761 4.20815 12.1393 4.07166 13.4273 3.80451C14.0714 3.67093 14.6339 3.50728 15.0893 3.31836C15.3784 3.19845 15.6098 3.0743 15.7877 2.95128L15.8329 2.61234C15.2286 2.22542 13.3242 1.2915 9.00068 1.2915C4.67708 1.2915 2.77267 2.22546 2.16844 2.61236ZM15.5858 4.46567C15.58 4.46811 15.5741 4.47054 15.5683 4.47296C15.0193 4.7007 14.3764 4.88427 13.6812 5.02846C12.2907 5.31687 10.6395 5.45815 9.00069 5.45815C7.36184 5.45816 5.71073 5.31688 4.32018 5.02847C3.62495 4.88428 2.9821 4.70071 2.43308 4.47297C2.42723 4.47054 2.42139 4.46811 2.41555 4.46567L3.56885 13.1154L2.95017 13.1979L3.56885 13.1154C3.68048 13.9527 4.17634 14.6899 4.9097 15.1089L4.90972 15.1089L5.17629 15.2613C7.54604 16.6155 10.4553 16.6155 12.8251 15.2613L13.1352 15.8039L12.8251 15.2613L13.0917 15.1089L13.4018 15.6516L13.0917 15.1089C13.825 14.6899 14.3209 13.9527 14.4325 13.1154L14.4325 13.1154L15.5858 4.46567ZM1.33095 1.66986C2.04055 1.16463 4.1653 0.0415039 9.00068 0.0415039C13.8361 0.0415039 15.9608 1.16462 16.6704 1.66986L16.6705 1.6699C17.0173 1.91689 17.1333 2.31748 17.0875 2.66069L15.6715 13.2806C15.6715 13.2806 15.6715 13.2806 15.6715 13.2806C15.5084 14.5043 14.7836 15.5818 13.7118 16.1942L13.4453 16.3466C10.6912 17.9204 7.31015 17.9204 4.55609 16.3466L4.86271 15.81L4.55608 16.3466L4.28955 16.1942C4.28954 16.1942 4.28953 16.1942 4.28952 16.1942C3.21768 15.5818 2.49296 14.5043 2.32981 13.2806L2.94933 13.198L2.32981 13.2806L0.91382 2.66069C0.91382 2.66069 0.91382 2.66069 0.91382 2.66069C0.868052 2.31744 0.984081 1.91684 1.33095 1.66987L1.33095 1.66986ZM5.86917 9.83317C5.86917 9.48799 6.14899 9.20817 6.49417 9.20817H11.4942C11.8394 9.20817 12.1192 9.48799 12.1192 9.83317C12.1192 10.1783 11.8394 10.4582 11.4942 10.4582H6.49417C6.14899 10.4582 5.86917 10.1783 5.86917 9.83317Z" fill="white"/>
</svg>
