<svg width="22" height="22" viewBox="0 0 22 22" fill="none" xmlns="http://www.w3.org/2000/svg">
<path fill-rule="evenodd" clip-rule="evenodd" d="M0.25 11C0.25 5.06294 5.06294 0.25 11 0.25C16.937 0.25 21.75 5.06293 21.75 11C21.75 16.937 16.937 21.75 11 21.75C5.06293 21.75 0.25 16.937 0.25 11ZM11 1.75C5.89136 1.75 1.75 5.89136 1.75 11C1.75 16.1086 5.89137 20.25 11 20.25C16.1086 20.25 20.25 16.1086 20.25 11C20.25 5.89137 16.1086 1.75 11 1.75ZM11.5118 5.94144C11.8196 6.21855 11.8446 6.69277 11.5674 7.00064L11.5574 7.01175C11.2803 7.31962 10.8061 7.34456 10.4983 7.06745C10.1904 6.79034 10.1654 6.31612 10.4426 6.00825L10.4526 5.99714C10.7297 5.68927 11.2039 5.66433 11.5118 5.94144ZM11 9.75C11.4142 9.75 11.75 10.0858 11.75 10.5V15.5C11.75 15.9142 11.4142 16.25 11 16.25C10.5858 16.25 10.25 15.9142 10.25 15.5V10.5C10.25 10.0858 10.5858 9.75 11 9.75Z" fill="white"/>
</svg>
