<svg width="18" height="18" viewBox="0 0 18 18" fill="none" xmlns="http://www.w3.org/2000/svg">
<path fill-rule="evenodd" clip-rule="evenodd" d="M0.229946 2.46585C0.0259202 1.11816 1.10691 0.041748 2.38712 0.041748H5.51295C5.77328 0.041748 6.00635 0.203119 6.09797 0.446799L7.31047 3.6718C7.3506 3.77853 7.36076 3.89421 7.33986 4.0063L6.73209 7.26618C7.47906 9.02292 8.71271 10.2035 10.7593 11.2623L13.9799 10.6382C14.0942 10.616 14.2125 10.6262 14.3213 10.6677L17.5563 11.9002C17.7986 11.9925 17.9588 12.2249 17.9588 12.4842V15.4709C17.9588 16.8264 16.7654 17.9248 15.3695 17.6217C12.8252 17.0674 8.11002 15.6602 4.80851 12.3587C1.64646 9.19665 0.586371 4.82729 0.229946 2.46585ZM2.38712 1.29175C1.78745 1.29175 1.38852 1.76846 1.46589 2.27892C1.80952 4.5559 2.81627 8.59869 5.69239 11.4748C8.73255 14.515 13.1527 15.8595 15.6351 16.4002C16.1807 16.5185 16.7088 16.1036 16.7088 15.4709V12.915L14.0428 11.8992L10.786 12.5303C10.6505 12.5566 10.5102 12.5373 10.3868 12.4754C7.9746 11.2649 6.40908 9.82951 5.50348 7.56553C5.45949 7.45554 5.44766 7.33532 5.46937 7.21886L6.07909 3.94855L5.08022 1.29175H2.38712ZM14.3918 0.224806C14.6359 -0.0192714 15.0316 -0.0192714 15.2757 0.224806L17.7757 2.72481C18.0198 2.96888 18.0198 3.36461 17.7757 3.60869L15.2757 6.10869C15.0316 6.35277 14.6359 6.35277 14.3918 6.10869C14.1478 5.86461 14.1478 5.46888 14.3918 5.22481L15.8249 3.79175H12.3338C11.9886 3.79175 11.7088 3.51193 11.7088 3.16675C11.7088 2.82157 11.9886 2.54175 12.3338 2.54175H15.8249L14.3918 1.10869C14.1478 0.864612 14.1478 0.468884 14.3918 0.224806Z" fill="white"/>
</svg>
