<svg width="18" height="17" viewBox="0 0 18 17" fill="none" xmlns="http://www.w3.org/2000/svg">
<path fill-rule="evenodd" clip-rule="evenodd" d="M9.00884 5.66669C9.363 5.66669 9.6501 5.96994 9.6501 6.34403V10.7919C9.6501 11.166 9.363 11.4693 9.00884 11.4693C8.65468 11.4693 8.36758 11.166 8.36758 10.7919V6.34403C8.36758 5.96994 8.65468 5.66669 9.00884 5.66669ZM9.00884 12.5239C9.363 12.5239 9.6501 12.8272 9.6501 13.2013V13.2103C9.6501 13.5844 9.363 13.8876 9.00884 13.8876C8.65468 13.8876 8.36758 13.5844 8.36758 13.2103V13.2013C8.36758 12.8272 8.65468 12.5239 9.00884 12.5239Z" fill="white"/>
<path fill-rule="evenodd" clip-rule="evenodd" d="M7.80614 1.01084C8.16794 0.785522 8.58028 0.666687 9.00029 0.666687C9.4203 0.666687 9.83264 0.785522 10.1944 1.01084C10.5543 1.23492 10.851 1.55618 11.0543 1.94153L17.1219 12.9994C17.137 13.0269 17.1503 13.0556 17.1616 13.0851C17.3054 13.4607 17.3601 13.8678 17.3208 14.2709C17.2815 14.674 17.1494 15.0608 16.9361 15.3976C16.7228 15.7344 16.4346 16.0109 16.0969 16.203C15.7591 16.3952 15.382 16.4971 14.9984 16.5L14.9939 16.5H3.02378C3.00806 16.5 2.99247 16.4994 2.97702 16.4982C2.95063 16.5003 2.92383 16.5006 2.89672 16.4991C2.52215 16.4787 2.15765 16.364 1.83362 16.1644C1.5096 15.9649 1.23546 15.6864 1.0341 15.3522C0.832738 15.018 0.709994 14.6377 0.676116 14.2432C0.642238 13.8486 0.698208 13.4512 0.839353 13.0842C0.850575 13.055 0.863711 13.0267 0.878664 12.9994L6.94627 1.94155C7.14952 1.55619 7.44631 1.23492 7.80614 1.01084ZM2.97658 15.1471C2.99217 15.1459 3.00791 15.1453 3.02378 15.1453H14.9914C15.1651 15.1437 15.3358 15.0974 15.4887 15.0104C15.6422 14.923 15.7732 14.7973 15.8702 14.6442C15.9671 14.4912 16.0272 14.3153 16.045 14.1321C16.0615 13.9629 16.0416 13.7921 15.987 13.6325L9.94175 2.61548L9.93545 2.60375C9.84303 2.4273 9.70755 2.28022 9.54309 2.1778C9.37863 2.07539 9.1912 2.02137 9.00029 2.02137C8.80938 2.02137 8.62195 2.07539 8.45749 2.1778C8.29303 2.28022 8.15755 2.4273 8.06513 2.60375L8.05883 2.61548L2.01337 13.633C1.95973 13.7888 1.93918 13.9553 1.95339 14.1208C1.96878 14.3001 2.02458 14.473 2.1161 14.6249C2.20763 14.7768 2.33224 14.9034 2.47952 14.9941C2.6268 15.0848 2.79249 15.1369 2.96275 15.1462C2.96737 15.1465 2.97199 15.1468 2.97658 15.1471Z" fill="white"/>
</svg>
