<svg width="36" height="36" viewBox="0 0 36 36" fill="none" xmlns="http://www.w3.org/2000/svg">
<path fill-rule="evenodd" clip-rule="evenodd" d="M21.3977 13.8523C21.6174 14.0719 21.6174 14.4281 21.3977 14.6477L18.3977 17.6477C18.1781 17.8674 17.8219 17.8674 17.6023 17.6477C17.3826 17.4281 17.3826 17.0719 17.6023 16.8523L20.6023 13.8523C20.8219 13.6326 21.1781 13.6326 21.3977 13.8523ZM25.8977 13.8523C26.1174 14.0719 26.1174 14.4281 25.8977 14.6477L18.716 21.8295C18.3205 22.225 17.6795 22.225 17.284 21.8295L15.75 20.2955L14.216 21.8294C14.216 21.8295 14.216 21.8295 14.2159 21.8295C13.8205 22.225 13.1794 22.225 12.784 21.8294L9.72725 18.7727C9.50758 18.5531 9.50758 18.1969 9.72725 17.9773C9.94692 17.7576 10.3031 17.7576 10.5227 17.9773L13.5 20.9545L14.9545 19.5L13.8523 18.3977C13.6326 18.1781 13.6326 17.8219 13.8523 17.6023C14.0719 17.3826 14.4281 17.3826 14.6477 17.6023L16.1472 19.1017C16.1474 19.1019 16.1476 19.1021 16.1478 19.1023C16.1479 19.1024 16.1481 19.1026 16.1483 19.1028L18 20.9545L25.1023 13.8523C25.3219 13.6326 25.6781 13.6326 25.8977 13.8523ZM13.5794 21.0339L13.5796 21.034L13.5796 21.0341C13.5796 21.034 13.5795 21.034 13.5794 21.0339Z" fill="#575775"/>
<rect x="0.5" y="0.5" width="35" height="35" rx="5.5" stroke="#DFDEED"/>
</svg>
