<svg width="18" height="18" viewBox="0 0 18 18" fill="none" xmlns="http://www.w3.org/2000/svg">
<path fill-rule="evenodd" clip-rule="evenodd" d="M2.85086 3.25127L2.89153 3.55629C3.05167 3.66701 3.25992 3.77875 3.52009 3.88667C3.92999 4.05671 4.43625 4.20399 5.0159 4.32421C6.17513 4.56464 7.58199 4.68749 8.99989 4.68748C10.4178 4.68748 11.8246 4.56464 12.9839 4.32421C13.5635 4.20398 14.0698 4.0567 14.4797 3.88667C14.7398 3.77875 14.9481 3.66701 15.1082 3.5563L15.1489 3.25125C14.605 2.90303 12.891 2.0625 8.99988 2.0625C5.10864 2.0625 3.39467 2.90306 2.85086 3.25127ZM14.9265 4.91925C14.9212 4.92144 14.916 4.92363 14.9107 4.92581C14.4166 5.13078 13.838 5.29599 13.2123 5.42576C11.9609 5.68533 10.4748 5.81248 8.99989 5.81248C7.52492 5.81249 6.03892 5.68534 4.78743 5.42577C4.16172 5.296 3.58316 5.13078 3.08904 4.92582C3.08378 4.92364 3.07851 4.92144 3.07326 4.91925L4.11123 12.704L3.55442 12.7782L4.11123 12.704C4.2117 13.4576 4.65797 14.121 5.31799 14.4982L5.31802 14.4982L5.55793 14.6353C7.6907 15.8541 10.3091 15.8541 12.4418 14.6353L12.7209 15.1237L12.4418 14.6353L12.6818 14.4982L12.9609 14.9866L12.6818 14.4982C13.3418 14.121 13.7881 13.4576 13.8885 12.704L13.8885 12.704L14.9265 4.91925ZM2.09712 2.40302C2.73576 1.94831 4.64804 0.9375 8.99988 0.9375C13.3517 0.9375 15.264 1.9483 15.9026 2.40302L15.9027 2.40306C16.2148 2.62535 16.3192 2.98588 16.278 3.29477L15.0036 12.8527C15.0036 12.8527 15.0036 12.8527 15.0036 12.8527C14.8569 13.9541 14.2045 14.9238 13.2399 15.475L13 15.6121C10.5214 17.0285 7.4784 17.0285 4.99975 15.6121L5.27571 15.1291L4.99974 15.6121L4.75986 15.475C4.75985 15.475 4.75984 15.475 4.75983 15.475C3.79518 14.9237 3.14293 13.954 2.9961 12.8527L3.55366 12.7783L2.9961 12.8527L1.72171 3.29477C1.72171 3.29477 1.72171 3.29477 1.72171 3.29477C1.68051 2.98584 1.78494 2.6253 2.09712 2.40303L2.09712 2.40302ZM6.18152 9.75C6.18152 9.43934 6.43336 9.1875 6.74402 9.1875H11.244C11.5547 9.1875 11.8065 9.43934 11.8065 9.75C11.8065 10.0607 11.5547 10.3125 11.244 10.3125H6.74402C6.43336 10.3125 6.18152 10.0607 6.18152 9.75Z" fill="#575775"/>
</svg>
