<svg width="36" height="36" viewBox="0 0 36 36" fill="none" xmlns="http://www.w3.org/2000/svg">
<path fill-rule="evenodd" clip-rule="evenodd" d="M11.8509 12.2513L11.8915 12.5563C12.0517 12.667 12.2599 12.7788 12.5201 12.8867C12.93 13.0567 13.4363 13.204 14.0159 13.3242C15.1751 13.5646 16.582 13.6875 17.9999 13.6875C19.4178 13.6875 20.8246 13.5646 21.9839 13.3242C22.5635 13.204 23.0698 13.0567 23.4797 12.8867C23.7398 12.7787 23.9481 12.667 24.1082 12.5563L24.1489 12.2513C23.605 11.903 21.891 11.0625 17.9999 11.0625C14.1086 11.0625 12.3947 11.9031 11.8509 12.2513ZM23.9265 13.9192C23.9212 13.9214 23.916 13.9236 23.9107 13.9258C23.4166 14.1308 22.838 14.296 22.2123 14.4258C20.9609 14.6853 19.4748 14.8125 17.9999 14.8125C16.5249 14.8125 15.0389 14.6853 13.7874 14.4258C13.1617 14.296 12.5832 14.1308 12.089 13.9258C12.0838 13.9236 12.0785 13.9214 12.0733 13.9192L13.1112 21.704L12.5544 21.7782L13.1112 21.704C13.2117 22.4576 13.658 23.121 14.318 23.4982L14.318 23.4982L14.5579 23.6353C16.6907 24.8541 19.3091 24.8541 21.4418 23.6353L21.7209 24.1237L21.4418 23.6353L21.6818 23.4982L21.9609 23.9866L21.6818 23.4982C22.3418 23.121 22.7881 22.4576 22.8885 21.704L22.8885 21.704L23.9265 13.9192ZM11.0971 11.403C11.7358 10.9483 13.648 9.9375 17.9999 9.9375C22.3517 9.9375 24.264 10.9483 24.9026 11.403L24.9027 11.4031C25.2148 11.6253 25.3192 11.9859 25.278 12.2948L24.0036 21.8527C24.0036 21.8527 24.0036 21.8527 24.0036 21.8527C23.8569 22.9541 23.2045 23.9238 22.2399 24.475L22 24.6121C19.5214 26.0285 16.4784 26.0285 13.9997 24.6121L14.2757 24.1291L13.9997 24.6121L13.7599 24.475C13.7599 24.475 13.7598 24.475 13.7598 24.475C12.7952 23.9237 12.1429 22.954 11.9961 21.8527L12.5537 21.7783L11.9961 21.8527L10.7217 12.2948C10.7217 12.2948 10.7217 12.2948 10.7217 12.2948C10.6805 11.9858 10.7849 11.6253 11.0971 11.403L11.0971 11.403ZM15.1815 18.75C15.1815 18.4393 15.4334 18.1875 15.744 18.1875H20.244C20.5547 18.1875 20.8065 18.4393 20.8065 18.75C20.8065 19.0607 20.5547 19.3125 20.244 19.3125H15.744C15.4334 19.3125 15.1815 19.0607 15.1815 18.75Z" fill="#575775"/>
<rect x="0.5" y="0.5" width="35" height="35" rx="5.5" stroke="#DFDEED"/>
</svg>
