<svg width="16" height="12" viewBox="0 0 16 12" fill="none" xmlns="http://www.w3.org/2000/svg">
<path fill-rule="evenodd" clip-rule="evenodd" d="M2.16602 3.33317C2.16602 1.58427 3.58378 0.166504 5.33268 0.166504C7.08155 0.166504 8.49935 1.58426 8.49935 3.33317C8.49935 4.36669 8.0042 5.28459 7.23819 5.86257C9.14859 6.62099 10.4993 8.486 10.4993 10.6665V11.3332C10.4993 11.6093 10.2755 11.8332 9.99935 11.8332C9.72321 11.8332 9.49935 11.6093 9.49935 11.3332V10.6665C9.49935 8.36531 7.63387 6.49984 5.33268 6.49984C3.0315 6.49984 1.16602 8.36531 1.16602 10.6665V11.3332C1.16602 11.6093 0.942158 11.8332 0.666016 11.8332C0.389873 11.8332 0.166016 11.6093 0.166016 11.3332V10.6665C0.166016 8.486 1.51677 6.621 3.42717 5.86258C2.66115 5.28459 2.16602 4.36669 2.16602 3.33317ZM5.33268 1.1665C4.13606 1.1665 3.16602 2.13655 3.16602 3.33317C3.16602 4.52976 4.13607 5.49984 5.33268 5.49984C6.52927 5.49984 7.49935 4.52976 7.49935 3.33317C7.49935 2.13656 6.52928 1.1665 5.33268 1.1665ZM13.3327 2.1665C13.6088 2.1665 13.8327 2.39036 13.8327 2.6665V4.1665H15.3327C15.6088 4.1665 15.8327 4.39036 15.8327 4.6665C15.8327 4.94265 15.6088 5.1665 15.3327 5.1665H13.8327V6.6665C13.8327 6.94265 13.6088 7.1665 13.3327 7.1665C13.0565 7.1665 12.8327 6.94265 12.8327 6.6665V5.1665H11.3327C11.0565 5.1665 10.8327 4.94265 10.8327 4.6665C10.8327 4.39036 11.0565 4.1665 11.3327 4.1665H12.8327V2.6665C12.8327 2.39036 13.0565 2.1665 13.3327 2.1665Z" fill="#262541"/>
</svg>
