<svg width="19" height="18" viewBox="0 0 19 18" fill="none" xmlns="http://www.w3.org/2000/svg">
<path fill-rule="evenodd" clip-rule="evenodd" d="M0.228863 2.46554C0.0253341 1.11806 1.10601 0.041626 2.38607 0.041626H5.51184C5.77215 0.041626 6.0052 0.202967 6.09683 0.446615L7.30969 3.67153C7.34984 3.77828 7.36001 3.89397 7.33911 4.00608L6.73137 7.26605C7.47834 9.02275 8.71218 10.2032 10.7586 11.2621L13.9793 10.638C14.0937 10.6159 14.212 10.6261 14.3208 10.6676L17.5556 11.9003C17.7979 11.9926 17.9581 12.225 17.9581 12.4843V15.4712C17.9581 16.8258 16.7646 17.9251 15.3685 17.6212L15.5014 17.0105L15.3685 17.6212C12.8238 17.0676 8.10946 15.6602 4.8078 12.3586L5.24974 11.9166L4.80779 12.3586C1.64518 9.19593 0.585563 4.82706 0.228863 2.46554L0.846853 2.37219L0.228863 2.46554ZM2.38607 1.29163C1.78688 1.29163 1.38771 1.76815 1.46484 2.27885C1.80883 4.55619 2.81517 8.59816 5.69168 11.4747C8.73201 14.515 13.1518 15.8597 15.6343 16.3998L15.6343 16.3998C16.1796 16.5185 16.7081 16.1033 16.7081 15.4712V12.915L14.0422 11.8991L10.7853 12.5302C10.6498 12.5565 10.5094 12.5371 10.386 12.4752C7.97418 11.2646 6.40838 9.82943 5.50277 7.56541C5.45878 7.45543 5.44695 7.3352 5.46866 7.21875L6.07833 3.94838L5.07915 1.29163H2.38607ZM15.0352 0.243859C15.3804 0.243859 15.6602 0.523681 15.6602 0.868859V2.74386H17.5352C17.8804 2.74386 18.1602 3.02368 18.1602 3.36886C18.1602 3.71404 17.8804 3.99386 17.5352 3.99386H15.6602V5.86886C15.6602 6.21404 15.3804 6.49386 15.0352 6.49386C14.6901 6.49386 14.4102 6.21404 14.4102 5.86886V3.99386H12.5352C12.1901 3.99386 11.9102 3.71404 11.9102 3.36886C11.9102 3.02368 12.1901 2.74386 12.5352 2.74386H14.4102V0.868859C14.4102 0.523681 14.6901 0.243859 15.0352 0.243859Z" fill="white"/>
</svg>
