<svg width="24" height="24" viewBox="0 0 24 24" fill="none" xmlns="http://www.w3.org/2000/svg">
<path d="M18 2.25C18.4142 2.25 18.75 2.58579 18.75 3V5.25H21C21.4142 5.25 21.75 5.58579 21.75 6C21.75 6.41421 21.4142 6.75 21 6.75H18.75V9C18.75 9.41421 18.4142 9.75 18 9.75C17.5858 9.75 17.25 9.41421 17.25 9V6.75H15C14.5858 6.75 14.25 6.41421 14.25 6C14.25 5.58579 14.5858 5.25 15 5.25H17.25V3C17.25 2.58579 17.5858 2.25 18 2.25Z" fill="#262541"/>
<path fill-rule="evenodd" clip-rule="evenodd" d="M12 10.75C10.7574 10.75 9.75 11.7574 9.75 13C9.75 14.2426 10.7574 15.25 12 15.25C13.2426 15.25 14.25 14.2426 14.25 13C14.25 11.7574 13.2426 10.75 12 10.75ZM8.25 13C8.25 10.9289 9.92893 9.25 12 9.25C14.0711 9.25 15.75 10.9289 15.75 13C15.75 15.0711 14.0711 16.75 12 16.75C9.92893 16.75 8.25 15.0711 8.25 13Z" fill="#262541"/>
<path fill-rule="evenodd" clip-rule="evenodd" d="M7.75 4.00003C7.75 3.58582 8.08579 3.25003 8.5 3.25003H12C12.4142 3.25003 12.75 3.58582 12.75 4.00003C12.75 4.41424 12.4142 4.75003 12 4.75003H9.24888C9.24686 5.15074 9.24121 5.49158 9.22541 5.77601C9.20181 6.20078 9.15271 6.62166 8.98332 6.96044C8.88904 7.149 8.75552 7.31836 8.57201 7.45048C8.39356 7.57895 8.20311 7.64679 8.02987 7.68529C7.73633 7.75051 7.38085 7.75026 7.05628 7.75003C7.03741 7.75001 7.01864 7.75 7 7.75H5C4.66848 7.75 4.35054 7.8817 4.11612 8.11612C3.8817 8.35054 3.75 8.66848 3.75 9V18C3.75 18.3315 3.8817 18.6495 4.11612 18.8839C4.35054 19.1183 4.66848 19.25 5 19.25H19C19.3315 19.25 19.6495 19.1183 19.8839 18.8839C20.1183 18.6495 20.25 18.3315 20.25 18V11C20.25 10.5858 20.5858 10.25 21 10.25C21.4142 10.25 21.75 10.5858 21.75 11V18C21.75 18.7293 21.4603 19.4288 20.9445 19.9445C20.4288 20.4603 19.7293 20.75 19 20.75H5C4.27065 20.75 3.57118 20.4603 3.05546 19.9445C2.53973 19.4288 2.25 18.7293 2.25 18V9C2.25 8.27065 2.53973 7.57118 3.05546 7.05546C3.57118 6.53973 4.27065 6.25 5 6.25H7C7.36296 6.25001 7.54772 6.24666 7.66257 6.22882C7.68354 6.14992 7.71109 5.99216 7.72772 5.6928C7.74972 5.29677 7.75 4.75925 7.75 4.00003Z" fill="#262541"/>
</svg>
