<svg width="16" height="16" viewBox="0 0 16 16" fill="none" xmlns="http://www.w3.org/2000/svg">
<path fill-rule="evenodd" clip-rule="evenodd" d="M1.85758 7.4567L3.11567 6.18061L2.76542 4.73949C2.26536 5.54074 1.94413 6.46509 1.85758 7.4567ZM2.62196 3.26367C1.50909 4.52651 0.833984 6.18437 0.833984 7.99992C0.833984 11.9579 4.04261 15.1666 8.00065 15.1666C11.9587 15.1666 15.1673 11.9579 15.1673 7.99992C15.1673 6.18463 14.4924 4.52698 13.3798 3.2642C13.3768 3.26068 13.3737 3.2572 13.3706 3.25377C12.0575 1.76924 10.1384 0.833252 8.00065 0.833252C5.86265 0.833252 3.94331 1.76946 2.63024 3.25429C2.62744 3.25738 2.62468 3.26051 2.62196 3.26367ZM3.54963 3.73186L4.09657 5.98228L5.40947 6.59782L7.50065 5.07849V3.59027L5.67782 2.2857C4.86844 2.61504 4.14479 3.11135 3.54963 3.73186ZM6.90058 1.93109L8.00065 2.71839L9.10073 1.93109C8.74377 1.86681 8.37613 1.83325 8.00065 1.83325C7.62518 1.83325 7.25754 1.86681 6.90058 1.93109ZM10.3235 2.28571L8.50065 3.59027V5.07848L10.5919 6.59782L11.9047 5.98228L12.4517 3.73187C11.8565 3.11136 11.1329 2.61505 10.3235 2.28571ZM13.2359 4.7395L12.8856 6.18061L14.1437 7.45671C14.0572 6.4651 13.7359 5.54075 13.2359 4.7395ZM14.1097 8.84655L12.2261 6.93605L10.9454 7.53653L10.1225 10.0692L10.9014 11.1386L13.4633 10.8639C13.788 10.2458 14.0109 9.56598 14.1097 8.84655ZM12.7385 11.9473L10.9751 12.1364L10.0091 13.8321C11.0843 13.4619 12.0251 12.8027 12.7385 11.9473ZM8.68929 14.1286L10.073 11.6998L9.31372 10.6573H6.68764L5.92835 11.6998L7.31201 14.1286C7.5381 14.1537 7.76787 14.1666 8.00065 14.1666C8.23343 14.1666 8.46321 14.1537 8.68929 14.1286ZM5.99224 13.8321L5.02622 12.1364L3.26276 11.9473C3.97622 12.8027 4.91698 13.4619 5.99224 13.8321ZM2.53796 10.8639L5.09996 11.1386L5.87888 10.0692L5.05598 7.53654L3.77517 6.93604L1.89162 8.84654C1.9904 9.56597 2.21328 10.2458 2.53796 10.8639ZM6.0523 7.36684L6.79652 9.65732H9.20485L9.94906 7.36684L8.00066 5.95128L6.0523 7.36684Z" fill="#575775"/>
</svg>
