<svg width="14" height="15" viewBox="0 0 14 15" fill="none" xmlns="http://www.w3.org/2000/svg">
<path fill-rule="evenodd" clip-rule="evenodd" d="M1.53475 2.88969L1.5709 3.16082C1.71325 3.25924 1.89835 3.35856 2.12962 3.4545C2.49398 3.60564 2.94399 3.73656 3.45923 3.84342C4.48966 4.05714 5.7402 4.16633 7.00055 4.16633C8.2609 4.16633 9.51144 4.05713 10.5419 3.84341C11.0571 3.73655 11.5071 3.60563 11.8715 3.45449C12.1027 3.35856 12.2878 3.25924 12.4302 3.16083L12.4663 2.88968C11.9829 2.58014 10.4594 1.83301 7.00054 1.83301C3.54166 1.83301 2.01814 2.58017 1.53475 2.88969ZM12.2686 4.37234C12.264 4.37429 12.2593 4.37623 12.2546 4.37817C11.8154 4.56036 11.3011 4.70722 10.745 4.82257C9.63252 5.0533 8.31163 5.16633 7.00055 5.16633C5.68947 5.16633 4.36858 5.05331 3.25615 4.82258C2.69996 4.70723 2.18568 4.56037 1.74647 4.37818C1.74179 4.37624 1.73711 4.37429 1.73244 4.37234L2.65508 11.2921L2.16014 11.3581L2.65508 11.2921C2.74438 11.962 3.14107 12.5517 3.72776 12.8869L3.72778 12.887L3.94103 13.0088C5.83683 14.0922 8.16425 14.0922 10.0601 13.0088L10.3081 13.4429L10.0601 13.0088L10.2733 12.887L10.5214 13.3211L10.2733 12.887C10.86 12.5517 11.2567 11.962 11.346 11.2922L11.346 11.2921L12.2686 4.37234ZM0.86476 2.13569C1.43244 1.73151 3.13224 0.833008 7.00054 0.833008C10.8688 0.833008 12.5686 1.7315 13.1363 2.13569L13.1364 2.13572C13.4138 2.33332 13.5066 2.65379 13.47 2.92836L12.3372 11.4243C12.3372 11.4243 12.3372 11.4243 12.3372 11.4243C12.2067 12.4033 11.6269 13.2652 10.7695 13.7552L10.5562 13.8771C8.35297 15.1361 5.64812 15.1361 3.44487 13.8771L3.69017 13.4478L3.44487 13.8771L3.23164 13.7552C3.23163 13.7552 3.23162 13.7552 3.23161 13.7552C2.37414 13.2652 1.79437 12.4033 1.66385 11.4243L2.15946 11.3582L1.66385 11.4243L0.531056 2.92836C0.531056 2.92836 0.531056 2.92836 0.531056 2.92836C0.494442 2.65376 0.587264 2.33328 0.864757 2.1357L0.86476 2.13569ZM4.49534 8.66634C4.49534 8.3902 4.71919 8.16634 4.99534 8.16634H8.99534C9.27149 8.16634 9.49534 8.3902 9.49534 8.66634C9.49534 8.94248 9.27149 9.16634 8.99534 9.16634H4.99534C4.71919 9.16634 4.49534 8.94248 4.49534 8.66634Z" fill="#262541"/>
</svg>
