<svg width="20" height="20" viewBox="0 0 20 20" fill="none" xmlns="http://www.w3.org/2000/svg">
<path d="M2.29102 3.5192V3.33333H1.04102L2.29102 3.5192Z" fill="#262541"/>
<path d="M15.9802 4.80217L15.3251 5.45725L16.8641 5.68608L17.2911 3.33315L16.0411 3.3333C16.0411 3.33326 16.0411 3.33335 16.0411 3.3333L16.0413 4.65498C16.0413 4.71008 16.0194 4.76306 15.9802 4.80217Z" fill="#262541"/>
<path fill-rule="evenodd" clip-rule="evenodd" d="M2.29102 3.33333C2.29102 3.21827 2.38429 3.125 2.49935 3.125H15.8328C15.9479 3.125 16.0411 3.21837 16.0411 3.3333L17.2911 3.33315L16.8641 5.68608L15.3251 5.45725L10.6348 10.1473C10.3614 10.4208 10.2077 10.7917 10.2077 11.1785V16.4327C10.2077 16.5683 10.0802 16.6677 9.94884 16.6348L8.28218 16.2182C8.18942 16.195 8.12435 16.1116 8.12435 16.016V11.1785C8.12435 10.7918 7.9707 10.4208 7.69718 10.1473L2.35202 4.80212C2.31297 4.76307 2.29102 4.71009 2.29102 4.65483V3.5192L1.04102 3.33333H2.29102ZM1.04102 3.33333C1.04102 2.52793 1.69393 1.875 2.49935 1.875H15.8328C16.6381 1.875 17.291 2.52774 17.2911 3.33315L17.2913 4.65451C17.2914 5.04147 17.1376 5.41261 16.8641 5.68608L11.5187 11.0312C11.4796 11.0702 11.4577 11.1233 11.4577 11.1785V16.4327C11.4577 17.3814 10.5661 18.0776 9.64567 17.8475L7.97901 17.4308C7.32976 17.2685 6.87435 16.6852 6.87435 16.016V11.1785C6.87435 11.1232 6.85238 11.0702 6.81337 11.0312L1.46816 5.68603C1.19465 5.41253 1.04102 5.04157 1.04102 4.65483V3.33333Z" fill="#262541"/>
<path d="M14.3573 11.8579C14.6123 11.6029 15.0258 11.6029 15.2808 11.8579L16.666 13.2432L18.0513 11.8579C18.3064 11.6029 18.7198 11.6029 18.9748 11.8579C19.2298 12.113 19.2298 12.5264 18.9748 12.7814L17.5895 14.1667L18.9748 15.5519C19.2298 15.8069 19.2298 16.2204 18.9748 16.4754C18.7198 16.7304 18.3064 16.7304 18.0513 16.4754L16.666 15.0902L15.2808 16.4754C15.0258 16.7304 14.6123 16.7304 14.3573 16.4754C14.1023 16.2204 14.1023 15.8069 14.3573 15.5519L15.7425 14.1667L14.3573 12.7814C14.1023 12.5264 14.1023 12.1129 14.3573 11.8579Z" fill="#262541"/>
</svg>
