<svg width="18" height="14" viewBox="0 0 18 14" fill="none" xmlns="http://www.w3.org/2000/svg">
<path fill-rule="evenodd" clip-rule="evenodd" d="M4.32164 4.14155C4.51959 3.85876 4.90929 3.78999 5.19207 3.98794L9.00033 6.65372L12.8086 3.98794C13.0914 3.78999 13.4811 3.85876 13.679 4.14155C13.877 4.42433 13.8082 4.81403 13.5254 5.01198L9.35874 7.92865C9.14354 8.07929 8.85711 8.07929 8.64191 7.92865L4.47524 5.01198C4.19246 4.81403 4.12369 4.42433 4.32164 4.14155Z" fill="white"/>
<path fill-rule="evenodd" clip-rule="evenodd" d="M2.33366 1.79163C1.75836 1.79163 1.29199 2.258 1.29199 2.83329V11.1666C1.29199 11.7419 1.75836 12.2083 2.33366 12.2083H15.667C16.2423 12.2083 16.7087 11.7419 16.7087 11.1666V2.83329C16.7087 2.25799 16.2423 1.79163 15.667 1.79163H2.33366ZM0.0419922 2.83329C0.0419922 1.56764 1.06801 0.541626 2.33366 0.541626H15.667C16.9327 0.541626 17.9587 1.56765 17.9587 2.83329V11.1666C17.9587 12.4323 16.9327 13.4583 15.667 13.4583H2.33366C1.06801 13.4583 0.0419922 12.4323 0.0419922 11.1666V2.83329Z" fill="white"/>
</svg>
