<svg width="20" height="14" viewBox="0 0 20 14" fill="none" xmlns="http://www.w3.org/2000/svg">
<path fill-rule="evenodd" clip-rule="evenodd" d="M7.25 7C7.25 5.48119 8.48119 4.25 10 4.25C11.5188 4.25 12.75 5.48119 12.75 7C12.75 8.51881 11.5188 9.75 10 9.75C8.48119 9.75 7.25 8.51881 7.25 7ZM10 5.75C9.30962 5.75 8.75 6.30961 8.75 7C8.75 7.69039 9.30962 8.25 10 8.25C10.6904 8.25 11.25 7.69039 11.25 7C11.25 6.30961 10.6904 5.75 10 5.75Z" fill="#262541"/>
<path fill-rule="evenodd" clip-rule="evenodd" d="M1.92845 7.04691C2.80026 8.32039 3.94562 9.56325 5.25484 10.515C6.71856 11.579 8.34503 12.25 10 12.25C11.655 12.25 13.2814 11.579 14.7451 10.515C16.0544 9.56325 17.1997 8.32039 18.0716 7.0469C15.829 4.3055 13.4205 1.75 10 1.75C6.57957 1.75 4.17105 4.30554 1.92845 7.04691ZM0.416877 6.52834C2.67148 3.74093 5.57987 0.25 10 0.25C14.4202 0.25 17.3286 3.74087 19.5831 6.52835C19.7852 6.77812 19.8057 7.1288 19.6342 7.40043C18.6462 8.96509 17.2632 10.539 15.6271 11.7283C13.9926 12.9165 12.0633 13.75 10 13.75C7.93667 13.75 6.00742 12.9165 4.37286 11.7283C2.73681 10.539 1.35379 8.96509 0.365839 7.40042C0.194331 7.12879 0.214855 6.7781 0.416877 6.52834Z" fill="#262541"/>
</svg>
