<svg width="12" height="18" viewBox="0 0 12 18" fill="none" xmlns="http://www.w3.org/2000/svg">
<path fill-rule="evenodd" clip-rule="evenodd" d="M0.375 6.5C0.375 3.3934 2.8934 0.875 6 0.875C9.10659 0.875 11.625 3.3934 11.625 6.5C11.625 9.39534 9.43746 11.7798 6.625 12.0907V14.2083H7.66667C8.01184 14.2083 8.29167 14.4882 8.29167 14.8333C8.29167 15.1785 8.01184 15.4583 7.66667 15.4583H6.625V16.5C6.625 16.8452 6.34518 17.125 6 17.125C5.65482 17.125 5.375 16.8452 5.375 16.5V15.4583H4.33333C3.98816 15.4583 3.70833 15.1785 3.70833 14.8333C3.70833 14.4882 3.98816 14.2083 4.33333 14.2083H5.375V12.0907C2.56253 11.7798 0.375 9.39534 0.375 6.5ZM6 10.875C8.41624 10.875 10.375 8.91624 10.375 6.5C10.375 4.08375 8.41624 2.125 6 2.125C3.58375 2.125 1.625 4.08375 1.625 6.5C1.625 8.91624 3.58375 10.875 6 10.875Z" fill="#262541"/>
</svg>
