<svg width="18" height="18" viewBox="0 0 18 18" fill="none" xmlns="http://www.w3.org/2000/svg">
<path fill-rule="evenodd" clip-rule="evenodd" d="M3.79167 1.5C3.79167 1.15482 3.51184 0.875 3.16667 0.875C2.82149 0.875 2.54167 1.15482 2.54167 1.5V2.54167H1.5C1.15482 2.54167 0.875 2.82149 0.875 3.16667C0.875 3.51184 1.15482 3.79167 1.5 3.79167H2.54167V4.83333C2.54167 5.17851 2.82149 5.45833 3.16667 5.45833C3.51184 5.45833 3.79167 5.17851 3.79167 4.83333V3.79167H16.5C16.8452 3.79167 17.125 3.51184 17.125 3.16667C17.125 2.82149 16.8452 2.54167 16.5 2.54167H3.79167V1.5ZM3.79167 2.54167V3.79167H2.54167V2.54167H3.79167Z" fill="#262541"/>
<path d="M3.79167 3.79167V2.54167H2.54167V3.79167H3.79167Z" fill="#262541"/>
<path fill-rule="evenodd" clip-rule="evenodd" d="M12.125 7.33333C12.125 6.98816 11.8452 6.70833 11.5 6.70833C11.1548 6.70833 10.875 6.98816 10.875 7.33333V8.375H1.5C1.15482 8.375 0.875 8.65482 0.875 9C0.875 9.34518 1.15482 9.625 1.5 9.625H10.875V10.6667C10.875 11.0118 11.1548 11.2917 11.5 11.2917C11.8452 11.2917 12.125 11.0118 12.125 10.6667V9.625H16.5C16.8452 9.625 17.125 9.34518 17.125 9C17.125 8.65482 16.8452 8.375 16.5 8.375H12.125V7.33333ZM12.125 8.375V9.625H10.875V8.375H12.125Z" fill="#262541"/>
<path d="M12.125 9.625V8.375H10.875V9.625H12.125Z" fill="#262541"/>
<path fill-rule="evenodd" clip-rule="evenodd" d="M4.625 13.1667C4.625 12.8215 4.34518 12.5417 4 12.5417C3.65482 12.5417 3.375 12.8215 3.375 13.1667V14.2083H1.5C1.15482 14.2083 0.875 14.4882 0.875 14.8333C0.875 15.1785 1.15482 15.4583 1.5 15.4583H3.375V16.5C3.375 16.8452 3.65482 17.125 4 17.125C4.34518 17.125 4.625 16.8452 4.625 16.5V15.4583H16.5C16.8452 15.4583 17.125 15.1785 17.125 14.8333C17.125 14.4882 16.8452 14.2083 16.5 14.2083H4.625V13.1667ZM4.625 14.2083V15.4583H3.375V14.2083H4.625Z" fill="#262541"/>
<path d="M4.625 15.4583V14.2083H3.375V15.4583H4.625Z" fill="#262541"/>
</svg>
