<svg width="36" height="36" viewBox="0 0 36 36" fill="none" xmlns="http://www.w3.org/2000/svg">
<path fill-rule="evenodd" clip-rule="evenodd" d="M12.7917 10.5C12.7917 10.1548 12.5118 9.875 12.1667 9.875C11.8215 9.875 11.5417 10.1548 11.5417 10.5V11.5417H10.5C10.1548 11.5417 9.875 11.8215 9.875 12.1667C9.875 12.5118 10.1548 12.7917 10.5 12.7917H11.5417V13.8333C11.5417 14.1785 11.8215 14.4583 12.1667 14.4583C12.5118 14.4583 12.7917 14.1785 12.7917 13.8333V12.7917H25.5C25.8452 12.7917 26.125 12.5118 26.125 12.1667C26.125 11.8215 25.8452 11.5417 25.5 11.5417H12.7917V10.5ZM12.7917 11.5417V12.7917H11.5417V11.5417H12.7917Z" fill="#262541"/>
<path d="M12.7917 12.7917V11.5417H11.5417V12.7917H12.7917Z" fill="#262541"/>
<path fill-rule="evenodd" clip-rule="evenodd" d="M21.125 16.3333C21.125 15.9882 20.8452 15.7083 20.5 15.7083C20.1548 15.7083 19.875 15.9882 19.875 16.3333V17.375H10.5C10.1548 17.375 9.875 17.6548 9.875 18C9.875 18.3452 10.1548 18.625 10.5 18.625H19.875V19.6667C19.875 20.0118 20.1548 20.2917 20.5 20.2917C20.8452 20.2917 21.125 20.0118 21.125 19.6667V18.625H25.5C25.8452 18.625 26.125 18.3452 26.125 18C26.125 17.6548 25.8452 17.375 25.5 17.375H21.125V16.3333ZM21.125 17.375V18.625H19.875V17.375H21.125Z" fill="#262541"/>
<path d="M21.125 18.625V17.375H19.875V18.625H21.125Z" fill="#262541"/>
<path fill-rule="evenodd" clip-rule="evenodd" d="M13.625 22.1667C13.625 21.8215 13.3452 21.5417 13 21.5417C12.6548 21.5417 12.375 21.8215 12.375 22.1667V23.2083H10.5C10.1548 23.2083 9.875 23.4882 9.875 23.8333C9.875 24.1785 10.1548 24.4583 10.5 24.4583H12.375V25.5C12.375 25.8452 12.6548 26.125 13 26.125C13.3452 26.125 13.625 25.8452 13.625 25.5V24.4583H25.5C25.8452 24.4583 26.125 24.1785 26.125 23.8333C26.125 23.4882 25.8452 23.2083 25.5 23.2083H13.625V22.1667ZM13.625 23.2083V24.4583H12.375V23.2083H13.625Z" fill="#262541"/>
<path d="M13.625 24.4583V23.2083H12.375V24.4583H13.625Z" fill="#262541"/>
<rect x="0.5" y="0.5" width="35" height="35" rx="5.5" stroke="#575775"/>
</svg>
