<svg width="16" height="18" viewBox="0 0 16 18" fill="none" xmlns="http://www.w3.org/2000/svg">
<path d="M10.9041 5.36339L10.3459 4.38661L9.84283 4.67409C9.96856 5.03566 10.166 5.36366 10.4181 5.64107L10.9041 5.36339Z" fill="#575775"/>
<path d="M5.09592 7.38661L5.65408 8.36339L6.15717 8.07591C6.03144 7.71433 5.834 7.38633 5.58187 7.10893L5.09592 7.38661Z" fill="#575775"/>
<path d="M5.65408 9.63661L5.09592 10.6134L5.58187 10.8911C5.834 10.6137 6.03144 10.2857 6.15717 9.92409L5.65408 9.63661Z" fill="#575775"/>
<path fill-rule="evenodd" clip-rule="evenodd" d="M9.6875 3.75C9.6875 2.19671 10.9467 0.9375 12.5 0.9375C14.0533 0.9375 15.3125 2.19671 15.3125 3.75C15.3125 5.30329 14.0533 6.5625 12.5 6.5625C11.6748 6.5625 10.9326 6.20712 10.4181 5.64107L10.9041 5.36339L10.3459 4.38661L9.84283 4.67409C9.74219 4.38466 9.6875 4.07372 9.6875 3.75ZM5.58187 7.10893L9.84283 4.67409C9.96856 5.03566 10.166 5.36366 10.4181 5.64107L6.15717 8.07591C6.03144 7.71433 5.834 7.38633 5.58187 7.10893ZM5.58187 10.8911C5.06738 11.4571 4.32519 11.8125 3.5 11.8125C1.94671 11.8125 0.6875 10.5533 0.6875 9C0.6875 7.44666 1.94671 6.1875 3.5 6.1875C4.32519 6.1875 5.06738 6.54287 5.58187 7.10893L5.09592 7.38661L5.65408 8.36339L6.15717 8.07591C6.25781 8.36534 6.3125 8.67628 6.3125 9C6.3125 9.32372 6.25781 9.63466 6.15717 9.92409L5.65408 9.63661L5.09592 10.6134L5.58187 10.8911ZM9.84283 13.3259L5.58187 10.8911C5.834 10.6137 6.03144 10.2857 6.15717 9.92409L10.4181 12.3589C10.166 12.6363 9.96855 12.9643 9.84283 13.3259ZM9.84283 13.3259C9.74219 13.6153 9.6875 13.9263 9.6875 14.25C9.6875 15.8033 10.9467 17.0625 12.5 17.0625C14.0533 17.0625 15.3125 15.8033 15.3125 14.25C15.3125 12.6967 14.0533 11.4375 12.5 11.4375C11.6748 11.4375 10.9326 11.7929 10.4181 12.3589L10.9041 12.6366L10.3459 13.6134L9.84283 13.3259ZM12.5 2.0625C11.568 2.0625 10.8125 2.81802 10.8125 3.75C10.8125 4.68198 11.568 5.4375 12.5 5.4375C13.432 5.4375 14.1875 4.68198 14.1875 3.75C14.1875 2.81802 13.432 2.0625 12.5 2.0625ZM1.8125 9C1.8125 8.06799 2.56802 7.3125 3.5 7.3125C4.43198 7.3125 5.1875 8.06799 5.1875 9C5.1875 9.93201 4.43198 10.6875 3.5 10.6875C2.56802 10.6875 1.8125 9.93201 1.8125 9ZM10.8125 14.25C10.8125 13.318 11.568 12.5625 12.5 12.5625C13.432 12.5625 14.1875 13.318 14.1875 14.25C14.1875 15.182 13.432 15.9375 12.5 15.9375C11.568 15.9375 10.8125 15.182 10.8125 14.25Z" fill="#575775"/>
<path d="M10.3459 13.6134L10.9041 12.6366L10.4181 12.3589C10.166 12.6363 9.96855 12.9643 9.84283 13.3259L10.3459 13.6134Z" fill="#575775"/>
</svg>
