<svg width="18" height="17" viewBox="0 0 18 17" fill="none" xmlns="http://www.w3.org/2000/svg">
<path fill-rule="evenodd" clip-rule="evenodd" d="M9.00933 5.66663C9.36348 5.66663 9.65058 5.96988 9.65058 6.34397V10.7919C9.65058 11.166 9.36348 11.4692 9.00933 11.4692C8.65517 11.4692 8.36807 11.166 8.36807 10.7919V6.34397C8.36807 5.96988 8.65517 5.66663 9.00933 5.66663ZM9.00933 12.5239C9.36348 12.5239 9.65058 12.8271 9.65058 13.2012V13.2102C9.65058 13.5843 9.36348 13.8876 9.00933 13.8876C8.65517 13.8876 8.36807 13.5843 8.36807 13.2102V13.2012C8.36807 12.8271 8.65517 12.5239 9.00933 12.5239Z" fill="white"/>
<path fill-rule="evenodd" clip-rule="evenodd" d="M7.80662 1.01078C8.16843 0.785461 8.58077 0.666626 9.00078 0.666626C9.42079 0.666626 9.83313 0.785461 10.1949 1.01078C10.5548 1.23486 10.8515 1.55612 11.0548 1.94147L17.1224 12.9994C17.1375 13.0269 17.1508 13.0555 17.1621 13.085C17.3059 13.4606 17.3606 13.8678 17.3213 14.2708C17.282 14.6739 17.1499 15.0607 16.9366 15.3975C16.7232 15.7343 16.4351 16.0108 16.0974 16.203C15.7596 16.3951 15.3825 16.4971 14.9989 16.4999L14.9944 16.4999H3.02427C3.00855 16.4999 2.99295 16.4993 2.97751 16.4982C2.95112 16.5002 2.92432 16.5005 2.8972 16.499C2.52264 16.4786 2.15813 16.3639 1.83411 16.1644C1.51008 15.9649 1.23595 15.6864 1.03459 15.3521C0.833226 15.0179 0.710483 14.6376 0.676604 14.2431C0.642726 13.8485 0.698696 13.4512 0.839841 13.0841C0.851063 13.0549 0.864199 13.0266 0.879152 12.9994L6.94676 1.94149C7.15001 1.55613 7.44679 1.23486 7.80662 1.01078ZM2.97707 15.1471C2.99266 15.1459 3.0084 15.1453 3.02427 15.1453H14.9918C15.1655 15.1436 15.3363 15.0973 15.4892 15.0103C15.6427 14.923 15.7737 14.7973 15.8707 14.6442C15.9676 14.4911 16.0277 14.3153 16.0455 14.1321C16.062 13.9629 16.0421 13.7921 15.9874 13.6325L9.94224 2.61542L9.93594 2.60368C9.84352 2.42724 9.70803 2.28016 9.54358 2.17774C9.37912 2.07533 9.19169 2.02131 9.00078 2.02131C8.80987 2.02131 8.62244 2.07533 8.45798 2.17774C8.29352 2.28016 8.15804 2.42724 8.06561 2.60368L8.05932 2.61542L2.01386 13.6329C1.96022 13.7887 1.93967 13.9553 1.95387 14.1207C1.96927 14.3001 2.02507 14.4729 2.11659 14.6248C2.20812 14.7768 2.33273 14.9033 2.48001 14.994C2.62729 15.0847 2.79298 15.1369 2.96324 15.1462C2.96786 15.1464 2.97247 15.1467 2.97707 15.1471Z" fill="white"/>
</svg>
