<svg width="18" height="18" viewBox="0 0 18 18" fill="none" xmlns="http://www.w3.org/2000/svg">
<path fill-rule="evenodd" clip-rule="evenodd" d="M9 3.9375C9.31066 3.9375 9.5625 4.18934 9.5625 4.5V8.4375H13.5C13.8107 8.4375 14.0625 8.68934 14.0625 9C14.0625 9.31066 13.8107 9.5625 13.5 9.5625H9C8.68934 9.5625 8.4375 9.31066 8.4375 9V4.5C8.4375 4.18934 8.68934 3.9375 9 3.9375Z" fill="#262541"/>
<path fill-rule="evenodd" clip-rule="evenodd" d="M0.9375 9C0.9375 4.5472 4.5472 0.9375 9 0.9375C13.4528 0.9375 17.0625 4.5472 17.0625 9C17.0625 13.4528 13.4528 17.0625 9 17.0625C4.5472 17.0625 0.9375 13.4528 0.9375 9ZM9 2.0625C5.16852 2.0625 2.0625 5.16852 2.0625 9C2.0625 12.8314 5.16852 15.9375 9 15.9375C12.8314 15.9375 15.9375 12.8314 15.9375 9C15.9375 5.16852 12.8314 2.0625 9 2.0625Z" fill="#262541"/>
</svg>
