<svg width="124" height="70" viewBox="0 0 124 70" fill="none" xmlns="http://www.w3.org/2000/svg">
<path d="M117 46.5C117 45.6716 117.362 45 117.808 45H123.192C123.638 45 124 45.6716 124 46.5C124 47.3284 123.638 48 123.192 48H117.808C117.362 48 117 47.3284 117 46.5Z" fill="#8A8AA8"/>
<path d="M108 26.5C108 25.6716 108.362 25 108.808 25H114.192C114.638 25 115 25.6716 115 26.5C115 27.3284 114.638 28 114.192 28H108.808C108.362 28 108 27.3284 108 26.5Z" fill="#8A8AA8"/>
<path d="M101 62.5C101 61.6716 101.672 61 102.5 61H112.5C113.328 61 114 61.6716 114 62.5C114 63.3284 113.328 64 112.5 64H102.5C101.672 64 101 63.3284 101 62.5Z" fill="#8A8AA8"/>
<path d="M0 39.5C0 38.6716 0.361616 38 0.807692 38H6.19231C6.63838 38 7 38.6716 7 39.5C7 40.3284 6.63838 41 6.19231 41H0.807692C0.361616 41 0 40.3284 0 39.5Z" fill="#8A8AA8"/>
<path d="M14 59.5C14 58.6716 14.3616 58 14.8077 58H20.1923C20.6384 58 21 58.6716 21 59.5C21 60.3284 20.6384 61 20.1923 61H14.8077C14.3616 61 14 60.3284 14 59.5Z" fill="#8A8AA8"/>
<path d="M8 23.5C8 22.6716 8.67157 22 9.5 22H19.5C20.3284 22 21 22.6716 21 23.5C21 24.3284 20.3284 25 19.5 25H9.5C8.67157 25 8 24.3284 8 23.5Z" fill="#8A8AA8"/>
<rect x="33.5" y="10.5" width="59" height="59" rx="7.5" fill="#F9F9FC"/>
<path fill-rule="evenodd" clip-rule="evenodd" d="M53.271 30.1661C53.7307 30.584 53.7646 31.2955 53.3466 31.7553L53.3316 31.7718C52.9137 32.2315 52.2022 32.2654 51.7425 31.8474C51.2827 31.4295 51.2488 30.718 51.6668 30.2583L51.6818 30.2418C52.0997 29.782 52.8112 29.7481 53.271 30.1661ZM57.3742 31C57.3742 30.3787 57.8779 29.875 58.4992 29.875H74.9992C75.6205 29.875 76.1242 30.3787 76.1242 31C76.1242 31.6213 75.6205 32.125 74.9992 32.125H58.4992C57.8779 32.125 57.3742 31.6213 57.3742 31ZM53.271 39.1661C53.7307 39.584 53.7646 40.2955 53.3467 40.7553L53.3317 40.7718C52.9137 41.2315 52.2022 41.2654 51.7425 40.8475C51.2827 40.4295 51.2488 39.718 51.6668 39.2583L51.6818 39.2418C52.0997 38.782 52.8112 38.7481 53.271 39.1661ZM57.3742 40C57.3742 39.3787 57.8779 38.875 58.4992 38.875H74.9992C75.6205 38.875 76.1242 39.3787 76.1242 40C76.1242 40.6213 75.6205 41.125 74.9992 41.125H58.4992C57.8779 41.125 57.3742 40.6213 57.3742 40ZM55.6947 46.1045C56.1341 46.5439 56.1341 47.2562 55.6947 47.6955L52.6947 50.6955C52.4837 50.9065 52.1976 51.025 51.8992 51.025C51.6008 51.025 51.3147 50.9065 51.1037 50.6955L49.9037 49.4955C49.4644 49.0562 49.4644 48.3439 49.9037 47.9045C50.3431 47.4652 51.0554 47.4652 51.4947 47.9045L51.8992 48.309L54.1037 46.1045C54.5431 45.6652 55.2554 45.6652 55.6947 46.1045ZM57.3742 49C57.3742 48.3787 57.8779 47.875 58.4992 47.875H74.9992C75.6205 47.875 76.1242 48.3787 76.1242 49C76.1242 49.6213 75.6205 50.125 74.9992 50.125H58.4992C57.8779 50.125 57.3742 49.6213 57.3742 49Z" fill="#575775"/>
<rect x="75" width="28" height="28" rx="14" fill="white"/>
<path fill-rule="evenodd" clip-rule="evenodd" d="M79.75 14C79.75 8.89136 83.8914 4.75 89 4.75C94.1086 4.75 98.25 8.89137 98.25 14C98.25 19.1086 94.1086 23.25 89 23.25C83.8914 23.25 79.75 19.1086 79.75 14ZM89.5118 8.94144C89.8196 9.21855 89.8446 9.69277 89.5674 10.0006L89.5574 10.0118C89.2803 10.3196 88.8061 10.3446 88.4983 10.0674C88.1904 9.79034 88.1654 9.31612 88.4426 9.00825L88.4526 8.99714C88.7297 8.68927 89.2039 8.66433 89.5118 8.94144ZM89 12.75C89.4142 12.75 89.75 13.0858 89.75 13.5V18.5C89.75 18.9142 89.4142 19.25 89 19.25C88.5858 19.25 88.25 18.9142 88.25 18.5V13.5C88.25 13.0858 88.5858 12.75 89 12.75Z" fill="#262541"/>
<path fill-rule="evenodd" clip-rule="evenodd" d="M78.25 14C78.25 8.06294 83.0629 3.25 89 3.25C94.937 3.25 99.75 8.06293 99.75 14C99.75 19.937 94.937 24.75 89 24.75C83.0629 24.75 78.25 19.937 78.25 14ZM89 4.75C83.8914 4.75 79.75 8.89136 79.75 14C79.75 19.1086 83.8914 23.25 89 23.25C94.1086 23.25 98.25 19.1086 98.25 14C98.25 8.89137 94.1086 4.75 89 4.75Z" fill="#262541"/>
<rect x="33.5" y="10.5" width="59" height="59" rx="7.5" stroke="#DFDEED"/>
</svg>
