<svg width="124" height="51" viewBox="0 0 124 51" fill="none" xmlns="http://www.w3.org/2000/svg">
<path d="M117 33.5C117 32.6716 117.362 32 117.808 32H123.192C123.638 32 124 32.6716 124 33.5C124 34.3284 123.638 35 123.192 35H117.808C117.362 35 117 34.3284 117 33.5Z" fill="#8A8AA8"/>
<path d="M108 13.5C108 12.6716 108.362 12 108.808 12H114.192C114.638 12 115 12.6716 115 13.5C115 14.3284 114.638 15 114.192 15H108.808C108.362 15 108 14.3284 108 13.5Z" fill="#8A8AA8"/>
<path d="M101 49.5C101 48.6716 101.672 48 102.5 48H112.5C113.328 48 114 48.6716 114 49.5C114 50.3284 113.328 51 112.5 51H102.5C101.672 51 101 50.3284 101 49.5Z" fill="#8A8AA8"/>
<path d="M0 26.5C0 25.6716 0.361616 25 0.807692 25H6.19231C6.63838 25 7 25.6716 7 26.5C7 27.3284 6.63838 28 6.19231 28H0.807692C0.361616 28 0 27.3284 0 26.5Z" fill="#8A8AA8"/>
<path d="M14 46.5C14 45.6716 14.3616 45 14.8077 45H20.1923C20.6384 45 21 45.6716 21 46.5C21 47.3284 20.6384 48 20.1923 48H14.8077C14.3616 48 14 47.3284 14 46.5Z" fill="#8A8AA8"/>
<path d="M8 10.5C8 9.67157 8.67157 9 9.5 9H19.5C20.3284 9 21 9.67157 21 10.5C21 11.3284 20.3284 12 19.5 12H9.5C8.67157 12 8 11.3284 8 10.5Z" fill="#8A8AA8"/>
</svg>
