<svg width="128" height="176" viewBox="0 0 128 176" fill="none" xmlns="http://www.w3.org/2000/svg">
<path d="M58.0891 1.16408C56.0172 1.72658 52.9703 2.85158 51.3859 3.83595C49.7406 4.75002 47.425 5.73439 46.2672 6.01564C45.0484 6.22658 43.525 7.14064 42.7938 8.0547C41.0266 10.1641 39.0766 15.5078 39.0156 18.0391C39.0156 19.1641 38.5891 21.625 38.1016 23.5235C37.6141 25.3516 37.3703 27.3203 37.5531 27.8828C37.7359 28.4453 37.4313 30.9766 36.8828 33.5782C36.2734 36.461 35.9078 40.5391 35.9688 44.336C36.2125 55.586 34.2625 61.9844 28.7781 68.5938C26.4625 71.336 23.4766 75.836 22.0141 78.5782C17.3219 87.7891 13.1172 101.57 13.7875 105.508C14.0922 107.266 13.8484 107.758 11.4719 109.656C7.51094 112.82 4.64688 116.477 2.69688 120.977C1.05156 124.633 0.929688 125.477 0.929688 133.352C0.929688 140.453 1.17344 142.422 2.33125 145.797C5.31719 154.375 12.1422 160.211 19.9422 160.984C23.9641 161.336 24.0859 161.406 27.0109 165.063C31.9469 171.32 38.4672 174.203 49.375 174.906C57.2359 175.469 64.0609 174.133 69.3625 171.039C71.3734 169.844 73.2016 168.578 73.3844 168.227C73.6281 167.805 74.9078 168.086 76.5531 168.93C80.4531 170.969 86.6078 171.391 91.3609 169.984C96.6016 168.438 102.147 164.922 104.341 161.758C105.925 159.508 106.473 159.156 109.642 158.805C113.359 158.453 117.991 156.133 121.22 152.969C129.02 145.445 130.117 126.039 123.414 112.961C121.708 109.516 118.417 106 115.431 104.313C114.091 103.609 113.359 102.695 113.359 101.781C113.298 99.6719 111.227 94.6797 109.886 93.5547C109.277 92.9922 108.18 90.1797 107.388 87.1563C105.559 79.8438 100.867 67.5391 98.6734 64.375C97.6984 62.9688 96.9062 61.1407 96.9062 60.2969C96.9062 59.4532 96.4797 58.0469 95.9313 57.2032C95.2 55.9375 95.0172 53.7578 95.0172 47.3594C95.0172 42.086 94.7125 37.5157 94.1031 34.7032C93.5547 32.2422 93.3109 29.5703 93.4938 28.7266C93.6766 27.8125 93.4328 26.2656 92.9453 25.1406C92.4578 24.0156 92.0312 21.836 92.0312 20.1485C92.0312 18.5313 91.7875 16.2813 91.4828 15.1563C91.1781 14.0313 90.7516 12.2735 90.5687 11.1485C90.0203 8.47658 88.0703 6.43752 86.0594 6.43752C85.0844 6.43752 82.7688 5.45314 80.8797 4.32814C74.6641 0.39064 65.8891 -0.804672 58.0891 1.16408ZM77.0406 3.13283C82.4641 5.45314 83.0125 6.08595 81.0625 7.84377C80.2094 8.6172 79.8438 9.25002 80.1484 9.1797C80.5141 9.1797 81.3063 8.75783 81.9156 8.19533C84.2922 6.15627 89.5938 7.56252 89.5938 10.2344C89.5938 10.6563 89.2891 10.586 88.8625 10.0938C87.5219 8.54689 84.4141 9.10939 82.5859 11.1485C80.0266 14.1016 79.2344 16.9844 79.2344 23.6641C79.2344 29.5703 79.2344 29.711 80.9406 30.4141C81.8547 30.836 83.9266 31.0469 85.6328 30.836C88.1922 30.5547 88.9234 30.1328 90.6297 27.8828L92.6406 25.211V27.461C92.6406 30.4141 91.7875 32.1719 89.7156 33.5078L88.0703 34.6328L90.6297 34.211C93.0672 33.8594 93.25 34 93.6766 35.7578C93.9813 36.8828 94.1641 40.3985 94.1031 43.7032C94.1031 48.7657 93.8594 50.2422 92.4578 53.336C90.5078 57.6953 90.3859 58.3985 92.0312 56.711C93.7984 54.8828 93.4938 56.4297 91.4828 59.6641C85.45 69.2969 79.6609 72.3907 66.6813 73.0235C60.4047 73.3047 57.6625 73.1641 54.0063 72.1797C45.8406 70.1407 39.4422 65.2891 37.1266 59.5235C35.9078 56.4297 35.6031 52.4922 36.5781 51.7891C36.9438 51.5782 37.1875 51.7891 37.1875 52.2813C37.1875 53.8985 40.6609 59.7344 42.1844 60.6485C43.3422 61.2813 43.2203 61.0703 41.6359 59.1016C37.4922 54.0391 35.6031 44.2657 37.1875 35.7578C37.7969 32.1719 38.0406 31.75 39.1375 32.1016C40.2953 32.5938 40.2953 32.5235 39.3813 30.4141C38.8328 29.2891 38.4062 27.461 38.4062 26.4063V24.5078L39.8078 26.8985C41.4531 29.711 44.6828 30.9063 47.6688 29.711C48.7047 29.2891 49.6188 29.0078 49.6797 29.0781C49.7406 29.2188 49.6188 33.5078 49.4359 38.711C49.0094 49.0469 48.6438 49.961 45.9625 46.8672C44.6219 45.3203 44.4391 44.5469 44.6219 42.086C44.8047 40.4688 45.1094 38.5 45.4141 37.7969C45.7188 36.8828 45.7188 36.6016 45.2922 36.8828C44.1344 37.7266 43.1594 43.4219 43.5859 46.6563C44.1344 50.2422 45.3531 52.1407 47.3641 52.1407C48.1562 52.1407 48.8875 52.5625 49.0094 52.9844C51.5688 64.0235 53.7016 68.2422 57.7234 69.7891C60.4656 70.8438 69.1797 70.3516 71.6172 68.9453C73.8719 67.75 74.6641 65.7813 75.8828 59.1016C76.9188 53.4063 77.8328 52.1407 80.8187 52.1407C81.8547 52.1407 83.3781 51.5782 84.1094 50.875C85.8766 49.2578 86.3641 44.336 85.0844 40.5391L84.1703 37.7266V41.1016C84.1094 44.8282 82.1594 47.9219 79.8438 47.9219C78.8078 47.9219 78.625 47.4297 78.5641 44.8985C78.5031 42.1563 78.5031 42.086 78.0156 43.9844C77.7109 45.1094 76.9188 46.6563 76.2484 47.5C75.5781 48.3438 74.0547 51.2969 72.8969 54.0391C71.6781 56.8516 70.0328 59.6641 69.1797 60.2969C67.1078 61.8438 62.2938 62.336 59.4906 61.2813C54.7375 59.5235 51.0813 51.4375 50.2281 40.961C49.5578 32.8047 52.6047 19.4453 56.4438 13.6797C57.2969 12.3438 57.9062 11.0781 57.7234 10.9375C57.175 10.2344 53.3969 17.2656 51.9953 21.5547L50.6547 25.7735V20.6406C50.5938 15.4375 49.5578 11.2891 48.0953 10.2344C47.6078 9.88283 46.1453 9.46095 44.8047 9.1797L42.3672 8.75783L44.6828 7.56252C47.3641 6.22658 49.6188 6.64845 50.8984 8.75783C51.3859 9.60158 51.8125 9.88283 51.8125 9.46095C51.8125 8.96877 51.2641 7.98439 50.5328 7.21095L49.2531 5.87502L51.6297 4.39845C58.2719 0.531265 69.4234 -0.0312347 77.0406 3.13283ZM87.8875 12.5547C89.0453 13.75 89.4109 16.2813 88.4359 16.2813C88.1312 16.2813 87.7047 15.6485 87.4609 14.9453C87.2781 14.1719 86.7297 13.3985 86.2422 13.1875C85.1453 12.7656 85.0234 11.3594 86.0594 11.3594C86.425 11.3594 87.2781 11.8516 87.8875 12.5547ZM44.5 13.1172C45.475 14.4531 44.8047 17.7578 43.1594 19.7969C41.8797 21.3438 41.8188 21.3438 41.0266 20.0781C40.4781 19.2344 40.2953 17.8281 40.4781 16.4219C41.0266 12.4141 42.9156 10.8672 44.5 13.1172ZM85.2063 17.4766C85.45 19.4453 83.7438 23.3125 82.6469 23.3125C80.9406 23.3125 80.575 19.5156 82.0375 17.125C83.1953 15.1563 84.9625 15.3672 85.2063 17.4766ZM43.2812 23.7344C43.2812 24.2969 42.7328 24.7188 42.0625 24.7188C40.9047 24.7188 40.4172 23.3828 41.2094 22.3985C41.8188 21.7656 43.2812 22.6797 43.2812 23.7344ZM83.3781 25.9141C83.1344 27.461 82.0375 27.3203 81.7938 25.8438C81.6719 25.1406 81.9766 24.7188 82.5859 24.7188C83.1953 24.7188 83.5 25.211 83.3781 25.9141ZM36.5172 60.3672C37.6141 63.7422 44.8656 71.8282 49.2531 74.5C59.2469 80.5469 72.6531 79.9844 83.4391 73.0235C86.8516 70.8438 94.0422 63.25 94.6516 61.2813C94.8344 60.5782 95.1391 60.4375 95.6266 60.9297C96.8453 62.2657 95.1391 66.9063 91.9703 70.8438C86.1813 77.8047 77.5891 81.461 65.2188 82.1641C49.2531 83.0782 36.9438 76.1875 34.6891 65.0078C34.1406 62.336 34.5063 57.7657 35.2984 57.7657C35.5422 57.7657 36.0906 58.8907 36.5172 60.3672ZM35.3594 70.5625C38.8937 81.1797 46.45 86.2422 60.0391 87.086C75.0297 88 86.7906 83.8516 93.4938 75.3438C96.0531 72.1094 96.5406 71.9688 97.7594 74.0782C99.0391 76.3282 103.731 95.5235 103.853 98.6875C103.975 104.102 98.6734 107.969 85.6328 111.977C81.6109 113.242 77.7719 114.789 77.1016 115.422C75.9437 116.547 71.4953 119.641 71.0687 119.641C70.9469 119.641 70.7031 119.008 70.5203 118.164C70.2156 116.828 69.85 116.758 66.6203 117.109C64.0609 117.391 63.6953 117.32 65.3406 116.898C68.0828 116.266 70.7031 114.297 70.7031 112.961C70.7031 110.43 66.0109 109.797 60.1609 111.555C56.1391 112.75 53.0312 112.891 53.0312 111.906C53.0312 110.711 55.5297 109.656 59.9781 109.023C65.4016 108.25 66.4375 107.828 66.4375 106.563C66.4375 105.438 65.3406 105.297 64.0609 106.211C63.6344 106.563 62.7203 106.633 62.1109 106.492C61.1969 106.211 61.075 105.93 61.6234 105.156C63.025 103.188 68.4484 104.313 72.5312 107.477C73.6891 108.32 75.0906 109.094 75.7 109.094C76.2484 109.094 81.7328 106.211 87.8266 102.766C93.8594 99.25 98.3688 96.4375 97.8203 96.4375C96.6016 96.4375 94.6516 91.586 93.7375 86.1016C93.0062 81.5313 92.0312 79.6328 92.0312 82.6563C92.0312 84.4141 91.9094 84.5547 90.9953 83.711C90.0813 82.8672 90.0203 82.8672 90.4469 84.1328C90.7516 84.9063 91.1172 87.1563 91.2391 89.125C91.4828 92.1485 91.3609 92.9922 90.1422 94.6094C88.0094 97.4219 83.5 97.7735 76.7359 95.7344C73.9328 94.8907 70.0938 93.7657 68.2656 93.2735C65.5844 92.5703 65.2188 92.3594 66.4375 92.0782C67.5344 91.7969 67.2297 91.6563 65.4625 91.586C64.0609 91.586 58.5766 92.7813 53.275 94.3282C42.9766 97.2813 37.6141 97.8438 35.6031 96.086C33.9578 94.6094 33.3484 94.8203 34.1406 96.5078C35.0547 98.4766 39.3813 100.656 42.3672 100.656C43.7078 100.656 47.8516 99.8125 51.5078 98.8985C65.0359 95.3125 64.7922 95.3125 73.4453 97.4922C81.3672 99.3907 84.9625 100.797 85.6328 102.063C86.1813 103.047 76.3703 108.461 75.0906 107.898C74.5422 107.617 73.0797 106.703 71.9219 105.859C70.7641 105.016 68.3875 103.891 66.6813 103.398C63.8172 102.625 63.3906 102.695 61.5016 103.961C60.3438 104.734 58.5766 105.438 57.4797 105.438C56.4438 105.438 54.4938 106.141 53.1531 106.914C51.3859 107.969 50.1063 108.25 48.6438 107.898C46.2672 107.406 40.8438 104.523 35.6641 101.008C33.6531 99.6719 31.7641 98.4766 31.4594 98.336C31.0938 98.1953 31.4594 95.875 32.2516 93.2032C33.2875 89.4063 33.9578 88.0703 35.3594 87.1563C36.3953 86.5235 37.1875 85.6094 37.1875 85.1875C37.1875 84.7657 36.4562 84.9766 35.6031 85.6797L33.9578 86.875L34.2625 84.4844C34.5063 82.8672 34.3844 82.375 34.0187 83.0782C33.7141 83.6407 32.2516 86.5938 30.7281 89.6875C29.0828 92.9219 27.4375 95.3828 26.7063 95.5938C25.4875 95.9453 27.3156 97.211 42.1844 106.141C47.0594 109.023 50.5938 109.375 54.9813 107.266C57.0531 106.352 58.0281 106.141 58.5156 106.703C59.0031 107.266 58.2719 107.828 56.0172 108.813C52.0563 110.5 50.8984 112.258 52.8484 113.805L54.25 114.859L52.6656 116.336C51.2031 117.602 50.8375 117.672 47.6688 116.828C42.1844 115.492 33.8969 112.258 25 108.109C15.7984 103.75 15.5547 103.469 16.1031 97.1407C16.5906 90.8828 23.2328 76.3985 28.7781 69.4375C32.4953 64.7266 33.2266 64.0938 33.5922 65.2188C33.8359 65.9922 34.6281 68.3828 35.3594 70.5625ZM112.202 107.688C111.897 109.023 111.47 110.711 111.227 111.414C110.922 112.328 111.044 112.539 111.653 112.258C113.177 111.555 117.991 118.234 119.088 122.523C121.281 130.961 119.636 136.305 113.786 139.68C109.825 141.93 107.875 142 107.814 139.82C107.814 138.625 107.57 138.836 106.839 140.875C105.803 143.828 105.072 144.18 96.175 146.078C92.7016 146.852 89.7156 147.063 87.4609 146.711C84.4141 146.289 84.1094 146.078 84.1094 144.531C84.1094 142.07 83.3781 142.492 81.9766 145.867C80.9406 148.398 80.0875 149.242 76.1875 151.492C69.5453 155.359 63.5125 156.484 52.1172 155.992C39.1984 155.43 32.8609 153.18 27.4375 147.344C24.0859 143.688 22.1969 139.117 22.8062 136.094C23.1719 134.477 23.1109 134.266 22.3797 135.039C21.8922 135.461 21.2828 136.727 21.0391 137.711C20.6734 139.469 20.5516 139.539 16.8344 139.117C14.7016 138.906 11.8375 138.203 10.4359 137.5C6.475 135.672 3.0625 129.695 3.0625 124.422C3.0625 120.133 6.71875 114.297 11.7766 110.43C15.1281 107.828 15.5547 107.688 17.4438 108.391C18.9062 108.953 19.3328 109.516 19.0891 110.289C18.7844 111.203 18.9062 111.273 20.0031 110.57C21.1 109.867 21.3438 109.938 21.3438 110.922C21.3438 111.625 21.6484 111.906 22.2578 111.625C22.8062 111.414 23.3547 111.695 23.5984 112.328C24.0859 113.734 27.3156 115.633 28.2297 114.93C29.0219 114.367 31.0938 114.578 32.0078 115.422C32.3734 115.703 33.8969 116.336 35.5422 116.898C38.5281 117.883 39.1375 118.586 37.3703 119.148C36.5172 119.43 36.6391 119.5 37.675 119.57C38.4062 119.57 39.0156 119.359 39.0156 118.938C39.0156 118.305 41.9406 118.586 43.8906 119.43C44.3781 119.711 45.1703 119.781 45.6578 119.711C47.1813 119.43 49.4359 120.344 49.0094 121.188C48.7656 121.609 48.9484 121.82 49.4359 121.609C50.4109 121.188 53.6406 122.875 53.6406 123.719C53.6406 124.07 54.9203 124.352 56.5656 124.492C58.15 124.563 59.5516 124.914 59.6125 125.336C59.9781 126.391 66.3156 126.039 68.2656 124.914C69.3016 124.281 70.0938 124 70.0938 124.281C70.0938 124.563 70.4594 124.422 70.8859 124C71.5563 123.367 73.6281 122.805 74.3594 123.156C75.9437 123.789 76.6141 123.578 76.3703 122.453C76.1875 121.75 76.3703 120.977 76.7359 120.766C77.1016 120.484 77.4062 120.695 77.4062 121.258C77.4062 121.961 77.8328 122.172 78.6859 121.961C79.5391 121.68 79.8438 121.117 79.6609 120.273C79.4781 119.43 79.6609 118.938 80.1484 118.938C80.6359 118.938 81.1234 119.5 81.2453 120.133C81.4891 121.117 81.55 120.977 81.6109 119.781C81.6719 118.023 83.3172 117.672 83.8656 119.289C84.2922 120.484 85.9375 120.766 85.9375 119.57C85.9375 119.219 86.2422 119.078 86.5469 119.289C86.9125 119.5 87.1562 119.078 87.1562 118.305C87.1562 116.195 89.9594 115.492 91.1781 117.25C92.0312 118.516 92.0922 118.516 91.9094 117.18C91.7266 116.055 92.3969 115.492 95.6266 114.227C97.7594 113.313 99.7094 112.82 100.014 113.031C100.319 113.242 100.562 113.102 100.562 112.75C100.562 112.398 101.111 111.906 101.781 111.695C102.695 111.414 103 111.695 103 112.75C103 113.523 103.305 113.875 103.609 113.664C103.975 113.383 104.097 112.609 103.914 111.906C103.67 110.922 104.036 110.43 105.681 109.797C106.9 109.375 108.119 109.164 108.423 109.445C108.728 109.656 109.764 108.742 110.739 107.406C111.653 106.07 112.445 105.016 112.567 105.086C112.628 105.227 112.445 106.352 112.202 107.688ZM25.9141 112.609C26.0969 112.961 26.0359 113.313 25.6703 113.313C25.3656 113.313 24.8781 112.961 24.6953 112.609C24.5125 112.188 24.5734 111.906 24.9391 111.906C25.2438 111.906 25.7313 112.188 25.9141 112.609ZM69.4844 112.539C69.4844 113.383 63.6344 114.297 62.6594 113.594C62.1109 113.172 62.4156 112.82 63.6953 112.539C66.4984 111.836 69.4844 111.836 69.4844 112.539ZM60.9531 116.055C60.9531 117.109 55.1031 118.445 53.8234 117.602C52.7875 116.969 52.8484 116.828 54.25 116.195C56.2 115.352 60.9531 115.211 60.9531 116.055ZM68.0828 119.008C66.4984 120.063 60.3438 120.695 60.3438 119.781C60.3438 118.727 61.3797 118.445 65.5234 118.375C68.3266 118.305 68.9359 118.445 68.0828 119.008ZM58.8203 121.75C60.5875 122.242 60.5875 122.313 58.2109 122.383C56.8703 122.383 55.3469 122.102 54.8594 121.75C54.1281 121.188 54.25 121.117 55.4688 121.117C56.3219 121.188 57.8453 121.469 58.8203 121.75ZM67.6562 123.156C67.1688 123.508 66.0719 123.789 65.2188 123.789L63.6953 123.719L65.2188 123.156C66.0719 122.875 67.1688 122.594 67.6562 122.523C68.4484 122.453 68.4484 122.523 67.6562 123.156Z" fill="#575775"/>
</svg>
