<svg width="142" height="195" viewBox="0 0 142 195" fill="none" xmlns="http://www.w3.org/2000/svg">
<g opacity="0.6" filter="url(#filter0_f_4230_21233)">
<ellipse cx="29.7698" cy="175.678" rx="14.5862" ry="4.32184" fill="#575775"/>
</g>
<circle cx="29.4996" cy="153.259" r="22.3941" fill="white"/>
<path d="M53 153.259C53 166.237 42.4787 176.759 29.5 176.759C16.5213 176.759 6 166.237 6 153.259C6 140.28 16.5213 129.759 29.5 129.759C42.4787 129.759 53 140.28 53 153.259ZM8.49362 153.259C8.49362 164.86 17.8985 174.265 29.5 174.265C41.1015 174.265 50.5064 164.86 50.5064 153.259C50.5064 141.657 41.1015 132.252 29.5 132.252C17.8985 132.252 8.49362 141.657 8.49362 153.259Z" fill="#575775"/>
<path d="M31.5295 162.801C31.3632 162.983 31.1039 163.047 30.872 162.963L23.2178 160.205C22.962 160.113 22.798 159.862 22.8156 159.591L23.3665 151.119C23.3841 150.849 23.5904 150.495 23.8539 150.435L31.4212 148.84C31.6466 148.789 31.8816 148.87 32.0283 149.048L37.4048 155.597C37.5975 155.831 37.5884 156.172 37.3836 156.396L31.5295 162.801Z" fill="#575775"/>
<path d="M40.4698 138.204C40.4799 138.487 40.2952 138.739 40.0231 138.814L33.9801 140.493C33.7592 140.554 33.5225 140.487 33.3673 140.318L28.7853 135.332C28.5818 135.11 28.5699 134.773 28.7573 134.538L31.7547 130.776C31.913 130.577 32.1779 130.497 32.4197 130.575L39.8798 132.984C40.1242 133.063 40.293 133.287 40.3023 133.543L40.4698 138.204Z" fill="#575775"/>
<path d="M17.995 137.896C18.3533 137.951 18.5849 138.304 18.4923 138.655L16.9107 144.713C16.8682 144.874 16.5984 145.167 16.4529 145.247L11.2576 148.109C10.8889 148.313 10.4289 148.091 10.3596 147.676L9.93002 145.098C9.9051 144.948 9.93669 144.795 10.0187 144.668L14.4838 137.722C14.6142 137.519 14.8517 137.412 15.0901 137.449L17.995 137.896Z" fill="#575775"/>
<path d="M48.8639 162.098C48.7455 162.321 48.4225 162.312 48.3169 162.082L44.836 154.479C44.7779 154.353 44.7256 153.928 44.7597 153.793L46.4385 147.224C46.5222 146.892 46.8613 146.694 47.1909 146.784L49.5552 147.429C49.793 147.494 49.9685 147.695 50 147.94L51.2201 157.415C51.2362 157.54 51.2131 157.667 51.154 157.779L48.8639 162.098Z" fill="#575775"/>
<path d="M33.0097 168.976C33.0979 168.9 33.6565 168.666 33.7727 168.671L42.9811 169.15C43.4153 169.168 43.5821 169.724 43.2297 169.978L36.4868 174.841C36.4088 174.897 36.3152 174.927 36.219 174.927H27.4517C27.0273 174.927 26.8314 174.4 27.1529 174.123L33.0097 168.976Z" fill="#575775"/>
<path d="M16.7581 162.643C16.8939 162.724 17.1369 163.095 17.1396 163.254L17.0434 170.576C17.0506 170.989 16.5491 171.199 16.2592 170.904L8.64033 163.151C8.51855 163.027 8.47743 162.845 8.53417 162.68L9.81493 158.981C9.90981 158.706 10.3286 158.832 10.5779 158.981L16.7581 162.643Z" fill="#575775"/>
<path d="M31.4212 148.84C31.6466 148.789 31.8816 148.87 32.0283 149.048L33.9801 140.493C33.7592 140.554 33.5225 140.487 33.3673 140.318L31.4212 148.84Z" fill="#575775"/>
<path d="M37.4048 155.597C37.5975 155.831 37.5884 156.172 37.3836 156.396L44.836 154.479C44.7779 154.353 44.7256 153.928 44.7597 153.793L37.4048 155.597Z" fill="#575775"/>
<path d="M31.5295 162.801C31.3632 162.983 31.1039 163.047 30.872 162.963L33.0097 168.976C33.0979 168.9 33.6565 168.666 33.7727 168.671L31.5295 162.801Z" fill="#575775"/>
<path d="M23.3665 151.119C23.3841 150.849 23.5904 150.495 23.8539 150.435L16.9107 144.713C16.8682 144.874 16.5984 145.167 16.4529 145.247L23.3665 151.119Z" fill="#575775"/>
<path d="M23.2178 160.205C22.962 160.113 22.798 159.862 22.8156 159.591L16.7581 162.643C16.8939 162.724 17.1369 163.095 17.1396 163.254L23.2178 160.205Z" fill="#575775"/>
<path d="M40.4698 138.204C40.4799 138.487 40.2952 138.739 40.0231 138.814C42.1108 140.572 46.3166 144.715 46.4385 147.224C46.5222 146.892 46.8613 146.694 47.1909 146.784C46.2901 143.316 42.3348 139.619 40.4698 138.204Z" fill="#575775"/>
<path d="M28.7853 135.332C28.5818 135.11 28.5699 134.773 28.7573 134.538C25.4164 133.904 20.1904 136.512 17.995 137.896C18.3533 137.951 18.5849 138.304 18.4923 138.655C20.396 137.396 25.1197 134.968 28.7853 135.332Z" fill="#575775"/>
<path d="M11.2576 148.109C10.8889 148.313 10.4289 148.091 10.3596 147.676C9.3304 149.374 9.60349 155.819 9.81493 158.981C9.90981 158.706 10.3286 158.832 10.5779 158.981C10.5646 155.604 10.5195 148.75 11.2576 148.109Z" fill="#575775"/>
<path fill-rule="evenodd" clip-rule="evenodd" d="M130.036 0C123.429 0 118.073 5.34518 118.073 11.9388V180H142V11.9388C142 5.34518 136.644 0 130.036 0ZM130.036 4.40816C125.665 4.40816 122.122 7.94424 122.122 12.3061V175.592H137.951V12.3061C137.951 7.94424 134.408 4.40816 130.036 4.40816Z" fill="#262541"/>
<ellipse cx="108.211" cy="30.9373" rx="23.365" ry="23.5853" fill="white"/>
<path d="M132.729 30.9375C132.729 44.6065 121.752 55.6875 108.21 55.6875C94.6688 55.6875 83.6914 44.6065 83.6914 30.9375C83.6914 17.2685 94.6688 6.1875 108.21 6.1875C121.752 6.1875 132.729 17.2685 132.729 30.9375ZM86.2931 30.9375C86.2931 43.1561 96.1057 53.0612 108.21 53.0612C120.315 53.0612 130.127 43.1561 130.127 30.9375C130.127 18.7189 120.315 8.81375 108.21 8.81375C96.1057 8.81375 86.2931 18.7189 86.2931 30.9375Z" fill="#575775"/>
<path d="M110.328 40.9872C110.154 41.1788 109.884 41.2463 109.642 41.1583L101.656 38.2532C101.389 38.1561 101.218 37.8925 101.236 37.6067L101.811 28.6842C101.829 28.4002 102.044 28.0274 102.319 27.9643L110.215 26.2844C110.45 26.2305 110.695 26.3152 110.848 26.5034L116.458 33.3999C116.659 33.647 116.649 34.0056 116.436 34.2415L110.328 40.9872Z" fill="#575775"/>
<path d="M119.656 15.0825C119.666 15.3797 119.473 15.6454 119.19 15.725L112.885 17.4929C112.654 17.5575 112.407 17.4863 112.245 17.3085L107.465 12.0569C107.252 11.8237 107.24 11.4691 107.435 11.2214L110.563 7.25858C110.728 7.04927 111.004 6.96514 111.256 7.04738L119.04 9.58472C119.295 9.66783 119.471 9.90311 119.481 10.1734L119.656 15.0825Z" fill="#575775"/>
<path d="M96.2064 14.7574C96.5803 14.8155 96.8219 15.1878 96.7253 15.557L95.0751 21.9375C95.0308 22.1069 94.7493 22.4151 94.5975 22.5L89.1769 25.5141C88.7922 25.7293 88.3123 25.4955 88.24 25.0575L87.7918 22.3429C87.7658 22.1854 87.7988 22.0238 87.8843 21.8896L92.543 14.5745C92.679 14.3608 92.9269 14.2481 93.1755 14.2867L96.2064 14.7574Z" fill="#575775"/>
<path d="M128.414 40.247C128.29 40.4822 127.953 40.4725 127.843 40.2306L124.211 32.2232C124.15 32.0899 124.096 31.6422 124.131 31.5L125.883 24.5816C125.97 24.2328 126.324 24.0242 126.668 24.1188L129.135 24.7979C129.383 24.8662 129.566 25.0785 129.599 25.336L130.872 35.3152C130.889 35.4471 130.865 35.581 130.803 35.6984L128.414 40.247Z" fill="#575775"/>
<path d="M111.872 47.4911C111.964 47.4111 112.547 47.1645 112.668 47.1696L122.276 47.6738C122.729 47.693 122.903 48.2788 122.535 48.5466L115.5 53.6678C115.419 53.7271 115.321 53.7589 115.221 53.7589H106.073C105.63 53.7589 105.426 53.2033 105.761 52.9115L111.872 47.4911Z" fill="#575775"/>
<path d="M94.9159 40.8214C95.0576 40.9069 95.3111 41.2977 95.3139 41.4643L95.2136 49.1757C95.2211 49.6113 94.6978 49.8327 94.3954 49.522L86.4462 41.3559C86.3191 41.2254 86.2762 41.0335 86.3354 40.8605L87.6717 36.9643C87.7707 36.6751 88.2076 36.8073 88.4678 36.9643L94.9159 40.8214Z" fill="#575775"/>
<path d="M110.215 26.2844C110.45 26.2305 110.695 26.3152 110.848 26.5034L112.885 17.4929C112.654 17.5575 112.407 17.4863 112.245 17.3085L110.215 26.2844Z" fill="#575775"/>
<path d="M116.458 33.3999C116.659 33.647 116.649 34.0056 116.436 34.2415L124.211 32.2232C124.15 32.0899 124.096 31.6422 124.131 31.5L116.458 33.3999Z" fill="#575775"/>
<path d="M110.328 40.9872C110.154 41.1788 109.884 41.2463 109.642 41.1583L111.872 47.4911C111.964 47.4111 112.547 47.1645 112.668 47.1696L110.328 40.9872Z" fill="#575775"/>
<path d="M101.811 28.6842C101.829 28.4002 102.044 28.0274 102.319 27.9643L95.0751 21.9375C95.0308 22.1069 94.7493 22.4151 94.5975 22.5L101.811 28.6842Z" fill="#575775"/>
<path d="M101.656 38.2532C101.389 38.1561 101.218 37.8925 101.236 37.6067L94.9159 40.8214C95.0576 40.9069 95.3111 41.2977 95.3139 41.4643L101.656 38.2532Z" fill="#575775"/>
<path d="M119.656 15.0825C119.666 15.3797 119.473 15.6454 119.19 15.725C121.368 17.5765 125.756 21.9398 125.883 24.5816C125.97 24.2328 126.324 24.0242 126.668 24.1188C125.728 20.4665 121.601 16.5728 119.656 15.0825Z" fill="#575775"/>
<path d="M107.465 12.0569C107.252 11.8237 107.24 11.4691 107.435 11.2214C103.95 10.553 98.497 13.3002 96.2064 14.7574C96.5803 14.8155 96.8219 15.1878 96.7253 15.557C98.7115 14.2307 103.64 11.6739 107.465 12.0569Z" fill="#575775"/>
<path d="M89.1769 25.5141C88.7922 25.7293 88.3123 25.4955 88.24 25.0575C87.1662 26.8463 87.4511 33.6341 87.6717 36.9643C87.7707 36.6751 88.2076 36.8073 88.4678 36.9643C88.4539 33.4079 88.4069 26.1896 89.1769 25.5141Z" fill="#575775"/>
<ellipse cx="107.083" cy="89.9998" rx="23.365" ry="23.5853" fill="white"/>
<path d="M131.601 90C131.601 103.669 120.624 114.75 107.082 114.75C93.5409 114.75 82.5635 103.669 82.5635 90C82.5635 76.331 93.5409 65.25 107.082 65.25C120.624 65.25 131.601 76.331 131.601 90ZM85.1652 90C85.1652 102.219 94.9778 112.124 107.082 112.124C119.187 112.124 128.999 102.219 128.999 90C128.999 77.7814 119.187 67.8763 107.082 67.8763C94.9778 67.8763 85.1652 77.7814 85.1652 90Z" fill="#575775"/>
<path d="M109.2 100.05C109.026 100.241 108.756 100.309 108.514 100.221L100.528 97.3157C100.261 97.2186 100.09 96.955 100.108 96.6692L100.683 87.7467C100.701 87.4627 100.916 87.0899 101.191 87.0268L109.087 85.3469C109.322 85.293 109.567 85.3777 109.72 85.5659L115.33 92.4624C115.531 92.7095 115.521 93.0681 115.308 93.304L109.2 100.05Z" fill="#575775"/>
<path d="M118.528 74.145C118.538 74.4422 118.345 74.7079 118.062 74.7875L111.757 76.5554C111.526 76.62 111.279 76.5488 111.117 76.371L106.337 71.1194C106.124 70.8862 106.112 70.5316 106.307 70.2839L109.435 66.3211C109.6 66.1118 109.876 66.0276 110.129 66.1099L117.912 68.6472C118.167 68.7303 118.343 68.9656 118.353 69.2359L118.528 74.145Z" fill="#575775"/>
<path d="M95.0785 73.8199C95.4524 73.878 95.694 74.2503 95.5974 74.6195L93.9472 81C93.9029 81.1694 93.6214 81.4776 93.4696 81.5625L88.049 84.5766C87.6643 84.7918 87.1844 84.558 87.1121 84.12L86.6639 81.4054C86.6379 81.2479 86.6708 81.0863 86.7564 80.9521L91.4151 73.637C91.5511 73.4233 91.799 73.3106 92.0476 73.3492L95.0785 73.8199Z" fill="#575775"/>
<path d="M127.286 99.3095C127.162 99.5447 126.825 99.535 126.715 99.2931L123.083 91.2857C123.022 91.1524 122.968 90.7047 123.004 90.5625L124.755 83.6441C124.842 83.2953 125.196 83.0867 125.54 83.1813L128.007 83.8604C128.255 83.9287 128.438 84.141 128.471 84.3985L129.744 94.3777C129.761 94.5096 129.737 94.6435 129.675 94.7609L127.286 99.3095Z" fill="#575775"/>
<path d="M110.744 106.554C110.836 106.474 111.419 106.227 111.54 106.232L121.148 106.736C121.601 106.755 121.775 107.341 121.407 107.609L114.372 112.73C114.291 112.79 114.193 112.821 114.093 112.821H104.945C104.502 112.821 104.298 112.266 104.633 111.974L110.744 106.554Z" fill="#575775"/>
<path d="M93.788 99.8839C93.9297 99.9694 94.1832 100.36 94.186 100.527L94.0857 108.238C94.0932 108.674 93.5699 108.895 93.2674 108.584L85.3183 100.418C85.1912 100.288 85.1483 100.096 85.2075 99.923L86.5438 96.0268C86.6428 95.7376 87.0797 95.8698 87.3399 96.0268L93.788 99.8839Z" fill="#575775"/>
<path d="M109.087 85.3469C109.322 85.293 109.567 85.3777 109.72 85.5659L111.757 76.5554C111.526 76.62 111.279 76.5488 111.117 76.371L109.087 85.3469Z" fill="#575775"/>
<path d="M115.33 92.4624C115.531 92.7095 115.521 93.0681 115.308 93.304L123.083 91.2857C123.022 91.1524 122.968 90.7047 123.004 90.5625L115.33 92.4624Z" fill="#575775"/>
<path d="M109.2 100.05C109.026 100.241 108.756 100.309 108.514 100.221L110.744 106.554C110.836 106.474 111.419 106.227 111.54 106.232L109.2 100.05Z" fill="#575775"/>
<path d="M100.683 87.7467C100.701 87.4627 100.916 87.0899 101.191 87.0268L93.9472 81C93.9029 81.1694 93.6214 81.4776 93.4696 81.5625L100.683 87.7467Z" fill="#575775"/>
<path d="M100.528 97.3157C100.261 97.2186 100.09 96.955 100.108 96.6692L93.788 99.8839C93.9297 99.9694 94.1832 100.36 94.186 100.527L100.528 97.3157Z" fill="#575775"/>
<path d="M118.528 74.145C118.538 74.4422 118.345 74.7079 118.062 74.7875C120.24 76.639 124.628 81.0023 124.755 83.6441C124.842 83.2953 125.196 83.0867 125.54 83.1813C124.6 79.529 120.473 75.6353 118.528 74.145Z" fill="#575775"/>
<path d="M106.337 71.1194C106.124 70.8862 106.112 70.5316 106.307 70.2839C102.822 69.6155 97.3691 72.3627 95.0785 73.8199C95.4524 73.878 95.694 74.2503 95.5974 74.6195C97.5836 73.2932 102.512 70.7364 106.337 71.1194Z" fill="#575775"/>
<path d="M88.049 84.5766C87.6643 84.7918 87.1844 84.558 87.1121 84.12C86.0383 85.9088 86.3232 92.6966 86.5438 96.0268C86.6428 95.7376 87.0797 95.8698 87.3399 96.0268C87.326 92.4704 87.2789 85.2521 88.049 84.5766Z" fill="#575775"/>
<path d="M128.817 41.1429C130.202 41.1429 131.349 42.3143 130.729 43.5507C130.373 44.2626 129.858 44.9589 129.189 45.629C127.781 47.0409 125.724 48.3046 123.152 49.3381C120.579 50.3715 117.549 51.1516 114.258 51.6277C110.967 52.1037 107.488 52.265 104.048 52.1012C100.609 51.9373 97.2845 51.452 94.2919 50.6766C91.2993 49.9013 88.7052 48.8533 86.6781 47.6007C84.651 46.3482 83.2362 44.9191 82.5258 43.4063C82.0526 42.3987 81.8988 41.369 82.0644 40.3472C82.219 39.3928 83.1949 38.8815 84.1593 38.9744C85.7597 39.1286 86.7217 40.9897 87.2536 42.504C87.3055 42.6518 87.3659 42.7991 87.4348 42.9459C88.0008 44.151 89.1278 45.2895 90.7426 46.2873C92.3574 47.2851 94.4239 48.1199 96.8079 48.7376C99.1918 49.3553 101.84 49.7419 104.58 49.8724C107.32 50.0029 110.091 49.8744 112.713 49.4952C115.335 49.116 117.749 48.4946 119.798 47.6713C121.847 46.848 123.486 45.8413 124.608 44.7166C125 44.3229 125.327 43.9178 125.585 43.5047C126.318 42.3319 127.432 41.1429 128.817 41.1429Z" fill="#262541"/>
<path d="M128.748 41.1429H138.319V44.8163H128.748V41.1429Z" fill="#262541"/>
<path d="M128.817 100.286C130.202 100.286 131.349 101.457 130.729 102.694C130.373 103.405 129.858 104.102 129.189 104.772C127.781 106.184 125.724 107.447 123.152 108.481C120.579 109.514 117.549 110.294 114.258 110.77C110.967 111.247 107.488 111.408 104.048 111.244C100.609 111.08 97.2845 110.595 94.2919 109.819C91.2993 109.044 88.7052 107.996 86.6781 106.744C84.651 105.491 83.2362 104.062 82.5258 102.549C82.0526 101.542 81.8988 100.512 82.0644 99.49C82.219 98.5356 83.1949 98.0243 84.1593 98.1172C85.7597 98.2715 86.7217 100.133 87.2536 101.647C87.3055 101.795 87.3659 101.942 87.4348 102.089C88.0008 103.294 89.1278 104.432 90.7426 105.43C92.3574 106.428 94.4239 107.263 96.8079 107.88C99.1918 108.498 101.84 108.885 104.58 109.015C107.32 109.146 110.091 109.017 112.713 108.638C115.335 108.259 117.749 107.637 119.798 106.814C121.847 105.991 123.486 104.984 124.608 103.859C125 103.466 125.327 103.061 125.585 102.647C126.318 101.475 127.432 100.286 128.817 100.286Z" fill="#262541"/>
<path d="M128.748 100.286H138.319V103.959H128.748V100.286Z" fill="#262541"/>
<path d="M131.326 161.851C131.326 165.497 120.284 168.452 106.663 168.452C93.042 168.452 82 165.497 82 161.851C82 158.205 93.042 155.25 106.663 155.25C120.284 155.25 131.326 158.205 131.326 161.851ZM87.0161 161.851C87.0161 164.755 95.8123 167.109 106.663 167.109C117.514 167.109 126.31 164.755 126.31 161.851C126.31 158.947 117.514 156.593 106.663 156.593C95.8123 156.593 87.0161 158.947 87.0161 161.851Z" fill="#262541"/>
<path d="M128.749 160.312H138.32V164.051H128.749V160.312Z" fill="#262541"/>
<defs>
<filter id="filter0_f_4230_21233" x="0.183594" y="156.356" width="59.1729" height="38.6438" filterUnits="userSpaceOnUse" color-interpolation-filters="sRGB">
<feFlood flood-opacity="0" result="BackgroundImageFix"/>
<feBlend mode="normal" in="SourceGraphic" in2="BackgroundImageFix" result="shape"/>
<feGaussianBlur stdDeviation="7.5" result="effect1_foregroundBlur_4230_21233"/>
</filter>
</defs>
</svg>
