<svg width="24" height="24" viewBox="0 0 24 24" fill="none" xmlns="http://www.w3.org/2000/svg">
<rect width="24" height="24" rx="12" fill="#D3F8F7"/>
<path fill-rule="evenodd" clip-rule="evenodd" d="M12 6.375C12.3452 6.375 12.625 6.65482 12.625 7V11.375H17C17.3452 11.375 17.625 11.6548 17.625 12C17.625 12.3452 17.3452 12.625 17 12.625H12.625V17C12.625 17.3452 12.3452 17.625 12 17.625C11.6548 17.625 11.375 17.3452 11.375 17V12.625H7C6.65482 12.625 6.375 12.3452 6.375 12C6.375 11.6548 6.65482 11.375 7 11.375H11.375V7C11.375 6.65482 11.6548 6.375 12 6.375Z" fill="#148783"/>
</svg>
