<svg width="18" height="18" viewBox="0 0 18 18" fill="none" xmlns="http://www.w3.org/2000/svg">
<path d="M9 3.79167C9.34518 3.79167 9.625 3.51184 9.625 3.16667V2.57152C9.41933 2.55177 9.21084 2.54167 9 2.54167C8.78915 2.54167 8.58067 2.55177 8.375 2.57152V3.16667C8.375 3.51184 8.65482 3.79167 9 3.79167Z" fill="#575775"/>
<path d="M14.8333 8.375C14.4882 8.375 14.2083 8.65482 14.2083 9C14.2083 9.34518 14.4882 9.625 14.8333 9.625H15.4285C15.4482 9.41933 15.4583 9.21084 15.4583 9C15.4583 8.78915 15.4482 8.58067 15.4285 8.375H14.8333Z" fill="#575775"/>
<path d="M3.79167 9C3.79167 8.65482 3.51184 8.375 3.16667 8.375H2.57152C2.55177 8.58067 2.54167 8.78915 2.54167 9C2.54167 9.21084 2.55177 9.41933 2.57152 9.625H3.16667C3.51184 9.625 3.79167 9.34518 3.79167 9Z" fill="#575775"/>
<path fill-rule="evenodd" clip-rule="evenodd" d="M9 0.875C9.34518 0.875 9.625 1.15482 9.625 1.5V2.57152C9.41933 2.55177 9.21084 2.54167 9 2.54167C8.78915 2.54167 8.58067 2.55177 8.375 2.57152V1.5C8.375 1.15482 8.65482 0.875 9 0.875ZM9 3.79167C8.65482 3.79167 8.375 3.51184 8.375 3.16667V2.57152C5.30709 2.86613 2.86613 5.30709 2.57152 8.375H1.5C1.15482 8.375 0.875 8.65482 0.875 9C0.875 9.34518 1.15482 9.625 1.5 9.625H2.57152C2.86613 12.6929 5.30709 15.1339 8.375 15.4285V16.5C8.375 16.8452 8.65482 17.125 9 17.125C9.34518 17.125 9.625 16.8452 9.625 16.5V15.4285C12.6929 15.1339 15.1339 12.6929 15.4285 9.625H16.5C16.8452 9.625 17.125 9.34518 17.125 9C17.125 8.65482 16.8452 8.375 16.5 8.375H15.4285C15.1339 5.30709 12.6929 2.86613 9.625 2.57152V3.16667C9.625 3.51184 9.34518 3.79167 9 3.79167ZM14.2083 9C14.2083 6.12352 11.8765 3.79167 9 3.79167C6.12352 3.79167 3.79167 6.12352 3.79167 9C3.79167 8.65482 3.51184 8.375 3.16667 8.375H2.57152C2.55177 8.58067 2.54167 8.78915 2.54167 9C2.54167 9.21084 2.55177 9.41933 2.57152 9.625H3.16667C3.51184 9.625 3.79167 9.34518 3.79167 9C3.79167 11.8765 6.12352 14.2083 9 14.2083C8.65482 14.2083 8.375 14.4882 8.375 14.8333V15.4285C8.58067 15.4482 8.78915 15.4583 9 15.4583C9.21084 15.4583 9.41933 15.4482 9.625 15.4285V14.8333C9.625 14.4882 9.34518 14.2083 9 14.2083C11.8765 14.2083 14.2083 11.8765 14.2083 9ZM14.2083 9C14.2083 8.65482 14.4882 8.375 14.8333 8.375H15.4285C15.4482 8.58067 15.4583 8.78915 15.4583 9C15.4583 9.21084 15.4482 9.41933 15.4285 9.625H14.8333C14.4882 9.625 14.2083 9.34518 14.2083 9Z" fill="#575775"/>
<path d="M9.625 14.8333C9.625 14.4882 9.34518 14.2083 9 14.2083C8.65482 14.2083 8.375 14.4882 8.375 14.8333V15.4285C8.58067 15.4482 8.78915 15.4583 9 15.4583C9.21084 15.4583 9.41933 15.4482 9.625 15.4285V14.8333Z" fill="#575775"/>
</svg>
