<svg width="18" height="18" viewBox="0 0 18 18" fill="none" xmlns="http://www.w3.org/2000/svg">
<path fill-rule="evenodd" clip-rule="evenodd" d="M8.08525 3.16475C8.30492 3.38442 8.30492 3.74058 8.08525 3.96025L5.858 6.1875L8.08525 8.41475C8.30492 8.63442 8.30492 8.99058 8.08525 9.21025C7.86558 9.42992 7.50942 9.42992 7.28975 9.21025L4.66475 6.58525C4.44508 6.36558 4.44508 6.00942 4.66475 5.78975L7.28975 3.16475C7.50942 2.94508 7.86558 2.94508 8.08525 3.16475Z" fill="#E2E2E9"/>
<path fill-rule="evenodd" clip-rule="evenodd" d="M4.5 6.1875C4.5 5.87684 4.75184 5.625 5.0625 5.625H9.5625C10.5073 5.625 11.4135 6.00033 12.0816 6.66843C12.7497 7.33653 13.125 8.24267 13.125 9.1875V14.4375C13.125 14.7482 12.8732 15 12.5625 15C12.2518 15 12 14.7482 12 14.4375V9.1875C12 8.54103 11.7432 7.92105 11.2861 7.46393C10.829 7.00681 10.209 6.75 9.5625 6.75H5.0625C4.75184 6.75 4.5 6.49816 4.5 6.1875Z" fill="#EFEFF6"/>
</svg>
