<svg width="14" height="8" viewBox="0 0 14 8" fill="none" xmlns="http://www.w3.org/2000/svg">
<path fill-rule="evenodd" clip-rule="evenodd" d="M0.541016 3.99996C0.541016 3.65478 0.820838 3.37496 1.16602 3.37496H12.8327C13.1779 3.37496 13.4577 3.65478 13.4577 3.99996C13.4577 4.34514 13.1779 4.62496 12.8327 4.62496H1.16602C0.820838 4.62496 0.541016 4.34514 0.541016 3.99996Z" fill="white"/>
<path fill-rule="evenodd" clip-rule="evenodd" d="M13.2746 3.55802C13.5187 3.80209 13.5187 4.19782 13.2746 4.4419L9.94129 7.77523C9.69721 8.01931 9.30149 8.01931 9.05741 7.77523C8.81333 7.53116 8.81333 7.13543 9.05741 6.89135L12.3907 3.55802C12.6348 3.31394 13.0305 3.31394 13.2746 3.55802Z" fill="white"/>
<path fill-rule="evenodd" clip-rule="evenodd" d="M9.05741 0.224684C9.30149 -0.0193934 9.69721 -0.0193934 9.94129 0.224684L13.2746 3.55802C13.5187 3.80209 13.5187 4.19782 13.2746 4.4419C13.0305 4.68598 12.6348 4.68598 12.3907 4.4419L9.05741 1.10857C8.81333 0.86449 8.81333 0.468762 9.05741 0.224684Z" fill="white"/>
</svg>
