<svg width="8" height="14" viewBox="0 0 8 14" fill="none" xmlns="http://www.w3.org/2000/svg">
<path fill-rule="evenodd" clip-rule="evenodd" d="M3.99984 13.4582C4.34502 13.4582 4.62484 13.1783 4.62484 12.8332V1.1665C4.62484 0.821326 4.34502 0.541504 3.99984 0.541504C3.65466 0.541504 3.37484 0.821326 3.37484 1.1665V12.8332C3.37484 13.1783 3.65466 13.4582 3.99984 13.4582Z" fill="#575775"/>
<path fill-rule="evenodd" clip-rule="evenodd" d="M7.77511 4.94178C8.01919 4.6977 8.01919 4.30197 7.77511 4.0579L4.44178 0.724562C4.1977 0.480485 3.80197 0.480485 3.5579 0.724562C3.31382 0.96864 3.31382 1.36437 3.5579 1.60845L6.89123 4.94178C7.13531 5.18586 7.53103 5.18586 7.77511 4.94178Z" fill="#575775"/>
<path fill-rule="evenodd" clip-rule="evenodd" d="M0.224562 4.94178C0.46864 5.18586 0.864368 5.18586 1.10845 4.94178L4.44178 1.60845C4.68586 1.36437 4.68586 0.96864 4.44178 0.724562C4.1977 0.480485 3.80197 0.480485 3.5579 0.724562L0.224562 4.0579C-0.0195155 4.30197 -0.0195155 4.6977 0.224562 4.94178Z" fill="#575775"/>
</svg>
