<svg width="48" height="48" viewBox="0 0 48 48" fill="none" xmlns="http://www.w3.org/2000/svg">
<path d="M1.80685e-06 23.9907C-0.00220336 29.6762 2.01413 35.178 5.68977 39.5156C9.36541 43.8533 14.4616 46.7452 20.0705 47.6761C25.6793 48.607 31.4365 47.5164 36.3163 44.5987C41.1961 41.681 44.8817 37.1256 46.7162 31.7442C48.5508 26.3627 48.4153 20.5047 46.3339 15.2139C44.2525 9.92298 40.3603 5.54287 35.3508 2.85389C30.3413 0.1649 24.5398 -0.658309 18.98 0.530912C13.4202 1.72013 8.46316 4.84455 4.99199 9.34752C1.75728 13.5437 0.00205676 18.6924 1.80685e-06 23.9907Z" fill="url(#paint0_linear_980_20386)"/>
<path d="M0.883569 24.0665C0.875738 29.5456 2.81376 34.8494 6.35225 39.0327C9.89074 43.216 14.7998 46.0069 20.2043 46.9079C25.6088 47.8089 31.1577 46.7615 35.8619 43.9524C40.5662 41.1433 44.12 36.755 45.8901 31.5697C47.6602 26.3843 47.5315 20.739 45.5269 15.6397C43.5223 10.5405 39.7721 6.31871 34.9448 3.72693C30.1174 1.13515 24.5265 0.34176 19.1686 1.48817C13.8108 2.63457 9.03412 5.64627 5.68998 9.98649C2.58006 14.0219 0.89037 18.9717 0.883569 24.0665Z" fill="#F5F5F5"/>
<path d="M11.0461 12.6306V21.6034" stroke="#535461" stroke-miterlimit="10"/>
<path d="M28.1858 20.8034L18.8225 26.9858" stroke="#535461" stroke-miterlimit="10"/>
<path d="M18.8225 7.05634L29.7857 11.6387" stroke="#535461" stroke-miterlimit="10"/>
<path d="M37.1581 22.397L36.5568 36.349" stroke="#535461" stroke-miterlimit="10"/>
<path d="M29.7858 40.5346L17.4274 34.3586" stroke="#535461" stroke-miterlimit="10"/>
<path d="M11.0461 35.357V43.1458" stroke="#535461" stroke-miterlimit="10"/>
<path d="M6.46387 29.3731L1.07507 26.9859" stroke="#535461" stroke-miterlimit="10"/>
<path d="M36.5566 10.8387L36.1472 4.31708" stroke="#535461" stroke-miterlimit="10"/>
<path d="M40.1471 18.4163L46.8287 20.3235" stroke="#535461" stroke-miterlimit="10"/>
<path d="M41.9394 18.492L36.7619 9.51923L28.1923 10.9144V20.8792L37.3571 25.6664L41.9394 18.492Z" fill="#148783"/>
<path d="M5.68958 9.88515L11.0527 12.6307C12.8447 10.2371 20.2175 7.44676 20.2175 7.44676L19.4496 1.32196C13.9789 2.42012 9.09099 5.46203 5.68958 9.88515Z" fill="#148783"/>
<path d="M20.2179 25.9875L10.8483 21.6035L5.66431 28.9763L11.0467 37.5459L20.2179 36.1507V25.9875Z" fill="#148783"/>
<path d="M28.1855 39.3379V46.7043C31.1871 46.1521 34.0496 45.011 36.6079 43.3468C39.1662 41.6827 41.3697 39.5284 43.0912 37.0083L36.5567 34.3267L28.1855 39.3379Z" fill="#148783"/>
<defs>
<linearGradient id="paint0_linear_980_20386" x1="24" y1="47.9906" x2="24" y2="-0.00926684" gradientUnits="userSpaceOnUse">
<stop stop-color="#808080" stop-opacity="0.25"/>
<stop offset="0.54" stop-color="#808080" stop-opacity="0.12"/>
<stop offset="1" stop-color="#808080" stop-opacity="0.1"/>
</linearGradient>
</defs>
</svg>
