<svg width="18" height="18" viewBox="0 0 18 18" fill="none" xmlns="http://www.w3.org/2000/svg">
<path d="M5.45833 2.33332C5.45833 1.98815 5.17851 1.70832 4.83333 1.70832H4.20833V2.95832H4.83333C5.17851 2.95832 5.45833 2.6785 5.45833 2.33332Z" fill="#262541"/>
<path d="M1.5 6.70832C1.15482 6.70832 0.875 6.98815 0.875 7.33332C0.875 7.6785 1.15482 7.95832 1.5 7.95832C1.84518 7.95832 2.125 7.6785 2.125 7.33332V6.70832H1.5Z" fill="#262541"/>
<path fill-rule="evenodd" clip-rule="evenodd" d="M11.5 0.0416565C11.8452 0.0416565 12.125 0.321479 12.125 0.666656V3.99999C12.125 4.34517 11.8452 4.62499 11.5 4.62499C11.1548 4.62499 10.875 4.34517 10.875 3.99999V2.95832H7.75C7.40482 2.95832 7.125 2.6785 7.125 2.33332C7.125 1.98815 7.40482 1.70832 7.75 1.70832H10.875V0.666656C10.875 0.321479 11.1548 0.0416565 11.5 0.0416565ZM0.875 3.99999V7.33332V14.8333C0.875 16.099 1.90102 17.125 3.16667 17.125H14.8333C16.099 17.125 17.125 16.099 17.125 14.8333V7.33332V3.99999C17.125 2.73434 16.099 1.70832 14.8333 1.70832H14.4167C14.0715 1.70832 13.7917 1.98815 13.7917 2.33332C13.7917 2.6785 14.0715 2.95832 14.4167 2.95832H14.8333C15.4086 2.95832 15.875 3.42469 15.875 3.99999V6.70832H2.125V3.99999C2.125 3.42469 2.59137 2.95832 3.16667 2.95832H4.20833V3.99999C4.20833 4.34517 4.48816 4.62499 4.83333 4.62499C5.17851 4.62499 5.45833 4.34517 5.45833 3.99999V2.33332V0.666656C5.45833 0.321479 5.17851 0.0416565 4.83333 0.0416565C4.48816 0.0416565 4.20833 0.321479 4.20833 0.666656V1.70832H3.16667C1.90101 1.70832 0.875 2.73434 0.875 3.99999ZM4.20833 1.70832H4.83333C5.17851 1.70832 5.45833 1.98815 5.45833 2.33332C5.45833 2.6785 5.17851 2.95832 4.83333 2.95832H4.20833V1.70832ZM15.875 6.70832V7.33332C15.875 7.6785 16.1548 7.95832 16.5 7.95832C16.8452 7.95832 17.125 7.6785 17.125 7.33332C17.125 6.98815 16.8452 6.70832 16.5 6.70832H15.875ZM2.125 6.70832V7.33332C2.125 7.6785 1.84518 7.95832 1.5 7.95832C1.15482 7.95832 0.875 7.6785 0.875 7.33332C0.875 6.98815 1.15482 6.70832 1.5 6.70832H2.125ZM2.125 7.95832V14.8333C2.125 15.4086 2.59136 15.875 3.16667 15.875H14.8333C15.4087 15.875 15.875 15.4086 15.875 14.8333V7.95832H2.125Z" fill="#262541"/>
<path d="M17.125 7.33332C17.125 6.98815 16.8452 6.70832 16.5 6.70832H15.875V7.33332C15.875 7.6785 16.1548 7.95832 16.5 7.95832C16.8452 7.95832 17.125 7.6785 17.125 7.33332Z" fill="#262541"/>
</svg>
