<svg width="17" height="18" viewBox="0 0 17 18" fill="none" xmlns="http://www.w3.org/2000/svg">
<path fill-rule="evenodd" clip-rule="evenodd" d="M11.8337 2.0625C11.1869 2.0625 10.5664 2.31948 10.109 2.77692L3.21651 9.66939C3.21651 9.66939 3.21651 9.66939 3.21651 9.66939C2.4776 10.4083 2.0625 11.4104 2.0625 12.4554C2.0625 13.5004 2.47761 14.5025 3.21649 15.2414C3.95538 15.9803 4.95755 16.3955 6.0025 16.3955C7.04745 16.3955 8.04961 15.9803 8.78846 15.2414L15.681 8.3489C15.9006 8.12923 16.2568 8.12923 16.4765 8.3489C16.6961 8.56857 16.6961 8.92473 16.4765 9.1444L9.58399 16.0369C9.58398 16.0369 9.584 16.0369 9.58399 16.0369C8.63415 16.9868 7.34582 17.5205 6.0025 17.5205C4.65918 17.5205 3.37089 16.9868 2.42102 16.0369C1.47113 15.0871 0.9375 13.7987 0.9375 12.4554C0.9375 11.1121 1.47114 9.82382 2.421 8.87391L9.31348 1.98142C9.98191 1.31302 10.8885 0.9375 11.8337 0.9375C12.779 0.9375 13.6856 1.313 14.354 1.98143C15.0224 2.64984 15.3979 3.55639 15.3979 4.50167C15.3979 5.44696 15.0224 6.35352 14.354 7.02192L7.45401 13.9144C7.45394 13.9145 7.45409 13.9143 7.45401 13.9144C7.06707 14.3012 6.5421 14.5187 5.99501 14.5187C5.44779 14.5187 4.92297 14.3014 4.536 13.9144C4.14908 13.5274 3.93166 13.0027 3.93166 12.4554C3.93166 11.9082 4.14907 11.3834 4.536 10.9964L10.9037 4.63618C11.1235 4.41664 11.4797 4.41685 11.6992 4.63665C11.9187 4.85645 11.9185 5.21261 11.6987 5.43215L5.33151 11.7919C5.15553 11.9679 5.05666 12.2066 5.05666 12.4554C5.05666 12.7043 5.15551 12.9429 5.33151 13.1189C5.50746 13.2949 5.74612 13.3937 5.99501 13.3937C6.24388 13.3937 6.48255 13.2949 6.6585 13.1189L13.5585 6.22641C13.5586 6.22634 13.5584 6.22648 13.5585 6.22641C14.0158 5.76899 14.2729 5.14846 14.2729 4.50167C14.2729 3.85478 14.0159 3.23437 13.5585 2.77692C13.1011 2.31951 12.4807 2.0625 11.8337 2.0625Z" fill="#575775"/>
</svg>
