<svg width="18" height="18" viewBox="0 0 18 18" fill="none" xmlns="http://www.w3.org/2000/svg">
<path fill-rule="evenodd" clip-rule="evenodd" d="M12.3977 4.85225C12.6174 5.07192 12.6174 5.42808 12.3977 5.64775L9.39775 8.64775C9.17808 8.86742 8.82192 8.86742 8.60225 8.64775C8.38258 8.42808 8.38258 8.07192 8.60225 7.85225L11.6023 4.85225C11.8219 4.63258 12.1781 4.63258 12.3977 4.85225ZM16.8977 4.85225C17.1174 5.07192 17.1174 5.42808 16.8977 5.64775L9.71597 12.8295C9.3205 13.225 8.6795 13.225 8.28403 12.8295L6.75 11.2955L5.21602 12.8294C5.21599 12.8295 5.21597 12.8295 5.21594 12.8295C4.82051 13.225 4.17937 13.225 3.78398 12.8294L0.727254 9.77275C0.507583 9.55308 0.507582 9.19692 0.727251 8.97725C0.946919 8.75758 1.30307 8.75758 1.52275 8.97725L4.5 11.9545L5.9545 10.5L4.85225 9.39775C4.63258 9.17808 4.63258 8.82192 4.85225 8.60225C5.07192 8.38258 5.42808 8.38258 5.64775 8.60225L7.14724 10.1017C7.14741 10.1019 7.14758 10.1021 7.14775 10.1023C7.14792 10.1024 7.14808 10.1026 7.14825 10.1028L9 11.9545L16.1023 4.85225C16.3219 4.63258 16.6781 4.63258 16.8977 4.85225ZM4.57944 12.0339L4.57955 12.034L4.57963 12.0341C4.57957 12.034 4.5795 12.034 4.57944 12.0339Z" fill="#575775"/>
</svg>
