<svg width="92" height="128" viewBox="0 0 92 128" fill="none" xmlns="http://www.w3.org/2000/svg">
<path d="M54.7734 61.1201H64.258V121.28L54.7734 124.48V61.1201Z" fill="#575775"/>
<path d="M64.2578 61.1201H75.4021V115.04L64.2578 121.28V61.1201Z" fill="#262541"/>
<path fill-rule="evenodd" clip-rule="evenodd" d="M40.7832 25.92H90.577C90.577 19.9639 90.577 16.9859 89.9967 14.5757C88.824 9.70474 85.9943 5.8858 82.3849 4.30312C80.5991 3.52002 78.3924 3.52002 73.9791 3.52002H29.876V3.57047C35.9802 4.22255 40.7832 11.1143 40.7832 19.52V25.92Z" fill="#9F9DC8"/>
<path d="M14.4639 19.52C14.4639 10.6835 19.7718 3.52002 26.3195 3.52002H28.9278C35.4755 3.52002 40.7835 10.6835 40.7835 19.52V61.12H17.3092C15.7378 61.12 14.4639 59.4008 14.4639 57.28V19.52Z" fill="#575775"/>
<path d="M17.0723 18.88C17.0723 10.3969 22.1679 3.52002 28.4537 3.52002C34.7395 3.52002 39.8352 10.3969 39.8352 18.88V55.68C39.8352 57.8008 38.5612 59.52 36.9898 59.52H17.0723V18.88Z" fill="#494967"/>
<path d="M3.79395 22.0798C3.79395 18.1917 6.12945 15.0398 9.01044 15.0398H38.8867C41.7677 15.0398 44.1032 18.1917 44.1032 22.0798V47.0398C44.1032 50.9279 41.7677 54.0798 38.8867 54.0798H9.01044C6.12945 54.0798 3.79395 50.9279 3.79395 47.0398V22.0798Z" fill="#EFEFF6"/>
<path fill-rule="evenodd" clip-rule="evenodd" d="M13.4098 25.8703C13.8557 25.0106 14.7335 24.8015 15.3705 25.4033L23.9489 33.5073L32.5273 25.4033C33.1642 24.8015 34.0421 25.0106 34.488 25.8703C34.9339 26.7299 34.779 27.9146 34.142 28.5164L24.7562 37.3831C24.2715 37.841 23.6263 37.841 23.1415 37.3831L13.7558 28.5164C13.1188 27.9146 12.9639 26.7299 13.4098 25.8703Z" fill="#262541"/>
<path fill-rule="evenodd" clip-rule="evenodd" d="M8.93169 18.7265C7.63579 18.7265 6.58525 20.1443 6.58525 21.8932V47.2265C6.58525 48.9755 7.63577 50.3932 8.93169 50.3932H38.9661C40.262 50.3932 41.3125 48.9755 41.3125 47.2265V21.8932C41.3125 20.1443 40.262 18.7265 38.9661 18.7265H8.93169ZM3.76953 21.8932C3.76953 18.0456 6.08071 14.9265 8.93169 14.9265H38.9661C41.8171 14.9265 44.1282 18.0456 44.1282 21.8932V47.2265C44.1282 51.0742 41.8171 54.1932 38.9661 54.1932H8.93169C6.08072 54.1932 3.76953 51.0742 3.76953 47.2265V21.8932Z" fill="#262541"/>
<path d="M39.835 13.1201H78.437C82.6865 13.1201 84.8112 13.1201 86.4343 14.2362C87.862 15.218 89.0228 16.7845 89.7502 18.7113C90.5772 20.9017 90.5772 23.7692 90.5772 29.5041V54.9761C90.5772 57.1267 90.5772 58.202 90.2671 59.0234C89.9943 59.746 89.559 60.3334 89.0236 60.7016C88.415 61.1201 87.6182 61.1201 86.0247 61.1201H39.835V13.1201Z" fill="#6F6F8D"/>
</svg>
