<svg width="137" height="40" viewBox="0 0 137 40" fill="none" xmlns="http://www.w3.org/2000/svg">
<g clip-path="url(#clip0_2006_28684)">
<path fill-rule="evenodd" clip-rule="evenodd" d="M131.924 40H5.07594C2.27838 40 0 37.7456 0 35V5C0 2.24439 2.27838 0 5.07594 0H131.924C134.719 0 137 2.24439 137 5V35C137 37.7456 134.719 40 131.924 40Z" fill="black"/>
<path fill-rule="evenodd" clip-rule="evenodd" d="M131.924 0.800499C134.27 0.800499 136.191 2.68828 136.191 5V35C136.191 37.3117 134.283 39.1995 131.924 39.1995H5.07594C2.72952 39.1995 0.809025 37.3117 0.809025 35V5C0.809025 2.68828 2.71691 0.800499 5.07594 0.800499H131.924ZM131.924 0H5.07594C2.27838 0 0 2.25436 0 5V35C0 37.7556 2.27838 40 5.07594 40H131.924C134.719 40 137 37.7556 137 35V5C137 2.25436 134.719 0 131.924 0Z" fill="#A6A6A6"/>
<path d="M72.1722 13.2319C71.2573 13.2319 70.4861 12.9152 69.8762 12.2917C69.2713 11.6858 68.9336 10.8504 68.9487 9.99748C68.9487 9.08726 69.2612 8.31669 69.8762 7.70571C70.4836 7.08227 71.2548 6.76556 72.1697 6.76556C73.0745 6.76556 73.8457 7.08227 74.4657 7.70571C75.0806 8.33664 75.3932 9.10721 75.3932 9.99748C75.3831 10.9102 75.0706 11.6808 74.4657 12.2893C73.8583 12.9177 73.0871 13.2319 72.1722 13.2319ZM44.9501 13.2319C44.0554 13.2319 43.2791 12.9202 42.644 12.3042C42.0139 11.6908 41.6938 10.9152 41.6938 9.99998C41.6938 9.08477 42.0139 8.30921 42.644 7.69574C43.2665 7.07978 44.0428 6.76806 44.9501 6.76806C45.3937 6.76806 45.8247 6.85534 46.238 7.0324C46.6438 7.20447 46.9739 7.43888 47.2184 7.72566L47.2789 7.79798L46.5959 8.46132L46.5253 8.37903C46.1397 7.92517 45.623 7.70322 44.94 7.70322C44.3301 7.70322 43.7983 7.91768 43.3598 8.34162C42.9187 8.76806 42.6944 9.32666 42.6944 10.0025C42.6944 10.6783 42.9187 11.2369 43.3598 11.6633C43.7983 12.0873 44.3301 12.3017 44.94 12.3017C45.5903 12.3017 46.1372 12.0873 46.5631 11.6633C46.8152 11.4139 46.9714 11.0648 47.0269 10.6234H44.8367V9.69075H47.9669L47.9795 9.77554C48.0022 9.93265 48.0249 10.0947 48.0249 10.2444C48.0249 11.1047 47.7628 11.8005 47.2436 12.3142C46.6539 12.9227 45.8826 13.2319 44.9501 13.2319ZM81.1446 13.0997H80.1793L77.2229 8.41893L77.2481 9.26182V13.0972H76.2828V6.90023H77.3842L77.4145 6.94761L80.1944 11.3566L80.1692 10.5162V6.90023H81.1446V13.0997ZM64.9187 13.0997H63.9408V7.8329H62.2446V6.90023H66.6123V7.8329H64.9162V13.0997H64.9187ZM61.4482 13.0997H60.4728V6.90023H61.4482V13.0997ZM55.9665 13.0997H54.9911V7.8329H53.2949V6.90023H57.6626V7.8329H55.9665V13.0997ZM52.6774 13.0898H48.9373V6.90023H52.6774V7.8329H49.9152V9.53364H52.4078V10.4563H49.9152V12.1571H52.6774V13.0898ZM70.5919 11.6509C71.0279 12.0823 71.5572 12.2992 72.1722 12.2992C72.8048 12.2992 73.3214 12.0873 73.7524 11.6509C74.1809 11.2269 74.3976 10.6708 74.3976 9.99998C74.3976 9.32916 74.1809 8.77055 73.7549 8.34911C73.3189 7.91768 72.7871 7.70073 72.1747 7.70073C71.5421 7.70073 71.0254 7.9127 70.597 8.34911C70.1685 8.77305 69.9518 9.32916 69.9518 9.99998C69.9518 10.6708 70.166 11.2294 70.5919 11.6509Z" fill="white"/>
<path fill-rule="evenodd" clip-rule="evenodd" d="M68.8581 21.7556C66.4764 21.7556 64.5458 23.5436 64.5458 26.01C64.5458 28.4539 66.489 30.2643 68.8581 30.2643C71.2398 30.2643 73.1704 28.4638 73.1704 26.01C73.1704 23.5436 71.2398 21.7556 68.8581 21.7556ZM68.8581 28.5785C67.5551 28.5785 66.4335 27.5112 66.4335 26C66.4335 24.4663 67.5576 23.4214 68.8581 23.4214C70.1611 23.4214 71.2826 24.4663 71.2826 26C71.2852 27.5212 70.1611 28.5785 68.8581 28.5785ZM59.4497 21.7556C57.068 21.7556 55.1374 23.5436 55.1374 26.01C55.1374 28.4539 57.0806 30.2643 59.4497 30.2643C61.8314 30.2643 63.762 28.4638 63.762 26.01C63.762 23.5436 61.8289 21.7556 59.4497 21.7556ZM59.4497 28.5785C58.1467 28.5785 57.0251 27.5112 57.0251 26C57.0251 24.4663 58.1492 23.4214 59.4497 23.4214C60.7527 23.4214 61.8743 24.4663 61.8743 26C61.8743 27.5212 60.7527 28.5785 59.4497 28.5785ZM48.2544 23.0549V24.8554H52.6221C52.4886 25.8653 52.1508 26.611 51.6342 27.1222C50.994 27.7556 50.006 28.4439 48.2645 28.4439C45.5803 28.4439 43.4809 26.2992 43.4809 23.6434C43.4809 20.9875 45.5803 18.8429 48.2645 18.8429C49.7137 18.8429 50.7697 19.409 51.5535 20.1322L52.8439 18.8554C51.7551 17.8229 50.3059 17.0324 48.2746 17.0324C44.5924 17.0324 41.5024 20 41.5024 23.6334C41.5024 27.2768 44.5898 30.2344 48.2746 30.2344C50.2631 30.2344 51.7551 29.591 52.9347 28.379C54.1368 27.1895 54.5174 25.5112 54.5174 24.1571C54.5174 23.7357 54.4847 23.3566 54.4166 23.0349H48.2519C48.2544 23.0324 48.2544 23.0549 48.2544 23.0549ZM94.0462 24.4563C93.6858 23.5012 92.5971 21.7456 90.364 21.7456C88.1512 21.7456 86.3114 23.4688 86.3114 26C86.3114 28.389 88.131 30.2544 90.5783 30.2544C92.5441 30.2544 93.6884 29.0648 94.1597 28.3666L92.7004 27.399C92.2165 28.1097 91.5436 28.5761 90.5884 28.5761C89.6231 28.5761 88.9476 28.1421 88.499 27.2868L94.2479 24.9302C94.2479 24.9327 94.0462 24.4563 94.0462 24.4563ZM88.184 25.8778C88.1386 24.2344 89.4744 23.399 90.4296 23.399C91.1832 23.399 91.8107 23.7656 92.0249 24.2992L88.184 25.8778ZM83.5138 30H85.4015V17.5012H83.5138V30ZM80.4138 22.7007H80.3457C79.9198 22.1995 79.1108 21.7456 78.0774 21.7456C75.9326 21.7456 73.9567 23.6135 73.9567 26.0125C73.9567 28.4015 75.9226 30.2469 78.0774 30.2469C79.0982 30.2469 79.9198 29.7905 80.3457 29.2793H80.4138V29.8903C80.4138 31.5137 79.5367 32.389 78.1228 32.389C76.966 32.389 76.2477 31.5661 75.9553 30.8778L74.3146 31.5561C74.7859 32.6783 76.0435 34.0673 78.1203 34.0673C80.3331 34.0673 82.2083 32.778 82.2083 29.6334V22H80.4239V22.7007C80.4264 22.7007 80.4138 22.7007 80.4138 22.7007ZM78.2463 28.5785C76.9433 28.5785 75.8545 27.5012 75.8545 26.0125C75.8545 24.5112 76.9433 23.4239 78.2463 23.4239C79.5367 23.4239 80.5373 24.5237 80.5373 26.0125C80.5499 27.5012 79.5392 28.5785 78.2463 28.5785ZM102.885 17.5012H98.3711V30H100.259V25.2668H102.888C104.977 25.2668 107.031 23.7681 107.031 21.389C107.031 19.01 104.984 17.5012 102.885 17.5012ZM102.94 23.5212H100.256V19.2319H102.94C104.354 19.2319 105.153 20.3865 105.153 21.3765C105.153 22.3566 104.344 23.5212 102.94 23.5212ZM114.597 21.7332C113.226 21.7332 111.812 22.3342 111.227 23.6434L112.901 24.3317C113.261 23.6434 113.922 23.409 114.62 23.409C115.598 23.409 116.586 23.9875 116.608 25.0199V25.1521C116.271 24.9626 115.53 24.6733 114.642 24.6733C112.835 24.6733 111.003 25.6509 111.003 27.4838C111.003 29.1621 112.485 30.2394 114.136 30.2394C115.404 30.2394 116.102 29.6733 116.538 29.0174H116.606V29.985H118.425V25.197C118.425 22.9676 116.752 21.7332 114.597 21.7332ZM114.36 28.5785C113.743 28.5785 112.878 28.2793 112.878 27.5112C112.878 26.5436 113.957 26.177 114.877 26.177C115.708 26.177 116.102 26.3541 116.596 26.5985C116.46 27.7207 115.502 28.5686 114.36 28.5785ZM125.064 22L122.896 27.4214H122.828L120.583 22H118.551L121.921 29.5785L120.001 33.7905H121.966L127.151 22H125.064ZM108.072 30H109.96V17.5012H108.072V30Z" fill="white"/>
<path fill-rule="evenodd" clip-rule="evenodd" d="M10.5452 7.53364C10.2528 7.84536 10.084 8.32167 10.084 8.94511V31.0573C10.084 31.6808 10.2528 32.1571 10.5553 32.4563L10.6334 32.5237L23.1544 20.1346V19.8578L10.6233 7.46631L10.5452 7.53364Z" fill="url(#paint0_linear_2006_28684)"/>
<path fill-rule="evenodd" clip-rule="evenodd" d="M27.3202 24.2768L23.144 20.1447V19.8554L27.3202 15.7232L27.411 15.7781L32.3508 18.5561C33.7647 19.3442 33.7647 20.6459 32.3508 21.4439L27.411 24.222L27.3202 24.2768Z" fill="url(#paint1_linear_2006_28684)"/>
<path fill-rule="evenodd" clip-rule="evenodd" d="M27.411 24.2219L23.144 20L10.5449 32.4663C11.0061 32.9551 11.7799 33.01 12.6444 32.5337L27.411 24.2219Z" fill="url(#paint2_linear_2006_28684)"/>
<path fill-rule="evenodd" clip-rule="evenodd" d="M27.411 15.7781L12.6444 7.47882C11.7799 6.99004 11.0036 7.05737 10.5449 7.54615L23.144 20L27.411 15.7781Z" fill="url(#paint3_linear_2006_28684)"/>
<path opacity="0.2" fill-rule="evenodd" clip-rule="evenodd" d="M27.3204 24.1322L12.6546 32.3766C11.8355 32.8429 11.1046 32.8105 10.6333 32.3866L10.5552 32.4639L10.6333 32.5312C11.1046 32.9527 11.8355 32.9876 12.6546 32.5212L27.4212 24.222L27.3204 24.1322Z" fill="black"/>
<path opacity="0.12" fill-rule="evenodd" clip-rule="evenodd" d="M32.3508 21.2993L27.3076 24.1322L27.3983 24.2219L32.3382 21.4439C33.0464 21.0449 33.3942 20.5212 33.3942 20C33.3514 20.4788 32.991 20.9327 32.3508 21.2993Z" fill="black"/>
<path opacity="0.25" fill-rule="evenodd" clip-rule="evenodd" d="M12.6446 7.62342L32.3511 18.7007C32.9912 19.0573 33.3517 19.5237 33.4071 20C33.4071 19.4788 33.0593 18.9551 32.3511 18.5561L12.6446 7.47878C11.2307 6.67828 10.084 7.34661 10.084 8.94511V9.08975C10.084 7.48875 11.2307 6.83289 12.6446 7.62342Z" fill="white"/>
</g>
<defs>
<linearGradient id="paint0_linear_2006_28684" x1="22.0313" y1="8.70654" x2="2.00326" y2="14.0999" gradientUnits="userSpaceOnUse">
<stop stop-color="#00A0FF"/>
<stop offset="0.00657" stop-color="#00A1FF"/>
<stop offset="0.2601" stop-color="#00BEFF"/>
<stop offset="0.5122" stop-color="#00D2FF"/>
<stop offset="0.7604" stop-color="#00DFFF"/>
<stop offset="1" stop-color="#00E3FF"/>
</linearGradient>
<linearGradient id="paint1_linear_2006_28684" x1="34.1947" y1="20.0001" x2="9.74006" y2="20.0001" gradientUnits="userSpaceOnUse">
<stop stop-color="#FFE000"/>
<stop offset="0.4087" stop-color="#FFBD00"/>
<stop offset="0.7754" stop-color="#FFA500"/>
<stop offset="1" stop-color="#FF9C00"/>
</linearGradient>
<linearGradient id="paint2_linear_2006_28684" x1="25.0908" y1="22.2973" x2="9.24044" y2="49.2589" gradientUnits="userSpaceOnUse">
<stop stop-color="#FF3A44"/>
<stop offset="1" stop-color="#C31162"/>
</linearGradient>
<linearGradient id="paint3_linear_2006_28684" x1="7.37233" y1="0.178806" x2="14.4437" y2="12.2202" gradientUnits="userSpaceOnUse">
<stop stop-color="#32A071"/>
<stop offset="0.0685" stop-color="#2DA771"/>
<stop offset="0.4762" stop-color="#15CF74"/>
<stop offset="0.8009" stop-color="#06E775"/>
<stop offset="1" stop-color="#00F076"/>
</linearGradient>
<clipPath id="clip0_2006_28684">
<rect width="137" height="40" fill="white"/>
</clipPath>
</defs>
</svg>
