<svg width="12" height="16" viewBox="0 0 12 16" fill="none" xmlns="http://www.w3.org/2000/svg">
<path fill-rule="evenodd" clip-rule="evenodd" d="M2.82612 2.21812C3.442 1.36274 4.46297 0.708313 6 0.708313C7.53703 0.708313 8.558 1.36274 9.17388 2.21812C9.7668 3.04163 9.95833 4.01108 9.95833 4.66665V7.37498H10.5C11.1213 7.37498 11.625 7.87863 11.625 8.49998V14.1666C11.625 14.788 11.1213 15.2916 10.5 15.2916H1.5C0.8787 15.2916 0.375 14.788 0.375 14.1666V8.49998C0.375 7.87862 0.8787 7.37498 1.5 7.37498H2.04167V4.66665C2.04167 4.01108 2.2332 3.04163 2.82612 2.21812ZM3.29167 7.37498H8.70833V4.66665C8.70833 4.21111 8.56653 3.51388 8.15946 2.9485C7.77533 2.41499 7.12963 1.95831 6 1.95831C4.87037 1.95831 4.22467 2.41499 3.84054 2.9485C3.43347 3.51388 3.29167 4.21111 3.29167 4.66665V7.37498ZM1.625 8.62498V14.0416H10.375V8.62498H1.625Z" fill="#148783"/>
</svg>
