<svg width="52" height="44" viewBox="0 0 52 44" fill="none" xmlns="http://www.w3.org/2000/svg">
<g clip-path="url(#clip0_3492_26701)">
<path d="M19.9489 37.2018L19.5834 37.1874C14.9752 37.08 10.5928 35.1979 7.37469 31.944C4.15655 28.6901 2.35848 24.3232 2.3655 19.7784C2.3655 10.1748 10.2764 2.36035 19.9982 2.36035C29.72 2.36035 37.6345 10.1748 37.6345 19.7784C37.6345 23.654 36.2293 27.4901 33.4589 31.182C31.6629 33.5373 29.5421 35.6338 27.158 37.4108C26.5001 37.9099 25.8185 38.382 25.1369 38.8162C23.4961 39.8599 21.759 40.7485 19.9489 41.4703V37.2018Z" fill="#988CDA"/>
<path d="M19.9982 2.72072C24.581 2.72979 28.973 4.53076 32.2107 7.72855C35.4485 10.9263 37.2676 15.2598 37.2691 19.7784C37.2691 23.5748 35.8876 27.3459 33.1647 30.9676C31.3902 33.2962 29.294 35.3686 26.9369 37.1243C26.2863 37.6162 25.6139 38.0847 24.9377 38.5135C23.4698 39.4487 21.9229 40.2577 20.3144 40.9315V37.5387V36.845L19.5998 36.8288C15.0854 36.7257 10.7916 34.8831 7.63838 31.696C4.48521 28.5088 2.72359 24.2307 2.73101 19.7784C2.73101 10.373 10.4774 2.72072 19.9982 2.72072ZM19.9982 2C15.2575 2.00747 10.7105 3.85569 7.34175 7.14451C3.97298 10.4333 2.05354 14.898 1.999 19.572C1.94445 24.246 3.7592 28.7531 7.05033 32.1175C10.3415 35.4818 14.8441 37.4327 19.5834 37.5477V42C21.596 41.237 23.5232 40.2709 25.3343 39.1171C26.036 38.6727 26.7182 38.1988 27.381 37.6955C29.7903 35.8937 31.9347 33.7714 33.7531 31.3892C36.2987 28.0054 38 24.0613 38 19.7784C38.0022 17.4455 37.5383 15.1351 36.6347 12.979C35.7312 10.823 34.4057 8.86353 32.734 7.21261C31.0624 5.56169 29.0772 4.25162 26.892 3.35723C24.7068 2.46285 22.3642 2.00166 19.9982 2V2Z" fill="white"/>
<path fill-rule="evenodd" clip-rule="evenodd" d="M20.0003 9.56393C14.2879 9.56393 9.65711 14.1298 9.65711 19.7621C9.65711 25.3944 14.2879 29.9603 20.0003 29.9603C25.7126 29.9603 30.3434 25.3944 30.3434 19.7621C30.3434 14.1298 25.7126 9.56393 20.0003 9.56393ZM8.74341 19.7621C8.74341 13.6323 13.7833 8.66302 20.0003 8.66302C26.2172 8.66302 31.2571 13.6323 31.2571 19.7621C31.2571 25.892 26.2172 30.8612 20.0003 30.8612C13.7833 30.8612 8.74341 25.892 8.74341 19.7621Z" fill="white"/>
<path d="M25.2465 15.6937C24.1985 14.379 22.6819 13.5072 21.0051 13.2559V9.32794L24.2323 7.54596C25.8519 8.08849 27.3462 8.94218 28.6291 10.0577C28.651 11.2817 28.6717 12.5069 28.6912 13.7333L25.2465 15.6937Z" fill="white"/>
<path d="M24.2671 7.94596C25.7318 8.45814 27.0879 9.23269 28.2673 10.2306C28.2855 11.3309 28.3038 12.4318 28.3221 13.5333L25.3306 15.2379C24.3073 14.0606 22.9128 13.2561 21.3706 12.9532V9.53875L24.2671 7.94596ZM24.194 7.16037L20.6396 9.11713V13.5748C21.5353 13.6639 22.4011 13.9412 23.1788 14.3882C23.9564 14.8352 24.6279 15.4413 25.1479 16.1658L29.0604 13.9388C29.0384 12.591 29.0159 11.2433 28.9927 9.89551L28.9836 9.8847C27.5989 8.65832 25.9711 7.72879 24.2031 7.15497L24.194 7.16037Z" fill="white"/>
<path d="M26.2024 22.1892C26.8196 20.6518 26.8287 18.9419 26.228 17.3982L29.6909 15.4252L32.8432 17.2667C33.0159 18.1184 33.0991 18.9855 33.0917 19.8541C33.0866 20.6802 33.0003 21.5038 32.8341 22.3135L29.6544 24.1622L26.2024 22.1892Z" fill="white"/>
<path d="M29.689 15.8432L32.5179 17.4955C32.6631 18.2734 32.7334 19.0631 32.728 19.8541C32.7236 20.6032 32.6502 21.3504 32.5087 22.0865L31.8271 22.4811L30.8805 23.0216L30.3962 23.3045L29.6543 23.7333L26.6555 22.0234C27.1559 20.5768 27.161 19.0083 26.6701 17.5586L29.6835 15.8432M29.6835 15.0072L25.7674 17.2432C26.1275 18.0471 26.3112 18.9169 26.3064 19.7957C26.3017 20.6744 26.1087 21.5423 25.74 22.3423L29.6561 24.573L31.2496 23.6486L33.1575 22.5405C33.5538 20.7263 33.5575 18.85 33.1684 17.0342L29.6963 15.0036L29.6835 15.0072Z" fill="white"/>
<path d="M21.0051 30.191V26.2649C22.6594 26.0184 24.1595 25.1683 25.2082 23.8829L28.662 25.8486L28.6273 27.4703L28.5852 29.5099C27.3147 30.6026 25.8406 31.441 24.2451 31.9784L21.0051 30.191Z" fill="white"/>
<path d="M25.2831 24.3423L28.2855 26.0504L28.2727 26.591L28.2545 27.4558C28.2545 27.7063 28.2417 28.1189 28.2325 28.5369C28.2325 28.8198 28.2216 29.1045 28.2161 29.3387C27.6467 29.8152 27.0351 30.2403 26.3887 30.609C25.7135 30.9973 25.0032 31.323 24.2671 31.582L22.7795 30.7585L21.3706 29.9802V26.5676C22.8878 26.2711 24.2632 25.4888 25.2831 24.3423M25.1004 23.409C24.5801 24.1181 23.9138 24.7108 23.1451 25.1483C22.3764 25.5858 21.5226 25.8582 20.6396 25.9477V30.4036L24.2013 32.3712C25.9527 31.8016 27.5659 30.8815 28.9397 29.6685C28.9507 29.1603 28.9745 27.9802 28.9854 27.4721C28.9946 27.0613 29.0128 26.2108 29.0256 25.636L25.1058 23.4054L25.1004 23.409Z" fill="white"/>
<path d="M15.7715 31.9837C14.1783 31.4497 12.7056 30.6156 11.435 29.5279L11.393 27.4864C11.382 27.0162 11.3692 26.4054 11.3601 25.8648L14.8103 23.8954C15.8608 25.1771 17.3605 26.0238 19.0133 26.2684V30.1909L15.7715 31.9837Z" fill="white"/>
<path d="M14.7299 24.3585C15.7552 25.501 17.1332 26.2791 18.6515 26.5729V29.9802L15.7276 31.5892C14.2885 31.0863 12.9536 30.3306 11.7877 29.3585C11.7877 29.1171 11.7877 28.854 11.7731 28.591C11.764 28.2 11.7567 27.8054 11.7493 27.4757C11.7493 27.0684 11.7292 26.5531 11.7201 26.0666L14.7207 24.3585M14.9035 23.427L10.991 25.6558C11.0019 26.2486 11.0166 26.9621 11.0275 27.4937C11.0403 28.1405 11.0604 29.0486 11.0732 29.6937C11.7724 30.3078 12.5356 30.8472 13.3502 31.3027C14.1302 31.7454 14.9545 32.1077 15.8098 32.3838L19.3824 30.4126V25.9495C18.498 25.8642 17.6418 25.5953 16.8702 25.1605C16.0985 24.7258 15.4289 24.135 14.9053 23.427H14.9035Z" fill="white"/>
<path d="M7.16267 22.3171C6.82616 20.649 6.82305 18.9322 7.15353 17.263L9.00836 16.1819L10.3204 15.4144L13.7779 17.3783C13.1674 18.9339 13.1765 20.6597 13.8035 22.209L10.357 24.1621L7.16267 22.3171Z" fill="white"/>
<path d="M10.3222 15.827L13.3301 17.5405C12.8314 19.003 12.8391 20.5873 13.352 22.045L10.3587 23.7495L8.98087 22.9495L7.48239 22.0901C7.3217 21.2419 7.25005 20.3797 7.26859 19.5171C7.28509 18.8387 7.35659 18.1626 7.48239 17.4955L9.19468 16.4937L10.324 15.8324M10.324 14.9964C9.15996 15.6775 7.99224 16.3585 6.83183 17.0396C6.44953 18.8585 6.45326 20.7357 6.8428 22.5531L10.3606 24.5928L14.2657 22.3603C13.8926 21.555 13.6976 20.6805 13.6938 19.7951C13.69 18.9097 13.8775 18.0336 14.2438 17.2252L10.3185 14.991L10.324 14.9964Z" fill="white"/>
<path d="M11.3198 13.7117C11.3198 13.7117 11.3436 12.2811 11.3472 12.0811C11.3472 11.6487 11.3728 10.591 11.382 10.0379C12.6675 8.92704 14.1638 8.07883 15.7842 7.54236L19.0187 9.32794V13.2523C17.3392 13.4969 15.8179 14.3651 14.7663 15.6793L11.3198 13.7117Z" fill="white"/>
<path d="M15.7478 7.93512L17.2426 8.76035L18.6515 9.54053V12.9477C17.1087 13.2445 15.7112 14.0426 14.6824 15.2144L11.6854 13.5135C11.6854 13.3477 11.6854 13.1766 11.6854 13.009C11.6854 12.6486 11.6964 12.2883 11.7 12.0973C11.7 11.7027 11.7238 10.7892 11.7329 10.2108C12.9155 9.21198 14.2772 8.44014 15.7478 7.93512M15.8227 7.14954C14.0447 7.71656 12.4082 8.64737 11.0203 9.88107C11.0203 10.3603 10.9928 11.6036 10.9837 12.0829C10.9837 12.4667 10.9618 13.3441 10.9526 13.9243L14.8633 16.1495C15.3857 15.4261 16.0595 14.8216 16.8391 14.3768C17.6187 13.932 18.486 13.6573 19.3825 13.5712V9.1171L15.8227 7.14954Z" fill="white"/>
</g>
<rect x="31.25" y="33.25" width="9.5" height="9.5" rx="4.75" fill="#1CCD62" stroke="white" stroke-width="1.5"/>
<rect x="26" y="22" width="20" height="20" rx="10" fill="white"/>
<g clip-path="url(#clip1_3492_26701)">
<path fill-rule="evenodd" clip-rule="evenodd" d="M29.0625 32C29.0625 28.1685 32.1685 25.0625 36 25.0625C39.8314 25.0625 42.9375 28.1685 42.9375 32C42.9375 35.8314 39.8314 38.9375 36 38.9375C32.1685 38.9375 29.0625 35.8314 29.0625 32ZM36.3838 28.2061C36.6147 28.4139 36.6334 28.7696 36.4256 29.0005L36.4181 29.0088C36.2103 29.2397 35.8546 29.2584 35.6237 29.0506C35.3928 28.8428 35.3741 28.4871 35.5819 28.2562L35.5894 28.2479C35.7972 28.017 36.1529 27.9983 36.3838 28.2061ZM36 31.0625C36.3107 31.0625 36.5625 31.3143 36.5625 31.625V35.375C36.5625 35.6857 36.3107 35.9375 36 35.9375C35.6893 35.9375 35.4375 35.6857 35.4375 35.375V31.625C35.4375 31.3143 35.6893 31.0625 36 31.0625Z" fill="#262541"/>
<path fill-rule="evenodd" clip-rule="evenodd" d="M27.9375 32C27.9375 27.5472 31.5472 23.9375 36 23.9375C40.4528 23.9375 44.0625 27.5472 44.0625 32C44.0625 36.4528 40.4528 40.0625 36 40.0625C31.5472 40.0625 27.9375 36.4528 27.9375 32ZM36 25.0625C32.1685 25.0625 29.0625 28.1685 29.0625 32C29.0625 35.8314 32.1685 38.9375 36 38.9375C39.8314 38.9375 42.9375 35.8314 42.9375 32C42.9375 28.1685 39.8314 25.0625 36 25.0625Z" fill="#262541"/>
</g>
<defs>
<clipPath id="clip0_3492_26701">
<rect width="36" height="40" fill="white" transform="translate(2 2)"/>
</clipPath>
<clipPath id="clip1_3492_26701">
<rect width="18" height="18" fill="white" transform="translate(27 23)"/>
</clipPath>
</defs>
</svg>
