<svg width="18" height="18" viewBox="0 0 18 18" fill="none" xmlns="http://www.w3.org/2000/svg">
<path fill-rule="evenodd" clip-rule="evenodd" d="M9 2.0625C8.06802 2.0625 7.3125 2.81802 7.3125 3.75V8.25C7.3125 9.18198 8.06802 9.9375 9 9.9375C9.93198 9.9375 10.6875 9.18198 10.6875 8.25V3.75C10.6875 2.81802 9.93198 2.0625 9 2.0625ZM6.1875 3.75C6.1875 2.1967 7.4467 0.9375 9 0.9375C10.5533 0.9375 11.8125 2.1967 11.8125 3.75V8.25C11.8125 9.8033 10.5533 11.0625 9 11.0625C7.4467 11.0625 6.1875 9.8033 6.1875 8.25V3.75Z" fill="#262541"/>
<path fill-rule="evenodd" clip-rule="evenodd" d="M0.75 0.9375C1.06066 0.9375 1.3125 1.18934 1.3125 1.5V4.5C1.3125 4.81066 1.06066 5.0625 0.75 5.0625C0.43934 5.0625 0.1875 4.81066 0.1875 4.5V1.5C0.1875 1.18934 0.43934 0.9375 0.75 0.9375ZM17.25 0.9375C17.5607 0.9375 17.8125 1.18934 17.8125 1.5V4.5C17.8125 4.81066 17.5607 5.0625 17.25 5.0625C16.9393 5.0625 16.6875 4.81066 16.6875 4.5V1.5C16.6875 1.18934 16.9393 0.9375 17.25 0.9375ZM3.75 1.6875C4.06066 1.6875 4.3125 1.93934 4.3125 2.25V3.75C4.3125 4.06066 4.06066 4.3125 3.75 4.3125C3.43934 4.3125 3.1875 4.06066 3.1875 3.75V2.25C3.1875 1.93934 3.43934 1.6875 3.75 1.6875ZM14.25 1.6875C14.5607 1.6875 14.8125 1.93934 14.8125 2.25V3.75C14.8125 4.06066 14.5607 4.3125 14.25 4.3125C13.9393 4.3125 13.6875 4.06066 13.6875 3.75V2.25C13.6875 1.93934 13.9393 1.6875 14.25 1.6875Z" fill="#262541"/>
<path fill-rule="evenodd" clip-rule="evenodd" d="M3.75 6.9375C4.06066 6.9375 4.3125 7.18934 4.3125 7.5V8.25C4.3125 10.8388 6.41117 12.9375 9 12.9375C11.5888 12.9375 13.6875 10.8388 13.6875 8.25V7.5C13.6875 7.18934 13.9393 6.9375 14.25 6.9375C14.5607 6.9375 14.8125 7.18934 14.8125 7.5V8.25C14.8125 11.4602 12.2102 14.0625 9 14.0625C5.78985 14.0625 3.1875 11.4602 3.1875 8.25V7.5C3.1875 7.18934 3.43934 6.9375 3.75 6.9375Z" fill="#262541"/>
<path fill-rule="evenodd" clip-rule="evenodd" d="M9 12.9375C9.31066 12.9375 9.5625 13.1893 9.5625 13.5V15.9375H11.25C11.5607 15.9375 11.8125 16.1893 11.8125 16.5C11.8125 16.8107 11.5607 17.0625 11.25 17.0625H6.75C6.43934 17.0625 6.1875 16.8107 6.1875 16.5C6.1875 16.1893 6.43934 15.9375 6.75 15.9375H8.4375V13.5C8.4375 13.1893 8.68934 12.9375 9 12.9375Z" fill="#262541"/>
</svg>
