<svg width="20" height="20" viewBox="0 0 20 20" fill="none" xmlns="http://www.w3.org/2000/svg">
<path fill-rule="evenodd" clip-rule="evenodd" d="M5.18989 5.18941C5.43397 4.94533 5.8297 4.94533 6.07378 5.18941L10.0007 9.11633L13.9276 5.18941C14.1717 4.94533 14.5674 4.94533 14.8115 5.1894C15.0555 5.43348 15.0555 5.82921 14.8115 6.07329L10.8846 10.0002L14.8115 13.9271C15.0555 14.1712 15.0555 14.5669 14.8115 14.811C14.5674 15.0551 14.1717 15.0551 13.9276 14.811L10.0007 10.8841L6.07378 14.811C5.8297 15.0551 5.43397 15.0551 5.18989 14.811C4.94582 14.5669 4.94582 14.1712 5.1899 13.9271L9.11681 10.0002L5.18989 6.07329C4.94582 5.82921 4.94582 5.43348 5.18989 5.18941Z" fill="#D62953" stroke="#D62953" stroke-width="1.5" stroke-linecap="round" stroke-linejoin="round"/>
</svg>
