<svg width="18" height="18" viewBox="0 0 18 18" fill="none" xmlns="http://www.w3.org/2000/svg">
<path fill-rule="evenodd" clip-rule="evenodd" d="M9.00166 0.9375C10.5255 0.937205 12.0182 1.36873 13.3069 2.18207C14.3891 2.86509 15.2901 3.79388 15.9392 4.88872V2.25C15.9392 1.93934 16.191 1.6875 16.5017 1.6875C16.8123 1.6875 17.0642 1.93934 17.0642 2.25V5.62275C17.0642 5.87199 16.9651 6.11102 16.7889 6.28725C16.6127 6.46349 16.3736 6.5625 16.1244 6.5625C15.7471 6.5625 15.4203 6.33898 15.2671 6.01691M9.00166 0.9375C4.82027 0.937558 1.3826 4.11982 0.979391 8.19461C0.9488 8.50376 1.17462 8.77918 1.48377 8.80977C1.79292 8.84036 2.06833 8.61454 2.09892 8.30539C2.44571 4.80072 5.4041 2.0625 9.00166 2.0625C10.3129 2.06223 11.5976 2.43355 12.7064 3.13343C13.8152 3.83325 14.7032 4.8332 15.2671 6.01691" fill="#575775"/>
<path fill-rule="evenodd" clip-rule="evenodd" d="M9.03906 17.25C7.51521 17.2503 6.02247 16.8188 4.73383 16.0054C3.65166 15.3224 2.75064 14.3936 2.10156 13.2988V15.9375C2.10156 16.2482 1.84972 16.5 1.53906 16.5C1.2284 16.5 0.976562 16.2482 0.976562 15.9375V12.5648C0.976562 12.3155 1.07557 12.0765 1.25181 11.9002C1.42805 11.724 1.66707 11.625 1.91631 11.625C2.2936 11.625 2.62038 11.8485 2.77364 12.1706M9.03906 17.25C13.2204 17.2499 16.6581 14.0677 17.0613 9.99289C17.0919 9.68374 16.8661 9.40832 16.557 9.37773C16.2478 9.34714 15.9724 9.57296 15.9418 9.88211C15.595 13.3868 12.6366 16.125 9.03906 16.125C7.72779 16.1253 6.44316 15.754 5.33429 15.0541C4.22549 14.3542 3.33757 13.3543 2.77364 12.1706" fill="#575775"/>
<path fill-rule="evenodd" clip-rule="evenodd" d="M7.66966 3.9375L10.3292 3.9375C10.4984 3.9376 10.6653 3.98013 10.8139 4.0612C10.9624 4.14227 11.0883 4.25929 11.18 4.40156L12.2313 6.033H13.0494C13.3179 6.033 13.5755 6.13967 13.7654 6.32955C13.9552 6.51944 14.0619 6.77697 14.0619 7.0455V12.3C14.0619 12.433 14.0357 12.5646 13.9848 12.6875C13.934 12.8103 13.8594 12.9219 13.7654 13.0159C13.6713 13.11 13.5597 13.1845 13.4369 13.2354C13.314 13.2863 13.1824 13.3125 13.0494 13.3125H4.94941C4.81645 13.3125 4.68479 13.2863 4.56194 13.2354C4.4391 13.1845 4.32748 13.11 4.23346 13.0159C4.13944 12.9219 4.06486 12.8103 4.01398 12.6875C3.9631 12.5646 3.93691 12.433 3.93691 12.3V7.0455C3.93691 6.77697 4.04358 6.51944 4.23346 6.32955C4.42334 6.13968 4.68087 6.033 4.94941 6.033H5.76755L6.81882 4.40156L7.27879 4.69796L7.283 4.70067M7.27879 4.69796L6.81882 4.40156C6.9105 4.25929 7.03639 4.14227 7.18496 4.0612C7.33354 3.98013 7.5004 3.9376 7.66966 3.9375M7.73126 5.0625L6.67999 6.69394L6.20716 6.38925M7.73126 5.0625H10.2675L11.3188 6.69394C11.4105 6.83621 11.5364 6.95323 11.685 7.0343C11.8335 7.11537 12.0001 7.1579 12.1693 7.158H12.9369V12.1875H5.06191V7.158H5.82916C5.99841 7.1579 6.16527 7.11537 6.31385 7.0343C6.46243 6.95323 6.58831 6.83621 6.67999 6.69394L6.20716 6.38925" fill="#575775"/>
<path fill-rule="evenodd" clip-rule="evenodd" d="M7.541 7.54159C7.92779 7.1548 8.4524 6.9375 8.99941 6.9375C9.54642 6.9375 10.071 7.1548 10.4578 7.54159C10.8446 7.92839 11.0619 8.45299 11.0619 9C11.0619 9.54701 10.8446 10.0716 10.4578 10.4584C10.071 10.8452 9.54642 11.0625 8.99941 11.0625C8.4524 11.0625 7.92779 10.8452 7.541 10.4584C7.15421 10.0716 6.93691 9.54701 6.93691 9C6.93691 8.45299 7.15421 7.92839 7.541 7.54159ZM8.99941 8.0625C8.75077 8.0625 8.51231 8.16127 8.33649 8.33709C8.16068 8.5129 8.06191 8.75136 8.06191 9C8.06191 9.24864 8.16068 9.4871 8.33649 9.66291C8.51231 9.83873 8.75077 9.9375 8.99941 9.9375C9.24805 9.9375 9.4865 9.83873 9.66232 9.66291C9.83813 9.4871 9.93691 9.24864 9.93691 9C9.93691 8.75136 9.83813 8.5129 9.66232 8.33709C9.4865 8.16127 9.24805 8.0625 8.99941 8.0625Z" fill="#575775"/>
</svg>
