<svg width="12" height="14" viewBox="0 0 12 14" fill="none" xmlns="http://www.w3.org/2000/svg">
<path fill-rule="evenodd" clip-rule="evenodd" d="M6.16602 2.33333C6.16602 1.32082 6.9868 0.5 7.99935 0.5C9.0119 0.5 9.83269 1.32082 9.83269 2.33333C9.83269 3.34585 9.0119 4.16667 7.99935 4.16667C6.9868 4.16667 6.16602 3.34585 6.16602 2.33333ZM7.99935 1.5C7.5391 1.5 7.16602 1.87309 7.16602 2.33333C7.16602 2.79358 7.5391 3.16667 7.99935 3.16667C8.4596 3.16667 8.83269 2.79358 8.83269 2.33333C8.83269 1.87309 8.4596 1.5 7.99935 1.5ZM4.1815 2.77519C4.35653 2.60423 4.62957 2.58504 4.82679 2.72984L6.70413 4.10824C6.73354 4.12983 6.76049 4.15457 6.78451 4.18202L8.56491 6.2168H10.8192C11.0953 6.2168 11.3192 6.44066 11.3192 6.7168C11.3192 6.99294 11.0953 7.2168 10.8192 7.2168H8.33802C8.19384 7.2168 8.05667 7.15456 7.96173 7.04605L6.42538 5.29019L4.87272 7.23097L7.31311 9.67138C7.46048 9.81876 7.50098 10.0421 7.41473 10.2318L6.03633 13.2643C5.92206 13.5157 5.62564 13.6269 5.37425 13.5126C5.12286 13.3983 5.0117 13.1019 5.12597 12.8505L6.36099 10.1335L3.84916 7.62162C3.66901 7.44146 3.65313 7.15466 3.81229 6.95571L5.69222 4.60587L4.57683 3.78692L2.62232 5.69602C2.42478 5.88897 2.10822 5.88525 1.91527 5.68771C1.72231 5.49016 1.72603 5.1736 1.92358 4.98065L4.1815 2.77519ZM4.34305 9.19617C4.49623 9.42593 4.43415 9.73637 4.20439 9.88955L3.37735 10.441C3.29521 10.4957 3.1987 10.5249 3.09998 10.5249H0.894531C0.618389 10.5249 0.394531 10.3011 0.394531 10.0249C0.394531 9.74879 0.618389 9.52493 0.894531 9.52493H2.94859L3.64967 9.05752C3.87943 8.90433 4.18987 8.96641 4.34305 9.19617Z" fill="#575775"/>
</svg>
