<svg width="18" height="18" viewBox="0 0 18 18" fill="#fff" xmlns="http://www.w3.org/2000/svg">
<path fill-rule="evenodd" clip-rule="evenodd" d="M6.1875 9C6.1875 7.44666 7.44666 6.1875 9 6.1875C10.5533 6.1875 11.8125 7.44666 11.8125 9C11.8125 10.5533 10.5533 11.8125 9 11.8125C7.44666 11.8125 6.1875 10.5533 6.1875 9ZM9 7.3125C8.06799 7.3125 7.3125 8.06799 7.3125 9C7.3125 9.93201 8.06799 10.6875 9 10.6875C9.93201 10.6875 10.6875 9.93201 10.6875 9C10.6875 8.06799 9.93201 7.3125 9 7.3125Z" fill="#fff"/>
<path fill-rule="evenodd" clip-rule="evenodd" d="M7.69177 1.35684C7.7568 1.10973 7.98022 0.9375 8.23575 0.9375H9.70148C9.95709 0.9375 10.1806 1.10986 10.2455 1.35709L10.6413 2.86358L12.0945 3.46121L13.1346 2.57238C13.3578 2.38163 13.6901 2.39464 13.8977 2.60225L15.3977 4.10225C15.6046 4.30906 15.6184 4.63985 15.4295 4.86319L14.5444 5.91005L15.1286 7.32087L16.6386 7.70485C16.888 7.76826 17.0625 7.99275 17.0625 8.25003L17.0624 9.73293C17.0624 9.98903 16.8894 10.2128 16.6416 10.2773L15.123 10.6724L14.538 12.0851L15.4291 13.1363C15.6184 13.3596 15.6048 13.6907 15.3977 13.8977L13.8977 15.3977C13.6865 15.609 13.3469 15.6183 13.1244 15.4188L13.0828 15.3815C13.0558 15.3574 13.0167 15.3226 12.9688 15.2801C12.8729 15.195 12.7418 15.0793 12.6006 14.9564C12.4265 14.8049 12.248 14.652 12.1027 14.5322L10.6794 15.1216L10.2953 16.6381C10.2321 16.8877 10.0075 17.0625 9.75 17.0625H8.25C7.99239 17.0625 7.7677 16.8875 7.70462 16.6377L7.32174 15.1216L5.9391 14.5528L4.85535 15.436C4.63166 15.6183 4.3063 15.6018 4.10225 15.3977L2.60225 13.8977C2.39143 13.6869 2.38172 13.3482 2.58012 13.1257L3.48043 12.1158L2.88877 10.7122L1.35186 10.2926C1.10721 10.2259 0.9375 10.0036 0.9375 9.75V8.25C0.9375 7.98859 1.11759 7.76163 1.37216 7.70222L2.86801 7.35311L3.44358 5.93801L2.56343 4.8547C2.38167 4.63098 2.39843 4.30607 2.60225 4.10225L4.10225 2.60225C4.3129 2.39161 4.65124 2.38172 4.87383 2.5797L5.88691 3.48076L7.28829 2.89003L7.69177 1.35684ZM8.66937 2.0625L8.3058 3.44401C8.26139 3.61278 8.14114 3.75139 7.98032 3.81918L5.9968 4.6553C5.79697 4.73954 5.56651 4.7014 5.40447 4.55727L4.52259 3.7729L3.75646 4.53903L4.5266 5.48694C4.65604 5.64625 4.68841 5.86342 4.61108 6.05357L3.80042 8.04665C3.73163 8.21579 3.58503 8.34101 3.40722 8.3825L2.0625 8.69634V9.32048L3.44897 9.69898C3.61559 9.74447 3.75207 9.86398 3.81916 10.0231L4.65514 12.0063C4.73947 12.2063 4.70115 12.437 4.55669 12.5991L3.77333 13.4778L4.53849 14.243L5.48802 13.4692C5.648 13.3388 5.86652 13.3065 6.05737 13.385L8.01175 14.189C8.17656 14.2568 8.29949 14.3987 8.34313 14.5715L8.6881 15.9375H9.3122L9.65809 14.5718C9.7017 14.3996 9.82406 14.2582 9.98815 14.1902L11.9761 13.3669C12.1555 13.2926 12.3605 13.3161 12.5184 13.429C12.7107 13.5664 13.0601 13.8649 13.3392 14.1079C13.3865 14.149 13.4326 14.1893 13.4766 14.2279L14.2359 13.4686L13.4579 12.5508C13.3216 12.39 13.2866 12.1666 13.3672 11.9718L14.1907 9.98328C14.2582 9.82037 14.3981 9.69852 14.5688 9.65412L15.9374 9.29802L15.9375 8.68736L14.5782 8.3417C14.4062 8.29798 14.265 8.17569 14.1971 8.01177L13.3738 6.02382C13.2933 5.82934 13.3281 5.60616 13.464 5.44541L14.2364 4.5319L13.47 3.76553L12.564 4.53984C12.4035 4.67696 12.1798 4.71272 11.9846 4.63244L9.95441 3.79753C9.79131 3.73046 9.66911 3.59078 9.62431 3.42022L9.26765 2.0625H8.66937Z" fill="#fff"/>
</svg>
