<svg width="16" height="14" viewBox="0 0 16 14" fill="none" xmlns="http://www.w3.org/2000/svg">
<path fill-rule="evenodd" clip-rule="evenodd" d="M7.94244 1.18135C7.9294 1.18904 7.91572 1.20129 7.90404 1.22482L6.17234 4.71299C6.09935 4.86001 5.95884 4.96185 5.7964 4.98545L1.92383 5.54825C1.83374 5.56135 1.80606 5.66543 1.86457 5.72208L4.66625 8.43536C4.785 8.55037 4.83924 8.71663 4.81113 8.87953L4.14993 12.7126C4.14553 12.7382 4.14936 12.7553 4.15496 12.7682C4.1614 12.783 4.17333 12.7988 4.19108 12.8116C4.20883 12.8244 4.22823 12.8313 4.24581 12.8329C4.26137 12.8344 4.28054 12.8324 4.30487 12.8197L7.7679 11.0089C7.91303 10.933 8.08613 10.933 8.23126 11.0089L11.6943 12.8197C11.7186 12.8324 11.7378 12.8344 11.7533 12.8329C11.7709 12.8313 11.7903 12.8244 11.8081 12.8116C11.8258 12.7988 11.8377 12.7831 11.8442 12.7682C11.8498 12.7553 11.8536 12.7382 11.8492 12.7126L11.188 8.87953C11.1599 8.71663 11.2141 8.55036 11.3329 8.43536L14.1346 5.7221C14.1931 5.66542 14.1654 5.56134 14.0753 5.54825L10.2027 4.98545C10.0403 4.96185 9.89979 4.86001 9.8268 4.71298L8.09513 1.22484C8.08345 1.20131 8.06976 1.18904 8.05672 1.18135C8.04188 1.1726 8.02207 1.16667 7.99958 1.16667C7.97709 1.16667 7.95728 1.1726 7.94244 1.18135ZM8.99084 0.780207C8.58479 -0.0378302 7.4144 -0.0378402 7.00833 0.780178C7.00834 0.780168 7.00833 0.780188 7.00833 0.780178L5.3932 4.03355L1.78002 4.55865C0.876383 4.68997 0.507991 5.80043 1.1689 6.44045C1.1689 6.44044 1.16891 6.44045 1.1689 6.44045L3.78078 8.96991L3.16449 12.5426C3.00807 13.4495 3.96254 14.1271 4.76824 13.7058L7.99958 12.0162L11.2309 13.7058C12.0366 14.1271 12.9911 13.4495 12.8346 12.5426L12.2183 8.96991L14.8303 6.44045C15.4911 5.80047 15.1228 4.68998 14.2192 4.55865L10.6059 4.03355L8.99084 0.780207Z" fill="#F57125"/>
<path d="M7.90404 1.22482C7.91572 1.20129 7.9294 1.18904 7.94244 1.18135C7.95728 1.1726 7.97709 1.16667 7.99958 1.16667C8.02207 1.16667 8.04188 1.1726 8.05672 1.18135C8.06976 1.18904 8.08345 1.20131 8.09513 1.22484L9.8268 4.71298C9.89979 4.86001 10.0403 4.96185 10.2027 4.98545L14.0753 5.54825C14.1654 5.56134 14.1931 5.66542 14.1346 5.7221L11.3329 8.43536C11.2141 8.55036 11.1599 8.71663 11.188 8.87953L11.8492 12.7126C11.8536 12.7382 11.8498 12.7553 11.8442 12.7682C11.8377 12.7831 11.8258 12.7988 11.8081 12.8116C11.7903 12.8244 11.7709 12.8313 11.7533 12.8329C11.7378 12.8344 11.7186 12.8324 11.6943 12.8197L8.23126 11.0089C8.08613 10.933 7.91303 10.933 7.7679 11.0089L4.30487 12.8197C4.28054 12.8324 4.26137 12.8344 4.24581 12.8329C4.22823 12.8313 4.20883 12.8244 4.19108 12.8116C4.17333 12.7988 4.1614 12.783 4.15496 12.7682C4.14936 12.7553 4.14553 12.7382 4.14993 12.7126L4.81113 8.87953C4.83924 8.71663 4.785 8.55037 4.66625 8.43536L1.86457 5.72208C1.80606 5.66543 1.83374 5.56135 1.92383 5.54825L5.7964 4.98545C5.95884 4.96185 6.09935 4.86001 6.17234 4.71299L7.90404 1.22482Z" fill="#F57125"/>
</svg>
