<svg width="18" height="16" viewBox="0 0 18 16" fill="none" xmlns="http://www.w3.org/2000/svg">
<path d="M3.8106 6.3432L3.83361 5.84373L3.8336 5.84373L3.8106 6.3432ZM1.72473 6.24714L1.74773 5.74767L1.73507 5.74709L1.72241 5.74715L1.72473 6.24714ZM1.54405 6.18462L1.23574 6.57825L1.23576 6.57826L1.54405 6.18462ZM1.53012 6.17959L1.19986 6.55499L1.19988 6.55501L1.53012 6.17959ZM1.43082 6.01373L0.94413 6.12838L0.944919 6.13163L1.43082 6.01373ZM0.785221 2.92562L1.23167 3.15074L1.23167 3.15074L0.785221 2.92562ZM0.934895 2.78168L0.734862 2.32343L0.732683 2.3244L0.934895 2.78168ZM0.938238 2.78022L1.13827 3.23847L1.13835 3.23843L0.938238 2.78022ZM5.4762 0.802445L5.67551 1.261V1.261L5.4762 0.802445ZM12.1466 0.79637L11.9511 1.25661V1.25661L12.1466 0.79637ZM16.683 2.72242L16.8801 2.26292L16.8784 2.26218L16.683 2.72242ZM16.698 2.72562L16.9101 2.27281L16.9101 2.2728L16.698 2.72562ZM16.84 2.86204L17.2884 2.64085L17.2851 2.63415L17.2816 2.62756L16.84 2.86204ZM16.8689 3.0775L17.3587 3.17793L17.36 3.17145L16.8689 3.0775ZM16.1617 6.20709L15.841 5.82341L15.8365 5.82729L16.1617 6.20709ZM15.974 6.27891L15.9799 6.77888L15.9817 6.77885L15.974 6.27891ZM14.9798 6.29064L14.9739 5.79068L14.9798 6.29064ZM13.8681 14.8059L14.3681 14.8073V14.8059H13.8681ZM13.7789 15.031L13.4171 14.6858L13.4145 14.6887L13.7789 15.031ZM13.565 15.1249L13.5654 14.6249H13.565V15.1249ZM4.11798 15.1249L4.11642 15.6249H4.11798V15.1249ZM3.90411 15.031L4.26734 14.6874L4.26463 14.6846L3.90411 15.031ZM3.81489 14.8059L3.31489 14.8053L3.31489 14.8056L3.81489 14.8059ZM3.82407 6.3573L4.32407 6.35785V6.3573H3.82407ZM11.5653 1.1373L12.0575 1.22561V1.22561L11.5653 1.1373ZM6.06056 1.14232L5.56853 1.23122V1.23122L6.06056 1.14232ZM16.2624 6.04644L15.7785 5.92067L16.2624 6.04644ZM16.2652 6.0219L16.755 6.12233L16.2652 6.0219ZM0.757777 3.15651L0.271097 3.27116L0.757777 3.15651ZM3.8336 5.84373L1.74773 5.74767L1.70173 6.74661L3.7876 6.84267L3.8336 5.84373ZM1.72241 5.74715C1.77222 5.74692 1.81777 5.7639 1.85234 5.79097L1.23576 6.57826C1.37468 6.68706 1.54703 6.74797 1.72705 6.74714L1.72241 5.74715ZM1.86037 5.80418C1.89082 5.83096 1.90895 5.86379 1.91672 5.89584L0.944919 6.13163C0.984197 6.29352 1.07184 6.44237 1.19986 6.55499L1.86037 5.80418ZM1.9175 5.89909L1.24446 3.04187L0.271097 3.27116L0.944141 6.12838L1.9175 5.89909ZM1.24728 3.0446C1.25367 3.0795 1.24893 3.11652 1.23167 3.15074L0.338768 2.7005C0.25686 2.86294 0.231177 3.0475 0.263634 3.22473L1.24728 3.0446ZM1.23167 3.15074C1.21406 3.18567 1.18248 3.21891 1.13711 3.23897L0.732683 2.3244C0.559034 2.40119 0.421666 2.5361 0.338768 2.7005L1.23167 3.15074ZM1.13835 3.23843C1.18868 3.21645 3.71515 2.11309 5.67551 1.261L5.27688 0.343889C3.31562 1.19636 0.788413 2.30005 0.738124 2.32202L1.13835 3.23843ZM11.9511 1.25661L16.4876 3.18265L16.8784 2.26218L12.342 0.336134L11.9511 1.25661ZM16.486 3.17842C16.4447 3.15909 16.4155 3.12865 16.3984 3.09653L17.2816 2.62756C17.2004 2.47452 17.0715 2.34839 16.9101 2.27281L16.486 3.17842ZM16.3916 3.08324C16.3757 3.05098 16.3715 3.01626 16.3778 2.98354L17.36 3.17145C17.3942 2.99237 17.3697 2.80561 17.2884 2.64085L16.3916 3.08324ZM16.3791 2.97707L15.7754 5.92147L16.755 6.12233L17.3587 3.17793L16.3791 2.97707ZM15.7785 5.92067C15.7874 5.88628 15.8076 5.85134 15.841 5.82343L16.4823 6.59075C16.6137 6.48094 16.7044 6.33342 16.7463 6.17222L15.7785 5.92067ZM15.8365 5.82729C15.8699 5.79867 15.9155 5.77975 15.9663 5.77897L15.9817 6.77885C16.1695 6.77595 16.3472 6.70644 16.4869 6.58689L15.8365 5.82729ZM15.9681 5.77894L14.9739 5.79068L14.9858 6.79061L15.9799 6.77887L15.9681 5.77894ZM13.3681 7.41556V14.8059H14.3681V7.41556H13.3681ZM13.3681 14.8045C13.3682 14.7645 13.3832 14.7215 13.4171 14.6859L14.1407 15.3761C14.2884 15.2213 14.3675 15.0162 14.3681 14.8073L13.3681 14.8045ZM13.4145 14.6887C13.4317 14.6703 13.4537 14.6542 13.4799 14.6427L13.882 15.5583C13.9816 15.5146 14.0702 15.4512 14.1434 15.3733L13.4145 14.6887ZM13.4799 14.6427C13.5061 14.6312 13.5353 14.6249 13.5654 14.6249L13.5647 15.6249C13.6743 15.625 13.7823 15.6021 13.882 15.5583L13.4799 14.6427ZM13.565 14.6249H4.11798V15.6249H13.565V14.6249ZM4.11954 14.6249C4.18019 14.6251 4.23275 14.6508 4.26733 14.6874L3.5409 15.3746C3.68879 15.5309 3.89518 15.6242 4.11642 15.6249L4.11954 14.6249ZM4.26463 14.6846C4.28215 14.7028 4.29473 14.7231 4.30288 14.7436L3.37323 15.1121C3.41201 15.2099 3.4695 15.3003 3.54359 15.3774L4.26463 14.6846ZM4.30288 14.7436C4.31101 14.7642 4.3149 14.7853 4.31489 14.8062L3.31489 14.8056C3.31482 14.9101 3.33446 15.0143 3.37323 15.1121L4.30288 14.7436ZM4.31489 14.8064L4.32407 6.35785L3.32407 6.35676L3.31489 14.8053L4.31489 14.8064ZM14.9739 5.79068C14.084 5.80118 13.3681 6.52558 13.3681 7.41556H14.3681C14.3681 7.07327 14.6435 6.79465 14.9858 6.79061L14.9739 5.79068ZM1.5372 5.68223C1.65272 5.68223 1.76849 5.72335 1.86036 5.80416L1.19988 6.55501C1.29565 6.63926 1.41646 6.68223 1.5372 6.68223V5.68223ZM16.6903 3.22393C16.6232 3.22393 16.553 3.20982 16.486 3.17843L16.9101 2.2728C16.8382 2.23916 16.7628 2.22393 16.6903 2.22393V3.22393ZM16.4858 3.18191C16.5504 3.20962 16.62 3.22393 16.6903 3.22393V2.22393C16.7556 2.22393 16.8202 2.23722 16.8801 2.26292L16.4858 3.18191ZM1.85235 5.79098C1.76511 5.72265 1.65484 5.68223 1.5372 5.68223V6.68223C1.42453 6.68223 1.31907 6.64352 1.23574 6.57825L1.85235 5.79098ZM3.78759 6.84267C3.52822 6.83072 3.32407 6.61695 3.32407 6.3573H4.32407C4.32407 6.08256 4.10806 5.85637 3.83361 5.84373L3.78759 6.84267ZM11.0732 1.049C11.0027 1.4421 10.845 1.95589 10.508 2.36306C10.1884 2.74928 9.68027 3.07491 8.8125 3.07491V4.07491C9.97869 4.07491 10.7691 3.61606 11.2784 3.00063C11.7704 2.40616 11.9722 1.70115 12.0575 1.22561L11.0732 1.049ZM8.8125 3.07491C7.94631 3.07491 7.43858 2.75046 7.11892 2.36538C6.78197 1.95947 6.62369 1.44691 6.5526 1.05342L5.56853 1.23122C5.65456 1.70739 5.85724 2.41112 6.34948 3.0041C6.85899 3.61789 7.64866 4.07491 8.8125 4.07491V3.07491ZM12.342 0.336134C11.7547 0.0868077 11.1685 0.517995 11.0732 1.049L12.0575 1.22561C12.0538 1.24591 12.0442 1.25345 12.0389 1.25664C12.0346 1.25926 12.0249 1.26393 12.009 1.26556C11.9917 1.26733 11.9708 1.26495 11.9511 1.25661L12.342 0.336134ZM5.67551 1.261C5.65573 1.2696 5.6346 1.27217 5.61703 1.27046C5.60085 1.2689 5.59107 1.26419 5.58677 1.26162C5.5816 1.25854 5.57215 1.25128 5.56853 1.23122L6.5526 1.05342C6.45651 0.521631 5.86616 0.0877569 5.27688 0.343889L5.67551 1.261ZM1.13493 3.23993L1.13827 3.23847L0.738207 2.32198L0.734865 2.32344L1.13493 3.23993ZM15.764 6.03331C15.764 6.00065 15.7676 5.96233 15.7785 5.92067L16.7463 6.17222C16.7594 6.12198 16.764 6.07482 16.764 6.03331H15.764ZM15.7754 5.92147C15.7678 5.95827 15.764 5.99574 15.764 6.03331H16.764C16.764 6.06321 16.761 6.09304 16.755 6.12233L15.7754 5.92147ZM1.25641 3.14472C1.25641 3.10743 1.25261 3.07374 1.24728 3.0446L0.263634 3.22473C0.259512 3.20222 0.256406 3.17526 0.256406 3.14472H1.25641ZM1.24446 3.04187C1.2524 3.07558 1.25641 3.11009 1.25641 3.14472H0.256406C0.256406 3.18729 0.261336 3.22972 0.271097 3.27116L1.24446 3.04187Z" fill="black"/>
</svg>
