<svg width="16" height="16" viewBox="0 0 16 16" fill="none" xmlns="http://www.w3.org/2000/svg">
<path fill-rule="evenodd" clip-rule="evenodd" d="M0.833984 7.99967C0.833984 4.04163 4.04261 0.833008 8.00065 0.833008C11.9587 0.833008 15.1673 4.04163 15.1673 7.99967C15.1673 11.9577 11.9587 15.1663 8.00065 15.1663C6.76312 15.1663 5.59756 14.8522 4.58076 14.2992L1.75883 14.8246C1.5968 14.8547 1.43031 14.8031 1.31376 14.6866C1.19722 14.57 1.1456 14.4035 1.17576 14.2415L1.70116 11.4196C1.14807 10.4027 0.833984 9.2372 0.833984 7.99967ZM8.00065 1.83301C4.59489 1.83301 1.83398 4.59392 1.83398 7.99967C1.83398 9.1237 2.13427 10.1761 2.65867 11.0826C2.71842 11.1859 2.73926 11.3072 2.71742 11.4245L2.29226 13.7081L4.5758 13.2829C4.69312 13.2611 4.81437 13.2819 4.91767 13.3417C5.82421 13.866 6.87663 14.1663 8.00065 14.1663C11.4064 14.1663 14.1673 11.4054 14.1673 7.99967C14.1673 4.59392 11.4064 1.83301 8.00065 1.83301ZM11.0209 6.31279C11.2161 6.50805 11.2161 6.82463 11.0209 7.01989L7.68754 10.3532C7.49228 10.5485 7.17569 10.5485 6.98043 10.3532L4.98043 8.35323C4.78517 8.15797 4.78517 7.84138 4.98043 7.64612C5.17569 7.45086 5.49228 7.45086 5.68754 7.64612L7.33398 9.29257L10.3138 6.31279C10.509 6.11753 10.8256 6.11753 11.0209 6.31279Z" fill="#262541"/>
</svg>
