<svg width="20" height="20" viewBox="0 0 20 20" fill="none" xmlns="http://www.w3.org/2000/svg">
<path fill-rule="evenodd" clip-rule="evenodd" d="M16.2754 5.39155C16.5194 5.63563 16.5194 6.03136 16.2754 6.27544L7.94202 14.6088C7.69795 14.8528 7.30222 14.8528 7.05814 14.6088L3.72481 11.2754C3.48073 11.0314 3.48073 10.6356 3.72481 10.3916C3.96888 10.1475 4.36461 10.1475 4.60869 10.3916L7.50008 13.2829L15.3915 5.39155C15.6356 5.14748 16.0313 5.14748 16.2754 5.39155Z" fill="#71BA12"/>
<path d="M16.2754 6.27544L15.745 5.74511V5.74511L16.2754 6.27544ZM16.2754 5.39155L15.745 5.92188L15.745 5.92188L16.2754 5.39155ZM7.94202 14.6088L8.47235 15.1391L7.94202 14.6088ZM7.05814 14.6088L7.58847 14.0784L7.05814 14.6088ZM3.72481 11.2754L3.19448 11.8058L3.19448 11.8058L3.72481 11.2754ZM3.72481 10.3916L3.19448 9.86122L3.19448 9.86122L3.72481 10.3916ZM4.60869 10.3916L5.13902 9.86122L5.13902 9.86122L4.60869 10.3916ZM7.50008 13.2829L6.96975 13.8133C7.26264 14.1062 7.73752 14.1062 8.03041 13.8133L7.50008 13.2829ZM15.3915 5.39155L15.9218 5.92188L15.9218 5.92188L15.3915 5.39155ZM16.8057 6.80577C17.3427 6.2688 17.3427 5.3982 16.8057 4.86122L15.745 5.92188C15.6962 5.87307 15.6962 5.79392 15.745 5.74511L16.8057 6.80577ZM8.47235 15.1391L16.8057 6.80577L15.745 5.74511L7.41169 14.0784L8.47235 15.1391ZM6.52781 15.1391C7.06478 15.6761 7.93538 15.6761 8.47235 15.1391L7.41169 14.0784C7.46051 14.0296 7.53965 14.0296 7.58847 14.0784L6.52781 15.1391ZM3.19448 11.8058L6.52781 15.1391L7.58847 14.0784L4.25514 10.7451L3.19448 11.8058ZM3.19448 9.86122C2.65751 10.3982 2.65751 11.2688 3.19448 11.8058L4.25514 10.7451C4.30395 10.7939 4.30395 10.8731 4.25514 10.9219L3.19448 9.86122ZM5.13902 9.86122C4.60205 9.32425 3.73145 9.32425 3.19448 9.86122L4.25514 10.9219C4.20632 10.9707 4.12718 10.9707 4.07836 10.9219L5.13902 9.86122ZM8.03041 12.7526L5.13902 9.86122L4.07836 10.9219L6.96975 13.8133L8.03041 12.7526ZM14.8611 4.86122L6.96975 12.7526L8.03041 13.8133L15.9218 5.92188L14.8611 4.86122ZM16.8057 4.86122C16.2687 4.32425 15.3981 4.32425 14.8611 4.86122L15.9218 5.92188C15.873 5.9707 15.7938 5.9707 15.745 5.92188L16.8057 4.86122Z" fill="#71BA12"/>
</svg>
