<svg width="18" height="17" viewBox="0 0 18 17" fill="none" xmlns="http://www.w3.org/2000/svg">
<path fill-rule="evenodd" clip-rule="evenodd" d="M9.00933 5.66675C9.36348 5.66675 9.65058 5.97 9.65058 6.34409V10.792C9.65058 11.1661 9.36348 11.4693 9.00933 11.4693C8.65517 11.4693 8.36807 11.1661 8.36807 10.792V6.34409C8.36807 5.97 8.65517 5.66675 9.00933 5.66675ZM9.00933 12.524C9.36348 12.524 9.65058 12.8272 9.65058 13.2013V13.2104C9.65058 13.5845 9.36348 13.8877 9.00933 13.8877C8.65517 13.8877 8.36807 13.5845 8.36807 13.2104V13.2013C8.36807 12.8272 8.65517 12.524 9.00933 12.524Z" fill="#F32929"/>
<path fill-rule="evenodd" clip-rule="evenodd" d="M7.80662 1.0109C8.16843 0.785583 8.58077 0.666748 9.00078 0.666748C9.42079 0.666748 9.83313 0.785583 10.1949 1.0109C10.5548 1.23498 10.8515 1.55624 11.0548 1.9416L17.1224 12.9995C17.1375 13.027 17.1508 13.0556 17.1621 13.0851C17.3059 13.4608 17.3606 13.8679 17.3213 14.271C17.282 14.674 17.1499 15.0608 16.9366 15.3976C16.7232 15.7344 16.4351 16.0109 16.0974 16.2031C15.7596 16.3953 15.3825 16.4972 14.9989 16.5L14.9944 16.5001H3.02427C3.00855 16.5001 2.99295 16.4995 2.97751 16.4983C2.95112 16.5003 2.92432 16.5006 2.8972 16.4992C2.52264 16.4788 2.15813 16.364 1.83411 16.1645C1.51008 15.965 1.23595 15.6865 1.03459 15.3523C0.833226 15.018 0.710483 14.6378 0.676604 14.2432C0.642726 13.8487 0.698696 13.4513 0.839841 13.0842C0.851063 13.0551 0.864199 13.0267 0.879152 12.9995L6.94676 1.94162C7.15001 1.55625 7.44679 1.23498 7.80662 1.0109ZM2.97707 15.1472C2.99266 15.146 3.0084 15.1454 3.02427 15.1454H14.9918C15.1655 15.1438 15.3363 15.0974 15.4892 15.0104C15.6427 14.9231 15.7737 14.7974 15.8707 14.6443C15.9676 14.4912 16.0277 14.3154 16.0455 14.1322C16.062 13.963 16.0421 13.7922 15.9874 13.6326L9.94224 2.61555L9.93594 2.60381C9.84352 2.42736 9.70803 2.28028 9.54358 2.17786C9.37912 2.07545 9.19169 2.02143 9.00078 2.02143C8.80987 2.02143 8.62244 2.07545 8.45798 2.17786C8.29352 2.28028 8.15804 2.42736 8.06561 2.60381L8.05932 2.61555L2.01386 13.633C1.96022 13.7889 1.93967 13.9554 1.95387 14.1208C1.96927 14.3002 2.02507 14.473 2.11659 14.625C2.20812 14.7769 2.33273 14.9035 2.48001 14.9942C2.62729 15.0849 2.79298 15.137 2.96324 15.1463C2.96786 15.1465 2.97247 15.1468 2.97707 15.1472Z" fill="#F32929"/>
</svg>
