<svg width="178" height="179" viewBox="0 0 178 179" fill="none" xmlns="http://www.w3.org/2000/svg">
<path d="M101.955 4.41508L101.328 4.00393L101.328 4.00393L101.955 4.41508ZM128.863 13.4212L129.612 13.4706L128.863 13.4212ZM127.722 30.6901L126.973 30.6407C126.958 30.8753 127.053 31.1036 127.231 31.2574L127.722 30.6901ZM140.927 42.1109L140.437 42.6782C140.65 42.8623 140.948 42.9117 141.208 42.8062L140.927 42.1109ZM155.02 36.4122L154.739 35.7169L155.02 36.4122ZM162.957 39.4177L163.628 39.0831L162.957 39.4177ZM173.474 60.5115L174.145 60.1769L173.474 60.5115ZM171.126 68.6415L170.736 68.0006L171.126 68.6415ZM158.108 76.5515L157.719 75.9105C157.479 76.0563 157.34 76.3238 157.36 76.6037L158.108 76.5515ZM159.29 93.4771L158.542 93.5294C158.559 93.7654 158.686 93.9797 158.884 94.1078L159.29 93.4771ZM173.847 102.847L174.253 102.216L173.847 102.847ZM176.392 110.086L177.103 110.324L176.392 110.086ZM171.163 125.711L171.874 125.949L171.163 125.711ZM164.809 129.962L164.86 129.214L164.86 129.214L164.809 129.962ZM147.415 128.772L147.466 128.024C147.232 128.008 147.003 128.102 146.849 128.28L147.415 128.772ZM136.27 141.595L135.703 141.103C135.519 141.315 135.469 141.613 135.573 141.874L136.27 141.595ZM141.953 155.813L141.257 156.091L141.953 155.813ZM138.938 163.726L139.273 164.397L138.938 163.726ZM109.622 171.738L110.274 171.367L110.274 171.366L109.622 171.738ZM109.315 171.199L109.966 170.827L109.966 170.827L109.315 171.199ZM108.471 169.729L107.821 170.103L107.821 170.103L108.471 169.729ZM105.733 165.019L106.379 164.639L105.733 165.019ZM101.982 158.794L102.618 158.396C102.471 158.161 102.206 158.026 101.93 158.045L101.982 158.794ZM84.9064 159.986L84.8541 159.238C84.6179 159.255 84.4033 159.382 84.2753 159.581L84.9064 159.986ZM75.5128 174.612L74.8817 174.206L75.5128 174.612ZM48.2165 165.474L48.9644 165.531L48.2165 165.474ZM49.5272 148.149L50.2751 148.206C50.293 147.969 50.1976 147.737 50.0179 147.582L49.5272 148.149ZM36.9638 137.281L37.4545 136.714C37.2464 136.534 36.9564 136.482 36.6989 136.579L36.9638 137.281ZM22.4306 142.766L22.1658 142.065L22.1658 142.065L22.4306 142.766ZM14.6303 139.708L15.3015 139.373L14.6303 139.708ZM4.11329 118.614L3.44208 118.949L4.11329 118.614ZM6.60203 110.401L6.22948 109.75L6.60203 110.401ZM19.6491 102.934L20.0217 103.584C20.2729 103.441 20.4189 103.165 20.3969 102.877L19.6491 102.934ZM18.3633 86.0585L19.1111 86.0015C19.0936 85.7719 18.9716 85.5631 18.7801 85.4351L18.3633 86.0585ZM3.64817 76.2189L3.23128 76.8424L3.23128 76.8424L3.64817 76.2189ZM12.9949 48.9954L13.065 48.2487L12.9949 48.9954ZM29.9874 50.5907L29.9173 51.3374C30.1597 51.3602 30.398 51.2638 30.5566 51.0791L29.9874 50.5907ZM41.0412 37.7091L41.6104 38.1975C41.7886 37.9898 41.8395 37.7015 41.7433 37.4453L41.0412 37.7091ZM35.5864 23.1912L34.8844 23.455L34.8844 23.455L35.5864 23.1912ZM38.6484 15.3996L38.3137 14.7284L38.6484 15.3996ZM59.7422 4.88264L60.0768 5.55384L60.0768 5.55384L59.7422 4.88264ZM67.9518 7.36526L67.3013 7.73855L67.9518 7.36526ZM75.4497 20.4314L74.7992 20.8047C74.9431 21.0555 75.2183 21.2012 75.5066 21.1792L75.4497 20.4314ZM92.2986 19.1476L92.3556 19.8954C92.5876 19.8778 92.7983 19.7534 92.9259 19.5588L92.2986 19.1476ZM109.769 15.2972L110.006 14.5859C109.683 14.4778 109.328 14.6011 109.141 14.886L109.769 15.2972ZM101.067 28.5722L101.694 28.9834L101.694 28.9834L101.067 28.5722ZM96.3147 31.3778L96.2577 30.63L96.3147 31.3778ZM72.4666 33.1949L72.5236 33.9427L72.4666 33.1949ZM66.5709 30.0737L65.9204 30.447L66.5709 30.0737ZM60.044 18.6996L60.6945 18.3263C60.4968 17.9818 60.0648 17.8512 59.7094 18.0284L60.044 18.6996ZM49.2703 24.0712L48.9356 23.4C48.5917 23.5715 48.433 23.9753 48.5682 24.335L49.2703 24.0712ZM54.0432 36.7745L54.7453 36.5107L54.0432 36.7745ZM52.9356 43.0428L53.5048 43.5312L52.9356 43.0428ZM37.367 61.1858L36.7978 60.6974L37.367 61.1858ZM32.0397 63.3383L31.9696 64.085L31.9696 64.085L32.0397 63.3383ZM16.7641 61.9042L16.8342 61.1575C16.4872 61.1249 16.1634 61.3357 16.0528 61.6662L16.7641 61.9042ZM14.5636 68.4807L13.8524 68.2428C13.7451 68.5634 13.8656 68.9162 14.1467 69.1042L14.5636 68.4807ZM27.8383 77.3572L28.2552 76.7337L27.8383 77.3572ZM30.5962 82.0778L29.8483 82.1348L30.5962 82.0778ZM32.413 105.921L31.6652 105.978L32.413 105.921ZM29.2857 111.821L29.6582 112.472L29.2857 111.821ZM17.9333 118.318L17.5607 117.667C17.2157 117.865 17.0847 118.297 17.2621 118.653L17.9333 118.318ZM23.2981 129.078L22.6269 129.413C22.7986 129.757 23.203 129.916 23.5629 129.78L23.2981 129.078ZM36.0314 124.272L36.2962 124.974L36.2962 124.974L36.0314 124.272ZM42.3273 125.393L42.818 124.826L42.818 124.826L42.3273 125.393ZM60.0859 140.755L59.5952 141.322L60.0859 140.755ZM62.2291 145.953L62.977 146.01L62.2291 145.953ZM61.0481 161.563L60.3002 161.507C60.2743 161.849 60.4844 162.165 60.8101 162.274L61.0481 161.563ZM67.6242 163.763L67.3862 164.475C67.7118 164.584 68.0697 164.458 68.2552 164.169L67.6242 163.763ZM76.0837 150.593L76.7148 150.998L76.0837 150.593ZM80.9069 147.735L80.8546 146.987L80.9069 147.735ZM104.756 146.069L104.809 146.818L104.756 146.069ZM110.252 148.636L109.645 149.076L109.645 149.076L110.252 148.636ZM116.507 158.682L115.861 159.063L116.507 158.682ZM117.532 160.432L116.884 160.809C117.083 161.151 117.513 161.279 117.866 161.103L117.532 160.432ZM128.21 155.108L128.544 155.779C128.894 155.605 129.051 155.192 128.906 154.829L128.21 155.108ZM123.247 142.694L122.55 142.972L122.55 142.972L123.247 142.694ZM124.333 136.274L124.899 136.766L124.333 136.274ZM140.021 118.224L140.587 118.716L140.587 118.716L140.021 118.224ZM145.165 116.089L145.114 116.837L145.165 116.089ZM160.842 117.162L160.791 117.91C161.132 117.933 161.445 117.724 161.553 117.4L160.842 117.162ZM162.995 110.727L163.707 110.965C163.815 110.64 163.69 110.282 163.401 110.097L162.995 110.727ZM149.891 102.293L149.485 102.923L149.891 102.293ZM147.039 97.4729L146.291 97.5251L147.039 97.4729ZM145.373 73.6234L146.121 73.5712L146.121 73.5712L145.373 73.6234ZM148.362 67.8466L147.973 67.2057L147.973 67.2057L148.362 67.8466ZM159.722 60.9442L160.111 61.5852C160.445 61.3827 160.567 60.9586 160.393 60.6096L159.722 60.9442ZM154.349 50.1671L155.02 49.8325C154.845 49.4821 154.43 49.325 154.067 49.4718L154.349 50.1671ZM142.071 55.1315L142.353 55.8268L142.071 55.1315ZM135.64 54.0646L136.131 53.4973L135.64 54.0646ZM117.192 38.1096L116.701 38.6769L117.192 38.1096ZM115.044 32.9701L115.792 33.0195L115.044 32.9701ZM116.073 17.4065L116.821 17.4559C116.843 17.1159 116.634 16.8034 116.311 16.6952L116.073 17.4065ZM60.5644 78.0112C60.7209 77.6277 60.5368 77.1899 60.1533 77.0334C59.7698 76.8769 59.332 77.061 59.1755 77.4445L60.5644 78.0112ZM61.006 73.6806C60.8009 74.0404 60.9262 74.4984 61.2861 74.7036C61.6459 74.9088 62.1039 74.7834 62.3091 74.4235L61.006 73.6806ZM64.5092 71.0953C64.7599 70.7655 64.6958 70.295 64.3661 70.0443C64.0363 69.7936 63.5658 69.8577 63.3151 70.1874L64.5092 71.0953ZM66.0628 67.029C65.771 67.3229 65.7727 67.7978 66.0666 68.0896C66.3606 68.3814 66.8355 68.3797 67.1273 68.0858L66.0628 67.029ZM70.1178 65.4447C70.4455 65.1914 70.5059 64.7204 70.2526 64.3927C69.9993 64.0649 69.5283 64.0046 69.2005 64.2579L70.1178 65.4447ZM72.6725 61.9195C72.3146 62.128 72.1935 62.5872 72.402 62.9451C72.6106 63.303 73.0697 63.424 73.4276 63.2155L72.6725 61.9195ZM76.9989 61.4349C77.3808 61.2746 77.5605 60.835 77.4001 60.4531C77.2398 60.0712 76.8002 59.8915 76.4183 60.0518L76.9989 61.4349ZM80.3753 58.6863C79.9758 58.7956 79.7405 59.2081 79.8498 59.6076C79.9591 60.0072 80.3716 60.2425 80.7712 60.1331L80.3753 58.6863ZM84.6801 59.3343C85.0905 59.2781 85.3777 58.8999 85.3215 58.4895C85.2654 58.0791 84.8871 57.7919 84.4767 57.8481L84.6801 59.3343ZM88.6528 57.5545C88.2386 57.5563 87.9042 57.8935 87.906 58.3077C87.9078 58.7219 88.245 59.0563 88.6592 59.0545L88.6528 57.5545ZM92.6414 59.3004C93.0522 59.3531 93.428 59.0628 93.4807 58.652C93.5334 58.2411 93.2431 57.8653 92.8322 57.8126L92.6414 59.3004ZM96.9398 58.6159C96.5393 58.5101 96.1289 58.7489 96.0231 59.1494C95.9173 59.5499 96.1561 59.9603 96.5566 60.0661L96.9398 58.6159ZM100.345 61.3337C100.729 61.4902 101.166 61.3062 101.323 60.9226C101.479 60.5391 101.295 60.1014 100.912 59.9449L100.345 61.3337ZM104.676 61.7754C104.316 61.5702 103.858 61.6956 103.653 62.0554C103.447 62.4153 103.573 62.8733 103.933 63.0784L104.676 61.7754ZM107.261 65.2785C107.591 65.5292 108.061 65.4652 108.312 65.1354C108.563 64.8057 108.499 64.3352 108.169 64.0845L107.261 65.2785ZM111.327 66.8322C111.033 66.5403 110.558 66.542 110.267 66.836C109.975 67.1299 109.976 67.6048 110.27 67.8966L111.327 66.8322ZM112.911 70.8871C113.165 71.2149 113.636 71.2752 113.964 71.0219C114.291 70.7686 114.352 70.2976 114.098 69.9699L112.911 70.8871ZM116.437 73.4418C116.228 73.0839 115.769 72.9629 115.411 73.1714C115.053 73.3799 114.932 73.8391 115.141 74.197L116.437 73.4418ZM116.921 77.7683C117.082 78.1502 117.521 78.3298 117.903 78.1695C118.285 78.0092 118.465 77.5696 118.304 77.1877L116.921 77.7683ZM119.67 81.1447C119.561 80.7451 119.148 80.5099 118.749 80.6192C118.349 80.7285 118.114 81.141 118.223 81.5405L119.67 81.1447ZM119.022 85.4495C119.078 85.8599 119.456 86.147 119.867 86.0909C120.277 86.0347 120.564 85.6565 120.508 85.2461L119.022 85.4495ZM120.802 89.4221C120.8 89.0079 120.463 88.6736 120.048 88.6754C119.634 88.6771 119.3 89.0144 119.302 89.4286L120.802 89.4221ZM119.056 93.4107C119.003 93.8216 119.293 94.1974 119.704 94.2501C120.115 94.3028 120.491 94.0124 120.544 93.6016L119.056 93.4107ZM119.74 97.7092C119.846 97.3087 119.607 96.8983 119.207 96.7924C118.806 96.6866 118.396 96.9255 118.29 97.3259L119.74 97.7092ZM117.022 101.114C116.866 101.498 117.05 101.936 117.434 102.092C117.817 102.249 118.255 102.065 118.411 101.681L117.022 101.114ZM116.581 105.445C116.786 105.085 116.661 104.627 116.301 104.422C115.941 104.217 115.483 104.342 115.278 104.702L116.581 105.445ZM113.078 108.03C112.827 108.36 112.891 108.831 113.221 109.081C113.551 109.332 114.021 109.268 114.272 108.938L113.078 108.03ZM111.524 112.097C111.816 111.803 111.814 111.328 111.52 111.036C111.226 110.744 110.751 110.746 110.46 111.04L111.524 112.097ZM107.469 113.681C107.141 113.934 107.081 114.405 107.334 114.733C107.588 115.061 108.059 115.121 108.386 114.868L107.469 113.681ZM104.914 117.206C105.272 116.998 105.393 116.538 105.185 116.181C104.976 115.823 104.517 115.702 104.159 115.91L104.914 117.206ZM100.588 117.691C100.206 117.851 100.026 118.291 100.187 118.672C100.347 119.054 100.787 119.234 101.169 119.074L100.588 117.691ZM97.2115 120.439C97.6111 120.33 97.8463 119.917 97.737 119.518C97.6277 119.118 97.2152 118.883 96.8157 118.992L97.2115 120.439ZM92.9067 119.791C92.4963 119.847 92.2092 120.226 92.2653 120.636C92.3215 121.046 92.6997 121.334 93.1101 121.277L92.9067 119.791ZM88.9341 121.571C89.3483 121.569 89.6826 121.232 89.6808 120.818C89.6791 120.404 89.3418 120.069 88.9276 120.071L88.9341 121.571ZM84.9455 119.825C84.5346 119.772 84.1589 120.063 84.1062 120.474C84.0534 120.884 84.3438 121.26 84.7546 121.313L84.9455 119.825ZM80.647 120.51C81.0475 120.615 81.4579 120.377 81.5638 119.976C81.6696 119.576 81.4307 119.165 81.0303 119.059L80.647 120.51ZM77.2418 117.792C76.8583 117.635 76.4205 117.819 76.2641 118.203C76.1076 118.586 76.2916 119.024 76.6751 119.181L77.2418 117.792ZM72.9112 117.35C73.2711 117.555 73.7291 117.43 73.9343 117.07C74.1394 116.71 74.014 116.252 73.6542 116.047L72.9112 117.35ZM70.3259 113.847C69.9962 113.596 69.5256 113.66 69.2749 113.99C69.0242 114.32 69.0883 114.79 69.4181 115.041L70.3259 113.847ZM66.2596 112.293C66.5536 112.585 67.0284 112.584 67.3203 112.29C67.6121 111.996 67.6104 111.521 67.3164 111.229L66.2596 112.293ZM64.6754 108.238C64.4221 107.911 63.951 107.85 63.6233 108.104C63.2956 108.357 63.2352 108.828 63.4885 109.156L64.6754 108.238ZM61.1501 105.684C61.3586 106.042 61.8178 106.163 62.1757 105.954C62.5336 105.746 62.6547 105.286 62.4461 104.929L61.1501 105.684ZM60.6656 101.357C60.5052 100.975 60.0657 100.796 59.6837 100.956C59.3018 101.116 59.1222 101.556 59.2825 101.938L60.6656 101.357ZM57.917 97.9809C58.0263 98.3804 58.4388 98.6157 58.8383 98.5064C59.2378 98.3971 59.4731 97.9846 59.3638 97.585L57.917 97.9809ZM58.5649 93.6761C58.5087 93.2657 58.1305 92.9785 57.7201 93.0347C57.3097 93.0909 57.0226 93.4691 57.0788 93.8795L58.5649 93.6761ZM56.7852 89.7034C56.7869 90.1176 57.1242 90.452 57.5384 90.4502C57.9526 90.4484 58.2869 90.1112 58.2851 89.697L56.7852 89.7034ZM58.5311 85.7148C58.5838 85.304 58.2935 84.9282 57.8826 84.8755C57.4718 84.8228 57.096 85.1131 57.0433 85.524L58.5311 85.7148ZM57.8465 81.4164C57.7407 81.8169 57.9796 82.2273 58.38 82.3331C58.7805 82.439 59.1909 82.2001 59.2968 81.7996L57.8465 81.4164ZM93.1391 70.5518C92.7354 70.459 92.3329 70.7111 92.2402 71.1148C92.1474 71.5184 92.3995 71.9209 92.8031 72.0137L93.1391 70.5518ZM89.3033 71.565C89.7173 71.5769 90.0626 71.2509 90.0745 70.8368C90.0864 70.4228 89.7604 70.0775 89.3464 70.0656L89.3033 71.565ZM85.5319 70.3336C85.1236 70.4032 84.849 70.7906 84.9186 71.1989C84.9882 71.6073 85.3757 71.8819 85.784 71.8123L85.5319 70.3336ZM82.3798 72.7434C82.7667 72.5956 82.9606 72.1621 82.8128 71.7751C82.665 71.3882 82.2315 71.1943 81.8445 71.3421L82.3798 72.7434ZM78.4237 73.0477C78.0728 73.2678 77.9668 73.7306 78.1868 74.0815C78.4069 74.4325 78.8698 74.5385 79.2207 74.3185L78.4237 73.0477ZM76.4284 76.4768C76.7297 76.1926 76.7435 75.7179 76.4593 75.4166C76.1751 75.1153 75.7004 75.1014 75.3991 75.3856L76.4284 76.4768ZM72.8895 78.2707C72.6498 78.6085 72.7294 79.0767 73.0672 79.3163C73.4051 79.556 73.8732 79.4765 74.1129 79.1386L72.8895 78.2707ZM72.365 82.2038C72.5338 81.8255 72.3641 81.382 71.9859 81.2132C71.6076 81.0443 71.1641 81.214 70.9953 81.5923L72.365 82.2038ZM69.7824 85.2171C69.6896 85.6208 69.9417 86.0233 70.3454 86.116C70.7491 86.2088 71.1515 85.9568 71.2443 85.5531L69.7824 85.2171ZM70.7956 89.0529C70.8075 88.6389 70.4815 88.2936 70.0675 88.2817C69.6534 88.2698 69.3081 88.5958 69.2962 89.0098L70.7956 89.0529ZM69.5642 92.8243C69.6338 93.2326 70.0213 93.5072 70.4296 93.4376C70.8379 93.368 71.1125 92.9805 71.0429 92.5722L69.5642 92.8243ZM71.974 95.9764C71.8262 95.5895 71.3927 95.3956 71.0058 95.5434C70.6188 95.6912 70.425 96.1247 70.5728 96.5117L71.974 95.9764ZM72.2783 99.9325C72.4984 100.283 72.9613 100.389 73.3122 100.169C73.6631 99.9493 73.7692 99.4864 73.5491 99.1355L72.2783 99.9325ZM75.7075 101.928C75.4232 101.627 74.9486 101.613 74.6472 101.897C74.3459 102.181 74.3321 102.656 74.6163 102.957L75.7075 101.928ZM77.5013 105.467C77.8392 105.706 78.3073 105.627 78.547 105.289C78.7867 104.951 78.7071 104.483 78.3693 104.243L77.5013 105.467ZM81.4344 105.991C81.0562 105.822 80.6127 105.992 80.4438 106.37C80.275 106.749 80.4447 107.192 80.8229 107.361L81.4344 105.991ZM84.4478 108.574C84.8515 108.667 85.2539 108.415 85.3467 108.011C85.4394 107.607 85.1874 107.205 84.7837 107.112L84.4478 108.574ZM88.2836 107.561C87.8695 107.549 87.5242 107.875 87.5123 108.289C87.5004 108.703 87.8264 109.048 88.2405 109.06L88.2836 107.561ZM92.0549 108.792C92.4632 108.722 92.7378 108.335 92.6682 107.927C92.5986 107.518 92.2112 107.244 91.8029 107.313L92.0549 108.792ZM95.2071 106.382C94.8201 106.53 94.6263 106.963 94.7741 107.35C94.9219 107.737 95.3554 107.931 95.7423 107.783L95.2071 106.382ZM99.1631 106.078C99.514 105.858 99.6201 105.395 99.4 105.044C99.18 104.693 98.7171 104.587 98.3662 104.807L99.1631 106.078ZM101.158 102.649C100.857 102.933 100.843 103.408 101.128 103.709C101.412 104.01 101.886 104.024 102.188 103.74L101.158 102.649ZM104.697 100.855C104.937 100.517 104.857 100.049 104.52 99.8092C104.182 99.5695 103.714 99.6491 103.474 99.9869L104.697 100.855ZM105.222 96.9218C105.053 97.3 105.223 97.7435 105.601 97.9124C105.979 98.0813 106.423 97.9115 106.592 97.5333L105.222 96.9218ZM107.804 93.9084C107.897 93.5048 107.645 93.1023 107.241 93.0095C106.838 92.9168 106.435 93.1688 106.343 93.5725L107.804 93.9084ZM106.791 90.0726C106.779 90.4867 107.105 90.832 107.519 90.8439C107.933 90.8558 108.279 90.5298 108.291 90.1157L106.791 90.0726ZM108.023 86.3013C107.953 85.893 107.566 85.6184 107.157 85.688C106.749 85.7576 106.474 86.145 106.544 86.5533L108.023 86.3013ZM105.613 83.1491C105.761 83.5361 106.194 83.7299 106.581 83.5821C106.968 83.4343 107.162 83.0008 107.014 82.6139L105.613 83.1491ZM105.309 79.1931C105.088 78.8422 104.626 78.7361 104.275 78.9562C103.924 79.1763 103.818 79.6391 104.038 79.99L105.309 79.1931ZM101.879 77.1977C102.164 77.499 102.638 77.5129 102.94 77.2287C103.241 76.9445 103.255 76.4698 102.971 76.1685L101.879 77.1977ZM100.086 73.6589C99.7477 73.4192 99.2795 73.4988 99.0399 73.8366C98.8002 74.1744 98.8798 74.6426 99.2176 74.8823L100.086 73.6589ZM96.1524 73.1343C96.5307 73.3032 96.9742 73.1335 97.143 72.7552C97.3119 72.377 97.1422 71.9335 96.7639 71.7646L96.1524 73.1343ZM100.121 5.84549C99.894 6.19192 99.9908 6.65683 100.337 6.88391C100.684 7.11098 101.149 7.01423 101.376 6.6678L100.121 5.84549ZM98.9614 10.3509C99.1885 10.0045 99.0917 9.5396 98.7453 9.31252C98.3989 9.08545 97.934 9.1822 97.7069 9.52863L98.9614 10.3509ZM95.2927 13.2118C95.0656 13.5582 95.1623 14.0231 95.5088 14.2502C95.8552 14.4772 96.3201 14.3805 96.5472 14.0341L95.2927 13.2118ZM94.133 17.7172C94.36 17.3708 94.2633 16.9059 93.9169 16.6788C93.5704 16.4517 93.1055 16.5485 92.8784 16.8949L94.133 17.7172ZM90.1355 18.5603C89.7225 18.5917 89.4132 18.952 89.4446 19.3651C89.4761 19.7781 89.8364 20.0874 90.2495 20.0559L90.1355 18.5603ZM86.0372 20.3769C86.4502 20.3454 86.7595 19.9851 86.7281 19.572C86.6966 19.159 86.3363 18.8497 85.9233 18.8812L86.0372 20.3769ZM81.711 19.2021C81.298 19.2336 80.9887 19.5939 81.0202 20.007C81.0516 20.42 81.412 20.7293 81.825 20.6978L81.711 19.2021ZM77.6128 21.0187C78.0258 20.9873 78.3351 20.627 78.3036 20.2139C78.2721 19.8009 77.9118 19.4916 77.4988 19.5231L77.6128 21.0187ZM75.1629 18.4248C74.9568 18.0656 74.4984 17.9415 74.1391 18.1476C73.7799 18.3538 73.6558 18.8121 73.8619 19.1714L75.1629 18.4248ZM71.9874 15.9049C72.1936 16.2641 72.652 16.3883 73.0112 16.1821C73.3705 15.9759 73.4946 15.5176 73.2885 15.1583L71.9874 15.9049ZM71.414 11.8918C71.2078 11.5325 70.7495 11.4084 70.3902 11.6146C70.0309 11.8207 69.9068 12.2791 70.113 12.6383L71.414 11.8918ZM68.2385 9.37181C68.4447 9.73107 68.903 9.85519 69.2623 9.64903C69.6216 9.44287 69.7457 8.9845 69.5395 8.62524L68.2385 9.37181ZM66.888 4.99564C66.5637 4.73796 66.0919 4.79197 65.8342 5.11628C65.5765 5.44058 65.6305 5.91238 65.9548 6.17006L66.888 4.99564ZM62.0668 4.99429C62.4795 4.9595 62.7859 4.5967 62.7511 4.18395C62.7163 3.7712 62.3535 3.4648 61.9408 3.49959L62.0668 4.99429ZM57.6497 5.08786C57.279 5.27268 57.1283 5.72301 57.3131 6.09371C57.498 6.4644 57.9483 6.61508 58.319 6.43026L57.6497 5.08786ZM54.8034 8.18309C55.174 7.99827 55.3247 7.54793 55.1399 7.17724C54.9551 6.80654 54.5048 6.65587 54.1341 6.84069L54.8034 8.18309ZM50.6184 8.59352C50.2477 8.77834 50.097 9.22867 50.2819 9.59937C50.4667 9.97006 50.917 10.1207 51.2877 9.93592L50.6184 8.59352ZM47.7721 11.6887C48.1428 11.5039 48.2935 11.0536 48.1086 10.6829C47.9238 10.3122 47.4735 10.1615 47.1028 10.3463L47.7721 11.6887ZM43.5872 12.0992C43.2165 12.284 43.0658 12.7343 43.2506 13.105C43.4354 13.4757 43.8858 13.6264 44.2565 13.4416L43.5872 12.0992ZM40.7408 15.1944C41.1115 15.0096 41.2622 14.5593 41.0774 14.1886C40.8925 13.8179 40.4422 13.6672 40.0715 13.852L40.7408 15.1944ZM36.2733 16.2654C35.9936 16.571 36.0147 17.0454 36.3203 17.325C36.6259 17.6046 37.1003 17.5836 37.3799 17.278L36.2733 16.2654ZM35.9362 20.9518C35.9394 20.5376 35.6062 20.1992 35.192 20.196C34.7778 20.1927 34.4394 20.5259 34.4362 20.9401L35.9362 20.9518ZM35.5662 25.2697C35.7119 25.6575 36.1443 25.8537 36.5321 25.708C36.9198 25.5623 37.116 25.1299 36.9704 24.7422L35.5662 25.2697ZM38.334 28.3716C38.1884 27.9839 37.7559 27.7877 37.3682 27.9333C36.9804 28.079 36.7842 28.5115 36.9299 28.8992L38.334 28.3716ZM38.2936 32.5287C38.4393 32.9164 38.8717 33.1127 39.2594 32.967C39.6472 32.8213 39.8434 32.3889 39.6977 32.0011L38.2936 32.5287ZM41.0614 35.6306C40.9157 35.2428 40.4833 35.0466 40.0955 35.1923C39.7078 35.338 39.5116 35.7704 39.6573 36.1582L41.0614 35.6306ZM39.0903 38.8309C38.8205 39.1452 38.8567 39.6187 39.1711 39.8885C39.4854 40.1582 39.9589 40.1221 40.2286 39.8077L39.0903 38.8309ZM37.4652 43.0281C37.7349 42.7138 37.6988 42.2403 37.3844 41.9705C37.0701 41.7008 36.5966 41.737 36.3268 42.0513L37.4652 43.0281ZM33.5634 45.2717C33.2937 45.586 33.3298 46.0595 33.6442 46.3293C33.9585 46.599 34.432 46.5629 34.7017 46.2485L33.5634 45.2717ZM31.9383 49.4689C32.208 49.1546 32.1719 48.6811 31.8575 48.4113C31.5432 48.1416 31.0697 48.1777 30.8 48.4921L31.9383 49.4689ZM27.9334 49.6446C27.521 49.6058 27.1553 49.9088 27.1166 50.3212C27.0779 50.7336 27.3808 51.0993 27.7932 51.138L27.9334 49.6446ZM23.5451 50.7392C23.9575 50.7779 24.3232 50.475 24.3619 50.0626C24.4006 49.6502 24.0977 49.2845 23.6853 49.2457L23.5451 50.7392ZM19.4372 48.8469C19.0248 48.8082 18.6591 49.1111 18.6203 49.5235C18.5816 49.9359 18.8846 50.3016 19.297 50.3403L19.4372 48.8469ZM15.0488 49.9415C15.4612 49.9802 15.8269 49.6773 15.8656 49.2649C15.9044 48.8525 15.6014 48.4868 15.189 48.4481L15.0488 49.9415ZM10.7344 48.4211C10.3322 48.5203 10.0867 48.9268 10.1859 49.3289C10.2852 49.7311 10.6917 49.9766 11.0938 49.8774L10.7344 48.4211ZM8.0593 51.8531C8.31275 51.5255 8.25263 51.0545 7.92501 50.801C7.5974 50.5476 7.12634 50.6077 6.87289 50.9353L8.0593 51.8531ZM5.11135 54.9726C4.97992 55.3654 5.19181 55.7904 5.58462 55.9218C5.97743 56.0532 6.40241 55.8413 6.53384 55.4485L5.11135 54.9726ZM5.21174 59.3999C5.34317 59.0071 5.13128 58.5821 4.73847 58.4507C4.34566 58.3192 3.92068 58.5311 3.78925 58.9239L5.21174 59.3999ZM2.46715 62.8753C2.33572 63.2681 2.54761 63.6931 2.94041 63.8245C3.33322 63.9559 3.7582 63.744 3.88964 63.3512L2.46715 62.8753ZM2.56753 67.3026C2.69896 66.9098 2.48708 66.4848 2.09427 66.3534C1.70146 66.2219 1.27648 66.4338 1.14505 66.8266L2.56753 67.3026ZM0.121765 71.0459C0.123153 71.4601 0.460063 71.7948 0.874275 71.7934C1.28849 71.792 1.62314 71.4551 1.62176 71.0409L0.121765 71.0459ZM2.76125 74.3757C2.50887 74.0472 2.03802 73.9855 1.70957 74.2379C1.38113 74.4903 1.31945 74.9612 1.57183 75.2896L2.76125 74.3757ZM5.07066 78.0723C5.41499 78.3026 5.88077 78.2101 6.11101 77.8658C6.34126 77.5214 6.24877 77.0557 5.90444 76.8254L5.07066 78.0723ZM9.58322 79.2853C9.23889 79.0551 8.77311 79.1475 8.54286 79.4919C8.31262 79.8362 8.40511 80.302 8.74943 80.5322L9.58322 79.2853ZM12.4282 82.9921C12.7725 83.2224 13.2383 83.1299 13.4686 82.7856C13.6988 82.4412 13.6063 81.9754 13.262 81.7452L12.4282 82.9921ZM16.9408 84.2051C16.5964 83.9749 16.1306 84.0673 15.9004 84.4117C15.6702 84.756 15.7626 85.2218 16.107 85.452L16.9408 84.2051ZM17.7762 88.2249C17.8076 88.6379 18.1679 88.9472 18.581 88.9157C18.994 88.8843 19.3033 88.5239 19.2718 88.1109L17.7762 88.2249ZM19.5933 92.3297C19.5618 91.9167 19.2015 91.6073 18.7885 91.6388C18.3754 91.6703 18.0661 92.0306 18.0976 92.4436L19.5933 92.3297ZM18.4191 96.6624C18.4505 97.0754 18.8109 97.3847 19.2239 97.3532C19.6369 97.3218 19.9462 96.9614 19.9147 96.5484L18.4191 96.6624ZM20.2362 100.767C20.2047 100.354 19.8444 100.045 19.4314 100.076C19.0184 100.108 18.7091 100.468 18.7405 100.881L20.2362 100.767ZM17.6457 103.216C17.2862 103.422 17.1615 103.88 17.3673 104.24C17.5731 104.599 18.0313 104.724 18.3908 104.518L17.6457 103.216ZM15.129 106.385C15.4885 106.179 15.6131 105.721 15.4074 105.361C15.2016 105.002 14.7434 104.877 14.3839 105.083L15.129 106.385ZM11.1221 106.95C10.7626 107.155 10.638 107.614 10.8438 107.973C11.0495 108.333 11.5077 108.457 11.8672 108.252L11.1221 106.95ZM8.60547 110.118C8.96496 109.913 9.0896 109.454 8.88384 109.095C8.67809 108.735 8.21986 108.611 7.86036 108.817L8.60547 110.118ZM4.22997 111.464C3.97202 111.788 4.02563 112.26 4.34972 112.517C4.67381 112.775 5.14565 112.722 5.4036 112.398L4.22997 111.464ZM4.2248 116.288C4.19013 115.875 3.82741 115.569 3.41465 115.603C3.00189 115.638 2.69539 116.001 2.73007 116.413L4.2248 116.288ZM4.3185 120.707C4.50332 121.077 4.95366 121.228 5.32435 121.043C5.69504 120.858 5.84572 120.408 5.6609 120.037L4.3185 120.707ZM7.41373 123.553C7.22891 123.182 6.77858 123.031 6.40788 123.216C6.03719 123.401 5.88651 123.851 6.07133 124.222L7.41373 123.553ZM7.82416 127.738C8.00898 128.108 8.45931 128.259 8.83001 128.074C9.2007 127.89 9.35139 127.439 9.16656 127.068L7.82416 127.738ZM10.9194 130.584C10.7346 130.213 10.2842 130.063 9.91354 130.248C9.54285 130.432 9.39217 130.883 9.57699 131.253L10.9194 130.584ZM11.3298 134.769C11.5146 135.14 11.965 135.29 12.3357 135.106C12.7064 134.921 12.857 134.47 12.6722 134.1L11.3298 134.769ZM14.4251 137.615C14.2402 137.245 13.7899 137.094 13.4192 137.279C13.0485 137.464 12.8978 137.914 13.0827 138.285L14.4251 137.615ZM15.4979 142.085C15.8036 142.364 16.278 142.343 16.5575 142.037C16.837 141.732 16.8158 141.257 16.5101 140.978L15.4979 142.085ZM20.1886 142.42C19.7744 142.417 19.4364 142.751 19.4336 143.165C19.4309 143.579 19.7644 143.917 20.1786 143.92L20.1886 142.42ZM24.5121 142.782C24.8996 142.636 25.0952 142.204 24.9489 141.816C24.8027 141.428 24.3699 141.233 23.9824 141.379L24.5121 142.782ZM27.6157 140.008C27.2282 140.154 27.0326 140.587 27.1789 140.974C27.3251 141.362 27.7579 141.557 28.1454 141.411L27.6157 140.008ZM31.7787 140.04C32.1662 139.894 32.3618 139.461 32.2155 139.073C32.0693 138.686 31.6365 138.49 31.249 138.636L31.7787 140.04ZM34.8823 137.265C34.4948 137.411 34.2992 137.844 34.4454 138.232C34.5917 138.619 35.0244 138.815 35.412 138.669L34.8823 137.265ZM38.0435 139.207C38.3568 139.478 38.8304 139.444 39.1014 139.13C39.3724 138.817 39.3382 138.343 39.0249 138.072L38.0435 139.207ZM42.1657 140.789C41.8525 140.518 41.3789 140.553 41.1079 140.866C40.8369 141.179 40.8711 141.653 41.1844 141.924L42.1657 140.789ZM44.3253 144.641C44.6385 144.912 45.1122 144.878 45.3832 144.564C45.6542 144.251 45.6199 143.777 45.3066 143.506L44.3253 144.641ZM48.4475 146.223C48.1342 145.952 47.6606 145.987 47.3896 146.3C47.1186 146.613 47.1529 147.087 47.4661 147.358L48.4475 146.223ZM48.6155 150.258C48.5843 150.671 48.8938 151.031 49.3068 151.063C49.7198 151.094 50.08 150.784 50.1113 150.371L48.6155 150.258ZM49.7836 154.703C49.8148 154.29 49.5053 153.929 49.0923 153.898C48.6793 153.867 48.3191 154.176 48.2879 154.589L49.7836 154.703ZM47.9602 158.921C47.9289 159.334 48.2384 159.694 48.6514 159.725C49.0645 159.756 49.4246 159.447 49.4559 159.034L47.9602 158.921ZM49.1282 163.365C49.1594 162.952 48.8499 162.592 48.4369 162.561C48.0239 162.529 47.6637 162.839 47.6325 163.252L49.1282 163.365ZM47.6751 167.714C47.7798 168.115 48.1896 168.355 48.5903 168.25C48.9911 168.145 49.2311 167.736 49.1264 167.335L47.6751 167.714ZM51.1035 170.312C50.7748 170.06 50.304 170.122 50.052 170.451C49.8001 170.78 49.8623 171.251 50.1911 171.503L51.1035 170.312ZM54.2032 173.245C54.596 173.376 55.021 173.164 55.1524 172.772C55.2839 172.379 55.072 171.954 54.6792 171.822L54.2032 173.245ZM58.6305 173.144C58.2377 173.013 57.8127 173.225 57.6813 173.618C57.5499 174.011 57.7618 174.436 58.1546 174.567L58.6305 173.144ZM62.1059 175.889C62.4987 176.02 62.9237 175.809 63.0551 175.416C63.1866 175.023 62.9747 174.598 62.5819 174.467L62.1059 175.889ZM66.5332 175.789C66.1404 175.657 65.7154 175.869 65.584 176.262C65.4526 176.655 65.6645 177.08 66.0573 177.211L66.5332 175.789ZM70.3088 178.234C70.723 178.231 71.0561 177.893 71.0528 177.478C71.0495 177.064 70.7111 176.731 70.2969 176.734L70.3088 178.234ZM73.6664 175.548C73.3414 175.805 73.2863 176.277 73.5432 176.602C73.8001 176.927 74.2717 176.982 74.5967 176.725L73.6664 175.548ZM77.318 173.189C77.5419 172.84 77.4408 172.376 77.0923 172.152C76.7438 171.929 76.2798 172.03 76.0559 172.378L77.318 173.189ZM78.4043 168.722C78.1805 169.07 78.2815 169.534 78.6301 169.758C78.9786 169.982 79.4426 169.881 79.6664 169.532L78.4043 168.722ZM82.0148 165.876C82.2387 165.528 82.1376 165.064 81.7891 164.84C81.4406 164.616 80.9766 164.717 80.7527 165.066L82.0148 165.876ZM83.1011 161.409C82.8773 161.758 82.9783 162.222 83.3269 162.446C83.6754 162.67 84.1394 162.568 84.3632 162.22L83.1011 161.409ZM87.0931 160.586C87.5063 160.557 87.8179 160.198 87.789 159.785C87.7601 159.372 87.4018 159.06 86.9886 159.089L87.0931 160.586ZM91.2575 158.791C90.8443 158.82 90.5327 159.178 90.5616 159.591C90.5904 160.005 90.9488 160.316 91.362 160.287L91.2575 158.791ZM95.6309 159.989C96.0441 159.96 96.3557 159.602 96.3268 159.189C96.298 158.775 95.9396 158.464 95.5264 158.493L95.6309 159.989ZM99.7953 158.195C99.3821 158.223 99.0705 158.582 99.0994 158.995C99.1282 159.408 99.4866 159.72 99.8998 159.691L99.7953 158.195ZM102.295 160.731C102.511 161.084 102.973 161.196 103.326 160.98C103.68 160.765 103.792 160.303 103.576 159.949L102.295 160.731ZM105.453 163.072C105.242 162.716 104.781 162.598 104.425 162.81C104.069 163.021 103.952 163.482 104.163 163.838L105.453 163.072ZM105.774 166.573C105.983 166.93 106.443 167.051 106.8 166.842C107.158 166.633 107.278 166.173 107.069 165.816L105.774 166.573ZM108.44 168.174C108.233 167.815 107.774 167.693 107.415 167.9C107.057 168.107 106.934 168.566 107.142 168.925L108.44 168.174ZM108.032 170.47C108.239 170.829 108.697 170.953 109.056 170.746C109.416 170.54 109.539 170.081 109.333 169.722L108.032 170.47ZM109.755 170.458C109.549 170.099 109.091 169.974 108.732 170.18C108.372 170.386 108.248 170.844 108.454 171.204L109.755 170.458ZM108.74 171.705C108.945 172.065 109.403 172.19 109.763 171.985C110.123 171.78 110.248 171.322 110.043 170.962L108.74 171.705ZM110.197 171.232C109.992 170.872 109.534 170.746 109.174 170.952C108.814 171.157 108.689 171.615 108.894 171.975L110.197 171.232ZM110.682 174.116C111.005 174.375 111.477 174.323 111.736 173.999C111.995 173.676 111.942 173.204 111.619 172.945L110.682 174.116ZM115.514 174.132C115.102 174.166 114.795 174.529 114.829 174.941C114.864 175.354 115.226 175.661 115.639 175.627L115.514 174.132ZM119.937 174.038C120.308 173.853 120.459 173.403 120.274 173.032C120.089 172.661 119.639 172.51 119.268 172.695L119.937 174.038ZM122.784 170.942C122.413 171.127 122.262 171.578 122.447 171.948C122.632 172.319 123.082 172.47 123.453 172.285L122.784 170.942ZM126.968 170.532C127.339 170.347 127.49 169.897 127.305 169.526C127.12 169.156 126.67 169.005 126.299 169.19L126.968 170.532ZM129.815 167.437C129.444 167.622 129.293 168.072 129.478 168.443C129.663 168.813 130.113 168.964 130.484 168.779L129.815 167.437ZM134 167.026C134.37 166.842 134.521 166.391 134.336 166.021C134.151 165.65 133.701 165.499 133.33 165.684L134 167.026ZM136.846 163.931C136.475 164.116 136.325 164.566 136.509 164.937C136.694 165.308 137.145 165.458 137.515 165.274L136.846 163.931ZM141.338 162.833C141.616 162.526 141.593 162.052 141.286 161.774C140.979 161.496 140.504 161.519 140.226 161.826L141.338 162.833ZM141.651 158.088C141.654 158.502 141.992 158.835 142.407 158.832C142.821 158.828 143.154 158.49 143.151 158.076L141.651 158.088ZM141.939 153.757C141.785 153.372 141.349 153.185 140.964 153.339C140.58 153.493 140.393 153.929 140.546 154.314L141.939 153.757ZM139.125 150.759C139.279 151.144 139.716 151.331 140.1 151.177C140.485 151.024 140.672 150.587 140.518 150.203L139.125 150.759ZM139.097 146.648C138.944 146.264 138.507 146.077 138.122 146.23C137.738 146.384 137.551 146.821 137.704 147.205L139.097 146.648ZM136.284 143.651C136.437 144.035 136.874 144.223 137.258 144.069C137.643 143.915 137.83 143.479 137.676 143.094L136.284 143.651ZM138.229 140.484C138.5 140.172 138.467 139.698 138.155 139.426C137.842 139.155 137.368 139.188 137.097 139.5L138.229 140.484ZM139.883 136.294C139.611 136.607 139.644 137.081 139.957 137.353C140.27 137.624 140.743 137.591 141.015 137.278L139.883 136.294ZM143.801 134.073C144.073 133.76 144.04 133.286 143.727 133.015C143.415 132.743 142.941 132.776 142.669 133.089L143.801 134.073ZM145.456 129.883C145.184 130.195 145.217 130.669 145.53 130.941C145.842 131.213 146.316 131.179 146.588 130.867L145.456 129.883ZM149.538 129.669C149.951 129.697 150.309 129.385 150.337 128.972C150.366 128.559 150.054 128.201 149.64 128.172L149.538 129.669ZM153.989 128.47C153.576 128.442 153.218 128.754 153.189 129.167C153.161 129.58 153.473 129.938 153.886 129.967L153.989 128.47ZM158.235 130.264C158.648 130.293 159.006 129.98 159.034 129.567C159.063 129.154 158.751 128.796 158.337 128.768L158.235 130.264ZM162.686 129.065C162.273 129.037 161.915 129.349 161.886 129.762C161.858 130.176 162.17 130.534 162.583 130.562L162.686 129.065ZM167.04 130.491C167.441 130.384 167.678 129.973 167.571 129.573C167.465 129.173 167.054 128.935 166.653 129.042L167.04 130.491ZM169.608 127.065C169.357 127.394 169.42 127.864 169.749 128.116C170.078 128.367 170.549 128.304 170.8 127.975L169.608 127.065ZM172.527 123.995C172.659 123.603 172.447 123.178 172.054 123.046C171.661 122.915 171.236 123.127 171.105 123.519L172.527 123.995ZM172.412 119.613C172.281 120.006 172.493 120.431 172.885 120.562C173.278 120.694 173.703 120.482 173.835 120.089L172.412 119.613ZM175.142 116.183C175.273 115.79 175.061 115.365 174.669 115.234C174.276 115.102 173.851 115.314 173.719 115.707L175.142 116.183ZM175.027 111.801C174.895 112.193 175.107 112.618 175.5 112.75C175.893 112.881 176.318 112.67 176.449 112.277L175.027 111.801ZM177.465 108.049C177.462 107.635 177.123 107.302 176.709 107.305C176.295 107.308 175.962 107.647 175.965 108.061L177.465 108.049ZM174.781 104.693C175.038 105.018 175.51 105.074 175.835 104.817C176.16 104.56 176.215 104.089 175.959 103.764L174.781 104.693ZM172.434 101.045C172.085 100.821 171.621 100.921 171.397 101.27C171.173 101.618 171.273 102.082 171.622 102.306L172.434 101.045ZM167.983 99.9637C168.331 100.188 168.795 100.087 169.019 99.739C169.243 99.3907 169.143 98.9266 168.794 98.7024L167.983 99.9637ZM165.155 96.36C164.807 96.1359 164.343 96.2365 164.119 96.5848C163.894 96.9331 163.995 97.3972 164.343 97.6214L165.155 96.36ZM160.704 95.279C161.052 95.5031 161.516 95.4025 161.741 95.0542C161.965 94.7059 161.864 94.2418 161.516 94.0177L160.704 95.279ZM159.891 91.3091C159.862 90.8959 159.503 90.5844 159.09 90.6132C158.677 90.6421 158.366 91.0005 158.394 91.4137L159.891 91.3091ZM158.099 87.1823C158.128 87.5955 158.486 87.907 158.899 87.8782C159.312 87.8493 159.624 87.4909 159.595 87.0777L158.099 87.1823ZM159.3 82.8463C159.271 82.4331 158.912 82.1216 158.499 82.1504C158.086 82.1793 157.774 82.5377 157.803 82.9509L159.3 82.8463ZM157.508 78.7195C157.536 79.1327 157.895 79.4442 158.308 79.4154C158.721 79.3865 159.033 79.0281 159.004 78.6149L157.508 78.7195ZM160.125 76.2037C160.479 75.9886 160.591 75.5273 160.376 75.1733C160.161 74.8193 159.7 74.7067 159.346 74.9218L160.125 76.2037ZM162.6 72.9443C162.246 73.1594 162.134 73.6207 162.349 73.9747C162.564 74.3287 163.025 74.4413 163.379 74.2262L162.6 72.9443ZM166.634 72.2487C166.988 72.0336 167.1 71.5723 166.885 71.2183C166.67 70.8643 166.209 70.7517 165.855 70.9668L166.634 72.2487ZM169.109 68.9893C168.755 69.2044 168.642 69.6657 168.858 70.0197C169.073 70.3737 169.534 70.4863 169.888 70.2712L169.109 68.9893ZM173.441 67.5535C173.693 67.2245 173.63 66.7538 173.301 66.5022C172.972 66.2507 172.501 66.3135 172.25 66.6426L173.441 67.5535ZM173.359 62.8018C173.396 63.2144 173.761 63.5185 174.173 63.4811C174.586 63.4437 174.89 63.079 174.853 62.6665L173.359 62.8018ZM173.268 58.419C173.084 58.0484 172.633 57.8977 172.263 58.0825C171.892 58.2673 171.741 58.7176 171.926 59.0883L173.268 58.419ZM170.173 55.5727C170.358 55.9434 170.808 56.0941 171.179 55.9093C171.55 55.7244 171.7 55.2741 171.516 54.9034L170.173 55.5727ZM169.763 51.3878C169.578 51.0171 169.128 50.8664 168.757 51.0512C168.386 51.236 168.235 51.6864 168.42 52.0571L169.763 51.3878ZM166.667 48.5414C166.852 48.9121 167.303 49.0628 167.673 48.878C168.044 48.6932 168.195 48.2428 168.01 47.8721L166.667 48.5414ZM166.257 44.3565C166.072 43.9858 165.622 43.8351 165.251 44.02C164.88 44.2048 164.73 44.6551 164.915 45.0258L166.257 44.3565ZM163.162 41.5102C163.347 41.8809 163.797 42.0315 164.168 41.8467C164.538 41.6619 164.689 41.2116 164.504 40.8409L163.162 41.5102ZM162.059 37.0133C161.751 36.7355 161.277 36.7595 160.999 37.0669C160.722 37.3742 160.746 37.8485 161.053 38.1262L162.059 37.0133ZM157.302 36.7056C157.716 36.7011 158.048 36.3617 158.044 35.9475C158.039 35.5333 157.7 35.2012 157.286 35.2057L157.302 36.7056ZM152.977 36.4292C152.593 36.5845 152.408 37.0217 152.563 37.4057C152.719 37.7897 153.156 37.9751 153.54 37.8199L152.977 36.4292ZM150.017 39.2445C150.401 39.0892 150.586 38.6521 150.431 38.2681C150.275 37.8841 149.838 37.6986 149.454 37.8539L150.017 39.2445ZM145.931 39.2786C145.547 39.4339 145.362 39.871 145.517 40.255C145.672 40.639 146.109 40.8245 146.493 40.6692L145.931 39.2786ZM142.97 42.0939C143.354 41.9386 143.539 41.5014 143.384 41.1174C143.229 40.7334 142.792 40.548 142.408 40.7032L142.97 42.0939ZM139.767 40.116C139.454 39.8451 138.98 39.8794 138.709 40.1927C138.438 40.506 138.473 40.9796 138.786 41.2506L139.767 40.116ZM135.485 38.3954C135.798 38.6663 136.272 38.632 136.542 38.3187C136.813 38.0054 136.779 37.5318 136.466 37.2608L135.485 38.3954ZM133.164 34.4056C132.851 34.1347 132.378 34.169 132.107 34.4823C131.836 34.7956 131.87 35.2692 132.183 35.5402L133.164 34.4056ZM128.882 32.685C129.195 32.956 129.669 32.9216 129.94 32.6083C130.211 32.295 130.176 31.8214 129.863 31.5505L128.882 32.685ZM128.613 28.581C128.64 28.1677 128.327 27.8105 127.914 27.7831C127.501 27.7558 127.143 28.0687 127.116 28.482L128.613 28.581ZM127.401 24.1648C127.374 24.5781 127.687 24.9353 128.1 24.9626C128.514 24.99 128.871 24.677 128.898 24.2637L127.401 24.1648ZM129.184 19.9465C129.211 19.5332 128.898 19.176 128.485 19.1487C128.071 19.1213 127.714 19.4342 127.687 19.8476L129.184 19.9465ZM127.972 15.5303C127.945 15.9436 128.258 16.3008 128.671 16.3281C129.084 16.3555 129.442 16.0426 129.469 15.6292L127.972 15.5303ZM129.388 11.1923C129.28 10.7923 128.869 10.5553 128.469 10.6628C128.069 10.7703 127.832 11.1818 127.939 11.5818L129.388 11.1923ZM125.962 8.63452C126.291 8.88571 126.762 8.82233 127.013 8.49296C127.264 8.1636 127.201 7.69297 126.871 7.44179L125.962 8.63452ZM122.917 5.72473C122.525 5.5933 122.1 5.80519 121.968 6.198C121.837 6.59081 122.049 7.01579 122.442 7.14722L122.917 5.72473ZM118.58 5.85533C118.973 5.98676 119.398 5.77487 119.53 5.38206C119.661 4.98925 119.449 4.56427 119.056 4.43284L118.58 5.85533ZM115.195 3.14095C114.803 3.00952 114.378 3.22141 114.246 3.61421C114.115 4.00702 114.327 4.432 114.719 4.56344L115.195 3.14095ZM110.858 3.27154C111.251 3.40298 111.676 3.19109 111.808 2.79828C111.939 2.40547 111.727 1.98049 111.334 1.84906L110.858 3.27154ZM107.144 0.840926C106.73 0.843267 106.396 1.18094 106.398 1.59515C106.401 2.00936 106.738 2.34324 107.153 2.3409L107.144 0.840926ZM103.8 3.50351C104.127 3.24888 104.186 2.77762 103.931 2.45091C103.676 2.12421 103.205 2.06577 102.878 2.3204L103.8 3.50351ZM108.054 16.5454C107.826 16.8918 107.923 17.3567 108.27 17.5838C108.616 17.8109 109.081 17.7141 109.308 17.3677L108.054 16.5454ZM107.133 20.6865C107.36 20.34 107.263 19.8751 106.917 19.6481C106.57 19.421 106.105 19.5177 105.878 19.8642L107.133 20.6865ZM103.703 23.1829C103.476 23.5293 103.572 23.9942 103.919 24.2213C104.265 24.4484 104.73 24.3516 104.957 24.0052L103.703 23.1829ZM102.782 27.324C103.009 26.9776 102.912 26.5126 102.566 26.2856C102.219 26.0585 101.754 26.1552 101.527 26.5017L102.782 27.324ZM99.6367 29.1252C99.337 29.4111 99.3259 29.8858 99.6118 30.1855C99.8977 30.4852 100.372 30.4964 100.672 30.2104L99.6367 29.1252ZM97.9398 31.8236C98.3349 31.6993 98.5545 31.2782 98.4302 30.8831C98.306 30.488 97.8849 30.2684 97.4898 30.3927L97.9398 31.8236ZM94.2703 30.7814C93.8573 30.8129 93.548 31.1732 93.5795 31.5862C93.611 31.9993 93.9713 32.3086 94.3843 32.2771L94.2703 30.7814ZM90.4096 32.5799C90.8227 32.5485 91.132 32.1881 91.1005 31.7751C91.069 31.3621 90.7087 31.0528 90.2957 31.0843L90.4096 32.5799ZM86.321 31.3871C85.908 31.4186 85.5987 31.7789 85.6302 32.1919C85.6616 32.6049 86.022 32.9143 86.435 32.8828L86.321 31.3871ZM82.4603 33.1856C82.8733 33.1542 83.1826 32.7938 83.1512 32.3808C83.1197 31.9678 82.7594 31.6585 82.3463 31.69L82.4603 33.1856ZM78.3717 31.9928C77.9587 32.0243 77.6494 32.3846 77.6808 32.7976C77.7123 33.2106 78.0726 33.5199 78.4856 33.4885L78.3717 31.9928ZM74.511 33.7913C74.924 33.7598 75.2333 33.3995 75.2018 32.9865C75.1703 32.5735 74.81 32.2642 74.397 32.2956L74.511 33.7913ZM70.8699 32.3476C70.4644 32.263 70.0672 32.5232 69.9827 32.9287C69.8981 33.3342 70.1583 33.7315 70.5638 33.816L70.8699 32.3476ZM67.127 31.9965C67.4249 32.2844 67.8997 32.2762 68.1875 31.9784C68.4753 31.6805 68.4672 31.2057 68.1694 30.9179L67.127 31.9965ZM66.4056 28.2786C66.1994 27.9194 65.7411 27.7953 65.3818 28.0014C65.0225 28.2076 64.8984 28.666 65.1046 29.0252L66.4056 28.2786ZM63.4728 26.1817C63.679 26.541 64.1374 26.6651 64.4966 26.4589C64.8559 26.2528 64.98 25.7944 64.7739 25.4351L63.4728 26.1817ZM63.1421 22.5916C62.936 22.2324 62.4776 22.1082 62.1183 22.3144C61.7591 22.5206 61.635 22.9789 61.8411 23.3382L63.1421 22.5916ZM60.2094 20.4947C60.4155 20.8539 60.8739 20.9781 61.2332 20.7719C61.5924 20.5657 61.7166 20.1074 61.5104 19.7481L60.2094 20.4947ZM58.3627 18.6999C57.992 18.8847 57.8413 19.335 58.0261 19.7057C58.2109 20.0764 58.6613 20.2271 59.032 20.0423L58.3627 18.6999ZM56.3385 21.3852C56.7092 21.2004 56.8599 20.75 56.6751 20.3793C56.4903 20.0086 56.0399 19.858 55.6692 20.0428L56.3385 21.3852ZM52.9758 21.3857C52.6051 21.5705 52.4544 22.0208 52.6392 22.3915C52.8241 22.7622 53.2744 22.9129 53.6451 22.7281L52.9758 21.3857ZM50.9516 24.071C51.3223 23.8862 51.473 23.4358 51.2882 23.0651C51.1034 22.6944 50.653 22.5438 50.2823 22.7286L50.9516 24.071ZM49.1648 25.9229C49.3105 26.3107 49.7429 26.5069 50.1307 26.3612C50.5184 26.2155 50.7147 25.7831 50.569 25.3953L49.1648 25.9229ZM51.7622 28.5712C51.6165 28.1834 51.1841 27.9872 50.7963 28.1329C50.4086 28.2786 50.2124 28.711 50.358 29.0987L51.7622 28.5712ZM51.5513 32.2745C51.697 32.6623 52.1294 32.8585 52.5171 32.7128C52.9049 32.5671 53.1011 32.1347 52.9554 31.747L51.5513 32.2745ZM54.1487 34.9228C54.003 34.535 53.5705 34.3388 53.1828 34.4845C52.795 34.6302 52.5988 35.0626 52.7445 35.4503L54.1487 34.9228ZM53.6693 38.466C53.7074 38.8784 54.0727 39.1818 54.4852 39.1437C54.8976 39.1056 55.2011 38.7403 55.1629 38.3278L53.6693 38.466ZM54.5199 41.9672C54.6971 41.5928 54.5372 41.1456 54.1628 40.9685C53.7883 40.7913 53.3412 40.9512 53.164 41.3256L54.5199 41.9672ZM51.0691 44.0663C50.7993 44.3806 50.8355 44.8541 51.1498 45.1239C51.4642 45.3936 51.9377 45.3575 52.2074 45.0431L51.0691 44.0663ZM49.6126 48.0669C49.8824 47.7526 49.8462 47.2791 49.5319 47.0094C49.2175 46.7396 48.744 46.7758 48.4743 47.0901L49.6126 48.0669ZM45.8795 50.114C45.6098 50.4283 45.646 50.9018 45.9603 51.1715C46.2746 51.4413 46.7481 51.4051 47.0179 51.0908L45.8795 50.114ZM44.4231 54.1146C44.6928 53.8003 44.6567 53.3268 44.3423 53.057C44.028 52.7873 43.5545 52.8234 43.2848 53.1378L44.4231 54.1146ZM40.69 56.1616C40.4203 56.476 40.4564 56.9495 40.7708 57.2192C41.0851 57.4889 41.5586 57.4528 41.8283 57.1384L40.69 56.1616ZM39.2336 60.1623C39.5033 59.8479 39.4671 59.3744 39.1528 59.1047C38.8385 58.8349 38.365 58.8711 38.0952 59.1854L39.2336 60.1623ZM35.8322 61.5831C35.4958 61.8247 35.4189 62.2933 35.6605 62.6297C35.9021 62.9662 36.3707 63.0431 36.7072 62.8015L35.8322 61.5831ZM33.6368 64.0421C34.0466 63.9822 34.3303 63.6013 34.2703 63.1915C34.2104 62.7816 33.8295 62.4979 33.4197 62.5579L33.6368 64.0421ZM30.2004 62.4123C29.788 62.3736 29.4223 62.6766 29.3835 63.089C29.3448 63.5014 29.6478 63.8671 30.0602 63.9058L30.2004 62.4123ZM26.2413 63.5473C26.6537 63.586 27.0194 63.283 27.0581 62.8706C27.0968 62.4582 26.7939 62.0925 26.3815 62.0538L26.2413 63.5473ZM22.5625 61.6953C22.1501 61.6566 21.7844 61.9595 21.7457 62.3719C21.707 62.7843 22.0099 63.15 22.4223 63.1887L22.5625 61.6953ZM18.6034 62.8302C19.0158 62.8689 19.3815 62.566 19.4203 62.1536C19.459 61.7412 19.156 61.3755 18.7436 61.3368L18.6034 62.8302ZM15.5027 63.3104C15.3713 63.7032 15.5832 64.1282 15.976 64.2596C16.3688 64.391 16.7938 64.1791 16.9252 63.7863L15.5027 63.3104ZM15.825 67.0746C15.9564 66.6818 15.7445 66.2568 15.3517 66.1254C14.9589 65.9939 14.5339 66.2058 14.4025 66.5986L15.825 67.0746ZM15.8061 70.2137C16.1504 70.444 16.6162 70.3515 16.8464 70.0072C17.0767 69.6629 16.9842 69.1971 16.6398 68.9668L15.8061 70.2137ZM19.9585 71.1859C19.6142 70.9557 19.1484 71.0482 18.9182 71.3925C18.6879 71.7368 18.7804 72.2026 19.1247 72.4329L19.9585 71.1859ZM22.4434 74.652C22.7877 74.8822 23.2535 74.7897 23.4838 74.4454C23.714 74.1011 23.6215 73.6353 23.2772 73.4051L22.4434 74.652ZM26.5959 75.6242C26.2515 75.3939 25.7858 75.4864 25.5555 75.8307C25.3253 76.1751 25.4178 76.6408 25.7621 76.8711L26.5959 75.6242ZM28.3695 78.7833C28.6534 79.0849 29.128 79.0993 29.4297 78.8155C29.7313 78.5316 29.7457 78.0569 29.4619 77.7553L28.3695 78.7833ZM31.0467 80.468C30.9233 80.0726 30.5027 79.8521 30.1073 79.9754C29.7119 80.0988 29.4914 80.5193 29.6147 80.9148L31.0467 80.468ZM29.9997 84.1218C30.0312 84.5348 30.3915 84.8441 30.8045 84.8126C31.2176 84.7811 31.5269 84.4208 31.4954 84.0078L29.9997 84.1218ZM31.7982 87.9817C31.7667 87.5687 31.4064 87.2594 30.9934 87.2909C30.5804 87.3224 30.2711 87.6827 30.3025 88.0957L31.7982 87.9817ZM30.6054 92.0696C30.6368 92.4827 30.9971 92.792 31.4102 92.7605C31.8232 92.729 32.1325 92.3687 32.101 91.9557L30.6054 92.0696ZM32.4038 95.9296C32.3724 95.5166 32.012 95.2073 31.599 95.2388C31.186 95.2702 30.8767 95.6306 30.9082 96.0436L32.4038 95.9296ZM31.211 100.018C31.2424 100.431 31.6028 100.74 32.0158 100.708C32.4288 100.677 32.7381 100.317 32.7066 99.9036L31.211 100.018ZM33.0094 103.878C32.978 103.464 32.6176 103.155 32.2046 103.187C31.7916 103.218 31.4823 103.578 31.5138 103.991L33.0094 103.878ZM31.5654 107.52C31.4807 107.925 31.7408 108.323 32.1463 108.407C32.5518 108.492 32.9491 108.232 33.0337 107.826L31.5654 107.52ZM31.2105 111.265C31.4986 110.968 31.4909 110.493 31.1933 110.205C30.8956 109.917 30.4208 109.925 30.1327 110.222L31.2105 111.265ZM27.4941 111.982C27.1346 112.188 27.0099 112.646 27.2157 113.005C27.4215 113.365 27.8797 113.49 28.2392 113.284L27.4941 111.982ZM25.4011 114.908C25.7606 114.702 25.8852 114.244 25.6794 113.885C25.4737 113.525 25.0155 113.401 24.656 113.606L25.4011 114.908ZM21.8179 115.231C21.4584 115.436 21.3337 115.895 21.5395 116.254C21.7452 116.614 22.2035 116.738 22.563 116.533L21.8179 115.231ZM19.7249 118.157C20.0844 117.951 20.209 117.493 20.0032 117.133C19.7975 116.774 19.3393 116.649 18.9798 116.855L19.7249 118.157ZM17.9327 119.998C18.1175 120.369 18.5678 120.519 18.9385 120.334C19.3092 120.15 19.4599 119.699 19.2751 119.329L17.9327 119.998ZM20.6163 122.019C20.4315 121.648 19.9811 121.497 19.6104 121.682C19.2397 121.867 19.0891 122.317 19.2739 122.688L20.6163 122.019ZM20.6151 125.378C20.7999 125.749 21.2502 125.899 21.6209 125.714C21.9916 125.53 22.1423 125.079 21.9575 124.709L20.6151 125.378ZM23.2987 127.399C23.1139 127.028 22.6635 126.877 22.2928 127.062C21.9222 127.247 21.7715 127.697 21.9563 128.068L23.2987 127.399ZM25.1546 129.179C25.5421 129.033 25.7377 128.6 25.5914 128.213C25.4452 127.825 25.0124 127.63 24.6249 127.776L25.1546 129.179ZM27.8082 126.574C27.4207 126.721 27.2251 127.153 27.3714 127.541C27.5177 127.928 27.9504 128.124 28.3379 127.978L27.8082 126.574ZM31.5212 126.776C31.9088 126.63 32.1043 126.197 31.9581 125.81C31.8118 125.422 31.3791 125.227 30.9915 125.373L31.5212 126.776ZM34.1749 124.171C33.7873 124.318 33.5918 124.75 33.738 125.138C33.8843 125.526 34.317 125.721 34.7045 125.575L34.1749 124.171ZM37.7309 124.643C38.1433 124.605 38.4468 124.24 38.4086 123.827C38.3704 123.415 38.0051 123.111 37.5926 123.149L37.7309 124.643ZM41.2494 123.8C40.8754 123.622 40.4278 123.781 40.2497 124.155C40.0716 124.529 40.2303 124.976 40.6042 125.154L41.2494 123.8ZM43.3165 127.24C43.6298 127.511 44.1034 127.477 44.3744 127.164C44.6454 126.85 44.6111 126.377 44.2979 126.106L43.3165 127.24ZM47.2576 128.666C46.9444 128.395 46.4707 128.429 46.1997 128.743C45.9287 129.056 45.963 129.53 46.2763 129.801L47.2576 128.666ZM49.236 132.361C49.5493 132.632 50.0229 132.598 50.2939 132.284C50.5649 131.971 50.5306 131.498 50.2174 131.227L49.236 132.361ZM53.1771 133.787C52.8639 133.516 52.3902 133.55 52.1192 133.863C51.8483 134.177 51.8825 134.65 52.1958 134.921L53.1771 133.787ZM55.1556 137.482C55.4688 137.753 55.9425 137.718 56.2135 137.405C56.4844 137.092 56.4502 136.618 56.1369 136.347L55.1556 137.482ZM59.0967 138.908C58.7834 138.637 58.3098 138.671 58.0388 138.984C57.7678 139.297 57.8021 139.771 58.1153 140.042L59.0967 138.908ZM60.4594 142.267C60.7015 142.603 61.1702 142.679 61.5063 142.437C61.8424 142.195 61.9186 141.726 61.6764 141.39L60.4594 142.267ZM62.91 144.382C62.845 143.973 62.4606 143.694 62.0515 143.759C61.6424 143.824 61.3636 144.209 61.4287 144.618L62.91 144.382ZM61.3336 147.848C61.3024 148.261 61.6119 148.621 62.0249 148.652C62.4379 148.684 62.7981 148.374 62.8293 147.961L61.3336 147.848ZM62.5341 151.864C62.5653 151.451 62.2558 151.09 61.8428 151.059C61.4298 151.028 61.0696 151.337 61.0384 151.75L62.5341 151.864ZM60.7431 155.653C60.7119 156.066 61.0214 156.426 61.4344 156.457C61.8474 156.489 62.2076 156.179 62.2388 155.766L60.7431 155.653ZM61.9436 159.668C61.9748 159.255 61.6653 158.895 61.2523 158.864C60.8393 158.833 60.4791 159.142 60.4479 159.555L61.9436 159.668ZM62.4541 162.824C62.847 162.956 63.2719 162.744 63.4034 162.351C63.5348 161.958 63.3229 161.533 62.9301 161.402L62.4541 162.824ZM66.2181 162.502C65.8253 162.371 65.4004 162.583 65.2689 162.975C65.1375 163.368 65.3494 163.793 65.7422 163.925L66.2181 162.502ZM69.3127 162.522C69.5365 162.174 69.4355 161.71 69.0869 161.486C68.7384 161.262 68.2744 161.363 68.0506 161.712L69.3127 162.522ZM70.1655 158.419C69.9416 158.768 70.0427 159.232 70.3912 159.455C70.7397 159.679 71.2037 159.578 71.4276 159.23L70.1655 158.419ZM73.5424 155.937C73.7663 155.588 73.6652 155.124 73.3167 154.901C72.9682 154.677 72.5042 154.778 72.2804 155.126L73.5424 155.937ZM74.3952 151.834C74.1714 152.182 74.2725 152.646 74.621 152.87C74.9695 153.094 75.4335 152.993 75.6573 152.644L74.3952 151.834ZM77.5242 150.011C77.8223 149.724 77.8309 149.249 77.5434 148.951C77.2559 148.653 76.7811 148.644 76.4829 148.932L77.5242 150.011ZM79.2586 147.288C78.8631 147.411 78.6425 147.831 78.7659 148.227C78.8892 148.622 79.3097 148.843 79.7051 148.719L79.2586 147.288ZM82.9466 148.345C83.3598 148.316 83.6714 147.958 83.6425 147.544C83.6137 147.131 83.2553 146.82 82.8421 146.848L82.9466 148.345ZM86.817 146.571C86.4038 146.6 86.0922 146.958 86.1211 147.371C86.1499 147.784 86.5083 148.096 86.9215 148.067L86.817 146.571ZM90.8964 147.789C91.3096 147.761 91.6212 147.402 91.5923 146.989C91.5635 146.576 91.2051 146.264 90.7919 146.293L90.8964 147.789ZM94.7668 146.015C94.3536 146.044 94.042 146.403 94.0709 146.816C94.0998 147.229 94.4581 147.541 94.8713 147.512L94.7668 146.015ZM98.8462 147.234C99.2594 147.205 99.571 146.847 99.5421 146.434C99.5133 146.02 99.1549 145.709 98.7417 145.738L98.8462 147.234ZM102.717 145.46C102.303 145.489 101.992 145.847 102.021 146.26C102.05 146.674 102.408 146.985 102.821 146.956L102.717 145.46ZM106.196 146.896C106.603 146.972 106.994 146.703 107.07 146.296C107.146 145.889 106.877 145.497 106.47 145.422L106.196 146.896ZM109.649 146.906C109.329 146.642 108.856 146.688 108.593 147.007C108.329 147.326 108.374 147.799 108.694 148.063L109.649 146.906ZM111.269 151.496C111.492 151.845 111.956 151.947 112.305 151.724C112.654 151.5 112.756 151.037 112.532 150.688L111.269 151.496ZM115.643 155.752C115.43 155.396 114.97 155.28 114.614 155.492C114.259 155.705 114.143 156.165 114.355 156.521L115.643 155.752ZM116.117 159.499C116.327 159.856 116.786 159.976 117.144 159.766C117.501 159.556 117.621 159.097 117.411 158.74L116.117 159.499ZM117.924 159.616C117.715 159.258 117.255 159.137 116.898 159.346C116.54 159.555 116.42 160.015 116.629 160.372L117.924 159.616ZM120.536 159.772C120.906 159.587 121.057 159.137 120.872 158.766C120.687 158.395 120.237 158.245 119.866 158.429L120.536 159.772ZM125.205 155.767C124.835 155.952 124.684 156.403 124.869 156.773C125.054 157.144 125.504 157.295 125.875 157.11L125.205 155.767ZM128.286 153.278C128.132 152.893 127.695 152.706 127.311 152.86C126.926 153.013 126.739 153.45 126.893 153.834L128.286 153.278ZM125.652 150.731C125.806 151.116 126.242 151.303 126.627 151.149C127.012 150.995 127.199 150.559 127.045 150.174L125.652 150.731ZM125.804 147.071C125.651 146.686 125.214 146.499 124.829 146.653C124.445 146.806 124.258 147.243 124.411 147.627L125.804 147.071ZM123.171 144.524C123.325 144.909 123.761 145.096 124.146 144.942C124.53 144.788 124.717 144.352 124.564 143.967L123.171 144.524ZM123.581 140.958C123.537 140.546 123.168 140.248 122.756 140.292C122.344 140.336 122.046 140.705 122.09 141.117L123.581 140.958ZM122.722 137.382C122.545 137.757 122.705 138.204 123.079 138.381C123.454 138.558 123.901 138.398 124.078 138.023L122.722 137.382ZM126.206 135.262C126.478 134.949 126.445 134.475 126.132 134.204C125.82 133.932 125.346 133.965 125.074 134.278L126.206 135.262ZM127.689 131.269C127.417 131.582 127.45 132.056 127.763 132.327C128.076 132.599 128.549 132.566 128.821 132.253L127.689 131.269ZM131.436 129.245C131.708 128.932 131.674 128.459 131.362 128.187C131.049 127.915 130.575 127.948 130.304 128.261L131.436 129.245ZM132.918 125.253C132.647 125.565 132.68 126.039 132.992 126.311C133.305 126.583 133.779 126.549 134.05 126.237L132.918 125.253ZM136.665 123.228C136.937 122.916 136.904 122.442 136.591 122.17C136.278 121.899 135.805 121.932 135.533 122.244L136.665 123.228ZM138.148 119.236C137.876 119.549 137.909 120.023 138.222 120.294C138.534 120.566 139.008 120.533 139.28 120.22L138.148 119.236ZM141.523 117.862C141.859 117.62 141.935 117.151 141.693 116.815C141.451 116.479 140.982 116.403 140.646 116.645L141.523 117.862ZM143.605 115.416C143.197 115.483 142.92 115.869 142.987 116.278C143.054 116.686 143.439 116.963 143.848 116.896L143.605 115.416ZM147.074 116.971C147.487 116.999 147.845 116.687 147.873 116.274C147.901 115.861 147.589 115.503 147.176 115.474L147.074 116.971ZM151.095 115.743C150.682 115.714 150.324 116.027 150.296 116.44C150.267 116.853 150.58 117.211 150.993 117.239L151.095 115.743ZM154.912 117.508C155.325 117.536 155.683 117.224 155.711 116.811C155.74 116.397 155.428 116.039 155.014 116.011L154.912 117.508ZM158.934 116.279C158.52 116.251 158.163 116.563 158.134 116.976C158.106 117.39 158.418 117.748 158.831 117.776L158.934 116.279ZM162.092 115.791C162.223 115.398 162.011 114.973 161.618 114.842C161.226 114.71 160.801 114.922 160.669 115.315L162.092 115.791ZM161.746 112.098C161.614 112.491 161.826 112.916 162.219 113.047C162.612 113.179 163.037 112.967 163.168 112.574L161.746 112.098ZM161.763 109.042C161.415 108.818 160.951 108.919 160.727 109.267C160.503 109.615 160.603 110.079 160.951 110.304L161.763 109.042ZM157.675 108.195C158.024 108.419 158.488 108.319 158.712 107.97C158.936 107.622 158.836 107.158 158.487 106.934L157.675 108.195ZM155.211 104.825C154.863 104.601 154.399 104.702 154.175 105.05C153.95 105.398 154.051 105.862 154.399 106.086L155.211 104.825ZM151.123 103.978C151.472 104.202 151.936 104.101 152.16 103.753C152.384 103.405 152.283 102.941 151.935 102.716L151.123 103.978ZM149.312 100.853C149.025 100.554 148.55 100.545 148.252 100.833C147.953 101.12 147.945 101.595 148.232 101.893L149.312 100.853ZM146.591 99.1196C146.714 99.515 147.134 99.7357 147.53 99.6125C147.925 99.4893 148.146 99.0688 148.023 98.6733L146.591 99.1196ZM147.648 95.4331C147.619 95.0199 147.261 94.7084 146.848 94.7372C146.435 94.7661 146.123 95.1245 146.152 95.5377L147.648 95.4331ZM145.874 91.5628C145.903 91.976 146.262 92.2875 146.675 92.2587C147.088 92.2298 147.4 91.8714 147.371 91.4582L145.874 91.5628ZM147.093 87.4833C147.064 87.0701 146.706 86.7586 146.293 86.7874C145.879 86.8163 145.568 87.1746 145.597 87.5879L147.093 87.4833ZM145.319 83.613C145.348 84.0262 145.706 84.3377 146.119 84.3089C146.533 84.28 146.844 83.9216 146.815 83.5084L145.319 83.613ZM146.538 79.5335C146.509 79.1203 146.15 78.8087 145.737 78.8376C145.324 78.8665 145.012 79.2248 145.041 79.638L146.538 79.5335ZM144.764 75.6631C144.792 76.0763 145.151 76.3879 145.564 76.3591C145.977 76.3302 146.289 75.9718 146.26 75.5586L144.764 75.6631ZM146.222 72.0742C146.305 71.6686 146.045 71.2718 145.639 71.1879C145.233 71.104 144.837 71.3648 144.753 71.7704L146.222 72.0742ZM146.491 68.4104C146.209 68.7132 146.225 69.1878 146.528 69.4705C146.83 69.7531 147.305 69.7368 147.588 69.4341L146.491 68.4104ZM150.172 67.6248C150.526 67.4097 150.638 66.9483 150.423 66.5944C150.208 66.2404 149.747 66.1278 149.393 66.3429L150.172 67.6248ZM152.233 64.6173C151.879 64.8324 151.766 65.2937 151.981 65.6477C152.196 66.0017 152.658 66.1143 153.012 65.8992L152.233 64.6173ZM155.851 64.1736C156.205 63.9585 156.318 63.4971 156.103 63.1432C155.888 62.7892 155.426 62.6766 155.073 62.8917L155.851 64.1736ZM157.912 61.1661C157.558 61.3812 157.446 61.8425 157.661 62.1965C157.876 62.5505 158.337 62.6631 158.691 62.448L157.912 61.1661ZM159.721 59.2624C159.537 58.8917 159.086 58.7411 158.715 58.9259C158.345 59.1107 158.194 59.561 158.379 59.9317L159.721 59.2624ZM157.036 57.2374C157.22 57.6081 157.671 57.7588 158.041 57.574C158.412 57.3892 158.563 56.9388 158.378 56.5681L157.036 57.2374ZM157.035 53.8739C156.85 53.5032 156.4 53.3525 156.029 53.5373C155.658 53.7221 155.507 54.1725 155.692 54.5432L157.035 53.8739ZM154.349 51.8489C154.534 52.2196 154.984 52.3703 155.355 52.1854C155.726 52.0006 155.876 51.5503 155.691 51.1796L154.349 51.8489ZM152.533 50.0923C152.149 50.2476 151.963 50.6848 152.119 51.0688C152.274 51.4528 152.711 51.6382 153.095 51.483L152.533 50.0923ZM150.026 52.724C150.41 52.5688 150.595 52.1316 150.44 51.7476C150.285 51.3636 149.847 51.1782 149.463 51.3334L150.026 52.724ZM146.394 52.5745C146.01 52.7298 145.825 53.167 145.98 53.551C146.135 53.935 146.572 54.1204 146.956 53.9651L146.394 52.5745ZM143.887 55.2062C144.271 55.051 144.457 54.6138 144.301 54.2298C144.146 53.8458 143.709 53.6604 143.325 53.8156L143.887 55.2062ZM140.332 54.8042C139.92 54.8497 139.623 55.2202 139.669 55.6319C139.714 56.0437 140.085 56.3406 140.496 56.2952L140.332 54.8042ZM136.755 55.6745C137.13 55.8504 137.577 55.6891 137.752 55.3141C137.928 54.9391 137.767 54.4925 137.392 54.3165L136.755 55.6745ZM134.593 52.1677C134.28 51.8968 133.806 51.9311 133.535 52.2444C133.264 52.5577 133.299 53.0313 133.612 53.3023L134.593 52.1677ZM130.537 50.6431C130.851 50.9141 131.324 50.8797 131.595 50.5664C131.866 50.2531 131.832 49.7795 131.519 49.5086L130.537 50.6431ZM128.444 46.8494C128.131 46.5784 127.657 46.6128 127.386 46.9261C127.115 47.2394 127.149 47.713 127.463 47.9839L128.444 46.8494ZM124.388 45.3248C124.701 45.5957 125.175 45.5614 125.446 45.2481C125.717 44.9348 125.682 44.4612 125.369 44.1902L124.388 45.3248ZM122.294 41.5311C121.981 41.2601 121.508 41.2944 121.237 41.6077C120.966 41.921 121 42.3947 121.313 42.6656L122.294 41.5311ZM118.239 40.0065C118.552 40.2774 119.025 40.2431 119.296 39.9298C119.567 39.6165 119.533 39.1429 119.22 38.8719L118.239 40.0065ZM116.826 36.6084C116.583 36.273 116.114 36.198 115.778 36.4409C115.443 36.6839 115.368 37.1528 115.611 37.4883L116.826 36.6084ZM114.375 34.5317C114.443 34.9402 114.83 35.2163 115.238 35.1483C115.647 35.0803 115.923 34.6939 115.855 34.2853L114.375 34.5317ZM115.921 31.0741C115.948 30.6608 115.635 30.3036 115.222 30.2763C114.809 30.2489 114.451 30.5619 114.424 30.9752L115.921 31.0741ZM114.681 27.0843C114.654 27.4976 114.967 27.8548 115.38 27.8821C115.793 27.9094 116.151 27.5965 116.178 27.1832L114.681 27.0843ZM116.435 23.2923C116.462 22.879 116.15 22.5218 115.736 22.4945C115.323 22.4671 114.966 22.7801 114.938 23.1934L116.435 23.2923ZM115.196 19.3025C115.168 19.7158 115.481 20.073 115.895 20.1003C116.308 20.1276 116.665 19.8147 116.692 19.4014L115.196 19.3025ZM114.735 16.1679C114.342 16.0365 113.917 16.2484 113.785 16.6412C113.654 17.034 113.866 17.459 114.259 17.5904L114.735 16.1679ZM111.107 16.5357C111.499 16.6672 111.924 16.4553 112.056 16.0625C112.187 15.6697 111.975 15.2447 111.583 15.1133L111.107 16.5357ZM59.8696 79.885C60.0825 79.2485 60.3144 78.6237 60.5644 78.0112L59.1755 77.4445C58.9134 78.0869 58.6703 78.7419 58.4471 79.409L59.8696 79.885ZM62.3091 74.4235C62.9742 73.257 63.7101 72.1463 64.5092 71.0953L63.3151 70.1874C62.4764 71.2906 61.704 72.4563 61.006 73.6806L62.3091 74.4235ZM67.1273 68.0858C68.0685 67.1378 69.068 66.2561 70.1178 65.4447L69.2005 64.2579C68.0992 65.1091 67.0504 66.0342 66.0628 67.029L67.1273 68.0858ZM73.4276 63.2155C74.5781 62.5452 75.7712 61.9503 76.9989 61.4349L76.4183 60.0518C75.1306 60.5924 73.8791 61.2164 72.6725 61.9195L73.4276 63.2155ZM80.7712 60.1331C82.0509 59.783 83.3566 59.5154 84.6801 59.3343L84.4767 57.8481C83.0879 58.0382 81.7179 58.319 80.3753 58.6863L80.7712 60.1331ZM88.6592 59.0545C89.9796 59.0488 91.3094 59.1296 92.6414 59.3004L92.8322 57.8126C91.4344 57.6333 90.0386 57.5486 88.6528 57.5545L88.6592 59.0545ZM96.5566 60.0661C97.1962 60.2352 97.8347 60.4259 98.4712 60.6389L98.9472 59.2164C98.28 58.9932 97.6106 58.7932 96.9398 58.6159L96.5566 60.0661ZM98.4712 60.6389C99.1077 60.8519 99.7325 61.0838 100.345 61.3337L100.912 59.9449C100.269 59.6828 99.6143 59.4397 98.9472 59.2164L98.4712 60.6389ZM103.933 63.0784C105.099 63.7436 106.21 64.4794 107.261 65.2785L108.169 64.0845C107.066 63.2457 105.9 62.4734 104.676 61.7754L103.933 63.0784ZM110.27 67.8966C111.218 68.8378 112.1 69.8373 112.911 70.8871L114.098 69.9699C113.247 68.8685 112.322 67.8198 111.327 66.8322L110.27 67.8966ZM115.141 74.197C115.811 75.3474 116.406 76.5406 116.921 77.7683L118.304 77.1877C117.764 75.9 117.14 74.6485 116.437 73.4418L115.141 74.197ZM118.223 81.5405C118.573 82.8203 118.841 84.126 119.022 85.4495L120.508 85.2461C120.318 83.8572 120.037 82.4873 119.67 81.1447L118.223 81.5405ZM119.302 89.4286C119.307 90.7489 119.227 92.0788 119.056 93.4107L120.544 93.6016C120.723 92.2037 120.808 90.808 120.802 89.4221L119.302 89.4286ZM118.29 97.3259C118.121 97.9656 117.93 98.6041 117.717 99.2406L119.14 99.7165C119.363 99.0494 119.563 98.38 119.74 97.7092L118.29 97.3259ZM117.717 99.2406C117.504 99.8771 117.272 100.502 117.022 101.114L118.411 101.681C118.673 101.039 118.917 100.384 119.14 99.7165L117.717 99.2406ZM115.278 104.702C114.613 105.869 113.877 106.979 113.078 108.03L114.272 108.938C115.11 107.835 115.883 106.669 116.581 105.445L115.278 104.702ZM110.46 111.04C109.518 111.988 108.519 112.869 107.469 113.681L108.386 114.868C109.488 114.017 110.536 113.091 111.524 112.097L110.46 111.04ZM104.159 115.91C103.009 116.58 101.816 117.175 100.588 117.691L101.169 119.074C102.456 118.533 103.708 117.909 104.914 117.206L104.159 115.91ZM96.8157 118.992C95.5359 119.343 94.2302 119.61 92.9067 119.791L93.1101 121.277C94.499 121.087 95.8689 120.807 97.2115 120.439L96.8157 118.992ZM88.9276 120.071C87.6073 120.077 86.2774 119.996 84.9455 119.825L84.7546 121.313C86.1525 121.492 87.5482 121.577 88.9341 121.571L88.9276 120.071ZM81.0303 119.059C80.3906 118.89 79.7522 118.7 79.1156 118.487L78.6397 119.909C79.3068 120.132 79.9762 120.332 80.647 120.51L81.0303 119.059ZM79.1156 118.487C78.4791 118.274 77.8544 118.042 77.2418 117.792L76.6751 119.181C77.3175 119.443 77.9725 119.686 78.6397 119.909L79.1156 118.487ZM73.6542 116.047C72.4876 115.382 71.377 114.646 70.3259 113.847L69.4181 115.041C70.5212 115.88 71.687 116.652 72.9112 117.35L73.6542 116.047ZM67.3164 111.229C66.3684 110.288 65.4867 109.288 64.6754 108.238L63.4885 109.156C64.3397 110.257 65.2648 111.306 66.2596 112.293L67.3164 111.229ZM62.4461 104.929C61.7758 103.778 61.1809 102.585 60.6656 101.357L59.2825 101.938C59.8231 103.226 60.447 104.477 61.1501 105.684L62.4461 104.929ZM59.3638 97.585C59.0136 96.3053 58.746 94.9996 58.5649 93.6761L57.0788 93.8795C57.2688 95.2683 57.5496 96.6383 57.917 97.9809L59.3638 97.585ZM58.2851 89.697C58.2795 88.3767 58.3602 87.0468 58.5311 85.7148L57.0433 85.524C56.8639 86.9218 56.7792 88.3176 56.7852 89.7034L58.2851 89.697ZM59.2968 81.7996C59.4658 81.16 59.6566 80.5215 59.8696 79.885L58.4471 79.409C58.2239 80.0762 58.0238 80.7456 57.8465 81.4164L59.2968 81.7996ZM94.9809 71.0705C94.3695 70.8659 93.755 70.6933 93.1391 70.5518L92.8031 72.0137C93.3718 72.1444 93.9397 72.3038 94.5049 72.493L94.9809 71.0705ZM89.3464 70.0656C88.0578 70.0286 86.7807 70.1207 85.5319 70.3336L85.784 71.8123C86.9364 71.6158 88.1147 71.5308 89.3033 71.565L89.3464 70.0656ZM81.8445 71.3421C80.6517 71.7978 79.5055 72.3693 78.4237 73.0477L79.2207 74.3185C80.2197 73.6919 81.2782 73.1642 82.3798 72.7434L81.8445 71.3421ZM75.3991 75.3856C74.4776 76.2549 73.6354 77.2193 72.8895 78.2707L74.1129 79.1386C74.8009 78.1688 75.5779 77.279 76.4284 76.4768L75.3991 75.3856ZM70.9953 81.5923C70.7376 82.1693 70.5057 82.764 70.3011 83.3753L71.7236 83.8513C71.9127 83.286 72.1271 82.7366 72.365 82.2038L70.9953 81.5923ZM70.3011 83.3753C70.0966 83.9867 69.924 84.6012 69.7824 85.2171L71.2443 85.5531C71.375 84.9844 71.5345 84.4165 71.7236 83.8513L70.3011 83.3753ZM69.2962 89.0098C69.2592 90.2984 69.3514 91.5755 69.5642 92.8243L71.0429 92.5722C70.8465 91.4198 70.7615 90.2415 70.7956 89.0529L69.2962 89.0098ZM70.5728 96.5117C71.0285 97.7045 71.5999 98.8507 72.2783 99.9325L73.5491 99.1355C72.9226 98.1365 72.3948 97.078 71.974 95.9764L70.5728 96.5117ZM74.6163 102.957C75.4855 103.879 76.45 104.721 77.5013 105.467L78.3693 104.243C77.3995 103.555 76.5096 102.778 75.7075 101.928L74.6163 102.957ZM80.8229 107.361C81.4 107.619 81.9947 107.851 82.606 108.055L83.0819 106.633C82.5167 106.443 81.9673 106.229 81.4344 105.991L80.8229 107.361ZM82.606 108.055C83.2173 108.26 83.8319 108.432 84.4478 108.574L84.7837 107.112C84.215 106.981 83.6472 106.822 83.0819 106.633L82.606 108.055ZM88.2405 109.06C89.529 109.097 90.8061 109.005 92.0549 108.792L91.8029 107.313C90.6504 107.51 89.4721 107.595 88.2836 107.561L88.2405 109.06ZM95.7423 107.783C96.9352 107.328 98.0813 106.756 99.1631 106.078L98.3662 104.807C97.3671 105.434 96.3086 105.961 95.2071 106.382L95.7423 107.783ZM102.188 103.74C103.109 102.871 103.951 101.906 104.697 100.855L103.474 99.9869C102.786 100.957 102.009 101.847 101.158 102.649L102.188 103.74ZM106.592 97.5333C106.849 96.9562 107.081 96.3616 107.286 95.7502L105.863 95.2743C105.674 95.8395 105.46 96.389 105.222 96.9218L106.592 97.5333ZM107.286 95.7502C107.49 95.1389 107.663 94.5244 107.804 93.9084L106.343 93.5725C106.212 94.1412 106.052 94.709 105.863 95.2743L107.286 95.7502ZM108.291 90.1157C108.328 88.8272 108.235 87.5501 108.023 86.3013L106.544 86.5533C106.74 87.7058 106.825 88.8841 106.791 90.0726L108.291 90.1157ZM107.014 82.6139C106.558 81.421 105.987 80.2749 105.309 79.1931L104.038 79.99C104.664 80.9891 105.192 82.0476 105.613 83.1491L107.014 82.6139ZM102.971 76.1685C102.101 75.2469 101.137 74.4048 100.086 73.6589L99.2176 74.8823C100.187 75.5703 101.077 76.3473 101.879 77.1977L102.971 76.1685ZM96.7639 71.7646C96.1869 71.507 95.5922 71.275 94.9809 71.0705L94.5049 72.493C95.0702 72.6821 95.6196 72.8965 96.1524 73.1343L96.7639 71.7646ZM101.328 4.00393L100.121 5.84549L101.376 6.6678L102.583 4.82624L101.328 4.00393ZM97.7069 9.52863L95.2927 13.2118L96.5472 14.0341L98.9614 10.3509L97.7069 9.52863ZM92.8784 16.8949L91.6713 18.7365L92.9259 19.5588L94.133 17.7172L92.8784 16.8949ZM92.2416 18.3998L90.1355 18.5603L90.2495 20.0559L92.3556 19.8954L92.2416 18.3998ZM85.9233 18.8812L81.711 19.2021L81.825 20.6978L86.0372 20.3769L85.9233 18.8812ZM77.4988 19.5231L75.3927 19.6836L75.5066 21.1792L77.6128 21.0187L77.4988 19.5231ZM76.1002 20.0581L75.1629 18.4248L73.8619 19.1714L74.7992 20.8047L76.1002 20.0581ZM73.2885 15.1583L71.414 11.8918L70.113 12.6383L71.9874 15.9049L73.2885 15.1583ZM69.5395 8.62524L68.6023 6.99197L67.3013 7.73855L68.2385 9.37181L69.5395 8.62524ZM68.6023 6.99197C68.1493 6.20257 67.5634 5.53235 66.888 4.99564L65.9548 6.17006C66.4843 6.59072 66.9443 7.11653 67.3013 7.73855L68.6023 6.99197ZM61.9408 3.49959C61.0811 3.57206 60.222 3.80534 59.4075 4.21144L60.0768 5.55384C60.7186 5.23385 61.3929 5.05109 62.0668 4.99429L61.9408 3.49959ZM59.4075 4.21144L57.6497 5.08786L58.319 6.43026L60.0768 5.55384L59.4075 4.21144ZM54.1341 6.84069L50.6184 8.59352L51.2877 9.93592L54.8034 8.18309L54.1341 6.84069ZM47.1028 10.3463L43.5872 12.0992L44.2565 13.4416L47.7721 11.6887L47.1028 10.3463ZM40.0715 13.852L38.3137 14.7284L38.983 16.0708L40.7408 15.1944L40.0715 13.852ZM38.3137 14.7284C37.5247 15.1218 36.8392 15.6469 36.2733 16.2654L37.3799 17.278C37.8236 16.7931 38.3615 16.3807 38.983 16.0708L38.3137 14.7284ZM34.4362 20.9401C34.4297 21.7784 34.5743 22.6297 34.8844 23.455L36.2885 22.9274C36.0443 22.2774 35.931 21.609 35.9362 20.9518L34.4362 20.9401ZM34.8844 23.455L35.5662 25.2697L36.9704 24.7422L36.2885 22.9274L34.8844 23.455ZM36.9299 28.8992L38.2936 32.5287L39.6977 32.0011L38.334 28.3716L36.9299 28.8992ZM39.6573 36.1582L40.3391 37.9729L41.7433 37.4453L41.0614 35.6306L39.6573 36.1582ZM40.472 37.2207L39.0903 38.8309L40.2286 39.8077L41.6104 38.1975L40.472 37.2207ZM36.3268 42.0513L33.5634 45.2717L34.7017 46.2485L37.4652 43.0281L36.3268 42.0513ZM30.8 48.4921L29.4182 50.1023L30.5566 51.0791L31.9383 49.4689L30.8 48.4921ZM30.0575 49.844L27.9334 49.6446L27.7932 51.138L29.9173 51.3374L30.0575 49.844ZM23.6853 49.2457L19.4372 48.8469L19.297 50.3403L23.5451 50.7392L23.6853 49.2457ZM15.189 48.4481L13.065 48.2487L12.9248 49.7421L15.0488 49.9415L15.189 48.4481ZM13.065 48.2487C12.2667 48.1737 11.4808 48.2368 10.7344 48.4211L11.0938 49.8774C11.6793 49.7329 12.2964 49.6831 12.9248 49.7421L13.065 48.2487ZM6.87289 50.9353C6.40249 51.5433 6.02682 52.2365 5.77241 52.9969L7.19489 53.4729C7.39514 52.8744 7.69026 52.3302 8.0593 51.8531L6.87289 50.9353ZM5.77241 52.9969L5.11135 54.9726L6.53384 55.4485L7.19489 53.4729L5.77241 52.9969ZM3.78925 58.9239L2.46715 62.8753L3.88964 63.3512L5.21174 59.3999L3.78925 58.9239ZM1.14505 66.8266L0.483995 68.8023L1.90648 69.2783L2.56753 67.3026L1.14505 66.8266ZM0.483995 68.8023C0.236982 69.5405 0.119256 70.2978 0.121765 71.0459L1.62176 71.0409C1.61979 70.4539 1.71209 69.8592 1.90648 69.2783L0.483995 68.8023ZM1.57183 75.2896C2.02766 75.8828 2.58415 76.4097 3.23128 76.8424L4.06506 75.5955C3.55579 75.2549 3.11891 74.8411 2.76125 74.3757L1.57183 75.2896ZM3.23128 76.8424L5.07066 78.0723L5.90444 76.8254L4.06506 75.5955L3.23128 76.8424ZM8.74943 80.5322L12.4282 82.9921L13.262 81.7452L9.58322 79.2853L8.74943 80.5322ZM16.107 85.452L17.9464 86.682L18.7801 85.4351L16.9408 84.2051L16.107 85.452ZM17.6154 86.1155L17.7762 88.2249L19.2718 88.1109L19.1111 86.0015L17.6154 86.1155ZM18.0976 92.4436L18.4191 96.6624L19.9147 96.5484L19.5933 92.3297L18.0976 92.4436ZM18.7405 100.881L18.9013 102.991L20.3969 102.877L20.2362 100.767L18.7405 100.881ZM19.2766 102.283L17.6457 103.216L18.3908 104.518L20.0217 103.584L19.2766 102.283ZM14.3839 105.083L11.1221 106.95L11.8672 108.252L15.129 106.385L14.3839 105.083ZM7.86036 108.817L6.22948 109.75L6.97458 111.052L8.60547 110.118L7.86036 108.817ZM6.22948 109.75C5.43894 110.202 4.76764 110.788 4.22997 111.464L5.4036 112.398C5.82501 111.868 6.35166 111.408 6.97458 111.052L6.22948 109.75ZM2.73007 116.413C2.80234 117.274 3.03566 118.134 3.44208 118.949L4.78449 118.279C4.46424 117.637 4.28145 116.962 4.2248 116.288L2.73007 116.413ZM3.44208 118.949L4.3185 120.707L5.6609 120.037L4.78449 118.279L3.44208 118.949ZM6.07133 124.222L7.82416 127.738L9.16656 127.068L7.41373 123.553L6.07133 124.222ZM9.57699 131.253L11.3298 134.769L12.6722 134.1L10.9194 130.584L9.57699 131.253ZM13.0827 138.285L13.9591 140.043L15.3015 139.373L14.4251 137.615L13.0827 138.285ZM13.9591 140.043C14.3529 140.832 14.8787 141.518 15.4979 142.085L16.5101 140.978C16.0246 140.534 15.6117 139.995 15.3015 139.373L13.9591 140.043ZM20.1786 143.92C21.0177 143.926 21.8697 143.78 22.6954 143.468L22.1658 142.065C21.5153 142.31 20.8465 142.425 20.1886 142.42L20.1786 143.92ZM22.6954 143.468L24.5121 142.782L23.9824 141.379L22.1658 142.065L22.6954 143.468ZM28.1454 141.411L31.7787 140.04L31.249 138.636L27.6157 140.008L28.1454 141.411ZM35.412 138.669L37.2286 137.983L36.6989 136.579L34.8823 137.265L35.412 138.669ZM36.4731 137.848L38.0435 139.207L39.0249 138.072L37.4545 136.714L36.4731 137.848ZM41.1844 141.924L44.3253 144.641L45.3066 143.506L42.1657 140.789L41.1844 141.924ZM47.4661 147.358L49.0366 148.716L50.0179 147.582L48.4475 146.223L47.4661 147.358ZM48.7794 148.093L48.6155 150.258L50.1113 150.371L50.2751 148.206L48.7794 148.093ZM48.2879 154.589L47.9602 158.921L49.4559 159.034L49.7836 154.703L48.2879 154.589ZM47.6325 163.252L47.4686 165.417L48.9644 165.531L49.1282 163.365L47.6325 163.252ZM47.4686 165.417C47.409 166.206 47.4834 166.98 47.6751 167.714L49.1264 167.335C48.976 166.759 48.9174 166.151 48.9644 165.531L47.4686 165.417ZM50.1911 171.503C50.7933 171.964 51.4779 172.333 52.2275 172.584L52.7035 171.161C52.1135 170.964 51.576 170.674 51.1035 170.312L50.1911 171.503ZM52.2275 172.584L54.2032 173.245L54.6792 171.822L52.7035 171.161L52.2275 172.584ZM58.1546 174.567L62.1059 175.889L62.5819 174.467L58.6305 173.144L58.1546 174.567ZM66.0573 177.211L68.0329 177.872L68.5089 176.45L66.5332 175.789L66.0573 177.211ZM68.0329 177.872C68.7821 178.123 69.5505 178.24 70.3088 178.234L70.2969 176.734C69.7019 176.739 69.0985 176.647 68.5089 176.45L68.0329 177.872ZM74.5967 176.725C75.1916 176.255 75.7169 175.682 76.1438 175.017L74.8817 174.206C74.5457 174.729 74.1331 175.179 73.6664 175.548L74.5967 176.725ZM76.1438 175.017L77.318 173.189L76.0559 172.378L74.8817 174.206L76.1438 175.017ZM79.6664 169.532L82.0148 165.876L80.7527 165.066L78.4043 168.722L79.6664 169.532ZM84.3632 162.22L85.5374 160.392L84.2753 159.581L83.1011 161.409L84.3632 162.22ZM84.9586 160.735L87.0931 160.586L86.9886 159.089L84.8541 159.238L84.9586 160.735ZM91.362 160.287L95.6309 159.989L95.5264 158.493L91.2575 158.791L91.362 160.287ZM99.8998 159.691L102.034 159.542L101.93 158.045L99.7953 158.195L99.8998 159.691ZM101.346 159.191C101.647 159.673 101.965 160.189 102.295 160.731L103.576 159.949C103.243 159.404 102.922 158.883 102.618 158.396L101.346 159.191ZM104.163 163.838C104.471 164.356 104.78 164.878 105.086 165.4L106.379 164.639C106.072 164.116 105.762 163.592 105.453 163.072L104.163 163.838ZM105.086 165.4C105.32 165.797 105.55 166.19 105.774 166.573L107.069 165.816C106.844 165.431 106.614 165.038 106.379 164.639L105.086 165.4ZM107.142 168.925C107.387 169.349 107.615 169.745 107.821 170.103L109.121 169.354C108.915 168.996 108.686 168.599 108.44 168.174L107.142 168.925ZM107.821 170.103C107.895 170.23 107.965 170.352 108.032 170.47L109.333 169.722C109.265 169.605 109.195 169.482 109.121 169.354L107.821 170.103ZM108.454 171.204C108.532 171.34 108.602 171.463 108.664 171.571L109.966 170.827C109.904 170.718 109.834 170.595 109.755 170.458L108.454 171.204ZM108.663 171.57L108.74 171.705L110.043 170.962L109.966 170.827L108.663 171.57ZM108.894 171.975L108.971 172.11L110.274 171.366L110.197 171.232L108.894 171.975ZM108.97 172.109C109.421 172.902 110.006 173.576 110.682 174.116L111.619 172.945C111.089 172.522 110.63 171.993 110.274 171.367L108.97 172.109ZM115.639 175.627C116.501 175.555 117.362 175.321 118.179 174.914L117.51 173.572C116.866 173.893 116.19 174.076 115.514 174.132L115.639 175.627ZM118.179 174.914L119.937 174.038L119.268 172.695L117.51 173.572L118.179 174.914ZM123.453 172.285L126.968 170.532L126.299 169.19L122.784 170.942L123.453 172.285ZM130.484 168.779L134 167.026L133.33 165.684L129.815 167.437L130.484 168.779ZM137.515 165.274L139.273 164.397L138.604 163.055L136.846 163.931L137.515 165.274ZM139.273 164.397C140.074 163.998 140.768 163.463 141.338 162.833L140.226 161.826C139.779 162.32 139.235 162.74 138.604 163.055L139.273 164.397ZM143.151 158.076C143.144 157.226 142.982 156.365 142.65 155.534L141.257 156.091C141.519 156.746 141.646 157.421 141.651 158.088L143.151 158.076ZM142.65 155.534L141.939 153.757L140.546 154.314L141.257 156.091L142.65 155.534ZM140.518 150.203L139.097 146.648L137.704 147.205L139.125 150.759L140.518 150.203ZM137.676 143.094L136.966 141.317L135.573 141.874L136.284 143.651L137.676 143.094ZM136.836 142.087L138.229 140.484L137.097 139.5L135.703 141.103L136.836 142.087ZM141.015 137.278L143.801 134.073L142.669 133.089L139.883 136.294L141.015 137.278ZM146.588 130.867L147.981 129.264L146.849 128.28L145.456 129.883L146.588 130.867ZM147.364 129.52L149.538 129.669L149.64 128.172L147.466 128.024L147.364 129.52ZM153.886 129.967L158.235 130.264L158.337 128.768L153.989 128.47L153.886 129.967ZM162.583 130.562L164.758 130.711L164.86 129.214L162.686 129.065L162.583 130.562ZM164.758 130.711C165.542 130.764 166.311 130.686 167.04 130.491L166.653 129.042C166.081 129.195 165.477 129.256 164.86 129.214L164.758 130.711ZM170.8 127.975C171.258 127.375 171.624 126.694 171.874 125.949L170.451 125.473C170.255 126.059 169.967 126.594 169.608 127.065L170.8 127.975ZM171.874 125.949L172.527 123.995L171.105 123.519L170.451 125.473L171.874 125.949ZM173.835 120.089L175.142 116.183L173.719 115.707L172.412 119.613L173.835 120.089ZM176.449 112.277L177.103 110.324L175.68 109.848L175.027 111.801L176.449 112.277ZM177.103 110.324C177.353 109.575 177.471 108.807 177.465 108.049L175.965 108.061C175.97 108.655 175.877 109.258 175.68 109.848L177.103 110.324ZM175.959 103.764C175.489 103.169 174.917 102.643 174.253 102.216L173.441 103.477C173.964 103.814 174.413 104.226 174.781 104.693L175.959 103.764ZM174.253 102.216L172.434 101.045L171.622 102.306L173.441 103.477L174.253 102.216ZM168.794 98.7024L165.155 96.36L164.343 97.6214L167.983 99.9637L168.794 98.7024ZM161.516 94.0177L159.696 92.8465L158.884 94.1078L160.704 95.279L161.516 94.0177ZM160.039 93.4249L159.891 91.3091L158.394 91.4137L158.542 93.5294L160.039 93.4249ZM159.595 87.0777L159.3 82.8463L157.803 82.9509L158.099 87.1823L159.595 87.0777ZM159.004 78.6149L158.856 76.4992L157.36 76.6037L157.508 78.7195L159.004 78.6149ZM158.497 77.1924L160.125 76.2037L159.346 74.9218L157.719 75.9105L158.497 77.1924ZM163.379 74.2262L166.634 72.2487L165.855 70.9668L162.6 72.9443L163.379 74.2262ZM169.888 70.2712L171.515 69.2825L170.736 68.0006L169.109 68.9893L169.888 70.2712ZM171.515 69.2825C172.279 68.8182 172.926 68.2281 173.441 67.5535L172.25 66.6426C171.845 67.1714 171.338 67.6348 170.736 68.0006L171.515 69.2825ZM174.853 62.6665C174.776 61.8209 174.544 60.977 174.145 60.1769L172.802 60.8462C173.117 61.4765 173.299 62.139 173.359 62.8018L174.853 62.6665ZM174.145 60.1769L173.268 58.419L171.926 59.0883L172.802 60.8462L174.145 60.1769ZM171.516 54.9034L169.763 51.3878L168.42 52.0571L170.173 55.5727L171.516 54.9034ZM168.01 47.8721L166.257 44.3565L164.915 45.0258L166.667 48.5414L168.01 47.8721ZM164.504 40.8409L163.628 39.0831L162.285 39.7524L163.162 41.5102L164.504 40.8409ZM163.628 39.0831C163.227 38.2799 162.691 37.5844 162.059 37.0133L161.053 38.1262C161.549 38.5739 161.97 39.1196 162.285 39.7524L163.628 39.0831ZM157.286 35.2057C156.434 35.2149 155.571 35.3805 154.739 35.7169L155.301 37.1075C155.957 36.8425 156.634 36.7128 157.302 36.7056L157.286 35.2057ZM154.739 35.7169L152.977 36.4292L153.54 37.8199L155.301 37.1075L154.739 35.7169ZM149.454 37.8539L145.931 39.2786L146.493 40.6692L150.017 39.2445L149.454 37.8539ZM142.408 40.7032L140.646 41.4156L141.208 42.8062L142.97 42.0939L142.408 40.7032ZM141.418 41.5436L139.767 40.116L138.786 41.2506L140.437 42.6782L141.418 41.5436ZM136.466 37.2608L133.164 34.4056L132.183 35.5402L135.485 38.3954L136.466 37.2608ZM129.863 31.5505L128.212 30.1229L127.231 31.2574L128.882 32.685L129.863 31.5505ZM128.47 30.7396L128.613 28.581L127.116 28.482L126.973 30.6407L128.47 30.7396ZM128.898 24.2637L129.184 19.9465L127.687 19.8476L127.401 24.1648L128.898 24.2637ZM129.469 15.6292L129.612 13.4706L128.115 13.3717L127.972 15.5303L129.469 15.6292ZM129.612 13.4706C129.663 12.6878 129.583 11.92 129.388 11.1923L127.939 11.5818C128.093 12.1527 128.156 12.7556 128.115 13.3717L129.612 13.4706ZM126.871 7.44179C126.272 6.98489 125.592 6.6196 124.848 6.37068L124.372 7.79317C124.958 7.98907 125.492 8.27603 125.962 8.63452L126.871 7.44179ZM124.848 6.37068L122.917 5.72473L122.442 7.14722L124.372 7.79317L124.848 6.37068ZM119.056 4.43284L115.195 3.14095L114.719 4.56344L118.58 5.85533L119.056 4.43284ZM111.334 1.84906L109.404 1.20311L108.928 2.6256L110.858 3.27154L111.334 1.84906ZM109.404 1.20311C108.66 0.954277 107.897 0.83667 107.144 0.840926L107.153 2.3409C107.744 2.33756 108.343 2.42976 108.928 2.6256L109.404 1.20311ZM102.878 2.3204C102.284 2.78342 101.758 3.34806 101.328 4.00393L102.583 4.82624C102.921 4.31007 103.334 3.86681 103.8 3.50351L102.878 2.3204ZM109.141 14.886L108.054 16.5454L109.308 17.3677L110.396 15.7083L109.141 14.886ZM105.878 19.8642L103.703 23.1829L104.957 24.0052L107.133 20.6865L105.878 19.8642ZM101.527 26.5017L100.44 28.161L101.694 28.9834L102.782 27.324L101.527 26.5017ZM100.44 28.161C100.207 28.5156 99.9373 28.8384 99.6367 29.1252L100.672 30.2104C101.055 29.8453 101.399 29.4345 101.694 28.9834L100.44 28.161ZM97.4898 30.3927C97.0934 30.5173 96.6805 30.5978 96.2577 30.63L96.3716 32.1257C96.9095 32.0847 97.4352 31.9823 97.9398 31.8236L97.4898 30.3927ZM96.2577 30.63L94.2703 30.7814L94.3843 32.2771L96.3716 32.1257L96.2577 30.63ZM90.2957 31.0843L86.321 31.3871L86.435 32.8828L90.4096 32.5799L90.2957 31.0843ZM82.3463 31.69L78.3717 31.9928L78.4856 33.4885L82.4603 33.1856L82.3463 31.69ZM74.397 32.2956L72.4097 32.4471L72.5236 33.9427L74.511 33.7913L74.397 32.2956ZM72.4097 32.4471C71.8859 32.487 71.3683 32.4514 70.8699 32.3476L70.5638 33.816C71.1986 33.9483 71.8576 33.9935 72.5236 33.9427L72.4097 32.4471ZM68.1694 30.9179C67.8032 30.5641 67.4829 30.156 67.2214 29.7004L65.9204 30.447C66.2529 31.0263 66.6607 31.5459 67.127 31.9965L68.1694 30.9179ZM67.2214 29.7004L66.4056 28.2786L65.1046 29.0252L65.9204 30.447L67.2214 29.7004ZM64.7739 25.4351L63.1421 22.5916L61.8411 23.3382L63.4728 26.1817L64.7739 25.4351ZM61.5104 19.7481L60.6945 18.3263L59.3935 19.0729L60.2094 20.4947L61.5104 19.7481ZM59.7094 18.0284L58.3627 18.6999L59.032 20.0423L60.3787 19.3708L59.7094 18.0284ZM55.6692 20.0428L52.9758 21.3857L53.6451 22.7281L56.3385 21.3852L55.6692 20.0428ZM50.2823 22.7286L48.9356 23.4L49.6049 24.7424L50.9516 24.071L50.2823 22.7286ZM48.5682 24.335L49.1648 25.9229L50.569 25.3953L49.9724 23.8074L48.5682 24.335ZM50.358 29.0987L51.5513 32.2745L52.9554 31.747L51.7622 28.5712L50.358 29.0987ZM52.7445 35.4503L53.3411 37.0383L54.7453 36.5107L54.1487 34.9228L52.7445 35.4503ZM53.3411 37.0383C53.5162 37.5041 53.6248 37.9841 53.6693 38.466L55.1629 38.3278C55.1062 37.7142 54.9679 37.1031 54.7453 36.5107L53.3411 37.0383ZM53.164 41.3256C52.9571 41.763 52.6905 42.1767 52.3665 42.5544L53.5048 43.5312C53.917 43.0509 54.2563 42.5242 54.5199 41.9672L53.164 41.3256ZM52.3665 42.5544L51.0691 44.0663L52.2074 45.0431L53.5048 43.5312L52.3665 42.5544ZM48.4743 47.0901L45.8795 50.114L47.0179 51.0908L49.6126 48.0669L48.4743 47.0901ZM43.2848 53.1378L40.69 56.1616L41.8283 57.1384L44.4231 54.1146L43.2848 53.1378ZM38.0952 59.1854L36.7978 60.6974L37.9362 61.6742L39.2336 60.1623L38.0952 59.1854ZM36.7978 60.6974C36.5091 61.0338 36.1844 61.3302 35.8322 61.5831L36.7072 62.8015C37.1556 62.4795 37.5689 62.1022 37.9362 61.6742L36.7978 60.6974ZM33.4197 62.5579C32.9906 62.6206 32.5512 62.633 32.1098 62.5916L31.9696 64.085C32.5311 64.1378 33.0905 64.122 33.6368 64.0421L33.4197 62.5579ZM32.1098 62.5916L30.2004 62.4123L30.0602 63.9058L31.9696 64.085L32.1098 62.5916ZM26.3815 62.0538L22.5625 61.6953L22.4223 63.1887L26.2413 63.5473L26.3815 62.0538ZM18.7436 61.3368L16.8342 61.1575L16.694 62.6509L18.6034 62.8302L18.7436 61.3368ZM16.0528 61.6662L15.5027 63.3104L16.9252 63.7863L17.4753 62.1422L16.0528 61.6662ZM14.4025 66.5986L13.8524 68.2428L15.2749 68.7187L15.825 67.0746L14.4025 66.5986ZM14.1467 69.1042L15.8061 70.2137L16.6398 68.9668L14.9805 67.8573L14.1467 69.1042ZM19.1247 72.4329L22.4434 74.652L23.2772 73.4051L19.9585 71.1859L19.1247 72.4329ZM25.7621 76.8711L27.4214 77.9806L28.2552 76.7337L26.5959 75.6242L25.7621 76.8711ZM27.4214 77.9806C27.7703 78.2139 28.0876 78.4837 28.3695 78.7833L29.4619 77.7553C29.1029 77.3739 28.699 77.0305 28.2552 76.7337L27.4214 77.9806ZM29.6147 80.9148C29.7373 81.3075 29.8164 81.7164 29.8483 82.1348L31.344 82.0208C31.3034 81.4885 31.2027 80.968 31.0467 80.468L29.6147 80.9148ZM29.8483 82.1348L29.9997 84.1218L31.4954 84.0078L31.344 82.0208L29.8483 82.1348ZM30.3025 88.0957L30.6054 92.0696L32.101 91.9557L31.7982 87.9817L30.3025 88.0957ZM30.9082 96.0436L31.211 100.018L32.7066 99.9036L32.4038 95.9296L30.9082 96.0436ZM31.5138 103.991L31.6652 105.978L33.1608 105.864L33.0094 103.878L31.5138 103.991ZM31.6652 105.978C31.7051 106.503 31.6695 107.021 31.5654 107.52L33.0337 107.826C33.1663 107.191 33.2117 106.531 33.1608 105.864L31.6652 105.978ZM30.1327 110.222C29.7783 110.588 29.3695 110.909 28.9131 111.17L29.6582 112.472C30.2386 112.139 30.7591 111.732 31.2105 111.265L30.1327 110.222ZM28.9131 111.17L27.4941 111.982L28.2392 113.284L29.6582 112.472L28.9131 111.17ZM24.656 113.606L21.8179 115.231L22.563 116.533L25.4011 114.908L24.656 113.606ZM18.9798 116.855L17.5607 117.667L18.3058 118.969L19.7249 118.157L18.9798 116.855ZM17.2621 118.653L17.9327 119.998L19.2751 119.329L18.6045 117.983L17.2621 118.653ZM19.2739 122.688L20.6151 125.378L21.9575 124.709L20.6163 122.019L19.2739 122.688ZM21.9563 128.068L22.6269 129.413L23.9693 128.744L23.2987 127.399L21.9563 128.068ZM23.5629 129.78L25.1546 129.179L24.6249 127.776L23.0333 128.377L23.5629 129.78ZM28.3379 127.978L31.5212 126.776L30.9915 125.373L27.8082 126.574L28.3379 127.978ZM34.7045 125.575L36.2962 124.974L35.7665 123.571L34.1749 124.171L34.7045 125.575ZM36.2962 124.974C36.7642 124.797 37.2467 124.688 37.7309 124.643L37.5926 123.149C36.9759 123.207 36.3618 123.346 35.7665 123.571L36.2962 124.974ZM40.6042 125.154C41.0433 125.364 41.4583 125.633 41.8366 125.96L42.818 124.826C42.3368 124.409 41.8085 124.067 41.2494 123.8L40.6042 125.154ZM41.8366 125.96L43.3165 127.24L44.2979 126.106L42.818 124.826L41.8366 125.96ZM46.2763 129.801L49.236 132.361L50.2174 131.227L47.2576 128.666L46.2763 129.801ZM52.1958 134.921L55.1556 137.482L56.1369 136.347L53.1771 133.787L52.1958 134.921ZM58.1153 140.042L59.5952 141.322L60.5766 140.188L59.0967 138.908L58.1153 140.042ZM59.5952 141.322C59.9225 141.605 60.2117 141.923 60.4594 142.267L61.6764 141.39C61.361 140.952 60.993 140.548 60.5766 140.188L59.5952 141.322ZM61.4287 144.618C61.4953 145.036 61.5139 145.465 61.4813 145.897L62.977 146.01C63.0185 145.461 62.9948 144.915 62.91 144.382L61.4287 144.618ZM61.4813 145.897L61.3336 147.848L62.8293 147.961L62.977 146.01L61.4813 145.897ZM61.0384 151.75L60.7431 155.653L62.2388 155.766L62.5341 151.864L61.0384 151.75ZM60.4479 159.555L60.3002 161.507L61.796 161.62L61.9436 159.668L60.4479 159.555ZM60.8101 162.274L62.4541 162.824L62.9301 161.402L61.2861 160.852L60.8101 162.274ZM65.7422 163.925L67.3862 164.475L67.8622 163.052L66.2181 162.502L65.7422 163.925ZM68.2552 164.169L69.3127 162.522L68.0506 161.712L66.9931 163.358L68.2552 164.169ZM71.4276 159.23L73.5424 155.937L72.2804 155.126L70.1655 158.419L71.4276 159.23ZM75.6573 152.644L76.7148 150.998L75.4527 150.187L74.3952 151.834L75.6573 152.644ZM76.7148 150.998C76.9479 150.635 77.2201 150.305 77.5242 150.011L76.4829 148.932C76.0958 149.305 75.7493 149.725 75.4527 150.187L76.7148 150.998ZM79.7051 148.719C80.1084 148.594 80.5288 148.514 80.9592 148.484L80.8546 146.987C80.3071 147.025 79.772 147.127 79.2586 147.288L79.7051 148.719ZM80.9592 148.484L82.9466 148.345L82.8421 146.848L80.8546 146.987L80.9592 148.484ZM86.9215 148.067L90.8964 147.789L90.7919 146.293L86.817 146.571L86.9215 148.067ZM94.8713 147.512L98.8462 147.234L98.7417 145.738L94.7668 146.015L94.8713 147.512ZM102.821 146.956L104.809 146.818L104.704 145.321L102.717 145.46L102.821 146.956ZM104.809 146.818C105.278 146.785 105.744 146.813 106.196 146.896L106.47 145.422C105.895 145.315 105.302 145.279 104.704 145.321L104.809 146.818ZM108.694 148.063C109.048 148.355 109.368 148.694 109.645 149.076L110.859 148.195C110.507 147.71 110.1 147.278 109.649 146.906L108.694 148.063ZM109.645 149.076C110.098 149.7 110.653 150.533 111.269 151.496L112.532 150.688C111.911 149.716 111.337 148.854 110.859 148.195L109.645 149.076ZM114.355 156.521C114.872 157.387 115.381 158.247 115.861 159.063L117.154 158.302C116.673 157.484 116.162 156.621 115.643 155.752L114.355 156.521ZM115.861 159.063C115.947 159.209 116.032 159.354 116.117 159.499L117.411 158.74C117.326 158.595 117.24 158.449 117.154 158.302L115.861 159.063ZM116.629 160.372C116.715 160.519 116.8 160.665 116.884 160.809L118.18 160.054C118.095 159.909 118.01 159.763 117.924 159.616L116.629 160.372ZM117.866 161.103L120.536 159.772L119.866 158.429L117.197 159.76L117.866 161.103ZM125.875 157.11L128.544 155.779L127.875 154.436L125.205 155.767L125.875 157.11ZM128.906 154.829L128.286 153.278L126.893 153.834L127.513 155.386L128.906 154.829ZM127.045 150.174L125.804 147.071L124.411 147.627L125.652 150.731L127.045 150.174ZM124.564 143.967L123.943 142.416L122.55 142.972L123.171 144.524L124.564 143.967ZM123.943 142.416C123.754 141.941 123.634 141.451 123.581 140.958L122.09 141.117C122.157 141.745 122.309 142.369 122.55 142.972L123.943 142.416ZM124.078 138.023C124.29 137.575 124.564 137.151 124.899 136.766L123.767 135.782C123.341 136.272 122.991 136.811 122.722 137.382L124.078 138.023ZM124.899 136.766L126.206 135.262L125.074 134.278L123.767 135.782L124.899 136.766ZM128.821 132.253L131.436 129.245L130.304 128.261L127.689 131.269L128.821 132.253ZM134.05 126.237L136.665 123.228L135.533 122.244L132.918 125.253L134.05 126.237ZM139.28 120.22L140.587 118.716L139.455 117.732L138.148 119.236L139.28 120.22ZM140.587 118.716C140.868 118.393 141.183 118.107 141.523 117.862L140.646 116.645C140.213 116.957 139.812 117.321 139.455 117.732L140.587 118.716ZM143.848 116.896C144.262 116.829 144.687 116.808 145.114 116.837L145.216 115.34C144.673 115.303 144.132 115.33 143.605 115.416L143.848 116.896ZM145.114 116.837L147.074 116.971L147.176 115.474L145.216 115.34L145.114 116.837ZM150.993 117.239L154.912 117.508L155.014 116.011L151.095 115.743L150.993 117.239ZM158.831 117.776L160.791 117.91L160.893 116.413L158.934 116.279L158.831 117.776ZM161.553 117.4L162.092 115.791L160.669 115.315L160.131 116.924L161.553 117.4ZM163.168 112.574L163.707 110.965L162.284 110.489L161.746 112.098L163.168 112.574ZM163.401 110.097L161.763 109.042L160.951 110.304L162.589 111.358L163.401 110.097ZM158.487 106.934L155.211 104.825L154.399 106.086L157.675 108.195L158.487 106.934ZM151.935 102.716L150.297 101.662L149.485 102.923L151.123 103.978L151.935 102.716ZM150.297 101.662C149.935 101.429 149.605 101.157 149.312 100.853L148.232 101.893C148.605 102.28 149.024 102.627 149.485 102.923L150.297 101.662ZM148.023 98.6733C147.897 98.2705 147.817 97.8505 147.787 97.4206L146.291 97.5251C146.329 98.072 146.431 98.6066 146.591 99.1196L148.023 98.6733ZM147.787 97.4206L147.648 95.4331L146.152 95.5377L146.291 97.5251L147.787 97.4206ZM147.371 91.4582L147.093 87.4833L145.597 87.5879L145.874 91.5628L147.371 91.4582ZM146.815 83.5084L146.538 79.5335L145.041 79.638L145.319 83.613L146.815 83.5084ZM146.26 75.5586L146.121 73.5712L144.625 73.6757L144.764 75.6631L146.26 75.5586ZM146.121 73.5712C146.086 73.0623 146.121 72.5593 146.222 72.0742L144.753 71.7704C144.625 72.3882 144.58 73.0285 144.625 73.6757L146.121 73.5712ZM147.588 69.4341C147.926 69.072 148.316 68.7525 148.752 68.4876L147.973 67.2057C147.418 67.5425 146.922 67.9493 146.491 68.4104L147.588 69.4341ZM148.752 68.4876L150.172 67.6248L149.393 66.3429L147.973 67.2057L148.752 68.4876ZM153.012 65.8992L155.851 64.1736L155.073 62.8917L152.233 64.6173L153.012 65.8992ZM158.691 62.448L160.111 61.5852L159.332 60.3033L157.912 61.1661L158.691 62.448ZM160.393 60.6096L159.721 59.2624L158.379 59.9317L159.051 61.2789L160.393 60.6096ZM158.378 56.5681L157.035 53.8739L155.692 54.5432L157.036 57.2374L158.378 56.5681ZM155.691 51.1796L155.02 49.8325L153.677 50.5017L154.349 51.8489L155.691 51.1796ZM154.067 49.4718L152.533 50.0923L153.095 51.483L154.63 50.8624L154.067 49.4718ZM149.463 51.3334L146.394 52.5745L146.956 53.9651L150.026 52.724L149.463 51.3334ZM143.325 53.8156L141.79 54.4362L142.353 55.8268L143.887 55.2062L143.325 53.8156ZM141.79 54.4362C141.316 54.6279 140.825 54.7498 140.332 54.8042L140.496 56.2952C141.125 56.2259 141.75 56.0706 142.353 55.8268L141.79 54.4362ZM137.392 54.3165C136.943 54.1056 136.518 53.8319 136.131 53.4973L135.149 54.6318C135.641 55.0573 136.182 55.4059 136.755 55.6745L137.392 54.3165ZM136.131 53.4973L134.593 52.1677L133.612 53.3023L135.149 54.6318L136.131 53.4973ZM131.519 49.5086L128.444 46.8494L127.463 47.9839L130.537 50.6431L131.519 49.5086ZM125.369 44.1902L122.294 41.5311L121.313 42.6656L124.388 45.3248L125.369 44.1902ZM119.22 38.8719L117.682 37.5423L116.701 38.6769L118.239 40.0065L119.22 38.8719ZM117.682 37.5423C117.358 37.2621 117.072 36.9483 116.826 36.6084L115.611 37.4883C115.924 37.9209 116.289 38.3204 116.701 38.6769L117.682 37.5423ZM115.855 34.2853C115.786 33.8714 115.764 33.447 115.792 33.0195L114.295 32.9206C114.26 33.4644 114.287 34.0047 114.375 34.5317L115.855 34.2853ZM115.792 33.0195L115.921 31.0741L114.424 30.9752L114.295 32.9206L115.792 33.0195ZM116.178 27.1832L116.435 23.2923L114.938 23.1934L114.681 27.0843L116.178 27.1832ZM116.692 19.4014L116.821 17.4559L115.324 17.357L115.196 19.3025L116.692 19.4014ZM116.311 16.6952L114.735 16.1679L114.259 17.5904L115.835 18.1177L116.311 16.6952ZM111.583 15.1133L110.006 14.5859L109.531 16.0084L111.107 16.5357L111.583 15.1133Z" fill="#575775"/>
</svg>
