<svg width="12" height="8" viewBox="0 0 12 8" fill="none" xmlns="http://www.w3.org/2000/svg">
<path fill-rule="evenodd" clip-rule="evenodd" d="M0.833984 4.00001C0.833984 3.72387 1.05784 3.50001 1.33398 3.50001H10.6673C10.9435 3.50001 11.1673 3.72387 11.1673 4.00001C11.1673 4.27615 10.9435 4.50001 10.6673 4.50001H1.33398C1.05784 4.50001 0.833984 4.27615 0.833984 4.00001Z" fill="#8A8AA8"/>
<path fill-rule="evenodd" clip-rule="evenodd" d="M11.0209 3.64646C11.2161 3.84172 11.2161 4.1583 11.0209 4.35356L8.3542 7.02023C8.15894 7.21549 7.84236 7.21549 7.6471 7.02023C7.45184 6.82497 7.45184 6.50839 7.6471 6.31312L10.3138 3.64646C10.509 3.45119 10.8256 3.45119 11.0209 3.64646Z" fill="#8A8AA8"/>
<path fill-rule="evenodd" clip-rule="evenodd" d="M7.6471 0.97979C7.84236 0.784528 8.15894 0.784528 8.3542 0.97979L11.0209 3.64646C11.2161 3.84172 11.2161 4.1583 11.0209 4.35356C10.8256 4.54883 10.509 4.54883 10.3138 4.35356L7.6471 1.6869C7.45184 1.49163 7.45184 1.17505 7.6471 0.97979Z" fill="#8A8AA8"/>
</svg>
