<svg width="14" height="15" viewBox="0 0 14 15" fill="none" xmlns="http://www.w3.org/2000/svg">
<path d="M4.16667 2.66668C4.16667 2.39053 3.94281 2.16668 3.66667 2.16668H3.16667V3.16668H3.66667C3.94281 3.16668 4.16667 2.94282 4.16667 2.66668Z" fill="#575775"/>
<path d="M1 6.16668C0.723858 6.16668 0.5 6.39053 0.5 6.66668C0.5 6.94282 0.723858 7.16668 1 7.16668C1.27614 7.16668 1.5 6.94282 1.5 6.66668V6.16668H1Z" fill="#575775"/>
<path fill-rule="evenodd" clip-rule="evenodd" d="M9 0.833344C9.27614 0.833344 9.5 1.0572 9.5 1.33334V4.00001C9.5 4.27615 9.27614 4.50001 9 4.50001C8.72386 4.50001 8.5 4.27615 8.5 4.00001V3.16668H6C5.72386 3.16668 5.5 2.94282 5.5 2.66668C5.5 2.39053 5.72386 2.16668 6 2.16668H8.5V1.33334C8.5 1.0572 8.72386 0.833344 9 0.833344ZM0.5 4.00001V6.66668V12.6667C0.5 13.6792 1.32082 14.5 2.33333 14.5H11.6667C12.6792 14.5 13.5 13.6792 13.5 12.6667V6.66668V4.00001C13.5 2.98749 12.6792 2.16668 11.6667 2.16668H11.3333C11.0572 2.16668 10.8333 2.39053 10.8333 2.66668C10.8333 2.94282 11.0572 3.16668 11.3333 3.16668H11.6667C12.1269 3.16668 12.5 3.53977 12.5 4.00001V6.16668H1.5V4.00001C1.5 3.53977 1.8731 3.16668 2.33333 3.16668H3.16667V4.00001C3.16667 4.27615 3.39052 4.50001 3.66667 4.50001C3.94281 4.50001 4.16667 4.27615 4.16667 4.00001V2.66668V1.33334C4.16667 1.0572 3.94281 0.833344 3.66667 0.833344C3.39052 0.833344 3.16667 1.0572 3.16667 1.33334V2.16668H2.33333C1.32081 2.16668 0.5 2.98749 0.5 4.00001ZM3.16667 2.16668H3.66667C3.94281 2.16668 4.16667 2.39053 4.16667 2.66668C4.16667 2.94282 3.94281 3.16668 3.66667 3.16668H3.16667V2.16668ZM12.5 6.16668V6.66668C12.5 6.94282 12.7239 7.16668 13 7.16668C13.2761 7.16668 13.5 6.94282 13.5 6.66668C13.5 6.39053 13.2761 6.16668 13 6.16668H12.5ZM1.5 6.16668V6.66668C1.5 6.94282 1.27614 7.16668 1 7.16668C0.723858 7.16668 0.5 6.94282 0.5 6.66668C0.5 6.39053 0.723858 6.16668 1 6.16668H1.5ZM1.5 7.16668V12.6667C1.5 13.1269 1.87309 13.5 2.33333 13.5H11.6667C12.1269 13.5 12.5 13.1269 12.5 12.6667V7.16668H1.5Z" fill="#575775"/>
<path d="M13.5 6.66668C13.5 6.39053 13.2761 6.16668 13 6.16668H12.5V6.66668C12.5 6.94282 12.7239 7.16668 13 7.16668C13.2761 7.16668 13.5 6.94282 13.5 6.66668Z" fill="#575775"/>
</svg>
