<svg width="20" height="20" viewBox="0 0 20 20" fill="none" xmlns="http://www.w3.org/2000/svg">
<path fill-rule="evenodd" clip-rule="evenodd" d="M0.645406 0.645406C0.89858 0.392232 1.24196 0.25 1.6 0.25H18.4C18.758 0.25 19.1014 0.392231 19.3546 0.645406C19.6078 0.898581 19.75 1.24196 19.75 1.6V18.4C19.75 18.758 19.6078 19.1014 19.3546 19.3546C19.1014 19.6078 18.758 19.75 18.4 19.75H6C5.58579 19.75 5.25 19.4142 5.25 19C5.25 18.5858 5.58579 18.25 6 18.25H18.25V1.75H1.75V14C1.75 14.4142 1.41421 14.75 1 14.75C0.585786 14.75 0.25 14.4142 0.25 14V1.6C0.25 1.24196 0.392232 0.89858 0.645406 0.645406ZM6 10.75C5.58579 10.75 5.25 10.4142 5.25 10C5.25 9.58579 5.58579 9.25 6 9.25H10C10.1017 9.25 10.1987 9.27024 10.2871 9.30691C10.3735 9.34268 10.4547 9.39531 10.5254 9.4648C10.5287 9.46803 10.532 9.47129 10.5352 9.47459C10.6047 9.54535 10.6573 9.62646 10.6931 9.71291C10.7298 9.80134 10.75 9.89831 10.75 10V14C10.75 14.4142 10.4142 14.75 10 14.75C9.58579 14.75 9.25 14.4142 9.25 14V11.8107L2.03033 19.0303C1.73744 19.3232 1.26256 19.3232 0.96967 19.0303C0.676777 18.7374 0.676777 18.2626 0.96967 17.9697L8.18934 10.75H6ZM10.5352 10.5254C10.6047 10.4547 10.6573 10.3735 10.6931 10.2871L10.5352 10.5254Z" fill="#575775"/>
</svg>
