<svg width="12" height="9" viewBox="0 0 12 9" fill="none" xmlns="http://www.w3.org/2000/svg">
<path fill-rule="evenodd" clip-rule="evenodd" d="M0.46967 0.46967C0.762563 0.176777 1.23744 0.176777 1.53033 0.46967L5.03033 3.96967C5.32322 4.26256 5.32322 4.73744 5.03033 5.03033L1.53033 8.53033C1.23744 8.82322 0.762563 8.82322 0.46967 8.53033C0.176777 8.23744 0.176777 7.76256 0.46967 7.46967L3.43934 4.5L0.46967 1.53033C0.176777 1.23744 0.176777 0.762563 0.46967 0.46967Z" fill="#262541"/>
<path fill-rule="evenodd" clip-rule="evenodd" d="M6.46967 0.46967C6.76256 0.176777 7.23744 0.176777 7.53033 0.46967L11.0303 3.96967C11.3232 4.26256 11.3232 4.73744 11.0303 5.03033L7.53033 8.53033C7.23744 8.82322 6.76256 8.82322 6.46967 8.53033C6.17678 8.23744 6.17678 7.76256 6.46967 7.46967L9.43934 4.5L6.46967 1.53033C6.17678 1.23744 6.17678 0.762563 6.46967 0.46967Z" fill="#262541"/>
</svg>
