<svg width="34" height="34" viewBox="0 0 34 34" fill="none" xmlns="http://www.w3.org/2000/svg">
<path fill-rule="evenodd" clip-rule="evenodd" d="M17 10.25C17.4142 10.25 17.75 10.5858 17.75 11V16.25H23C23.4142 16.25 23.75 16.5858 23.75 17C23.75 17.4142 23.4142 17.75 23 17.75H17.75V23C17.75 23.4142 17.4142 23.75 17 23.75C16.5858 23.75 16.25 23.4142 16.25 23V17.75H11C10.5858 17.75 10.25 17.4142 10.25 17C10.25 16.5858 10.5858 16.25 11 16.25H16.25V11C16.25 10.5858 16.5858 10.25 17 10.25Z" fill="#8A8AA8"/>
<rect x="1" y="1" width="32" height="32" rx="16" stroke="#DFDEED" stroke-width="1.5" stroke-linecap="round" stroke-dasharray="4 4"/>
</svg>
