<svg width="15" height="18" viewBox="0 0 15 18" fill="none" xmlns="http://www.w3.org/2000/svg">
<path fill-rule="evenodd" clip-rule="evenodd" d="M8.2085 3.16667C8.2085 1.90102 9.23448 0.875 10.5002 0.875C11.7659 0.875 12.7918 1.90102 12.7918 3.16667C12.7918 4.43231 11.7659 5.45833 10.5002 5.45833C9.23448 5.45833 8.2085 4.43231 8.2085 3.16667ZM10.5002 2.125C9.92485 2.125 9.4585 2.59136 9.4585 3.16667C9.4585 3.74197 9.92485 4.20833 10.5002 4.20833C11.0755 4.20833 11.5418 3.74197 11.5418 3.16667C11.5418 2.59136 11.0755 2.125 10.5002 2.125ZM5.72785 3.71899C5.94664 3.50528 6.28794 3.4813 6.53446 3.6623L8.88115 5.3853C8.9179 5.41229 8.95159 5.44322 8.98161 5.47753L11.2071 8.021H14.0249C14.3701 8.021 14.6499 8.30082 14.6499 8.646C14.6499 8.99118 14.3701 9.271 14.0249 9.271H10.9235C10.7433 9.271 10.5718 9.1932 10.4531 9.05756L8.53271 6.86274L6.59188 9.28871L9.64236 12.3392C9.82658 12.5234 9.8772 12.8026 9.7694 13.0398L8.04639 16.8304C7.90356 17.1446 7.53303 17.2836 7.21879 17.1407C6.90455 16.9979 6.7656 16.6274 6.90844 16.3131L8.45221 12.9168L5.31243 9.77702C5.08724 9.55183 5.06739 9.19332 5.26634 8.94464L7.61625 6.00734L6.22202 4.98365L3.77888 7.37002C3.53195 7.61121 3.13625 7.60656 2.89506 7.35963C2.65387 7.1127 2.65852 6.717 2.90545 6.47581L5.72785 3.71899ZM5.92979 11.7452C6.12127 12.0324 6.04367 12.4205 5.75647 12.6119L4.72266 13.3012C4.61999 13.3696 4.49935 13.4062 4.37596 13.4062H1.61914C1.27396 13.4062 0.994141 13.1263 0.994141 12.7812C0.994141 12.436 1.27396 12.1562 1.61914 12.1562H4.18671L5.06306 11.5719C5.35026 11.3804 5.73831 11.458 5.92979 11.7452Z" fill="black"/>
</svg>
