<svg width="18" height="18" viewBox="0 0 18 18" fill="none" xmlns="http://www.w3.org/2000/svg">
<path d="M5.45833 2.33317C5.45833 1.98799 5.17851 1.70817 4.83333 1.70817H4.20833V2.95817H4.83333C5.17851 2.95817 5.45833 2.67835 5.45833 2.33317Z" fill="#575775"/>
<path d="M1.5 6.70817C1.15482 6.70817 0.875 6.98799 0.875 7.33317C0.875 7.67835 1.15482 7.95817 1.5 7.95817C1.84518 7.95817 2.125 7.67835 2.125 7.33317V6.70817H1.5Z" fill="#575775"/>
<path fill-rule="evenodd" clip-rule="evenodd" d="M11.5 0.0415039C11.8452 0.0415039 12.125 0.321326 12.125 0.666504V3.99984C12.125 4.34502 11.8452 4.62484 11.5 4.62484C11.1548 4.62484 10.875 4.34502 10.875 3.99984V2.95817H7.75C7.40482 2.95817 7.125 2.67835 7.125 2.33317C7.125 1.98799 7.40482 1.70817 7.75 1.70817H10.875V0.666504C10.875 0.321326 11.1548 0.0415039 11.5 0.0415039ZM0.875 3.99984V7.33317V14.8332C0.875 16.0989 1.90102 17.1248 3.16667 17.1248H14.8333C16.099 17.1248 17.125 16.0989 17.125 14.8332V7.33317V3.99984C17.125 2.73419 16.099 1.70817 14.8333 1.70817H14.4167C14.0715 1.70817 13.7917 1.98799 13.7917 2.33317C13.7917 2.67835 14.0715 2.95817 14.4167 2.95817H14.8333C15.4086 2.95817 15.875 3.42453 15.875 3.99984V6.70817H2.125V3.99984C2.125 3.42454 2.59137 2.95817 3.16667 2.95817H4.20833V3.99984C4.20833 4.34502 4.48816 4.62484 4.83333 4.62484C5.17851 4.62484 5.45833 4.34502 5.45833 3.99984V2.33317V0.666504C5.45833 0.321326 5.17851 0.0415039 4.83333 0.0415039C4.48816 0.0415039 4.20833 0.321326 4.20833 0.666504V1.70817H3.16667C1.90101 1.70817 0.875 2.73418 0.875 3.99984ZM4.20833 1.70817H4.83333C5.17851 1.70817 5.45833 1.98799 5.45833 2.33317C5.45833 2.67835 5.17851 2.95817 4.83333 2.95817H4.20833V1.70817ZM15.875 6.70817V7.33317C15.875 7.67835 16.1548 7.95817 16.5 7.95817C16.8452 7.95817 17.125 7.67835 17.125 7.33317C17.125 6.98799 16.8452 6.70817 16.5 6.70817H15.875ZM2.125 6.70817V7.33317C2.125 7.67835 1.84518 7.95817 1.5 7.95817C1.15482 7.95817 0.875 7.67835 0.875 7.33317C0.875 6.98799 1.15482 6.70817 1.5 6.70817H2.125ZM2.125 7.95817V14.8332C2.125 15.4085 2.59136 15.8748 3.16667 15.8748H14.8333C15.4087 15.8748 15.875 15.4085 15.875 14.8332V7.95817H2.125Z" fill="#575775"/>
<path d="M17.125 7.33317C17.125 6.98799 16.8452 6.70817 16.5 6.70817H15.875V7.33317C15.875 7.67835 16.1548 7.95817 16.5 7.95817C16.8452 7.95817 17.125 7.67835 17.125 7.33317Z" fill="#575775"/>
</svg>
