<svg width="18" height="18" viewBox="0 0 18 18" fill="none" xmlns="http://www.w3.org/2000/svg">
<path d="M5.45833 2.33341C5.45833 1.98824 5.17851 1.70841 4.83333 1.70841H4.20833V2.95841H4.83333C5.17851 2.95841 5.45833 2.67859 5.45833 2.33341Z" fill="#148783"/>
<path d="M1.5 6.70842C1.15482 6.70842 0.875 6.98824 0.875 7.33342C0.875 7.67859 1.15482 7.95842 1.5 7.95842C1.84518 7.95842 2.125 7.67859 2.125 7.33342V6.70842H1.5Z" fill="#148783"/>
<path fill-rule="evenodd" clip-rule="evenodd" d="M11.5 0.041748C11.8452 0.041748 12.125 0.32157 12.125 0.666748V4.00008C12.125 4.34526 11.8452 4.62508 11.5 4.62508C11.1548 4.62508 10.875 4.34526 10.875 4.00008V2.95841H7.75C7.40482 2.95841 7.125 2.67859 7.125 2.33341C7.125 1.98824 7.40482 1.70841 7.75 1.70841H10.875V0.666748C10.875 0.32157 11.1548 0.041748 11.5 0.041748ZM0.875 4.00008V7.33342V14.8334C0.875 16.0991 1.90102 17.1251 3.16667 17.1251H14.8333C16.099 17.1251 17.125 16.0991 17.125 14.8334V7.33342V4.00008C17.125 2.73443 16.099 1.70841 14.8333 1.70841H14.4167C14.0715 1.70841 13.7917 1.98824 13.7917 2.33341C13.7917 2.67859 14.0715 2.95841 14.4167 2.95841H14.8333C15.4086 2.95841 15.875 3.42478 15.875 4.00008V6.70842H2.125V4.00008C2.125 3.42478 2.59137 2.95841 3.16667 2.95841H4.20833V4.00008C4.20833 4.34526 4.48816 4.62508 4.83333 4.62508C5.17851 4.62508 5.45833 4.34526 5.45833 4.00008V2.33341V0.666748C5.45833 0.32157 5.17851 0.041748 4.83333 0.041748C4.48816 0.041748 4.20833 0.32157 4.20833 0.666748V1.70841H3.16667C1.90101 1.70841 0.875 2.73443 0.875 4.00008ZM4.20833 1.70841H4.83333C5.17851 1.70841 5.45833 1.98824 5.45833 2.33341C5.45833 2.67859 5.17851 2.95841 4.83333 2.95841H4.20833V1.70841ZM15.875 6.70842V7.33342C15.875 7.67859 16.1548 7.95842 16.5 7.95842C16.8452 7.95842 17.125 7.67859 17.125 7.33342C17.125 6.98824 16.8452 6.70842 16.5 6.70842H15.875ZM2.125 6.70842V7.33342C2.125 7.67859 1.84518 7.95842 1.5 7.95842C1.15482 7.95842 0.875 7.67859 0.875 7.33342C0.875 6.98824 1.15482 6.70842 1.5 6.70842H2.125ZM2.125 7.95842V14.8334C2.125 15.4087 2.59136 15.8751 3.16667 15.8751H14.8333C15.4087 15.8751 15.875 15.4087 15.875 14.8334V7.95842H2.125Z" fill="#148783"/>
<path d="M17.125 7.33342C17.125 6.98824 16.8452 6.70842 16.5 6.70842H15.875V7.33342C15.875 7.67859 16.1548 7.95842 16.5 7.95842C16.8452 7.95842 17.125 7.67859 17.125 7.33342Z" fill="#148783"/>
</svg>
