<svg width="18" height="18" viewBox="0 0 18 18" fill="none" xmlns="http://www.w3.org/2000/svg">
<path fill-rule="evenodd" clip-rule="evenodd" d="M9.00033 3.37499C9.3455 3.37499 9.62533 3.65481 9.62533 3.99999V8.37499H14.0003C14.3455 8.37499 14.6253 8.65481 14.6253 8.99999C14.6253 9.34517 14.3455 9.62499 14.0003 9.62499H9.00033C8.65515 9.62499 8.37533 9.34517 8.37533 8.99999V3.99999C8.37533 3.65481 8.65515 3.37499 9.00033 3.37499Z" fill="white"/>
<path fill-rule="evenodd" clip-rule="evenodd" d="M0.0419922 8.99999C0.0419922 4.05244 4.05277 0.0416565 9.00033 0.0416565C13.9478 0.0416565 17.9587 4.05243 17.9587 8.99999C17.9587 13.9475 13.9478 17.9583 9.00033 17.9583C4.05277 17.9583 0.0419922 13.9475 0.0419922 8.99999ZM9.00033 1.29166C4.74313 1.29166 1.29199 4.74279 1.29199 8.99999C1.29199 13.2571 4.74313 16.7083 9.00033 16.7083C13.2575 16.7083 16.7087 13.2571 16.7087 8.99999C16.7087 4.74279 13.2575 1.29166 9.00033 1.29166Z" fill="white"/>
</svg>
