<svg width="18" height="19" viewBox="0 0 18 19" fill="none" xmlns="http://www.w3.org/2000/svg">
<path fill-rule="evenodd" clip-rule="evenodd" d="M12.1484 1.2915C11.4297 1.2915 10.7403 1.57704 10.232 2.08531L2.57374 9.7436C2.57374 9.74361 2.57374 9.7436 2.57374 9.7436C1.75273 10.5647 1.2915 11.6781 1.2915 12.8392C1.2915 14.0003 1.75274 15.1138 2.57372 15.9347C3.39471 16.7558 4.50823 17.217 5.66929 17.217C6.83034 17.217 7.94384 16.7558 8.76479 15.9347L16.4231 8.2764C16.6672 8.03232 17.063 8.03232 17.307 8.2764C17.5511 8.52047 17.5511 8.9162 17.307 9.16028L9.64872 16.8186C9.64871 16.8186 9.64872 16.8186 9.64872 16.8186C8.59333 17.8741 7.16186 18.467 5.66929 18.467C4.17671 18.467 2.74527 17.8741 1.68986 16.8186C0.634423 15.7632 0.0415039 14.3318 0.0415039 12.8392C0.0415039 11.3466 0.634433 9.91519 1.68984 8.85974L9.34815 1.20141C10.0908 0.45875 11.0982 0.0415039 12.1484 0.0415039C13.1988 0.0415039 14.2061 0.458728 14.9487 1.20143C15.6914 1.9441 16.1087 2.95138 16.1087 4.00169C16.1087 5.05201 15.6914 6.0593 14.9487 6.80197L7.28207 14.4603C7.28199 14.4604 7.28216 14.4602 7.28207 14.4603C6.85213 14.8901 6.26884 15.1318 5.66095 15.1318C5.05294 15.1318 4.4698 14.8903 4.03983 14.4603C3.60992 14.0303 3.36835 13.4473 3.36835 12.8392C3.36835 12.2312 3.60991 11.648 4.03983 11.2181L11.1151 4.15115C11.3593 3.90722 11.755 3.90745 11.999 4.15167C12.2429 4.39589 12.2427 4.79162 11.9984 5.03556L4.92374 12.1019C4.7282 12.2975 4.61835 12.5627 4.61835 12.8392C4.61835 13.1157 4.72819 13.3808 4.92374 13.5764C5.11924 13.7719 5.38442 13.8818 5.66095 13.8818C5.93749 13.8818 6.20267 13.7719 6.39817 13.5764L14.0648 5.91807C14.0647 5.91814 14.0649 5.91799 14.0648 5.91807C14.573 5.40983 14.8587 4.72035 14.8587 4.00169C14.8587 3.28292 14.5731 2.59358 14.0648 2.0853C13.5566 1.57707 12.8673 1.2915 12.1484 1.2915Z" fill="#575775"/>
</svg>
