<svg width="16" height="16" viewBox="0 0 16 16" fill="none" xmlns="http://www.w3.org/2000/svg">
<path fill-rule="evenodd" clip-rule="evenodd" d="M10.4581 1.4277C10.3593 1.3289 10.2237 1.27595 10.0841 1.28167C9.94447 1.28739 9.81363 1.35125 9.72325 1.4578L6.7782 4.92937L4.51626 4.69512C4.36648 4.67961 4.21768 4.73243 4.1112 4.83891L2.97983 5.97028C2.88606 6.06404 2.83338 6.19122 2.83338 6.32383C2.83338 6.45644 2.88606 6.58362 2.97983 6.67738L5.79782 9.49538L1.64645 13.6468C1.45118 13.842 1.45118 14.1586 1.64645 14.3539C1.84171 14.5491 2.15829 14.5491 2.35355 14.3539L6.50493 10.2025L9.10811 12.8057C9.20188 12.8994 9.32906 12.9521 9.46168 12.9521C9.59429 12.9521 9.72146 12.8994 9.81523 12.8057L10.9466 11.6743C11.053 11.5678 11.1059 11.419 11.0903 11.2692L10.8561 9.00732L14.3278 6.06234C14.4343 5.97195 14.4982 5.84111 14.5039 5.70151C14.5096 5.56191 14.4567 5.42629 14.3579 5.32749L10.4581 1.4277ZM6.50493 10.2025L6.68689 10.0205C6.88215 9.82527 6.88215 9.50869 6.68689 9.31342C6.49162 9.11816 6.17504 9.11816 5.97978 9.31342L5.79782 9.49538L6.50493 10.2025ZM7.37022 5.77733L10.1347 2.51856L13.267 5.65083L10.0082 8.41529C9.88233 8.52202 9.81726 8.68396 9.83426 8.84808L10.0711 11.1355L9.46166 11.745L4.04049 6.32383L4.65 5.71432L6.93743 5.95121C7.10155 5.96821 7.26348 5.90314 7.37022 5.77733Z" fill="#262541"/>
<path d="M6.68689 10.0205C6.88215 9.82527 6.88215 9.50869 6.68689 9.31342C6.49162 9.11816 6.17504 9.11816 5.97978 9.31342L5.79782 9.49538L6.50493 10.2025L6.68689 10.0205Z" fill="#262541"/>
</svg>
