<svg width="856" height="712" viewBox="0 0 856 712" fill="none" xmlns="http://www.w3.org/2000/svg">
<g clip-path="url(#clip0_7411_82971)">
<rect width="856" height="712" fill="#F0F0F4"/>
<path d="M-240 374L-222.96 350C-205.92 326 -170.893 278 -136.813 254C-102.733 230 -67.7067 230 -33.6267 260C1.40001 290 35.48 350 69.56 350C104.587 350 138.667 290 172.747 284C207.773 278 241.853 326 275.933 362C310.96 398 345.04 422 380.067 404C414.147 386 448.227 326 483.253 284C517.333 242 551.413 218 586.44 218C620.52 218 654.6 242 689.627 254C723.707 266 758.733 266 792.813 254C826.893 242 861.92 218 878.96 206L896 194" stroke="#DFDEED"/>
<path d="M-240 544.543L-222.96 520.543C-205.92 496.543 -170.893 448.543 -136.813 424.543C-102.733 400.543 -67.7067 400.543 -33.6267 430.543C1.40001 460.543 35.48 520.543 69.56 520.543C104.587 520.543 138.667 460.543 172.747 454.543C207.773 448.543 241.853 496.543 275.933 532.543C310.96 568.543 345.04 592.543 380.067 574.543C414.147 556.543 448.227 496.543 483.253 454.543C517.333 412.543 551.413 388.543 586.44 388.543C620.52 388.543 654.6 412.543 689.627 424.543C723.707 436.543 758.733 436.543 792.813 424.543C826.893 412.543 861.92 388.543 878.96 376.543L896 364.543" stroke="#DFDEED"/>
<path d="M-240 382.121L-222.96 358.121C-205.92 334.121 -170.893 286.121 -136.813 262.121C-102.733 238.121 -67.7067 238.121 -33.6267 268.121C1.40001 298.121 35.48 358.121 69.56 358.121C104.587 358.121 138.667 298.121 172.747 292.121C207.773 286.121 241.853 334.121 275.933 370.121C310.96 406.121 345.04 430.121 380.067 412.121C414.147 394.121 448.227 334.121 483.253 292.121C517.333 250.121 551.413 226.121 586.44 226.121C620.52 226.121 654.6 250.121 689.627 262.121C723.707 274.121 758.733 274.121 792.813 262.121C826.893 250.121 861.92 226.121 878.96 214.121L896 202.121" stroke="#DFDEED"/>
<path d="M-240 390.242L-222.96 366.242C-205.92 342.242 -170.893 294.242 -136.813 270.242C-102.733 246.242 -67.7067 246.242 -33.6267 276.242C1.40001 306.242 35.48 366.242 69.56 366.242C104.587 366.242 138.667 306.242 172.747 300.242C207.773 294.242 241.853 342.242 275.933 378.242C310.96 414.242 345.04 438.242 380.067 420.242C414.147 402.242 448.227 342.242 483.253 300.242C517.333 258.242 551.413 234.242 586.44 234.242C620.52 234.242 654.6 258.242 689.627 270.242C723.707 282.242 758.733 282.242 792.813 270.242C826.893 258.242 861.92 234.242 878.96 222.242L896 210.242" stroke="#DFDEED"/>
<path d="M-240 398.363L-222.96 374.363C-205.92 350.363 -170.893 302.363 -136.813 278.363C-102.733 254.363 -67.7067 254.363 -33.6267 284.363C1.40001 314.363 35.48 374.363 69.56 374.363C104.587 374.363 138.667 314.363 172.747 308.363C207.773 302.363 241.853 350.363 275.933 386.363C310.96 422.363 345.04 446.363 380.067 428.363C414.147 410.363 448.227 350.363 483.253 308.363C517.333 266.363 551.413 242.363 586.44 242.363C620.52 242.363 654.6 266.363 689.627 278.363C723.707 290.363 758.733 290.363 792.813 278.363C826.893 266.363 861.92 242.363 878.96 230.363L896 218.363" stroke="#DFDEED"/>
<path d="M-240 406.484L-222.96 382.484C-205.92 358.484 -170.893 310.484 -136.813 286.484C-102.733 262.484 -67.7067 262.484 -33.6267 292.484C1.40001 322.484 35.48 382.484 69.56 382.484C104.587 382.484 138.667 322.484 172.747 316.484C207.773 310.484 241.853 358.484 275.933 394.484C310.96 430.484 345.04 454.484 380.067 436.484C414.147 418.484 448.227 358.484 483.253 316.484C517.333 274.484 551.413 250.484 586.44 250.484C620.52 250.484 654.6 274.484 689.627 286.484C723.707 298.484 758.733 298.484 792.813 286.484C826.893 274.484 861.92 250.484 878.96 238.484L896 226.484" stroke="#DFDEED"/>
<path d="M-240 414.605L-222.96 390.605C-205.92 366.605 -170.893 318.605 -136.813 294.605C-102.733 270.605 -67.7067 270.605 -33.6267 300.605C1.40001 330.605 35.48 390.605 69.56 390.605C104.587 390.605 138.667 330.605 172.747 324.605C207.773 318.605 241.853 366.605 275.933 402.605C310.96 438.605 345.04 462.605 380.067 444.605C414.147 426.605 448.227 366.605 483.253 324.605C517.333 282.605 551.413 258.605 586.44 258.605C620.52 258.605 654.6 282.605 689.627 294.605C723.707 306.605 758.733 306.605 792.813 294.605C826.893 282.605 861.92 258.605 878.96 246.605L896 234.605" stroke="#DFDEED"/>
<path d="M-240 422.727L-222.96 398.727C-205.92 374.727 -170.893 326.727 -136.813 302.727C-102.733 278.727 -67.7067 278.727 -33.6267 308.727C1.40001 338.727 35.48 398.727 69.56 398.727C104.587 398.727 138.667 338.727 172.747 332.727C207.773 326.727 241.853 374.727 275.933 410.727C310.96 446.727 345.04 470.727 380.067 452.727C414.147 434.727 448.227 374.727 483.253 332.727C517.333 290.727 551.413 266.727 586.44 266.727C620.52 266.727 654.6 290.727 689.627 302.727C723.707 314.727 758.733 314.727 792.813 302.727C826.893 290.727 861.92 266.727 878.96 254.727L896 242.727" stroke="#DFDEED"/>
<path d="M-240 430.848L-222.96 406.848C-205.92 382.848 -170.893 334.848 -136.813 310.848C-102.733 286.848 -67.7067 286.848 -33.6267 316.848C1.40001 346.848 35.48 406.848 69.56 406.848C104.587 406.848 138.667 346.848 172.747 340.848C207.773 334.848 241.853 382.848 275.933 418.848C310.96 454.848 345.04 478.848 380.067 460.848C414.147 442.848 448.227 382.848 483.253 340.848C517.333 298.848 551.413 274.848 586.44 274.848C620.52 274.848 654.6 298.848 689.627 310.848C723.707 322.848 758.733 322.848 792.813 310.848C826.893 298.848 861.92 274.848 878.96 262.848L896 250.848" stroke="#DFDEED"/>
<path d="M-240 438.969L-222.96 414.969C-205.92 390.969 -170.893 342.969 -136.813 318.969C-102.733 294.969 -67.7067 294.969 -33.6267 324.969C1.40001 354.969 35.48 414.969 69.56 414.969C104.587 414.969 138.667 354.969 172.747 348.969C207.773 342.969 241.853 390.969 275.933 426.969C310.96 462.969 345.04 486.969 380.067 468.969C414.147 450.969 448.227 390.969 483.253 348.969C517.333 306.969 551.413 282.969 586.44 282.969C620.52 282.969 654.6 306.969 689.627 318.969C723.707 330.969 758.733 330.969 792.813 318.969C826.893 306.969 861.92 282.969 878.96 270.969L896 258.969" stroke="#DFDEED"/>
<path d="M-240 447.09L-222.96 423.09C-205.92 399.09 -170.893 351.09 -136.813 327.09C-102.733 303.09 -67.7067 303.09 -33.6267 333.09C1.40001 363.09 35.48 423.09 69.56 423.09C104.587 423.09 138.667 363.09 172.747 357.09C207.773 351.09 241.853 399.09 275.933 435.09C310.96 471.09 345.04 495.09 380.067 477.09C414.147 459.09 448.227 399.09 483.253 357.09C517.333 315.09 551.413 291.09 586.44 291.09C620.52 291.09 654.6 315.09 689.627 327.09C723.707 339.09 758.733 339.09 792.813 327.09C826.893 315.09 861.92 291.09 878.96 279.09L896 267.09" stroke="#DFDEED"/>
<path d="M-240 455.211L-222.96 431.211C-205.92 407.211 -170.893 359.211 -136.813 335.211C-102.733 311.211 -67.7067 311.211 -33.6267 341.211C1.40001 371.211 35.48 431.211 69.56 431.211C104.587 431.211 138.667 371.211 172.747 365.211C207.773 359.211 241.853 407.211 275.933 443.211C310.96 479.211 345.04 503.211 380.067 485.211C414.147 467.211 448.227 407.211 483.253 365.211C517.333 323.211 551.413 299.211 586.44 299.211C620.52 299.211 654.6 323.211 689.627 335.211C723.707 347.211 758.733 347.211 792.813 335.211C826.893 323.211 861.92 299.211 878.96 287.211L896 275.211" stroke="#DFDEED"/>
<path d="M-240 463.332L-222.96 439.332C-205.92 415.332 -170.893 367.332 -136.813 343.332C-102.733 319.332 -67.7067 319.332 -33.6267 349.332C1.40001 379.332 35.48 439.332 69.56 439.332C104.587 439.332 138.667 379.332 172.747 373.332C207.773 367.332 241.853 415.332 275.933 451.332C310.96 487.332 345.04 511.332 380.067 493.332C414.147 475.332 448.227 415.332 483.253 373.332C517.333 331.332 551.413 307.332 586.44 307.332C620.52 307.332 654.6 331.332 689.627 343.332C723.707 355.332 758.733 355.332 792.813 343.332C826.893 331.332 861.92 307.332 878.96 295.332L896 283.332" stroke="#DFDEED"/>
<path d="M-240 471.453L-222.96 447.453C-205.92 423.453 -170.893 375.453 -136.813 351.453C-102.733 327.453 -67.7067 327.453 -33.6267 357.453C1.40001 387.453 35.48 447.453 69.56 447.453C104.587 447.453 138.667 387.453 172.747 381.453C207.773 375.453 241.853 423.453 275.933 459.453C310.96 495.453 345.04 519.453 380.067 501.453C414.147 483.453 448.227 423.453 483.253 381.453C517.333 339.453 551.413 315.453 586.44 315.453C620.52 315.453 654.6 339.453 689.627 351.453C723.707 363.453 758.733 363.453 792.813 351.453C826.893 339.453 861.92 315.453 878.96 303.453L896 291.453" stroke="#DFDEED"/>
<path d="M-240 479.574L-222.96 455.574C-205.92 431.574 -170.893 383.574 -136.813 359.574C-102.733 335.574 -67.7067 335.574 -33.6267 365.574C1.40001 395.574 35.48 455.574 69.56 455.574C104.587 455.574 138.667 395.574 172.747 389.574C207.773 383.574 241.853 431.574 275.933 467.574C310.96 503.574 345.04 527.574 380.067 509.574C414.147 491.574 448.227 431.574 483.253 389.574C517.333 347.574 551.413 323.574 586.44 323.574C620.52 323.574 654.6 347.574 689.627 359.574C723.707 371.574 758.733 371.574 792.813 359.574C826.893 347.574 861.92 323.574 878.96 311.574L896 299.574" stroke="#DFDEED"/>
<path d="M-240 487.695L-222.96 463.695C-205.92 439.695 -170.893 391.695 -136.813 367.695C-102.733 343.695 -67.7067 343.695 -33.6267 373.695C1.40001 403.695 35.48 463.695 69.56 463.695C104.587 463.695 138.667 403.695 172.747 397.695C207.773 391.695 241.853 439.695 275.933 475.695C310.96 511.695 345.04 535.695 380.067 517.695C414.147 499.695 448.227 439.695 483.253 397.695C517.333 355.695 551.413 331.695 586.44 331.695C620.52 331.695 654.6 355.695 689.627 367.695C723.707 379.695 758.733 379.695 792.813 367.695C826.893 355.695 861.92 331.695 878.96 319.695L896 307.695" stroke="#DFDEED"/>
<path d="M-240 495.816L-222.96 471.816C-205.92 447.816 -170.893 399.816 -136.813 375.816C-102.733 351.816 -67.7067 351.816 -33.6267 381.816C1.40001 411.816 35.48 471.816 69.56 471.816C104.587 471.816 138.667 411.816 172.747 405.816C207.773 399.816 241.853 447.816 275.933 483.816C310.96 519.816 345.04 543.816 380.067 525.816C414.147 507.816 448.227 447.816 483.253 405.816C517.333 363.816 551.413 339.816 586.44 339.816C620.52 339.816 654.6 363.816 689.627 375.816C723.707 387.816 758.733 387.816 792.813 375.816C826.893 363.816 861.92 339.816 878.96 327.816L896 315.816" stroke="#DFDEED"/>
<path d="M-240 503.938L-222.96 479.938C-205.92 455.938 -170.893 407.938 -136.813 383.938C-102.733 359.938 -67.7067 359.938 -33.6267 389.938C1.40001 419.938 35.48 479.938 69.56 479.938C104.587 479.938 138.667 419.938 172.747 413.938C207.773 407.938 241.853 455.938 275.933 491.938C310.96 527.938 345.04 551.938 380.067 533.938C414.147 515.938 448.227 455.938 483.253 413.938C517.333 371.938 551.413 347.938 586.44 347.938C620.52 347.938 654.6 371.938 689.627 383.938C723.707 395.938 758.733 395.938 792.813 383.938C826.893 371.938 861.92 347.938 878.96 335.938L896 323.938" stroke="#DFDEED"/>
<path d="M-240 512.059L-222.96 488.059C-205.92 464.059 -170.893 416.059 -136.813 392.059C-102.733 368.059 -67.7067 368.059 -33.6267 398.059C1.40001 428.059 35.48 488.059 69.56 488.059C104.587 488.059 138.667 428.059 172.747 422.059C207.773 416.059 241.853 464.059 275.933 500.059C310.96 536.059 345.04 560.059 380.067 542.059C414.147 524.059 448.227 464.059 483.253 422.059C517.333 380.059 551.413 356.059 586.44 356.059C620.52 356.059 654.6 380.059 689.627 392.059C723.707 404.059 758.733 404.059 792.813 392.059C826.893 380.059 861.92 356.059 878.96 344.059L896 332.059" stroke="#DFDEED"/>
<path d="M-240 520.18L-222.96 496.18C-205.92 472.18 -170.893 424.18 -136.813 400.18C-102.733 376.18 -67.7067 376.18 -33.6267 406.18C1.40001 436.18 35.48 496.18 69.56 496.18C104.587 496.18 138.667 436.18 172.747 430.18C207.773 424.18 241.853 472.18 275.933 508.18C310.96 544.18 345.04 568.18 380.067 550.18C414.147 532.18 448.227 472.18 483.253 430.18C517.333 388.18 551.413 364.18 586.44 364.18C620.52 364.18 654.6 388.18 689.627 400.18C723.707 412.18 758.733 412.18 792.813 400.18C826.893 388.18 861.92 364.18 878.96 352.18L896 340.18" stroke="#DFDEED"/>
<path d="M-240 528.301L-222.96 504.301C-205.92 480.301 -170.893 432.301 -136.813 408.301C-102.733 384.301 -67.7067 384.301 -33.6267 414.301C1.40001 444.301 35.48 504.301 69.56 504.301C104.587 504.301 138.667 444.301 172.747 438.301C207.773 432.301 241.853 480.301 275.933 516.301C310.96 552.301 345.04 576.301 380.067 558.301C414.147 540.301 448.227 480.301 483.253 438.301C517.333 396.301 551.413 372.301 586.44 372.301C620.52 372.301 654.6 396.301 689.627 408.301C723.707 420.301 758.733 420.301 792.813 408.301C826.893 396.301 861.92 372.301 878.96 360.301L896 348.301" stroke="#DFDEED"/>
<path d="M-240 536.422L-222.96 512.422C-205.92 488.422 -170.893 440.422 -136.813 416.422C-102.733 392.422 -67.7067 392.422 -33.6267 422.422C1.40001 452.422 35.48 512.422 69.56 512.422C104.587 512.422 138.667 452.422 172.747 446.422C207.773 440.422 241.853 488.422 275.933 524.422C310.96 560.422 345.04 584.422 380.067 566.422C414.147 548.422 448.227 488.422 483.253 446.422C517.333 404.422 551.413 380.422 586.44 380.422C620.52 380.422 654.6 404.422 689.627 416.422C723.707 428.422 758.733 428.422 792.813 416.422C826.893 404.422 861.92 380.422 878.96 368.422L896 356.422" stroke="#DFDEED"/>
<circle cx="63.5" cy="177.5" r="12.5" fill="#DFDEED"/>
<circle cx="600.5" cy="124.5" r="15.5" fill="#DFDEED"/>
<circle cx="285" cy="236" r="13" fill="#DFDEED"/>
<circle cx="177" cy="504" r="13" fill="#DFDEED"/>
<circle cx="567" cy="503" r="13" fill="#DFDEED"/>
<circle cx="358.5" cy="371.5" r="6.5" fill="#DFDEED"/>
<circle cx="528.5" cy="146.5" r="6.5" fill="#DFDEED"/>
<circle cx="177" cy="153" r="5" fill="#DFDEED"/>
<circle cx="437.5" cy="566.5" r="6.5" fill="#DFDEED"/>
<circle cx="80.5" cy="642.5" r="6.5" fill="#DFDEED"/>
</g>
<defs>
<clipPath id="clip0_7411_82971">
<rect width="856" height="712" fill="white"/>
</clipPath>
</defs>
</svg>
