<svg width="20" height="20" viewBox="0 0 20 20" fill="none" xmlns="http://www.w3.org/2000/svg">
<g clip-path="url(#clip0_7629_3427)">
<mask id="mask0_7629_3427" style="mask-type:luminance" maskUnits="userSpaceOnUse" x="0" y="0" width="20" height="20">
<path d="M0 0H20V20H0V0Z" fill="white"/>
</mask>
<g mask="url(#mask0_7629_3427)">
<path d="M15 11.6668L16.6667 10.0002M16.6667 10.0002L18.3333 8.3335M16.6667 10.0002L15 8.3335M16.6667 10.0002L18.3333 11.6668" stroke="#F32929" stroke-width="1.25" stroke-linecap="round" stroke-linejoin="round"/>
<path d="M1.66675 11.5476V8.45255C1.66675 8.01052 1.84234 7.5866 2.1549 7.27404C2.46746 6.96148 2.89139 6.78588 3.33341 6.78588H5.75008C5.91302 6.78584 6.07236 6.73804 6.20841 6.64839L11.2084 3.35172C11.334 3.26899 11.4797 3.2218 11.63 3.21517C11.7803 3.20853 11.9295 3.2427 12.062 3.31404C12.1944 3.38538 12.3051 3.49124 12.3822 3.62038C12.4593 3.74952 12.5001 3.89713 12.5001 4.04755V15.9526C12.5001 16.103 12.4593 16.2506 12.3822 16.3797C12.3051 16.5089 12.1944 16.6147 12.062 16.6861C11.9295 16.7574 11.7803 16.7916 11.63 16.7849C11.4797 16.7783 11.334 16.7311 11.2084 16.6484L6.20841 13.3517C6.07236 13.2621 5.91302 13.2143 5.75008 13.2142H3.33341C2.89139 13.2142 2.46746 13.0386 2.1549 12.7261C1.84234 12.4135 1.66675 11.9896 1.66675 11.5476Z" stroke="#575775" stroke-width="1.25"/>
</g>
</g>
<defs>
<clipPath id="clip0_7629_3427">
<rect width="20" height="20" fill="white"/>
</clipPath>
</defs>
</svg>
