<svg width="20" height="20" viewBox="0 0 20 20" fill="none" xmlns="http://www.w3.org/2000/svg">
<g id="icon / edit">
<g id="Vector">
<path fill-rule="evenodd" clip-rule="evenodd" d="M1.875 17.5C1.875 17.1549 2.15482 16.875 2.5 16.875H17.5C17.8452 16.875 18.125 17.1549 18.125 17.5C18.125 17.8452 17.8452 18.125 17.5 18.125H2.5C2.15482 18.125 1.875 17.8452 1.875 17.5Z" fill="#575775"/>
<path fill-rule="evenodd" clip-rule="evenodd" d="M12.1 2.05805C12.3441 1.81398 12.7398 1.81398 12.9839 2.05806L17.1086 6.18285C17.3527 6.42693 17.3527 6.82266 17.1086 7.06673L10.0794 14.0959C9.80588 14.3695 9.43499 14.523 9.04825 14.523H5.26861C4.92343 14.523 4.64361 14.2432 4.64361 13.898V10.1185C4.64361 9.73174 4.79722 9.36075 5.07074 9.08726V9.08726L9.74289 4.41508V4.41508M9.74289 4.41508L12.1 2.05805ZM12.5419 3.38388L11.0687 4.85703L14.3097 8.09791L15.7828 6.62479L12.5419 3.38388ZM13.4258 8.98179L10.1848 5.74091L5.95463 9.97114C5.91562 10.0101 5.89361 10.0632 5.89361 10.1185V13.273H9.04825C9.10351 13.273 9.15645 13.2511 9.19556 13.212L13.4258 8.98179Z" fill="#575775"/>
</g>
</g>
</svg>
