<svg width="20" height="20" viewBox="0 0 20 20" fill="none" xmlns="http://www.w3.org/2000/svg">
<path d="M0.833496 11.5476V8.45255C0.833496 8.01052 1.00909 7.5866 1.32165 7.27404C1.63421 6.96148 2.05814 6.78588 2.50016 6.78588H4.91683C5.07976 6.78584 5.23911 6.73804 5.37516 6.64839L10.3752 3.35172C10.5008 3.26899 10.6465 3.2218 10.7967 3.21517C10.947 3.20853 11.0963 3.2427 11.2287 3.31404C11.3611 3.38538 11.4718 3.49124 11.5489 3.62038C11.6261 3.74952 11.6668 3.89713 11.6668 4.04755V15.9526C11.6668 16.103 11.6261 16.2506 11.5489 16.3797C11.4718 16.5089 11.3611 16.6147 11.2287 16.6861C11.0963 16.7574 10.947 16.7916 10.7967 16.7849C10.6465 16.7783 10.5008 16.7311 10.3752 16.6484L5.37516 13.3517C5.23911 13.2621 5.07976 13.2143 4.91683 13.2142H2.50016C2.05814 13.2142 1.63421 13.0386 1.32165 12.7261C1.00909 12.4135 0.833496 11.9896 0.833496 11.5476Z" stroke="#575775" stroke-width="1.25"/>
<path d="M14.5835 6.25C14.5835 6.25 15.8335 7.5 15.8335 9.58333C15.8335 11.6667 14.5835 12.9167 14.5835 12.9167M17.0835 3.75C17.0835 3.75 19.1668 5.83333 19.1668 9.58333C19.1668 13.3333 17.0835 15.4167 17.0835 15.4167" stroke="#148783" stroke-width="1.25" stroke-linecap="round" stroke-linejoin="round"/>
</svg>
