<svg width="25" height="24" viewBox="0 0 25 24" fill="none" xmlns="http://www.w3.org/2000/svg">
<g id="icon / photo / add" clip-path="url(#clip0_7427_11341)">
<g id="Vector">
<path d="M18.5 2.25C18.9142 2.25 19.25 2.58579 19.25 3V5.25H21.5C21.9142 5.25 22.25 5.58579 22.25 6C22.25 6.41421 21.9142 6.75 21.5 6.75H19.25V9C19.25 9.41421 18.9142 9.75 18.5 9.75C18.0858 9.75 17.75 9.41421 17.75 9V6.75H15.5C15.0858 6.75 14.75 6.41421 14.75 6C14.75 5.58579 15.0858 5.25 15.5 5.25H17.75V3C17.75 2.58579 18.0858 2.25 18.5 2.25Z" fill="#148783"/>
<path fill-rule="evenodd" clip-rule="evenodd" d="M12.5 10.75C11.2574 10.75 10.25 11.7574 10.25 13C10.25 14.2426 11.2574 15.25 12.5 15.25C13.7426 15.25 14.75 14.2426 14.75 13C14.75 11.7574 13.7426 10.75 12.5 10.75ZM8.75 13C8.75 10.9289 10.4289 9.25 12.5 9.25C14.5711 9.25 16.25 10.9289 16.25 13C16.25 15.0711 14.5711 16.75 12.5 16.75C10.4289 16.75 8.75 15.0711 8.75 13Z" fill="#148783"/>
<path fill-rule="evenodd" clip-rule="evenodd" d="M8.25 4.00003C8.25 3.58582 8.58579 3.25003 9 3.25003H12.5C12.9142 3.25003 13.25 3.58582 13.25 4.00003C13.25 4.41424 12.9142 4.75003 12.5 4.75003H9.74888C9.74686 5.15074 9.74121 5.49158 9.72541 5.77601C9.70181 6.20078 9.65271 6.62166 9.48332 6.96044C9.38904 7.149 9.25552 7.31836 9.07201 7.45048C8.89356 7.57895 8.70311 7.64679 8.52987 7.68529C8.23633 7.75051 7.88085 7.75026 7.55628 7.75003C7.53741 7.75001 7.51864 7.75 7.5 7.75H5.5C5.16848 7.75 4.85054 7.8817 4.61612 8.11612C4.3817 8.35054 4.25 8.66848 4.25 9V18C4.25 18.3315 4.3817 18.6495 4.61612 18.8839C4.85054 19.1183 5.16848 19.25 5.5 19.25H19.5C19.8315 19.25 20.1495 19.1183 20.3839 18.8839C20.6183 18.6495 20.75 18.3315 20.75 18V11C20.75 10.5858 21.0858 10.25 21.5 10.25C21.9142 10.25 22.25 10.5858 22.25 11V18C22.25 18.7293 21.9603 19.4288 21.4445 19.9445C20.9288 20.4603 20.2293 20.75 19.5 20.75H5.5C4.77065 20.75 4.07118 20.4603 3.55546 19.9445C3.03973 19.4288 2.75 18.7293 2.75 18V9C2.75 8.27065 3.03973 7.57118 3.55546 7.05546C4.07118 6.53973 4.77065 6.25 5.5 6.25H7.5C7.86296 6.25001 8.04772 6.24666 8.16257 6.22882C8.18354 6.14992 8.21109 5.99216 8.22772 5.6928C8.24972 5.29677 8.25 4.75925 8.25 4.00003Z" fill="#148783"/>
</g>
</g>
<defs>
<clipPath id="clip0_7427_11341">
<rect width="24" height="24" fill="white" transform="translate(0.5)"/>
</clipPath>
</defs>
</svg>
