<svg width="20" height="20" viewBox="0 0 20 20" fill="none" xmlns="http://www.w3.org/2000/svg">
<g id="icon / link">
<path id="Vector (Stroke)" fill-rule="evenodd" clip-rule="evenodd" d="M13.4224 5.83301C13.4224 5.48783 13.7022 5.20801 14.0474 5.20801C14.4203 5.20801 14.7841 5.24864 15.1344 5.32587C17.3115 5.80592 18.9582 7.70442 18.9582 9.99768C18.9582 12.6597 16.7426 14.7873 14.0474 14.7873H12.6189C9.9154 14.7873 7.70817 12.4158 7.70817 9.99768C7.70817 9.6525 7.98799 9.37268 8.33317 9.37268C8.67835 9.37268 8.95817 9.6525 8.95817 9.99768C8.95817 11.7324 10.6126 13.5373 12.6189 13.5373H14.0474C16.0862 13.5373 17.7082 11.9358 17.7082 9.99768C17.7082 8.32694 16.5053 6.90817 14.8653 6.54655C14.6029 6.48869 14.3292 6.45801 14.0474 6.45801C13.7022 6.45801 13.4224 6.17819 13.4224 5.83301ZM7.38079 5.20802C10.0843 5.20802 12.2915 7.57953 12.2915 9.99768C12.2915 10.3429 12.0117 10.6227 11.6665 10.6227C11.3213 10.6227 11.0415 10.3429 11.0415 9.99768C11.0415 8.263 9.38706 6.45802 7.38079 6.45802L5.95222 6.45802C3.91346 6.45802 2.2915 8.05955 2.2915 9.99768C2.2915 11.6684 3.49441 13.0872 5.13442 13.4488C5.39661 13.5067 5.67029 13.5373 5.95222 13.5373C6.2974 13.5373 6.57722 13.8172 6.57722 14.1623C6.57722 14.5075 6.2974 14.7873 5.95222 14.7873C5.57951 14.7873 5.21564 14.7468 4.86526 14.6695C2.68815 14.1895 1.0415 12.2909 1.0415 9.99768C1.0415 7.33568 3.25711 5.20802 5.95222 5.20802L7.38079 5.20802Z" fill="#575775"/>
</g>
</svg>
