<svg width="20" height="20" viewBox="0 0 20 20" fill="none" xmlns="http://www.w3.org/2000/svg">
<g id="icon/exit">
<path id="Vector (Stroke)" fill-rule="evenodd" clip-rule="evenodd" d="M4.11847 2.45197C4.57324 1.99719 5.19005 1.7417 5.8332 1.7417H14.1665C14.8097 1.7417 15.4265 1.99719 15.8813 2.45197C16.336 2.90674 16.5915 3.52355 16.5915 4.1667V5.00003C16.5915 5.41885 16.252 5.75837 15.8332 5.75837C15.4144 5.75837 15.0749 5.41885 15.0749 5.00003V4.1667C15.0749 3.92579 14.9792 3.69476 14.8088 3.52441C14.6385 3.35406 14.4074 3.25837 14.1665 3.25837H5.8332C5.5923 3.25837 5.36126 3.35407 5.19091 3.52441C5.02057 3.69476 4.92487 3.92579 4.92487 4.1667V15.8334C4.92487 16.0743 5.02057 16.3053 5.19091 16.4757C5.36126 16.646 5.5923 16.7417 5.8332 16.7417H14.1665C14.4074 16.7417 14.6385 16.646 14.8088 16.4757C14.9792 16.3053 15.0749 16.0743 15.0749 15.8334V15C15.0749 14.5812 15.4144 14.2417 15.8332 14.2417C16.252 14.2417 16.5915 14.5812 16.5915 15V15.8334C16.5915 16.4765 16.336 17.0933 15.8813 17.5481C15.4265 18.0029 14.8097 18.2584 14.1665 18.2584H5.8332C5.19005 18.2584 4.57324 18.0029 4.11847 17.5481C3.66369 17.0933 3.4082 16.4765 3.4082 15.8334V4.1667C3.4082 3.52355 3.66369 2.90674 4.11847 2.45197ZM12.797 6.96381C13.0931 6.66766 13.5733 6.66766 13.8694 6.96381L16.3693 9.46371C16.3694 9.46374 16.3694 9.46378 16.3694 9.46381C16.4421 9.53652 16.497 9.62031 16.534 9.70976C16.5711 9.79917 16.5915 9.89721 16.5915 10C16.5915 10.1029 16.5711 10.2009 16.534 10.2903C16.497 10.3798 16.4421 10.4635 16.3694 10.5363L13.8694 13.0363C13.5733 13.3324 13.0931 13.3324 12.797 13.0363C12.5008 12.7401 12.5008 12.26 12.797 11.9638L14.0024 10.7584H9.99987C9.58105 10.7584 9.24154 10.4188 9.24154 10C9.24154 9.58122 9.58105 9.2417 9.99987 9.2417H14.0024L12.797 8.03626C12.5008 7.74011 12.5008 7.25996 12.797 6.96381ZM16.1235 9.29924C16.0341 9.26216 15.936 9.2417 15.8332 9.2417L16.1235 9.29924Z" fill="#F32929"/>
</g>
</svg>
