<svg width="24" height="24" viewBox="0 0 24 24" fill="none" xmlns="http://www.w3.org/2000/svg">
<g id="icon / more">
<g id="Vector">
<path fill-rule="evenodd" clip-rule="evenodd" d="M16.75 12C16.75 11.3097 17.3097 10.75 18 10.75C18.6903 10.75 19.25 11.3097 19.25 12C19.25 12.6903 18.6903 13.25 18 13.25C17.3097 13.25 16.75 12.6903 16.75 12Z" fill="#575775"/>
<path fill-rule="evenodd" clip-rule="evenodd" d="M10.75 12C10.75 11.3097 11.3097 10.75 12 10.75C12.6903 10.75 13.25 11.3097 13.25 12C13.25 12.6903 12.6903 13.25 12 13.25C11.3097 13.25 10.75 12.6903 10.75 12Z" fill="#575775"/>
<path fill-rule="evenodd" clip-rule="evenodd" d="M6 10.75C5.30961 10.75 4.75 11.3097 4.75 12C4.75 12.6903 5.30961 13.25 6 13.25C6.69039 13.25 7.25 12.6903 7.25 12C7.25 11.3097 6.69039 10.75 6 10.75Z" fill="#575775"/>
</g>
</g>
</svg>
