<svg width="24" height="24" viewBox="0 0 24 24" fill="none" xmlns="http://www.w3.org/2000/svg">
<path d="M12 12.5C12.1326 12.5 12.2598 12.4473 12.3536 12.3536C12.4473 12.2598 12.5 12.1326 12.5 12C12.5 11.8674 12.4473 11.7402 12.3536 11.6464C12.2598 11.5527 12.1326 11.5 12 11.5C11.8674 11.5 11.7402 11.5527 11.6464 11.6464C11.5527 11.7402 11.5 11.8674 11.5 12C11.5 12.1326 11.5527 12.2598 11.6464 12.3536C11.7402 12.4473 11.8674 12.5 12 12.5ZM12 18.5C12.1326 18.5 12.2598 18.4473 12.3536 18.3536C12.4473 18.2598 12.5 18.1326 12.5 18C12.5 17.8674 12.4473 17.7402 12.3536 17.6464C12.2598 17.5527 12.1326 17.5 12 17.5C11.8674 17.5 11.7402 17.5527 11.6464 17.6464C11.5527 17.7402 11.5 17.8674 11.5 18C11.5 18.1326 11.5527 18.2598 11.6464 18.3536C11.7402 18.4473 11.8674 18.5 12 18.5ZM12 6.5C12.1326 6.5 12.2598 6.44732 12.3536 6.35355C12.4473 6.25979 12.5 6.13261 12.5 6C12.5 5.86739 12.4473 5.74021 12.3536 5.64645C12.2598 5.55268 12.1326 5.5 12 5.5C11.8674 5.5 11.7402 5.55268 11.6464 5.64645C11.5527 5.74021 11.5 5.86739 11.5 6C11.5 6.13261 11.5527 6.25979 11.6464 6.35355C11.7402 6.44732 11.8674 6.5 12 6.5Z" fill="#575775"/>
<path fill-rule="evenodd" clip-rule="evenodd" d="M11.1161 5.11612C11.3505 4.8817 11.6685 4.75 12 4.75C12.3315 4.75 12.6495 4.8817 12.8839 5.11612C13.1183 5.35054 13.25 5.66848 13.25 6C13.25 6.33152 13.1183 6.64946 12.8839 6.88388C12.6495 7.1183 12.3315 7.25 12 7.25C11.6685 7.25 11.3505 7.1183 11.1161 6.88388C10.8817 6.64946 10.75 6.33152 10.75 6C10.75 5.66848 10.8817 5.35054 11.1161 5.11612ZM12 6.25C12.0663 6.25 12.1299 6.22366 12.1768 6.17678C12.2237 6.12989 12.25 6.0663 12.25 6C12.25 5.9337 12.2237 5.87011 12.1768 5.82322C12.1299 5.77634 12.0663 5.75 12 5.75C11.9337 5.75 11.8701 5.77634 11.8232 5.82322C11.7763 5.87011 11.75 5.9337 11.75 6C11.75 6.0663 11.7763 6.12989 11.8232 6.17678C11.8701 6.22366 11.9337 6.25 12 6.25ZM11.1161 11.1161C11.3505 10.8817 11.6685 10.75 12 10.75C12.3315 10.75 12.6495 10.8817 12.8839 11.1161C13.1183 11.3505 13.25 11.6685 13.25 12C13.25 12.3315 13.1183 12.6495 12.8839 12.8839C12.6495 13.1183 12.3315 13.25 12 13.25C11.6685 13.25 11.3505 13.1183 11.1161 12.8839C10.8817 12.6495 10.75 12.3315 10.75 12C10.75 11.6685 10.8817 11.3505 11.1161 11.1161ZM12 12.25C12.0663 12.25 12.1299 12.2237 12.1768 12.1768C12.2237 12.1299 12.25 12.0663 12.25 12C12.25 11.9337 12.2237 11.8701 12.1768 11.8232C12.1299 11.7763 12.0663 11.75 12 11.75C11.9337 11.75 11.8701 11.7763 11.8232 11.8232C11.7763 11.8701 11.75 11.9337 11.75 12C11.75 12.0663 11.7763 12.1299 11.8232 12.1768C11.8701 12.2237 11.9337 12.25 12 12.25ZM11.1161 17.1161C11.3505 16.8817 11.6685 16.75 12 16.75C12.3315 16.75 12.6495 16.8817 12.8839 17.1161C13.1183 17.3505 13.25 17.6685 13.25 18C13.25 18.3315 13.1183 18.6495 12.8839 18.8839C12.6495 19.1183 12.3315 19.25 12 19.25C11.6685 19.25 11.3505 19.1183 11.1161 18.8839C10.8817 18.6495 10.75 18.3315 10.75 18C10.75 17.6685 10.8817 17.3505 11.1161 17.1161ZM12 18.25C12.0663 18.25 12.1299 18.2237 12.1768 18.1768C12.2237 18.1299 12.25 18.0663 12.25 18C12.25 17.9337 12.2237 17.8701 12.1768 17.8232C12.1299 17.7763 12.0663 17.75 12 17.75C11.9337 17.75 11.8701 17.7763 11.8232 17.8232C11.7763 17.8701 11.75 17.9337 11.75 18C11.75 18.0663 11.7763 18.1299 11.8232 18.1768C11.8701 18.2237 11.9337 18.25 12 18.25Z" fill="#575775"/>
</svg>
