<svg width="28" height="28" viewBox="0 0 28 28" fill="none" xmlns="http://www.w3.org/2000/svg">
<g id="icon / more">
<g id="Vector">
<path fill-rule="evenodd" clip-rule="evenodd" d="M19.5415 13.9998C19.5415 13.1945 20.1945 12.5415 20.9998 12.5415C21.8052 12.5415 22.4582 13.1945 22.4582 13.9998C22.4582 14.8052 21.8052 15.4582 20.9998 15.4582C20.1945 15.4582 19.5415 14.8052 19.5415 13.9998Z" fill="#575775"/>
<path fill-rule="evenodd" clip-rule="evenodd" d="M12.5415 13.9998C12.5415 13.1945 13.1945 12.5415 13.9998 12.5415C14.8052 12.5415 15.4582 13.1945 15.4582 13.9998C15.4582 14.8052 14.8052 15.4582 13.9998 15.4582C13.1945 15.4582 12.5415 14.8052 12.5415 13.9998Z" fill="#575775"/>
<path fill-rule="evenodd" clip-rule="evenodd" d="M6.99984 12.5415C6.19438 12.5415 5.5415 13.1945 5.5415 13.9998C5.5415 14.8052 6.19438 15.4582 6.99984 15.4582C7.8053 15.4582 8.45817 14.8052 8.45817 13.9998C8.45817 13.1945 7.8053 12.5415 6.99984 12.5415Z" fill="#575775"/>
</g>
</g>
</svg>
