<svg width="24" height="24" viewBox="0 0 24 24" fill="none" xmlns="http://www.w3.org/2000/svg">
<path fill-rule="evenodd" clip-rule="evenodd" d="M16.5303 6.46967C16.8232 6.76256 16.8232 7.23744 16.5303 7.53033L12.5303 11.5303C12.2374 11.8232 11.7626 11.8232 11.4697 11.5303C11.1768 11.2374 11.1768 10.7626 11.4697 10.4697L15.4697 6.46967C15.7626 6.17678 16.2374 6.17678 16.5303 6.46967ZM22.5303 6.46967C22.8232 6.76256 22.8232 7.23744 22.5303 7.53033L12.9546 17.106C12.4273 17.6333 11.5727 17.6333 11.0454 17.106L9 15.0607L6.95469 17.1059C6.95466 17.106 6.95462 17.106 6.95459 17.106C6.42735 17.6334 5.5725 17.6333 5.04531 17.1059L0.969672 13.0303C0.676778 12.7374 0.676776 12.2626 0.969667 11.9697C1.26256 11.6768 1.73743 11.6768 2.03033 11.9697L6 15.9393L7.93934 14L6.46967 12.5303C6.17678 12.2374 6.17678 11.7626 6.46967 11.4697C6.76256 11.1768 7.23744 11.1768 7.53033 11.4697L9.52966 13.469C9.52988 13.4692 9.53011 13.4694 9.53033 13.4697C9.53056 13.4699 9.53078 13.4701 9.531 13.4703L12 15.9393L21.4697 6.46967C21.7626 6.17678 22.2374 6.17678 22.5303 6.46967ZM6.10592 16.0452L6.10607 16.0454L6.10617 16.0455C6.10609 16.0454 6.10601 16.0453 6.10592 16.0452Z" fill="#262541"/>
</svg>
