<svg width="20" height="20" viewBox="0 0 20 20" fill="none" xmlns="http://www.w3.org/2000/svg">
<g id="icon / lock">
<g id="Vector">
<path fill-rule="evenodd" clip-rule="evenodd" d="M6.82612 4.21831C7.442 3.36293 8.46297 2.7085 10 2.7085C11.537 2.7085 12.558 3.36293 13.1739 4.21831C13.7668 5.04182 13.9583 6.01126 13.9583 6.66683V9.37516H14.5C15.1213 9.37516 15.625 9.87882 15.625 10.5002V16.1668C15.625 16.7882 15.1213 17.2918 14.5 17.2918H5.5C4.8787 17.2918 4.375 16.7882 4.375 16.1668V10.5002C4.375 9.8788 4.8787 9.37516 5.5 9.37516H6.04167V6.66683C6.04167 6.01126 6.2332 5.04182 6.82612 4.21831ZM7.29167 9.37516H12.7083V6.66683C12.7083 6.21129 12.5665 5.51407 12.1595 4.94869C11.7753 4.41518 11.1296 3.9585 10 3.9585C8.87037 3.9585 8.22467 4.41518 7.84054 4.94869C7.43347 5.51407 7.29167 6.21129 7.29167 6.66683V9.37516ZM5.625 10.6252V16.0418H14.375V10.6252H5.625Z" fill="white"/>
</g>
</g>
</svg>
