<svg width="16" height="16" viewBox="0 0 16 16" fill="none" xmlns="http://www.w3.org/2000/svg">
<path fill-rule="evenodd" clip-rule="evenodd" d="M1.5 14C1.5 13.7239 1.72386 13.5 2 13.5H14C14.2761 13.5 14.5 13.7239 14.5 14C14.5 14.2762 14.2761 14.5 14 14.5H2C1.72386 14.5 1.5 14.2762 1.5 14Z" fill="#148783"/>
<path fill-rule="evenodd" clip-rule="evenodd" d="M9.67998 1.64644C9.87525 1.45118 10.1918 1.45119 10.3871 1.64645L13.6869 4.94628C13.8821 5.14154 13.8821 5.45813 13.6869 5.65339L8.06355 11.2767C7.84471 11.4956 7.54799 11.6184 7.2386 11.6184H4.21489C3.93874 11.6184 3.71489 11.3946 3.71489 11.1184V8.09476C3.71489 7.78539 3.83778 7.4886 4.05659 7.26981L7.79431 3.53207M7.79431 3.53207L9.67998 1.64644L7.79431 3.53207ZM10.0335 2.7071L8.85498 3.88562L11.4477 6.47832L12.6262 5.29983L10.0335 2.7071ZM10.7406 7.18543L8.14787 4.59272L4.7637 7.97691C4.73249 8.00811 4.71489 8.05054 4.71489 8.09476V10.6184H7.2386C7.28281 10.6184 7.32516 10.6009 7.35645 10.5696L10.7406 7.18543Z" fill="#148783"/>
</svg>
