<svg width="40" height="40" viewBox="0 0 40 40" fill="none" xmlns="http://www.w3.org/2000/svg">
<rect width="40" height="40" rx="20" fill="#A0D0CE"/>
<path fill-rule="evenodd" clip-rule="evenodd" d="M16.1913 13.0618C16.9304 12.0353 18.1556 11.25 20 11.25C21.8444 11.25 23.0696 12.0353 23.8087 13.0618C24.5202 14.05 24.75 15.2133 24.75 16V19.25H25.4C26.1456 19.25 26.75 19.8544 26.75 20.6V27.4C26.75 28.1456 26.1456 28.75 25.4 28.75H14.6C13.8544 28.75 13.25 28.1456 13.25 27.4V20.6C13.25 19.8544 13.8544 19.25 14.6 19.25H15.25V16C15.25 15.2133 15.4798 14.05 16.1913 13.0618ZM16.75 19.25H23.25V16C23.25 15.4534 23.0798 14.6167 22.5913 13.9382C22.1304 13.298 21.3556 12.75 20 12.75C18.6444 12.75 17.8696 13.298 17.4087 13.9382C16.9202 14.6167 16.75 15.4534 16.75 16V19.25ZM14.75 20.75V27.25H25.25V20.75H14.75Z" fill="white"/>
</svg>
