<svg width="24" height="24" viewBox="0 0 24 24" fill="none" xmlns="http://www.w3.org/2000/svg">
<path fill-rule="evenodd" clip-rule="evenodd" d="M12 2.75C10.7574 2.75 9.75 3.75736 9.75 5V11C9.75 12.2426 10.7574 13.25 12 13.25C13.2426 13.25 14.25 12.2426 14.25 11V5C14.25 3.75736 13.2426 2.75 12 2.75ZM8.25 5C8.25 2.92893 9.92893 1.25 12 1.25C14.0711 1.25 15.75 2.92893 15.75 5V11C15.75 13.0711 14.0711 14.75 12 14.75C9.92893 14.75 8.25 13.0711 8.25 11V5Z" fill="#575775"/>
<path fill-rule="evenodd" clip-rule="evenodd" d="M5 9.25C5.41421 9.25 5.75 9.58579 5.75 10V11C5.75 12.6576 6.40848 14.2473 7.58058 15.4194C8.75268 16.5915 10.3424 17.25 12 17.25C13.6576 17.25 15.2473 16.5915 16.4194 15.4194C17.5915 14.2473 18.25 12.6576 18.25 11V10C18.25 9.58579 18.5858 9.25 19 9.25C19.4142 9.25 19.75 9.58579 19.75 10V11C19.75 13.0554 18.9335 15.0267 17.4801 16.4801C16.2045 17.7556 14.5301 18.5406 12.75 18.7136V21.25H15C15.4142 21.25 15.75 21.5858 15.75 22C15.75 22.4142 15.4142 22.75 15 22.75H9C8.58579 22.75 8.25 22.4142 8.25 22C8.25 21.5858 8.58579 21.25 9 21.25H11.25V18.7136C9.46988 18.5406 7.79547 17.7556 6.51992 16.4801C5.06652 15.0267 4.25 13.0554 4.25 11V10C4.25 9.58579 4.58579 9.25 5 9.25Z" fill="#575775"/>
</svg>
