<svg width="292" height="96" viewBox="0 0 292 96" fill="none" xmlns="http://www.w3.org/2000/svg">
<path d="M200 60.5C200 59.6716 200.362 59 200.808 59H206.192C206.638 59 207 59.6716 207 60.5C207 61.3284 206.638 62 206.192 62H200.808C200.362 62 200 61.3284 200 60.5Z" fill="#575775"/>
<path d="M191 40.5C191 39.6716 191.362 39 191.808 39H197.192C197.638 39 198 39.6716 198 40.5C198 41.3284 197.638 42 197.192 42H191.808C191.362 42 191 41.3284 191 40.5Z" fill="#575775"/>
<path d="M184 76.5C184 75.6716 184.672 75 185.5 75H195.5C196.328 75 197 75.6716 197 76.5C197 77.3284 196.328 78 195.5 78H185.5C184.672 78 184 77.3284 184 76.5Z" fill="#575775"/>
<path d="M83 53.5C83 52.6716 83.3616 52 83.8077 52H89.1923C89.6384 52 90 52.6716 90 53.5C90 54.3284 89.6384 55 89.1923 55H83.8077C83.3616 55 83 54.3284 83 53.5Z" fill="#575775"/>
<path d="M97 73.5C97 72.6716 97.3616 72 97.8077 72H103.192C103.638 72 104 72.6716 104 73.5C104 74.3284 103.638 75 103.192 75H97.8077C97.3616 75 97 74.3284 97 73.5Z" fill="#575775"/>
<path d="M91 37.5C91 36.6716 91.6716 36 92.5 36H102.5C103.328 36 104 36.6716 104 37.5C104 38.3284 103.328 39 102.5 39H92.5C91.6716 39 91 38.3284 91 37.5Z" fill="#575775"/>
<rect x="116.5" y="24.5" width="59" height="59" rx="7.5" fill="#FAFAFF"/>
<path d="M154.25 49.4996C154.051 49.4996 153.86 49.4206 153.72 49.2799C153.579 49.1393 153.5 48.9485 153.5 48.7496C153.5 48.5507 153.579 48.3599 153.72 48.2193C153.86 48.0786 154.051 47.9996 154.25 47.9996C154.449 47.9996 154.64 48.0786 154.78 48.2193C154.921 48.3599 155 48.5507 155 48.7496C155 48.9485 154.921 49.1393 154.78 49.2799C154.64 49.4206 154.449 49.4996 154.25 49.4996ZM143.75 49.4996C143.551 49.4996 143.36 49.4206 143.22 49.2799C143.079 49.1393 143 48.9485 143 48.7496C143 48.5507 143.079 48.3599 143.22 48.2193C143.36 48.0786 143.551 47.9996 143.75 47.9996C143.949 47.9996 144.14 48.0786 144.28 48.2193C144.421 48.3599 144.5 48.5507 144.5 48.7496C144.5 48.9485 144.421 49.1393 144.28 49.2799C144.14 49.4206 143.949 49.4996 143.75 49.4996Z" fill="#262541"/>
<path fill-rule="evenodd" clip-rule="evenodd" d="M134.198 40.5047C133.884 40.7934 133.625 41.2597 133.625 41.9996C133.625 42.6209 133.121 43.1246 132.5 43.1246C131.879 43.1246 131.375 42.6209 131.375 41.9996C131.375 40.674 131.866 39.5912 132.677 38.8472C133.469 38.1197 134.5 37.7764 135.5 37.7764C136.5 37.7764 137.531 38.1197 138.323 38.8472C139.134 39.5912 139.625 40.674 139.625 41.9996C139.625 42.9525 139.376 43.6923 138.969 44.3057C138.632 44.8145 138.194 45.2128 137.865 45.512C137.829 45.5449 137.794 45.5766 137.761 45.6072C137.393 45.9451 137.135 46.2059 136.948 46.5369C136.773 46.8473 136.625 47.2858 136.625 47.9996C136.625 48.6209 136.121 49.1246 135.5 49.1246C134.879 49.1246 134.375 48.6209 134.375 47.9996C134.375 46.9434 134.602 46.1158 134.989 45.4303C135.365 44.7654 135.857 44.3007 136.239 43.9499C136.266 43.925 136.293 43.9007 136.319 43.877C136.686 43.5397 136.918 43.3275 137.094 43.0624C137.249 42.8273 137.375 42.5219 137.375 41.9996C137.375 41.2597 137.116 40.7934 136.802 40.5047C136.469 40.1994 136 40.0264 135.5 40.0264C135 40.0264 134.531 40.1994 134.198 40.5047ZM144.875 38.9996C144.875 38.3783 145.379 37.8746 146 37.8746C154.906 37.8746 162.125 45.0938 162.125 53.9996C162.125 62.9054 154.906 70.1246 146 70.1246C137.094 70.1246 129.875 62.9054 129.875 53.9996C129.875 53.3783 130.379 52.8746 131 52.8746C131.621 52.8746 132.125 53.3783 132.125 53.9996C132.125 61.6628 138.337 67.8746 146 67.8746C151.392 67.8746 156.066 64.7988 158.362 60.3059C158.167 60.2343 157.989 60.1077 157.854 59.9295M157.853 59.9292L157.845 59.9187C157.835 59.9062 157.817 59.8838 157.79 59.8529C157.737 59.7908 157.651 59.695 157.533 59.5764C157.295 59.3386 156.93 59.0131 156.438 58.6857C155.46 58.0336 153.986 57.3746 152 57.3746C150.014 57.3746 148.54 58.0336 147.562 58.6857C147.07 59.0131 146.705 59.3386 146.467 59.5764C146.349 59.695 146.263 59.7908 146.21 59.8529C146.183 59.8838 146.165 59.9062 146.155 59.9187L146.147 59.9292L146.148 59.9275L146.149 59.9262L146.149 59.9254C146.148 59.9268 146.147 59.9282 146.146 59.9295C145.773 60.4223 145.07 60.5212 144.575 60.1496C144.078 59.7768 143.977 59.0717 144.35 58.5746L145.25 59.2496C144.35 58.5746 144.35 58.5742 144.351 58.5737L144.351 58.5728L144.353 58.5707L144.357 58.5656L144.367 58.5523C144.375 58.542 144.385 58.5289 144.398 58.5131C144.423 58.4817 144.458 58.4396 144.501 58.3886C144.589 58.2865 144.714 58.148 144.876 57.9854C145.201 57.6607 145.68 57.2361 146.313 56.8136C147.585 55.9656 149.486 55.1246 152 55.1246C154.514 55.1246 156.415 55.9656 157.687 56.8136C158.32 57.2361 158.799 57.6607 159.124 57.9854C159.17 58.0317 159.213 58.0761 159.254 58.1183C159.657 56.817 159.875 55.4337 159.875 53.9996C159.875 46.3364 153.663 40.1246 146 40.1246C145.379 40.1246 144.875 39.6209 144.875 38.9996M143.75 49.1246C143.849 49.1246 143.945 49.0851 144.015 49.0148C144.085 48.9445 144.125 48.8491 144.125 48.7496C144.125 48.6502 144.085 48.5548 144.015 48.4845C143.945 48.4141 143.849 48.3746 143.75 48.3746C143.651 48.3746 143.555 48.4141 143.485 48.4845C143.415 48.5548 143.375 48.6502 143.375 48.7496C143.375 48.8491 143.415 48.9445 143.485 49.0148C143.555 49.0851 143.651 49.1246 143.75 49.1246ZM142.424 47.4238C142.776 47.0722 143.253 46.8746 143.75 46.8746C144.247 46.8746 144.724 47.0722 145.076 47.4238C145.427 47.7754 145.625 48.2523 145.625 48.7496C145.625 49.2469 145.427 49.7238 145.076 50.0754C144.724 50.4271 144.247 50.6246 143.75 50.6246C143.253 50.6246 142.776 50.4271 142.424 50.0754C142.073 49.7238 141.875 49.2469 141.875 48.7496C141.875 48.2523 142.073 47.7754 142.424 47.4238ZM154.25 49.1246C154.349 49.1246 154.445 49.0851 154.515 49.0148C154.585 48.9445 154.625 48.8491 154.625 48.7496C154.625 48.6502 154.585 48.5548 154.515 48.4845C154.445 48.4141 154.349 48.3746 154.25 48.3746C154.151 48.3746 154.055 48.4141 153.985 48.4845C153.915 48.5548 153.875 48.6502 153.875 48.7496C153.875 48.8491 153.915 48.9445 153.985 49.0148C154.055 49.0851 154.151 49.1246 154.25 49.1246ZM152.924 47.4238C153.276 47.0722 153.753 46.8746 154.25 46.8746C154.747 46.8746 155.224 47.0722 155.576 47.4238C155.927 47.7754 156.125 48.2523 156.125 48.7496C156.125 49.2469 155.927 49.7238 155.576 50.0754C155.224 50.4271 154.747 50.6246 154.25 50.6246C153.753 50.6246 153.276 50.4271 152.924 50.0754C152.573 49.7238 152.375 49.2469 152.375 48.7496C152.375 48.2523 152.573 47.7754 152.924 47.4238ZM136.272 51.6657C136.731 52.0836 136.765 52.7951 136.347 53.2549L136.332 53.2714C135.915 53.7311 135.203 53.765 134.743 53.3471C134.284 52.9291 134.25 52.2176 134.668 51.7579L134.683 51.7414C135.1 51.2816 135.812 51.2477 136.272 51.6657Z" fill="#262541"/>
<rect x="158" y="14" width="28" height="28" rx="14" fill="white"/>
<path fill-rule="evenodd" clip-rule="evenodd" d="M162.75 28C162.75 22.8914 166.891 18.75 172 18.75C177.109 18.75 181.25 22.8914 181.25 28C181.25 33.1086 177.109 37.25 172 37.25C166.891 37.25 162.75 33.1086 162.75 28ZM172.512 22.9414C172.82 23.2186 172.845 23.6928 172.567 24.0006L172.557 24.0118C172.28 24.3196 171.806 24.3446 171.498 24.0674C171.19 23.7903 171.165 23.3161 171.443 23.0083L171.453 22.9971C171.73 22.6893 172.204 22.6643 172.512 22.9414ZM172 26.75C172.414 26.75 172.75 27.0858 172.75 27.5V32.5C172.75 32.9142 172.414 33.25 172 33.25C171.586 33.25 171.25 32.9142 171.25 32.5V27.5C171.25 27.0858 171.586 26.75 172 26.75Z" fill="#262541"/>
<path fill-rule="evenodd" clip-rule="evenodd" d="M161.25 28C161.25 22.0629 166.063 17.25 172 17.25C177.937 17.25 182.75 22.0629 182.75 28C182.75 33.937 177.937 38.75 172 38.75C166.063 38.75 161.25 33.937 161.25 28ZM172 18.75C166.891 18.75 162.75 22.8914 162.75 28C162.75 33.1086 166.891 37.25 172 37.25C177.109 37.25 181.25 33.1086 181.25 28C181.25 22.8914 177.109 18.75 172 18.75Z" fill="#262541"/>
<rect x="116.5" y="24.5" width="59" height="59" rx="7.5" stroke="#DFDEED"/>
</svg>
