<svg width="21" height="21" viewBox="0 0 21 21" fill="none" xmlns="http://www.w3.org/2000/svg">
<path fill-rule="evenodd" clip-rule="evenodd" d="M14.0238 2.53413C13.9003 2.41064 13.7308 2.34445 13.5563 2.3516C13.3818 2.35875 13.2182 2.43858 13.1052 2.57176L9.42392 6.91123L6.59649 6.61842C6.40927 6.59903 6.22327 6.66505 6.09017 6.79815L4.67596 8.21236C4.55875 8.32957 4.4929 8.48854 4.4929 8.6543C4.4929 8.82006 4.55874 8.97903 4.67596 9.09624L8.19845 12.6187L3.00923 17.808C2.76515 18.052 2.76515 18.4478 3.00923 18.6918C3.25331 18.9359 3.64904 18.9359 3.89311 18.6918L9.08234 13.5026L12.3363 16.7566C12.4535 16.8738 12.6125 16.9397 12.7783 16.9397C12.944 16.9396 13.103 16.8738 13.2202 16.7566L14.6344 15.3423C14.7675 15.2092 14.8335 15.0232 14.8141 14.836L14.5213 12.0087L18.8609 8.32743C18.9941 8.21445 19.0739 8.0509 19.0811 7.8764C19.0882 7.7019 19.022 7.53237 18.8985 7.40887L14.0238 2.53413ZM9.08234 13.5026L9.30978 13.2752C9.55386 13.0311 9.55386 12.6354 9.30978 12.3913C9.0657 12.1472 8.66997 12.1472 8.4259 12.3913L8.19845 12.6187L9.08234 13.5026ZM10.1639 7.97117L13.6196 3.89771L17.5349 7.81306L13.4614 11.2686C13.3041 11.402 13.2228 11.6045 13.244 11.8096L13.5401 14.6689L12.7782 15.4308L6.00178 8.6543L6.76367 7.89242L9.62296 8.18853C9.8281 8.20977 10.0305 8.12844 10.1639 7.97117Z" fill="#575775"/>
<path d="M9.30978 13.2752C9.55386 13.0311 9.55386 12.6354 9.30978 12.3913C9.0657 12.1472 8.66997 12.1472 8.4259 12.3913L8.19845 12.6187L9.08234 13.5026L9.30978 13.2752Z" fill="#575775"/>
</svg>
