<svg width="24" height="24" viewBox="0 0 24 24" fill="none" xmlns="http://www.w3.org/2000/svg">
<g id="icon / sound / on / 21">
<g id="Vector">
<path fill-rule="evenodd" clip-rule="evenodd" d="M19.5303 18.4697L16.2739 15.2133C16.1192 15.4067 15.954 15.5915 15.7793 15.7666C15.6004 15.946 15.4114 16.1154 15.2132 16.2739L18.4697 19.5303C18.7626 19.8232 19.2374 19.8232 19.5303 19.5303C19.8232 19.2374 19.8232 18.7626 19.5303 18.4697Z" fill="#575775"/>
<path fill-rule="evenodd" clip-rule="evenodd" d="M14.9697 14.9697C15.2626 14.6768 15.7374 14.6768 16.0303 14.9697L16.2739 15.2133C17.1972 14.0588 17.75 12.5934 17.75 11C17.75 7.27208 14.7279 4.25 11 4.25C7.27208 4.25 4.25 7.27208 4.25 11C4.25 14.7279 7.27208 17.75 11 17.75C12.5934 17.75 14.0588 17.1972 15.2132 16.2739L14.9697 16.0303C14.6768 15.7374 14.6768 15.2626 14.9697 14.9697ZM5.75 11C5.75 8.1005 8.1005 5.75 11 5.75C13.8995 5.75 16.25 8.1005 16.25 11C16.25 12.4475 15.6652 13.757 14.7173 14.7074C13.766 15.6612 12.4524 16.25 11 16.25C8.1005 16.25 5.75 13.8995 5.75 11Z" fill="#575775"/>
<path d="M16.0303 14.9697C15.7374 14.6768 15.2626 14.6768 14.9697 14.9697C14.6768 15.2626 14.6768 15.7374 14.9697 16.0303L15.2132 16.2739C15.4114 16.1154 15.6004 15.946 15.7793 15.7666C15.954 15.5915 16.1192 15.4067 16.2739 15.2133L16.0303 14.9697Z" fill="#575775"/>
</g>
</g>
</svg>
