<svg width="24" height="24" viewBox="0 0 24 24" fill="none" xmlns="http://www.w3.org/2000/svg">
<rect width="24" height="24" rx="12" fill="white"/>
<path fill-rule="evenodd" clip-rule="evenodd" d="M1.25 12C1.25 6.06294 6.06294 1.25 12 1.25C17.937 1.25 22.75 6.06293 22.75 12C22.75 17.937 17.937 22.75 12 22.75C6.06293 22.75 1.25 17.937 1.25 12ZM12 2.75C6.89136 2.75 2.75 6.89136 2.75 12C2.75 17.1086 6.89137 21.25 12 21.25C17.1086 21.25 21.25 17.1086 21.25 12C21.25 6.89137 17.1086 2.75 12 2.75Z" fill="#148783"/>
<path fill-rule="evenodd" clip-rule="evenodd" d="M2.75 12C2.75 6.89136 6.89136 2.75 12 2.75C17.1086 2.75 21.25 6.89137 21.25 12C21.25 17.1086 17.1086 21.25 12 21.25C6.89137 21.25 2.75 17.1086 2.75 12ZM17.5303 7.96967C17.8232 8.26256 17.8232 8.73744 17.5303 9.03033L10.5303 16.0303C10.2374 16.3232 9.76256 16.3232 9.46967 16.0303L6.46967 13.0303C6.17678 12.7374 6.17678 12.2626 6.46967 11.9697C6.76256 11.6768 7.23744 11.6768 7.53033 11.9697L10 14.4393L16.4697 7.96967C16.7626 7.67678 17.2374 7.67678 17.5303 7.96967Z" fill="#148783"/>
</svg>
