<svg width="22" height="22" viewBox="0 0 22 22" fill="none" xmlns="http://www.w3.org/2000/svg">
<path fill-rule="evenodd" clip-rule="evenodd" d="M11 1.75C5.89121 1.75 1.75 5.89121 1.75 11C1.75 16.1088 5.89121 20.25 11 20.25C16.1088 20.25 20.25 16.1088 20.25 11C20.25 5.89121 16.1088 1.75 11 1.75ZM0.25 11C0.25 5.06279 5.06279 0.25 11 0.25C16.9372 0.25 21.75 5.06279 21.75 11C21.75 16.9372 16.9372 21.75 11 21.75C5.06279 21.75 0.25 16.9372 0.25 11ZM7.5 7.75C7.5663 7.75 7.62989 7.72366 7.67678 7.67678C7.72366 7.62989 7.75 7.5663 7.75 7.5C7.75 7.4337 7.72366 7.37011 7.67678 7.32322C7.62989 7.27634 7.5663 7.25 7.5 7.25C7.4337 7.25 7.37011 7.27634 7.32322 7.32322C7.27634 7.37011 7.25 7.4337 7.25 7.5C7.25 7.5663 7.27634 7.62989 7.32322 7.67678C7.37011 7.72366 7.4337 7.75 7.5 7.75ZM6.61612 6.61612C6.85054 6.38169 7.16848 6.25 7.5 6.25C7.83152 6.25 8.14946 6.38169 8.38388 6.61612C8.61831 6.85054 8.75 7.16848 8.75 7.5C8.75 7.83152 8.61831 8.14946 8.38388 8.38388C8.14946 8.61831 7.83152 8.75 7.5 8.75C7.16848 8.75 6.85054 8.61831 6.61612 8.38388C6.38169 8.14946 6.25 7.83152 6.25 7.5C6.25 7.16848 6.38169 6.85054 6.61612 6.61612ZM14.5 7.75C14.5663 7.75 14.6299 7.72366 14.6768 7.67678C14.7237 7.62989 14.75 7.5663 14.75 7.5C14.75 7.4337 14.7237 7.37011 14.6768 7.32322C14.6299 7.27634 14.5663 7.25 14.5 7.25C14.4337 7.25 14.3701 7.27634 14.3232 7.32322C14.2763 7.37011 14.25 7.4337 14.25 7.5C14.25 7.5663 14.2763 7.62989 14.3232 7.67678C14.3701 7.72366 14.4337 7.75 14.5 7.75ZM13.6161 6.61612C13.8505 6.38169 14.1685 6.25 14.5 6.25C14.8315 6.25 15.1495 6.38169 15.3839 6.61612C15.6183 6.85054 15.75 7.16848 15.75 7.5C15.75 7.83152 15.6183 8.14946 15.3839 8.38388C15.1495 8.61831 14.8315 8.75 14.5 8.75C14.1685 8.75 13.8505 8.61831 13.6161 8.38388C13.3817 8.14946 13.25 7.83152 13.25 7.5C13.25 7.16848 13.3817 6.85054 13.6161 6.61612ZM7.0996 13.0495C7.0996 13.0495 7.0996 13.0495 7.09959 13.0495L7.09928 13.049L7.09922 13.049L7.09857 13.0481L7.09767 13.0469L7.10323 13.0539C7.10988 13.0622 7.12205 13.0772 7.13975 13.0978C7.1752 13.1392 7.23251 13.2031 7.31158 13.2822C7.4701 13.4407 7.71357 13.6577 8.04103 13.876C8.69305 14.3106 9.67573 14.75 11 14.75C12.3243 14.75 13.3069 14.3106 13.959 13.876C14.2864 13.6577 14.5299 13.4407 14.6884 13.2822C14.7675 13.2031 14.8248 13.1392 14.8602 13.0978C14.8779 13.0772 14.8901 13.0622 14.8968 13.0539L14.9023 13.0469L14.9014 13.0481L14.9008 13.049M7.0996 13.0495C7.09949 13.0493 7.09939 13.0492 7.09928 13.049C7.09869 13.0483 7.0981 13.0475 7.09751 13.0467C6.84834 12.7182 6.38027 12.6523 6.05 12.9C5.71863 13.1485 5.65147 13.6186 5.9 13.95L6.5 13.5C5.9 13.95 5.90022 13.9503 5.90044 13.9506L5.90092 13.9512L5.90197 13.9526L5.90452 13.956L5.91135 13.9649C5.91667 13.9717 5.92353 13.9805 5.93193 13.991C5.94872 14.012 5.9717 14.04 6.00087 14.074C6.05918 14.1421 6.14249 14.2344 6.25092 14.3428C6.4674 14.5593 6.78643 14.8423 7.20897 15.124C8.05695 15.6894 9.32427 16.25 11 16.25C12.6757 16.25 13.9431 15.6894 14.791 15.124C15.2136 14.8423 15.5326 14.5593 15.7491 14.3428C15.8575 14.2344 15.9408 14.1421 15.9991 14.074C16.0283 14.04 16.0513 14.012 16.0681 13.991C16.0765 13.9805 16.0833 13.9717 16.0886 13.9649L16.0955 13.956L16.098 13.9526L16.0991 13.9512L16.0996 13.9506C16.0998 13.9503 16.1 13.95 15.5 13.5L16.1 13.95C16.3485 13.6186 16.2814 13.1485 15.95 12.9C15.6197 12.6523 15.1516 12.7182 14.9025 13.0467" fill="#575775"/>
</svg>
