<svg width="292" height="96" viewBox="0 0 292 96" fill="none" xmlns="http://www.w3.org/2000/svg">
<path d="M200 60.5C200 59.6716 200.362 59 200.808 59H206.192C206.638 59 207 59.6716 207 60.5C207 61.3284 206.638 62 206.192 62H200.808C200.362 62 200 61.3284 200 60.5Z" fill="#575775"/>
<path d="M191 40.5C191 39.6716 191.362 39 191.808 39H197.192C197.638 39 198 39.6716 198 40.5C198 41.3284 197.638 42 197.192 42H191.808C191.362 42 191 41.3284 191 40.5Z" fill="#575775"/>
<path d="M184 76.5C184 75.6716 184.672 75 185.5 75H195.5C196.328 75 197 75.6716 197 76.5C197 77.3284 196.328 78 195.5 78H185.5C184.672 78 184 77.3284 184 76.5Z" fill="#575775"/>
<path d="M83 53.5C83 52.6716 83.3616 52 83.8077 52H89.1923C89.6384 52 90 52.6716 90 53.5C90 54.3284 89.6384 55 89.1923 55H83.8077C83.3616 55 83 54.3284 83 53.5Z" fill="#575775"/>
<path d="M97 73.5C97 72.6716 97.3616 72 97.8077 72H103.192C103.638 72 104 72.6716 104 73.5C104 74.3284 103.638 75 103.192 75H97.8077C97.3616 75 97 74.3284 97 73.5Z" fill="#575775"/>
<path d="M91 37.5C91 36.6716 91.6716 36 92.5 36H102.5C103.328 36 104 36.6716 104 37.5C104 38.3284 103.328 39 102.5 39H92.5C91.6716 39 91 38.3284 91 37.5Z" fill="#575775"/>
<rect x="116.5" y="24.5" width="59" height="59" rx="7.5" fill="#FAFAFF"/>
<path d="M153.5 54.75C153.699 54.75 153.89 54.671 154.03 54.5303C154.171 54.3897 154.25 54.1989 154.25 54C154.25 53.8011 154.171 53.6103 154.03 53.4697C153.89 53.329 153.699 53.25 153.5 53.25C153.301 53.25 153.11 53.329 152.97 53.4697C152.829 53.6103 152.75 53.8011 152.75 54C152.75 54.1989 152.829 54.3897 152.97 54.5303C153.11 54.671 153.301 54.75 153.5 54.75ZM146 54.75C146.199 54.75 146.39 54.671 146.53 54.5303C146.671 54.3897 146.75 54.1989 146.75 54C146.75 53.8011 146.671 53.6103 146.53 53.4697C146.39 53.329 146.199 53.25 146 53.25C145.801 53.25 145.61 53.329 145.47 53.4697C145.329 53.6103 145.25 53.8011 145.25 54C145.25 54.1989 145.329 54.3897 145.47 54.5303C145.61 54.671 145.801 54.75 146 54.75ZM138.5 54.75C138.699 54.75 138.89 54.671 139.03 54.5303C139.171 54.3897 139.25 54.1989 139.25 54C139.25 53.8011 139.171 53.6103 139.03 53.4697C138.89 53.329 138.699 53.25 138.5 53.25C138.301 53.25 138.11 53.329 137.97 53.4697C137.829 53.6103 137.75 53.8011 137.75 54C137.75 54.1989 137.829 54.3897 137.97 54.5303C138.11 54.671 138.301 54.75 138.5 54.75Z" fill="#575775"/>
<path fill-rule="evenodd" clip-rule="evenodd" d="M137.174 52.6742C137.526 52.3225 138.003 52.125 138.5 52.125C138.997 52.125 139.474 52.3225 139.826 52.6742C140.177 53.0258 140.375 53.5027 140.375 54C140.375 54.4973 140.177 54.9742 139.826 55.3258C139.474 55.6775 138.997 55.875 138.5 55.875C138.003 55.875 137.526 55.6775 137.174 55.3258C136.823 54.9742 136.625 54.4973 136.625 54C136.625 53.5027 136.823 53.0258 137.174 52.6742ZM138.5 54.375C138.599 54.375 138.695 54.3355 138.765 54.2652C138.835 54.1948 138.875 54.0995 138.875 54C138.875 53.9005 138.835 53.8052 138.765 53.7348C138.695 53.6645 138.599 53.625 138.5 53.625C138.401 53.625 138.305 53.6645 138.235 53.7348C138.165 53.8052 138.125 53.9005 138.125 54C138.125 54.0995 138.165 54.1948 138.235 54.2652C138.305 54.3355 138.401 54.375 138.5 54.375ZM144.674 52.6742C145.026 52.3225 145.503 52.125 146 52.125C146.497 52.125 146.974 52.3225 147.326 52.6742C147.677 53.0258 147.875 53.5027 147.875 54C147.875 54.4973 147.677 54.9742 147.326 55.3258C146.974 55.6775 146.497 55.875 146 55.875C145.503 55.875 145.026 55.6775 144.674 55.3258C144.323 54.9742 144.125 54.4973 144.125 54C144.125 53.5027 144.323 53.0258 144.674 52.6742ZM146 54.375C146.099 54.375 146.195 54.3355 146.265 54.2652C146.335 54.1948 146.375 54.0995 146.375 54C146.375 53.9005 146.335 53.8052 146.265 53.7348C146.195 53.6645 146.099 53.625 146 53.625C145.901 53.625 145.805 53.6645 145.735 53.7348C145.665 53.8052 145.625 53.9005 145.625 54C145.625 54.0995 145.665 54.1948 145.735 54.2652C145.805 54.3355 145.901 54.375 146 54.375ZM152.174 52.6742C152.526 52.3225 153.003 52.125 153.5 52.125C153.997 52.125 154.474 52.3225 154.826 52.6742C155.177 53.0258 155.375 53.5027 155.375 54C155.375 54.4973 155.177 54.9742 154.826 55.3258C154.474 55.6775 153.997 55.875 153.5 55.875C153.003 55.875 152.526 55.6775 152.174 55.3258C151.823 54.9742 151.625 54.4973 151.625 54C151.625 53.5027 151.823 53.0258 152.174 52.6742ZM153.5 54.375C153.599 54.375 153.695 54.3355 153.765 54.2652C153.835 54.1948 153.875 54.0995 153.875 54C153.875 53.9005 153.835 53.8052 153.765 53.7348C153.695 53.6645 153.599 53.625 153.5 53.625C153.401 53.625 153.305 53.6645 153.235 53.7348C153.165 53.8052 153.125 53.9005 153.125 54C153.125 54.0995 153.165 54.1948 153.235 54.2652C153.305 54.3355 153.401 54.375 153.5 54.375Z" fill="#575775"/>
<path fill-rule="evenodd" clip-rule="evenodd" d="M129.875 54C129.875 45.0942 137.094 37.875 146 37.875C154.906 37.875 162.125 45.0942 162.125 54C162.125 62.9055 154.906 70.1245 146.001 70.125C143.311 70.1289 140.665 69.4569 138.305 68.1736L131.956 69.356C131.591 69.4239 131.217 69.3077 130.955 69.0455C130.692 68.7833 130.576 68.4086 130.644 68.044L131.826 61.6949C130.582 59.4078 129.875 56.7836 129.875 54ZM146 40.125C138.337 40.125 132.125 46.3368 132.125 54C132.125 56.5286 132.801 58.8983 133.981 60.9364C134.115 61.1689 134.162 61.4419 134.113 61.706L133.156 66.8438L138.294 65.887C138.558 65.8379 138.831 65.8847 139.063 66.0192C141.171 67.2384 143.563 67.8787 145.998 67.875C153.661 67.875 159.875 61.6632 159.875 54C159.875 46.3368 153.663 40.125 146 40.125Z" fill="#575775"/>
<rect x="158" y="14" width="28" height="28" rx="14" fill="white"/>
<path fill-rule="evenodd" clip-rule="evenodd" d="M162.75 28C162.75 22.8914 166.891 18.75 172 18.75C177.109 18.75 181.25 22.8914 181.25 28C181.25 33.1086 177.109 37.25 172 37.25C166.891 37.25 162.75 33.1086 162.75 28ZM172.512 22.9414C172.82 23.2186 172.845 23.6928 172.567 24.0006L172.557 24.0118C172.28 24.3196 171.806 24.3446 171.498 24.0674C171.19 23.7903 171.165 23.3161 171.443 23.0083L171.453 22.9971C171.73 22.6893 172.204 22.6643 172.512 22.9414ZM172 26.75C172.414 26.75 172.75 27.0858 172.75 27.5V32.5C172.75 32.9142 172.414 33.25 172 33.25C171.586 33.25 171.25 32.9142 171.25 32.5V27.5C171.25 27.0858 171.586 26.75 172 26.75Z" fill="#262541"/>
<path fill-rule="evenodd" clip-rule="evenodd" d="M161.25 28C161.25 22.0629 166.063 17.25 172 17.25C177.937 17.25 182.75 22.0629 182.75 28C182.75 33.937 177.937 38.75 172 38.75C166.063 38.75 161.25 33.937 161.25 28ZM172 18.75C166.891 18.75 162.75 22.8914 162.75 28C162.75 33.1086 166.891 37.25 172 37.25C177.109 37.25 181.25 33.1086 181.25 28C181.25 22.8914 177.109 18.75 172 18.75Z" fill="#262541"/>
<rect x="116.5" y="24.5" width="59" height="59" rx="7.5" stroke="#DFDEED"/>
</svg>
