<svg width="24" height="24" viewBox="0 0 24 24" fill="none" xmlns="http://www.w3.org/2000/svg">
<path fill-rule="evenodd" clip-rule="evenodd" d="M10.5676 2.41298C11.0017 2.1426 11.4965 2 12.0005 2C12.5046 2 12.9994 2.1426 13.4335 2.41298C13.8653 2.68188 14.2215 3.06739 14.4654 3.52982L21.7465 16.7993C21.7646 16.8323 21.7805 16.8667 21.7941 16.902C21.9667 17.3528 22.0323 17.8414 21.9852 18.3251C21.938 18.8088 21.7795 19.2729 21.5235 19.6771C21.2675 20.0812 20.9218 20.413 20.5165 20.6436C20.1112 20.8742 19.6586 20.9966 19.1983 21L19.1929 21H4.82874C4.80987 21 4.79115 20.9993 4.77262 20.9979C4.74095 21.0003 4.70879 21.0007 4.67625 20.9989C4.22678 20.9744 3.78937 20.8367 3.40054 20.5973C3.01171 20.3579 2.68275 20.0237 2.44111 19.6226C2.19948 19.2215 2.05219 18.7652 2.01153 18.2918C1.97088 17.8183 2.03804 17.3414 2.20742 16.901C2.22089 16.866 2.23665 16.832 2.25459 16.7993L9.53572 3.52984C9.77962 3.0674 10.1358 2.68188 10.5676 2.41298ZM12.7998 17.25C12.7998 17.6642 12.464 18 12.0498 18C11.6356 18 11.2998 17.6642 11.2998 17.25C11.2998 16.8358 11.6356 16.5 12.0498 16.5C12.464 16.5 12.7998 16.8358 12.7998 17.25ZM12.0498 8C11.6356 8 11.2998 8.33579 11.2998 8.75V14.25C11.2998 14.6642 11.6356 15 12.0498 15C12.464 15 12.7998 14.6642 12.7998 14.25V8.75C12.7998 8.33579 12.464 8 12.0498 8Z" fill="#F57125"/>
</svg>
