<svg width="24" height="24" viewBox="0 0 24 24" fill="none" xmlns="http://www.w3.org/2000/svg">
<path fill-rule="evenodd" clip-rule="evenodd" d="M3.75 20.25V3.75H20.25V20.25H3.75ZM12 6.25C12.4142 6.25 12.75 6.58579 12.75 7V13C12.75 13.4142 12.4142 13.75 12 13.75C11.5858 13.75 11.25 13.4142 11.25 13V7C11.25 6.58579 11.5858 6.25 12 6.25ZM12.512 16.4417C12.8197 16.7189 12.8445 17.1931 12.5672 17.5009L12.5572 17.512C12.28 17.8197 11.8058 17.8445 11.498 17.5672C11.1903 17.29 11.1655 16.8158 11.4428 16.508L11.4528 16.4969C11.73 16.1892 12.2042 16.1644 12.512 16.4417Z" fill="#F32929"/>
<path fill-rule="evenodd" clip-rule="evenodd" d="M3.75 3.75V20.25H20.25V3.75H3.75ZM2.25 3.6C2.25 2.85442 2.85442 2.25 3.6 2.25H20.4C21.1456 2.25 21.75 2.85444 21.75 3.6V20.4C21.75 21.1456 21.1456 21.75 20.4 21.75H3.6C2.85444 21.75 2.25 21.1456 2.25 20.4V3.6Z" fill="#F32929"/>
</svg>
