<svg width="24" height="24" viewBox="0 0 24 24" fill="none" xmlns="http://www.w3.org/2000/svg">
<g id="icon / info_filled">
<g id="Vector (Stroke)">
<path fill-rule="evenodd" clip-rule="evenodd" d="M2.75 12C2.75 6.89136 6.89136 2.75 12 2.75C17.1086 2.75 21.25 6.89137 21.25 12C21.25 17.1086 17.1086 21.25 12 21.25C6.89137 21.25 2.75 17.1086 2.75 12ZM12.5118 6.94144C12.8196 7.21855 12.8446 7.69277 12.5674 8.00064L12.5574 8.01175C12.2803 8.31962 11.8061 8.34456 11.4983 8.06745C11.1904 7.79034 11.1654 7.31612 11.4426 7.00825L11.4526 6.99714C11.7297 6.68927 12.2039 6.66433 12.5118 6.94144ZM12 10.75C12.4142 10.75 12.75 11.0858 12.75 11.5V16.5C12.75 16.9142 12.4142 17.25 12 17.25C11.5858 17.25 11.25 16.9142 11.25 16.5V11.5C11.25 11.0858 11.5858 10.75 12 10.75Z" fill="#262541"/>
<path fill-rule="evenodd" clip-rule="evenodd" d="M1.25 12C1.25 6.06294 6.06294 1.25 12 1.25C17.937 1.25 22.75 6.06293 22.75 12C22.75 17.937 17.937 22.75 12 22.75C6.06293 22.75 1.25 17.937 1.25 12ZM12 2.75C6.89136 2.75 2.75 6.89136 2.75 12C2.75 17.1086 6.89137 21.25 12 21.25C17.1086 21.25 21.25 17.1086 21.25 12C21.25 6.89137 17.1086 2.75 12 2.75Z" fill="#262541"/>
</g>
</g>
</svg>
